<svg id="flag-icons-as" xmlns="http://www.w3.org/2000/svg" xmlns:xlink="http://www.w3.org/1999/xlink" viewBox="0 0 1023.85 511.87"><defs><clipPath id="clip-path" transform="translate(512 -0.11)"><polygon points="-0.13 0.11 511.85 0.11 511.85 511.98 -0.03 511.98 -0.13 0.11" fill="none"/></clipPath></defs><title>as</title><g clip-path="url(#clip-path)"><path d="M-512,.11H511.85V512H-512Z" transform="translate(512 -0.11)" fill="#006"/><path d="M-512,256.05,511.85,512V.11Z" transform="translate(512 -0.11)" fill="#bd1021" fill-rule="evenodd"/><path d="M511.85,27.46V484.64L-402.3,256.05Z" transform="translate(512 -0.11)" fill="#fff" fill-rule="evenodd"/><path d="M339.92,313.43s-6.4-5.16,1.13-13.63c-4.13-3.5-.31-10.21-.31-10.21s-6.91-2.58.31-13.42c-5.16-3.4-2.89-11.35-2.89-11.35s-17.13-6.3-.82-12.38c-13.42,5.78-25.91-7.85-25.91-7.85l-19.5.52c-3.3-16.1-28.9-2.07-9.81-48.51-4.95-.82-10.52-2.27-16,1.76s-21.26,12.8-30.55,4.13,6.19-21.26,6.4-21.57,20.64-10.73,23.53-17.75c-.31-5.16-6.71-9.29-.83-20.64,6.61-10.73,47.58-20.85,66.26-24.36a29.62,29.62,0,0,0,13-11.87l2.06,7.54s41.28-12.28,43.35-18.06.82,5.16.82,5.16c16.31-1.34,36.95-15.28,39.84-8.88,13.62-2.68,39.73-14.24,39.73-14.24s9.08-.31,2.68,9.6c4.13,6.29-1.23,11.87-1.44,11.87s1.75,6.4-3.51,9.9c1.76,5.47-3.2,9.81-3.2,9.81s2.27,6.71-7,10.22c.93,5.77-5.16,6.91-5.16,6.91s.83,6.19-3.19,8.77c0,4.65-4.65,7-4.65,7s2.89,1.65-1.24,4.64q-22.87,14.55-46.13,28.49c0-.31,30.76,5.47,32.82,6.6S455,208.16,455,208.16l-23.53,29.11s-26.21-2.89-27.34-1.45,5.57,2.06,7,4.34,3.72,7.84,8.36,7.22-8.67,8.46-17.44,9.29c0,3.3,11,3.61,14,1s-7,7.53-8.26,9,13.11-2.07,13.11-2.07-2.27,9.6-14.76,12.49c4.95,8.15,2.89,13.42,2.58,13.42s-8.15-8.26-15.69-6.71A36.11,36.11,0,0,0,403,300c1.76,1.24-13.62.93-15.69-3.4S383.47,307,389,311.67c-6.4.31-12-3.51-12-3.51s-3.72,8.78-1.14,13.11-9-8.77-9-8.77l-22.08,9.29-4.95-8.36Z" transform="translate(512 -0.11)" fill="#9c3900" stroke="#000" stroke-linejoin="round" stroke-width="1.7" fill-rule="evenodd"/><path d="M169.22,296.09c.52,0,32.1-.52,46.55-8.77a86,86,0,0,0,17.13,19.19L237.54,290s11.35.41,12.39,3.1a26.22,26.22,0,0,0-2.07,7.22s7.74.41,8.26,1.45-2.07,9.9-2.07,9.9l33.13,7.74s2.58-13,5.16-11.35,14,17.54,30,18.58,17.13-13.42,17.13-13.42l3.62,2.06s6.7-14.44,7.74-14.44,2.58,2.06,11.35,2.06c2.58,3.1,3.61,10.32,3.61,10.32s-9.8,9.8-6.71,17.54,3.61,5.68,3.61,5.68l71.42,17.13s3.61,5.68-2.58,8.77c0,.52-71.93-16.51-71.93-16.51s-6.71,7.74-11.87,6.19-1.55,3.1-1.55,3.1l77.61,6.19s5.67,7.23,1.55,9.29c-5.16.52-83.8-5.16-83.8-5.16s-4.65,9.8-9.91,1.55c-3.61,5.67-7.74-1.55-7.74-1.55s-6.71,5.16-7.74-.52c-5.68,4.13-9.29-2.58-9.29-2.58l-33.13-2.06-2.06,3.1s5.68,1.54-3.1,5.16,52.74,2.06,54.29,2.58-4.13,5.16-4.13,5.16,31.58,2.06,37.26-4.65S354,380.4,354,380.4s24.77-1,24.77-2.06-.41,7.84-17.54,6.81C371.5,391.86,384.5,396,384.5,396a65.91,65.91,0,0,1-27.87-.52c2.48,6.71,13.94,12.9,13.94,12.9s-8.26,7.23-26.94-10.32c5.16,9.29,1,12.9.52,11.87s-9.29-13.93-29.93-18.58c12.8,8.26,7.22,11.87,7.22,11.87s-6.81-11.87-17.64,0c-4.13-10.83-20.23-17-39.84-18.06-6.19-7.22-9.91-5.16-24.35-9.29a276.93,276.93,0,0,0-20.13-19.71s.52-14,14.45-12.38c1.55,4.64,1.55,3.09,1.55,3.09s15.48-5.78,20.22,2.07c6.71-12,16-1.86,17.55,2.37,4.44.62,26.83,1.24,26.83,1.24s-2.48-4.64-1-4.13,14-4.64,13.52-6.19-1-6.81,1-6.19c2.06.41-17.54-2.69-28.48,5.57-3.62-3.61-1-13.42-1-13.42l-32-6.7-1.65,8.25s-9.29,1.55-8.77-.51l-2.06,7.22s-12.39-3.1-12.39-3.61l3.61-18.06c0,.51-10.32,1-24.76,11.87-4.13-12.9-36.85-29.93-36.85-30.55Z" transform="translate(512 -0.11)" fill="#ffc221" stroke="#000" stroke-width="1.8" fill-rule="evenodd"/><path d="M247.86,300.84l-6.71,29.92m12.9-18.57L252,322m35.19-2.06-3.1,9.29m60.58,53.87c-.51,0-16.51,2.06-18.57,1.55s25.28,8.25,25.28,11.86m-35.71-9.8s-16-10.32-18.57-9.29,16-.62,17.54-2.06m-32-.62s-16.62.51-18.16-1,16,11.35,19.09,10.32m-33-16.52c-.61,0-11.45-4.12-16.09-5.16,4.12,4.13,7.22,9.81,17.54,11.87m2.58-13.41c-.52-1-20.64-7.23-20.64-10.32,4.64,1.54,11.35,3.61,17.54,2.06m110.22-15.48-2.06,9.29" transform="translate(512 -0.11)" fill="none" stroke="#000" stroke-width="1.8"/><path d="M209.57,253.67s-21.67,18.58,0,29.52c1-7.22,2.58-8.26,2.58-8.26s18.17,6.71,29-9.28c-4.64-6.82-12.9-4.13-12.9-4.13s-17.13,0-18.57-7.85Z" transform="translate(512 -0.11)" fill="#ffc221" stroke="#000" stroke-width="1.8" fill-rule="evenodd"/><path d="M227.74,261.93l-15.07,13m61.2,76.89a6.9,6.9,0,0,1,.41,8.46m72.45-4.64-5.68.51m-40.87-3.61,10.32,1.55m17.55-28.18s.2,10.43-8.46,10.22-5.89.21-5.89.21" transform="translate(512 -0.11)" fill="none" stroke="#000" stroke-width="1.8"/><path d="M334.65,324.16s3.51,1.14,2.69,3.82.82,10.11-9.29,17.44c-10.84,2.27-9.7-9.08-9.7-9.08" transform="translate(512 -0.11)" fill="none" stroke="#000" stroke-width="1.8"/><path d="M338.37,327.36s6.5-3.82,7.33,2.37-5.16,17.44-9.6,19.09-9.29-.2-8.67-3.09m18.88-15.79s5.78-4.64,7.54,1.44-4.65,19.82-7.23,20.13m7.85-20.13s2.89-1.44,4.95.31m-14.24,20.64c-1.24.31-6.19.62-7.84-3.09m-18.37-7-6.09.21m28.48,22.7-.62-9.6-2.27-3.09-4.13,4s-.51,9.6-2.27,10.42m2.17-10.73-3.1-6.19-4.95,6.19s-.62,8.67-2.37,9.6m2.37-9.91c0-.31-2.06-5.78-2.06-5.78s-5.78,3.1-6.4,5.47-.93,8.67-2.38,9.29m2.38-10.42s.62-5.16-1.14-5.16-9.59,7.22-9.9,13.52" transform="translate(512 -0.11)" fill="none" stroke="#000" stroke-width="1.8"/><path d="M210.4,253.88a16.87,16.87,0,0,0,3.72-6.4c.82-3.51-1.24-7.22,2.27-10.52,3.5-3.1,49.43-22.71,53.14-26.42a105.34,105.34,0,0,0,11.67-13.63c.92-1.75,3.5,8.67-4.34,13.42,8.46-2.37,13.93-5,17.44-3.82-3.51,5-12.8,13.11-17.13,13.11,10.11-3.82,19.4-7,22.09-5s-12.49,12.18-18.58,12.7c10.11-2.58,23.74-6.61,25.49-2.27-5.47,1.75-3.72,3.09-15.07,9.6-1.44,1.13-8.77,1.44-8.77,1.44,8.77-.83,20.64-4.33,21.88,2.06-7,2.58-9.6,6.09-15.48,7.54s-19.2,4.13-27.25,7.22c-8.25,3.2-20.12,12.49-20.12,12.49s-25.8.93-25.8.62-4.95-11.87-5.16-12.18Z" transform="translate(512 -0.11)" fill="#fff" stroke="#000" stroke-linejoin="round" stroke-width="1.8" fill-rule="evenodd"/><path d="M222.47,251.82s.31-5.78,3-7.85,15.68-7,18.57-11.35-4.33,7.54-3.2,10.73m-13.1-.31s6.4,2.38,4.95,7.23" transform="translate(512 -0.11)" fill="none" stroke="#000" stroke-width="1.8"/><path d="M235.27,246.45a4.85,4.85,0,0,1-9.6,1.41,4.76,4.76,0,0,1,0-1.41,4.85,4.85,0,0,1,9.6,0Z" transform="translate(512 -0.11)" fill="none" stroke="#000" stroke-width="1.6"/><path d="M432,236.13l50.26,9.6s5.57-6.4,2.68-9.91c7.54-1.75,5.47-11.66,5.47-11.66s8.77-3.72,1.45-12.38c4.95-5-1-8.78-1-8.78s2-8.67-4.43-9.59c1.75-6.92-11.05-9.29-11.05-9.29s-26.41,7.22-45.09,7.84c6.19,6.19-2.27,9.91-2.27,9.91s4.95,3.51,3.5,6.4.83,6.09-5.57,8c8.46,3.81-.82,10.32-.82,10.32S434.34,232.93,432,236.13Z" transform="translate(512 -0.11)" fill="#fff" stroke="#000" stroke-width="1.8" fill-rule="evenodd"/><path d="M427.12,225.4s44.38,5.16,46.44,5.16,9.91,2.68,11.35,5.26m-55.52-13.11,61.92,1.45m-61.61-2.89s58.72-3.41,62.75-9.6m-61-3.09S490.38,202.07,491,203m-61.61-1.75s57.28-9,57.79-7.53m-221-29.31s17.95,19.71,16.2,33" transform="translate(512 -0.11)" fill="none" stroke="#000" stroke-width="1.8"/><path d="M281.2,187s5.77,8.46,8.15,9.29,22.7,2.06,23.73,10.73c1.24,5.57-4.23,3.82-3.4,7.84,1.44,5.26,15.07,12,29.93,4.13M326,223.13s12.18,18,30.24-1.55m-9.29,7.84s14.76,7.85,26.94-12.38m-15.69,14.14s7.23,6.19,22.4-2.07M401.53,221s22.29,4.64,23.73,6.19m-15.37-11,15.68.52m-25.28-9.29s26.83-1.76,30.24,3.82M388.73,199s37.46,1.44,39.22,3.4m-30.86,34.89s6.4-1.76,7.22-.83M382.64,253s8.36,7.23,19.09,4.13m-14.45,8.15a35.41,35.41,0,0,0,20.85,1.65m-17.65,5.58s9.6,6.4,16,5.16m-20.33-1.45s6.6,5,6.91,7.64m-16.3-1.76s2.06,10.43,9.29,14.25m-14.25-9.6s-3.09,13.62,5,22.08m-13.31-11.35c0,.31-.62,6.4-.31,7m-52-59.86,15.69-.93s5.88-2.27,1.75-6.08m2.07,3.5c.31,0,14.76,1.14,18.57,5.47s8.47,13.11,11.05,14.55,3.2-.51,3.2-.51m-6.4-2.37s-7.85,13.41-1.76,17.44m-2.58-2.58s-7,9.28-1.44,13.93m-1.45-1.24s-5.57,9.08,1,15.17m-3.51-39c-.42.31-6.71,4.85-9,3.72m2.27,10.52s2.58,2.58,4.85,2.27M341,289.79l4.13,2.89m-3.62,7.54,3.62,2.16M275.93,157.7s7.54,4,13.62,0,35.51-18.89,43.14-21.36,11.87-16.52,13.42-22.6m-5.78,16.51,42.72-12.59a23.25,23.25,0,0,0,7.33-16.52m-3.1,11.67s42.83-4.23,42.83-20.13m-6.71,10.94s44.9-12.18,49.23-16.82" transform="translate(512 -0.11)" fill="none" stroke="#000" stroke-width="1.8"/><path d="M298.12,167.5s27.24-14,31.48-15.58,14-13.73-.62-13.73" transform="translate(512 -0.11)" fill="none" stroke="#000" stroke-width="1.8"/><path d="M311.33,173c.31,0,22.29-14.34,29.62-16.2,3.92-5.47,1.86-11.35-5-10" transform="translate(512 -0.11)" fill="none" stroke="#000" stroke-width="1.8"/><path d="M342.81,153.16c.51-.31,11.86-.62,7.94,8.25-5.88,4.23-31,16.83-31,16.83m17.13-34.58,47.68-15.89s4-8.26-1.86-9.49m39.74-14.35c0,.31,6.19,3.72,2.47,9.29-6.71,3.92-38.49,11.56-38.49,11.56M470.77,99l-44.89,12.59m41.49-2.38-39.11,11.87M464.07,119l-34.58,10.32m28.18-.62c-1,0-25.7,7.64-25.7,7.64m20.12,0-15.89,6.39m12,2.17c-.62,0-13.72,5.78-13.72,5.78m9.8,1.24L432,157.7M423.1,165a2.18,2.18,0,0,1,1.23,2.47M392.24,182s5.16,1.75.31,6.61c-2.48,3.4-9.5,2.47-13.73,8.56m46.75-83.69s6.4,1.54,1.55,9.8c-12.9,4.85-38.8,12.8-38.8,12.8a13.33,13.33,0,0,1-4.65,4c-3.3,1.76-40.25,12.18-40.25,12.18m84.32-29.31s7,3.1,0,8.26c-7.95,4.54-35.81,13.1-35.81,13.1s-.31,2.48-1.55,3.41-37.87,13.1-37.87,13.1" transform="translate(512 -0.11)" fill="none" stroke="#000" stroke-width="1.8"/><path d="M429.49,131.18s7.33,2.06,1,8.25c-7.74,4.54-32.2,12.8-32.2,12.8a14.07,14.07,0,0,1-6.4,4.33c-3.92,1.14-29.31,11.56-29.31,11.56m68.73-28.69c2.07.93,7.95,1.76.93,7.23-8.26,3.71-28.38,11.66-28.38,11.66l-1.86,3.4L370,175.45m63.26-27.87s3.09,3.72-3.72,8c-7.22,3.93-23.22,10-23.22,10m23.22-9.39s3.41,2.07-.82,5.16c-5,2.38-24.15,12.49-24.15,12.49l-12.59,8.26" transform="translate(512 -0.11)" fill="none" stroke="#000" stroke-width="1.8"/><path d="M385.53,128.08c0,.31,5.16,4.54,3.41,9.49,4.54,3.41,3.61,7,3.61,7s6.4,3.61,5.47,8.88c6.5,1.55,6.19,5.16,6.19,5.16L402,162s6.4-.31.93,7.95c3.3,1.75,1.76,3.92,1.76,3.92M403,170.29c-1,0-22.39,8-27.86,12.8" transform="translate(512 -0.11)" fill="none" stroke="#000" stroke-width="1.8"/><path d="M351.27,160.79s6.5-.31,5.57,6.71c7.22-2.47,5.78,4.65,5.78,4.65s8.57-3.41,7,7.22c5.47-1.13,4.64,4.33,4.64,4.33s4.85-.3,4.85,2.48a6.83,6.83,0,0,1,7-1.55s2.48-3.4,5.78-2.47M357.15,167.3c0,.62-28.79,16.51-28.79,16.51m34.26-11.35L341,185.87m29-6.71c0,.31-19,11.36-19,11.36m23.22-7s-13.42,11-16.51,10.32m21.15-6.92s-7.63,5.78-14,8.47m22-10.94s2.37,3.09-12.9,10.94" transform="translate(512 -0.11)" fill="none" stroke="#000" stroke-width="1.8"/></g></svg>