<svg id="flag-icons-bi" xmlns="http://www.w3.org/2000/svg" xmlns:xlink="http://www.w3.org/1999/xlink" viewBox="0 0 857.52 512"><defs><clipPath id="clip-path" transform="translate(178 0.04)"><rect x="-0.12" y="-0.04" width="512" height="512" fill="none"/></clipPath></defs><title>bi</title><g clip-path="url(#clip-path)"><path d="M-178,0,250.91,256-178,512ZM679.52,0,250.91,256,679.23,512Z" transform="translate(178 0.04)" fill="#18b637" fill-rule="evenodd"/><path d="M-178,0,250.91,256,679.23,0Zm0,512L250.91,256,679.23,512Z" transform="translate(178 0.04)" fill="#cf0921" fill-rule="evenodd"/><path d="M679.52,0H599.65L-178,464.27V512h79.87L679.52,47.65Z" transform="translate(178 0.04)" fill="#fff" fill-rule="evenodd"/><path d="M399,256a148,148,0,1,1-296.08,0v0A148,148,0,0,1,399,256Z" transform="translate(178 0.04)" fill="#fff" fill-rule="evenodd"/><path d="M-178,0V47.65L599.65,512h79.87V464.27L-98.13,0Z" transform="translate(178 0.04)" fill="#fff" fill-rule="evenodd"/><path d="M279.87,200.08l-19.31.29-9.94,16.39-10-16.39-19-.29,9.36-17-9.36-16.68,19.31-.58,9.95-16.39,9.94,16.68h19l-9.07,17ZM215.51,311.84H196.2l-9.95,16.68-9.95-16.39L157,311.55l9.36-16.68-9.06-17,19-.29,9.95-16.38,9.95,16.38,19.31.58-9.37,16.68Zm130.48,0H326.68l-9.94,16.68-9.95-16.39-19-.58,9.07-16.68-9.07-17,19.31-.29L317,261.23l10,16.38,19,.58-9.36,16.68Z" transform="translate(178 0.04)" fill="#cf0921" stroke="#18b637" fill-rule="evenodd"/></g></svg>