<svg id="flag-icons-dm" xmlns="http://www.w3.org/2000/svg" xmlns:xlink="http://www.w3.org/1999/xlink" viewBox="0 0 1032.6 512"><defs><clipPath id="clip-path" transform="translate(260)"><rect width="512" height="512" fill="none"/></clipPath></defs><title>dm</title><g clip-path="url(#clip-path)"><path d="M-258.3,0H769.2V512H-258.3Z" transform="translate(260)" fill="#108c00" fill-rule="evenodd"/><path d="M-260,178.2H772.6v50.1H-260Z" transform="translate(260)" fill="#ffd600" fill-rule="evenodd"/><path d="M181,0h48.5V512H181.1Z" transform="translate(260)" fill="#ffd600" fill-rule="evenodd"/><path d="M227.8,0h48.4V512H227.8Z" transform="translate(260)" fill-rule="evenodd"/><path d="M-260,226.6H772.6v50.2H-260Z" transform="translate(260)" fill-rule="evenodd"/><path d="M-260,276.8H772.6v50.1H-260Z" transform="translate(260)" fill="#fff" fill-rule="evenodd"/><path d="M276.2,0h48.5V512H276.2Z" transform="translate(260)" fill="#fff" fill-rule="evenodd"/><path d="M257.7,393.9h0c-75.61,0-136.9-61.56-136.9-137.5h0c0-75.94,61.29-137.5,136.9-137.5h0c75.61,0,136.9,61.56,136.9,137.5h0C394.6,332.34,333.31,393.9,257.7,393.9Z" transform="translate(260)" fill="#e72910" fill-rule="evenodd"/><path d="M250.5,137l5.6-16,5.1,15.7s17.1.5,17.1.2-13.5,10.3-13.5,10.3l6.1,17.6c-.2-.5-14.8-10.9-14.8-10.9s-14.8,10.4-14.5,10.4,5.6-17,5.6-17l-13.3-10.1,16.6-.3Z" transform="translate(260)" fill-rule="evenodd"/><path d="M251.3,137.7,256,124l4.4,13.6s14.9.4,14.9.2-11.7,9-11.7,9l5.2,15.2c-.2-.5-12.8-9.4-12.8-9.4s-12.8,9-12.6,9,5-14.8,5-14.8L236.8,138l14.4-.2Z" transform="translate(260)" fill="#ffe700" fill-rule="evenodd"/><path d="M253.3,140l2.8-8,2.6,7.9s8.5.2,8.5,0-6.7,5.2-6.7,5.2l3,8.8c-.1-.3-7.4-5.4-7.4-5.4l-7.2,5.2c.2,0,2.8-8.5,2.8-8.5l-6.6-5Z" transform="translate(260)" fill="#108c00" fill-rule="evenodd"/><path d="M356.9,211.8l5.6-16,5,15.7s17.2.6,17.2.3-13.5,10.3-13.5,10.3l6,17.6c-.2-.5-14.7-10.9-14.7-10.9s-14.8,10.4-14.5,10.4,5.6-17,5.6-17L340.3,212l16.6-.3Z" transform="translate(260)" fill-rule="evenodd"/><path d="M357.6,212.6l4.9-13.9,4.4,13.7s14.8.4,14.8.2-11.7,9-11.7,9l5.3,15.1c-.2-.4-12.8-9.4-12.8-9.4s-12.8,9-12.6,9,4.9-14.8,4.9-14.8l-11.5-8.7,14.3-.2Z" transform="translate(260)" fill="#ffe700" fill-rule="evenodd"/><path d="M359.7,214.9l2.8-8,2.5,7.8,8.6.2-6.8,5.1s3.2,9,3,8.8c0-.3-7.3-5.4-7.3-5.4l-7.3,5.1L358,220l-6.6-5,8.3-.1Z" transform="translate(260)" fill="#108c00" fill-rule="evenodd"/><path d="M325.9,330.6l5.6-16,5,15.8s17.2.5,17.2.3S340.2,341,340.2,341l6,17.5c-.2-.5-14.7-10.8-14.7-10.8S316.7,358,316.9,358s5.7-17,5.7-17l-13.3-10,16.6-.3Z" transform="translate(260)" fill-rule="evenodd"/><path d="M326.6,331.4l4.9-13.8,4.4,13.6s14.8.5,14.8.2-11.7,9-11.7,9l5.3,15.2c-.2-.5-12.8-9.4-12.8-9.4s-12.8,9-12.6,9,4.9-14.8,4.9-14.8l-11.5-8.7,14.3-.3Z" transform="translate(260)" fill="#ffe700" fill-rule="evenodd"/><path d="M328.7,333.7l2.8-8,2.5,7.9s8.6.3,8.6.1-6.8,5.2-6.8,5.2l3,8.7c0-.2-7.3-5.4-7.3-5.4l-7.3,5.2,2.8-8.5-6.6-5,8.3-.2Z" transform="translate(260)" fill="#108c00" fill-rule="evenodd"/><path d="M177.2,330.6l5.6-16,5,15.8s17.1.5,17.1.3S191.4,341,191.4,341l6.2,17.5c-.3-.5-14.8-10.8-14.8-10.8S168,358,168.2,358s5.7-17,5.7-17l-13.3-10,16.6-.3Z" transform="translate(260)" fill-rule="evenodd"/><path d="M178,331.4l4.8-13.8,4.4,13.6s14.8.5,14.8.2-11.7,9-11.7,9l5.3,15.2c-.2-.5-12.8-9.4-12.8-9.4s-12.8,9-12.6,9,4.9-14.8,4.9-14.8l-11.5-8.7,14.3-.3Z" transform="translate(260)" fill="#ffe700" fill-rule="evenodd"/><path d="M180,333.7l2.8-8,2.5,7.9s8.6.3,8.6.1-6.8,5.2-6.8,5.2l3,8.7c0-.2-7.3-5.4-7.3-5.4l-7.3,5.2,2.8-8.5-6.6-5,8.3-.2Z" transform="translate(260)" fill="#108c00" fill-rule="evenodd"/><path d="M150,208.7l5.6-16,5.1,15.8s17.1.5,17.1.2-13.5,10.4-13.5,10.4l6.1,17.5c-.3-.5-14.8-10.8-14.8-10.8S140.8,236,141.1,236s5.6-17,5.6-17l-13.3-10,16.6-.3Z" transform="translate(260)" fill-rule="evenodd"/><path d="M150.8,209.5l4.8-13.8,4.5,13.6s14.7.5,14.7.2-11.7,9-11.7,9l5.3,15.2c-.2-.5-12.8-9.4-12.8-9.4s-12.8,9-12.5,9,4.8-14.8,4.8-14.8l-11.5-8.7Z" transform="translate(260)" fill="#ffe700" fill-rule="evenodd"/><path d="M152.8,211.8l2.8-8,2.6,7.9,8.5.1L160,217l3,8.7c-.1-.2-7.4-5.4-7.4-5.4l-7.2,5.2c.2,0,2.8-8.5,2.8-8.5l-6.6-5,8.2-.2Z" transform="translate(260)" fill="#108c00" fill-rule="evenodd"/><path d="M324.6,174.1l-5.6,16-5-15.7s-17.2-.5-17.2-.3,13.5-10.3,13.5-10.3l-6-17.5c.2.5,14.7,10.8,14.7,10.8s14.8-10.3,14.5-10.3-5.6,17-5.6,17l13.3,10-16.6.3Z" transform="translate(260)" fill-rule="evenodd"/><path d="M323.9,173.3c0,.3-5,13.9-5,13.9l-4.3-13.6s-14.8-.5-14.8-.3,11.7-8.9,11.7-8.9l-5.3-15.2c.2.5,12.8,9.4,12.8,9.4s12.8-9,12.6-9-4.9,14.8-4.9,14.8l11.5,8.7-14.4.2Z" transform="translate(260)" fill="#ffe700" fill-rule="evenodd"/><path d="M321.8,171l-2.8,8-2.5-7.8s-8.6-.3-8.6-.1,6.8-5.2,6.8-5.2l-3-8.7c0,.2,7.3,5.4,7.3,5.4l7.3-5.2c-.2,0-2.9,8.5-2.9,8.5l6.7,5-8.3.2Z" transform="translate(260)" fill="#108c00" fill-rule="evenodd"/><path d="M367.3,290.3l-5.6,16-5-15.8s-17.2-.5-17.2-.2S353,280,353,280l-6-17.6c.2.5,14.7,10.8,14.7,10.8s14.8-10.3,14.5-10.3-5.6,17-5.6,17L384,290l-16.6.3Z" transform="translate(260)" fill-rule="evenodd"/><path d="M366.6,289.5l-4.9,13.8-4.4-13.6s-14.8-.4-14.8-.2,11.7-9,11.7-9l-5.3-15.2c.2.5,12.8,9.4,12.8,9.4s12.8-9,12.6-9-4.9,14.8-4.9,14.8l11.5,8.8-14.4.2Z" transform="translate(260)" fill="#ffe700" fill-rule="evenodd"/><path d="M364.5,287.2l-2.8,8-2.5-7.9s-8.6-.2-8.6,0,6.8-5.2,6.8-5.2l-3-8.8c0,.3,7.3,5.4,7.3,5.4l7.3-5.2c-.2,0-2.9,8.6-2.9,8.6l6.7,5Z" transform="translate(260)" fill="#108c00" fill-rule="evenodd"/><path d="M261.4,375.3l-5.6,16-5-15.8s-17.2-.5-17.2-.3,13.5-10.3,13.5-10.3l-6-17.5c.2.5,14.7,10.8,14.7,10.8s14.8-10.3,14.5-10.3-5.6,17-5.6,17L278,375Z" transform="translate(260)" fill-rule="evenodd"/><path d="M260.7,374.4l-4.9,14-4.4-13.7s-14.8-.5-14.8-.2,11.7-9,11.7-9L243,350.3c.2.5,12.8,9.4,12.8,9.4s12.8-9,12.6-9-4.9,14.8-4.9,14.8l11.5,8.7-14.3.3Z" transform="translate(260)" fill="#ffe700" fill-rule="evenodd"/><path d="M258.6,372.2l-2.8,8-2.5-7.9s-8.6-.3-8.6-.1,6.8-5.2,6.8-5.2l-3-8.7c0,.2,7.3,5.4,7.3,5.4l7.3-5.2-2.8,8.5,6.6,5-8.3.2Z" transform="translate(260)" fill="#108c00" fill-rule="evenodd"/><path d="M162,290.3l-5.7,16-5-15.8s-17.2-.5-17.2-.2S147.6,280,147.6,280l-6-17.6c.2.5,14.7,10.8,14.7,10.8L171,263l-5.7,17,13.3,10.1-16.6.3Z" transform="translate(260)" fill-rule="evenodd"/><path d="M161.2,289.5l-4.9,13.8-4.4-13.6s-14.8-.4-14.8-.2,11.7-9,11.7-9l-5.3-15.2c.2.5,12.8,9.4,12.8,9.4s12.8-9,12.6-9-4.9,14.8-4.9,14.8l11.5,8.8-14.3.2Z" transform="translate(260)" fill="#ffe700" fill-rule="evenodd"/><path d="M159.1,287.2l-2.8,8-2.5-7.9s-8.6-.2-8.6,0,6.8-5.2,6.8-5.2l-3-8.8c0,.3,7.3,5.4,7.3,5.4l7.3-5.2-2.8,8.6,6.6,5Z" transform="translate(260)" fill="#108c00" fill-rule="evenodd"/><path d="M198.7,175.8l-5.6,16-5.2-15.7s-17-.5-17-.3,13.5-10.3,13.5-10.3L178.3,148c.2.5,14.7,10.8,14.7,10.8s14.8-10.3,14.6-10.3-5.6,17-5.6,17l13.2,10-16.5.4Z" transform="translate(260)" fill-rule="evenodd"/><path d="M197.9,175,193,189l-4.4-13.7s-14.8-.5-14.8-.2,11.7-9,11.7-9l-5.3-15.2c.2.5,12.8,9.4,12.8,9.4s12.8-9,12.6-9-4.8,14.8-4.8,14.8l11.4,8.7-14.3.3Z" transform="translate(260)" fill="#ffe700" fill-rule="evenodd"/><path d="M195.8,172.8l-2.8,8-2.5-7.9s-8.5-.3-8.5-.1,6.7-5.2,6.7-5.2l-3-8.7c0,.2,7.3,5.4,7.3,5.4l7.3-5.2-2.8,8.5,6.6,5Z" transform="translate(260)" fill="#108c00" fill-rule="evenodd"/><ellipse cx="277.58" cy="290.19" rx="7.39" ry="36.25" transform="translate(240.12 20.42) rotate(-4.07)" fill="#009200" stroke="#000" stroke-width="2.5"/><ellipse cx="284.99" cy="290.1" rx="7.81" ry="36.25" transform="translate(239.68 21.47) rotate(-4.17)" fill="#009200" stroke="#000" stroke-width="2.5"/><ellipse cx="281.54" cy="292.09" rx="6.25" ry="40.06" transform="translate(240.26 20.4) rotate(-4.01)" fill="#009200" stroke="#000" stroke-width="2.5"/><path d="M223.94,309.24c6.28-.29,3.56-3.65,6.74-5.45s7.67-.61,9,1.62.25,4.44,2,4.47,49.13-2.09,50.83-.22,2,5.57.22,7-61.69,2.28-63.75.76S223.93,309.59,223.94,309.24Z" transform="translate(260)" fill="#a95600" stroke="#000" stroke-width="2.5" fill-rule="evenodd"/><path d="M257.52,314c-.12,4.77,6.91,3.41,7,7.39-.22,4.22-11.77.26-11.86-7.45.49-7.72,11.8-11.52,12-7.11.08,3.65-7,2.41-7.09,7.17Z" transform="translate(260)" fill="#ff0" stroke="#000" stroke-width="3.9" fill-rule="evenodd"/><path d="M261.67,314.12c-.13,4.76,6.9,3.4,7,7.39-.22,4.21-11.77.25-11.86-7.46.49-7.71,11.8-11.52,11.95-7.11.09,3.65-7,2.41-7.09,7.18Z" transform="translate(260)" fill="#ff0" stroke="#000" stroke-width="3.9" fill-rule="evenodd"/><path d="M266.12,313.91c-.12,4.77,6.91,3.41,7,7.39-.22,4.22-11.78.26-11.87-7.45.5-7.72,11.81-11.53,11.95-7.11.09,3.64-7,2.41-7.09,7.17Z" transform="translate(260)" fill="#ff0" stroke="#000" stroke-width="3.9" fill-rule="evenodd"/><path d="M270.26,313.91c-.12,4.77,6.91,3.41,7,7.39-.22,4.22-11.77.26-11.86-7.45.49-7.72,11.8-11.53,11.95-7.11.09,3.64-7,2.41-7.09,7.17Z" transform="translate(260)" fill="#ff0" stroke="#000" stroke-width="3.9" fill-rule="evenodd"/><ellipse cx="290.33" cy="312.91" rx="4.07" ry="3.97" transform="translate(198.55 554.69) rotate(-81.64)" fill="#a95600" stroke="#000" stroke-width="0.4"/><ellipse cx="266.23" cy="299.43" rx="3.58" ry="7.87" transform="translate(232.34 27.09) rotate(-5.54)" fill="#009200" stroke="#000" stroke-width="2.5"/><ellipse cx="260.14" cy="298.91" rx="3.58" ry="7.87" transform="translate(232.37 26.5) rotate(-5.54)" fill="#009200" stroke="#000" stroke-width="2.5"/><ellipse cx="255.8" cy="291.12" rx="3.58" ry="7.87" transform="translate(233.1 26.05) rotate(-5.54)" fill="#009200" stroke="#000" stroke-width="2.5"/><ellipse cx="262.15" cy="290.69" rx="3.45" ry="8.69" transform="translate(233.24 26.57) rotate(-5.52)" fill="#009200" stroke="#000" stroke-width="2.5"/><ellipse cx="270.64" cy="291.23" rx="3.45" ry="8.14" transform="translate(232.86 27.81) rotate(-5.6)" fill="#009200" stroke="#000" stroke-width="2.5"/><ellipse cx="265.98" cy="288.37" rx="3.45" ry="8.14" transform="translate(233.12 27.34) rotate(-5.6)" fill="#009200" stroke="#000" stroke-width="2.5"/><ellipse cx="260.15" cy="284.28" rx="3.45" ry="8.14" transform="translate(233.49 26.75) rotate(-5.6)" fill="#009200" stroke="#000" stroke-width="2.5"/><ellipse cx="254.7" cy="281.92" rx="3.45" ry="8.14" transform="translate(233.7 26.21) rotate(-5.6)" fill="#009200" stroke="#000" stroke-width="2.5"/><path d="M248.82,214.35s-12,10.44-10.4,38.66c1.76,28.4,27,41.72,27,41.72s6.33-8.07,5.41-30.86c-2.06-33.38-14-48.08-14-48.08l-7.94-1.44Z" transform="translate(260)" fill="#804bff" stroke="#000" stroke-width="2.5" fill-rule="evenodd"/><ellipse cx="276.08" cy="300.55" rx="7.87" ry="3.58" transform="translate(213.65 550.73) rotate(-85.24)" fill="#009200" stroke="#000" stroke-width="2.5"/><ellipse cx="270.18" cy="298.94" rx="7.87" ry="3.58" transform="translate(209.84 543.38) rotate(-85.24)" fill="#009200" stroke="#000" stroke-width="2.5"/><ellipse cx="267.31" cy="290.51" rx="7.87" ry="3.58" transform="translate(215.62 532.78) rotate(-85.24)" fill="#009200" stroke="#000" stroke-width="2.5"/><ellipse cx="273.63" cy="291.22" rx="8.69" ry="3.45" transform="translate(220.63 539.65) rotate(-85.22)" fill="#009200" stroke="#000" stroke-width="2.5"/><ellipse cx="281.89" cy="293.27" rx="8.14" ry="3.45" transform="translate(226.52 550.19) rotate(-85.3)" fill="#009200" stroke="#000" stroke-width="2.5"/><ellipse cx="277.81" cy="289.62" rx="8.14" ry="3.45" transform="translate(226.41 542.78) rotate(-85.3)" fill="#009200" stroke="#000" stroke-width="2.5"/><ellipse cx="272.81" cy="284.55" rx="8.14" ry="3.45" transform="translate(226.87 533.14) rotate(-85.3)" fill="#009200" stroke="#000" stroke-width="2.5"/><ellipse cx="267.87" cy="281.26" rx="8.14" ry="3.45" transform="translate(225.62 525.19) rotate(-85.3)" fill="#009200" stroke="#000" stroke-width="2.5"/><ellipse cx="274.05" cy="263.3" rx="10.14" ry="31.16" transform="translate(177.33 132.22) rotate(-23.68)" fill="#c90000" stroke="#000"/><ellipse cx="266.5" cy="233.84" rx="3.92" ry="4.42" transform="translate(288.05 496.22) rotate(-89)" fill="#009200" stroke="#000" stroke-width="1.5"/><ellipse cx="269.98" cy="228.2" rx="3.92" ry="3.96" transform="translate(297.1 494.16) rotate(-89)" fill="#009200" stroke="#000" stroke-width="1.6"/><ellipse cx="264.59" cy="228.11" rx="3.92" ry="3.96" transform="translate(291.9 488.68) rotate(-89)" fill="#009200" stroke="#000" stroke-width="1.6"/><ellipse cx="265.69" cy="224.06" rx="3.68" ry="4.14" transform="translate(297.02 485.8) rotate(-89)" fill="#009200" stroke="#000" stroke-width="1.6"/><ellipse cx="265.25" cy="219.39" rx="3.68" ry="4.14" transform="translate(301.26 480.77) rotate(-89)" fill="#009200" stroke="#000" stroke-width="1.6"/><ellipse cx="259.46" cy="225.12" rx="3.92" ry="3.96" transform="translate(289.85 480.61) rotate(-89)" fill="#009200" stroke="#000" stroke-width="1.6"/><ellipse cx="260.59" cy="220.02" rx="3.84" ry="3.96" transform="translate(296.06 476.73) rotate(-89)" fill="#009200" stroke="#000" stroke-width="1.6"/><ellipse cx="254.1" cy="220.15" rx="3.92" ry="4.42" transform="translate(289.55 470.37) rotate(-89)" fill="#009200" stroke="#000" stroke-width="1.5"/><ellipse cx="262.24" cy="213.64" rx="3.68" ry="4.14" transform="translate(304.06 472.12) rotate(-89)" fill="#009200" stroke="#000" stroke-width="1.6"/><ellipse cx="256.75" cy="214.35" rx="3.84" ry="3.96" transform="translate(297.95 467.32) rotate(-89)" fill="#009200" stroke="#000" stroke-width="1.6"/><ellipse cx="248.25" cy="220.36" rx="3.92" ry="3.96" transform="translate(283.59 464.73) rotate(-89)" fill="#009200" stroke="#000" stroke-width="1.6"/><ellipse cx="249.65" cy="217.44" rx="3.84" ry="3.96" transform="translate(287.88 463.26) rotate(-89)" fill="#009200" stroke="#000" stroke-width="1.6"/><ellipse cx="251.36" cy="214.26" rx="3.84" ry="3.96" transform="translate(292.75 461.85) rotate(-89)" fill="#009200" stroke="#000" stroke-width="1.6"/><ellipse cx="276.87" cy="257.86" rx="12.89" ry="37.09" transform="translate(179.46 133.75) rotate(-23.81)" fill="#009200" stroke="#000" stroke-width="2.5"/><ellipse cx="287.46" cy="263.86" rx="2.5" ry="7.77" transform="translate(177.6 139.53) rotate(-23.97)" fill="#009200" stroke="#000" stroke-width="2.5"/><path d="M286.28,263.83c10.54,12.78,9.18,20.92,8.06,27.8-3.32-7.93-5.07-12.92-15.6-25.71s-5.28-21.76-4.55-26.51C275.77,243.51,275.74,251,286.28,263.83Z" transform="translate(260)" fill="#009200" stroke="#000" stroke-width="1.5" fill-rule="evenodd"/><path d="M287.23,274.16c10.54,12.78,9.18,20.92,8.06,27.8C292,294,290.23,289,279.69,276.25s-5.28-21.76-4.55-26.51C276.72,253.84,276.7,261.37,287.23,274.16Z" transform="translate(260)" fill="#009200" stroke="#000" stroke-width="1.5" fill-rule="evenodd"/><path d="M287.62,282.48c10.8,12.56,9.61,20.73,8.63,27.62-3.48-7.85-5.33-12.8-16.13-25.36s-5.73-21.65-5.1-26.41C276.68,262.4,276.82,269.92,287.62,282.48Z" transform="translate(260)" fill="#009200" stroke="#000" stroke-width="1.5" fill-rule="evenodd"/><ellipse cx="280.19" cy="251.81" rx="4.54" ry="13.85" transform="translate(179.69 142.46) rotate(-25.07)" fill="#009200" stroke="#000" stroke-width="1.4"/><ellipse cx="276.01" cy="259" rx="3.97" ry="11.38" transform="translate(177.69 137.07) rotate(-24.39)" fill="#009200" stroke="#000" stroke-width="1.6"/><ellipse cx="270.94" cy="263.73" rx="3.96" ry="11.37" transform="translate(178.01 128.06) rotate(-23.2)" fill="#009200" stroke="#000" stroke-width="1.6"/><ellipse cx="275.18" cy="246.3" rx="3.17" ry="8.7" transform="translate(176.47 158.46) rotate(-28.07)" fill="#009200" stroke="#000" stroke-width="2.1"/><ellipse cx="270.8" cy="249.58" rx="3.18" ry="8.67" transform="translate(180.99 134.43) rotate(-24.44)" fill="#009200" stroke="#000" stroke-width="2.1"/><path d="M267.49,244.51c3.11,7.59,4.36,14.42,2.79,15.25s-5.36-4.67-8.46-12.26" transform="translate(260)" fill="#009200" stroke="#000" stroke-width="2.1" fill-rule="evenodd"/><ellipse cx="270.31" cy="240.66" rx="3.18" ry="8.67" transform="translate(184.64 133.43) rotate(-24.44)" fill="#009200" stroke="#000" stroke-width="2.1"/><ellipse cx="265.28" cy="243.11" rx="3.19" ry="8.66" transform="translate(185.64 124.29) rotate(-23.22)" fill="#009200" stroke="#000" stroke-width="2.1"/><path d="M262.23,234.33c3,5.13,4.66,9.93,3.64,10.71s-4.31-2.76-7.34-7.89" transform="translate(260)" fill="#009200" stroke="#000" stroke-width="2.9" fill-rule="evenodd"/><path d="M264.32,230.92c3,5.13,4.66,9.92,3.64,10.7s-4.31-2.75-7.34-7.88" transform="translate(260)" fill="#009200" stroke="#000" stroke-width="2.9" fill-rule="evenodd"/><path d="M273.63,231.54c4.21,7,6.48,13.55,5.05,14.61s-6-3.75-10.21-10.76" transform="translate(260)" fill="#009200" stroke="#000" stroke-width="2.1" fill-rule="evenodd"/><path d="M267.52,227.75c3,5.66,4.68,10.94,3.66,11.79s-4.32-3-7.36-8.69" transform="translate(260)" fill="#009200" stroke="#000" stroke-width="2.7" fill-rule="evenodd"/><path d="M267.11,219.9c-2,2.06,0,5.88,1.81,7.24,2.07,1.89,13.76,14.2,22,3.79C284.3,230.82,272,215.34,267.11,219.9Z" transform="translate(260)" fill="#804bff" stroke="#000" stroke-width="2.5" fill-rule="evenodd"/><path d="M265.66,213.79c-2,2.05,0,5.88,1.81,7.24,2.07,1.89,13.76,14.2,22,3.79C282.85,224.71,270.53,209.23,265.66,213.79Z" transform="translate(260)" fill="#804bff" stroke="#000" stroke-width="2.5" fill-rule="evenodd"/><path d="M263.8,208c-2,2,0,5.87,1.81,7.24,2.07,1.89,13.75,14.2,22,3.79C281,218.91,268.66,203.42,263.8,208Z" transform="translate(260)" fill="#804bff" stroke="#000" stroke-width="2.5" fill-rule="evenodd"/><path d="M259.76,201.36c-2,2,0,5.87,1.81,7.24,2.07,1.89,13.75,14.19,22,3.79C277,212.28,264.62,196.79,259.76,201.36Z" transform="translate(260)" fill="#804bff" stroke="#000" stroke-width="2.5" fill-rule="evenodd"/><path d="M245.24,194.66c4.19-3.07,11.91-4,17.9-.91,5,2.46,13.3,12.38,19.56,14.74a14.75,14.75,0,0,1-9.9-1.26c-5.58,4-7.56,4.56-13.25,5.35-7.88,1.09-14.43-1-16.69-5A10.43,10.43,0,0,1,245.24,194.66Z" transform="translate(260)" fill="#804bff" stroke="#000" stroke-width="2.5" fill-rule="evenodd"/><ellipse cx="253.83" cy="200.63" rx="2.08" ry="3.6" transform="translate(308.8 450.91) rotate(-89)" fill="red" stroke="#000" stroke-width="2.5"/><ellipse cx="243.22" cy="209.38" rx="5.03" ry="3.06" transform="translate(202.36 97.67) rotate(-20.35)" fill="#ff0" stroke="#000" stroke-width="2.5"/><ellipse cx="253.71" cy="200.61" rx="1.11" ry="1.29" transform="translate(308.7 450.79) rotate(-89)"/><path d="M246,203.12c.34,1.6-.84,3.78-3.4,4.58-2.61,1.11-4.58,3.6-5.71,7.65-4-9.16-1.51-13.09,2.7-14.07C243.24,200.07,245.42,200.2,246,203.12Z" transform="translate(260)" fill="#ff0" stroke="#000" stroke-width="6.6" fill-rule="evenodd"/><ellipse cx="242.19" cy="203.72" rx="0.91" ry="0.93" transform="translate(227.57 46.42) rotate(-10.26)"/></g></svg>