<svg id="flag-icons-ec" xmlns="http://www.w3.org/2000/svg" viewBox="0 0 512 512"><title>ec</title><path d="M0,0H512V512H0Z" fill="#ffe800" fill-rule="evenodd"/><path d="M0,256H512V512H0Z" fill="#00148e" fill-rule="evenodd"/><path d="M0,384H512V512H0Z" fill="#da0010" fill-rule="evenodd"/><path d="M213.5,244.2l-54.7,57.7-1-1.2,54.7-57.8,1,1.3Zm38,9.4L180,329l-1.2-1.2,71.5-75.4,1.3,1.2Z" fill-rule="evenodd"/><path d="M181.09,329.07l-5.94,6-6.85,5.14,5-6.91,5.94-6Z" fill="gray" stroke="#000" stroke-width="4.1" fill-rule="evenodd"/><path d="M162.69,299.57l-5.94,6-6.85,5.14,5-6.91,5.94-6Z" fill="gray" stroke="#000" stroke-width="4.1" fill-rule="evenodd"/><path d="M167.11,112.08s-6,163.59,18,163.59a45.73,45.73,0,0,0,36.14-17.21L221,168.55Z" fill="#ffdf00" stroke="#000" fill-rule="evenodd"/><path d="M181.83,127.34c0,8.6-2.69,131.12,9.35,131.12s30.12-8.6,30.12-8.6L221,168.55Z" fill="#0000c4" stroke="#000" fill-rule="evenodd"/><path d="M189.65,135.6c0,8.61,1.53,105.66,13.6,105.66H221.3L221,168.55l-31.38-33Z" fill="#e10000" stroke="#000" fill-rule="evenodd"/><path d="M165.7,112.2l54.6,57.7,1-1.2L166.6,111l-1,1.2Z" fill-rule="evenodd"/><path d="M149.83,143.85S134.25,300.37,181,300.37c38.94,0,38.94-24.69,46.73-24.69L219.92,218l-70.14-74.17Z" fill="#ffdf00" stroke="#000" fill-rule="evenodd"/><path d="M184.29,171.64c.32,0,11.78-25.48,40.1-41.39" fill="none" stroke="#000" stroke-width="2.3"/><path d="M182.58,146.82a26.3,26.3,0,0,1,8.77,6.64c-4.57-1-6.93-1.36-10.91-3.26A35.36,35.36,0,0,1,171,143C174,144,178.58,144.91,182.58,146.82Z" fill="#005b00" stroke="#000" fill-rule="evenodd"/><path d="M194.88,161.53a1.3,1.3,0,0,1-.67,1.63,1.18,1.18,0,0,1-1.66-.33,1.27,1.27,0,0,1,.68-1.61A1.18,1.18,0,0,1,194.88,161.53Z" fill="red" stroke="#000" fill-rule="evenodd"/><path d="M204.6,130.25a36.89,36.89,0,0,1-5.87,10.3c1-5,1.41-7.61,3.15-12.13a49.88,49.88,0,0,1,6.33-11.06C207.32,120.66,206.34,125.7,204.6,130.25Z" fill="#005b00" stroke="#000" fill-rule="evenodd"/><path d="M201.49,130.23a45.24,45.24,0,0,1-2.55,11.36,53.44,53.44,0,0,1-.14-10.89,62.34,62.34,0,0,1,2.76-12.21A108.19,108.19,0,0,1,201.49,130.23Z" fill="#005b00" stroke="#000" fill-rule="evenodd"/><path d="M205,136.1a14.13,14.13,0,0,1-6.44,4.45c2.08-3.71,3.1-5.68,5.46-8.32a18.91,18.91,0,0,1,6.92-4.76C209.41,129.72,207.33,133.44,205,136.1Z" fill="#005b00" stroke="#000" fill-rule="evenodd"/><path d="M186.3,144a24.15,24.15,0,0,1,4.56,9.66c-3.41-2.44-5.21-3.58-7.75-6.8s-3.85-7.2-4.88-10.41C180.33,138.33,183.75,140.75,186.3,144Z" fill="#005b00" stroke="#000" fill-rule="evenodd"/><path d="M177.55,162.86a22.61,22.61,0,0,1,6.74,8.87c-4.36-1.82-6.64-2.64-10.08-5.41s-5.56-6.52-7.22-9.55C169.72,158.27,174.09,160.07,177.55,162.86Z" fill="#005b00" stroke="#000" fill-rule="evenodd"/><path d="M193.4,161.57a38.86,38.86,0,0,1-8.79,10.05c1.54-4.75,2.2-7.18,4.83-11.52s6.41-7.93,9.46-10.8C197.55,152.45,196,157.2,193.4,161.57Z" fill="#005b00" stroke="#000" fill-rule="evenodd"/><path d="M197.75,165.89a40.27,40.27,0,0,1-12.26,5.76c3.74-3.9,5.56-6,9.94-9a55.15,55.15,0,0,1,13.2-6.18C205.89,158.93,202.16,162.85,197.75,165.89Z" fill="#005b00" stroke="#000" fill-rule="evenodd"/><path d="M226.55,127.42a23.93,23.93,0,0,1-5.3,4.81,37.82,37.82,0,0,1,4.08-6.16A32.8,32.8,0,0,1,231,120.9,72.53,72.53,0,0,1,226.55,127.42Z" fill="#005b00" stroke="#000" fill-rule="evenodd"/><path d="M224.63,126.65a28.64,28.64,0,0,1-3.63,5.84,30.24,30.24,0,0,1,2-5.93,38.84,38.84,0,0,1,3.91-6.28A61.41,61.41,0,0,1,224.63,126.65Z" fill="#005b00" stroke="#000" fill-rule="evenodd"/><path d="M226.14,131a9.71,9.71,0,0,1-4.59,1.55,27.16,27.16,0,0,1,4.73-3.8,13,13,0,0,1,4.93-1.65A49.9,49.9,0,0,1,226.14,131Z" fill="#005b00" stroke="#000" fill-rule="evenodd"/><path d="M201.53,146.23a43.44,43.44,0,0,1-9.18,4.22,61.1,61.1,0,0,1,8.16-6,58.71,58.71,0,0,1,9.87-4.52C208.14,141.56,205,144.13,201.53,146.23Z" fill="#005b00" stroke="#000" fill-rule="evenodd"/><path d="M212.71,145.35a39.65,39.65,0,0,1-12.53,4.88c4-3.66,6-5.59,10.53-8.31a54.18,54.18,0,0,1,13.49-5.22C221.3,139,217.3,142.62,212.71,145.35Z" fill="#005b00" stroke="#000" fill-rule="evenodd"/><path d="M182.72,189.29c.29-.16-2.53-23.93,15.9-48.52" fill="none" stroke="#000" stroke-width="2.4"/><path d="M212.08,137.33a1.3,1.3,0,0,1-.67,1.63,1.18,1.18,0,0,1-1.66-.33,1.27,1.27,0,0,1,.68-1.61A1.18,1.18,0,0,1,212.08,137.33Z" fill="red" stroke="#000" fill-rule="evenodd"/><path d="M220.28,132.53a1.3,1.3,0,0,1-.67,1.63,1.18,1.18,0,0,1-1.66-.33,1.27,1.27,0,0,1,.68-1.61A1.18,1.18,0,0,1,220.28,132.53Z" fill="red" stroke="#000" fill-rule="evenodd"/><path d="M191.12,147c.2.4-.16,1.05-.82,1.42s-1.35.35-1.56-.06.17-1,.83-1.41S190.92,146.63,191.12,147Z" fill="red" stroke="#000" fill-rule="evenodd"/><path d="M193.42,146c.2.4-.16,1.05-.82,1.42s-1.35.35-1.56-.06.17-1,.83-1.41S193.22,145.63,193.42,146Z" fill="red" stroke="#000" fill-rule="evenodd"/><path d="M192.12,148.13c.2.4-.16,1.05-.82,1.42s-1.35.35-1.56-.06.17-1,.83-1.41S191.92,147.73,192.12,148.13Z" fill="red" stroke="#000" fill-rule="evenodd"/><path d="M201.51,147.66a1.43,1.43,0,0,1-.74,1.8,1.3,1.3,0,0,1-1.84-.37,1.41,1.41,0,0,1,.75-1.79A1.3,1.3,0,0,1,201.51,147.66Z" fill="red" stroke="#000" fill-rule="evenodd"/><path d="M203.21,146a1.43,1.43,0,0,1-.74,1.8,1.3,1.3,0,0,1-1.84-.37,1.41,1.41,0,0,1,.75-1.79A1.3,1.3,0,0,1,203.21,146Z" fill="red" stroke="#000" fill-rule="evenodd"/><path d="M203.61,146.76a1.43,1.43,0,0,1-.74,1.8,1.3,1.3,0,0,1-1.84-.37,1.41,1.41,0,0,1,.75-1.79A1.3,1.3,0,0,1,203.61,146.76Z" fill="red" stroke="#000" fill-rule="evenodd"/><path d="M165.4,160.36c0,8.23-15.57,98.86,23.41,123.55,15.58,8.23,38.94-8.23,38.94,0L220,218Z" fill="#0000c4" stroke="#000" fill-rule="evenodd"/><path d="M181,176.82c0,8.23-7.79,74.12,15.62,90.63,15.58,16.46,54.56,12,54.56,12L220,218l-39-41.2Z" fill="#e10000" stroke="#000" fill-rule="evenodd"/><path d="M148.8,144l71.5,75.4,1.3-1.2L150,142.8l-1.2,1.2Z" fill-rule="evenodd"/><path d="M136.93,135.53l4.63,1L143,138a2.53,2.53,0,0,1-.39,3.34c-1.81,1.9-4.63-1-4.63-1s1,4.8,3.87,7.71a7.58,7.58,0,0,0,6,2.46s-3.2-2.73-1-4.79,3.22-.45,3.22-.45l2.83,2.91,1.81-1.91-11.33-11.62-1-4.79-7-1.46,1.6,7.14Z" fill="#cececc" stroke="#000" fill-rule="evenodd"/><path d="M150.67,103.16l5.33,8.11,7,1.6-4.69,3,8.41-.53,3.73,2.49,1.42-2.14-3.74-2.49-2.73-8-1,5.5-4.16-5.86-9.59-1.73Z" fill="#cececc" stroke="#000" fill-rule="evenodd"/><path d="M171,109.36c0,.47-.61.86-1.31.86s-1.33-.39-1.33-.86.61-.89,1.33-.89S171,108.87,171,109.36Zm-1.88,1.85c0,8.37,6.33,43.94,6.85,44.81,0,1-1.46,1.5-2.15.21-2-4.07-6.31-37.44-6.46-45.23-.09-3.21,1.12-3.47,2.52-3.4,1.12.05,2.51.87,2.51,1.85C172.41,110.62,170.65,111.49,169.14,111.21Z" fill="#e10000" stroke="#000" fill-rule="evenodd"/><path d="M172.19,113.21a1.53,1.53,0,0,1-1.64.52c-.66-.16-1.06-.68-.83-1.12a1.56,1.56,0,0,1,1.68-.53C172.09,112.25,172.43,112.75,172.19,113.21Zm-2.66,1.31c2,15.71-5.13,40.08-5.08,41-.47,1-2.09,1.07-2.11-.32-.34-.91,7.8-22.94,5.64-41.33,1.47-3,2.74-3,4-2.6,1,.3,1.95,1.39,1.47,2.31C172.89,114.72,170.82,115.13,169.53,114.52Z" fill="#0000c4" stroke="#000" fill-rule="evenodd"/><path d="M154.91,139.36a1.59,1.59,0,0,1-1.67,1.41,1.45,1.45,0,1,1,0-2.85A1.56,1.56,0,0,1,154.91,139.36Zm-2.4,3c0,13.61,8.09,71.37,8.74,72.77,0,1.71-1.85,2.43-2.74.34-2.56-6.61-8-60.8-8.25-73.45-.11-5.21,1.44-5.62,3.22-5.51,1.43.08,3.21,1.41,3.21,3C156.69,141.41,154.44,142.82,152.51,142.36Z" fill="#e10000" stroke="#000" fill-rule="evenodd"/><path d="M157,145.14a1.75,1.75,0,0,1-2.11.85,1.45,1.45,0,0,1-1.07-1.82,1.8,1.8,0,0,1,2.16-.88A1.41,1.41,0,0,1,157,145.14Zm-3.41,2.15c2.59,25.63-6.4,65.47-6.33,67-.6,1.6-2.68,1.77-2.71-.5-.43-1.47,9.9-37.5,7.05-67.49,1.88-5,3.5-4.92,5.13-4.29a3.11,3.11,0,0,1,1.89,3.77A3.67,3.67,0,0,1,153.54,147.29Z" fill="#0000c4" stroke="#000" fill-rule="evenodd"/><path d="M289.6,244.2l54.7,57.7,1-1.2-54.7-57.8-1,1.3Zm-38,9.4L323,329l1.2-1.2-71.5-75.4-1.3,1.2Z" fill-rule="evenodd"/><path d="M321.91,329.07l5.94,6,6.85,5.14-5-6.91-5.94-6Z" fill="gray" stroke="#000" stroke-width="4.1" fill-rule="evenodd"/><path d="M340.41,299.57l5.94,6,6.85,5.14-5-6.91-5.94-6Z" fill="gray" stroke="#000" stroke-width="4.1" fill-rule="evenodd"/><path d="M336.09,112.08s6,163.59-18,163.59a45.73,45.73,0,0,1-36.14-17.21l.27-89.91Z" fill="#ffdf00" stroke="#000" fill-rule="evenodd"/><path d="M321.37,127.34c0,8.6,2.69,131.12-9.35,131.12s-30.12-8.6-30.12-8.6l.27-81.31Z" fill="#0000c4" stroke="#000" fill-rule="evenodd"/><path d="M313.55,135.6c0,8.61-1.53,105.66-13.6,105.66H281.9l.27-72.71,31.38-33Z" fill="#e10000" stroke="#000" fill-rule="evenodd"/><path d="M337.4,112.2,282.8,170l-1-1.2,54.7-57.7,1,1.2Z" fill-rule="evenodd"/><path d="M295.68,155.4s15.54,19.56,23,34.77,16.12,38.53,16.12,38.53-4.89-23-14.28-41.32C308.21,164.33,295.66,156.72,295.68,155.4Z" fill="#005b00" stroke="#000" fill-rule="evenodd"/><path d="M292.49,140.27s16.78,23.41,24.44,40.87,16.18,43.78,16.18,43.78-4.15-25.38-13.85-46.47C306.48,151.84,292.38,141.69,292.49,140.27Z" fill="#005b00" stroke="#000" fill-rule="evenodd"/><path d="M309.11,117.72s12.27,35.93,16,58.1,6.09,52.72,6.09,52.72a220,220,0,0,0-2.77-52.79C321.49,140.9,308.61,118.82,309.11,117.72Z" fill="#005b00" stroke="#000" fill-rule="evenodd"/><path d="M296.54,115.59s16.25,32.08,22.5,53.87,12,53.3,12,53.3-.62-28.59-8.71-55.12C311.46,133.94,296.17,117,296.54,115.59Z" fill="#005b00" stroke="#000" fill-rule="evenodd"/><path d="M317.71,124.6s8.55,34.57,10.78,55.28,3,48.74,3,48.74a227.51,227.51,0,0,0-.37-48.25C326.79,147.65,317.27,125.51,317.71,124.6Z" fill="#005b00" stroke="#000" fill-rule="evenodd"/><path d="M294.15,126.53S310.37,154.1,317,173.38s13.31,47.51,13.31,47.51-1.86-26.14-10.41-49.55C308.54,141.67,293.88,127.9,294.15,126.53Z" fill="#005b00" stroke="#000" fill-rule="evenodd"/><path d="M292.38,145.15s16.76,21.9,24.36,38.69,16,42.39,16,42.39-4-25.06-13.59-45.31C306.42,155.43,292.26,146.58,292.38,145.15Z" fill="#005b00" stroke="#000" fill-rule="evenodd"/><path d="M294.58,134.73s15.68,25,22.51,43.15,14.1,45.21,14.1,45.21-2.94-25.68-11.64-47.66C308,147.64,294.41,136.13,294.58,134.73Z" fill="#005b00" stroke="#000" fill-rule="evenodd"/><path d="M312.88,118.5s10.25,35.22,12.8,56.68,3.2,50.8,3.2,50.8a202.77,202.77,0,0,0,.09-50.63C323.93,141.55,312.33,119.52,312.88,118.5Z" fill="#005b00" stroke="#000" fill-rule="evenodd"/><path d="M299.36,109.87s14.63,33.46,19.8,55.75,9.39,54.23,9.39,54.23.75-28.55-6-55.73C313.33,129.53,298.92,111.27,299.36,109.87Z" fill="#005b00" stroke="#000" fill-rule="evenodd"/><path d="M321.44,128.06S328,161.17,329,180.79s.24,46,.24,46a203.07,203.07,0,0,0,2.37-45.4C329.16,150.37,321,128.89,321.44,128.06Z" fill="#005b00" stroke="#000" fill-rule="evenodd"/><path d="M295.67,120.31s15.22,28.93,20.91,48.88,10.73,49,10.73,49-.12-26.64-7.51-50.89C309.83,136.52,295.29,121.68,295.67,120.31Z" fill="#005b00" stroke="#000" fill-rule="evenodd"/><path d="M353.27,143.85s15.58,156.52-31.15,156.52c-38.94,0-38.94-24.69-46.73-24.69L283.18,218l70.14-74.17Z" fill="#ffdf00" stroke="#000" fill-rule="evenodd"/><path d="M337.7,160.36c0,8.23,15.57,98.86-23.41,123.55-15.58,8.23-38.94-8.23-38.94,0L283.14,218Z" fill="#0000c4" stroke="#000" fill-rule="evenodd"/><path d="M322.12,176.82c0,8.23,7.79,74.12-15.62,90.63-15.58,16.46-54.56,12-54.56,12L283.14,218l39-41.2Z" fill="#e10000" stroke="#000" fill-rule="evenodd"/><path d="M354.3,144l-71.5,75.4-1.3-1.2,71.6-75.4,1.2,1.2Z" fill-rule="evenodd"/><path d="M366.27,135.53l-4.63,1L360.22,138a2.53,2.53,0,0,0,.39,3.34c1.81,1.9,4.63-1,4.63-1s-1,4.8-3.87,7.71a7.58,7.58,0,0,1-6.05,2.46s3.2-2.73,1-4.79-3.22-.45-3.22-.45l-2.83,2.91-1.81-1.91,11.33-11.62,1-4.79,7-1.46-1.6,7.14Z" fill="#cececc" stroke="#000" fill-rule="evenodd"/><path d="M352.33,103.16,347,111.27l-7,1.6,4.69,3-8.41-.53-3.73,2.49-1.42-2.14,3.74-2.49,2.73-8,1,5.5,4.16-5.86,9.59-1.73Z" fill="#cececc" stroke="#000" fill-rule="evenodd"/><path d="M332,109.36c0,.47.61.86,1.31.86s1.33-.39,1.33-.86-.61-.89-1.33-.89S332,108.87,332,109.36Zm1.88,1.85c0,8.37-6.33,43.94-6.85,44.81,0,1,1.46,1.5,2.15.21,2-4.07,6.31-37.44,6.46-45.23.09-3.21-1.12-3.47-2.52-3.4-1.12.05-2.51.87-2.51,1.85C330.59,110.62,332.35,111.49,333.86,111.21Z" fill="#e10000" stroke="#000" fill-rule="evenodd"/><path d="M330.91,113.21a1.53,1.53,0,0,0,1.64.52c.66-.16,1.06-.68.84-1.12a1.58,1.58,0,0,0-1.69-.53C331,112.25,330.67,112.75,330.91,113.21Zm2.66,1.31c-2,15.71,5.13,40.08,5.08,41,.47,1,2.09,1.07,2.11-.32.34-.91-7.8-22.94-5.64-41.33-1.47-3-2.74-3-4-2.6-1,.3-1.95,1.39-1.47,2.31C330.21,114.72,332.28,115.13,333.57,114.52Z" fill="#0000c4" stroke="#000" fill-rule="evenodd"/><path d="M348.09,139.36a1.59,1.59,0,0,0,1.67,1.41,1.45,1.45,0,1,0,0-2.85A1.56,1.56,0,0,0,348.09,139.36Zm2.4,3c0,13.61-8.09,71.37-8.74,72.77,0,1.71,1.85,2.43,2.74.34,2.56-6.61,8.05-60.8,8.25-73.45.11-5.21-1.44-5.62-3.22-5.51-1.43.08-3.21,1.41-3.21,3C346.31,141.41,348.56,142.82,350.49,142.36Z" fill="#e10000" stroke="#000" fill-rule="evenodd"/><path d="M346.15,145.14a1.75,1.75,0,0,0,2.11.85,1.45,1.45,0,0,0,1.07-1.82,1.8,1.8,0,0,0-2.16-.88A1.41,1.41,0,0,0,346.15,145.14Zm3.41,2.15c-2.59,25.63,6.4,65.47,6.33,67,.6,1.6,2.68,1.77,2.71-.5.43-1.47-9.9-37.5-7.05-67.49-1.88-5-3.5-4.92-5.13-4.29a3.11,3.11,0,0,0-1.89,3.77A3.67,3.67,0,0,0,349.56,147.29Z" fill="#0000c4" stroke="#000" fill-rule="evenodd"/><path d="M227.8,341.57a22.36,22.36,0,0,0,23.36,0V275.68H235.58c7.79,24.69,7.79,49.43-7.83,65.89Z" fill="#e10000" stroke="#000" fill-rule="evenodd"/><path d="M239.36,276.18c0,46.37-11.27,56.69-11.27,66,4.69,0,7.82-4.35,11.27-10.32,4.69-9.33,5.14-56.44,4.69-55.7Z" fill="#0000c4" stroke="#000" fill-rule="evenodd"/><path d="M230,276.18c-.24,27.09-11.88,52.19-9.68,57.74,2.49,5,9.68-11.37,19.06-2.09,4.69-9.28,5.14-56.39,4.69-55.7H230Z" fill="#0000c4" stroke="#000" fill-rule="evenodd"/><path d="M231.16,276.42c0,31-10.79,33.05-10.79,41.3,4.69,0,10.76-4.51,10.79-4.09,4.69-6.23,5.14-37.7,4.69-37.21Z" fill="#ffdf00" stroke="#000" fill-rule="evenodd"/><path d="M221.78,276.42c-.24,18.1-11.61,33.5-9.41,37.21,2.52,3.29,9.41-6.23,18.79,0,4.69-6.23,5.14-37.7,4.69-37.21Z" fill="#ffdf00" stroke="#000" fill-rule="evenodd"/><path d="M275.3,341.57a22.36,22.36,0,0,1-23.36,0V275.68h15.58c-7.79,24.69-7.79,49.43,7.83,65.89Z" fill="#e10000" stroke="#000" fill-rule="evenodd"/><path d="M263.74,276.18c0,46.37,11.27,56.69,11.27,66-4.69,0-7.82-4.35-11.27-10.32-4.69-9.33-5.14-56.44-4.69-55.7Z" fill="#0000c4" stroke="#000" fill-rule="evenodd"/><path d="M273.12,276.18c.24,27.09,11.88,52.19,9.68,57.74-2.49,5-9.68-11.37-19.06-2.09-4.69-9.28-5.14-56.39-4.69-55.7h14.07Z" fill="#0000c4" stroke="#000" fill-rule="evenodd"/><path d="M272,276.42c0,31,10.79,33.05,10.79,41.3-4.69,0-10.76-4.51-10.79-4.09-4.69-6.23-5.14-37.7-4.69-37.21Z" fill="#ffdf00" stroke="#000" fill-rule="evenodd"/><path d="M281.42,276.42c.24,18.1,11.61,33.5,9.41,37.21-2.52,3.29-9.41-6.23-18.79,0-4.69-6.23-5.14-37.7-4.69-37.21Z" fill="#ffdf00" stroke="#000" fill-rule="evenodd"/><path d="M192.27,282.76l-8.07,6,8.07,6,4-3,2,3,2,6,2-6,2-3H312.55v-6H204.37l-2-3c0-3,.43-6,2-6h8.06c0-3-4-9-12.1-9s-12.11,6-12.11,9h8.08c1.59,0,2,3,2,6l-2,3-4.05-3Z" fill="#908f8a" stroke="#000" stroke-width="4.5" fill-rule="evenodd"/><path d="M216,297h70.71v3.66H216Zm0-3.68h70.71V297H216Zm0-3.67h70.71v3.69H216Zm0-3.66h70.71v3.66H216Zm0-3.67h70.71V286H216Zm0-3.68h70.71v3.68H216Zm0-3.64h70.71v3.64H216Z" fill="#b74d00" stroke="#000" stroke-width="1.8" fill-rule="evenodd"/><path d="M220.21,275l26.18,25.67h3.74L224,275h-3.74Z" fill="#908f8a" stroke="#000" stroke-width="3.3" fill-rule="evenodd"/><path d="M220.21,300.64,246.39,275h3.74L224,300.62h-3.74Z" fill="#908f8a" stroke="#000" stroke-width="3.3" fill-rule="evenodd"/><path d="M219.79,275v25.67h3.72V275Z" fill="#908f8a" stroke="#000" stroke-width="3.1" fill-rule="evenodd"/><path d="M253.61,275l26.18,25.67h3.74L257.37,275h-3.74Z" fill="#908f8a" stroke="#000" stroke-width="3.3" fill-rule="evenodd"/><path d="M253.61,300.64,279.79,275h3.74l-26.16,25.65h-3.74Z" fill="#908f8a" stroke="#000" stroke-width="3.3" fill-rule="evenodd"/><path d="M279.29,275v25.67H283V275Z" fill="#908f8a" stroke="#000" stroke-width="3.1" fill-rule="evenodd"/><path d="M253.29,275v25.67H257V275Z" fill="#908f8a" stroke="#000" stroke-width="3.1" fill-rule="evenodd"/><path d="M245.79,275v25.67h3.72V275Z" fill="#908f8a" stroke="#000" stroke-width="3.1" fill-rule="evenodd"/><path d="M305.72,201.56c0,40.92-24.46,74.12-54.56,74.12s-54.56-33.2-54.56-74.12,24.42-74.17,54.56-74.17,54.56,33.2,54.56,74.12Zm-7.79,0c0,36.36-20.94,65.89-46.77,65.89s-46.77-29.53-46.77-65.89,20.94-65.94,46.77-65.94,46.77,29.53,46.77,65.94Z" fill="#ffdf00" stroke="#000" fill-rule="evenodd"/><path d="M272.41,133.25a42.34,42.34,0,0,0-21.25-5.86,42.8,42.8,0,0,0-21.25,5.81l3.08,7.63a34.75,34.75,0,0,1,36.39,0l3-7.63Z" fill="#ffdf00" stroke="#000" fill-rule="evenodd"/><path d="M272.51,270.15A42.34,42.34,0,0,1,251.26,276,42.8,42.8,0,0,1,230,270.2l3.08-7.63a34.75,34.75,0,0,0,36.39,0l3,7.63Z" fill="#ffdf00" stroke="#000" fill-rule="evenodd"/><path d="M298,201.5c0,36.4-21,65.9-46.8,65.9s-46.8-29.5-46.8-65.9,21-65.9,46.8-65.9,46.7,29.5,46.7,65.9Z" fill="#a7cfff" fill-rule="evenodd"/><path d="M297.93,201.56c.49,12.37-2,18.41-5.23,31.29-.84,1.4-4.84-3-7.22-5.2s-3.43,1.95-6.42-1.4-4.84.93-7-1.95-22.58-3.26-22.58-3.54c2-1,12.41.1,10.74-5.16-1.89-5.49-13.64-.18-15.22-7.16-1.1-7-23.59-7.25-25.22-8.93.66,2.61,17.52,3.72,17.12,10.46-.4,2.79-16.59,3.59-18.17,5.91-1.32,2.93,12.76-.79,13.24,2.79,0,1.49-2.07,0-9.37,2.33-3.7,1.16,6.78,4.78,2.82,6.78s-12.46,2.89-12.1,3.72c1.32,4.19,19.66,9.12,17.86,9.82-6.51,3.07-9.94,5.06-13.07,6.83a81.17,81.17,0,0,1-13.68-46.59c14-5.3,11-6.42,36.78-6.42s34.32,1.07,56.76,6.42Z" fill="#afff7b" stroke="#000" fill-rule="evenodd"/><path d="M297.93,201.56c-3.52,0-7.21,1.58-11,1.58s-7.7-1.63-11.66-1.63-8.49,2.14-12.54,2.14-7.65-2.09-11.75-2.09-8.18,1.58-12.23,1.58-8.05-1.63-12-1.63-7.78,1.63-11.52,1.63-7.4-1.63-10.87-1.63a89.36,89.36,0,0,1,3.69-25.62c11.88.93,4.84-7.3,11.88-7.3a14.1,14.1,0,0,1,11.14,4.56c1.05,0,6.33-5.3,12.27-4.56s3.74,12.69,11.62,13.3c4,3.16,6.29,5.16,11.75,6.46,7.78.75,30.09-1.16,30.22-.09a91,91,0,0,1,1,13.3Z" fill="#fff" stroke="#000" fill-rule="evenodd"/><path d="M259.23,241.66c0-2.07,2.1-3.45,2.1-6.75s-1.86-3.38-1.92-6.46c0-1.27,1.59-2.54,2.3-2.69s1.32,2.69,1.32,3.31-.73-1.53-1.33-1.56-1.91.21-1.91.83c0,1.23,2.3,2.76,2.13,6.9s-2,5.3-2,6.53a35.21,35.21,0,0,0,.77,4.65,12.6,12.6,0,0,1-1.5-4.79Z" stroke="#000" fill-rule="evenodd"/><path d="M261.27,241.36c0-2.07-2.1-3.45-2.1-6.75s1.86-3.38,1.92-6.46c.16-1.45-1.82-2.4-2.54-2.51s-1.55,2.91-1.55,3.49.84-1.89,1.44-1.92,2.27.21,2.27.83c0,1.23-2.3,2.76-2.13,6.9s2,5.3,2,6.53a35.21,35.21,0,0,1-.77,4.65,12.6,12.6,0,0,0,1.5-4.79Z" stroke="#000" fill-rule="evenodd"/><path d="M261.3,224.5c0,1-.5,1.9-1,1.9-.7,0-1.2-.8-1.2-1.9s.5-1.8,1.1-1.8S261.3,223.5,261.3,224.5Zm14.1,5.5h.4v14.7h-.4Zm3.2-1.2h.4v14.8h-.4Z" fill-rule="evenodd"/><path d="M276.1,237v-.5l3,.6v.3Z" fill-rule="evenodd"/><path d="M234.11,239.77s11.44,5.3,13.95,8.46,1.5,3.17,1.5,3.17l25.38,1.06c0-1.58,4.49-1.58,5.5-5.3a22.85,22.85,0,0,0,1-4.74l-8,2.65.44-4.74H267l-1,4.74-15-.51,1-12.69-3,.51-.44,12.09c-.53,0-14-3.68-14.52-4.7Z" fill="#b74d00" stroke="#000" fill-rule="evenodd"/><path d="M211.12,164.08s16.59-5.21,40.52-4.84,40.53,6,40.18,6-4.58-8.56-4.58-8.56a156.89,156.89,0,0,0-36-5.25c-19-.38-35.59,3.72-35.2,4.09l-5,8.6Z" fill="#fede00" stroke="#fede00" fill-rule="evenodd"/><path d="M241,152.8l10.3-.2v6l-10.2.2Zm-23.6,3.3-3.6,5.9,12.2-1.5-1-6-7.6,1.6Zm10.4-2.3,10.2-.9.5,6-10.2.9Zm36.9-.6-10.2-.7-.4,6,10.2.7Zm22,3.8,3.7,7.3-11-2.8,1.2-5.8,6.1,1.3Zm-8.9-2.2-10.1-1.3-.7,5.9,10.1,1.3Z" fill="#38a9f9" fill-rule="evenodd"/><path d="M251.64,167.43l-1.1-6.28-3.34,5.35,1.23-6.28-5,3.58,3.34-5.25-5.89,1.3,5.06-3.54L240,155.15l5.94-1.21-5.06-3.53,5.89,1.3-3.38-5.25,5,3.58-1.23-6.28,3.34,5.35,1.1-6.28,1.15,6.28,3.3-5.35L254.9,150l5-3.58-3.39,5.25,5.94-1.3-5.06,3.53,5.94,1.21-5.94,1.16,5.06,3.54-5.94-1.3,3.39,5.25-5-3.58,1.23,6.28-3.34-5.35Z" fill="#ffdf00" stroke="#000" fill-rule="evenodd"/><path d="M259,155a6.37,6.37,0,1,1-6.36-6.55A6.43,6.43,0,0,1,259,155Z" fill="#ffdf00" stroke="#000" fill-rule="evenodd"/><path d="M252,153.4c0,.4-.9.7-2,.7s-2.2-.3-2.2-.7,1-.8,2.1-.8,2.2.4,2.2.8Zm4.7,0c0,.4-.8.7-1.6.7s-1.6-.3-1.6-.7.7-.8,1.6-.8,1.5.4,1.5.8Z" fill-rule="evenodd"/><path d="M251.07,156l.44.25c-1-.64-.57-.4,1.08,1.22a5.73,5.73,0,0,0,1.73-1.7" fill="none" stroke="#000"/><path d="M248.83,158.5l.35.37c-.83-.93-.44-.46,1.41.75a5.22,5.22,0,0,0,4.62-1.86" fill="none" stroke="#000"/><path d="M223.5,170.7s.7,6-4,13.5c-4.5,7.4-3.8,4.8-3.8,4.8s2.1,4,1.8,4a40.73,40.73,0,0,1-3.6-3.6l-3.8,4s3.5-6.3,3.1-6.3-1-2.2-1-2.2l2.8-1.1s4.2-7.8,4.2-7.5-12.7,8.6-12.7,8.6Zm2.8,2.3c-.4,0,1.7,6,3.5,9a15,15,0,0,1,1.8,6.6l6,3-7.8-11.5,5,1.8-8.5-9Zm0,15.6s4.2,4.5,4.6,6a23.87,23.87,0,0,1,.3,4.8l-1.7-3.7-2.5,3.4s1.8-5.3,1.4-5.6-2.8,1.8-2.8,1.8l1-3.3A16.48,16.48,0,0,0,226.3,188.6ZM205,199.1a14,14,0,0,1,4.3-2s-1.8,3-2.2,3a2.14,2.14,0,0,1-2-1Zm48.7-16.4s9.1,5.6,9.1,6-6-2.7-6-2.7l-3.1-3.3ZM237.2,171c.7.4,13.4,10.8,13,10.8s-5.6-3-5.6-2.6v2.6l-2.8-6-.7,2.3-3.9-7Zm3.2,16.8,3.5,7,3.5-.7S240.7,187.8,240.4,187.8Zm11-4.5.3,6.7s2,1.9,2,1.5-2-7.8-2.4-8.2Z" fill="#b7e1ff" fill-rule="evenodd"/><path d="M147.8,92.2a280.1,280.1,0,0,1,34-15.3,229.27,229.27,0,0,1,40.8-10.8c5.4,0,14.5,13.4,16,13.4s7.7-3.7,15.3-3.7,12.2,6,13.8,6h13.7c1.5,0-4.6-15,0-14.2,2.3.4,21.8,3.4,39.9,9.2,18.1,6,43.8,16.3,43.8,16.3s-42,5.6-53.2,4c-1.5.7,0,9.8-2.2,5.8-3.5-.8-16.4-2.8-18.7-2.8s-6.5,2.6-12.6,4q-6.93,1.77-13.8,3.8l10,15.6-12.3,6s-7.6-17.9-10.7-17.9-4.5,12.7-8.4,12-5.3-12-8.3-15-19.2-4-25.3-5.5-16-2.7-21.3-4.2-10.7,3.8-13,3.8,3-4.5.8-5.3-3.8,2.3-5.4,2.3-17.5-3-19-3.8,3.8-3.7,2.3-3.7h-6.2Z" fill="#984000" fill-rule="evenodd"/><path d="M261.2,84.5a7.57,7.57,0,1,1-7.58-7.66A7.64,7.64,0,0,1,261.2,84.5Z" fill="gray" stroke="#772600" stroke-width="3.7" fill-rule="evenodd"/><path d="M223.65,86.2c1.38-1.58,3.09-4,7.56-4,1-.41,1-2.81,3.42-2.81s1.71,2.4,3.44,3.21,15.78-.81,15.78-.81a4.24,4.24,0,0,1,1.36,2.81c0,1.6-1,2.78-1.36,2.78s-14.07-1.2-15.1-.79a8.53,8.53,0,0,1-4.12.79c-2.39,0-3.09-2.78-4.8-2.78s-3.42-.41-6.18,1.6Z" fill="#984000" stroke="#772600" stroke-width="5.3" fill-rule="evenodd"/><path d="M265.51,85.42H271c2,0,2.65.72,4.47.79h4.8a41.57,41.57,0,0,0,4.45-.79c3,0,2-.32,1.38-2.4-.54-1.56-.62-2.31-1.38-3.2-.29-1.92-.95-2.59-1-4.8-.31-1.68-.89-2.8-.33-4.8.78,1.37,1.09,1.92,3.09,2s2.86-.07,4.12.79c.94,1.18,2.22.79,4.12.79,1.56.34,1.83,1.28,3.07,2A6.76,6.76,0,0,0,302.2,77a16,16,0,0,1,4.12,1.2c.88,1.22,2.26,1.53,4.12,1.6a8.65,8.65,0,0,0,2.74-.4c1.58.09,3.19,0,5.15,0,1.27,1.72,1.56,2.37,3.77,2.4a13.08,13.08,0,0,0,4.12,2h5.15c1.85.17,2.43,1,4.12,1.61a38.47,38.47,0,0,0,4.45,2,19.19,19.19,0,0,0,4.47.41c1.25.76,2.8.81,3.77,1.58,1.42.36,3.35.79,4.44,1.2,1.82.29,2.52,1,4.12,1.2,1.38.48-.45.86-1.38,1.2-2-.07-2.16-1-4.12-1.2-1-.7-2.59-.6-4.12-1.2h-.33c1.36,1,2.68,1.56,2.06,3.22-1.75,0-3.17-.27-4.79-.41a16.39,16.39,0,0,0-4.45-.79c1.93-.56,2.43,0,3.77.79.49,1.92-.58,1.2-2.41,1.2-1.57-.65-2.52-1.44-4.45-1.61H332.4c2,.1,2.47,1,3.77,2,.1.62,0,.57-1,.79-1.08-1.08-2.46-1.44-4.12-2a15.25,15.25,0,0,1-4.8-.82c-1-.07-.85-1.46,1.38.82,1.33.91,1.81,1.68,1.71,2.4a14.14,14.14,0,0,1-3.77-2,11.06,11.06,0,0,0-4.8-.79c-1.78-.55.18-.87,1.36,1.2,2.55,2.11-.33,1.2-1.36.79-1.55-.5-3.16-1.25-4.47-1.58a13,13,0,0,0-3.09-.82c1.79.19,2.39.94,3.09,2.4,1.81,1.44-.09.74-1.71.41-1-1.06-2.37-1.61-3.09-2.81-1.71-1-1.78-2.16-.68.41.26.81.2,2.59.33,2.81-1.26-1.61-1-2-2.39-2-1-.77-2.37-1.37-3.09-2.4-1.32-.14-1.4-.7-2.74-1.2,1.09,1.51,2.55,3,3.42,4.42,1.56,1,2,1.92,3.09,2.78.43.89,1.64,1.61.35.41-1.49-1.68-2.58-2.09-4.8-3.19-1.28-1.2-1.73-1.68-3.09-2.81-1.86-.7-1.14-1.08,0,1.2,1.29,1.39,2.28,2.93,3.42,4a14.87,14.87,0,0,0,3.09,3.19c.31.53,1.23.62,0,.79-1-1.1-2.56-1.8-3.77-2.81-1.71-.55-2.52-1.58-3.77-2.78a25.74,25.74,0,0,0-3.09-3.6c-2-.91.39.86,1,2,.43,1.46,1,2.64,1.36,4,.57,1.32-1.73-.31-2.39-.79a10.82,10.82,0,0,0-4.47-2c-1.37-.32-2.74-.58-4.12-.79-1.55-.48.84,1.15,1.73,2.81,1.73,1.89-1.71.33-2.74,0A21.76,21.76,0,0,0,283,97c-2.21.14-.62.48,0,1.58a3.44,3.44,0,0,1,1,2.4,30.28,30.28,0,0,0-4.47-.79,13.81,13.81,0,0,1-4.8.41c-.06,1,.31.14,1,1.2,1.19.55,2,1.22,1.73,2h-9.95c-1.09.34.22.17,1,1.61-.46,1.29-1,.79-2.41.79-.93-.43-2.8-.62-3.77-1.2-1,0-.89-.29-1.71-.41,2.88,2.4,1.44,1.8,3.09,3.6.27.12.92.41.33.41m-22.64,12.79c-.21,0-.66-1.29-1.36-2.4-.5-1.44-1.11-.62-1.73-2.81a34.94,34.94,0,0,0,0-4.8,8.76,8.76,0,0,1-3.09-3.6c-1.73-1.68.27-4.56.6-6.67-1.53-.38-2.27,2.76-4.6,3.89-1.69,1.32-.2-2.74-1-5.09-.55-3.33-2.22,1.68-2.84,3.1-1.13.89-1.48,2-3.09.38,0-1.22,1-4.68.58-5.35-1.61.94-3.71,3.72-5.38,4.15-1.69-.41.35-3.55.35-5.88-.62-.24-3,6.19-4,6.24s-.55-6.24-1-6.09a24.26,24.26,0,0,1-3.19,4.56c-2-.32.29-4.2.58-5.64.33-1.73-1.84,3.31-3,3.62a8.28,8.28,0,0,1-3.09,1.61c.66-1.49,3.91-4.49,3.71-5.35-1.92.07-4.82,3-6.45,3.36a23.49,23.49,0,0,0-2.74.38c.08-1.92,4-3.5,4.61-4.68-1.91.36-5.6,2.33-6.67,3.89-1.28.31-2.88.72-4.12,0,.18-1.8,3.07-5.28,3.71-6.43a17.06,17.06,0,0,1-4.47,2c-.35.41-1.34,1.27-1,.41a16.33,16.33,0,0,1,2.06-3.6c-1.55.33-2.12,1.36-3.77,2.4-1.05,0-4.06,3.57-5.07,3.62a13.42,13.42,0,0,1-5.83,3.19A4.81,4.81,0,0,0,177,101.4a11.84,11.84,0,0,1,3.09-4,6.55,6.55,0,0,1,3.09-3.22c.39-.55,1.46-.7.33-.79a38.25,38.25,0,0,1-3.42,2.81c-1,.76-2.27,1.53-2.76,1.2.56-1.73,1.54-2.16,2.41-3.6,1.81-1.35,0-.48-1.38,0a21.28,21.28,0,0,1-3.77,2.4c-1.44.43-2.41,1.44-4.12,2,0,.57.49-1,.7-1.61,1.4-1.78,1.77-2.28,3.42-2.78.41-.7.91-.41-.33-.41a30,30,0,0,1-3.44,2.4,19.1,19.1,0,0,1-4.45.41c-2.14.28-2,.48,0-.82,1.09-1.2,2-.89,2.06-2.4A28,28,0,0,1,164,95.81c-1.32,0-1.67.41-3.09.41.68-.82,1.09-1.85,2.06-2.4,1.44-1.85-.91-.36-1.38,0h-5.15c-.91,1.34,0,0,.7-.82.89-.53,1.81-1.22,1.71-1.58-1,1-2.2,1.51-3.09,2.4-.95.33-2.06.48-2.06.79.76-1.27,2-2.07,2.76-3.19a4.1,4.1,0,0,0,2.39-1.2h-1.38a35,35,0,0,0,4.82-.41c2.72-.53-.25-.79-1.73-.79-.27-.63.86-1,2.06-1.2,1-.58,2.33-1.08,3.44-1.61a8.92,8.92,0,0,0,2.74-1.59c-1,0-1,.34-2.06.39,1.54-.12,2.64-.39,4.47-.39a45.14,45.14,0,0,0,4.45-2c.62-.86.86-.81-.68-.81,1.38-.51,3.34-.77,4.45-1.2A17.55,17.55,0,0,0,183.52,79a24.26,24.26,0,0,1,2.74-2.4c1.34,1.06,1.36,1.2,3.77,1.2a5.24,5.24,0,0,0,4.12-1.61c1.48-.48,1.75-1.29,3.44-1.58a23.44,23.44,0,0,0,4.8.38,14.1,14.1,0,0,0,4.45-2.4c1-.6,2.31-1.46,3.44-2a9.82,9.82,0,0,0,3.77,1.61c1.58-.29,2.43-1.2,3.77-1.61a5.57,5.57,0,0,1,3.09-2c2-1.15,1.85.36,2.74,1.58s2.35.65,3.77,1.2a9.47,9.47,0,0,0,2.41,3.2c.8,1.15,1.75,1.44,3.44,1.6.62,1,.12,1.64,1.36,2a5.36,5.36,0,0,0,2.06,1.2" fill="none" stroke="#772600" stroke-width="3.5"/><path d="M261.55,111.19v.19c0-.55,0-.24.35.82.13.86-.16.77-.51,1.39-.06.89-.17,1.54-.17,2.59a8.77,8.77,0,0,1-.86,2.4c-.33.75-1.75,1.18-1.71,2.21-.83.27-.85-.36-.87-1.41a11.79,11.79,0,0,1-1-2.4c-.2-.82-.7-1.44-1-2.4a19.05,19.05,0,0,1-1.36-2.19c-.18-.48-.14-1.1-.51-1.39a1.9,1.9,0,0,0-1.9-1c-.74.19-1,.58-1.71.79s-1.56.15-2.22.41c-.17.31.33.48.51,1.2a5.1,5.1,0,0,0-.86,1.8,4,4,0,0,0-.87,1.8,1.82,1.82,0,0,1-.33,1.8,16.12,16.12,0,0,1-.7,2.19,5.6,5.6,0,0,0-1.19,1.6c-.39.65-.74.6-1.71.6-.76-.24-.87-.72-1.55-1-.06-.24-.12-.32-.35-.39" fill="none" stroke="#782600" stroke-width="3.1"/><path d="M242.2,119.4a11.32,11.32,0,0,1-2.7,6.2,42.78,42.78,0,0,1-7.4,5.4s6.7-3.1,7.4-2.5-4.3,6.3-4.3,6.3,6.5-5.9,7.4-5.9,2.7,5.7,3.4,5.6-1.5-7.2-1.2-8.3,0-7,0-7l-2.6.2Zm15.5-.5a12,12,0,0,1-2.8,6.6,53.82,53.82,0,0,1-7.4,5.8s6.8-3.4,7.4-2.6-4.3,6.6-4.3,6.6,6.6-6.2,7.4-6.2,2.8,6,3.5,6c.7-.2-1.6-7.8-1.2-9s0-7.5,0-7.5l-2.6.3ZM236,82.6a1.61,1.61,0,0,1-3.2,0c0-.8.7-1.3,1.6-1.3A1.48,1.48,0,0,1,236,82.6Z" fill="#812e00" fill-rule="evenodd"/></svg>