<svg id="flag-icons-fk" xmlns="http://www.w3.org/2000/svg" xmlns:xlink="http://www.w3.org/1999/xlink" viewBox="0 0 512 512"><defs><linearGradient id="Dégradé_sans_nom" x1="423.65" y1="-45.17" x2="450.15" y2="-30.07" gradientTransform="matrix(0.95, 0, 0, -0.95, -325.81, 497.81)" gradientUnits="userSpaceOnUse"><stop offset="0" stop-color="#a43907"/><stop offset="1" stop-color="#fff"/></linearGradient><linearGradient id="Dégradé_sans_nom_2" x1="354.21" y1="-48.87" x2="380.71" y2="-33.77" gradientTransform="translate(760.42 287.57) rotate(180) scale(1.21 1.26)" xlink:href="#Dégradé_sans_nom"/><linearGradient id="Dégradé_sans_nom_3" x1="366.47" y1="-17.71" x2="428.77" y2="-8.01" gradientTransform="translate(764.37 345.95) rotate(180) scale(1.13 1.34)" xlink:href="#Dégradé_sans_nom"/><linearGradient id="Dégradé_sans_nom_4" x1="464.21" y1="-40.55" x2="437.11" y2="-42.05" gradientTransform="matrix(1.21, 0, 0, -1.26, -77.58, 287.57)" xlink:href="#Dégradé_sans_nom"/><linearGradient id="Dégradé_sans_nom_5" x1="512.97" y1="-10.81" x2="451.37" y2="-15.21" gradientTransform="matrix(1.13, 0, 0, -1.34, -81.53, 345.95)" xlink:href="#Dégradé_sans_nom"/><linearGradient id="Dégradé_sans_nom_6" x1="854.21" y1="137.03" x2="648.74" y2="137.03" gradientTransform="matrix(0.95, 0, 0, -0.95, -324.98, 500.65)" xlink:href="#Dégradé_sans_nom"/><linearGradient id="Dégradé_sans_nom_7" x1="388.96" y1="54.21" x2="677.86" y2="52.61" gradientTransform="matrix(0.99, 0, 0, -1.53, -87.38, 467.96)" xlink:href="#Dégradé_sans_nom"/><linearGradient id="Dégradé_sans_nom_8" x1="579.7" y1="52.53" x2="556.7" y2="51.53" gradientTransform="matrix(1.01, 0, 0, -1.51, -87.49, 452.84)" xlink:href="#Dégradé_sans_nom"/><linearGradient id="Dégradé_sans_nom_9" x1="482.52" y1="54.26" x2="460.02" y2="51.96" gradientTransform="translate(770.31 467.96) rotate(180) scale(0.99 1.53)" xlink:href="#Dégradé_sans_nom"/><linearGradient id="Dégradé_sans_nom_10" x1="453.31" y1="45.5" x2="491.11" y2="59.5" gradientTransform="translate(770.33 452.84) rotate(180) scale(1.01 1.51)" xlink:href="#Dégradé_sans_nom"/></defs><title>fk</title><path id="path786" d="M0,0H512V512H0Z" fill="#012169"/><g id="g988"><path id="path798" d="M315.14,323.21a12,12,0,0,0-1.9.09c-3.24.57-8.38,11.14-11.14,17.33a82.06,82.06,0,0,0-8.57,12.56c-.76,1.24-1.9,2.57-1.52,4.19-6.66,1.62-7.05,7.33-7.05,9.52a6.87,6.87,0,0,0,.77,3.62l4,7.42v.1c4.29,8.85,10.48,20.65,14.09,21.61,4.95,1.42,17.9-3.34,27.61-11.62a150.89,150.89,0,0,0,117.94,0c9.71,8.28,22.56,13,27.61,11.62,3.52-1,9.8-12.85,14.09-21.61l3.9-7.52a6.74,6.74,0,0,0,.76-3.52c0-2.19-.38-8-7-9.52.38-1.62-.67-3.05-1.43-4.29a98.69,98.69,0,0,0-8.57-12.75c-2.86-6.19-8-16.57-11.14-17.14-4.57-.76-14.28,1.53-14.28,2.38v.48l-19.7,18.37a121,121,0,0,0,4.76,25.7,139.83,139.83,0,0,1-48.07,8.09,137.46,137.46,0,0,1-48-8.18,129.9,129.9,0,0,0,4.76-25.7l-19.51-18.28v-.48C327.52,325,320,323.21,315.14,323.21Zm4.95,22.84c2.48,0,5.05,2.1,7.23,4.29l-.19,1.33a74.13,74.13,0,0,1-3,10.09,81.6,81.6,0,0,1-13.61-9.8c2.09-2.29,5.52-5.34,9.13-5.81h.48Zm140.5,0h.48c3.62.57,7,3.62,9.23,5.91a81.74,81.74,0,0,1-13.7,9.8,74.17,74.17,0,0,1-3.05-10.09c-.08-.44-.15-.89-.19-1.33,2.09-2.29,4.76-4.29,7.23-4.29Zm-158,26.09a92,92,0,0,0,10.09,6.66,11.79,11.79,0,0,1-3.62,1.62,12.22,12.22,0,0,1-5.24-.1,16.77,16.77,0,0,1-1.14-5.42Q302.6,373.52,302.58,372.14Zm175.62,0L478,374.9a16.51,16.51,0,0,1-1.14,5.42A11.41,11.41,0,0,1,468,378.8,86,86,0,0,0,478.2,372.14Z" stroke="#fff" stroke-width="10" fill-rule="evenodd" fill="url(#Dégradé_sans_nom)"/><path id="path800" d="M332.19,356.64s-6.86-11.08-12.4-10.2-11,7.81-11.31,8.18a50.28,50.28,0,0,1-8.31-9.44c.36-.38,8.67-20.78,13.24-21.66a28.58,28.58,0,0,1,14.21,2.27Z" stroke="#000" stroke-width="1.2" fill-rule="evenodd" fill="url(#Dégradé_sans_nom_2)"/><path id="path802" d="M347.24,344.8c0,.76-2.41,30-12,40.17s-25.64,16.49-31.3,15-18.41-31.1-18.41-31.1,13.6,14.1,23.71,11.71,16.13-20,18.06-28.71.36-25.56.36-25.56l19.74,18.51Z" stroke="#000" stroke-width="1.2" fill-rule="evenodd" fill="url(#Dégradé_sans_nom_3)"/><path id="path804" d="M448.66,356.64s6.86-11.08,12.39-10.2,11,7.81,11.32,8.18a51,51,0,0,0,8.31-9.44c-.37-.38-8.67-20.78-13.25-21.66a28.54,28.54,0,0,0-14.2,2.27Z" stroke="#000" stroke-width="1.2" fill-rule="evenodd" fill="url(#Dégradé_sans_nom_4)"/><path id="path806" d="M433.61,344.8c0,.76,2.41,30,12,40.17s25.64,16.49,31.29,15,18.42-31.1,18.42-31.1-13.6,14.1-23.71,11.71-16.13-20-18.06-28.71-.36-25.56-.36-25.56L433.49,344.8Z" stroke="#000" stroke-width="1.2" fill-rule="evenodd" fill="url(#Dégradé_sans_nom_5)"/><path id="path808" d="M302.22,340.37a94.69,94.69,0,0,0-8.76,12.85c-1.9,3.14-.76,7.61,3.52,13.8,4.76,6.67,43.22,33,93.39,33s88.62-26.27,93.29-33c4.38-6.28,5.52-10.66,3.61-13.8a93.48,93.48,0,0,0-8.75-12.85c0,8.18-31.89,38.07-88.15,38.07S302.22,348.55,302.22,340.37Z" stroke="#000" stroke-width="1.5" fill-rule="evenodd" fill="url(#Dégradé_sans_nom_6)"/><path id="path810" d="M476.19,395.55l8.67-15-4.33-3.15c-1.21,3.78-6.14,5-7,9.82s3.37,9.45,2.64,8.31Z" stroke="#000" stroke-width="1.2" fill-rule="evenodd" fill="url(#Dégradé_sans_nom_7)"/><path id="path812" d="M484.05,391.27s1.56-6.68-3.37-7.56-7.47,3.78-6.74,2c.72-2,3.61-3.9,4.09-10.57a46.24,46.24,0,0,0-.36-10.33s1.92-8.56,9.75-7.43,8.3,7.56,8.3,9.82a7.62,7.62,0,0,1-.72,3.53Z" stroke="#000" stroke-width="1.2" fill-rule="evenodd" fill="url(#Dégradé_sans_nom_8)"/><path id="path814" d="M456.76,366.13l1.63,2.86,1.06-.66-.73-1.87.16-.41,1.88-1.14,4.89,8.64V374l-1.06.73.49.82,4.64-3-.4-.81-1.06.65-.41-.08L463,363.61l1.79-1.22h.41l1.22,1.63,1.06-.74-1.63-2.77-9.05,5.71Zm-11.65,6.69.41.81,1-.41.4.09,4.24,8.8-.08.41-1,.57.41.81,4.64-2.44-.4-.82-1,.41-.41-.08-2-4.16,4.73-2.44,2,4.07-.08.41-1,.65.41.82,4.64-2.45-.41-.81-1,.4-.41-.16L456,368.58l.08-.41,1-.57-.41-.81L452,369.23l.4.82,1-.49.41.16,1.79,3.59-4.72,2.44-1.8-3.58.17-.41.89-.57-.4-.82Zm-2.69,7.5.25.81,1.3-.33.41.17,1.06,3.67-1,.32c-2.69.82-4.89-.49-5.79-3.67s.16-5.46,2.77-6.27a4.07,4.07,0,0,1,1.55-.17l.33.25.89,1.71,1.31-.41-.82-2.93a14.13,14.13,0,0,0-3.91.49c-3.91,1.3-5.7,4.48-4.73,8.15a6,6,0,0,0,8,4.24,12.68,12.68,0,0,0,3.75-2l-1.22-4.07.24-.33,1-.41-.24-.89ZM431.58,390.5l5.22-1.63-.25-.89-1.22.24-.33-.16-2.85-9.46.16-.32,1.15-.49-.25-.82L428,378.6l.24.82,1.22-.25.33.17,2.85,9.45-.24.33-1.06.49.24.81Zm-28.36,4.65,9.21-.82L412.1,391l-1.14.08-.16,2-.16.33-4,.4-.41-4.89,2.29-.16.24.24.25,1.31h1.05l-.4-4.32h-1v1.38l-.25.33-2.28.16-.32-4.4,3.42-.24.24.16.33,1.63,1.22-.08L410.8,382l-8.64.81v.82h1.14l.24.32.82,9.78-.16.33-1.06.16v1Zm-13.77-12.23v.9l1.06.08.24.33.16,9.78-.24.32-1,.17v.81h4.89v-.9l-1.06-.08-.33-.32v-4.65l4.89-.08.17,4.65-.25.32-1.06.08v.9h4.89v-1h-1.06l-.24-.32-.16-9.87.24-.32,1-.08v-.9H396.7v1l1.06.08.32.24v4.08l-4.89.08-.16-4.07.33-.25,1-.08v-.9ZM379,382.6v3.26h1.14l.33-2,.25-.24h2v10.1l-.32.33H381.3v1h5.13v-.82l-1.14-.16-.25-.33.09-10h2l.33.24.24,2h1.15v-3.26Zm-15.89,10.51,9,.41.16-3.26-1.14-.08-.33,1.95-.24.25-3.91-.17.24-4.89,2.2.17.16.24.17,1.39h1l.17-4.24h-1l-.24,1.22-.25.25h-2.2l.24-4.49,3.26.17.25.24.24,1.63L372,384l.09-2.93-8.4-.41v.9l1,.16.24.33-.4,9.78-.33.32h-1.06v1Zm-20.62-5.38,4.73,1.63.24-.81-1-.49-.17-.41,2.85-9.37.33-.17,1.14.25.25-.82-4.81-1.63-.25.82,1,.49.25.32-2.94,9.38-.32.24-1.06-.32Zm-8.56-3.26a9.22,9.22,0,0,0,2.94,1.63c2.61.82,4.73-.16,5.38-2.2a3.45,3.45,0,0,0-.65-3.18c-.82-1-1.55-1.55-1.88-2a2.6,2.6,0,0,1-.81-2.37,1.81,1.81,0,0,1,2.44-1,2.23,2.23,0,0,1,1.14.66l.08.32-.24,1.88,1.14.4.81-2.85a8.88,8.88,0,0,0-2.77-1.63,3.6,3.6,0,0,0-4.89,2.2,3.54,3.54,0,0,0,.41,2.77,15.59,15.59,0,0,0,1.71,2,2.79,2.79,0,0,1,1.06,2.77c-.32,1-1.3,1.47-2.61,1a4.63,4.63,0,0,1-1.3-.73l-.16-.33.4-2.2-1.22-.41Zm-10.84-4.56,8.15,4.07,1.39-3-1-.49-1.06,1.63-.32.16-3.59-1.79,2-4.32,1.95,1,.09.32-.41,1.31.89.49,1.8-3.92-.9-.4-.73,1.06-.33.16-1.95-1,1.79-4,3,1.55.17.32-.49,1.55,1.06.49,1.22-2.61-7.66-3.83-.33.82.82.57.16.4-4.07,8.89-.33.08-1-.33-.32.82Zm-1.3-14.84-4.07-2.85-.49.82.81.65v.41l-5.13,8.15-.41.08-.82-.49-.57.81,4.08,2.78a5.89,5.89,0,0,0,4,1.3,5.76,5.76,0,0,0,4.4-3c2-3.26,1.47-6.43-1.79-8.64Zm-1.71,0,.81.66c2.2,1.46,2.45,3.66.57,6.52s-3.83,3.58-6,2l-.81-.48,5.46-8.64ZM352.69,378l-.16.82,1,.32.17.33-2,9.62-.32.24-1-.08-.17.81,4.65,1.06.16-.81-1-.41-.24-.33.82-4.07.32.08c1.63.41,2,1.22,2.12,3.1a3.91,3.91,0,0,0,.73,2.69,2.29,2.29,0,0,0,1.63.89,10,10,0,0,0,1.63.25l.17-.82-.17-.08c-1.14-.24-1.63-.65-1.71-1.71a9,9,0,0,0-.41-2.93,2.83,2.83,0,0,0-1.46-1.47c1.95,0,3.09-.82,3.42-2.45.41-2-.65-3.42-3.26-4L352.77,378Zm3.26,1.71.65.17c1.63.4,2.28,1.38,2,2.85-.33,1.71-1.31,2.28-3.1,1.87a.89.89,0,0,1-.57-.16l1-4.73Zm60.31,1.06.16.9h1.06l.33.16,1.55,9.78-.25.25-1.06.32.17.82,5-.82-.08-.89-1.14.08-.33-.25-.65-4.07h.32c1.8-.41,2.45.32,3.26,1.95a4,4,0,0,0,1.72,2.2,3.17,3.17,0,0,0,2,.25,14.09,14.09,0,0,0,1.8-.49l-.17-.81h-.24a1.9,1.9,0,0,1-2.37-.9,15.23,15.23,0,0,0-1.46-2.53,2.75,2.75,0,0,0-2-.81c2-.74,2.85-2,2.61-3.67-.33-2-2-2.85-4.73-2.45Zm3.91.41.82-.08c1.71-.33,2.77.32,3,1.87s-.49,2.61-2.44,2.94h-.66l-.81-4.73Z"/><path id="path816" d="M304.73,395.55l-8.66-15,4.33-3.15c1.2,3.78,6.14,5,7,9.82s-3.37,9.45-2.65,8.31Z" stroke="#000" stroke-width="1.2" fill-rule="evenodd" fill="url(#Dégradé_sans_nom_9)"/><path id="path818" d="M296.8,391.27s-1.56-6.68,3.37-7.56,7.46,3.78,6.74,2c-.72-2-3.61-3.9-4.09-10.57a46.24,46.24,0,0,1,.36-10.33s-1.93-8.56-9.75-7.43-8.31,7.56-8.31,9.82a7.54,7.54,0,0,0,.73,3.53Z" stroke="#000" stroke-width="1.2" fill-rule="evenodd" fill="url(#Dégradé_sans_nom_10)"/><path id="path820" d="M390.44,373s-90.88-27-90.28-128.69l.6-134.73H480l.6,134c.6,101.75-90.28,129.32-90.28,129.32Z" fill="#0072c4" stroke="#fff" stroke-width="3.9" fill-rule="evenodd"/><g id="g834"><path id="path822" d="M313.32,140.13a25.13,25.13,0,0,0,2.29-1.95c1.38-.82,2.69-1.71,4.07-2.45,1.14-.57,3.26-1.06,4.16-1.54a10.19,10.19,0,0,0,3.42-2.69,49.61,49.61,0,0,0,.41-5.14l4.07-2c1.88-.49,2.29-1.22,4.16-1.54a17.86,17.86,0,0,1,4.89-.41c1.87,0,3,1.38,4.73,1.63a13.62,13.62,0,0,1,4.56,2.77A7.79,7.79,0,0,0,353,129.7a16.28,16.28,0,0,0,3.74,2,15,15,0,0,1,4.16,2.77c1.14.81,1.63,2,2.61,2.77a28.91,28.91,0,0,0,3.83,2.77,8.27,8.27,0,0,0,5.79,1.63,27.87,27.87,0,0,1,4.48,0,18.6,18.6,0,0,1,5.3.49c1.95,0,3.5.25,5.29.41a27.27,27.27,0,0,0,5.22.32,18.63,18.63,0,0,0,5.3.41h10.59a24.84,24.84,0,0,1,5.22.41,41.26,41.26,0,0,0,5.21-.41c2.12,0,3.67-.32,5.71-.41h6.36c1.63.49,3.74.82,4.89,1.63,1.54.41,2.28,1.15,3.74,1.63a10.65,10.65,0,0,1,3.84,2.69,20.41,20.41,0,0,1,3,4.32,36.43,36.43,0,0,1,2.2,5.14,23.67,23.67,0,0,1,.82,5.46,30.78,30.78,0,0,1,.32,5.54,41.32,41.32,0,0,1-1.14,5.46,23.27,23.27,0,0,1-.73,5.14,24.15,24.15,0,0,0-.82,4.72v5.54c0,1.8-.49,3.1-.65,5.06a55.81,55.81,0,0,0-2.69,5.95,12,12,0,0,0-3,3.09c-.82.57-1.23,1.31-1.15,1.63,1.55.49,1.15,1.55,1.15,3.51a40.51,40.51,0,0,0,.81,5.13,10.8,10.8,0,0,0,1.06,4.32c.65.82.82.41-.73.41-1.06.81-2.2.41-2.61-1.22a9.87,9.87,0,0,1-1.55-4.32,14.38,14.38,0,0,0-1.06-4.73c-.24-2.2-.81-2.2-3-2.36-1.06-.9-2.45-1.14-4.57-1.14s-2.2-.25-2.28,2v5.54c-.33,1.63-1.06,2.86-1.47,4.32-1.14.82-1.63,2.2-3,3.1-.66,1.79-1.55,2.12-3.34,2.45L417.56,220c1.06-1.79,2-2,2.61-4a41.32,41.32,0,0,0,1.88-3.91,16.89,16.89,0,0,1-2.2-3.5,21.8,21.8,0,0,1-2-4.32c-1.22-.49-3.18-.57-4.08-1.23-1.87-.4-2.36,1.63-4.56,1.63H404c-2.36,0-2.93,1.23-4.89,1.14-.65.17-2-.08-4.15,0a16.33,16.33,0,0,1-5.3.41,21.5,21.5,0,0,1-4.89-.81,27.92,27.92,0,0,0-5.22-1.14c-2.28,0-3.09.16-4.56,1.14-1.14.73-2.85,2.28-4.07,3.17-.58,1.31-.82,3.51-1.63,5.06a29.37,29.37,0,0,1-1.47,4,14.84,14.84,0,0,0-1.06,4.73c-.16,2.61-.73,2.28-2.28,1.55-.66-1.14-1.63-2.29-2.29-3.59.33-2,.82-2.93.82-5.05-.41-1.63-1.22-1.47-2.28-.41,0,2,0,3.67-.82,4.73a4.86,4.86,0,0,1-2.2,3.09,5.31,5.31,0,0,1-3,2.78c-.17,0,0-.49,0-1.63-.9-1.72,0-3.26,0-5.47a14.83,14.83,0,0,1,.4-5.05c0-1.95-.81-3.75-1.14-5.13-.73-1.47-1.14-2.2-3-2.77-1.39-.57-3.26-1.23-4.16-2.45a7.87,7.87,0,0,0-3.42-2.69,18,18,0,0,1-3.75-1.95c-1.14-1.31-2.12-1.8-2.61-3.51-.81-1.22-.9-3.5-1.47-5.13a17.57,17.57,0,0,0-1.14-4.73,19.33,19.33,0,0,0-1.14-4.73,47.9,47.9,0,0,0-1.14-5.13,23.77,23.77,0,0,0-.41-5.46V164.1A39.68,39.68,0,0,0,331,159a11.48,11.48,0,0,0-.81-4.73c-.82-1.38-.82-1.95-2.21-2.36a6.46,6.46,0,0,1-4.48,2,31.45,31.45,0,0,1-4.89-1.22,13.3,13.3,0,0,1-3.75-1.63,32.94,32.94,0,0,0-2.28-3.1c-.24-2-.65-3.1-.81-5.14,0-1.46.08-.65,1.63-2.69Z" fill="#bcbcbc" fill-rule="evenodd"/><path id="path824" d="M335.57,154.32l.33-.33c-.65.65-.41.33,1.06-.24a20.73,20.73,0,0,0,2.93-2,12.41,12.41,0,0,0,2.45-1.39,12.59,12.59,0,0,1,2.36-2.2,17.75,17.75,0,0,1,3.18-1.95c1.47-.17,2-.82,3.42-.33a2.37,2.37,0,0,0,2.94-.81c1.06-.66,2.28-1.39,2.69-2.45V141c0,1.79-.41,2.44-1.63,3a24.08,24.08,0,0,0-2.45,3.09c-.81,1.22-1,1.88-1.79,2.45-.73.89-1.88,1.38-2.12,2.85.33.65,0,1,.81,1.06.74.65,1.55.41,2.61,0a11.51,11.51,0,0,0,2.12-3.26,23.94,23.94,0,0,0,1.88-2.85,3.86,3.86,0,0,0,1.87-2.2,19.79,19.79,0,0,0,2.69-2,6.34,6.34,0,0,1,2.36-1.14,4.89,4.89,0,0,1-.81,3.1,4.66,4.66,0,0,0,.32,3.26c.74.57.58,1,1.06,2a19.07,19.07,0,0,0,.82-3.91v-.24a12,12,0,0,1-.33,3.58,9.26,9.26,0,0,0,.82,3.59,4.24,4.24,0,0,0,1.3,1.38c0-1.63.49-2.6.57-4.07.33,1.06.25,2.61.49,3.83a8.92,8.92,0,0,0,1.06,3.34c.65.33.82,1.47,1.06.57.65-1.95.65-4.07,1.06-6.11a10.09,10.09,0,0,1,.57-3.34l-.57,3.26a10.36,10.36,0,0,1,.57-3.26v-.33a30.84,30.84,0,0,1,.57,4.48,12.93,12.93,0,0,0,.25,3.59,4.94,4.94,0,0,0,1.87-2.44,14.55,14.55,0,0,1,2.12-3.1l-2.12,3a15,15,0,0,1,2.12-3V151a32.83,32.83,0,0,0-.25,3.83,16.17,16.17,0,0,0,.25,3.67c.33,1.47.73,1.71.81,3.26,0,.82-.16,1.63.25,2,1.14.24,1.14-.41,1.3-2,0-1.79.49-3,.57-4.72,0-2.12.25.24.49,1.06a10.48,10.48,0,0,1,.82,3.66,3.54,3.54,0,0,0,.24,2c1.06-.49,1.47-1.63,2.12-2.28a23.72,23.72,0,0,1,1.63-2.77c1.39-.25,1.3-.82,1.3-2.45a12,12,0,0,1,.33-3.91,33.43,33.43,0,0,0,1.06-3.67c.49-.24,1,.49,1.3,1.14.57.9.49,2.2.49,3.59a17.34,17.34,0,0,0,1.39,3.34,11.83,11.83,0,0,0,1.87,2.77,16.62,16.62,0,0,1,.25,3.67c1.06-1.22,1.22-2.93,1.3-4.73a29,29,0,0,0-.49-3.91,12.75,12.75,0,0,0-.57-3.34c-.81-.41-1.06-.82-.24-2,.81-.73,1.79-.4,3.18-.24.73.73,1,1.14,1.06,2.77a7,7,0,0,0,.57,3.59,8,8,0,0,1,1.3,2.77c.41.4.73,1,1.3.32.33-.81.57-2.44.82-3.34a2.8,2.8,0,0,1,1.3-2,7.11,7.11,0,0,0,.57,3.59c.49,1.22.82,1.71,1.31,3.1.57.41.65,1.22,1.38,1.63a34.4,34.4,0,0,0,.25-4.4v-3.92a9.24,9.24,0,0,1,.81-3.09,4,4,0,0,1,.82,3.09c.81-.32,1-1,1.3-1.95.57-.57.82-.82,1.06.57a32.91,32.91,0,0,0,.82,4.16,20.42,20.42,0,0,0,1.79,2.77,13.52,13.52,0,0,0,1.63,2.28c.41.81.49,1.38,1.63,1.63a30.73,30.73,0,0,0-.33-5.54,24.11,24.11,0,0,0-.49-3.67,5,5,0,0,1-.57-2.77,8.89,8.89,0,0,1,2.45,3.34c.57,1.39,1.14,2.28,1.63,3.67a16.76,16.76,0,0,1,2,2.77c1,.81,1.46,1.71,2.44,2.44.49.49,1.63.82,1.88.57a15.34,15.34,0,0,0-.82-4.4,7.35,7.35,0,0,0-.81-3.34,8,8,0,0,1-2.45-2.77,2.13,2.13,0,0,1-.49-1.38,20.92,20.92,0,0,1,3.75,3.83,5.75,5.75,0,0,0,2.12,2,6.52,6.52,0,0,0,3.18,1.63,4.52,4.52,0,0,0,2.69,1.71L428.73,159a4.49,4.49,0,0,0,2.69,1.63V161a10.73,10.73,0,0,0-1.63-4.48,7.17,7.17,0,0,0-2.45-3.1,7.57,7.57,0,0,0-2.61-2.45,29.91,29.91,0,0,0-2.44-2.77c1.22-.81,2.53.49,3.75,1.06,1.06,1.14,2,2.61,2.69,3.34a14.58,14.58,0,0,0,2.44,3.67,15.13,15.13,0,0,1,2.86,2.2c1.63.41,1-.16.57-1.38-.57-1.63,0-1.63,1.06-.57a19,19,0,0,0,2.69,1.95,1.35,1.35,0,0,0,1.79.57c.32-.4.32-.4.32-.81-.57-1.79-1.14-3.1-2.44-3.67a22.59,22.59,0,0,0-2.45-2.44c-.48-.82-1.06-1.31-1.54-2.29l1.63,2.2a14.43,14.43,0,0,1-1.63-2.2h-.25A5.94,5.94,0,0,1,437.2,151a5.61,5.61,0,0,1,2.45,2,26.81,26.81,0,0,1,1.87,2.2l2.61,2a4.71,4.71,0,0,1,1.06,3.58c.57.82.65,2.45.82,3.34-.17,1.55-.74.33-.82-.57-.16-1.22-.65-1.14-1.63-.81a6.16,6.16,0,0,0,.82,3.34,6.54,6.54,0,0,1-1,2.77c-.65.41-.82-.81-1.39-1.38,0-1.63-.49-1.88-1.63-2.78v1.15a8,8,0,0,1,1.39,3.83,9.92,9.92,0,0,1,.57,3.66,15.13,15.13,0,0,1-.33,3.92c0,1.46-.24,2.11-.24,3.58v7.83a18.64,18.64,0,0,0-.25,3.58l.25-3.58a22.69,22.69,0,0,0-.25,3.58v.25a33.16,33.16,0,0,1-1.38-4.08,8.18,8.18,0,0,1-1.79-2.85c-.25-1.22-.33-2.61-.58-3.59s-.81-2-1.63-1.38c-.32,2,.17,3.26.82,5.21.41,1.31.41,2.45.81,3.67.66,1.47,1.15,1.63,0,3.26a6.36,6.36,0,0,0-1,2.28,1.88,1.88,0,0,0-1.31,2c-.32-1.06-1.14-2.36-1.63-3.59a35,35,0,0,1-1.3-3.91,19.07,19.07,0,0,0-2.12-3.1,23.47,23.47,0,0,1-2.12-3.26c-1.06-1.22-1.3-1.95-2.2-2.52-.16-.57-.49-1.31-1.06-.82a14.4,14.4,0,0,0,.33,3.83,38.15,38.15,0,0,1,.81,4.16v3.1c-.65-1.63-1.39-2.94-1.87-4.49-.66-.81-1.15-2.44-1.88-3a12.51,12.51,0,0,0-1.38-2.77c-.09-.82-.49-.82-.82-1.39,0,1.55.57,2.12.82,3.26a6.6,6.6,0,0,1,.57,3.42c-.66-2-1.31-4.07-2.12-5.86a24.37,24.37,0,0,1-2.12-3.67c-.82-.9-1.63-1-2.45-1.63a4.77,4.77,0,0,1-1.79-1.39,18.21,18.21,0,0,0,1.06,3.59,31.19,31.19,0,0,0,1.06,3.67c-.33,1.87-.82-.57-1.06-1.39a8.66,8.66,0,0,0-1.39-3.34,24.47,24.47,0,0,0-2.11-2c-.82-.32-.49,0-.49,1.06a9.15,9.15,0,0,0,.49,3.92c.57.81.57,1.87.57,3.34s-.33,2.44-.33,3.91v2.2a21.24,21.24,0,0,1-1.63-3.34,28.59,28.59,0,0,1-1.79-3.59c-.57-.24-1.63-.49-2.12,0,.08,1.39.73,2,.81,3.59-1.06,1.06-.89,1.38-1.63-.25-.57-1.3-1.3-1.22-2.12-1.95-1.3-.16-.89-1.06-1.3-2.28a9,9,0,0,0-.33-3c-1.46,0-2.28,0-3.17.82a6.84,6.84,0,0,0,0,3.66v3.83c-.33,1-.82,1.06-1.06,2.29-.49,1.14-.66,2.44-1.06,3.26-1,.89-.57,1-1.06-.49v-9c0-1.47.24-2.2.24-3.58-.49-1.15-.65-1.39-2.44-1.39a5.21,5.21,0,0,0,0,2.77,23.09,23.09,0,0,0,.32,3.67c0,1.47.17,2.36.25,3.58a4.25,4.25,0,0,1-1.06,3.26c-.9.33-.08,1-1.06,1.23a12.36,12.36,0,0,1-2.94-2,10.06,10.06,0,0,0-3.42-.57c-1.79,0-1.79-.24-2.44-1.63a25.4,25.4,0,0,1-1-4.48,11.18,11.18,0,0,1-1.06-3.67,5.16,5.16,0,0,0-1.63-2,14.44,14.44,0,0,0-.82,4.24,13,13,0,0,0-.49,3,14.56,14.56,0,0,1-1.14-3.59c-.49-1.63-.89-2.77-2.6-2.2-1.8,0-1.88,0-1.88,2l2.12,3.26v3.91c0,1.63.08,2.12-1.06,2.44a13.54,13.54,0,0,0-2.44-4.64c-.09-1.14-.41-.82-1.55-.82-.74,0-1.47-.16-1.88.25v2.44c-.65.17-.81,0-1.3-.49-.49.82-.08,2,0,3a9.37,9.37,0,0,1-1.31,3.1c-.16-.41-.4-.25,0-.25-1.87-.73-3.26-1.14-4.89-1.63-.81,0-1.54.9-2,1.63a10,10,0,0,1-3.51.82c-1.38,0-2.12.24-3.42.24a14.8,14.8,0,0,1-3.51.33c-.65-.25-1.95-.25-2.36-.57a9.83,9.83,0,0,0,1.63-2.45,15.66,15.66,0,0,0,2.12-2,26.56,26.56,0,0,0,2.12-2.21,3.27,3.27,0,0,1,1.87-2.2c1.63,0,1.88.57,3.43.82,1.55.57,2.44.81,3.26-.33,1.22-.49,2.28-1.38,3.66-1.63l2.69-1.63a23.16,23.16,0,0,0,2.61-2.28c.33-1.14,1.14-2,.82-3.26-1.47-.41-2.37-.32-3.26.49a13.69,13.69,0,0,1-2.61,2.2c-1.06.33-1.63.82-2.94,1.14a10.74,10.74,0,0,1-3.66.25c-1.23,0-2.77-.09-3.51.32a15.17,15.17,0,0,1,3.75-1.95,4.48,4.48,0,0,1,2.94-1.14c.65-.82,1.38-.82,1.63-2.21.4-1.63-1.06-1.14-2.2-.57a18.73,18.73,0,0,0-3.18,1.39,11.74,11.74,0,0,1-3.43.57c-.32-.49.25-.9.49-1.63,1.23-.49,1.47-.65,1.63-2-1.38.17-1.95.66-3.26.82a21.73,21.73,0,0,1-4.24.57h-3.66c-1.31,0-2-.33-3.51-.33-1.06-.57-1.06-.81-1.06-2.44.82-1,1.63-.82,3.26-.82l2.86-1.46c1-.17,1.63-.57,1.38-1.06H342c-1.46-.65,0-.9.82-1.39a7.22,7.22,0,0,1,3.42.49c1.63,0,2.2-.57,3.5-1.63a12.74,12.74,0,0,1,2.61-2,16.42,16.42,0,0,0,2.12-2.2,14.07,14.07,0,0,0,2.45-2.52c.65-.41,1.14-.82.81-1.39a6,6,0,0,0-3.5,1.63,8,8,0,0,1-2.12,1.63,6.62,6.62,0,0,1-3.42,1.22c-1.39,0-2.45-.24-3.75-.32-1.47-.16-.17-.49.24-1.14a1.44,1.44,0,0,0,.57-1.88,11.5,11.5,0,0,0-3.75-.32h-3.75a5.41,5.41,0,0,1-2.93-.82c-.25-.81,0-.57,1.06-.57a14.79,14.79,0,0,0,3.5-.57c1.23-.32,1.39-.81,1.63-2.2a14.93,14.93,0,0,1-3.5-.24Zm-23-6.36c-.24-2-.73-3.1-.81-5.14,0-1.46.08-.65,1.54-2.69a25.13,25.13,0,0,0,2.29-1.95c1.38-.82,2.69-1.71,4.07-2.45,1.06-.57,3.26-1.06,4.16-1.54a10.19,10.19,0,0,0,3.42-2.69c.08-1.8.33-3.1.33-5.14l4.15-2c1.88-.49,2.29-1.22,4.16-1.54a17.86,17.86,0,0,1,4.89-.41c1.87,0,3,1.38,4.73,1.63a12.54,12.54,0,0,1,4.48,2.77,8.67,8.67,0,0,0,3,2.93,16.68,16.68,0,0,0,3.74,2c0,1.47.33,1.22-.65,1.22-.16,1.47-.49,1.39-1.87,1.39a6.65,6.65,0,0,1-2.45-2.2c.57-1.47.25,1.14,0,1.63-.65.57-1.06,1.14-1.79.57a10.2,10.2,0,0,1-.82-3.92c-.24-1.71-.73-.48-1.05.25a3.65,3.65,0,0,0,.24,3.1c-1.39,0-2.45-.17-3.42-.25a5.3,5.3,0,0,0-3.26.49c-1.39.9-.9.9-.25,2a23.61,23.61,0,0,1,3.26,1.63,34,34,0,0,0,3.67-.82,9.66,9.66,0,0,1,3.75,0c.65.41,1.47.49,1.87.82a4.75,4.75,0,0,1-.32,2.28c-.49.41-1.06,1.38-1.88,1.63a13.5,13.5,0,0,1-3.66,1.47,6.1,6.1,0,0,0-3.51,1.06c-.16,1.46-.57,1.79-1.87,2.28a8.47,8.47,0,0,1-3.67.81c-.82,0-1.55.08-1.88-.32a10.3,10.3,0,0,0,2.12-3.26c.25-.57.74-1,.25-1.47-1.55.08-2,.08-2.12,1.63s-.73,1.79-1.88,2.28c.33-1.3.41-2.44.82-3.58a21.77,21.77,0,0,1-3.42.24c-.82.57-1.14.73-.82,1.63a8.31,8.31,0,0,1-3.75,0c-1.14,0-.49-.49-1.3-1.06-.57-1.06-1.14-1.3-2.45-1.38-.57.81-1.63,1-2.36,1.63a3.21,3.21,0,0,1-2.93-.49c-1.31,0-1.15.4-.82,1.38.57.33,0,.73.82.82a3.94,3.94,0,0,0,2.93.81,18.83,18.83,0,0,1,3.75-.24c1.3,0,1.06.32,1.06,1.63-.82.65-2.12.57-3.51.57a13.32,13.32,0,0,1-3.17-.82,8.47,8.47,0,0,0-3.18,0c-.41.49-1.63.65-.25.82.57.57,3.67.24,3.83,1.22.82.81.57,1.87-.65,1.87a1.8,1.8,0,0,0-1.87,0c-.82.17-2,0-3.51.17,2,.16-1.47-2.2-2.2-3.18Z" fill="#fefefe" fill-rule="evenodd"/><path id="path826" d="M321,138.75l-1.63,1.06a28.65,28.65,0,0,0-3.18,2.2c-.57.49-.57.81-1.31.81a7.73,7.73,0,0,0,2.94-1.06,6.44,6.44,0,0,0,3.42-1.14c.73-.24,0-1.3-.24-2Zm12.22-13.12c.16,0,.49.81,1.06,1.38a7.57,7.57,0,0,1,.82,3.1c.32-1.39.81-2.44,1.05-3.91-.4-.82-.4-1.06-1.63-1.14,0,.81.17.24-1.3.57Z" fill="#bcbcbc" fill-rule="evenodd"/><path id="path828" d="M325,137.16c-.6,0,1-.63,1.56-.76a5,5,0,0,1,1.57-2.26,2.87,2.87,0,0,1,2.65,1.38c1.2.38,1.56.88,2.89,1.13.6.51,1.2.51,0,.89a7.28,7.28,0,0,1-3.13.5,8.2,8.2,0,0,0-3.13.88c-1.81,0-1.57,0-2.41-1.76Z" fill="#c4c4c2" stroke="#000" stroke-width="0.9" fill-rule="evenodd"/><path id="path830" d="M338,125.87v.33c0-.82,0-.41.24,1.06a8.29,8.29,0,0,1,.57,3.42,5.39,5.39,0,0,0,1.63-2.53c0-2.2-.4-2.11-2.44-2.28Zm9.78,32h.33c-.82,0-.33,0,1.05-.81.9-.66,1.63-1.63,2.94-2a10.58,10.58,0,0,1,3.42-1.95c.65-.33,1.22-.82,1.88-.33-.17,1.38-.41,2-1.63,2.53a4.84,4.84,0,0,1-2.37,1.63c-.81.4-1.79.48-2.12,1.46-1.46.65-1.63.49-3.42-.57Zm5.13,8.07c.41-.41,2.12-2.12,2.94-2.77a12.26,12.26,0,0,1,2.61-2.77c.81-1.22,1.79-2,2.44-3.1l2.12-2.77c0,1.22-.16,2.85.24,3.59a5.69,5.69,0,0,1-.81,3.34,4.78,4.78,0,0,1-2.45,2.28,16.5,16.5,0,0,0-2.85,1.63,21,21,0,0,1-2.44,1.39c-.74.32-.41.24-1.8-.82Zm-8.31,6.36H345c-.82,0-.41.08,1.06-.82a9.08,9.08,0,0,1,3.42-2.2,8.38,8.38,0,0,0,3.26-.81c.57-.17,1.06-.57,1.55,0,.81,1.14,1.06,1.46-.25,2.2a7.73,7.73,0,0,1-2.69,1.38c-.65.57-1.95.57-3.26.82-1,0-1.63.16-2-.57l2.12.57a7,7,0,0,1-3.51-.57Zm11.41,0v-.25c0,.82,0,.41.57-1.14,1.06-1.55,1.39-2.44,2.69-2.77.57-.81,1.63-1,2.93-1.38.49.81.09,1.79,0,2.77a8.33,8.33,0,0,1-1.87,2.52,5.12,5.12,0,0,1-2.44,1.39c-1,0-.41,0-1.8-1.14Z" fill="#bcbcbc" fill-rule="evenodd"/><path id="path832" d="M330,136.22a1.36,1.36,0,0,1-1.3,1.39,1.39,1.39,0,1,1,0-2.77A1.31,1.31,0,0,1,330,136.22Z" fill-rule="evenodd"/></g><g id="g840"><path id="path836" d="M333.14,214h1.08c-3.37,0-1.32-.25,4.21,4.41,2.41-2,2.41-2.27,4.22,1.26,1.2,1.88,1.44-.26,3.25-2.27.84,4,1.32,8.18,4.21,4.41,3.37,0,6.74-.26,8.55,1.13,2.16,4.15,1.44-.76,3.13,1.13,4.81.51,4.69-4.28,9.75-5.54,3.13,4.16,4.57,1,8.42-1,3,.75,5.78,5.41,6.38.88,2.41-4,2.53-3.78,4.22,0,2.4,2.26,3.37-1,5.29-2.14,3.61,2.14,7.59,2.51,12.76,1.13,1,3.65,3.13,2,5.42,1,4.69,2.14,6.26,2.77,11.67,0,2.65-3.28,1.21.12,3.13,2.26,4-1.26,2.89-1.51,7.47-1.13,4.69,0,5.05,0,6.38-3.27,2.41,2.39,3.13,4.15,6.38,1.13,5.05,0,3.49.63,6.38-1.26,2.28,5,2.77,1.51,5.41,3.4a17.93,17.93,0,0,1-7.46,8.81c-2.05,3.78-3.37,7.56-7.46,9.07-3,3.15-6.26,5-9.63,7.81-4.58,1.26-9.63,1-14.81,1H376.71c-3.13,1.77-8.42,2.52-12.76,3.4-4.81,0-10.47,0-13.84-1.13-2.29-2.39-6.26-5-8.43-7.81-2.4-1.88-2.4-5.54-4.33-7.8-1.69-3.15-2.41-8.19-4.21-11.08Z" fill="#005120" stroke="#002b0d" fill-rule="evenodd"/><path id="path838" d="M436.3,224v1c0-3,.12-1.39-2.17,4.53-.36,1.39-1.44,1.77-3.13,2.27m-4.21-3.4h1.08c-4,3.78-6.62,5.67-7.46,10.07l7.46-10.07c-4,3.78-6.62,5.67-7.46,10.07m-8.55-15.61s-.12,3.9-1.08,5.54m-3.13,2.27v0ZM399.1,224h0Zm-59.58,0c.48,0,2.64,3.53,5.29,5.54-.6,3.28-1.68,7.05,0,10.08m3.25-8.94c.48,0,2.53,3.52,5.3,5.54l-5.3-5.54c.48,0,2.53,3.52,5.3,5.54v1.13c0-3.53-.24-7,1.08-8.94,1.21,2.14,2.65,5.41,3.13,2.27,6-.26,8.91-2,12.76-3.4,0,1.63-.24.88,1.21,2.26M443.76,225h1.08c-2,1.76-3.61,5.41-5.29,7.81m-39.36-11.08h8.42" fill="#005120" stroke="#002b0d" fill-rule="evenodd"/></g><path id="path842" d="M330.68,230c-12.79,0-17,13.37-29.82,13.37h-.74v.81a153.19,153.19,0,0,0,2,26c11.82-.82,16.14-13.37,28.52-13.37,12.8,0,17.12,13.37,29.91,13.37s17-13.37,29.83-13.37,17.12,13.37,29.91,13.37,17-13.37,29.83-13.37c12.31,0,16.71,12.39,28.53,13.29a155.53,155.53,0,0,0,2-26.65H480c-12.79,0-17-13.37-29.83-13.37s-17.11,13.37-29.83,13.37-17.11-13.37-29.91-13.37-17.11,13.37-29.83,13.37-17.11-13.37-29.91-13.37Zm0,52.24c-9.94,0-14.67,8.15-22.41,11.66a123.07,123.07,0,0,0,9.54,20.21c3.66-2.69,7.5-5.06,12.87-5.06,12.8,0,17.12,13.37,29.83,13.37,12.88,0,17.12-13.37,29.91-13.37s17.12,13.37,29.83,13.37,17.12-13.37,29.91-13.37A20.45,20.45,0,0,1,462.8,314a124.31,124.31,0,0,0,9.53-20.13c-7.5-3.66-12.31-11.57-22.17-11.57-12.79,0-17.11,13.37-29.91,13.37s-17-13.37-29.83-13.37-17.11,13.37-29.91,13.37-17-13.37-29.83-13.37Zm59.74,52.16c-12.79,0-17.11,13.45-29.83,13.45-12.14,0-16.62-12-27.87-13.29a143.84,143.84,0,0,0,43.77,32.6c4-3.09,8.07,3.67,13.85,3.67,6,0,10-6.84,13.86-3.83a143.66,143.66,0,0,0,43.44-32.35c-10.92,1.63-15.49,13.2-27.39,13.2-12.79,0-17-13.37-29.83-13.37Z" fill="#fff" fill-rule="evenodd"/><g id="g919"><path id="path844" d="M311,289.06a130,130,0,0,1,12.64-3.77l19.62,19.76-16.13,3.39Z" fill="none" stroke="#512007" stroke-width="0.5"/><path id="path846" d="M349.16,314.78c.31-4.54,9-30.63,9-30.63m-6,30.93L359,284.35m-4.49,30.83,5.71-30.83M349.47,311a47.22,47.22,0,0,1,5.91-2m-3.77-2.57A17.69,17.69,0,0,0,356,305.3M352.42,303a25,25,0,0,1,4.49-1.19M353,298.68l4.8-.79m-2.65-3c0,.3,3.26.3,3.26.3M356,291.56l3.26.5" fill="none" stroke="#512007" stroke-width="0.6"/><path id="path848" d="M401.8,334.71c-.36-7.78-10.59-52.4-10.59-52.4m7.1,50.88-8.07-50.71m4.46,46.82c-.24-2.87-5.9-46.65-5.9-46.65m12.64,45.64c-1.81-1.36-7-3.38-7-3.38m4.45-4.4c-1.69,0-5.18-2-5.18-2M398,314.6a22.44,22.44,0,0,0-5.3-2m4.57-5.41-5.65-1.35m3.13-5.07c0,.5-3.86.5-3.86.5m2.89-6.25-3.85.84" fill="none" stroke="#512007" stroke-width="0.4"/><path id="path850" d="M431.44,323.25c-.36-5.79-10.59-39-10.59-39m7.1,37.88-8.07-37.75m4.46,34.86c-.24-2.14-5.9-34.74-5.9-34.74m12.64,34a53.51,53.51,0,0,0-7-2.51m4.45-3.28c-1.68,0-5.18-1.51-5.18-1.51m4.22-2.89a28.09,28.09,0,0,0-5.3-1.51m4.58-4-5.66-1m3.13-3.77c0,.38-3.86.38-3.86.38m2.89-4.66-3.85.63" fill="none" stroke="#512007" stroke-width="0.5"/><path id="path852" d="M386.61,327.83,387.7,236s3.13-.38,3.13,0-.36,91.5-.73,91.88S386.25,328.45,386.61,327.83ZM420.92,240l-.72,77.15-2.41,3,.73-80.17Z" fill="#dd8b59" stroke="#512007" stroke-width="0.5" fill-rule="evenodd"/><path id="path854" d="M347.73,312.72s3.61,37.76,43.82,36.63,51.4-38,51.4-38l-17.45-.76c-.36,0-14,17.62-31.54,17.25s-23.12-4.79-27-8.44a57.84,57.84,0,0,1-7.22-9.18l-20.47-8.44,1.21,8.06ZM456.44,309l-1.21-5v-4.28l1.93-4.53s-30.46,4.66-30.46,5l-.12,8.56,29.86.12Z" fill="#dd8b59" stroke="#512007" stroke-width="0.5" fill-rule="evenodd"/><path id="path856" d="M450.66,299.63l-.72,7.56h4.93l-.36-7.56Zm-5.18.38-.36,8.06,3.13-.38.36-7.68Zm-5.29,8.06v-6.3l3.13-1.13.36,6.29Zm-6-.38.72-5.54,3.61.38.24,5.91Zm-6.62,0,.36-4.78,3.61-.38v5.54Zm-81.15,4.66c1.09,0,9.15,1.88,9.15,1.88L364,325.94" fill="none" stroke="#512007" stroke-width="0.5"/><path id="path858" d="M352.3,313.86c.36.37,7.35,24.91,40.93,24.91S434.89,311,434.89,311" fill="none" stroke="#512007" stroke-width="0.5"/><path id="path860" d="M440.19,311.72s-16.14,36.49-47,34-35.63-14.6-38-20.9-3.85-11.32-3.85-11.32" fill="none" stroke="#512007" stroke-width="0.5"/><path id="path862" d="M360,310.21c.36-2.14.36-68.47.36-68.47l-2.05-.25L358,309.07l2.05,1.26Zm-50-21.53,26.48,13.47-.6,1.89s-25.52-12.59-25.52-13,.24-1.89-.36-2.52Z" fill="#dd8b59" stroke="#512007" stroke-width="0.5" fill-rule="evenodd"/><path id="path864" d="M322.21,284.66c0,1,3.85,23.41,3.85,23.41s2.41.37,2.41,0l-4.1-23Zm24.56.63c1.32,0,25.28-4,25.28-4l-.48,4-23.48,2.51Z" fill="#dd8b59" stroke="#512007" stroke-width="0.5" fill-rule="evenodd"/><path id="path866" d="M350.14,255c.84,0,8.42,4,11.67,3s1.09-3.78,1.69-3.78,3.13,1.89,4.57.38,2.41-5.79,1.81-5.41-19.26,7.3-19.62,5.79Z" fill="#fecf3e" stroke="#512007" stroke-width="0.5" fill-rule="evenodd"/><path id="path868" d="M347.13,264.14c1.32.38,28.65-7.67,28.65-7.67s0,2.51-.36,2.51l-28.29,7.68Z" fill="#dd8b59" stroke="#512007" stroke-width="0.5" fill-rule="evenodd"/><path id="path870" d="M410.33,252.82s1.81,4.4,3.61,3.65a14.6,14.6,0,0,0,3.49-2.27s1.45,3.78,3.85,3,3.86-4.78,3.86-4.78,2.41.75,3.49.38,2.41-6.3,2.41-6.3l-20.59,6.3Zm-2.05,35.49c-.36.75,1.81,2.51,3.61,2.51s2.41-2.51,2.77-1.76.36,4,4.82,2.9,4.57-4.41,4.57-4.41-1.32,1.13,1.81,1.51,6.26-4.78,6-4.78c-.48,0-22.87,4.4-23.6,4Z" fill="#fecf3e" stroke="#512007" stroke-width="0.5" fill-rule="evenodd"/><path id="path872" d="M348.21,253.45a6.51,6.51,0,0,0,.24,3.39l22.87-8s1-1.89,0-1.89-23.47,7.3-23.23,6.67Zm30.1-5c.6,0,23.35-7.68,23.35-7.68s.36,3.28,0,3.28l-21.31,6.54-2.16-2.14Z" fill="#dd8b59" stroke="#512007" stroke-width="0.5" fill-rule="evenodd"/><path id="path874" d="M408.28,264.52a11.89,11.89,0,0,0-2.4,9.44c1.08,5.54,2.4,10.32,2.76,10.32s4.22-7.3,8.43-7.68,11.92,4,11.92,4-1.08-8.81-.72-12.84,6.26-11,6.26-11l-26.25,7.55Z" fill="#fecf3e" stroke="#512007" stroke-width="0.5" fill-rule="evenodd"/><path id="path876" d="M376.5,257.85s-.72,3.4-.36,3.4l29.74-8.06V250.8l-29.38,6.92Z" fill="#dd8b59" stroke="#512007" stroke-width="0.5" fill-rule="evenodd"/><path id="path878" d="M338.7,302.15s-7-1-6.62.76,3.49,3.65,3.85,4.78-1.08,5,1.08,4.78,4.1-1.89,4.1-3l-.36-6.29Z" fill="#b6b6b4" stroke="#512007" stroke-width="0.5" fill-rule="evenodd"/><path id="path880" d="M377.58,283.9v2.52l25.17-3.65-.73-1.89Z" fill="#dd8b59" stroke="#512007" stroke-width="0.5" fill-rule="evenodd"/><path id="path882" d="M347.73,288.31c.48,0,0,3.27,2.89,2.51a5.06,5.06,0,0,0,3.49-2.51s.72,4,4.57,3.65,6-4.79,6-4.79.24,3.28,2.65,2.14a6.31,6.31,0,0,0,3.13-3.65l-22,3.28-.6-.63Zm0-21.65s-3.13,1.13-2.05,7.68,3.61,10.32,3.85,10.32,3.13-6.3,7.35-7.3c4.21-1.26,11.56,3.27,11.56,3.27a40.85,40.85,0,0,1,.36-11.33,23.06,23.06,0,0,1,4.57-9.56s-24.56,6.92-25.52,6.92Z" fill="#fecf3e" stroke="#512007" stroke-width="0.5" fill-rule="evenodd"/><path id="path884" d="M406.6,285.66l.36,2.27s25.28-3.27,25.28-3.78c0-.25,0-2.51-.48-2.51s-24.8,4.4-25.28,4Zm-.36-23.4.36,2.51,29.73-8.3s.73-2.27.36-2.27-29.73,9.19-30.45,8.06Z" fill="#dd8b59" stroke="#512007" stroke-width="0.5" fill-rule="evenodd"/><path id="path886" d="M409.37,250.55s-.36,2.27,0,2.27,22-5.54,22-5.92,2.16-2.52.36-2.14-21.67,6.92-22.39,5.79ZM456,293l-21.67-35.74M431.4,282c.36-1,1.44-23,1.44-23" fill="none" stroke="#512007" stroke-width="0.5"/><path id="path888" d="M379,249.54c1.2.26,3.73,4,5.18,3.28a18.11,18.11,0,0,0,3.49-3s-.36,4.4,2.4,3.77a4.63,4.63,0,0,0,3.26-3.77,3.76,3.76,0,0,0,3.85,0c1.68-1,3.37-6.55,2.77-6.55s-20.35,6.55-21.07,6.29Zm-.72,10.58c0,.75-3.61,6.54-2.41,12.08s3,10.57,3.37,10.57,5.66-5.79,10.23-6.92,11.2,3.65,10.84,3.65-1.81-5.54-1.81-9.57,5.3-16.36,5.3-16.36Zm0,26.43a3.78,3.78,0,0,0,3.49,2.76,2.89,2.89,0,0,0,2.77-2.51s-.36,4.4,3.49,4,5.17-4.4,5.17-4.4.37,2.26,3.62,1.13a22.51,22.51,0,0,0,7-4.78c-.36,0-25.28,4.78-25.64,3.78Z" fill="#fecf3e" stroke="#512007" stroke-width="0.5" fill-rule="evenodd"/><g id="use890"><path id="k" d="M381.15,267a1.93,1.93,0,0,1,1.8,2A1.9,1.9,0,0,1,381,271h0a1.92,1.92,0,0,1-1.79-2A1.9,1.9,0,0,1,381.15,267Z" fill="#be0f17" stroke="#512007" stroke-width="0.6" fill-rule="evenodd"/></g><g id="use892"><path d="M393.81,263.69a2,2,0,0,1-.13,3.9h0a1.92,1.92,0,0,1-1.79-2A1.9,1.9,0,0,1,393.81,263.69Z" fill="#be0f17" stroke="#512007" stroke-width="0.6" fill-rule="evenodd"/></g><g id="use894"><path d="M387.48,270.59a1.93,1.93,0,0,1,1.8,2,1.9,1.9,0,0,1-1.93,1.88h0a1.93,1.93,0,0,1-1.79-2A1.9,1.9,0,0,1,387.48,270.59Z" fill="#be0f17" stroke="#512007" stroke-width="0.6" fill-rule="evenodd"/></g><path d="M387.48,260a1.93,1.93,0,0,1,1.8,2,1.9,1.9,0,0,1-1.93,1.88h0a1.93,1.93,0,0,1-1.79-2A1.9,1.9,0,0,1,387.48,260Z" fill="#be0f17" stroke="#512007" stroke-width="0.6" fill-rule="evenodd"/><path id="path897" d="M390.1,237c0-.25,10.84,4.78,10.84,5.16S439.46,296,439.82,296m-19.26-53.86,9.87,4.4,3.13,8.06m-73.91-13.09c-.36,0,10.83,8.81,10.83,8.81l1.45,7.17M321.6,294.85c4.82-2.14,38.77-33.22,38.77-33.22m-47.91,27.31,38.16-33.61m25.52,5L412.26,323m-4.34-36.75s4.22,14.73,8.43,17a105.13,105.13,0,0,1,9.15,5.79" fill="none" stroke="#512007" stroke-width="0.5"/><path id="path899" d="M407.44,286.67s3,17.37,7.22,20.64,8.43,6.92,8.43,6.92" fill="none" stroke="#512007" stroke-width="0.5"/><path id="path901" d="M378.46,285.37s4.1,24.16,12.52,29.7q7.75,5,15.41,10.2" fill="none" stroke="#512007" stroke-width="0.5"/><path id="path903" d="M378.1,285s9,19.13,16.86,24.92A136.61,136.61,0,0,0,413,321.24m-64.28-34.61c2.41,4.4,2,12.84,4.81,15.73a82.58,82.58,0,0,1,7,9.57m-11.2-25.05c1.44,2.14,5.3,13.09,7.7,16.36,1.81,3,19.63,21.65,19.63,21.65" fill="none" stroke="#512007" stroke-width="0.5"/><path id="path905" d="M370.76,325.77a2.65,2.65,0,1,1-5.3,0h0a2.65,2.65,0,1,1,5.3,0Zm12.88,5.91a2.29,2.29,0,1,1-4.57,0v0a2.29,2.29,0,1,1,4.57,0Zm16.49,1.51a2.29,2.29,0,1,1-4.57,0v0a2.29,2.29,0,1,1,4.57,0Zm14.33-5.66a2,2,0,0,1-1.93,2.14,2.06,2.06,0,0,1-1.92-2.14,2.17,2.17,0,0,1,1.92-2.26A2.09,2.09,0,0,1,414.46,327.53ZM426,320.36a2.31,2.31,0,1,1-2.29-2A2.19,2.19,0,0,1,426,320.36Z" stroke="#512007" stroke-width="0.5" fill-rule="evenodd"/><path id="path907" d="M358.12,241.82c-1.09.76-18.54,5.16-16.13,4.79s16.49,3.77,16.13,2.51S358.12,242.58,358.12,241.82Zm29.73-5.41a107.72,107.72,0,0,0-10.47,4c.36,0,11.56,3.27,11.2,2.52s-.37-5.54-.73-6.55Zm30.46,3.65c-.72.38-12.64,3.28-10.47,3.65S418,247,418,246.23s0-5.79.36-6.29Z" fill="red" stroke="#512007" stroke-width="0.5" fill-rule="evenodd"/><path id="path909" d="M405.67,325.64c.36-5.79,10.59-39,10.59-39m-7.1,37.88,8.07-37.76m-4.46,34.87c.24-2.14,5.9-34.74,5.9-34.74m-12.64,34a52.47,52.47,0,0,1,7-2.52m-4.45-3.27c1.69,0,5.18-1.51,5.18-1.51m-4.22-2.89a27.36,27.36,0,0,1,5.3-1.51m-4.57-4,5.65-1m-3.13-3.77c0,.37,3.86.37,3.86.37m-2.89-4.65,3.85.63" fill="none" stroke="#512007" stroke-width="0.5"/><path id="path911" d="M375.93,325.76c.36-6,10.6-40.53,10.6-40.53m-7.11,40.92,8.07-40.66m-5.3,40.79,6.75-40.79m-12.65,35.3a52.13,52.13,0,0,1,7-2.61m-4.46-3.4c1.69,0,5.18-1.57,5.18-1.57m-4.21-3a27.45,27.45,0,0,1,5.29-1.57m-4.57-4.18,5.66-1.05M383,299.48c0,.39,3.85.39,3.85.39M384,295l3.85.66" fill="none" stroke="#512007" stroke-width="0.5"/><path id="path913" d="M371.87,321.78c-.36-5.83-10.59-39.26-10.59-39.26m7.1,38.12-8.07-38m4.46,35.07c-.24-2.15-5.9-34.94-5.9-34.94M371.51,317a52.93,52.93,0,0,0-7-2.53m4.45-3.29c-1.68,0-5.18-1.52-5.18-1.52m4.22-2.91a28.12,28.12,0,0,0-5.3-1.52m4.58-4.05-5.66-1m3.13-3.79c0,.37-3.85.37-3.85.37M363.8,292l-3.85.63" fill="none" stroke="#512007" stroke-width="0.5"/><path id="path915" d="M424.05,310.58l33.23.76.36-2.52-34.31-.38Zm1.45-9.18c3.85,0,32.86-5.79,32.86-5.79s1.09-3.78,0-3.78-32.86,7.05-32.86,7.05Z" fill="#dd8b59" stroke="#512007" stroke-width="0.5" fill-rule="evenodd"/><g id="use917"><path d="M387.48,265.32a2,2,0,0,1-.13,3.91h0a1.92,1.92,0,0,1-1.79-2A1.9,1.9,0,0,1,387.48,265.32Z" fill="#be0f17" stroke="#512007" stroke-width="0.6" fill-rule="evenodd"/></g></g></g><g id="g1800"><path id="path1778" d="M0,0H256V256H0Z" fill="#012169"/><path id="path1780" d="M256,0V32l-95,96,95,93.5V256H222.5L127,162,34,256H0V222l93-93.5L0,37V0H31l96,94L220,0Z" fill="#fff"/><path id="path1782" d="M92,162l5.5,17L21,256H0v-1.5Zm62-6,27,4,75,73.5V256ZM256,0,160,98l-2-22L233,0ZM0,.5,96.5,95,67,91,0,24.5Z" fill="#c8102e"/><path id="path1784" d="M88,0V256h80V0ZM0,88v80H256V88Z" fill="#fff"/><path id="path1786" d="M0,104v48H256V104ZM104,0V256h48V0Z" fill="#c8102e"/></g></svg>