<svg id="flag-icons-gd" xmlns="http://www.w3.org/2000/svg" viewBox="0 0 512 512"><title>gd</title><path d="M0,0H512V512H0Z" fill="#ce1126"/><path d="M71.7,71.7H440.3V440.3H71.7Z" fill="#007a5e"/><path d="M71.7,71.7H440.3L71.7,440.4H440.3Z" fill="#fcd116"/><circle cx="255.9" cy="256.1" r="61.4" fill="#ce1126"/><g id="c"><g id="b"><path id="a" d="M256,199.68l-17.4,53.56L265.38,262" fill="#fcd116"/><path d="M256,199.68l17.4,53.56L246.62,262" fill="#fcd116"/></g><path d="M309.56,238.6H253.24v28.16" fill="#fcd116"/><path d="M309.56,238.6,264,271.7l-16.55-22.78" fill="#fcd116"/><path d="M289.1,301.56,271.7,248l-26.78,8.7" fill="#fcd116"/><path d="M289.1,301.56l-45.56-33.1,16.55-22.78" fill="#fcd116"/><path d="M222.9,301.56l45.56-33.1-16.55-22.78" fill="#fcd116"/><path d="M222.9,301.56,240.3,248l26.78,8.7" fill="#fcd116"/><path d="M202.44,238.6,248,271.7l16.55-22.78" fill="#fcd116"/><path d="M202.44,238.6h56.32v28.16" fill="#fcd116"/></g><g id="d"><path d="M139.6,2.52,129.32,34.17l15.82,5.14" fill="#fcd116"/><path d="M139.6,2.52l10.28,31.65-15.82,5.14" fill="#fcd116"/><path d="M171.25,25.52H138V42.16" fill="#fcd116"/><path d="M171.25,25.52,144.33,45.08l-9.78-13.46" fill="#fcd116"/><path d="M159.16,62.72,148.88,31.07l-15.83,5.14" fill="#fcd116"/><path d="M159.16,62.72,132.24,43.16,142,29.7" fill="#fcd116"/><path d="M120,62.72,147,43.16,137.18,29.7" fill="#fcd116"/><path d="M120,62.72l10.28-31.65,15.83,5.14" fill="#fcd116"/><path d="M108,25.52l26.92,19.56,9.78-13.46" fill="#fcd116"/><path d="M108,25.52h33.28V42.16" fill="#fcd116"/></g><path d="M256,2.62,245.72,34.27l15.82,5.14" fill="#fcd116"/><path d="M256,2.62l10.28,31.65-15.82,5.14" fill="#fcd116"/><path d="M287.65,25.62H254.37V42.26" fill="#fcd116"/><path d="M287.65,25.62,260.73,45.18,251,31.72" fill="#fcd116"/><path d="M275.56,62.82,265.28,31.17l-15.83,5.14" fill="#fcd116"/><path d="M275.56,62.82,248.64,43.26l9.78-13.46" fill="#fcd116"/><path d="M236.44,62.82l26.92-19.56L253.58,29.8" fill="#fcd116"/><path d="M236.44,62.82l10.28-31.65,15.83,5.14" fill="#fcd116"/><path d="M224.35,25.62l26.92,19.56,9.78-13.46" fill="#fcd116"/><path d="M224.35,25.62h33.28V42.26" fill="#fcd116"/><path d="M372.4,2.62,362.12,34.27l15.82,5.14" fill="#fcd116"/><path d="M372.4,2.62l10.28,31.65-15.82,5.14" fill="#fcd116"/><path d="M404.05,25.62H370.77V42.26" fill="#fcd116"/><path d="M404.05,25.62,377.13,45.18l-9.78-13.46" fill="#fcd116"/><path d="M392,62.82,381.68,31.17l-15.83,5.14" fill="#fcd116"/><path d="M392,62.82,365,43.26l9.78-13.46" fill="#fcd116"/><path d="M352.84,62.82l26.92-19.56L370,29.8" fill="#fcd116"/><path d="M352.84,62.82l10.28-31.65L379,36.31" fill="#fcd116"/><path d="M340.75,25.62l26.92,19.56,9.78-13.46" fill="#fcd116"/><path d="M340.75,25.62H374V42.26" fill="#fcd116"/><path d="M99.8,256.8c7.7,14.3,22.6,29.8,35.7,35.3.2-14.5-5-33.2-12-48Z" fill="#ce1126"/><path d="M86.8,207.6c11.1,23.3-29,78.7,37.8,91.7a67.48,67.48,0,0,1-11.5-44.7,75.55,75.55,0,0,1,34.6,32.8c17.5-63.4-44.8-59.5-61-79.8Z" fill="#fcd116"/><path d="M139.6,444.62l-10.28,31.65,15.82,5.14" fill="#fcd116"/><path d="M139.6,444.62l10.28,31.65-15.82,5.14" fill="#fcd116"/><path d="M171.25,467.62H138v16.64" fill="#fcd116"/><path d="M171.25,467.62l-26.92,19.56-9.78-13.46" fill="#fcd116"/><path d="M159.16,504.82l-10.28-31.65-15.83,5.14" fill="#fcd116"/><path d="M159.16,504.82l-26.92-19.56L142,471.8" fill="#fcd116"/><path d="M120,504.82,147,485.26l-9.78-13.46" fill="#fcd116"/><path d="M120,504.82l10.28-31.65,15.83,5.14" fill="#fcd116"/><path d="M108,467.62l26.92,19.56,9.78-13.46" fill="#fcd116"/><path d="M108,467.62h33.28v16.64" fill="#fcd116"/><path d="M256,444.72l-10.28,31.65,15.82,5.14" fill="#fcd116"/><path d="M256,444.72l10.28,31.65-15.82,5.14" fill="#fcd116"/><path d="M287.65,467.72H254.37v16.64" fill="#fcd116"/><path d="M287.65,467.72l-26.92,19.56L251,473.82" fill="#fcd116"/><path d="M275.56,504.92l-10.28-31.65-15.83,5.14" fill="#fcd116"/><path d="M275.56,504.92l-26.92-19.56,9.78-13.46" fill="#fcd116"/><path d="M236.44,504.92l26.92-19.56-9.78-13.46" fill="#fcd116"/><path d="M236.44,504.92l10.28-31.65,15.83,5.14" fill="#fcd116"/><path d="M224.35,467.72l26.92,19.56,9.78-13.46" fill="#fcd116"/><path d="M224.35,467.72h33.28v16.64" fill="#fcd116"/><path d="M372.4,444.82l-10.28,31.65,15.82,5.14" fill="#fcd116"/><path d="M372.4,444.82l10.28,31.65-15.82,5.14" fill="#fcd116"/><path d="M404.05,467.82H370.77v16.64" fill="#fcd116"/><path d="M404.05,467.82l-26.92,19.56-9.78-13.46" fill="#fcd116"/><path d="M392,505l-10.28-31.65-15.83,5.14" fill="#fcd116"/><path d="M392,505,365,485.46,374.82,472" fill="#fcd116"/><path d="M352.84,505l26.92-19.56L370,472" fill="#fcd116"/><path d="M352.84,505l10.28-31.65L379,478.51" fill="#fcd116"/><path d="M340.75,467.82l26.92,19.56,9.78-13.46" fill="#fcd116"/><path d="M340.75,467.82H374v16.64" fill="#fcd116"/></svg>