<svg id="flag-icons-gs" xmlns="http://www.w3.org/2000/svg" xmlns:xlink="http://www.w3.org/1999/xlink" viewBox="0 0 512 512"><defs><linearGradient id="Dégradé_sans_nom" x1="79.22" y1="123.77" x2="80.82" y2="168.87" gradientTransform="matrix(1.03, 0, 0, -0.45, 302.12, 231.96)" gradientUnits="userSpaceOnUse"><stop offset="0" stop-color="#474747"/><stop offset="1" stop-color="#f50"/></linearGradient><linearGradient id="Dégradé_sans_nom_2" x1="102.91" y1="82.21" x2="103.01" y2="61.41" gradientTransform="matrix(0.84, 0, 0, -0.55, 292.78, 297.81)" gradientUnits="userSpaceOnUse"><stop offset="0" stop-color="#b50000"/><stop offset="1" stop-color="#ffc500"/></linearGradient><linearGradient id="Dégradé_sans_nom_3" x1="487.72" y1="371.74" x2="536.22" y2="373.74" gradientTransform="matrix(0.38, 0, 0, -1.2, 270.24, 727.25)" gradientUnits="userSpaceOnUse"><stop offset="0" stop-color="#d5dfff"/><stop offset="1" stop-color="#fff"/></linearGradient><linearGradient id="Dégradé_sans_nom_4" x1="263.49" y1="396.29" x2="276.69" y2="396.29" gradientTransform="matrix(0.51, 0, 0, -0.91, 276.33, 534.25)" xlink:href="#Dégradé_sans_nom"/><linearGradient id="Dégradé_sans_nom_5" x1="85.02" y1="-928.84" x2="45.62" y2="-892.14" gradientTransform="matrix(1.75, 0, 0, -0.26, 337.4, 112.36)" xlink:href="#Dégradé_sans_nom_3"/><linearGradient id="Dégradé_sans_nom_6" x1="257.55" y1="204.73" x2="247.85" y2="224.33" gradientTransform="matrix(0.61, 0, 0, -0.76, 281.21, 436.83)" xlink:href="#Dégradé_sans_nom_3"/></defs><title>gs</title><path id="path11073" d="M0,0H512V512H0Z" fill="#006"/><path id="path4164" d="M373.4,348.6s-2.3,6-3.6,6-6-2.5-6-2.5-3.5,5.5-5.3,5.8-6.6-.8-6.6-.8-4.5,0-4.7-.6a4.75,4.75,0,0,1,.2-2s-6.6,5.2-8,4.9-6.4-6.5-6.4-6.5l-.8,3.2-9.3-.3-8.2-5.2s-4.6,7.5-4.8,7.3-8,1.8-8,1.8l-.5-1.4-5.2-3.1s4-5.8,4-6l-1.9-.7-3,2.4-6,4-6-2.8,2.6-5,.3-3.6,4.8-7.1L349,280l28.6,52.8Z" fill="#6a4c2d" stroke="#000" stroke-width="0.9"/><path id="path4166" d="M414.6,352l15-.5-6.3-3.2,57.5-2.2-8.1-3-7.2-9.8L435.7,331a7.51,7.51,0,0,0-6-.8c0-2.3-2.9-5.4-2.9-5.4l-18.3-1.3L397,331.3l7.7,19.8Z" fill="#fff" stroke="#000" stroke-width="0.9"/><path id="path4168" d="M355.8,182.9l1.5-5.2s2.7-4.5,2.7-6.5,2-4.3,2-4.3,6-1.7,7.4,2c6.5-9.9,14.2-.5,14.2-.5l2.1-2.5,4.3-5.3s6.2,5.8,6.3,6.8,1,.3,1,.3l6.7-.6a8,8,0,0,0,2.6,7.3c2.3,1.4,4.4,9.6,4.4,9.6Z" stroke="#000" stroke-width="0.9" fill="url(#Dégradé_sans_nom)"/><path id="path4170" d="M414.6,244.4c1.2-.7,4.8-1.8,4.3-7.2s-5-5.9-7.6-5.7a9.19,9.19,0,0,0-4.9,2.4l-8.5-5.4s4.3-27,8.8-28.6c4.3-3.1,5-4.4,5-5.1s-1.5-2.5-1.5-2.5L382.4,189l-26.3,3s-2,3.2-1.7,4.4.3,2.6,5,6.2c5.2,4,8.8,27,8.8,27s-7.4,3.6-7.8,3.2a7.19,7.19,0,0,0-3.8-.7c-1.2.2-5,2.1-5,7.2a10.94,10.94,0,0,0,3.8,8s25.1-3,28.9,4c3.6-8.4,27.5-5.5,30.3-6.9Z" fill="#656263" stroke="#000" stroke-width="0.9"/><path id="path4172" d="M441.6,216.5s.3-3,2.4-4.3,16-2.1,19.3,0,4.6,12.3,4.6,12.3,2,3.7,2.2,6.3l.4,4.4s11.2,14.5,11.3,27.6c1.2,8.8,1,32.6-2.5,41.6a38,38,0,0,1-4.9,18.6,8.69,8.69,0,0,1,1,4,10.14,10.14,0,0,1-1.2,4.1l16.2,8-6-2.2,6,5-6.8-3.2,4,4-9.8-4.4,4.3,4.2-7.4-3.5,4.3,4.5c-.1-.3-6.4-2.8-6.4-2.8l.3,2.4s-5-.3-5-4a20.17,20.17,0,0,1-4.2-3.4l-11.5-2-13-39,3-66,.8-3.3Z" stroke="#000" stroke-linejoin="round" stroke-width="0.9"/><path id="path4174" d="M433,427.4s-6.8-14-10.1-14.3c-3-5.7,10.5-52.6,36.5-55.3,14.3,1.2,1.2,16.5-8.2,11.8,1.1,4.1,5.8,10,5.8,10s-18.6,8-24,47.8Z" fill="#fb0" stroke="#000" stroke-width="0.9"/><path id="path4176" d="M343.2,429.4s5.6-16,9-16.2-9-53.4-35.7-53.8c-14.4,1.2-1.2,16.6,8.3,11.9-1.1,4.2-5.9,10-5.9,10s18.8,8.2,24.3,48.1Z" fill="#fb0" stroke="#000" stroke-width="0.9"/><path id="path4178" d="M367.7,329.4c0-.1-6.6,2-2.4,9.2.4-2.8,3.3-4.5,3.3-4.5s-4.5,5.4.3,9.9c.6-4.3,3.3-5.6,3.3-5.6s-3.4,9.8,0,11.8a7.78,7.78,0,0,1,3-5.6s-3.1,8.8-.4,10.8a6.33,6.33,0,0,1,2.6-4.8s-1.4,9,2.1,9.7c.1-3.2,2.7-6.3,2.7-6.3s-1.2,7.4,4.4,7.8a24,24,0,0,1,1-6.1s2.6,8,6.2,6.6v-6.7s2.3,7.6,6.7,6.2a9,9,0,0,1,.3-4.7s2.3,4.7,6.5,3.2c.7-1.4-.2-4.2-.2-4.2s6,6.3,8,2.5c1.8-3.8-5-5-5-5h4.6s-1.4-4-7.6-4.8a6.12,6.12,0,0,1,4.3-.2s-1.3-4.9-7.6-5.4a10.91,10.91,0,0,1,5.1-.2s-.8-4.6-7.7-5.9c1-1.2,4-.8,4-.8s-2.8-4.3-6-4c-3,.2-31.6-3-31.5-3Z" fill="#00713d" stroke="#000" stroke-width="0.9"/><path id="path4180" d="M395.8,352.6s2.5,1.2,2.5,2.3" fill="none" stroke="#3ec26d" stroke-linecap="round" stroke-width="0.86"/><path id="path4182" d="M397.3,350.6s3.2,2.3,3.2,4" fill="none" stroke="#3ec26d" stroke-linecap="round" stroke-width="0.86"/><path id="path4184" d="M400.1,349.5s2.6,1.6,2.7,4" fill="none" stroke="#3ec26d" stroke-linecap="round" stroke-width="0.86"/><path id="path4186" d="M404.4,350.5s1.3,2.8.9,3.3" fill="none" stroke="#3ec26d" stroke-linecap="round" stroke-width="0.86"/><path id="path4188" d="M407,352c.2,2.2-.2,2.3-.2,2.3" fill="none" stroke="#3ec26d" stroke-linecap="round" stroke-width="0.86"/><path id="path4192" d="M375.3,338.1s3,2,2.8,4.7" fill="none" stroke="#3ec26d" stroke-linecap="round" stroke-width="0.86"/><path id="path4194" d="M375.1,340.5s1.4,1.3,1.1,2.2" fill="none" stroke="#3ec26d" stroke-linecap="round" stroke-width="0.86"/><path id="path4196" d="M378.8,338.2s2,2.8,1.4,4.7" fill="none" stroke="#3ec26d" stroke-linecap="round" stroke-width="0.86"/><path id="path4198" d="M382.2,340s1,1.7.1,2.7" fill="none" stroke="#3ec26d" stroke-linecap="round" stroke-width="0.86"/><path id="path4200" d="M383.9,340.8s1,1.8,0,2.4" fill="none" stroke="#3ec26d" stroke-linecap="round" stroke-width="0.86"/><path id="path4202" d="M382.6,346.6s2.9.6,3.3,2.7" fill="none" stroke="#3ec26d" stroke-linecap="round" stroke-width="0.86"/><path id="path4204" d="M384.3,344.6a3.63,3.63,0,0,1,3.3,3.4" fill="none" stroke="#3ec26d" stroke-linecap="round" stroke-width="0.86"/><path id="path4206" d="M388.2,343.5c.1,0,2,3.5,1.7,4.5" fill="none" stroke="#3ec26d" stroke-linecap="round" stroke-width="0.86"/><path id="path4208" d="M392,343.9s.8,3.2.2,4.3" fill="none" stroke="#3ec26d" stroke-linecap="round" stroke-width="0.86"/><path id="path4210" d="M394.5,345.1v3.8" fill="none" stroke="#3ec26d" stroke-linecap="round" stroke-width="0.86"/><path id="path4212" d="M390.7,340a2.73,2.73,0,0,1,1.8,2.5" fill="none" stroke="#3ec26d" stroke-linecap="round" stroke-width="0.86"/><path id="path4214" d="M392.5,338.3a4.37,4.37,0,0,1,2.1,4" fill="none" stroke="#3ec26d" stroke-linecap="round" stroke-width="0.86"/><path id="path4216" d="M395.2,337.2s2.1,2.5,1.3,5.2" fill="none" stroke="#3ec26d" stroke-linecap="round" stroke-width="0.86"/><path id="path4218" d="M398.8,337.8a14.2,14.2,0,0,0-.4,4.3" fill="none" stroke="#3ec26d" stroke-linecap="round" stroke-width="0.86"/><path id="path4220" d="M401,339.9a1.89,1.89,0,0,0-.6,2.3" fill="none" stroke="#3ec26d" stroke-linecap="round" stroke-width="0.86"/><path id="path4222" d="M389.3,351.6s.5,2.4,0,2.7" fill="none" stroke="#3ec26d" stroke-linecap="round" stroke-width="0.86"/><path id="path4224" d="M386.4,350.3s1.4,2.6,1,3.9" fill="none" stroke="#3ec26d" stroke-linecap="round" stroke-width="0.86"/><path id="path4226" d="M383.2,350.2s1.7,1.9,1.6,3.4" fill="none" stroke="#3ec26d" stroke-linecap="round" stroke-width="0.86"/><path id="path4228" d="M380.6,350.6s1.6,1.4,1.5,2.3" fill="none" stroke="#3ec26d" stroke-linecap="round" stroke-width="0.86"/><path id="path4230" d="M379.3,352.8s1.5,1.5,1.4,1.9" fill="none" stroke="#3ec26d" stroke-linecap="round" stroke-width="0.86"/><path id="path4234" d="M347.3,247.2l21.3-.4s14,0,15.5,4.6c2.7-6.1,14.9-5.7,14.9-5.7l22-.8.4,53.2a56.92,56.92,0,0,1-35.7,41.4c-19.7-6.3-32-22.9-36.1-41.8l-2.3-50.5Z" fill="#fff" stroke="#000" stroke-width="0.9"/><path id="path4236" d="M354.9,247l31,82.6,28-84.4c-8.7.6-27.4-1.4-29.7,6.6-3.6-7.1-23.2-4.3-29.3-4.8Z" fill="#006b00" stroke="#000" stroke-width="0.9"/><path id="path4238" d="M376,291.7c1.2.6,1.1-22.4,2.7-23.1l1.2-4.8c-1.3-2.4-7.4-2.2-9.6-.2.45,1.45.95,2.89,1.5,4.3,3,4.9,2.4,24.3,4.2,23.8Z" fill="#ffc900" stroke="#006b00" stroke-linecap="round" stroke-width="0.5"/><path id="path4240" d="M367.7,113.7s2.2-2.5,2.3-3.1,10-1,15.8-12c3.3-5.7,0-2.4,0-2.4l-.2-2.7s4-4,2.6-6-1,2.7-3.4,2.6-1.1-5.2-1.1-5.2a1.65,1.65,0,0,0-.9-.9c-1,.1-.7,1.9-1.6,2-.9.3-1.7-4-1.7-4s-1.5-2-2.8,4.2c.7,6.7,5,5.4,5,9.7s-3.8,7.8-4.9,8c-1,0-.7-3.8-.7-3.8s-.6-1.8-1-1.8,2.2-.4,1.8-5.3c-.9-6-1.6,1.4-3.2,1-1.6-.2-.4-5.4.2-6s-.7-3.1-4.1,3.3c-.3,3-.7-.8-1.4-.6-1.2,2.5-1,4.2.7,6.5,2.5,2.3,4,4.6,4,5.8-.2,1.2-1.5,3.9-3.2,3.9s0-3.3,0-4.4-3.1-5-3.1-5a39.72,39.72,0,0,1-2-3.5c.3-.1-.1-.6-1.1,2.8s-2.2-2.2-2.2-2.2-1.4,4.2,1.6,6.8c-2.3-.3-2.5.6-2.5.6,0,1.2,3,1.7,3.5,3.8s-3.2,3.3-3.2,3.3,1.5,2,5.7-2a6.53,6.53,0,0,1-1.6,4.4c1.4.6,2.5.5,2.7,2.2Z" fill="#cdad56" stroke="#000" stroke-linejoin="round" stroke-width="0.9"/><path id="path4242" d="M354,113.7l-2-3.3c0-.6-9,.6-13.4-10.4-2.8-5.3,0-2.2,0-2.2l.2-2.5s-3-3.7-1.7-5.6.7,2.5,2.4,2.5c2,0,.9-4.7.9-4.7a1.37,1.37,0,0,1,.8-.8c.8,0,1.2,2.8,2,3s2.2-3.2,2.7-4c.7,0,.7-2.7,1.8,3-.6,6-5.6,4.9-5.6,8.8s3.2,7.1,4.1,7.2.6-3.4.6-3.4.5-1.6.9-1.6-3,.6-2.6-3.9c.7-4.2,2.4.3,3.8,0s-.2-4.5.2-5.1c0-.6,2-3.4,2.8,2.7.3,2.8,1.8-2.4,2.4-2.3,1,2.3-.4,5.3-1.9,7.4-2,2.1-3,4.4-3,5.5s.6,2.4,2.2,2.4.5-1.9.6-2.9,2.6-4.2,2.6-4.2c.5-.8,0-2.3.6-3,.8,0,1.1-1.1,2,2s1.9-2,1.9-2,1.1,3.9-1.4,6.2c2-.3,2.1.6,2.1.6,0,1-1,1.5-1.3,3.4a3.21,3.21,0,0,0,1,3s-1.2,1.9-4.8-1.8a6.91,6.91,0,0,0,1.4,4c-1.2.5-2.1.5-2.3,2Z" fill="#cdad56" stroke="#000" stroke-linejoin="round" stroke-width="0.8"/><path id="path4244" d="M408.7,259.3c-1.9-1.7-2-.2-3-.6-.4-.1-.8-.6-1.2-1a3.37,3.37,0,0,0-1.2-.6l-.5,1.5c-.1.5.5,1.3.5,2a2.51,2.51,0,0,1-2,2.4c.4-.7.6-.8.5-1.7,0-.5-1.4-1.4-1.2-1.8.2-.8.6-1.6.3-2.3-.5.4-1.3.2-1.9.4-.4.2-.5,1.1-1.1,1.5a4.81,4.81,0,0,1-3.5-.6c.8-.6,1.4-.2,2.2-.8.4-.3.3-1.5.7-1.8l1.7-.9c-.3-.4-.3-1-.6-1.4s-2-.3-2.3-.7c-.7-.8-.5-1.8-1.2-2.6,1.8.6,1.5,1.5,2,1.4a2.58,2.58,0,0,1,2-.3c.5.2,1.4,1.3,1.8,1.5l.6-1.6c.2-.5-.7-1.4-.6-1.9.4-1,1.2-1.9,1.5-2.9l.4,2.8c.1.4,1,.7,1.1,1.2s-.5,1.6-.4,2h1.8c.5-.2.8-1.4,1.3-1.5a9.39,9.39,0,0,1,2.9,0c-.8.8-1.4.7-1.9,1.4-.4.3.2,1.3-1,2-.4.2-1.5-.1-1.9.2l1,1.2c.4.4,2,.5,2.3,1a3.13,3.13,0,0,1,.9,2.5Z" fill="#ffc900"/><path id="path4246" d="M361,260.1c1.9-1.6,2.1-.2,3-.6.5-.1.8-.6,1.2-1a3.37,3.37,0,0,1,1.2-.6l.5,1.5c.2.5-.5,1.3-.5,2a2.74,2.74,0,0,0,2,2.5c-.4-.8-.6-.9-.5-1.8,0-.5,1.4-1.4,1.3-1.8a3.18,3.18,0,0,1-.4-2.3c.6.4,1.3.2,1.9.4s.5,1.1,1.2,1.5a4.51,4.51,0,0,0,3.4-.6c-.7-.6-1.4-.2-2.1-.7-.4-.3-.4-1.6-.8-1.9l-1.7-.9c.4-.4.3-1,.7-1.4s1.9-.3,2.2-.7c.7-.8.6-1.8,1.3-2.6-1.8.6-1.6,1.5-2,1.4a3.07,3.07,0,0,0-2.2-.3c-.4.2-1.3,1.3-1.7,1.5l-.6-1.6c-.2-.5.8-1.4.6-1.9-.3-1-1.2-1.8-1.5-2.8l-.4,2.7c0,.5-1,.7-1,1.2s.4,1.6.4,2h-1.8c-.5-.2-.9-1.4-1.4-1.5a8.77,8.77,0,0,0-2.8,0c.7.8,1.3.8,1.8,1.4.4.3-.1,1.3,1,2,.4.2,1.5-.1,1.9.2l-1,1.2c-.4.4-2,.6-2.3,1a3.13,3.13,0,0,0-.9,2.5Z" fill="#ffc900"/><path id="path4248" d="M407,264.6c-1.7,1.4-12.5,4.1-12.6,13.5s1.9,11.6-.1,11.8c-4,0-4.5-10.5-4.4-15.1s.2-4,.2-4,2.7.8,2.5,3,2.7-5.6,1.7-7.7a4.15,4.15,0,0,0,4.1,1c0-.2-1.3-1.6-1.9-2.7s2,.6,2,.6.1-1.8-2.1-1.7c-3,0,.5-1,.5-1s1.6,1.6,2.8,0a8.42,8.42,0,0,0-3-2s-1.6-3-3.8-3.6c-2.4-.6-2,1-4.9.8-.5,1-.5,1.2.6,1.5-2,1.3-1,4-1,4s3.1-1.3,3,.8-1.8,1.8-3,.5c-1-.6-1.3.6-1.3.6l1.6,1.6s-3,0-3.8,2a5,5,0,0,1,2.6.3s-3.5,1.6-3.8,2.4-.5-1-.6-1l-3.3-1.1-1.2,5.1s2.3,2.2,3.5,1.5,3.5-2.8,4.8-2.2c-3.9,3-7.8,7.2-10,7.8-.5-.4-2.4-2.4-3.2-1.4s-.2,2.1.8,2-3.2,1-2.3,2.8.7,1.6,1.5,1.2-.7-.6,2.3-1.5,2.8-1.6,2.8-1.6a3.13,3.13,0,0,1-2.2,1.6c-1.5.4-2.8.4-2.4.9s1,1.3.7,1.8,3.3-2.5,4.2-.2c2.3,0,3.9-3,2.8-4.6,0,1.8,1.2,2.4.5,3.2s5.3-2.7,2.4-4.9a10.58,10.58,0,0,1,.9,3.2s1.3,0,1.7-.6c.3-.4-.7,1.4-.3,1.7s2.6,2.4,1.7,3.8c-.5-.8-.7-2.1-1.3-2s-3.5,2.1-5.2,2.3c-1.6,0,2,6.2,2,6.2a12.33,12.33,0,0,0-2.9-.2c-.3.3-2-2.1-2.3-.7-.6,1.8.5,1.1.5,1.1s-1.4-.7-2.2.1-1.6,1.7-1,2a8.15,8.15,0,0,0,3.4.3c.3-.1-2.8.2-3,.6s-.7,1.7,0,2.1,2.3-.2,2.4-.6.2,1.3.2,1.3a2.62,2.62,0,0,0,3-2.7c0-3,.2,2.1.2,2.1a2.47,2.47,0,0,0,3-2.5c0-3,.3,2,.3,2s2-.5,2-1-.2,6-1.5,7.8c-2.2-1.5-3.5.9-3.5.9a33.37,33.37,0,0,1-.1,4.3c-.2.8,1.4-.5,1.5-.8s2.2-1.4,2.3-1.6l.6-1.4s-.4,1.6-1.2,1.9A1.48,1.48,0,0,0,384,312c.3.7,1.6,1.2,2,1.9s2-4.2,2-4.2l.1,1s2-.4,2.3-1.3-2.2-1.8-.3-3.4,0,1.4,0,1.4.7,2.3,1.2,2.3,1.5-4.3.4-5.4l1.7,1.4s1.6-4.5-.1-5l-2.5-.9s1-1.2.5-1.3,2.3,2.6,2.8,2c.4-.8,1-3-2.2-4.1s0-4.6,0-4.6,2,2.4,3.4,1.1-.1-1.3-.1-1.3,4.1-2.6,4.2-4l-2.1.2s2.3-1.6,1.8-4A3,3,0,0,1,397,285s2-2,1.6-3.9c-1.2,1-1,1.7-1.9,1.4-.7-.2-2-7.7,1-8.2,3.2-.5,1.5,3.7,1.6,3.7s4.7-2,0-5c1.1-.4,3.5,1.8,3.5,1.8s-1-5.3-6-2c1.2-1.4,2-2.2,3-2s4.5,0,4.5-1.1c-.8-.8-2.7.3-3.8,0s7.2-1,6.5-5Z" fill="#ffc900" stroke="#006b00" stroke-linecap="round" stroke-linejoin="round" stroke-width="0.5"/><path id="path4250" d="M371.6,267.7s4.5-2.5,6.7.6" fill="none" stroke="#006b00" stroke-linecap="round" stroke-width="0.5"/><path id="path4252" d="M380,273.1s-1.5,1.6-1.8,1.6" fill="none" stroke="#006b00" stroke-linecap="round" stroke-width="0.5"/><path id="path4254" d="M383.1,278.1a7.6,7.6,0,0,0,6.8-4" fill="none" stroke="#006b00" stroke-linecap="round" stroke-width="0.5"/><path id="path4256" d="M387.6,276.8s.3,2.4,1,2.4-1.1.6-1.8.1c.8,1,1.2,3,0,3.7" fill="none" stroke="#006b00" stroke-linecap="round" stroke-width="0.5"/><path id="path4258" d="M385.4,306.8a5.22,5.22,0,0,1-3.2,1.8" fill="#e80000" stroke="#006b00" stroke-linecap="round" stroke-width="0.5"/><path id="path4260" d="M387.1,299.2s-.9-4.8-.3-6c.3-1.5,1.8-2,2.9-4.1" fill="none" stroke="#006b00" stroke-linecap="round" stroke-width="0.5"/><path id="path4262" d="M386.7,295.8s-1.1,2.8-6,1.9" fill="none" stroke="#006b00" stroke-linecap="round" stroke-width="0.5"/><path id="path4264" d="M388,288.6s.3,3.8-4.1,2.4" fill="none" stroke="#006b00" stroke-linecap="round" stroke-width="0.5"/><path id="path4266" d="M382.5,271.4a4,4,0,0,0-1,4" fill="none" stroke="#006b00" stroke-linecap="round" stroke-width="0.5"/><path id="path4268" d="M389.2,267.3a13.15,13.15,0,0,0,2.8-1.5,7,7,0,0,0,1.5-2.1c.2-.7-1.6-1.8-.7-3.4.6-.7,1.4-.8,2.7,0s-1.2-2.6-2.6-2.7-2.2,1-2.5.7,0,1-.5,1,1.1,1,1,1.5,1.8,2.6,1.7,3.1A13.72,13.72,0,0,1,389.2,267.3Z" fill="#006b00"/><path id="path4270" d="M391,259.4c1-.3,1.1,0,1,1A2.41,2.41,0,0,1,391,259.4Z" fill="#ffc900" stroke="#ffc900" stroke-linecap="round" stroke-linejoin="round" stroke-width="0.5"/><path id="path4272" d="M383.8,312.5s-.4,2.5.5,2.7a3.54,3.54,0,0,1,.4-1.9l-1-.8Z" fill="#e80000" stroke="#006b00" stroke-linejoin="round" stroke-width="0.5"/><path id="path4274" d="M381.7,309.4c-.8,0-2.3.7-1.9,1.6.7-.7,1.4,0,1.8-.6A1.15,1.15,0,0,0,381.7,309.4Z" fill="#e80000" stroke="#006b00" stroke-linejoin="round" stroke-width="0.5"/><path id="path4276" d="M381.7,307.7s-1.3-.3-1.5.7c.9-.1,1.2-.2,1.5,0Z" fill="#e80000" stroke="#006b00" stroke-linejoin="round" stroke-width="0.5"/><path id="path4278" d="M376,293.6a1.73,1.73,0,0,1,1,1.2C377.7,294.4,378,292.5,376,293.6Z" fill="#e80000" stroke="#006b00" stroke-linejoin="round" stroke-width="0.5"/><path id="path4280" d="M374,295.7c.1,0,1.7-1,2,0-.4.3-.6.6-.9.6s-.6-.6-1-.6Z" fill="#e80000" stroke="#006b00" stroke-linejoin="round" stroke-width="0.5"/><path id="path4282" d="M373.9,299.2s1-1,1.5-.4c.3.7-.4.6-.4.6Z" fill="#e80000" stroke="#006b00" stroke-linejoin="round" stroke-width="0.5"/><path id="path4284" d="M372.5,280s-1.4-.6-2,.4a2.28,2.28,0,0,1,1.7.8c-.2-.4-.3-1,.3-1.2Z" fill="#e80000" stroke="#006b00" stroke-linejoin="round" stroke-width="0.5"/><path id="path4286" d="M370,287.2a3.93,3.93,0,0,1,.7-2.3,3.13,3.13,0,0,1,.8,1.1c-.5.2-1.3.2-1.6,1.2Z" fill="#e80000" stroke="#006b00" stroke-linejoin="round" stroke-width="0.5"/><path id="path4288" d="M373.4,286s-1.4.7-1,1.5c.5-.5,1-.3,1-.4V286Z" fill="#e80000" stroke="#006b00" stroke-linejoin="round" stroke-width="0.5"/><path id="path4290" d="M371.3,270.5c-.5.6.7,2,1.9,1.7C373.5,270.8,371.6,270,371.3,270.5Z" fill="#ffc900" stroke="#006b00" stroke-linejoin="round" stroke-width="0.5"/><path id="path4292" d="M371.3,267.7c-.2.7.8,1.6,1.4,1.4C372.9,268.4,371.6,267.1,371.3,267.7Z" fill="none"/><path id="path4294" d="M372.7,269.4s.2,1.1,1.2.8a2.46,2.46,0,0,0-.9-1.5c0,.2.2.6-.3.7Z" fill="#e80000" stroke="#006b00" stroke-linejoin="round" stroke-width="0.5"/><path id="path4296" d="M373.4,272.7s.5.7,1.7-.7c-.5.2-1.5-.3-1.5-.3S373.6,272.7,373.4,272.7Z" fill="#e80000" stroke="#006b00" stroke-linejoin="round" stroke-width="0.5"/><path id="path4298" d="M371.3,267.9c-.5.6.2,1.4,1.4,1.2C373,267.7,371.6,267.4,371.3,267.9Z" fill="#ffc900" stroke="#006b00" stroke-linejoin="round" stroke-width="0.5"/><path id="path4300" d="M371.8,262.1s4.8-1.3,7.3.7,2.6.2,2.6.2,3.7,1.4,4.8,1.1-.8.1.7-.8-3,.2-3.4-1.7c-.6-1.1.1-2.6-1.4-2.1-1.1-1.4.7-2.4.3-3.8-1.1.7-1.7-.3-2.6,1.6-2-.4-.3-3.2-2.5-3.5,0,2-1.7,2.2-1.8,3.3C374.8,257.8,370.5,260.4,371.8,262.1Z" fill="url(#Dégradé_sans_nom_2)"/><path id="path4302" d="M316.4,418.8c3-.8,20,3.7,26.5,10.7a108,108,0,0,0-4.8-22s-10.1-2.9-11.5-1.5C324.6,408.1,318.5,414.5,316.4,418.8Z" fill="#c01500" stroke="#000" stroke-width="0.9"/><path id="path4304" d="M311.2,361.2c-1.2.2-2.4,1-3.6,3-1.4,3.3-2.3,11.8-4.3,13.8s-3.8,2.2-3.8,4,.2,6,5.6,7.5c5.3.2,13.8-8.5,13.8-8.5s4.4-4.8,6.1-9.9c-10.2,3.6-17.6-6-13.8-9.9Z" fill="#c01500" stroke="#000" stroke-width="0.9"/><path id="path4306" d="M460,416.8a46.86,46.86,0,0,0-26.8,10.6,108.09,108.09,0,0,1,4.8-21.8c1.2-.4,10-2.9,11.3-1.5,2,2.1,8.5,8.5,10.6,12.7Z" fill="#c01500" stroke="#000" stroke-width="0.9"/><path id="path4308" d="M464.7,359.6c1.2.2,1.6,1.7,2.6,3.7,1.3,3.3,2.7,8.2,4.7,10.2s3.7,4.8,3.7,6.6-.4,4.2-5.7,5.7c-5.3.2-13-6.6-13-6.6s-4.3-4.7-6-9.8c10.2,3.5,16.8-5.6,13.7-9.8Z" fill="#c01500" stroke="#000" stroke-width="0.9"/><path id="path4310" d="M305.3,407.9s10.6,7.3,10.8,10.7c28.7-42.6,101.9-55.8,143.6-3a30.68,30.68,0,0,1,11.3-9.7C427,348.6,339.7,355.7,305.3,407.9Z" fill="#fb0" stroke="#000" stroke-width="0.9"/><path id="path4312" d="M414,245.2h4.2l-7.4,9.4,9,10.4-17.7,22.2,16.6,20a52.39,52.39,0,0,1-6.8,12.3l-9.5-10.6,17.3-21.6-14.2-16.1Z" fill="#1e5aa6" stroke="#000" stroke-width="0.68"/><path id="path4314" d="M354.3,247.1l-4.4.1,8.3,9-8.8,11.1,18.4,20-15.3,20.4a60.25,60.25,0,0,0,7.3,13.1l9-11.4-18.5-20.7,13.6-17.3Z" fill="#1e5aa6" stroke="#000" stroke-width="0.68"/><path id="path4316" d="M375,300.8l-6.5,8.8,23.4,27.2a58.85,58.85,0,0,0,11-7.4l-12.2-14.1,5-14.7,7.1,8.3-22.4,28.6a48.9,48.9,0,0,1-11.6-7.2l11.8-15Z" fill="#1e5aa6" stroke="#000" stroke-width="0.68"/><path id="path4318" d="M367.8,287.2l4.2,5.4-2.7-7.3Z" fill="#1e5aa6" stroke="#000" stroke-width="0.68"/><path id="path4320" d="M398.4,292l3.5-4.6-1.3-1.8Z" fill="#1e5aa6" stroke="#000" stroke-width="0.9"/><path id="path4324" d="M447.9,217.2s4.1-3.5,7-3.6" fill="none" stroke="#fff700" stroke-linecap="round" stroke-width="0.68"/><path id="path4326" d="M448.5,216.7s24.7-3.5,25.4-4.3" fill="none" stroke="#fff700" stroke-linecap="round" stroke-width="0.68"/><path id="path4328" d="M448.6,217c0-.2,27.5-2.4,27.5-2.4" fill="none" stroke="#fff700" stroke-linecap="round" stroke-width="0.68"/><path id="path4330" d="M448.5,217s29.2-1.4,31,.1" fill="none" stroke="#fff700" stroke-linecap="round" stroke-width="0.68"/><path id="path4332" d="M448.4,217s28.6.1,29,.8" fill="none" stroke="#fff700" stroke-linecap="round" stroke-width="0.68"/><path id="path4334" d="M448.5,217l27.5,2.2" fill="none" stroke="#fff700" stroke-linecap="round" stroke-width="0.68"/><path id="path4336" d="M448.2,217.1c.1,0,28,2.5,30.7,6" fill="none" stroke="#fff700" stroke-linecap="round" stroke-width="0.68"/><path id="path4338" d="M480.4,228.1s-9.5-11.3-32.3-11" fill="none" stroke="#fff700" stroke-linecap="round" stroke-width="0.68"/><path id="path4340" d="M448.2,217.2s15.8,1.1,20.8,6.6" fill="none" stroke="#fff700" stroke-linecap="round" stroke-width="0.68"/><path id="path4342" d="M448.5,217s10.2-2,21,11" fill="none" stroke="#fff700" stroke-linecap="round" stroke-width="0.68"/><path id="path4346" d="M442,228.7s14.2.6,14.2,2-10.5,4-10.7,9.8,8,6.3,8.6,13.6-6.3,8.5-7.7,10.5c-1.4,1-4.8,11.3-4.3,17.5.4,6,2.2,26.8,5.4,31,2.5,1.9,6.2,8.1,10.3,6.2s1.2-9,.8-11,1.7-5.1,1.7-8-1.6-5.3-1.4-6,11.2,2.6,10.5,13.6-5.1,7.6-5.1,7.6,1.4,13.5-2.1,15.3a9.51,9.51,0,0,1-10.8-.7l.6,2.8-4.8-2.5s-6.1-8.7-7.5-12.6a110,110,0,0,1-2.5-25c.6-3.8,1-25.7.7-26.9-.3-1-1.4-19.4-.7-22.2s5-15,4.9-15Z" stroke="#000" stroke-width="0.9" fill="url(#Dégradé_sans_nom_3)"/><path id="path4348" d="M426.8,225s9.8-9.5,15.5-8.4c3,0,.2,2.1.2,2.1s5,.4,5.7,2.6c.1,1-2.4,1.3-2.4,1.3s2,.4,2.2,2.2-21,.4-21.2.3Z" fill="#ff7000" stroke="#000" stroke-width="0.9"/><path id="path4350" d="M427.3,224.7s10.6-1.4,15-5.9" fill="none" stroke="#000" stroke-width="0.9"/><path id="path4352" d="M438,221.8s7.8-.3,7.8.8" fill="none" stroke="#000" stroke-width="0.9"/><path id="path4354" d="M465.7,335.4s6.6-1.5,8.5-3.9c1-.8,6.9,8.8-8.5,4Z" fill="#fff" stroke="#000" stroke-linejoin="round" stroke-width="0.9"/><path id="path4356" d="M463.9,280.3s.8,5.1-1.6,8.6c-1.2,1.4-5,3.7-5,5.4s1.4,3.9,1.2,5.8-2.4,4-2.3,5.6,2.4,10.5,2.1,10.7" fill="none" stroke="#fff" stroke-linecap="round" stroke-width="0.9"/><path id="path4358" d="M451.7,263.6s-5.3,1.8-6.4,7" fill="none" stroke="#fff" stroke-linecap="round" stroke-width="0.9"/><path id="path4360" d="M449.4,221.8s1.8,5,7.7.2C453.3,216.9,449.4,221.9,449.4,221.8Z" fill="#c75b00" stroke="#000" stroke-width="0.9"/><path id="path4362" d="M453.7,221.6c0,.2-.2.4-.6.4s-.6-.2-.6-.4a.56.56,0,0,1,.6-.5C453.5,221.1,453.7,221.3,453.7,221.6Z"/><path id="path4364" d="M401.7,210.2s11,12,18.2,11.8c1.3,3.5-3.2,6.8-5,8.3-3.7-1.1-7,.3-15.4-10.2a36.11,36.11,0,0,1,2.2-10Z" fill="#fff" stroke="#000" stroke-width="0.9"/><path id="path4366" d="M416.7,182.3c1.4-4.4,4.3-8,6.7-8.3-.6-3.4,5.3-18.4,22.3-24.1,1,7.7-7.3,15.2-7.3,15.2s25.1-4.3,30.2-10.7c-.5,2.9-5.6,20.7-32.4,20.6,10.2,9.6-3.2,17.3-9,15,10.6-8-3-13-10.5-7.7Z" fill="#fff" stroke="#000" stroke-width="0.9"/><path id="path4368" d="M425.3,176c5-3.2,6.9-3.2,11-2.6-3,.4-3,.6-3,.6s-.2.4,1.6,2C432.9,175.5,431,174.4,425.3,176Z" fill="#cccccd" stroke="#ccc" stroke-width="0.9"/><path id="path4370" d="M423.3,174s10-5.4,15.6-9" fill="none" stroke="#000" stroke-width="0.9"/><path id="path4372" d="M414.7,230.3s13.8,3.8,15.4-16c-3-8.6-7.2-27-.8-32.4-5.9-4-12.2.1-12.2.1-.4,1-5.6,8.4,1.4,21.4-16.7-4.4-9.9,11.3-9.9,11.3.7-2.5,9.5-4.8,11.7,7.8C421.3,225.6,414.3,230.5,414.7,230.3Z" fill="blue" stroke="#000" stroke-width="0.9"/><path id="path4374" d="M430.2,214.5a29.71,29.71,0,0,0,14.2-26.2c-12.4.2-16.8,16.3-16.8,16.3Z" fill="blue" stroke="#000" stroke-width="0.9"/><path id="path4376" d="M364.9,213.5s-10.8,9.4-17,6.4c-4.5,2.8-9.8-2-9.8-2s6.2,23,28.6,6.3a53.19,53.19,0,0,0-1.8-10.7Z" fill="#fff" stroke="#000" stroke-width="0.9"/><path id="path4378" d="M347.8,219.5c1-4.8,4.7-7.1,7.7-2.6,4,.8,8-15.7-6.3-13,4-21.6-8-29.7-8-29.7s-4.3,24-2.4,28.4-2.8-8.2-18.3-11.7c-.3,18,17.3,26.5,17.3,26.5s5,4.6,10,2.1Z" fill="blue" stroke="#000" stroke-width="0.9"/><path id="path4380" d="M349.2,203.8s-6.7,5.7-5.2,13.5" fill="none" stroke="#000" stroke-width="0.9"/><path id="path4382" d="M339,203s-1.6,5.6,1.8,13.5" fill="none" stroke="#000" stroke-width="0.9"/><path id="path4384" d="M338,218.4s3-5.1,9.8,1.4" fill="none" stroke="#000" stroke-width="0.9"/><path id="path4386" d="M339.2,183.2c0-.1-10.3,0-4.1,10.4-4.6,1.5-14.8-5.2-7.7-14-23-.6-32.4-11.6-32.4-21.8,6.7,7,22.9,4.2,28.6,8.5-7-6.5-5.6-15.5-5.6-15.5s19.7,5.9,23.2,23.3C340,177.5,339.5,183.5,339.2,183.2Z" fill="#fff" stroke="#000" stroke-width="0.9"/><path id="path4388" d="M323.4,165.8c3.8,3.9,13.5,5,18.5,9.3" fill="none" stroke="#000" stroke-width="0.9"/><path id="path4390" d="M327.9,177.2s8-1,10.4,1.8c-3.2,0-4.2-.7-8.8,1,1.3-.7,1-1.9,1.7-1.9s-3-.9-3.3-.9Z" fill="#cccccd" stroke="#ccc" stroke-width="0.6"/><path id="path4392" d="M368.1,114a7.62,7.62,0,0,1,9.3-.3c-2.2,6.5-10,4-10,4s.2,3.3-.6,4.8c1.6,1.2,2.9,5.1,2.9,5.1s8-2,9.8,1.6a19.3,19.3,0,0,1,5.3,0s6.2-1.6,8.4-1.6,9.3,1.8,10,3.1,3,10,4.5,10c1.6-.2-3.8,2-5.2-.2s-1,2.9-1,2.9a68.3,68.3,0,0,1,4.9,5.7c.5,1-2.7,9.5-.3,15.4a2.65,2.65,0,0,0-2.3,2.4c-.1,2.6-3.4,3.3-3.4,3.3l-.8-3.5-2.2,1.3,1-2.8s3-7.2,3.2-9.6-2.8-6.5-5.1-6.5-4,7.4-4,7.4-1.2,5.6-.8,6.1l-1.6-1.8a20.11,20.11,0,0,1-1.8,4.4,5.85,5.85,0,0,1-2.5,1.5s-1.1-3.4-.8-4.7,6.4-6.4,6-10c-.6-3.7,0-2.8-.2-2.9s-3.1-2.7-3.3-4.2-3.9,1.9-8.8.8c-1.5,2.7-1.7,9.3-1.7,9.3s-.5,7.9.5,8.8-2.6,2.9-2.6,2.9l-2.6,3.5-1-2-1.7,1.2,1-2.6c0-2,2.5-7.4,2.5-12s.4-9.3.4-9.3-4.9-.3-4.7,4.6-1.2,5.3-1,6.7,1.6,5.4,1.2,6.6-2,1.6-2,1.6l-.3.6s-4.8,2.2-4.7,3.2l-.1-2.6-.3-3.8s2.9-1.8,2.9-6.4-.7-5.2-.5-6.2c0-1,.7-4.9.6-5.3s-2.7,1-3.5,1,1.4-2.6,1.7-4.6-2.6,1.8-5-.4c1.1-2.4,2.8-3.1,3-5s-1.8,1.6-3.6.3c.1-1.7,2-3.2,2-3.2a7.05,7.05,0,0,0-2.1,0c-1.2-.4,1.3-2.2,1.4-4.9a4.58,4.58,0,0,0-1.4-3.7c0-.2-2.6-2.4-3-3.3a5.68,5.68,0,0,1-.4-2s-4.3,3.2-9.4-3.4a8.4,8.4,0,0,1,9.6-1s1.3-3.7,7.3-3.5,7.2,3.7,7,3.3Z" fill="#923f00" stroke="#000" stroke-width="0.9"/><path id="path4394" d="M400.9,181.4s11,.3,11.1,6.2-3.3,4.3-3.4,4.3l-8-1Z" fill="blue" stroke="#000" stroke-width="0.9"/><path id="path4396" d="M390.2,179.8s13.7-.1,13,5.8-4.3,4.8-4.3,4.8l-6.6-.5Z" fill="#fffeff" stroke="#000" stroke-width="0.9"/><path id="path4398" d="M382.5,179.1l8,.7s4.7.6,4.5,5.2-4.9,4.7-4.9,4.7l-7.7-.5Z" fill="blue" stroke="#000" stroke-width="0.9"/><path id="path4400" d="M364,181.4c-.1,0-11,.3-11.2,6.2,0,5.9,3.4,4.3,3.5,4.3l8-1Z" fill="#fff" stroke="#000" stroke-width="0.9"/><path id="path4402" d="M374.6,179.8s-13.6-.1-12.9,5.8,4.3,4.8,4.3,4.8l6.6-.5Z" fill="blue" stroke="#000" stroke-width="0.9"/><path id="path4404" d="M382.3,179.1l-7.9.7s-4.8.6-4.5,5.2,4.8,4.7,4.8,4.7l7.7-.5Z" fill="#fff" stroke="#000" stroke-width="0.9"/><path id="path4406" d="M403.5,245s5.7-8.4,8.1-7.5c2.1.7.5,7.2-.5,7.8Z" fill="#5e0043" stroke="#000" stroke-width="0.9"/><path id="path4408" d="M364.5,246.5c-1.8-2.5-4.4-9.4-6.8-7.5-2,.7-.5,7.2.5,7.8Z" fill="#5e0043" stroke="#000" stroke-width="0.9"/><path id="path4410" d="M368.3,229.9s11,6.8,14.7,7,15.2-8.9,15.2-8.9" fill="none" stroke="#000" stroke-width="0.9"/><path id="path4412" d="M369.4,203l2-2.6,10.7,5.4L393,201l2,2.3-12,8.5Z" fill="#5e0043" stroke="#000" stroke-width="0.9"/><path id="path4414" d="M360.9,203c.9,1,7.7,9.4,9,16.3s-.7-9.5-.7-9.5,8.5,4.2,8.8,6.9,4-.2,4.2-.7l-24.6-16Z" fill="#474747" stroke="#474747" stroke-linejoin="round" stroke-width="0.9"/><path id="path4416" d="M403,202.5s-9,11.8-8,24.6c-1.8-6.1-.3-16.3-.3-16.3l-2,1.3s-2,8.6-4.5,10c-.5-1-.4-1.4-.4-1.4a43.16,43.16,0,0,1-3.3,3.9c-.5.3.2,12,.2,12s1,8.4,2,8.3q-1.38.69-2.7,1.5l-1.1-22.5,2.5-2.5s3.4-4.1,3.6-8.1a8,8,0,0,1-3,1.6s-.5,5.7-1.8,6.5a2.7,2.7,0,0,0-1.4,2.2l-.3-7.4Z" fill="#474747" stroke="#474747" stroke-linejoin="round" stroke-width="0.9"/><path id="path4418" d="M382.5,216.1l1.7,35.5" fill="none" stroke="#000" stroke-linecap="round" stroke-width="0.9"/><path id="path4420" d="M360.7,233s4,2.5,5.5,9.7c13.4-1,17.5,3.8,17.5,3.8s11-5.3,16-4.3a39,39,0,0,1,6.8-8.5" fill="none" stroke="#000" stroke-width="0.9"/><path id="path4422" d="M355,198.3l27.5,18,24.6-16.7s5.2-2.8,4.7-4.8-2.2-1.3-3-1c-1,.4-25.9,18-25.9,18l-26.5-16.7s-2-.6-2.3.6.7,2,1,2.6Z" fill="#b4b6b9" stroke="#000" stroke-width="0.9"/><path id="path4424" d="M404,193.6s-7-3-7-.4.3,2.9,1.4,4.5-.9,2.7-.9,2.7l-.6-1.8c-.4-1.1-4.2-2-4.5-3.2-.4-1.4.8-3.5-1.5-3.7a4.23,4.23,0,0,0-4.9,3.5c-.4,2.5-3.3,8.6-3.3,8.6l.3-13.7c5,.3,14.2,1.4,21.2,2.2-2.1-.3.8.2.7.9s-.9.6-.8.4Z" fill="#474747" stroke="#474747" stroke-linejoin="round" stroke-width="0.9"/><path id="path4426" d="M379.3,190.2c-1.3,0-7.6.7-9.1,1.7s2.5,2.3,2,3.6-.6,3.8-2.6,3.2-8.6-3.8-8.8-5c-.2-1-1.6-1.1-1.6-1.1s19.2-2.6,20-2.4Z" fill="#474747" stroke="#474747" stroke-linejoin="round" stroke-width="0.9"/><path id="path4428" d="M382.3,188.6v16.8" fill="none" stroke="#000" stroke-width="0.9"/><path id="path4430" d="M369.4,168.8l-7.9,12.9" fill="none" stroke="#000" stroke-width="0.9"/><path id="path4432" d="M383.5,168.5s3.4,4.6,3,5.9c1.3,1,2.9,5.3,2.9,5.3" stroke="#000" stroke-width="0.9" fill="url(#Dégradé_sans_nom_4)"/><path id="path4434" d="M396.4,167.8s-7.2,10.1-7,10.9" fill="none" stroke="#000" stroke-width="0.9"/><path id="path4436" d="M359.4,119.3c-.1.6-1,.8-2,.5s-1.7-1-1.5-1.6,1-.8,2-.5S359.6,118.7,359.4,119.3Z"/><path id="path4438" d="M362.3,119c.2.7,1.1.9,2.1.6s1.6-1,1.5-1.6-1.1-.8-2-.5-1.7,1-1.6,1.6Z"/><path id="path4440" d="M447,330.2s-2.8.5-2.7.8-7.8.5-8,.2-1.1,1.4-1.1,1.4l1.2-.8s2,2,2.6,1.8-.3.8-.1,1,.7-.4.7-.4l13-.2Z" fill="#ff7000" stroke="#000" stroke-linejoin="round" stroke-width="0.9"/><path id="path4442" d="M451.8,334.3l-10.7.3a21.14,21.14,0,0,0-2.8,3c-.2.6,1.7.7,1.7.7l.6,2,1.4-.5a52.69,52.69,0,0,0,17.3-.5c4.2-1.4,5-3.2,2-4.3S451.8,334.3,451.8,334.3Z" fill="#ff7000" stroke="#000" stroke-linejoin="round" stroke-width="0.9"/><path id="path4444" d="M415.4,356l19-.8-3.5-3,51.8-2.1-1.8-4.1-58,2.3,7,3.3-15.6.4.4,1.7-4-.2s4.5,1.8,4.7,2.6Z" stroke="#000" stroke-width="0.9" fill="url(#Dégradé_sans_nom_5)"/><path id="path4446" d="M436.8,250.4c-1.5-.8-8.2-1.7-15.6,3.2l.3,17.1s10.9-5.9,16.2-4.5c-.3-5.3-.3-12.2-.9-15.8Z" stroke="#000" stroke-width="0.9" fill="url(#Dégradé_sans_nom_6)"/><path id="path4448" d="M331,302.5l-45,44.8" fill="none" stroke="#000" stroke-width="0.68"/><path id="path4450" d="M351.1,302.8l-36.6,48.3" fill="none" stroke="#000" stroke-width="0.68"/><path id="path4452" d="M349.5,290.3l-48.9,59.1" fill="none" stroke="#000" stroke-width="0.68"/><path id="path4454" d="M299.1,348.6l4.8-5.5" fill="none" stroke="#000" stroke-width="0.68"/><path id="path4456" d="M358.8,320l-19,26.2" fill="none" stroke="#000" stroke-width="0.68"/><path id="path4458" d="M339,349.6l.5,10" fill="none" stroke="#000" stroke-width="0.68"/><path id="path4460" d="M367.5,329.2l-20.1,25.1" fill="none" stroke="#000" stroke-width="0.68"/><path id="path4462" d="M363.9,352.4,372,339" fill="none" stroke="#000" stroke-width="0.68"/><path id="path4464" d="M367,336.4l-9.8,11" fill="none" stroke="#000" stroke-width="0.68"/><path id="path4466" d="M364,325.9l-6.7,8.2" fill="none" stroke="#000" stroke-width="0.68"/><path id="path4468" d="M355.4,314s-20.5,29.9-20.1,32.3" fill="none" stroke="#000" stroke-width="0.68"/><path id="path4470" d="M353.3,310c-.5.4-17.7,23-17.7,23" fill="none" stroke="#000" stroke-width="0.68"/><path id="path4472" d="M334.6,340.3l-3,3.7" fill="none" stroke="#000" stroke-width="0.68"/><path id="path4474" d="M327.6,349.8l-4.7,6.2" fill="none" stroke="#000" stroke-width="0.68"/><path id="path4478" d="M328.8,233.7s-1.4,4.3,0,6.5,10,19.8,10,19.8,6-7.3,8.2-7.5,1.2,19,1.2,19-3.6,3.3-5.8,3.1,5.4,7.5,5.2,14-10,39-13.5,39.6,1.6-6,1.4-7.7-1.2-.6-2-2.6,1.2-5,.8-7-2.1-1.5-2.3-2.9,1.1-1.8,1-3.3c-.3-1.6-2.4-1.2-2.2-2.6a7.78,7.78,0,0,0,.2-3.4c-.2-2.5-.6,1.8-2.8,2s-4,5.2-4,5.2-4.3,6-8.7,3.3c2.6,5.6.6,8-.4,8.1s.8,4.4-1.5,4.6,1.7,9.3-1,10c3,1.4.6,3.2.6,3.2s-6.9.6-5.4,9.5c-20.1-7.1-30-19.4-29.8-31.8s4.1-23.8,13.8-28a199.89,199.89,0,0,1,7.5-21.3,25.3,25.3,0,0,1-.2-7.5c.6-3,3.4-6,3.4-6s-.4-7-.2-10.6,1.6-5.1,1.8-7.1-.6-12,1.4-13.9c2-1.7,5.7-1.5,7.7-2.7s4.5-3.4,7-3.2a9.32,9.32,0,0,1,4.8,2s9.7,0,10.3,3.7-2,5.2-2,5.2,1.4,5.3-4.5,10.3Z" fill="#8a9396" stroke="#2b2b2b" stroke-width="0.9"/><path id="path4480" d="M320.2,220c.3.5-.4,1.5-1.6,2.2s-2.4.7-2.7,0c-.3-.5.4-1.5,1.6-2.1s2.4-.7,2.7-.1Z" fill="#cecfcf" stroke="#2b2b2b" stroke-width="0.9"/><path id="path4482" d="M318.5,221a.71.71,0,0,1-1.4,0,.7.7,0,1,1,1.4,0Z"/><path id="path4484" d="M333,227.5s2.4,10.7-.5,18.1" fill="none" stroke="#2b2b2b" stroke-width="0.4"/><path id="path4486" d="M333.7,222.8s4.7,6.2,4.1,14" fill="none" stroke="#2b2b2b" stroke-width="0.4"/><path id="path4488" d="M334.2,221.5c.1,0,4,3.3,3.8,5.6" fill="none" stroke="#2b2b2b" stroke-width="0.4"/><path id="path4490" d="M335.1,220.1s2.6,1.8,3.2,3.6" fill="none" stroke="#2b2b2b" stroke-width="0.4"/><path id="path4492" d="M333.9,219s-9.2,15-8,24.4" fill="none" stroke="#000" stroke-width="0.9"/><path id="path4494" d="M334.5,218.6s-12.2,7.2-14.5,31" fill="none" stroke="#2b2b2b" stroke-width="0.4"/><path id="path4496" d="M333.1,223l-4.8,3.6" fill="none" stroke="#000" stroke-width="0.9"/><path id="path4498" d="M315.5,251s6.8-28.3,18.8-32.4" fill="none" stroke="#2b2b2b" stroke-width="0.4"/><path id="path4500" d="M339,260.5s6.5-8.2,8-7.9,1.1,18.9,1.1,18.9-4.8,3.6-5.9,3.5,5.4,8.7,5.3,12l-.3,3.4a13.66,13.66,0,0,0-1.5-5.2c-1.5-3.1-.6-6.8-10.4-14.8-2.5-5,4.8,3,6.3,1.8s-2.7-11.6-2.6-11.7Z" fill="#2b2b2b" stroke="#2b2b2b" stroke-width="0.9"/><path id="path4502" d="M327.5,214.5s-2.8.7-3.1,1.9c-.4,1-2,2.2-2.9,1.8a16.41,16.41,0,0,1-2.5-1.7" fill="none" stroke="#2b2b2b" stroke-width="0.9"/><path id="path4504" d="M312,224s-4.1,4.2-2.2,4.7,4.1-3.3,4.1-3.3,0,6.4,1.8,5.4,6.8-4.6,6.8-4.6a7.3,7.3,0,0,1,2.1,0c.4,0,4.7,3.8,7.6,2.5-1.6,4.2-3.5,4.7-3.5,4.7s-3,3.8-6.8,3c-3.9-1-4.9-2.5-4.9-2.5s-3.2.2-4.2-1.3a13,13,0,0,1-1.3-2.3s-1.9,1.8-2.4,1c-.5-1,0-6,2.9-7.2Z" fill="#2b2b2b" stroke="#2b2b2b" stroke-linejoin="round" stroke-width="0.9"/><path id="path4506" d="M335.2,218.3s-7.6-2.2-10.2,1.5-2,5.9-.6,6.2" fill="none" stroke="#2b2b2b" stroke-width="0.9"/><path id="path4508" d="M336.3,218.1a1.43,1.43,0,0,1-1.4,1.6,1.61,1.61,0,1,1,1.4-1.6Z"/><path id="path4510" d="M314.3,237.5s3,4.7,6.8,6-2.6,2.5-6.3,0c-2.6-3.7-2-6.3-2-6.3A1,1,0,0,1,314.3,237.5Z" fill="#2b2b2b" stroke="#2b2b2b" stroke-width="0.9"/><path id="path4512" d="M340.7,265.5s-8.6-12-11.1-12.7,1.9-1.2,4.5,1.4-.7-4.2-.7-4.2Z" fill="#2b2b2b" stroke="#2b2b2b" stroke-width="0.9"/><path id="path4514" d="M313.5,335.2c3.3-.9,17.8,8.3,21,10.6s10.2.9,10.2.9a22.73,22.73,0,0,1-5.2,2.3c-2,.5,5.9.5,5.9.5a55.71,55.71,0,0,1-37.4-4.8C306.3,337,312,335.3,313.5,335.2Z" fill="#2b2b2b" stroke="#2b2b2b" stroke-linejoin="round" stroke-width="0.9"/><path id="path4516" d="M334.7,268.5a7.26,7.26,0,0,1-3.7-2c-1.3-1.3-3-4.9-4.9-6.3s-11-6.6-14.4-6.2-4.3-.4-4.7-.8-1.8.2-1.6,2c.3,1.6-2.5,5.4-1.5,7.2s5.8,9,6.7,9.3.4,4.2.4,4.2,4.2,4.3,5.3,4.5,2.1,1,2,2-4.7,6.6-4.7,6.6-4.8,2.5-4.9,4,1.2,4.3,5,5.3a36,36,0,0,0,14.9-.7,19.16,19.16,0,0,0,1-6.8c-.4-.5-3-2.1-4.3-1.9s-2.4,1.3-2.3,1.6-1.9,1.2-1.9.3,3.9-5.3,4.2-5,5.9,1,6.9,3.7,1,4.7,3.8,4.4a8.57,8.57,0,0,0,7.2-8.4,12.12,12.12,0,0,0-4-9.7c-1-.5-4-2.3-4.2-3.1S334.2,269.1,334.7,268.5Z" fill="#2b2b2b" stroke="#2b2b2b" stroke-width="0.9"/><path id="path4518" d="M283.3,292.6s9.2-2.4,11.6-2.3,11.3,4.2,14,6.8c2.5,2.5,7.9,8.6,11.4,8s4.5-1.2,4.5-1.2l-1.4,2.6s-2.8.8-4.2.4a13.83,13.83,0,0,1-7-4c-2.8-2.7-11.4-10-18.8-9.5s-11.5,7.7-11.5,7.7,0-3.5.4-4.3-1.6,1.7-1.6,1.7Z" fill="#2b2b2b" stroke="#2b2b2b" stroke-width="0.9"/><path id="path4520" d="M317.2,299.7a23,23,0,0,0,6.1.7,9.86,9.86,0,0,0,5.9-1.7l-.3-1.5.6-2s3,3,2.9,3.5-1.2.9-1.2.9l-.4-1.5-1,1.3s-5.6,4.4-8.6,3.7-5.8-2.6-5-3S317.3,299.7,317.2,299.7Z" fill="#2b2b2b" stroke="#2b2b2b" stroke-width="0.9"/><path id="path4522" d="M303.8,307.5a15.58,15.58,0,0,0-4.8.7c-1.5.7-2,1.6-3,1.4-1,0-1.8-1.4-1.5-2s2.3-1.8,6-1.5S303.8,307.5,303.8,307.5Z" fill="#2b2b2b" stroke="#2b2b2b" stroke-width="0.9"/><path id="path4524" d="M315.4,316.5c0-.1-.2-4.8-2-6.7a5.6,5.6,0,0,0-5.2-1.7c-1,.2,3.8,2.3,4.3,3.7s2,5.2,1.6,6.1-1.2-2.7-4.1-3.7-7-.4-6.2.9,4.1,0,5.8,2.9a59.1,59.1,0,0,1,3,5.7l.5-2,1.4-.4.2-3.9Z" fill="#2b2b2b" stroke="#2b2b2b" stroke-width="0.9"/><path id="path4526" d="M313,331.7l-3-6s-1-3.9-3.5-5-6-.8-6,.5,5.5,3,5.8,3.7.2,1.9-.3,2-2.9-1-4.1-.7-2,2-3.8,1.5-3.4-6.4-2.7-7-1.4,1-1.8-.5.6-6.3,0-7c-.8-.5-4.3-2.6-4.3-3s.2-23.7,19.6-4.4c-8.3-9.9-11.6-8.8-13.1-8.9-1.2,0-8.7.7-10.6,10.3s-4.2,3.6-4.2,3.6-.4,4.2,1.6,5.4-1,4.6-1,4.6-3.5-8.8-3-12.7a30,30,0,0,0,4,19.1A62.42,62.42,0,0,0,306.3,344c7.1-10.8,6.8-12.1,6.8-12.3Z" fill="#2b2b2b" stroke="#2b2b2b" stroke-linejoin="round" stroke-width="0.9"/><path id="path4528" d="M300.3,331.8s4,.5,5,2.5a19.14,19.14,0,0,1,1.6,5.1,8.32,8.32,0,0,1,2.2-3.4c1.3-1,2.3-1,2.2-1.8s-4.1-5-6.2-5.2-5.7,2.2-5.7,2.2-.7,1,1,.6Z" fill="#8a9396" stroke="#2b2b2b" stroke-linejoin="round" stroke-width="0.9"/><path id="path4530" d="M309.3,342s10.2,4.7,26.9,5" fill="none" stroke="#8a9396" stroke-linecap="round" stroke-width="0.86"/><path id="path4532" d="M343.2,294.9s-.9,8.5-7.4,25.3" fill="none" stroke="#2b2b2b" stroke-linecap="round" stroke-width="0.86"/><path id="path4534" d="M342,300.1a26.2,26.2,0,0,1-7.5,10.7" fill="none" stroke="#2b2b2b" stroke-width="0.9"/><path id="path4540" d="M312.2,406l1.8-2,.5.5-.1.2-.2.2v.1l.2.2,2.3,2,.2.2h.1l.2-.1.4-.7a1.55,1.55,0,0,0,0-.8,1.7,1.7,0,0,0-.3-.8l.7-.4,1,1.9-2.7,3-.6-.4.2-.2.1-.2v-.2l-.2-.2-2.3-2-.2-.2h-.2l-.1.2-.2.2-.6-.5Z"/><path id="path4542" d="M316,401.7l3.3-3.2,1.6.8-.3.6-.8-.1h-.6l-.5.5-.6.6,1,1,.1-.2.3-.4v-.2l-.2-.3-.2-.1.5-.5,1.6,1.6-.4.5-.2-.2-.3-.2h-.2l-.3.3-.2.2.9.9.1.1h.1l.2-.1.4-.4.5-.7v-.7a2,2,0,0,0-.2-.9l.7-.3,1,2-3.4,3.2-.5-.5v-.1l.3-.3v-.2l-.2-.2-2.1-2.1-.3-.2H317l-.2.1-.2.2-.5-.5Z"/><path id="path4544" d="M322.9,395.2a2.59,2.59,0,0,1,2-.8,2.45,2.45,0,0,1,2,1,3.49,3.49,0,0,1,.7,1.4,3,3,0,0,1-1.2,2.7,2.63,2.63,0,0,1-1.8.7,2.54,2.54,0,0,1-2.1-1,2.74,2.74,0,0,1-.7-2,2.45,2.45,0,0,1,1-2Zm.5.6a1.35,1.35,0,0,0-.4,1,2.16,2.16,0,0,0,.6,1.4,2.66,2.66,0,0,0,1.3.9,1.63,1.63,0,0,0,1-.3,1.25,1.25,0,0,0,.5-1,2.16,2.16,0,0,0-.6-1.4l-.9-.7-.8-.2a1,1,0,0,0-.7.3Z"/><path id="path4546" d="M328.8,390.4l.4-.3h.1l2.6-1.7-.1-.2.4-.3,1.7,1.2-.5.6-.6-.3h-1.1v.4l1.8,2.5.2.3h.3l.4-.2.4.6-2.2,1.5-.4-.6h.1l.3-.3v-.2l-.2-.3-1.8-2.6-.1-.1h-.1a.68.68,0,0,0-.3.4l-.1.6v.7l-.7.2-.5-2Z"/><path id="path4548" d="M333.7,387.2l3.9-2.4L339,386l-.5.6a1.5,1.5,0,0,0-.7-.4h-.6a.86.86,0,0,0-.6.3l-.7.4.7,1.2.2-.2.3-.2a.12.12,0,0,0,0-.2v-.4l-.2-.2.6-.3,1.2,2-.6.3-.1-.2-.2-.3h-.2l-.4.2-.2.1.6,1,.1.3h.1l.3-.1.4-.3a1.44,1.44,0,0,0,.6-.5l.3-.7v-1h.7l.4,2-4,2.4-.4-.6h.2l.2-.3c.07,0,.07-.07,0-.2v-.3l-1.6-2.5-.2-.3h-.1l-.3.1-.2.1-.4-.6Z"/><path id="path4550" d="M339.2,383.9l3-1.5.6-.3.8-.1.6.2.5.5a1.08,1.08,0,0,1,0,1.1,2.46,2.46,0,0,1-.6,1l1.6.6.3.1h.4l.2-.2.4.7-1.6.8-2.6-1.3-.4.2.5,1,.2.3h.4l.2-.2.4.7-2.4,1.2-.3-.6.2-.2.2-.1v-.4l-1.5-2.8-.1-.2h-.4l-.2.2-.4-.7Zm2.2-.1.6,1.2.8-.4.5-.4a.33.33,0,0,0,.2-.3v-.5l-.3-.2a.41.41,0,0,0-.4,0l-.6.2-.8.4Z"/><path id="path4552" d="M345.3,380.8l3.1-1.4.7-.2h.7a1.25,1.25,0,0,1,.7.2l.4.6a1.33,1.33,0,0,1,0,1,3,3,0,0,1-.8,1l1.6.7.3.1h.5l.2-.1.3.6-1.6.7-2.6-1.4-.4.2.5,1,.1.3h.4l.3-.1.3.7-2.5,1-.3-.7h.2l.3-.2v-.4l-1.3-2.8-.1-.3h-.4l-.2.2-.4-.7Zm2.2,0,.6,1.3.7-.4.7-.3.2-.4v-.4l-.3-.3a.41.41,0,0,0-.4,0l-.6.1-.9.4Z"/><path id="path4554" d="M353.5,377.4l1.2-.5,3,3.4.3.3h.4l.2.7-2.4.9-.2-.8h.1a.33.33,0,0,0,.3-.2v-.1l-.2-.3-.3-.4-1.5.6v.9h.6l.2.6-2,.7-.2-.7.3-.1v-.2l.1-.2.1-4.6Zm.9,2.8,1-.4-1-1.2Z"/><path id="path4556" d="M357.8,375.8l2.3-.7,1.8,3v-3.5l2.5-.7.2.7-.3.1a.18.18,0,0,0-.2.2v.3l.8,3,.1.3h.7l.2.6-2.5.8-.2-.8h.2l.2-.1.1-.2v-.2l-1-3.2v4.7l-.7.2-2.4-3.9.9,3.2v.2h.7l.2.6-2.1.7-.2-.8h.2l.2-.1.1-.2v-.3l-.9-3v-.2H358l-.2-.7Z"/><path id="path4558" d="M368.6,373l2.8-.5,1-.1.6.2.5.5.3.6a1.47,1.47,0,0,1-.3,1.2,2.42,2.42,0,0,1-1.4.8l-1,.1.3,1v.3h.7l.1.7-2.6.5-.1-.7h.2l.3-.1V377l-.5-3-.1-.2-.1-.1h-.5l-.2-.7Zm2.1.5.3,1.5h.5l.6-.3a.33.33,0,0,0,.2-.3v-.5a.58.58,0,0,0-.3-.5h-1.3Z"/><path id="path4560" d="M374.4,372l3.3-.5h.7l.7.1a1.44,1.44,0,0,1,.6.5l.2.6a1.21,1.21,0,0,1-.3,1.1,2.46,2.46,0,0,1-1,.6l1.3,1.2.3.2h.7v.8l-1.7.2-2-2.1h-.4v1.1l.2.4a.41.41,0,0,0,.4,0h.2l.1.8-2.6.3-.1-.7h.2l.3-.1V376l-.3-3v-.2l-.2-.1h-.5l-.1-.8Zm2,.6.3,1.4.8-.1.7-.2.3-.3V373l-.1-.4-.4-.2h-.6l-1,.2Z"/><path id="path4562" d="M384.2,370.8a3,3,0,0,1,2.1.7,3.57,3.57,0,0,1,1,2,3,3,0,0,1-.4,1.5,2.4,2.4,0,0,1-1,1,2.82,2.82,0,0,1-1.5.5,3.23,3.23,0,0,1-2-.6,2.29,2.29,0,0,1-1-2,3,3,0,0,1,.7-2.1,2.91,2.91,0,0,1,2-1Zm0,1a1.35,1.35,0,0,0-1,.4,2.35,2.35,0,0,0-.3,1.6,1.9,1.9,0,0,0,.5,1.4,1.35,1.35,0,0,0,1,.4,1.25,1.25,0,0,0,1-.5,2.16,2.16,0,0,0,.3-1.5,1.9,1.9,0,0,0-.2-1,1.43,1.43,0,0,0-1.3-.9Z"/><path id="path4564" d="M388.3,370.8h3.8l.6.4.4.6.1.6a1.64,1.64,0,0,1-.5,1.2,2,2,0,0,1-1.5.5h-1v1l.1.2.1.1h.5v.8h-2.6v-.8h.5l.1-.1v-3.8h-.6v-.7Zm2,.9v1.5h1.1l.3-.3.1-.5a.67.67,0,0,0-.3-.6l-.6-.1Z"/><path id="path4566" d="M394.2,370.8l3.3.2a1.25,1.25,0,0,1,.7.2,1,1,0,0,1,.7.3l.5.5v.7a1.35,1.35,0,0,1-.4,1,3.15,3.15,0,0,1-1.1.4l1,1.4.2.2.2.1h.3l.2.1v.7H398l-1.6-2.5H396l-.1,1v.4l.1.1h.5v.8l-2.7-.2v-.7h.6l.1-.1v-.3l.3-3v-.3l-.1-.1h-.4l-.2-.1v-.8Zm2,1-.2,1.5h1.6l.3-.3a.33.33,0,0,0,.2-.3l-.1-.4-.3-.3H397l-.9-.2Z"/><path id="path4568" d="M401,371.3l2.5.4v.7h-.6l-.2.4-.3,3v.4h.3l.3.1-.1.8-2.6-.4V376h.6l.1-.3.4-3v-.5h-.3l-.3-.1.1-.8Z"/><path id="path4570" d="M406.6,372.1l1.2.2.9,4.5.1.4.4.1-.1.8-2.6-.5.1-.7h.5l.1-.1V376l-1.7-.3-.3.5-.1.2v.1l.1.1.4.1-.1.8-2.1-.4.1-.7h.3l.2-.1.2-.2Zm-.7,2.9,1,.2-.2-1.6Z"/><path id="path4572" d="M411,373l2.4.5.1,3.5,1.8-3,2.4.6-.2.7H417l-.2.3-.7,3c-.07.13-.07.2,0,.2v.2h.2l.3.1-.2.8-2.5-.7.2-.7h.6v-.2l.9-3.3-2.4,4-.7-.1-.2-4.6-.8,3.2v.4h.3l.3.1-.2.7-2.2-.5.2-.7h.6l.2-.3.7-3v-.4h-.2l-.3-.1.2-.8Z"/><path id="path4574" d="M422,376l2.7,1a1.56,1.56,0,0,1,.8.4,1,1,0,0,1,.4.5l.2.6v.7a1.82,1.82,0,0,1-1,1,2.1,2.1,0,0,1-1.5-.2l-.9-.3-.3,1-.1.2v.2h.3l.2.2-.2.7-2.5-1,.3-.6h.1l.3.1h.2l.1-.3,1-2.9.1-.3v-.1l-.3-.1-.2-.1.3-.7Zm1.5,1.5-.5,1.4.4.2.6.1.4-.1.3-.4v-.6a1,1,0,0,0-.6-.4l-.6-.2Z"/><path id="path4576" d="M427.5,378l3,1.4.7.3.5.5.3.7-.2.7a1.21,1.21,0,0,1-.8.7,1.6,1.6,0,0,1-1.1,0l.5,1.7v.3l.2.2.2.1.2.1-.3.7-1.5-.7-.7-2.9-.4-.1-.4,1-.2.3v.1l.3.2h.2l-.3.8-2.4-1.1.3-.7.2.1h.5v-.3l1.3-2.8.1-.2V379l-.2-.2h-.3l.3-.8Zm1.5,1.6-.6,1.3.7.4.7.2.5-.1.2-.3a.41.41,0,0,0,0-.4l-.1-.4-.6-.3-.8-.4Z"/><path id="path4578" d="M436.5,382.2a3.17,3.17,0,0,1,1.5,1.6,2.87,2.87,0,0,1-.3,2.2,3.23,3.23,0,0,1-1,1.1,2.45,2.45,0,0,1-1.4.4,3.31,3.31,0,0,1-1.5-.4,3.35,3.35,0,0,1-1.4-1.5,2.39,2.39,0,0,1,.2-2.3,2.71,2.71,0,0,1,1.6-1.4,2.6,2.6,0,0,1,2.3.3Zm-.4.7a.9.9,0,0,0-1,0,2.19,2.19,0,0,0-1.2,1.1,2.48,2.48,0,0,0-.3,1.5,1.25,1.25,0,0,0,.6.9,1.6,1.6,0,0,0,1.1,0,1.82,1.82,0,0,0,1-1,2.42,2.42,0,0,0,.4-1.1l-.1-.8A1.44,1.44,0,0,0,436.1,382.9Z"/><path id="path4580" d="M440.5,384.3l.5.3v.2l2.5,1.6.2-.1.4.2-.4,2-.8-.2v-.7l-.1-.6-.3-.3h-.1l-.2.1-1.6,2.7-.2.3v.1l.1.1.4.3-.4.6-2.3-1.4.4-.6h.2l.3.2h.1l.2-.3,1.7-2.7c.07-.13.07-.2,0-.2v-.1l-.5-.1-.6.1-.6.4-.4-.6,1.5-1.3Z"/><path id="path4582" d="M445.4,387.6l3.7,2.6-.5,1.8-.7-.2V391l-.2-.6-.5-.4-.7-.5-.8,1,.2.2.4.2h.2l.3-.3v-.1l.7.4-1.4,1.8-.5-.4v-.2a.33.33,0,0,0,.2-.3v-.2l-.3-.3-.2-.1-.7,1-.2.2v.1l.2.2.4.2.8.4a1.55,1.55,0,0,0,.8,0l.8-.4.4.6-1.7,1.3-3.9-2.8.5-.6.4.3h.2l.2-.3,1.7-2.4.2-.3v-.1l-.2-.2-.2-.2.4-.6Z"/><path id="path4584" d="M451.5,395.4l2,1.6-.5.6h-.1l-.3-.2h-.1l-.2.2-1,1.3-.7-.5V398a1.25,1.25,0,0,1-.7-.2l-.7-.5a2.44,2.44,0,0,1-.9-1.1,2.56,2.56,0,0,1,0-1.4,2.16,2.16,0,0,1,.6-1.4,2.35,2.35,0,0,1,1.2-.8,2.13,2.13,0,0,1,1.3-.2,2.19,2.19,0,0,1,1.3.6l.5.5.4.6h.2l.4.3-.7,1.7-.7-.3v-1l-.1-.6-.4-.4-.6-.3-.8.2-.8.6a2.35,2.35,0,0,0-.5,1,1.33,1.33,0,0,0,0,1,.58.58,0,0,0,.3.5l.5.3h.5l.3-.2v-.2l.2-.2v-.1l-.2-.3-.2-.1.5-.6Z"/><path id="path4586" d="M457.3,397.1l1,.9-1.8,4.1v.5l.2.3-.5.6-2-1.8.6-.5h.1l.3.2h.1l.2-.3.2-.5-1.2-1-.6.2-.2.1v.3l.3.2-.5.6-1.5-1.5.5-.5.2.2h.2l.3-.1,4.1-2Zm-2,2,.7.8.6-1.5-1.4.7Z"/><path id="path4588" d="M460.9,400.3l.4.4-.1.1,2,2.3.3-.1.3.3-.9,1.8-.7-.3.2-.7v-.6a.41.41,0,0,0-.2-.4h-.3l-2.2,2.2-.3.3v.2l.3.3-.5.6-1.8-2,.5-.5.1.1.3.3h.1l.3-.3,2.3-2.2.1-.1v-.1l-.4-.2H460l-.6.1-.3-.7,1.8-.8Z"/><path id="path3362" d="M0,0H256V256H0Z" fill="#012169"/><path id="path3364" d="M256,0V32l-95,96,95,93.5V256H222.5L127,162,34,256H0V222l93-93.5L0,37V0H31l96,94L220,0Z" fill="#fff"/><path id="path3366" d="M92,162l5.5,17L21,256H0v-1.5Zm62-6,27,4,75,73.5V256ZM256,0,160,98l-2-22L233,0ZM0,.5,96.5,95,67,91,0,24.5Z" fill="#c8102e"/><path id="path3368" d="M88,0V256h80V0ZM0,88v80H256V88Z" fill="#fff"/><path id="path3370" d="M0,104v48H256V104ZM104,0V256h48V0Z" fill="#c8102e"/></svg>