<svg id="flag-icons-ht" xmlns="http://www.w3.org/2000/svg" viewBox="0 0 512 512"><title>ht</title><path d="M0,0H512V512H0Z" fill="#d21034"/><path d="M0,0H512V256H0Z" fill="#00209f"/><path d="M175.2,191.6H336.8V320.2H175.2Z" fill="#fff"/><path d="M288.5,284.6l-33,1-32.8.3s-16.8,6.3-23.7,7.7-6,3.6-11.3,4.8c-4.3,1-4.8,1.3-7.3,1.4-1.5.1-3.3,1.3-5.2,2.6v17.8H336.8v-17a32.51,32.51,0,0,0-5.2-2.1,59.92,59.92,0,0,0-8.2-2.7c-5.3-1.2-4.4-3.4-11.3-4.8s-23.6-9-23.6-9Z" fill="#016a16" stroke="#016a16" stroke-width="0.3"/><g id="a"><path d="M246.58,244.91H249l4.44,18.26-1,5.8-5.8-23.89Z" fill="#f1b517" stroke="#000" stroke-width="0.2"/><path d="M244,232.62l1.71,14.16h1.7l-3.41-14Z" fill="#fff" stroke="#000" stroke-width="0.2"/><path d="M248.63,263.85l-7.34-19.63,2.73-.17,8.53,23.9Z" fill="#f1b517" stroke="#000" stroke-width="0.2"/><path d="M237.88,233,241,246.61h2.39Z" fill="#fff" stroke="#000" stroke-width="0.2"/><path d="M242.14,257l-4.26-9.38,1.7-.34,8,15.36Z" fill="#f1b517" stroke="#000" stroke-width="0.2"/><path d="M232.07,236.89l5,13h2.39l-7.17-13Z" fill="#fff" stroke="#000" stroke-width="0.2"/><path d="M242.83,258.39,223.2,237.06c-6.14,4.78-4.95,13.65-4.95,13.65l22.19,17.41,2.22-9.73Z" fill="#0a328c" stroke="#000" stroke-width="0.2"/><path d="M254.09,270l-14.51-14.68c-6.14.34-1.36,9.38-1,10.58L253.92,279v-9Z" fill="#d20014" stroke="#000" stroke-width="0.2"/><path d="M252.72,267.61l-29.86-32.09-1.2.85,31.75,35.16-.69-3.92Zm-31.57-34.14-.68-.85v-1.54l-6.15-3.92,2.74,6.31,2.21.34.52.69,1.36-1Z" fill="#f1b517" stroke="#000" stroke-width="0.2"/><path d="M217.91,235.69a14.3,14.3,0,0,1,4.61-3.75l1.7,2.56-3.75,3.07-2.56-1.71Z" fill="#f1b517" stroke="#000" stroke-width="0.2"/><path d="M214.67,241.15l1,1.71c.68-.17,6.83-6,6.83-6h4.6l1.2-1.54c-3.41-3.41-6.32.51-6.32.51L214.67,241Z" fill="#0a328c" stroke="#0a328c" stroke-width="0.2"/><path d="M218.42,244.05c0-1.7,3.07-5.46,3.41-5.63,2.22.68,4.27,2.05,6.66-3.07-2.05,2.39-6,0-6,0l-1.71,1.37v.68l-5.12,4.78,2.56,1.87Z" fill="#d20014" stroke="#d20014" stroke-width="0.2"/><path d="M234.29,264l-24.57-19.45c-4.27,4.26-.69,17.4-.69,17.4l23.9,13L234.12,264Z" fill="#0a328c" stroke="#000" stroke-width="0.2"/><path d="M254.6,279.89l-20.31-16.38c-6.82,1-1.36,11.09-1,12.29l21.33,11.6v-7.51Z" fill="#d20014" stroke="#000" stroke-width="0.2"/><path d="M253.75,276.48l-43.69-32.77-.86,1,45.74,35.84-1.19-4.1ZM208,242l-.68-.69L207,240l-6.83-2.9,3.92,5.63h2.22l.69.68,1-1.36Z" fill="#f1b517" stroke="#000" stroke-width="0.2"/><path d="M205.28,244.74a13.92,13.92,0,0,1,3.92-4.44l2.05,2.22-3.07,3.58Z" fill="#f1b517" stroke="#000" stroke-width="0.2"/><path d="M203.06,250.2v1.88c.68-.35,6.32-6.32,6.32-6.32l4.26-.85,1-1.37c-3.08-3.58-6.32,1.2-6.32,1.2l-5.46,5.46Z" fill="#0a328c" stroke="#0a328c" stroke-width="0.2"/><path d="M206.47,253.44c-.34-1.71,2.05-6.48,2.39-6.83,2.73.86,5.12,2,6-3.41-1.71,2.73-6,.68-6,.68l-1.36,1.71v.85l-4.27,5.64,3.24,1.36Z" fill="#d20014" stroke="#d20014" stroke-width="0.2"/><path d="M232.42,276q-15.82-8.89-31.58-17.92c-2.22,3.92-.17,9.39.86,10.24,0,2.56-1,3.92,1.19,9.39.68,3.41,2.22,6.65,4.61,8.53,2.73,10.92,14,11.77,18.26,2.73l6.83-13Z" fill="#0a328c" stroke="#000" stroke-width="0.2"/><path d="M253.07,287.57l-21.34-12.45c-6.82.85,0,13.65.51,14.84l20.83,7.34Z" fill="#d20014" stroke="#000" stroke-width="0.2"/><path d="M249.48,283l-48.3-25.6-.85,1,51.2,28.5Zm-50.69-27-.85-.51-.51-1.37-7-1.7,4.61,5,2.05-.35,1,.52.68-1.54Z" fill="#f1b517" stroke="#000" stroke-width="0.2"/><path d="M196.58,259.07a15.06,15.06,0,0,1,3.07-5.12l2.39,1.88-2.39,4.1Z" fill="#f1b517" stroke="#000" stroke-width="0.2"/><path d="M194.7,264.88l1,2,5.12-7.85,4.27-1.53.85-1.71c-3.41-3.07-6,2.39-6,2.39l-5.29,6.66Z" fill="#0a328c" stroke="#0a328c" stroke-width="0.2"/><path d="M199.31,267.61c-.35-1.71.85-7.17,1.19-7.34,2.56.85,4.78,1,5.46-4.44-1.7,2.56-5.63,1.71-5.63,1.71l-1.19,1.7.17.69-3.42,6.82,3.42.86Z" fill="#d20014" stroke="#d20014" stroke-width="0.2"/></g><path d="M265.18,244.91h-2.39l-4.43,18.26,1,5.8,5.8-23.89Z" fill="#f1b517" stroke="#000" stroke-width="0.2"/><path d="M267.74,232.62,266,246.78h-1.71l3.41-14Z" fill="#fff" stroke="#000" stroke-width="0.2"/><path d="M263.14,263.85l7.33-19.63-2.73-.17L259.21,268Z" fill="#f1b517" stroke="#000" stroke-width="0.2"/><path d="M273.89,233l-3.07,13.65h-2.39Z" fill="#fff" stroke="#000" stroke-width="0.2"/><path d="M269.62,257l4.27-9.38-1.71-.34-8,15.36Z" fill="#f1b517" stroke="#000" stroke-width="0.2"/><path d="M279.69,236.89l-4.95,13h-2.39l7.17-13Z" fill="#fff" stroke="#000" stroke-width="0.2"/><path d="M268.94,258.39l19.62-21.33c6.15,4.78,4.95,13.65,4.95,13.65l-22.18,17.41-2.22-9.73Z" fill="#0a328c" stroke="#000" stroke-width="0.2"/><path d="M257.67,270l14.51-14.68c6.14.34,1.37,9.38,1,10.58L257.84,279v-9Z" fill="#d20014" stroke="#000" stroke-width="0.2"/><path d="M259,267.61l29.87-32.09,1.19.85-31.74,35.16.68-3.92Zm31.57-34.14.69-.85v-1.54l6.14-3.92-2.73,6.31-2.22.34-.51.69-1.37-1Z" fill="#f1b517" stroke="#000" stroke-width="0.2"/><path d="M293.86,235.69a14.3,14.3,0,0,0-4.61-3.75l-1.71,2.56,3.76,3.07,2.56-1.71Z" fill="#f1b517" stroke="#000" stroke-width="0.2"/><path d="M297.1,241.15l-1,1.71c-.68-.17-6.82-6-6.82-6h-4.61l-1.2-1.54c3.42-3.41,6.32.51,6.32.51L297.1,241Z" fill="#0a328c" stroke="#0a328c" stroke-width="0.2"/><path d="M293.34,244.05c0-1.7-3.07-5.46-3.41-5.63-2.22.68-4.27,2.05-6.66-3.07,2.05,2.39,6,0,6,0l1.7,1.37v.68l5.12,4.78-2.56,1.87Z" fill="#d20014" stroke="#d20014" stroke-width="0.2"/><path d="M277.47,264l24.58-19.45c4.26,4.26.68,17.4.68,17.4l-23.89,13L277.64,264Z" fill="#0a328c" stroke="#000" stroke-width="0.2"/><path d="M257.16,279.89l20.31-16.38c6.83,1,1.37,11.09,1,12.29l-21.34,11.6v-7.51Z" fill="#d20014" stroke="#000" stroke-width="0.2"/><path d="M258,276.48l43.69-32.77.85,1-45.74,35.84,1.2-4.1ZM303.75,242l.69-.69.34-1.36,6.82-2.9-3.92,5.63h-2.22l-.68.68-1-1.36Z" fill="#f1b517" stroke="#000" stroke-width="0.2"/><path d="M306.48,244.74a13.8,13.8,0,0,0-3.92-4.44l-2.05,2.22,3.07,3.58Z" fill="#f1b517" stroke="#000" stroke-width="0.2"/><path d="M308.7,250.2v1.88c-.68-.35-6.31-6.32-6.31-6.32l-4.27-.85-1-1.37c3.07-3.58,6.31,1.2,6.31,1.2l5.46,5.46Z" fill="#0a328c" stroke="#0a328c" stroke-width="0.2"/><path d="M305.29,253.44c.34-1.71-2.05-6.48-2.39-6.83-2.73.86-5.12,2-6-3.41,1.7,2.73,6,.68,6,.68l1.37,1.71v.85l4.26,5.64-3.24,1.36Z" fill="#d20014" stroke="#d20014" stroke-width="0.2"/><path d="M279.35,276q15.82-8.89,31.57-17.92c2.22,3.92.17,9.39-.85,10.24,0,2.56,1,3.92-1.2,9.39-.68,3.41-2.21,6.65-4.6,8.53-2.73,10.92-14,11.77-18.27,2.73l-6.82-13Z" fill="#0a328c" stroke="#000" stroke-width="0.2"/><path d="M258.7,287.57,280,275.12c6.83.85,0,13.65-.51,14.84L258.7,297.3Z" fill="#d20014" stroke="#000" stroke-width="0.2"/><path d="M262.28,283l48.3-25.6.85,1-51.2,28.5ZM313,256l.85-.51.52-1.37,7-1.7-4.61,5-2-.35-1,.52L313,256Z" fill="#f1b517" stroke="#000" stroke-width="0.2"/><path d="M315.19,259.07a15.23,15.23,0,0,0-3.07-5.12l-2.39,1.88,2.39,4.1Z" fill="#f1b517" stroke="#000" stroke-width="0.2"/><path d="M317.07,264.88l-1,2-5.12-7.85-4.26-1.53-.86-1.71c3.42-3.07,6,2.39,6,2.39l5.29,6.66Z" fill="#0a328c" stroke="#0a328c" stroke-width="0.2"/><path d="M312.46,267.61c.34-1.71-.86-7.17-1.2-7.34-2.56.85-4.78,1-5.46-4.44,1.71,2.56,5.63,1.71,5.63,1.71l1.2,1.7-.17.69,3.41,6.82-3.41.86Z" fill="#d20014" stroke="#d20014" stroke-width="0.2"/><path d="M253.92,214.36l-.85,15.36H258l-.69-15.36,5.12-.51-.51-6.15-12.8.51v5.47l4.78.68Z" fill="#016a16" stroke="#016a16" stroke-width="0.2"/><g id="b"><path d="M255.63,208c-13.32-13.31-23.73-6.82-26.12-4.95,1.71.35,3.08-.68,3.93-.85l-1.71,2a49.79,49.79,0,0,1,4.78-1.71,6.87,6.87,0,0,0-1.36,1.71c.34,0,2.73-1.88,3.07-1.88a5.44,5.44,0,0,0-.86,2.56l2-.85c.51.34-.17,1,.17,1,3.42-.34,8,2.9,8.54,3.93" fill="#016a16" stroke="#000" stroke-width="0.2"/><path d="M252.38,210.43c-1.36-3.07-26.62-8.53-31.74.51,2.05.52,3.92-1.7,3.92-1.7v2l3.25-2.73-1.2,2.73,2.56-2.22v2.22l3.42-3.42-.52,1.88,2.91-1.19-.35,1.7" fill="#016a16" stroke="#000" stroke-width="0.2"/><path d="M251.19,210.94c-6.49-4.26-16.39-1.36-16.39-1.36-6.48,3.41-9.89,2.9-10.58,9.56a13.26,13.26,0,0,0,2.22-2.39l1.37,2.56.34-3.59,1,2.9,1.71-4.77.34,3.24,2.39-3.24,1,1,1-2.56,1,1.71s1.71-1,2.56-.52l1.71-2,.51,1.53,1.71-1.7.51,1.19,1.54-1.36v1h5.12" fill="#016a16" stroke="#000" stroke-width="0.2"/><path d="M249.82,211.63c-4.6,0-17.58,5-20.82,9.9a20.29,20.29,0,0,1,2.22-1l.51,2.05.86-2.05.17,1.71c.51-1.37,1-1.37,2-.17l.35-1.88.51,1.71.85-1.88s.51,2,.85,2c0,0,1.37-3.76,2-3.93l.17,2.39.86-2.39.85,1.71v-2.39l1,1.71s.35-1.71,1-2l1.36,1.19,5.81-4.26" fill="#016a16" stroke="#000" stroke-width="0.2"/><path d="M250.68,212.82c-6,2.22-11.44,10.58-10.93,14,2.56-3.42,2.05-2.9,3.25,1,0,0,.34-3.41.85-3.75l.85,2.39.17-3.25h.86l-.17-1.87,1.19.85c-.34-1.2-.51-1.54.68-2.56,0,0-1.7.17-.34-2.56l1.2,1s-.34-1.19,0-1.7l4.43-1.37" fill="#016a16" stroke="#000" stroke-width="0.2"/><path d="M251.19,213.33,249,217.77l1.19.34L247.43,220l2.22-.17s-3.41,1.19-3.75,4.61l3.41-1.71s-2.9,3.07-3.41,4.95l2.22-1.71a6.69,6.69,0,0,0-1.71,5.12l1.54-1.7c-.35,3.92-.35,4.26,1.36,7.16,0,0-.34-4.43,0-5.12l3.93,4.1-2.05-5.63s2.39,3.41,3.75,3.24l-3.07-4.61,3.07,2.39-3.41-5.12,3.07,1s-2.22-2.9-2-4.78l2.22,2.39a11.82,11.82,0,0,1-.68-3.42l1.19.17-2.21-2.38,1.53-.35-.17-1.7,1-.17V214.7m-1.88,0c-3.76,5.12-1.88,12.8-4.1,16.9" fill="#016a16" stroke="#000" stroke-width="0.2"/></g><path d="M256.14,208c13.31-13.31,23.72-6.82,26.11-4.95-1.71.35-3.07-.68-3.93-.85l1.71,2a49.79,49.79,0,0,0-4.78-1.71,6.75,6.75,0,0,1,1.37,1.71c-.34,0-2.73-1.88-3.07-1.88a5.4,5.4,0,0,1,.85,2.56l-2-.85c-.51.34.17,1-.17,1-3.41-.34-8,2.9-8.53,3.93" fill="#016a16" stroke="#000" stroke-width="0.2"/><path d="M259.38,210.43c1.37-3.07,26.62-8.53,31.74.51-2,.52-3.92-1.7-3.92-1.7v2L284,208.56l1.19,2.73-2.56-2.22v2.22l-3.41-3.42.51,1.88-2.9-1.19.34,1.7" fill="#016a16" stroke="#000" stroke-width="0.2"/><path d="M260.58,210.94c6.48-4.26,16.38-1.36,16.38-1.36,6.48,3.41,9.9,2.9,10.58,9.56a13.64,13.64,0,0,1-2.22-2.39L284,219.31l-.34-3.59-1,2.9-1.71-4.77-.34,3.24-2.39-3.24-1,1-1-2.56-1,1.71s-1.7-1-2.56-.52l-1.7-2L270.3,213l-1.7-1.7-.52,1.19-1.53-1.36v1h-5.12" fill="#016a16" stroke="#000" stroke-width="0.2"/><path d="M261.94,211.63c4.61,0,17.58,5,20.82,9.9a20.29,20.29,0,0,0-2.22-1l-.51,2.05-.85-2.05-.17,1.71c-.51-1.37-1-1.37-2.05-.17l-.34-1.88-.51,1.71-.86-1.88s-.51,2-.85,2c0,0-1.37-3.76-2-3.93l-.17,2.39-.85-2.39-.86,1.71v-2.39l-1,1.71s-.34-1.71-1-2l-1.37,1.19-5.8-4.26" fill="#016a16" stroke="#000" stroke-width="0.2"/><path d="M261.09,212.82c6,2.22,11.43,10.58,10.92,14-2.56-3.42-2.05-2.9-3.24,1,0,0-.34-3.41-.86-3.75l-.85,2.39-.17-3.25H266l.17-1.87-1.2.85c.34-1.2.51-1.54-.68-2.56,0,0,1.71.17.34-2.56l-1.19,1s.34-1.19,0-1.7L259,215" fill="#016a16" stroke="#000" stroke-width="0.2"/><path d="M260.58,213.33l2.21,4.44-1.19.34,2.73,1.88-2.22-.17s3.41,1.19,3.76,4.61l-3.42-1.71s2.9,3.07,3.42,4.95L263.65,226a6.66,6.66,0,0,1,1.7,5.12l-1.53-1.7c.34,3.92.34,4.26-1.37,7.16,0,0,.34-4.43,0-5.12l-3.92,4.1,2.05-5.63s-2.39,3.41-3.76,3.24l3.07-4.61-3.07,2.39,3.41-5.12-3.07,1s2.22-2.9,2-4.78L257,224.43a11.82,11.82,0,0,0,.68-3.42l-1.19.17,2.22-2.38-1.54-.35.17-1.7-1-.17V214.7m1.88,0c3.75,5.12,1.87,12.8,4.09,16.9" fill="#016a16" stroke="#000" stroke-width="0.2"/><path d="M257.67,284.16s1.88-17.07,1.88-24.23c0-5.81-1.36-18.44-1.36-18.44h-5.64s-.85,12.63-.68,18.44c0,7.16,1.88,24.23,1.88,24.23Z" fill="#f1b517" stroke="#000" stroke-width="0.2"/><path d="M252,242.35h6.83l-.85-4.61h-4.95l-1,4.44Z" fill="#f1b517" stroke="#000" stroke-width="0.2"/><path d="M252.55,238.59h6l-1.2-4.61h-3.75l-1.2,4.61Z" fill="#f1b517" stroke="#000" stroke-width="0.2"/><path d="M252.9,235H258l-1-4.61h-3.24Z" fill="#f1b517" stroke="#000" stroke-width="0.2"/><path d="M257.16,229.89h-3.41l-.51,1.71h4.26Zm.68,50.69h-4.43m4.78-3.42h-5.12m5.8-3.41h-6.49m6.83-3.58h-6.83m6.83-3.76h-7m7.17-3.41h-7.51m7.51-2.9h-7.85m7.85-3.76h-7.85m7.68-3.58h-7.68m7.34-3.76h-7m6.66-3.41h-6.32" fill="#f1b517" stroke="#000" stroke-width="0.2"/><path d="M256,203.09c-1.37-.51-3.93-2.21-3.25-3.24l1.2-2c1.71-3.75,0-2.39,0-3.41-.34-1.37,6.48-.34,6.48,2.22,0,.85-.51.34-.34,4.44l-1.36,2.56a6,6,0,0,1-2.9-.35Z" fill="#0a328c" stroke="#0a328c" stroke-width="0.2"/><path d="M256.65,213.33l-1.71-1.53.52-12.12,1.7.51-.51,13Z" fill="#f1b517" stroke="#000" stroke-width="0.2"/><path d="M258.87,203.61c1-.69,1.71-2.56,1-3.59-1.7-2.22-2.9-1.36-5.8-2.39-.51.69-1.71,1.71-1.54,2.73,3.93,1.71,2.39.34,3.76.52.68,0,1,.85,2.56,2.56Z" fill="#d20014" stroke="#d20014" stroke-width="0.2"/><path id="c" d="M236.34,273.58c-.34-.85-1.71-1.54-3.41-1.54a3.88,3.88,0,0,0-3.42,1.54,1.56,1.56,0,0,1,0-.68c0-1.2,1.54-2,3.42-2,2,0,3.58.85,3.58,2a1.31,1.31,0,0,1,0,.68Z" fill="#016a16" stroke="#fff" stroke-linecap="round" stroke-width="0.2"/><path d="M236.17,276.14c0,2.05-1.54,3.92-3.24,3.92s-3.07-1.7-3.07-4.09v-2.05h6.31v2.22Z" fill="#016a16" stroke="#fff" stroke-linecap="round" stroke-width="0.2"/><ellipse cx="232.93" cy="273.24" rx="3.07" ry="1.54" fill="#fff"/><path d="M232.24,274.77l-.51-5.46h2.39l-.34,5.63h-1.54Z" fill="#016a16" stroke="#f1b517" stroke-width="0.2"/><path d="M236.34,273.24c-.34.85-1.71,1.53-3.41,1.53a3.87,3.87,0,0,1-3.42-1.53,1.56,1.56,0,0,0,0,.68c0,1.2,1.54,2.05,3.42,2.05,2,0,3.58-.85,3.58-2.05a1.31,1.31,0,0,0,0-.68Z" fill="#016a16" stroke="#fff" stroke-linecap="round" stroke-width="0.2"/><g id="d"><path d="M249.14,294.91l-11.95-3.75-5.29-9.05-18.6-.85.68,6.83,15.88,2.9,1.36,2.73,18.26,5.12Z" fill="#f1b517" stroke="#000" stroke-width="0.2"/><path d="M236.68,297.47l-19.11-28.16-.86.86,18.78,28Z" fill="#503200" stroke="#000" stroke-width="0.2"/><path d="M219.44,270.51l-2-3.42a1.22,1.22,0,0,0-1.88-.34c-.85.34-.68,1.2-.34,1.88l1.7,3.24Z" fill="#fff" stroke="#000" stroke-width="0.2"/><path d="M238.9,280.06l-38.4-3.92-1,5.63,38.23,3.93,1.19-5.64Z" fill="#f1b517" stroke="#000" stroke-width="0.2"/><path d="M199.65,274.77l-.86,7.68h1.71l1-7-1.7-.69Zm6.48,1.2-.34,7h1l.85-6-1.37-1ZM232.24,279l-1,6.49h1.88L234,279Zm5.64.17-1.2,7.51,2,.34.68-3.92a1.55,1.55,0,0,0,1.71,1.36,1.71,1.71,0,0,0,1.71-1.7,1.62,1.62,0,0,0-1.71-1.71,1.71,1.71,0,0,0-1.71,1l.51-2.73-2-.17Zm-13.66,1.2-5.46,6,.68.68,6.83-4.61-2.22-2Zm-12.63,14.84,5.29-6-.51-.68-6.82,4.61Zm13.83-1.53-6.32-5-.68.51,5.12,6.49,1.88-2Zm-15.87-11.44,6.65,4.78.68-.51-5.12-6.49-2.21,2.22Zm7.16-3.92.69,7.85h.85l2.05-7.68-3.59-.17Zm2,18.77-.51-7.68h-1L216,297.3h2.73Zm8.71-10.24-8.2.68v.86l8.2,1v-2.56ZM208,289.45l8-1.19v-.69l-8.19-.85v2.73Z" fill="#f1b517" stroke="#000" stroke-width="0.2"/><ellipse cx="217.91" cy="287.74" rx="2.22" ry="2.05" fill="#f1b517" stroke="#000" stroke-width="0.2"/><path d="M229.34,287.74a11.44,11.44,0,0,1-22.87,0h0a11.44,11.44,0,0,1,22.87,0Zm-2.22,0a9,9,0,0,1-9.21,8.88h0a9.05,9.05,0,0,1-9.22-8.87v-.18a9.23,9.23,0,0,1,18.43.17Z" fill="#f1b517" stroke="#000" stroke-linecap="round" stroke-width="0.2" fill-rule="evenodd"/><path d="M210.74,282.11,209,280.75m14.51,0,1.71-1.71m1.7,15.7-1.87-1.53m-14.34,3.24,1.71-1.71m37-18.09,1.88,10.24-1.54.68-1.7-10.75h1.36Z" fill="#f1b517" stroke="#000" stroke-width="0.2"/><path d="M248.46,275.46c-.86-.52-2.05.17-4.1-2.22-3.24,2.9,0,3.41.34,6.31.86.34,1.54-2.39,3.93-2.56l3.92-.34-.85-1.19h-3.24Z" fill="#fff" stroke="#000" stroke-width="0.2"/><path d="M249.82,277.33l-.34-2.9c-.51-1.19-1.7-.17-1.7.34l.34,2.91Z" fill="#fff" stroke="#000" stroke-width="0.2"/><path d="M240.27,285.7v2.73c-1,.34-.86,1-.86,2.05v8c-.17.68-1.19.68-1.7,1-.52.51-.35,1.37,1.7,1.71l1.71.17c2.56-.51,3.07-1.37,1.71-1.71-.52-.34-1.54-.68-1.71-1v-2.05h1.71c.34,0,1.19-1,1.19-1.88v-4.26c0-2.39-1.71-2.74-2.39-2.56V285.7Zm2.73,4.6c0-.68-1-1.36-1.37-1.36a1.93,1.93,0,0,0-1.19,1.54v1.7c0,.68.51,2.73,1.53,2.9a1.53,1.53,0,0,0,1-1.36V290.3Z" fill="#f1b517" stroke="#000" stroke-width="0.2" fill-rule="evenodd"/><path d="M229.17,294.06c-1.19-.34-1.19,2.05-1.19,2.05h1.7a1.65,1.65,0,0,1,1,2.05c-.51.34-3.76-.86-3.93,0,.52,3.24,4.95,4.43,6.49,3.07,1.53-1.54,1.88-5.12-3.07-6.32Zm1,1-.52,1" fill="#fff" stroke="#000" stroke-width="0.2"/><path d="M196.23,295.25l-1.7-6.82m3.58,6.48-2.56-5.29m6.83,3.93-5.63-3.07m8.19,2.38-10.58-4.6" fill="#f1b517" stroke="#000" stroke-width="0.2"/><path d="M188,283.31l-4.44.17c-.34.17.86,1.53.69,1.88-1,1.87-7.51,1.7-8,1.36-.86-.85,6-1.36,6.14-1.71,0-.68-1-2-.85-2.9,0-1.19,2.9-1.7,2.9-1.7l3.58,2.9Z" fill="#d20014" stroke="#d20014" stroke-width="0.2"/><path d="M193.16,286.72l-8.53-7.17s-.51-.34-.85,0a.47.47,0,0,0,0,.69l9.21,7.5.17-.85Z" fill="#503200" stroke="#000" stroke-width="0.2"/><path d="M201.7,293.89l-7.17-6.15L194,286l-1.37,1a4.46,4.46,0,0,0-1,1.37h1.87l6.15,5.8,1.87-.34Z" fill="#f1b517" stroke="#000" stroke-width="0.2"/><circle cx="226.1" cy="302.25" r="1.19" fill="#f1b517" stroke="#000" stroke-width="0.2"/><circle cx="222.86" cy="299.86" r="1.19" fill="#f1b517" stroke="#000" stroke-width="0.2"/><circle cx="218.59" cy="301.4" r="1.19" fill="#f1b517" stroke="#000" stroke-width="0.2"/><circle cx="211.94" cy="302.76" r="1.19" fill="#f1b517" stroke="#000" stroke-width="0.2"/><circle cx="209.03" cy="303.1" r="1.19" fill="#f1b517" stroke="#000" stroke-width="0.2"/><circle cx="206.13" cy="303.1" r="1.19" fill="#f1b517" stroke="#000" stroke-width="0.2"/><circle cx="203.4" cy="303.1" r="1.19" fill="#f1b517" stroke="#000" stroke-width="0.2"/><circle cx="204.77" cy="300.89" r="1.19" fill="#f1b517" stroke="#000" stroke-width="0.2"/><circle cx="207.5" cy="301.06" r="1.19" fill="#f1b517" stroke="#000" stroke-width="0.2"/><circle cx="210.06" cy="300.72" r="1.19" fill="#f1b517" stroke="#000" stroke-width="0.2"/><circle cx="208.86" cy="298.67" r="1.19" fill="#f1b517" stroke="#000" stroke-width="0.2"/><circle cx="206.13" cy="298.5" r="1.19" fill="#f1b517" stroke="#000" stroke-width="0.2"/><path d="M232.93,303.79c0-.51-1.37-.34-1.37-1s2.05,0,2.22.52c1.2-1,1.71-.35,2.39,0a2.08,2.08,0,0,1,3.41-.35,2.13,2.13,0,0,1,2.9.35c1.2-1,2.22-.86,2.91,0a.65.65,0,0,1,1.19,0c.51-1.2,2-.86,2.73,0,.51-.69,1.2-.18,1.88.17.51-.35,1.36-.35,1.36,0,0,.68-1,.51-1,1,0,.34.68,0,.68.68,0,.51-1,.69-1.19,0a1.29,1.29,0,0,1-2.05-.34,1.36,1.36,0,0,1-1.93.12l-.12-.12c-.51.34-1.19.34-1.36,0a1.85,1.85,0,0,1-2.9-.34h-.52a1.71,1.71,0,0,1-2.41.15l-.15-.15c-1.53,1-2.39.68-3.24,0-.85,1.19-2.39,1.19-2.56,0-.68.51-2.05.68-2.05,0,0-.34,1.2-.17,1.2-.68Zm2.73.17c0,.34-.34.51-.68.51s-.69-.17-.69-.51.17-.34.69-.34S235.66,303.79,235.66,304Zm3.24-.34c0,.34-.51.51-1,.51s-.86-.17-.86-.51c0-.17.34-.52.86-.52s.85.35.85.52Zm6,.34c0,.34-.34.51-.85.51s-.68-.17-.68-.51a.76.76,0,0,1,.68-.51C244.36,303.45,244.87,303.62,244.87,304Zm-3.24,0c0,.34-.34.51-.85.51s-.68-.17-.68-.68a.74.74,0,0,1,.68-.69c.34,0,.85.35.85.69Zm6.83,0a.54.54,0,0,1-.51.51.78.78,0,0,1-.86-.68c0-.34.34-.51.86-.51.34,0,.68.17.68.51Zm-2.05,0c0,.34,0,.51-.34.51a.45.45,0,0,1-.51-.51c0-.34.17-.34.51-.34Zm4.1.17c0,.34,0,.68-.52.68a.76.76,0,0,1-.51-.68.54.54,0,0,1,.51-.51A.45.45,0,0,1,250.51,304.13Z" fill="#f1b517" stroke="#000" stroke-width="0.2" fill-rule="evenodd"/></g><path d="M262.62,294.91l11.95-3.75,5.29-9.05,18.6-.85-.68,6.83L281.91,291l-1.37,2.73-18.26,5.12Z" fill="#f1b517" stroke="#000" stroke-width="0.2"/><path d="M275.08,297.47l19.12-28.16.85.86-18.77,28Z" fill="#503200" stroke="#000" stroke-width="0.2"/><path d="M292.32,270.51l2.05-3.42a1.21,1.21,0,0,1,1.87-.34c.86.34.69,1.2.35,1.88l-1.71,3.24Z" fill="#fff" stroke="#000" stroke-width="0.2"/><path d="M272.86,280.06l38.4-3.92,1,5.63-38.23,3.93-1.2-5.64Z" fill="#f1b517" stroke="#000" stroke-width="0.2"/><path d="M312.12,274.77l.85,7.68h-1.71l-1-7,1.71-.69Zm-6.49,1.2.34,7h-1l-.85-6,1.36-1ZM279.52,279l1,6.49h-1.87l-.86-6.49Zm-5.63.17,1.19,7.51-2.05.34-.68-3.92a1.55,1.55,0,0,1-1.71,1.36,1.7,1.7,0,0,1-1.7-1.7,1.61,1.61,0,0,1,1.7-1.71,1.71,1.71,0,0,1,1.71,1l-.51-2.73,2.05-.17Zm13.65,1.2,5.46,6-.68.68-6.83-4.61,2.22-2Zm12.63,14.84-5.29-6,.51-.68,6.83,4.61Zm-13.82-1.53,6.31-5,.68.51-5.12,6.49-1.87-2Zm15.87-11.44-6.66,4.78-.68-.51,5.12-6.49,2.22,2.22Zm-7.17-3.92-.68,7.85h-.86l-2-7.68,3.58-.17ZM293,297.13l.51-7.68h1l1.19,7.85H293Zm-8.7-10.24,8.19.68v.86l-8.19,1v-2.56Zm19.45,2.56-8-1.19v-.69l8.19-.85v2.73Z" fill="#f1b517" stroke="#000" stroke-width="0.2"/><ellipse cx="293.86" cy="287.74" rx="2.22" ry="2.05" fill="#f1b517" stroke="#000" stroke-width="0.2"/><path d="M282.42,287.74a11.44,11.44,0,0,0,22.87,0h0a11.44,11.44,0,0,0-22.87,0Zm2.22,0a9,9,0,0,0,9.21,8.88h0a9,9,0,0,0,9.21-8.87v-.18a9.23,9.23,0,0,0-18.43.17Z" fill="#f1b517" stroke="#000" stroke-linecap="round" stroke-width="0.2" fill-rule="evenodd"/><path d="M301,282.11l1.71-1.36m-14.51,0-1.7-1.71m-1.71,15.7,1.88-1.53M301,296.45l-1.7-1.71m-37-18.09-1.88,10.24,1.54.68,1.71-10.75h-1.37Z" fill="#f1b517" stroke="#000" stroke-width="0.2"/><path d="M263.31,275.46c.85-.52,2,.17,4.09-2.22,3.24,2.9,0,3.41-.34,6.31-.85.34-1.54-2.39-3.92-2.56l-3.93-.34.85-1.19h3.25Z" fill="#fff" stroke="#000" stroke-width="0.2"/><path d="M261.94,277.33l.34-2.9c.51-1.19,1.71-.17,1.71.34l-.34,2.91Z" fill="#fff" stroke="#000" stroke-width="0.2"/><path d="M271.5,285.7v2.73c1,.34.85,1,.85,2.05v8c.17.68,1.2.68,1.71,1,.51.51.34,1.37-1.71,1.71l-1.71.17c-2.56-.51-3.07-1.37-1.7-1.71.51-.34,1.53-.68,1.7-1v-2.05h-1.7c-.34,0-1.2-1-1.2-1.88v-4.26c0-2.39,1.71-2.74,2.39-2.56V285.7Zm-2.73,4.6c0-.68,1-1.36,1.36-1.36a1.94,1.94,0,0,1,1.2,1.54v1.7c0,.68-.51,2.73-1.54,2.9a1.52,1.52,0,0,1-1-1.36V290.3Z" fill="#f1b517" stroke="#000" stroke-width="0.2" fill-rule="evenodd"/><path d="M282.59,294.06c1.2-.34,1.2,2.05,1.2,2.05h-1.71a1.65,1.65,0,0,0-1,2.05c.51.34,3.75-.86,3.92,0-.51,3.24-5,4.43-6.48,3.07-1.54-1.54-1.88-5.12,3.07-6.32Zm-1,1,.51,1" fill="#fff" stroke="#000" stroke-width="0.2"/><path d="M315.53,295.25l1.71-6.82m-3.59,6.48,2.56-5.29m-6.82,3.93,5.63-3.07m-8.19,2.38,10.58-4.6" fill="#f1b517" stroke="#000" stroke-width="0.2"/><path d="M323.72,283.31l4.44.17c.34.17-.85,1.53-.68,1.88,1,1.87,7.51,1.7,8,1.36.85-.85-6-1.36-6.15-1.71,0-.68,1-2,.86-2.9,0-1.19-2.9-1.7-2.9-1.7l-3.59,2.9Z" fill="#d20014" stroke="#d20014" stroke-width="0.2"/><path d="M318.6,286.72l8.54-7.17s.51-.34.85,0a.48.48,0,0,1,0,.69l-9.22,7.5-.17-.85Z" fill="#503200" stroke="#000" stroke-width="0.2"/><path d="M310.07,293.89l7.17-6.15.51-1.7,1.36,1a4.38,4.38,0,0,1,1,1.37h-1.88l-6.14,5.8-1.88-.34Z" fill="#f1b517" stroke="#000" stroke-width="0.2"/><circle cx="285.66" cy="302.25" r="1.19" fill="#f1b517" stroke="#000" stroke-width="0.2"/><circle cx="288.91" cy="299.86" r="1.19" fill="#f1b517" stroke="#000" stroke-width="0.2"/><circle cx="293.17" cy="301.4" r="1.19" fill="#f1b517" stroke="#000" stroke-width="0.2"/><circle cx="299.83" cy="302.76" r="1.19" fill="#f1b517" stroke="#000" stroke-width="0.2"/><circle cx="302.73" cy="303.1" r="1.19" fill="#f1b517" stroke="#000" stroke-width="0.2"/><circle cx="305.63" cy="303.1" r="1.19" fill="#f1b517" stroke="#000" stroke-width="0.2"/><circle cx="308.36" cy="303.1" r="1.19" fill="#f1b517" stroke="#000" stroke-width="0.2"/><circle cx="307" cy="300.89" r="1.19" fill="#f1b517" stroke="#000" stroke-width="0.2"/><circle cx="304.27" cy="301.06" r="1.19" fill="#f1b517" stroke="#000" stroke-width="0.2"/><circle cx="301.71" cy="300.72" r="1.19" fill="#f1b517" stroke="#000" stroke-width="0.2"/><circle cx="302.9" cy="298.67" r="1.19" fill="#f1b517" stroke="#000" stroke-width="0.2"/><circle cx="305.63" cy="298.5" r="1.19" fill="#f1b517" stroke="#000" stroke-width="0.2"/><path d="M278.84,303.79c0-.51,1.36-.34,1.36-1s-2.05,0-2.22.52c-1.19-1-1.7-.35-2.39,0a2.08,2.08,0,0,0-3.41-.35,2.13,2.13,0,0,0-2.9.35c-1.2-1-2.22-.86-2.9,0a.66.66,0,0,0-1.2,0c-.51-1.2-2-.86-2.73,0-.51-.69-1.19-.18-1.87.17-.52-.35-1.37-.35-1.37,0,0,.68,1,.51,1,1,0,.34-.68,0-.68.68,0,.51,1,.69,1.2,0a1.28,1.28,0,0,0,2-.34,1.36,1.36,0,0,0,1.93.12l.12-.12c.51.34,1.2.34,1.37,0a1.85,1.85,0,0,0,2.9-.34h.51a1.71,1.71,0,0,0,2.41.15l.15-.15c1.54,1,2.39.68,3.24,0,.86,1.19,2.39,1.19,2.56,0,.69.51,2,.68,2,0,0-.34-1.19-.17-1.19-.68Zm-2.73.17c0,.34.34.51.68.51s.68-.17.68-.51-.17-.34-.68-.34S276.11,303.79,276.11,304Zm-3.25-.34c0,.34.52.51,1,.51s.85-.17.85-.51c0-.17-.34-.52-.85-.52s-.86.35-.86.52Zm-6,.34c0,.34.34.51.85.51s.69-.17.69-.51a.77.77,0,0,0-.69-.51C267.4,303.45,266.89,303.62,266.89,304Zm3.24,0c0,.34.34.51.86.51s.68-.17.68-.68a.74.74,0,0,0-.68-.69c-.35,0-.86.35-.86.69Zm-6.82,0a.54.54,0,0,0,.51.51.78.78,0,0,0,.85-.68c0-.34-.34-.51-.85-.51-.34,0-.68.17-.68.51Zm2,0c0,.34,0,.51.35.51a.45.45,0,0,0,.51-.51c0-.34-.17-.34-.51-.34Zm-4.09.17c0,.34,0,.68.51.68a.76.76,0,0,0,.51-.68.54.54,0,0,0-.51-.51A.45.45,0,0,0,261.26,304.13Z" fill="#f1b517" stroke="#000" stroke-width="0.2" fill-rule="evenodd"/><path d="M255.63,282.8c-4.27,0-7.68,1.7-7.68,3.58a1.25,1.25,0,0,0,.34,1c.85,1,3.92,1.71,7.51,1.71,3.41,0,6.14-.51,7.16-1.54a1.52,1.52,0,0,0,.52-1.19c0-1.88-3.42-3.41-7.85-3.41Z" fill="#0a328c" stroke="#0a328c" stroke-width="0.2"/><path d="M263.48,286.72v11.95c0,1.53-3.42,2.56-7.68,2.56s-7.85-1-7.85-2.56V286.72c0,1.37,3.41,2.56,7.68,2.56C260.06,289.28,263.48,288.09,263.48,286.72Z" fill="#f1b517" stroke="#000" stroke-width="0.2"/><path d="M248,286.72v1.71l3.75,11.94,3.07-9.21,3.42,9.38,2.21-8.87,3.08,6V294.4l-2.73-5.8c-.34.12-.68.24-1,.34l-1.7,6.48-2.56-6.14q-.6,0-1.2,0l-2.56,6.14-2.73-7.5a1.65,1.65,0,0,1-1-1.2Z" fill="#d20014" stroke="#d20014" stroke-width="0.2"/><path d="M263.48,296.45v2.22c0,1.53-3.42,2.56-7.68,2.56s-7.85-1-7.85-2.56v-2.22c0,1.53,3.41,2.56,7.68,2.56C260.06,299,263.48,298,263.48,296.45Z" fill="#0a328c" stroke="#0a328c" stroke-width="0.2"/><path d="M258.87,298.67,257,299v2.22l2.05-.17v-2.22Zm-8.19-.17v2.22l1.87.34v-2.22A16.63,16.63,0,0,1,250.68,298.5ZM248,296.45v2.22c0,.51.34.85.85,1.19v-2.22C248.29,297.3,248,297,248,296.45Zm15.53.34c0,.34-.69.85-1.37,1.19v2.22c.85-.34,1.37-.85,1.37-1.53v-1.88Z" fill="#f1b517" stroke="#000" stroke-width="0.2"/><path d="M263.48,286.72v11.95c0,1.53-3.42,2.56-7.68,2.56s-7.85-1-7.85-2.56V286.72" fill="none" stroke="#000" stroke-width="0.2"/><path d="M261.77,285.87c0,.85-2.73,1.7-6,1.7-3.42,0-6.15-.85-6.15-1.7s2.73-1.54,6-1.54c3.41,0,6.14.68,6.14,1.71Z" fill="#fff" stroke="#fff" stroke-width="0.2"/><path d="M253.75,287.06l.34,2.05h1.71l.17-2.05Zm7-.51-1.71.34.17,2.05,1.71-.34v-1.88Zm-9.22-3.41-1.19.51.17,1.71,1-.35v-1.87Zm4.1-.52h-.52l.35,2.05h1l.34-2.05Zm4.6.69-.17,1.7,1.2.52v-1.71a9,9,0,0,0-1-.51Zm-11.09,4.78.34-2.22-1.7-.86v2.56Zm14.34-.52v-2.21l-1.37.51Zm15.87-14.5c1.36,0,3.41,1.7,3.58,4.26,0,1.71-2.9,1.71-2.9,1.71,0,.85-1.71,1.54-3.07,1.71-1.37,0,.34-2.56.34-2.56a6.43,6.43,0,0,1,.34-4.61l1.71-.51Z" fill="#f1b517" stroke="#000" stroke-width="0.2"/><path d="M277.3,278.19h1.37s0,.51.34.51.51-.68.51-.68h2.05" fill="#f1b517" stroke="#000" stroke-width="0.2"/><path d="M280,274.6c1.2-.85.17-2.56-.68-2.56h-1.71c-1,0-2.39,1-2.22,1.71a1,1,0,0,0,1.37,1c.34,0,1-1,1.36-1C278.67,273.75,279.86,274.77,280,274.6Z" fill="#d20014" stroke="#f1b517" stroke-width="0.2"/><path d="M194.87,298.33c-1,.17-1.2,1.36-.85,2.56-4.44,1.19-8.54,2.9-12.63,4.09-.17-.85,2-3.07,2-3.07.52.17,1,1.54,1,1.54,0-2.73,2.73-4.44,2.73-4.44-1.71-.34-6.32,1.71-6.83,2.39,0,0,1.71-.34,2,0,0,0-3.75,3.92-3.93,5.12.69,1.19,6.83,2.22,6.83,2.22,0,.34-1.71,1.7-1.71,1.7a11.39,11.39,0,0,0,7.34-2.39,10.86,10.86,0,0,1-5.12-2.21s.34,1.19,0,1.7c0,0-3.41-1-3.92-1.7,0,0,8.53-2,12.63-3.42.17.86,1,2.22,2.05,1.88.51-.17.34-1.37,0-2.39a1.37,1.37,0,0,0,1,.34,1.2,1.2,0,0,0,0-2.39,1.37,1.37,0,0,0-1.2.86c-.17-.86-.68-2.39-1.36-2.22Zm3.41,2.73c0,.34-.34.51-.68.51a.51.51,0,0,1-.65-.31.36.36,0,0,1,0-.2.74.74,0,0,1,.68-.69c.34,0,.51.35.51.69Z" fill="#f1b517" stroke="#000" stroke-width="0.2" fill-rule="evenodd"/><path d="M329.35,303.62c.35-.69,0-3.76,0-3.76-.85,0-1.7,1.2-1.7,1.2.85-2.73-1.37-6.83-1.37-6.83,1.54.17,6.66,5.12,6.83,6.14a9.28,9.28,0,0,0-2.56-.68c.51,2.56,2.22,3.76,2.9,5.12,0,0-2.9.51-2.73,3.07h-1.88c-.68-.85.17-2.22.17-2.22l-13.14-5.46c-.85-.34-2.73-1.36-2.39-2.39.17-.85,3.42.52,4.1.86l11.95,4.95Z" fill="#f1b517" stroke="#000" stroke-width="0.2"/><path d="M316.72,301.23l1.71-2.73c.51-.86-.68-1.71-1.53-.69l-1.71,2.56c-.68,1.54.85,1.88,1.71.86Z" fill="#f1b517" stroke="#000" stroke-width="0.2"/><path d="M224.2,307.8l-.1-3-3.8.1-.2,3.4Z" fill="#fff" stroke="#000" stroke-width="0.3"/><path d="M196.7,312.2l-5-2.8c20.7,1.9,25-5.4,30-5.8,3-.2,3.5,3.4-2.4,1.7l1.5,3.8s-14.8,8.3-29.2,5l5-2Zm90.5-4.4v-3h4.7l.2,3.4-5-.4Z" fill="#fff" stroke="#000" stroke-width="0.3"/><path d="M315.6,311.4l4.8-2.6c-23.8.8-18.4-3.9-30.3-5.2-3-.3-5.4,3.7,2.4,1.7l-1.5,3.8h3.7a35,35,0,0,0,26.3,4.1Z" fill="#fff" stroke="#000" stroke-width="0.3"/><path d="M219.2,305.3v5.4s13.2,5,36.7,5,36.7-5,36.7-5v-5.4s-10,4.6-36.7,4.6-36.7-4.6-36.7-4.6Z" fill="#fff" stroke="#000" stroke-width="0.3"/><path d="M221.1,310.8l1.2-4,.5.2-1,3.4,2,.6-.1.5-2.6-.8ZM225,309v-.8l.2-.6.6.1-.2.7-.3.7H225Zm5.6-.3.6.2-.5,2.3a1.78,1.78,0,0,1-.4,1l-.6.4a2.11,2.11,0,0,1-1,0,2,2,0,0,1-1-.4,1.11,1.11,0,0,1-.3-.6v-1l.5-2.4.6.1-.5,2.3c-.1.4-.1.7,0,.8s0,.4.2.5l.5.2h1a1.88,1.88,0,0,0,.4-1Zm.6,4.3.7-4h.6l1.7,3.6.5-3.2.5.1-.7,4H234l-1.7-3.6-.5,3.2h-.6Zm4.4.7.6-4h.5l-.6,4Zm1.6-1.8a2.21,2.21,0,0,1,.7-1.5,2,2,0,0,1,1.6-.4,1.69,1.69,0,0,1,1,.3,1.8,1.8,0,0,1,.6.9,2,2,0,0,1,.1,1.1,2.42,2.42,0,0,1-.4,1,1.34,1.34,0,0,1-.8.7,2.29,2.29,0,0,1-1,.2,2,2,0,0,1-1-.4,1.27,1.27,0,0,1-.7-.9,2.25,2.25,0,0,1-.1-1Zm.6,0a1.72,1.72,0,0,0,.2,1.3,1.39,1.39,0,0,0,1,.5,1.43,1.43,0,0,0,1.1-.3,1.5,1.5,0,0,0,.5-1.2,2,2,0,0,0,0-.9,1.28,1.28,0,0,0-.5-.6,1.38,1.38,0,0,0-.7-.3,1.21,1.21,0,0,0-1,.3,1.38,1.38,0,0,0-.6,1.3Zm3.9,2.5.3-4.1h.6l2,3.4.2-3.2h.6l-.4,4.2h-.5l-2-3.5-.3,3.2Zm6,.4.1-4.1,3,.1-.1.5h-2.3v1.2h2l-.1.5h-2v1.8Zm3,.1,1.8-4h.6l1.7,4.1h-.7l-.5-1.3H252l-.5,1.3h-.6Zm1.3-1.6h1.5l-.4-1.1q-.16-.45-.3-.9c0,.3-.2.5-.3.8Zm3.3,1.7v-4.1h.6V315Zm2.6,0v-3.6h-1.4v-.5h3.3v.4h-1.4l.1,3.7Zm4.2-.1-.2-4.1h.6l.1,3.6,2.1-.1v.5h-2.6Zm2.9-.1,1.3-4.2h.6l2,3.9h-.6l-.6-1.2-1.8.2-.3,1.2H265Zm1-1.8h1.5l-.5-1.2c-.14-.26-.28-.53-.4-.8a5.51,5.51,0,0,1-.2.8l-.3,1.2Zm5,1.3-.4-4,2.8-.4v.5l-2.2.3.1,1.2,2-.2v.5l-1.9.2.2,1.8-.5.1Zm3.2-2.3a2.29,2.29,0,0,1,.3-1.7,1.88,1.88,0,0,1,2.4-.6,1.15,1.15,0,0,1,.9.6,2.49,2.49,0,0,1,.3,2.2,1.7,1.7,0,0,1-.6.8,2.11,2.11,0,0,1-1,.4,2,2,0,0,1-1.1-.1,1.88,1.88,0,0,1-.8-.7,2.3,2.3,0,0,1-.4-1Zm.5-.1c.1.5.3.9.6,1a1.5,1.5,0,0,0,1.1.4,1.33,1.33,0,0,0,1-.6,1.72,1.72,0,0,0,.2-1.3,1.9,1.9,0,0,0-.3-.8,1.28,1.28,0,0,0-.6-.5,1.37,1.37,0,0,0-.8-.1,1.39,1.39,0,0,0-1,.5,2.07,2.07,0,0,0-.1,1.4Zm4.5,1.4-.8-4,1.9-.4h.9a.55.55,0,0,1,.5.3.6.6,0,0,1,.3.6,1,1,0,0,1-.2.7,1.23,1.23,0,0,1-.8.5l.4.2.6.4.9,1-.7.1-.7-.7-.5-.5a1.21,1.21,0,0,0-.3-.2.76.76,0,0,0-.3,0h-1l.4,1.9h-.6Zm.1-2.4,1.2-.2c.3,0,.5,0,.6-.2a.61.61,0,0,0,.3-.6.6.6,0,0,0-.3-.5h-.7l-1.3.2.2,1.3Zm6.7-.4h.6a1.5,1.5,0,0,1-.4,1.1,1.7,1.7,0,0,1-1,.6,2.05,2.05,0,0,1-1.1,0,1.69,1.69,0,0,1-.9-.7,2.57,2.57,0,0,1-.4-1v-1.1a1.05,1.05,0,0,1,.5-.9,2,2,0,0,1,1-.4,1.89,1.89,0,0,1,1,0,1.76,1.76,0,0,1,.9.8l-.5.2a1.28,1.28,0,0,0-.6-.5,1.19,1.19,0,0,0-.7,0,1,1,0,0,0-1.1,1,2.51,2.51,0,0,0,.4,1.6,1.33,1.33,0,0,0,.6.5,2.15,2.15,0,0,0,.8,0,.75.75,0,0,0,.7-.4.78.78,0,0,0,.2-.8Zm1.6,1-1.1-3.9,3-.8v.5l-2.4.7.4,1.2,2.2-.6.2.4-2.3.6.4,1.4,2.5-.7.2.5-3,.8Z"/></svg>