<svg id="flag-icons-io" xmlns="http://www.w3.org/2000/svg" xmlns:xlink="http://www.w3.org/1999/xlink" viewBox="0 0 1024 512"><defs><clipPath id="clip-path"><rect width="512" height="512" fill="none"/></clipPath></defs><title>io</title><g clip-path="url(#clip-path)"><path d="M0,0H1024V512H0Z" fill="#fff" fill-rule="evenodd"/><path d="M1024,445.2c-11.5,7-21.3,23-51.8,23-61,0-76.2-33.9-122-33.9-30.4,0-45.6,34-76.1,34-61,0-76.2-34-122-34-30.4,0-45.6,34-76.1,34-61,0-76.2-34-122-34-30.4,0-45.6,34-76.1,34-61,0-76.2-34-121.9-34-30.5,0-45.7,34-76.2,34-61,0-76.2-34-121.9-34-30.5,0-39.6,24.2-57.9,24.2v43.7c18.3,0,27.4-24.2,57.9-24.2,45.7,0,61,34,121.9,34,30.5,0,45.7-34,76.2-34,45.7,0,61,34,121.9,34,30.5,0,45.7-34,76.2-34,45.7,0,61,34,121.9,34,30.5,0,45.7-34,76.2-34,45.7,0,61,34,121.9,34,30.4,0,45.7-34,76.2-34,45.7,0,61,34,121.9,34,30.4,0,40.3-9.6,51.8-16.5V445.2Zm0-84.9c-11.5,7-21.3,23-51.8,23-61,0-76.2-34-122-34-30.4,0-45.6,34-76.1,34-61,0-76.2-34-122-34-30.4,0-45.6,34-76.1,34-61,0-76.2-34-122-34-30.4,0-45.6,34-76.1,34-61,0-76.2-34-121.9-34-30.5,0-45.7,34-76.2,34-61,0-76.2-34-121.9-34-30.5,0-39.6,24.3-57.9,24.3v43.7c18.3,0,27.4-24.2,57.9-24.2,45.7,0,61,34,121.9,34,30.5,0,45.7-34,76.2-34,45.7,0,61,34,121.9,34,30.5,0,45.7-34,76.2-34,45.7,0,61,34,121.9,34,30.5,0,45.7-34,76.2-34,45.7,0,61,34,121.9,34,30.4,0,45.7-34,76.2-34,45.7,0,61,34,121.9,34,30.4,0,40.3-9.6,51.8-16.5V360.3Zm0-84.9c-11.5,7-21.3,23-51.8,23-61,0-76.2-34-122-34-30.4,0-45.6,34-76.1,34-61,0-76.2-34-122-34-30.4,0-45.6,34-76.1,34-61,0-76.2-34-122-34-30.4,0-45.6,34-76.1,34-61,0-76.2-34-121.9-34-30.5,0-45.7,34-76.2,34-61,0-76.2-34-121.9-34-30.5,0-39.6,24.3-57.9,24.3v43.7c18.3,0,27.4-24.2,57.9-24.2,45.7,0,61,34,121.9,34,30.5,0,45.7-34,76.2-34,45.7,0,61,34,121.9,34,30.5,0,45.7-34,76.2-34,45.7,0,61,34,121.9,34,30.5,0,45.7-34,76.2-34,45.7,0,61,34,121.9,34,30.4,0,45.7-34,76.2-34,45.7,0,61,34,121.9,34,30.4,0,40.3-9.7,51.8-16.6V275.4Zm0-85c-11.5,7-21.3,23.1-51.8,23.1-61,0-76.2-34-122-34-30.4,0-45.6,34-76.1,34-61,0-76.2-34-122-34-30.4,0-45.6,34-76.1,34-61,0-76.2-34-122-34-30.4,0-45.6,34-76.1,34-61,0-76.2-34-121.9-34-30.5,0-45.7,34-76.2,34-61,0-76.2-34-121.9-34-30.5,0-39.6,24.3-57.9,24.3v43.7c18.3,0,27.4-24.2,57.9-24.2,45.7,0,61,34,121.9,34,30.5,0,45.7-34,76.2-34,45.7,0,61,34,121.9,34,30.5,0,45.7-34,76.2-34,45.7,0,61,34,121.9,34,30.5,0,45.7-34,76.2-34,45.7,0,61,34,121.9,34,30.4,0,45.7-34,76.2-34,45.7,0,61,34,121.9,34,30.4,0,40.3-9.7,51.8-16.6V190.4Zm0-84.8c-11.5,6.9-21.3,23-51.8,23-61,0-76.2-34-122-34-30.4,0-45.6,34-76.1,34-61,0-76.2-34-122-34-30.4,0-45.6,34-76.1,34-61,0-76.2-34-122-34-30.4,0-45.6,34-76.1,34-61,0-76.2-34-121.9-34-30.5,0-45.7,34-76.2,34-61,0-76.2-34-121.9-34-30.5,0-39.6,24.2-57.9,24.2v43.8c18.3,0,27.4-24.2,57.9-24.2,45.7,0,61,34,121.9,34,30.5,0,45.7-34,76.2-34,45.7,0,61,34,121.9,34,30.5,0,45.7-34,76.2-34,45.7,0,61,34,121.9,34,30.5,0,45.7-34,76.2-34,45.7,0,61,34,121.9,34,30.4,0,45.7-34,76.2-34,45.7,0,61,34,121.9,34,30.4,0,40.3-9.7,51.8-16.6V105.6Zm0-85c-11.5,7-21.3,23.1-51.8,23.1-61,0-76.2-34-122-34-30.4,0-45.6,34-76.1,34-61,0-76.2-34-122-34-30.4,0-45.6,34-76.1,34-61,0-76.2-34-122-34-30.4,0-45.6,34-76.1,34-61,0-76.2-34-121.9-34-30.5,0-45.7,34-76.2,34-61,0-76.2-34-121.9-34C27.4,9.7,18.3,34,0,34V77.8c18.3,0,27.4-24.2,57.9-24.2,45.7,0,61,34,121.9,34,30.5,0,45.7-34,76.2-34,45.7,0,61,34,121.9,34,30.5,0,45.7-34,76.2-34,45.7,0,61,34,121.9,34,30.5,0,45.7-34,76.2-34,45.7,0,61,34,121.9,34,30.4,0,45.7-34,76.2-34,45.7,0,61,34,121.9,34,30.4,0,40.3-9.7,51.8-16.6V20.6Z" fill="#000063" fill-rule="evenodd"/><path d="M0,0H261.3V158H0Z" fill="#000063" fill-rule="evenodd"/><path d="M0,0V17.7L232.1,158h29.2V140.3L29.3.1H0ZM261.3,0V17.7L29.3,158H0V140.3L232.1.1h29.2Z" fill="#fff"/><path d="M108.9,0V158h43.5V0H108.9ZM0,52.8v52.6H261.3V52.7H0Z" fill="#fff"/><path d="M0,63.2V94.8H261.3V63.2ZM117.6,0V158h26.1V0ZM0,158l87.1-52.7h19.5L19.5,158ZM0,0,87.1,52.7H67.6L0,11.8V0ZM154.7,52.7,241.8.1h19.5L174.2,52.7ZM261.3,158l-87-52.7h19.4l67.6,40.9Z" fill="#c00"/><path d="M379.82,119.75l-3.68,347.41c0,18.28,16.53,18.28,18.29,0l-3.65-347.41Z" fill="#a24300" stroke="#fff" stroke-width="6.9" fill-rule="evenodd"/><path d="M417.7,249l-11.53-12.63-2.83,12.76-5-18.47-4.67,9.29-.84-19.66-4.65,9.31-.84-19.67-4.67,9.29L380,196.05l-4.66,9.31-2.67-23.11L368,191.54l-2.67-23.12L364,156.85l2.34-4.64,6,2.25,9.67,9.18L401.36,182l-12-4.51,19.34,18.34-12-4.54L416,209.62l-12-4.52L421.53,220l-12-4.54L427,230.35l-12-4.52,13.3,16.07-13.84-8,3.15,15Z" fill="#006d00" stroke="#fff" stroke-width="8.3" fill-rule="evenodd"/><path d="M417.7,249l-51.34-96.73m35,29.74L373.67,166,368,191.54" fill="none" stroke="#000"/><path d="M408.7,195.81,381,179.86l-5.67,25.5" fill="none" stroke="#000"/><path d="M416,209.62l-27.7-16-5.66,25.5" fill="none" stroke="#000"/><path d="M421.53,220l-25.86-12.5-7.49,22.06" fill="none" stroke="#000"/><path d="M427,230.37l-25.87-12.52-7.5,22.05" fill="none" stroke="#000"/><path d="M428.33,241.9l-23.46-17.14-1.56,24.31" fill="none" stroke="#000"/><path d="M282.85,84l18.81,7.15-5.48-14.21,16.43,16.18-1.55-11.6,13.29,19.39-1.57-11.61,13.29,19.38-1.54-11.6,17.2,22-1.57-11.61,17.2,22-1.55-11.59,17.2,22,8.61,11,.78,5.8-7.06.63-14.88-4.58-29.74-9.14,14.09-1.23-29.74-9.15,14.11-1.22-29.74-9.14,14.08-1.24L297.7,115l14.1-1.22L286,107.2,300.05,106,277.4,96.2l18,1.37L282.91,84Z" fill="#006d00" stroke="#fff" stroke-width="8.3" fill-rule="evenodd"/><path d="M282.85,84l109.51,72.6m-51.61-13.07,36,2.69-10.93-28.39" fill="none" stroke="#000"/><path d="M325.07,133.12l36,2.71-10.93-28.39" fill="none" stroke="#000"/><path d="M309.44,122.76l36,2.71-10.93-28.4" fill="none" stroke="#000"/><path d="M297.7,115l32.11.12-7-25.8" fill="none" stroke="#000"/><path d="M286,107.18l32.13.14-7-25.81" fill="none" stroke="#000"/><path d="M277.4,96.2l32.83,5.94-14-25.21" fill="none" stroke="#000"/><path d="M501.25,108.23,485.61,119.7l17.27,1.91-24.09,5.71,12.84,3.83-26.09,1.9,12.86,3.81-26.09,1.9,12.84,3.82-30.51,3.81,12.86,3.81L417,154l12.84,3.82-30.51,3.81-15.26,1.91-6.42-1.92,2.39-5.74,11.25-9.54,22.47-19.07L409,138.72l22.47-19.07-4.83,11.45L449.06,112l-4.8,11.45,18.06-17.17-4.83,11.45,18.06-17.16L470.75,112,490.8,98.72l-9.24,13.36,19.69-3.79Z" fill="#006d00" stroke="#fff" stroke-width="8.3" fill-rule="evenodd"/><path d="M501.25,108.23,377.66,161.6m36.07-34.31L395.32,154l34.52,3.83" fill="none" stroke="#000"/><path d="M431.42,119.65,413,146.38l34.52,3.82" fill="none" stroke="#000"/><path d="M449.06,112l-18.44,26.73,34.53,3.82" fill="none" stroke="#000"/><path d="M462.32,106.31l-14,24.82,30.11,5.73" fill="none" stroke="#000"/><path d="M475.57,100.59l-14.05,24.83,30.11,5.73" fill="none" stroke="#000"/><path d="M490.8,98.72l-20.45,22.85,32.52.07" fill="none" stroke="#000"/><path d="M498.75,223.83l-19.49-5.63,7,13.71L468.15,217.1l2.78,11.43-15.31-18.25,2.81,11.44-15.32-18.25,2.79,11.42-19.49-20.52,2.81,11.44-19.49-20.52,2.79,11.43L393,176.2l-9.76-10.27-1.39-5.71,7-1.2,15.31,3.39,30.59,6.74-13.89,2.35,30.59,6.75-13.91,2.33,30.59,6.75-13.89,2.35,26.42,4.47-13.92,2.34L493.16,201l-13.89,2.34,23.6,7.93-18.08.06,13.91,12.56Z" fill="#006d00" stroke="#fff" stroke-width="8.3" fill-rule="evenodd"/><path d="M498.75,223.83,381.92,160.21m52.8,8.93-36.14.17,13.94,27.41" fill="none" stroke="#000"/><path d="M451.44,178.25l-36.16.15,13.94,27.41" fill="none" stroke="#000"/><path d="M468.12,187.33l-36.16.16,13.94,27.4" fill="none" stroke="#000"/><path d="M480.65,194.15l-32,2.43,9.77,25.14" fill="none" stroke="#000"/><path d="M493.18,201l-32,2.41,9.76,25.14" fill="none" stroke="#000"/><path d="M502.87,211.24l-33.32-3.31,16.65,24" fill="none" stroke="#000"/><path d="M295.77,230.53l9.77-13.68L290.63,219l18.42-10.46L297.29,208l21.16-7.52L306.67,200l21.17-7.52L316.08,192l24.29-10.19-11.78-.52,24.3-10.19-11.76-.53,24.29-10.19,12.16-5.11,5.88.27-.36,5.63-6.66,11-13.28,22,.75-11.24-13.29,22,.78-11.25-13.29,22,.75-11.24L328.7,223.54l.77-11.25-10.15,19.28.75-11.23-12.91,16.3,3.9-13.92-15.3,7.76Z" fill="#006d00" stroke="#fff" stroke-width="8.3" fill-rule="evenodd"/><path d="M295.77,230.53l87.69-75m-20.29,38.53,7.76-27.84-29.8,4.31" fill="none" stroke="#000"/><path d="M350.62,204.79l7.77-27.86-29.8,4.31" fill="none" stroke="#000"/><path d="M338.11,215.5l7.77-27.86L316.08,192" fill="none" stroke="#000"/><path d="M328.7,223.54l4.64-25.18L306.67,200" fill="none" stroke="#000"/><path d="M319.3,231.59l4.66-25.2L297.29,208" fill="none" stroke="#000"/><path d="M307.16,236.64l10.54-24.86L290.63,219" fill="none" stroke="#000"/><path d="M473,50.55,454.08,63.2,451,49.63,439.85,68.39l-2-9-9.09,19.24-1.26-8.87-7.08,19.72-4-9.5-7.1,24-4-9.52-7.09,24-4-9.5-7.1,24-3.56,12,2,4.75,7.61-2.48,13.15-9.74L432.51,118l-15.16,5,26.29-19.46-15.17,5L454.76,89l-15.15,5,26.27-15.18L448,83.14l28.3-14.7L459,72.92l20.77-16.49L461.86,65Z" fill="#006d00" stroke="#fff" stroke-width="8.3" fill-rule="evenodd"/><path d="M465.65,57.36,438.34,80.85l-52.88,68.8" fill="none" stroke="#000"/><path d="M426.75,120.89,396.6,135.16l-2.52-22" fill="none" stroke="#000"/><path d="M438.33,106.53l-30.6,14.15-2.53-22" fill="none" stroke="#000"/><path d="M449.22,92l-30.37,14.22-2.3-21.93" fill="none" stroke="#000"/><path d="M458.26,81.31,430,91.72l-3.26-17.88" fill="none" stroke="#000"/><path d="M468.68,70.92l-30.36,10-1.17-17.39" fill="none" stroke="#000"/><path d="M472.73,61.11,444.64,75.48l5.45-21.79" fill="none" stroke="#000"/><path d="M370.64,26.83,379.1,46.1,390,35.91l-1.88,21,7.21-6.79-3.93,20.49,6.46-7-5.93,20,9.21-6.29L392.6,101l9.21-6.31-8.51,23.64,9.21-6.29L394,135.63l-4.25,11.83-4.61,3.15-5-5.52-5.31-14.21L364.24,102.5l9.91,11L363.54,85.15l9.91,11.06L362.83,67.82l9.92,11-13.2-24.74,12.67,11.74L357,40.63l12,11.54-7.71-23.38,10.09,15.39Z" fill="#006d00" stroke="#fff" stroke-width="8.3" fill-rule="evenodd"/><path d="M372.78,35.94l9,32.28,3.33,82.39" fill="none" stroke="#000"/><path d="M367.38,107.57l17.06,25.69,15.49-17.62" fill="none" stroke="#000"/><path d="M366.22,90.13l17.52,25.78,15.49-17.6" fill="none" stroke="#000"/><path d="M365.77,72.84,383,98.58l15.27-17.67" fill="none" stroke="#000"/><path d="M364.54,59.67l17.8,21.56L396,67.44" fill="none" stroke="#000"/><path d="M362,46.14l19.85,22.1,11.56-14.31" fill="none" stroke="#000"/><path d="M364.46,36l15.23,24.85,8.59-21" fill="none" stroke="#000"/><path d="M257.43,168.54l24.68-17.09-12.37-6.37,21.62,3.7L284,139l21,7.87-7.43-9.8,21,7.84-7.41-9.78,25.33,8.58L329,133.9l24.72,12.74-7.44-9.79,25.33,8.58L384,151.8l3.7,4.89-4.93,3.44-13.59,1.93-21.92,9,4-7.82-27.16,3.87,9.86-6.83-27.77,8,9.86-6.83-23.46,8.79,10.5-11-24.07,12.93,10.48-11L269.8,174.91l11.09-15.15-23.46,8.78Z" fill="#006d00" stroke="#fff" stroke-width="8.3" fill-rule="evenodd"/><path d="M265.24,163.94l25.51-11L304.34,151l11.34-.2L335.21,152l17.63.75,34.86,3.93" fill="none" stroke="#000"/><path d="M350.65,167.41l19.53-12-19.89-15.59" fill="none" stroke="#000"/><path d="M328.78,165.65l24-12.9L333,137.17" fill="none" stroke="#000"/><path d="M313.17,165.27l22-13.28-20-14.46M284,168.8,304.34,151l-16.41-9" fill="none" stroke="#000"/><path d="M275,170l15.8-17.09-12.6-4.68m19.4,18.61,20.13-16-16.16-10.94" fill="none" stroke="#000"/><path d="M340.36,355.72l-.23-28.81-8.34-13.45c-2.09-6.61-1.07-9.81,2.32-10s6.72,1.71,11.58,1.92,3.95-7.47,11.13-7.25,19.71,4.06,30.37,4.7,16.22-3.42,28.52-3.85,15.53,5.33,16.22,5.33,4.18-2.34,7.65-2.76,4.65,1.28,4.65,1.28-.24,7.25-1.86,11.52-7.42,11.31-7.65,11.31-2.09,31.37-2.09,31.59S340.36,356.36,340.36,355.72Z" fill="#c00" stroke="#000" fill-rule="evenodd"/><path d="M435.8,326.2s9.29-6.54,9.54-22.27c.13-9.05-4.7-15.59-16.8-15.59-16.94,0-41.13,6.68-41.13,6.68v2.23a141.85,141.85,0,0,1,41.14-6.68c9.67,0,14.52,6.54,14.52,13.23,0,11.14-9.7,22.41-9.7,22.41V344h2.43Z" fill="#fff100" stroke="#000" fill-rule="evenodd"/><path d="M440.86,321.55a2.43,2.43,0,1,0,2.42-2.23,2.33,2.33,0,0,0-2.42,2.23Z" fill="#fff" stroke="#000" fill-rule="evenodd"/><path d="M443.26,316.45a2.43,2.43,0,1,0,2.42-2.23,2.33,2.33,0,0,0-2.42,2.23Z" fill="#fff" stroke="#000" fill-rule="evenodd"/><path d="M444.56,311.25A2.43,2.43,0,1,0,447,309a2.33,2.33,0,0,0-2.42,2.23Z" fill="#fff" stroke="#000" fill-rule="evenodd"/><path d="M445.46,305.75a2.43,2.43,0,1,0,2.42-2.23,2.33,2.33,0,0,0-2.42,2.23Z" fill="#fff" stroke="#000" fill-rule="evenodd"/><path d="M445.26,299.75a2.43,2.43,0,1,0,2.42-2.23,2.33,2.33,0,0,0-2.42,2.23Z" fill="#fff" stroke="#000" fill-rule="evenodd"/><path d="M437.36,326.05a2.43,2.43,0,1,0,2.42-2.23,2.33,2.33,0,0,0-2.42,2.23Z" fill="#fff" stroke="#000" fill-rule="evenodd"/><path d="M443.16,294.05a2.43,2.43,0,1,0,2.42-2.23,2.33,2.33,0,0,0-2.42,2.23Z" fill="#fff" stroke="#000" fill-rule="evenodd"/><path d="M438.66,289.55a2.43,2.43,0,1,0,2.42-2.23,2.33,2.33,0,0,0-2.42,2.23Z" fill="#fff" stroke="#000" fill-rule="evenodd"/><path d="M432.66,286.55a2.43,2.43,0,1,0,2.42-2.23,2.33,2.33,0,0,0-2.42,2.23Z" fill="#fff" stroke="#000" fill-rule="evenodd"/><path d="M426.66,286.15a2.43,2.43,0,1,0,2.42-2.23,2.33,2.33,0,0,0-2.42,2.23Z" fill="#fff" stroke="#000" fill-rule="evenodd"/><path d="M420.16,286.35a2.43,2.43,0,1,0,2.42-2.23,2.33,2.33,0,0,0-2.42,2.23Z" fill="#fff" stroke="#000" fill-rule="evenodd"/><path d="M413.66,287.25a2.43,2.43,0,1,0,2.42-2.23,2.33,2.33,0,0,0-2.42,2.23Z" fill="#fff" stroke="#000" fill-rule="evenodd"/><path d="M407.26,288.05a2.43,2.43,0,1,0,2.42-2.23,2.33,2.33,0,0,0-2.42,2.23Z" fill="#fff" stroke="#000" fill-rule="evenodd"/><path d="M400.26,289.05a2.43,2.43,0,1,0,2.42-2.23,2.33,2.33,0,0,0-2.42,2.23Z" fill="#fff" stroke="#000" fill-rule="evenodd"/><path d="M394.26,290.65a2.43,2.43,0,1,0,2.42-2.23,2.33,2.33,0,0,0-2.42,2.23Z" fill="#fff" stroke="#000" fill-rule="evenodd"/><path d="M333.94,321.55a2.43,2.43,0,1,1-2.42-2.23,2.33,2.33,0,0,1,2.42,2.23Z" fill="#fff" stroke="#000" fill-rule="evenodd"/><path d="M331.44,316.45a2.43,2.43,0,1,1-2.42-2.23,2.33,2.33,0,0,1,2.42,2.23Z" fill="#fff" stroke="#000" fill-rule="evenodd"/><path d="M330.24,311.25a2.43,2.43,0,1,1-2.42-2.23,2.33,2.33,0,0,1,2.42,2.23Z" fill="#fff" stroke="#000" fill-rule="evenodd"/><path d="M329.34,305.75a2.43,2.43,0,1,1-2.42-2.23,2.33,2.33,0,0,1,2.42,2.23Z" fill="#fff" stroke="#000" fill-rule="evenodd"/><path d="M329.54,299.75a2.43,2.43,0,1,1-2.42-2.23,2.33,2.33,0,0,1,2.42,2.23Z" fill="#fff" stroke="#000" fill-rule="evenodd"/><path d="M331.54,294.05a2.43,2.43,0,1,1-2.42-2.23,2.33,2.33,0,0,1,2.42,2.23Z" fill="#fff" stroke="#000" fill-rule="evenodd"/><path d="M335.94,289.55a2.43,2.43,0,1,1-2.42-2.23,2.33,2.33,0,0,1,2.42,2.23Z" fill="#fff" stroke="#000" fill-rule="evenodd"/><path d="M342,286.55a2.43,2.43,0,1,1-2.42-2.23,2.33,2.33,0,0,1,2.42,2.23Z" fill="#fff" stroke="#000" fill-rule="evenodd"/><path d="M348,286.15a2.43,2.43,0,1,1-2.42-2.23,2.33,2.33,0,0,1,2.42,2.23Z" fill="#fff" stroke="#000" fill-rule="evenodd"/><path d="M354.54,286.35a2.43,2.43,0,1,1-2.42-2.23,2.33,2.33,0,0,1,2.42,2.23Z" fill="#fff" stroke="#000" fill-rule="evenodd"/><path d="M361,287.25a2.43,2.43,0,1,1-2.42-2.23,2.33,2.33,0,0,1,2.42,2.23Z" fill="#fff" stroke="#000" fill-rule="evenodd"/><path d="M367.54,288.05a2.43,2.43,0,1,1-2.42-2.23,2.33,2.33,0,0,1,2.42,2.23Z" fill="#fff" stroke="#000" fill-rule="evenodd"/><path d="M374.44,289.05a2.43,2.43,0,1,1-2.42-2.23,2.33,2.33,0,0,1,2.42,2.23Z" fill="#fff" stroke="#000" fill-rule="evenodd"/><path d="M380.44,290.65a2.43,2.43,0,1,1-2.42-2.23,2.33,2.33,0,0,1,2.42,2.23Z" fill="#fff" stroke="#000" fill-rule="evenodd"/><path d="M337.34,326.05a2.43,2.43,0,1,1-2.42-2.23,2.33,2.33,0,0,1,2.42,2.23Z" fill="#fff" stroke="#000" fill-rule="evenodd"/><path d="M339,326.2s-9.29-6.54-9.54-22.27c-.13-9.05,4.7-15.59,16.8-15.59,16.94,0,41.13,6.68,41.13,6.68v2.23a141.85,141.85,0,0,0-41.14-6.68c-9.67,0-14.52,6.54-14.52,13.23,0,11.14,9.7,22.41,9.7,22.41V344H339Z" fill="#fff100" stroke="#000" fill-rule="evenodd"/><path d="M355.87,334.46a3.28,3.28,0,0,1,3.22-1.7,3.48,3.48,0,0,1,3.23,3.39v3.4h1.61v-3.4a3.57,3.57,0,0,1,3.23-3.39,3.48,3.48,0,0,1,3.23,1.7s0-5.09-3.23-5.09a3.48,3.48,0,0,0-3.23,1.69,19.23,19.23,0,0,0,.81-5.09,6.63,6.63,0,0,0-1.61-4.24c0,.32-1.62,1.7-1.62,4.24a19.32,19.32,0,0,0,.81,5.09,3.48,3.48,0,0,0-3.23-1.69C355.87,329.37,355.87,334.46,355.87,334.46Z" fill="#fff100" stroke="#000" stroke-width="3" fill-rule="evenodd"/><path d="M404.27,334.46a3.28,3.28,0,0,1,3.22-1.7,3.48,3.48,0,0,1,3.23,3.39v3.4h1.61v-3.4a3.57,3.57,0,0,1,3.23-3.39,3.48,3.48,0,0,1,3.23,1.7s0-5.09-3.23-5.09a3.48,3.48,0,0,0-3.23,1.69,19.23,19.23,0,0,0,.81-5.09,6.63,6.63,0,0,0-1.61-4.24c0,.32-1.62,1.7-1.62,4.24a19.32,19.32,0,0,0,.81,5.09,3.48,3.48,0,0,0-3.23-1.69C404.27,329.37,404.27,334.46,404.27,334.46Z" fill="#fff100" stroke="#000" stroke-width="3" fill-rule="evenodd"/><path d="M339,357.4V337.34s4.83,6.69,12.1,6.69c5.94,0,12.1-8.91,12.1-8.91s5.67,6.68,12.1,6.68c5.74,0,12.09-8.62,12.09-8.62s5.9,8.62,12.1,8.62,12.11-6.68,12.11-6.68,6.32,8.91,14.51,8.91c7.26,0,9.69-6.69,9.69-6.69V357.4Z" fill="#fff100" stroke="#000" fill-rule="evenodd"/><path d="M339,357.4V341.8s14.52,4.44,14.52,15.6Z" fill="#fff100" stroke="#000" fill-rule="evenodd"/><path d="M435.7,357.4V341.8s-14.52,4.44-14.52,15.6Z" fill="#fff100" stroke="#000" fill-rule="evenodd"/><path d="M348.68,357.4c0-11.16,14.52-18.2,14.52-18.2s14.52,7,14.52,18.2Z" fill="#fff100" stroke="#000" fill-rule="evenodd"/><path d="M397.08,357.4c0-11.16,14.52-18.2,14.52-18.2s14.52,7,14.52,18.2Z" fill="#fff100" stroke="#000" fill-rule="evenodd"/><path d="M370.45,357.46c0-11.14,16.95-20,16.95-20s16.94,8.91,16.94,20H370.45Z" fill="#fff100" stroke="#000" fill-rule="evenodd"/><path d="M438.17,357.42c-4.78-2.23-22.42-4.45-50.82-4.45s-47.27,2.22-52.06,4.45-4.78,6.68,0,8.91,23.67,4.45,52.06,4.45,46-2.22,50.82-4.45S443,359.64,438.17,357.42Z" fill="#fff" stroke="#000" fill-rule="evenodd"/><path d="M435.8,366.3c0,4.5-40.3,4.5-48.4,4.5-8.8,0-48.4,1.2-48.4-4.5,0-4.4,39.9-4.4,48.4-4.4S435.8,362.8,435.8,366.3Z" fill="gray" fill-rule="evenodd"/><path d="M343.8,350.3a2.42,2.42,0,1,1-4.8,0,2.42,2.42,0,0,1,2.4-2.6A2.55,2.55,0,0,1,343.8,350.3Zm92,0a2.46,2.46,0,1,1-4.9,0,2.41,2.41,0,1,1,4.8,0Z" fill="#c00" fill-rule="evenodd"/><path d="M392.2,349c0,1.4-2.2,2.6-4.8,2.6s-4.9-1.2-4.9-2.7,2.2-2.6,4.9-2.6,4.8,1.2,4.8,2.6Z" fill-rule="evenodd"/><path d="M415.4,349c0,1.4-1.6,2.6-3.6,2.6s-3.6-1.2-3.6-2.7,1.6-2.6,3.6-2.6,3.6,1.2,3.6,2.6Zm-49.8,0c0,1.4-1.6,2.6-3.6,2.6s-3.7-1.2-3.7-2.7,1.6-2.6,3.7-2.6,3.6,1.2,3.6,2.6Z" fill="#006300" fill-rule="evenodd"/><path d="M377.68,333.64s2.76-3.81,5.53-3.81H386v2.54c0,3.82-4.15,5.1-4.15,5.1h11.06s-4.15-1.28-4.15-5.1v-2.54h2.77c2.76,0,5.53,3.82,5.53,3.82V323.46s-2.77,3.82-5.53,3.82h-2.77v-2.55c0-3.82,4.15-5.09,4.15-5.09H381.82s4.15,1.27,4.15,5.09v2.55h-2.76c-2.78,0-5.54-3.82-5.54-3.82v10.18Z" fill="#fff100" stroke="#000" stroke-width="2.2" fill-rule="evenodd"/><path d="M338.94,341.83h2.76s-2.07-1.11-2.07-4.46v-2.22H341c1.38,0,2.77,3.35,2.77,3.35v-8.93s-1.39,3.35-2.77,3.35h-1.38v-2.23c0-3.34,2.07-4.45,2.07-4.45h-2.76Z" fill="#fff100" stroke="#000" stroke-width="3.3" fill-rule="evenodd"/><path d="M435.76,341.83H433s2.07-1.11,2.07-4.46v-2.22h-1.38c-1.38,0-2.77,3.35-2.77,3.35v-8.93s1.39,3.35,2.77,3.35h1.38v-2.23c0-3.34-2.07-4.45-2.07-4.45h2.76Z" fill="#fff100" stroke="#000" stroke-width="3.3" fill-rule="evenodd"/><path d="M389.81,328.44a2.43,2.43,0,1,1-2.42-2.23A2.33,2.33,0,0,1,389.81,328.44Z" fill="#fff" stroke="#000" fill-rule="evenodd"/><path d="M377.68,286.84s2.76-3.81,5.53-3.81H386v2.54c0,3.82-4.15,5.1-4.15,5.1h11.06s-4.15-1.28-4.15-5.1V283h2.77c2.76,0,5.53,3.82,5.53,3.82V276.66s-2.77,3.82-5.53,3.82h-2.77v-2.55c0-3.82,4.15-5.09,4.15-5.09H381.82s4.15,1.27,4.15,5.09v2.55h-2.76c-2.78,0-5.54-3.82-5.54-3.82v10.18Z" fill="#fff100" stroke="#000" stroke-width="2.2" fill-rule="evenodd"/><path d="M390,282a2.43,2.43,0,1,1-2.42-2.23A2.33,2.33,0,0,1,390,282Z" fill="#fff" stroke="#000" fill-rule="evenodd"/><path d="M382.56,290.62h9.68v6.68h-9.7Z" fill="#fff100" stroke="#000" fill-rule="evenodd"/><path d="M382.56,294.11h9.68v25.46h-9.7Z" fill="#fff100" stroke="#000" fill-rule="evenodd"/><path d="M389.74,315.05a2.43,2.43,0,1,1-2.42-2.23,2.33,2.33,0,0,1,2.42,2.23Z" fill="#fff" stroke="#000" fill-rule="evenodd"/><path d="M389.74,309.35a2.43,2.43,0,1,1-2.42-2.23,2.33,2.33,0,0,1,2.42,2.23Z" fill="#fff" stroke="#000" fill-rule="evenodd"/><path d="M389.74,304.05a2.43,2.43,0,1,1-2.42-2.23,2.33,2.33,0,0,1,2.42,2.23Z" fill="#fff" stroke="#000" fill-rule="evenodd"/><path d="M389.74,298.45a2.43,2.43,0,1,1-2.42-2.23,2.33,2.33,0,0,1,2.42,2.23Z" fill="#fff" stroke="#000" fill-rule="evenodd"/><path d="M392.5,357.5c0,1-2.2,1.8-5,1.8s-4.8-.8-4.8-1.8,2.2-1.8,4.9-1.8S392.5,356.5,392.5,357.5Zm44.6,4.4c-.3.7-2.7.8-5.4.1s-4.6-1.6-4.4-2.3,2.7-.8,5.4-.1S437.3,361.2,437.1,361.9Zm-18.7-3c0,.9-2.4,1.4-5.2,1.3s-4.9-1.1-4.8-2,2.5-1.4,5.2-1.2,5,1,4.8,1.9Zm-81.8,3c.2.7,2.6.8,5.3.1s4.7-1.6,4.4-2.3-2.7-.8-5.4-.1S336.3,361.2,336.6,361.9Zm19.5-3.4c.1.9,2.5,1.4,5.2,1.2s5-1,4.8-2c0-.8-2.4-1.4-5.2-1.2S356,357.5,356.1,358.5Z" fill-rule="evenodd"/></g></svg>