<svg id="flag-icon-css-je" xmlns="http://www.w3.org/2000/svg" xmlns:xlink="http://www.w3.org/1999/xlink" viewBox="0 0 853.33 512"><defs><clipPath id="clip-path" transform="translate(176.4)"><rect x="-0.04" width="512" height="512" fill="none"/></clipPath></defs><title>je</title><g clip-path="url(#clip-path)"><path d="M-176.4,0H676.93V512H-176.4Z" transform="translate(176.4)" fill="#fff"/><path d="M-176.4,0V34.13L193.38,256-176.4,477.87V512h56.89L250.27,290.13,620,512h56.89V477.87L307.16,256,676.93,34.13V0H620L250.27,221.87-119.51,0Z" transform="translate(176.4)" fill="#df112d" fill-rule="evenodd"/><path d="M296.12,77.15c10.77,44.48,4.86,99.38-44.83,130-49.35-30.58-55.6-85.48-44.48-130C218.62,66.72,271.45,60.12,296.12,77.15Z" transform="translate(176.4)" fill="#e8112d" stroke="#000" stroke-width="0.1"/><path d="M251.64,68.11a87.69,87.69,0,0,1,44.83,11.12,97.26,97.26,0,0,1,17-42.05c-8.68,0-12.51,4.52-12.51,9-2.08-5.91-10.42-5.56-13.2-2.43,9.38,6.25,2.08,17.37-6.26,15.29-3.82-1-5.9-3.83-6.95-8a4.52,4.52,0,1,0-1.73,0c-2.44,3.48-6.61,5.56-10.78,4.52a8.75,8.75,0,0,1-6.6-8.69c0-9.38,9-10.77,11.82-9,0-6.26-10.08-11.47-13.21-6.26,3.47-6.6,2.78-14.94-2.78-20.15a16.69,16.69,0,0,0-2.78,19.81c-3.13-5.22-12.86,0-12.86,6.25,2.43-1.74,11.47-.35,11.47,9,0,3.47-2.09,7.64-6.26,8.68a10.42,10.42,0,0,1-11.12-4.51c.7,0,1.39-.7,2.09-1.39a4.52,4.52,0,1,0-6.39.19,4.62,4.62,0,0,0,2.57,1.2c-.7,4.17-3.13,6.95-6.95,8a8.34,8.34,0,0,1-6.26-15.29C212,40,203.68,40,201.6,45.87c0-4.52-3.83-9-12.51-9a97.31,97.31,0,0,1,17.37,42A90.39,90.39,0,0,1,251.64,68.11Z" transform="translate(176.4)" fill="#f9dd16" stroke="#000" stroke-width="0.1"/><g id="b"><path d="M289.17,111.9c-1.39,0-1.39,1.73-1.74,1.73,2.78,0,4.17-1,4.87-2.43v2.09c2.08-.7,2.78-2.44,2.08-3.48l2.43.7c-1.39-1.05-.34-3.48-2.78-4.87a4.15,4.15,0,0,1,2.78,1.74c-.34-2.43-.69-3.82-2.78-5.21h1.74a3.16,3.16,0,0,1-1.39-2.78c0-1.39-.69-1.39-2.08-1l-6.26.35c-3.47,0-7,0-9.73-2.08,4.52,2.08,10.43-2.09,10.43-5.22,0-3.47-4.87-7-13.9-4.86s-20.16,1.39-20.16-1.74,8-3.47,12.16-2.78,7,1,14.6-1.74c-1.74.7-8,1-12.86-.34s-16.68-1.39-16.68,4.86c0,6.6,12.51,5.91,23.63,4.17,6.26-.69,9.73,0,9.73,1.74,0,2.08-5.91,2.78-10.42,2.43a34.8,34.8,0,0,0-14.25,1c-4.52,1.39-7.65,0-12.51,1-2.44,0-8.34,0-11.12-4.87-1.74,1.39-7,3.82-8,6.6-1,2.09,0,4.52,1.39,7,2.09,2.78-1,2.44-3.47,2.44-2.78,0-6.95,0-9-2.78-2.08-2.09-4.51-3.83-6.6-2.44-1,1,0,2.09.7,1.74l2.78.7a3.48,3.48,0,0,0-3.48.34c-1,.7,0,2.09,1,1.74a4.06,4.06,0,0,1,3.48,0c-1,0-2.43,0-2.78.7s0,1.39,1,1.39c2.09,0,2.43,1.39,4.52,1a3.1,3.1,0,0,0-2.43,1.39c2.08-1,3.82,1.39,6.25.69-.69.35-2.43,1.39-2.43,2.09,1.39-1.74,11.12,1.39,11.12-2.43l-.35,2.78c1-.7,4.87-1.05,6.26-3.48,0,.7,0,1.74-.7,2.09,1,0,2.78-.7,4.52-3.13a3.76,3.76,0,0,0,.69-2.43,6.07,6.07,0,0,0,4.17-1.39c1.39-1,2.78,1,5.22-.7,2.08-1.39,4.17,0,5.56-.69,1-.7,2.78,0,4.17-.7s3.47.35,5.56-1.39c3.47,1.39,8,3.48,18.07,1.74,5.56-1,7.64,1,7.64,3.47,0,2.09-1.39,2.09-2.08,2.09-3.48.35-4.52-1-5.91-.7a1.34,1.34,0,0,0,0,2.44c-1,.34-1,1.39-.35,1.73s1.74,0,2.78-.34c-1.39.34-2.43,1.39-1.73,2.43.34.69,1.39,1,2.43,0a5.88,5.88,0,0,1,4.17-2.43ZM224.53,84.1c-2.78-1-3.47-1-3.13,1.39a5.65,5.65,0,0,0,1.74,3.12c0-1,.35-3.47,1.39-4.17Z" transform="translate(176.4)" fill="#f9dd16" stroke="#000" stroke-width="0.1"/><path d="M233.91,84.44c2.78-1.39,3.83-1.39,3.13,1a5.59,5.59,0,0,1-1.74,3.12C235.3,87.57,235.3,85.14,233.91,84.44Z" transform="translate(176.4)" fill="#f9dd16" stroke="#000" stroke-width="0.1"/><path d="M229.4,82.71c5.56,0,6.25,2.78,5.9,5.9,0,3.48-1.73,2.09-2.78,7-.34,1.39-1.73,1.74-3.47,1.74a2.76,2.76,0,0,1-3.13-2.08c-1-4.52-2.78-3.48-2.78-7,0-2.78.7-5.56,6.26-5.56Z" transform="translate(176.4)" fill="#f9dd16" stroke="#000" stroke-width="0.1"/><path d="M215.15,95.56c-1.39-.69-2.43,0-3.13,0,2.09.35,2.09,2.78,6.26,3.48-1.05,0-1.39.69-2.44,0,1.74,1.39,3.48,3.13,7.65,3.13,2.43,0,.69,1-.7.34,1.39,1.74,4.52.35,6.61,3.48,0-2.43-3.48-5.91-1.74-8.34-5.91-.35-6.26-3.48-9.38-5.91-2.78-2.08-3.13-4.17-4.17-8-.35-1.74-2.44-2.78-3.48-2.43-1,0-1.74,1-.69,1.73.69.7,2.08.7,2.08,2.44-1-1.39-2.78-1.74-3.47-1-.35.7,0,1.74.69,1.74,1.74,0,.7,2.09,2.43,3.48q-2.59-2.61-4.17-1c-.34.7,0,1.74,1.39,1.74,1.74,0,3.48,4.17,6.26,5.21Zm45.17,16c-.69,0-.34,1.74-1.73,1.74,2.78,0,4.52-.7,5.56-1.74l-.7,1.74c1.39-1.05,5.22-1.39,6.95-1.05s2.09-.34,2.78-1.39c.7-1.39,0-2.08-1-2.78-1-1-1.39-2.43-1-4.51-4.87-7-13.9-3.48-13.9-.7,3.12,3.82,3.47,3.48,6.25,3.82,2.44.7,4.17.7,2.44,2.09-.7.69-3.48,0-5.22.35-4.52,0-7-3.13-8-1.39-1,1.39,0,2.08,2.08,2.08-1.39,0-3.47,0-3.12,1.39.69,2.43,2.78-.35,3.82.35-.7,0-2.09.35-2.09,1s1.74,1.74,3.48,0a5.59,5.59,0,0,1,3.47-1Z" transform="translate(176.4)" fill="#f9dd16" stroke="#000" stroke-width="0.1"/><path d="M264.15,101.47a7.67,7.67,0,0,0-4.87-.69m-19.46,0a6.39,6.39,0,0,0-.35,5.56m-13.9-19.46c.7.69,1.39-.7,2.78.69-.34-.35-1,1-2.08,0m6.95-.35c-1,0-1.74-1-3.13.35.35-.35,1,1,2.09,0m-2.09,0v1c.35,2.44,1,3.48-1,3.48-1.74,0-1-1-.7-3.48v-1" transform="translate(176.4)" fill="none" stroke="#000" stroke-width="0.1"/><path d="M229.4,96.26c1.39,0,2.08,0,2.08-2.09,0-.69,1-1,.35-2.43.69,1.39-2.43,1.39-2.43.7,0,.69-3.48.69-2.78-.7-.35,1.39.69,1.74.34,2.43,0,2.09.7,2.09,2.44,2.09Z" transform="translate(176.4)" fill="#ff0016" stroke="#000" stroke-width="0.1"/><path d="M227.66,92.09l-3.48-1m3.48,1h-3.48m3.48.35-3.13,1m5.91-1.39,3.47-1m-3.47,1h4.17m-4.17.35,3.47,1" transform="translate(176.4)" stroke="#000" stroke-width="0.1"/><path d="M210.63,81.32c-1-1.39-3.47,0-3.47,1.39.69-1,2.08.34,3.12,0A.79.79,0,0,0,210.63,81.32Zm-1,3.12c-1-1.39-3.82,0-3.82,1.39.69-1,2.08.35,3.12,0C209.24,85.83,209.94,84.79,209.59,84.44Zm-.7,4.17a2.07,2.07,0,0,0-3.47,1.74c.69-1,2.08,0,2.78,0,.69-.35,1-1.39.35-1.74Zm1.05,12.86c-1.39-1.39-3.48.35-3.48,2.09.7-1.39,2.43,0,3.48-.7,0,0,.69-1,0-1.74Zm0,2.43c-1.74-.34-3.48,2.09-2.44,3.48,0-1.74,2.09-1,2.78-1.74l-.34-1.74Zm2.08,2.44c-1.74-.7-3.47,1.39-2.43,2.78,0-1.05,2.08-.7,2.43-1.39v-1.39Zm40.66,3.82a2.37,2.37,0,0,0-2.43,3.47c0-1.73,2.08-1,2.78-1.73l-.35-1.74Zm2.08,2.08c-1.73-.34-3.12,2.09-2.08,3.48,0-1.74,2.08-1.39,2.43-2.09.35-.34.35-1.39,0-1.39Zm-1.39-4.86c-1.39-.7-3.47,1.39-3.12,2.78.69-1.39,2.43-.35,3.12-1v-1.74Zm28.85,3.47c-1.39-.34-2.78,2.09-2.09,3.48,0-1.39,2.09-1,2.78-1.74C282.91,111.9,282.91,110.85,282.22,110.85Zm0-2.43c-1.39-1-3.48,1-2.78,2.43.69-1,2.43-.34,3.13-1v-1.74Zm1.39,4.52c-1.74,0-3.13,2.43-2.09,3.47,0-1.39,2.09-1,2.44-1.73a1.54,1.54,0,0,0-.35-1.74ZM229.4,94.87c1,0,1.39.35,1.39,2.43,0,3.48,0,5.56-1.39,5.56-1.05,0-1.05-1.74-1.05-4.52,0-1.39,0-2.43-.34-2.08C228,95.22,228.35,94.87,229.4,94.87Z" transform="translate(176.4)" fill="#0051ba"/></g><path d="M284,148.39c-1,0-1,1.39-1.39,1.39,2.43,0,3.47-.7,4.17-2.09v1.74c2.08-.35,2.78-2.09,2.08-3.13l2.09.69c-1.05-.69,0-3.12-2.44-4.17a3,3,0,0,1,2.44,1.39,4.71,4.71,0,0,0-2.44-4.51h1.39a2.78,2.78,0,0,1-1-2.78c0-1-.69-1-2.08-.7h-5.56c-3.13,0-6.26,0-8.69-1.74,4.17,2.09,9.38-1.73,9.38-4.51,0-3.48-4.52-6.26-12.51-4.52-8,2.08-18.07,1.39-18.07-1.39s7-3.48,10.77-2.78,6.26,1,13.21-1.39c-1.39.69-6.95,1-11.47-.35s-14.94-1.39-14.94,4.52,11.12,5.21,20.85,3.47c5.91-.34,9,0,9,1.74s-5.21,2.43-9.38,2.09a31.24,31.24,0,0,0-12.86,1c-4.17,1.39-6.95,0-11.12,1-2.43,0-7.64,0-10.42-4.52-1.39,1.39-5.91,3.48-7,5.91-.7,2.09,0,4.17,1.39,6.26,1.73,2.43-1.05,2.08-3.48,2.08-2.08,0-5.91,0-8-2.43-1.74-1.74-3.82-3.48-5.91-2.09-.69,1,0,1.74.7,1.39l2.43.7a3.12,3.12,0,0,0-3.13.35,1.05,1.05,0,0,0,1,1.73,3.35,3.35,0,0,1,3.13,0l-2.43.35c-.35.35,0,1.39,1,1.39,1.74,0,2.09,1.39,3.82,1a2.79,2.79,0,0,0-2.08,1.05c1.74-.7,3.47,1.39,5.56.69-.7.35-2.09,1.39-2.09,2.09,1.05-1.74,10.08,1,10.08-2.44l-.35,2.44c.7-.35,4.17-.7,5.56-3.13,0,.69,0,1.74-.69,2.08,1,0,2.43-.69,4.17-2.78a3.75,3.75,0,0,0,.69-2.43c1.39,0,2.44,0,3.48-1,1.39-1,2.78,1,4.86-.7,1.74-1.39,3.48,0,4.87-.69,1-.7,2.78,0,3.82-.7s3.48.35,5.21-1c3.13,1,7,3.13,16,1.39,5.21-.69,6.95,1,6.95,3.48,0,1.73-1,1.73-1.74,1.73-3.47,0-4.17-1-5.56-.69a1.27,1.27,0,0,0,0,2.08,1,1,0,0,0,0,1.74c.7.35,1.39,0,2.44-.35-1.39,0-2.44,1.05-1.74,2.09.35.7,1.39,1,2.43,0a5.32,5.32,0,0,1,3.48-2.09Zm-58-25c-2.43-1-3.47-1-2.78,1,0,1,1,2.43,1.39,3.12,0-1,.35-3.47,1.39-3.82Z" transform="translate(176.4)" fill="#f9dd16" stroke="#000" stroke-width="0.1"/><path d="M234.61,123.71c2.08-1.39,3.47-1.39,2.43.7a5.12,5.12,0,0,1-1.39,3.12c0-1,0-3.47-1.39-3.82Z" transform="translate(176.4)" fill="#f9dd16" stroke="#000" stroke-width="0.1"/><path d="M230.44,122c4.86,0,5.56,2.44,5.21,5.56,0,3.13-1.74,1.74-2.43,6.26-.35,1-1.74,1.39-3.48,1.39a2.1,2.1,0,0,1-2.43-1.74c-1-4.17-2.78-3.47-2.78-6.25S225.23,122,230.44,122Z" transform="translate(176.4)" fill="#f9dd16" stroke="#000" stroke-width="0.1"/><path d="M217.23,133.79c-1-.7-2.08,0-2.43,0,1.74,0,1.74,2.43,5.56,3.13h-2.43c1.74,1,3.47,2.78,6.95,2.78,2.43,0,.69.69-.7,0,1.39,1.73,4.17.34,6.26,3.47,0-2.43-3.48-5.56-1.74-7.64-5.21-.35-5.56-3.48-8.34-5.22-2.43-2.08-2.78-3.82-3.82-7.29a2.79,2.79,0,0,0-3.48-2.09c-.69,0-1.39.7,0,1.39,0,.7,1.74.7,1.74,2.09-1-1-2.78-1.39-3.47-.7,0,.7,0,1.39.69,1.39,1.74,0,.7,2.09,2.43,3.48-1.73-1.74-2.78-2.09-3.82-1.05-.35.35,0,1.39,1,1.39,1.74,0,3.48,3.48,5.91,4.87Zm41,13.9c-.7,0-.35,1.74-1.74,1.74,2.43,0,4.17-.35,5.21-1.39l-.69,1.39c1-.7,4.52-1,6.26-.7s1.73-.34,2.43-1.39,0-1.74-1-2.43a5.06,5.06,0,0,1-.7-4.17c-4.52-6.26-12.51-3.13-12.51-.7,2.78,3.48,3.13,3.48,5.56,3.48,2.09.69,3.48.69,2.09,2.08-.7.7-3.13,0-4.52,0-4.17,0-6.26-2.43-7.3-1s0,1.74,1.74,1.74c-1.05,0-3.13,0-2.78,1.39.69,2.09,2.43,0,3.47,0-.69,0-1.74.69-1.74,1.39,0,.35,1.39,1.39,3.13,0a4.86,4.86,0,0,1,3.13-1Z" transform="translate(176.4)" fill="#f9dd16" stroke="#000" stroke-width="0.1"/><path d="M261.71,139a6.91,6.91,0,0,0-4.51-.69m-17.38,0c-1.39,2.43-.69,3.47-.35,4.86M227,125.8c.35.69,1-.7,2.44.69-.35-.35-1.05,1-2.09,0m6.26-.35c-.7,0-1.39-1-2.78,0,.34,0,1,1.39,2.08,0m-2.08,0v1.39c.34,2.09,1,3.13-.7,3.13s-1-1-.69-3.47v-.7" transform="translate(176.4)" fill="none" stroke="#000" stroke-width="0.1"/><path d="M230.44,134.14c1,0,1.74,0,1.74-1.74,0-.7,1-1,0-2.09,1,1.05-1.74,1.05-1.74.35,0,.7-3.48.7-2.78-.35,0,1.05.69,1.39.35,2.09,0,1.74.69,1.74,2.43,1.74Z" transform="translate(176.4)" fill="#ff0016" stroke="#000" stroke-width="0.1"/><path d="M228.7,130.66l-3.13-1m3.13,1h-3.13m3.13,0-2.78,1m5.21-1,3.48-1m-3.48,1H235m-3.48,0,2.78,1" transform="translate(176.4)" stroke="#000" stroke-width="0.1"/><path d="M213.41,120.93c-1-1.39-3.47,0-3.47,1,1-.69,2.08.35,3.12,0,0,0,1.05-.69,0-1Zm-1,2.78c-.7-1.39-3.48,0-3.48,1,.7-.69,2.09.35,2.78,0C212,124.75,212.72,124.06,212.37,123.71Zm-.7,3.48c-1-1-3.47,0-3.12,1.73.69-1,2.08,0,2.78,0,.34,0,.69-1.39,0-1.39ZM212.72,139c-1.05-1.39-3.13,0-3.13,1.74.69-1,2.08,0,3.47-.7v-1Zm0,2.09c-1.39,0-3.13,2.08-2.09,3.47,0-1.74,1.74-1.39,2.43-1.74v-1.73Zm2.08,2.08c-1.74-.35-3.47,1.39-2.43,2.78,0-1,2.08-.69,2.43-1.39v-1.39Zm36.49,3.48c-1.74,0-3.48,1.73-2.09,3.47,0-1.74,1.74-1,2.44-1.74Zm1.74,2.08c-1.39-.35-2.78,1.74-1.74,3.13,0-1.74,1.74-1.39,2.08-2.08v-1.05ZM252,144.21c-1.39-.69-3.47,1.39-2.78,2.44.35-1.05,2.09,0,2.78-.7v-1.74Zm25.72,3.48c-1-.7-2.43,1.74-1.74,2.78,0-1,1.74-1,2.44-1.39,0-.7,0-1.74-.7-1.74Zm0-2.43c-1-1-3.13,1-2.43,2.08.69-1,2.08,0,2.78-1v-1.39Zm1.39,4.17c-1.74,0-2.78,2.08-1.74,3.13,0-1.39,1.74-1.05,2.09-1.74Zm-48.65-16.34c.69,0,1,0,1,2.09,0,3.13,0,4.86-1,4.86s-1-1.39-1-3.82c0-1.39,0-2.43-.35-2.08,0-.7,0-1,1.39-1Z" transform="translate(176.4)" fill="#0051ba"/><path d="M275.51,179.49c-.93,0-.93,1.3-1.17,1.3A3.16,3.16,0,0,0,277.6,179v1.56c1.4-.52,1.87-1.83,1.4-2.61l1.63.52c-.93-.78-.23-2.6-1.86-3.64a2.77,2.77,0,0,1,1.86,1.3c-.23-1.83-.47-2.87-1.86-3.91h1.16a2.46,2.46,0,0,1-.93-2.09c0-1-.47-1-1.4-.78l-4.19.26c-2.33,0-4.65,0-6.52-1.56,3,1.56,7-1.56,7-3.91,0-2.61-3.26-5.21-9.32-3.65s-13.5,1-13.5-1.3,5.36-2.61,8.15-2.09,4.66.78,9.78-1.3c-1.17.52-5.36.78-8.62-.26s-11.17-1-11.17,3.65c0,5,8.38,4.43,15.83,3.13,4.19-.53,6.52,0,6.52,1.3,0,1.56-4,2.08-7,1.82a21,21,0,0,0-9.54.78c-3,1.05-5.12,0-8.38.79-1.63,0-5.59,0-7.45-3.65-1.17,1-4.66,2.86-5.36,4.95-.7,1.56,0,3.39.93,5.21,1.4,2.09-.7,1.83-2.33,1.83-1.86,0-4.65,0-6.05-2.09-1.4-1.56-3-2.87-4.42-1.82-.7.78,0,1.56.46,1.3l1.87.52a2.12,2.12,0,0,0-2.33.26.76.76,0,0,0,.7,1.31,2.38,2.38,0,0,1,2.32,0c-.69,0-1.63,0-1.86.52a.69.69,0,0,0,.7,1c1.4,0,1.63,1,3,.78a2.06,2.06,0,0,0-1.63,1c1.39-.78,2.56,1,4.19.52-.47.27-1.63,1.05-1.63,1.57.93-1.3,7.45,1,7.45-1.83l-.23,2.09c.69-.52,3.25-.78,4.19-2.61,0,.52,0,1.31-.47,1.57.7,0,1.86-.52,3-2.35a3.08,3.08,0,0,0,.46-1.82,3.77,3.77,0,0,0,2.8-1c.93-.78,1.86.79,3.49-.52,1.4-1,2.79,0,3.72-.52.7-.52,1.87,0,2.8-.52s2.33.26,3.72-1c2.33,1,5.36,2.6,12.11,1.3,3.73-.78,5.12.78,5.12,2.61,0,1.56-.93,1.56-1.39,1.56-2.33.26-3-.78-4-.52a1,1,0,0,0,0,1.82.73.73,0,0,0-.23,1.31c.46.26,1.16,0,1.86-.26-.93.26-1.63,1-1.17,1.82.24.52.94.78,1.63,0a3.89,3.89,0,0,1,2.8-1.82ZM232.2,158.64c-1.86-.79-2.33-.79-2.09,1a4.34,4.34,0,0,0,1.16,2.34c0-.78.23-2.6.93-3.12Z" transform="translate(176.4)" fill="#f9dd16" stroke="#000" stroke-width="0.1"/><path d="M238.49,158.9c1.86-1.05,2.56-1.05,2.09.78a4.41,4.41,0,0,1-1.16,2.34C239.42,161.24,239.42,159.42,238.49,158.9Z" transform="translate(176.4)" fill="#f9dd16" stroke="#000" stroke-width="0.1"/><path d="M235.46,157.59c3.73,0,4.19,2.09,4,4.43,0,2.61-1.17,1.57-1.86,5.22-.24,1-1.17,1.3-2.33,1.3a1.85,1.85,0,0,1-2.1-1.56c-.7-3.39-1.86-2.61-1.86-5.22,0-2.08.47-4.17,4.19-4.17Z" transform="translate(176.4)" fill="#f9dd16" stroke="#000" stroke-width="0.1"/><path d="M225.91,167.24c-.93-.52-1.62,0-2.09,0,1.4.26,1.4,2.08,4.19,2.6-.7,0-.93.52-1.63,0,1.16,1,2.33,2.35,5.12,2.35,1.63,0,.47.78-.46.26.93,1.3,3,.26,4.42,2.61,0-1.83-2.33-4.43-1.16-6.26-4-.26-4.19-2.61-6.29-4.43-1.86-1.56-2.1-3.13-2.79-6-.24-1.31-1.63-2.09-2.33-1.83-.7,0-1.17.78-.47,1.3.47.53,1.4.53,1.4,1.83-.7-1-1.86-1.3-2.33-.78-.23.52,0,1.3.47,1.3,1.16,0,.46,1.56,1.63,2.61-1.17-1.31-2.1-1.57-2.8-.79a.92.92,0,0,0,.93,1.31c1.17,0,2.33,3.13,4.19,3.91Zm30.27,12c-.46,0-.23,1.3-1.16,1.3a4.71,4.71,0,0,0,3.72-1.3l-.46,1.3c.93-.78,3.49-1,4.65-.78s1.4-.26,1.87-1.05c.46-1,0-1.56-.7-2.08a3.88,3.88,0,0,1-.7-3.39c-3.26-5.21-9.31-2.6-9.31-.52,2.09,2.87,2.33,2.61,4.19,2.87,1.63.52,2.79.52,1.63,1.56-.47.52-2.33,0-3.49.26-3,0-4.66-2.34-5.36-1-.7,1,0,1.56,1.4,1.56-.93,0-2.33,0-2.1,1.05.47,1.82,1.86-.27,2.56.26-.46,0-1.39.26-1.39.78s1.16,1.3,2.32,0a3.43,3.43,0,0,1,2.33-.78Z" transform="translate(176.4)" fill="#f9dd16" stroke="#000" stroke-width="0.1"/><path d="M258.74,171.67a4.64,4.64,0,0,0-3.26-.52m-13,0a5.27,5.27,0,0,0-.24,4.17m-9.31-14.6c.47.52.93-.52,1.86.52-.23-.26-.7.78-1.39,0M238,161c-.7,0-1.16-.78-2.09.26.23-.26.7.78,1.39,0m-1.39,0V162c.23,1.83.7,2.61-.7,2.61-1.17,0-.7-.78-.47-2.61v-.78" transform="translate(176.4)" fill="none" stroke="#000" stroke-width="0.1"/><path d="M235.46,167.76c.93,0,1.4,0,1.4-1.57,0-.52.7-.78.23-1.82.47,1-1.63,1-1.63.52,0,.52-2.33.52-1.86-.52-.23,1,.46,1.3.23,1.82,0,1.57.47,1.57,1.63,1.57Z" transform="translate(176.4)" fill="#ff0016" stroke="#000" stroke-width="0.1"/><path d="M234.3,164.63l-2.33-.78m2.33.78H232m2.33.26-2.1.78m4-1,2.33-.78m-2.33.78H239m-2.79.26,2.33.78" transform="translate(176.4)" stroke="#000" stroke-width="0.1"/><path d="M222.89,156.55c-.7-1-2.33,0-2.33,1,.47-.78,1.4.26,2.1,0A.61.61,0,0,0,222.89,156.55Zm-.7,2.35c-.7-1.05-2.56,0-2.56,1,.46-.78,1.4.26,2.09,0C222,159.94,222.42,159.16,222.19,158.9Zm-.47,3.12c-.93-1-2.56,0-2.32,1.31.46-.78,1.39,0,1.86,0,.46-.26.7-1,.23-1.31Zm.7,9.65c-.93-1-2.33.26-2.33,1.56.47-1,1.63,0,2.33-.52,0,0,.47-.78,0-1.3Zm0,1.82c-1.16-.26-2.33,1.57-1.63,2.61,0-1.3,1.4-.78,1.87-1.3l-.24-1.31Zm1.4,1.83c-1.16-.52-2.33,1-1.63,2.08,0-.78,1.4-.52,1.63-1v-1Zm27.24,2.86c-1.16-.26-2.33,1.31-1.63,2.61,0-1.3,1.4-.78,1.86-1.3l-.23-1.31Zm1.4,1.57c-1.17-.26-2.1,1.56-1.4,2.6,0-1.3,1.4-1,1.63-1.56.23-.26.23-1,0-1Zm-.93-3.65c-.94-.52-2.33,1-2.1,2.08.47-1,1.63-.26,2.1-.78v-1.3Zm19.32,2.6c-.93-.26-1.86,1.57-1.4,2.61,0-1,1.4-.78,1.87-1.3C271.32,179.49,271.32,178.7,270.85,178.7Zm0-1.82c-.93-.78-2.33.78-1.86,1.82.46-.78,1.63-.26,2.09-.78v-1.3Zm.93,3.39c-1.16,0-2.09,1.82-1.39,2.6,0-1,1.39-.78,1.63-1.3a1.23,1.23,0,0,0-.24-1.3Zm-36.32-13.55c.7,0,.93.26.93,1.82,0,2.61,0,4.17-.93,4.17-.7,0-.7-1.3-.7-3.39,0-1,0-1.82-.23-1.56C234.53,167,234.76,166.72,235.46,166.72Z" transform="translate(176.4)" fill="#0051ba"/></g></svg>