<svg id="flag-icons-ky" xmlns="http://www.w3.org/2000/svg" viewBox="0 0 512 512.5"><title>ky</title><path id="path8364" d="M0,0H512V512H0Z" transform="translate(0 0.5)" fill="#006"/><path id="path8366" d="M0-.5H256v256H0Z" transform="translate(0 0.5)" fill="#012169"/><path id="path8368" d="M256-.5v32l-95,96L256,221v34.5H222.5l-95.5-94-93,94H0v-34L93,128,0,36.5V-.5H31l96,94,93-94Z" transform="translate(0 0.5)" fill="#fff"/><path id="path8370" d="M92,161.5l5.5,17L21,255.5H0V254Zm62-6,27,4L256,233v22.5ZM256-.5l-96,98-2-22,75-76ZM0,0,96.5,94.5,67,90.5,0,24Z" transform="translate(0 0.5)" fill="#c8102e"/><path id="path8372" d="M88-.5v256h80V-.5ZM0,87.5v80H256v-80Z" transform="translate(0 0.5)" fill="#fff"/><path id="path8374" d="M0,103.5v48H256v-48ZM104-.5v256h48V-.5Z" transform="translate(0 0.5)" fill="#c8102e"/><g id="border"><g id="use1093"><path id="shield" d="M448.31,207.38v68c0,58.95-27.87,79.18-65.21,95.19-37.33-16-65.5-36.24-65.5-95.19V207.31H448.31Z" transform="translate(0 0.5)" fill="#fff" stroke="#fff" stroke-linejoin="round" stroke-width="9.6"/></g><g id="use1095"><g id="motto1"><path id="path1108" d="M277.06,365c2.11,5.53,17.1,12.89,34.57,3.5,11.86-6.7,19.51-16,26.86-32.75,2-4.23,3.13-9.47-1.75-12.6-3.86-2.83-10.19-6-12.95-8.73C322.4,313,321,312,320,311a13.38,13.38,0,0,1,2,2.4c7,8.37-.29,20.6-8,27.95-5.6,5.24-15.65,18.12-30.35,5.89-3.13-2.76-10.48,8.74-6.55,17.83Z" transform="translate(0 0.5)" fill="#fcea83" stroke="#fff" stroke-linejoin="round" stroke-width="9.6"/><path id="path1110" d="M489.14,365c-2.47,5.53-17.46,12.89-34.57,3.5-11.79-6.7-19.5-16-27.14-32.75-1.75-4.23-2.84-9.47,2-12.6,3.86-2.83,10.19-6,13-8.73A27.3,27.3,0,0,1,446.2,311a13.35,13.35,0,0,0-2,2.4c-7,8.37.29,20.6,7.64,27.95,5.6,5.24,16,18.12,30.71,5.89,3.13-2.76,10.12,8.74,6.55,17.83Z" transform="translate(0 0.5)" fill="#fcea83" stroke="#fff" stroke-linejoin="round" stroke-width="9.6"/><path id="path1112" d="M383.1,395c27.88,0,70.82-12.59,93.89-56.55,3.78-7.28,0-11.14-4.59-13.54a53.08,53.08,0,0,1-14-10.19c5.6,5.61,4.51,9.46.73,15.72-17.83,29.7-42.22,44.69-76.06,44.69s-58.22-15-76.05-44.69c-3.79-6.26-4.88-10.11.36-15.65a48,48,0,0,1-14,10.12c-4.52,2.4-8.37,6.26-4.52,13.54C311.92,382.42,355.15,395,383.1,395Z" transform="translate(0 0.5)" fill="#fcea83" stroke="#fff" stroke-linejoin="round" stroke-width="9.6"/></g></g><g id="use1097"><g id="motto2"><path id="path1115" d="M318.55,336.06c-.73-3.5-5.17-2.11-6.56,2.11a49.58,49.58,0,0,1-4.94-7.72c-4.15-6.26-4.88-10.48,1.09-16.37,2.76-2.77,8.37-6,12.15-2.48C328.3,318.23,324.15,329.07,318.55,336.06Z" transform="translate(0 0.5)" fill="#c8102e" stroke="#fff" stroke-linejoin="round" stroke-width="9.6"/><path id="path1117" d="M447.29,336.06c.73-3.5,5.61-2.11,7,2.11a55.14,55.14,0,0,0,4.88-7.72c4.15-6.26,4.87-10.48-1.46-16.37-2.4-2.77-8-6-12.15-2.48C437.83,318.23,441.69,329.07,447.29,336.06Z" transform="translate(0 0.5)" fill="#c8102e" stroke="#fff" stroke-linejoin="round" stroke-width="9.6"/><path id="path1119" d="M277.06,365c-3.49-5.24-6.26-18.92-7-22.34-1-3.13-1.38-6,2.48-7.28s7.28,3.42,9,7.64,4.59,10.41,7.72,18.13c-7.72-4.52-14-1.46-12.23,3.85Z" transform="translate(0 0.5)" fill="#c8102e" stroke="#fff" stroke-linejoin="round" stroke-width="9.6"/><path id="path1121" d="M489.14,365c3.13-5.24,5.9-18.92,7-22.34.73-3.13,1.38-6-2.47-7.28s-7.28,3.42-9,7.64-4.58,10.41-7.71,18.13c7.71-4.52,13.61-1.46,12.22,3.85Z" transform="translate(0 0.5)" fill="#c8102e" stroke="#fff" stroke-linejoin="round" stroke-width="9.6"/></g></g><g id="use1099"><g id="rope"><path id="path1179" d="M356.25,207c-4.52,1-7.65,1.38-11.87-2.48-2.76-2.76-2.11-7.64.73-9.46,3.13-2,5.9-3.42,9.75-2.4s14,10.48,11.5,10.84C363.89,203.52,360.1,205.92,356.25,207Z" transform="translate(0 0.5)" fill="#fff" stroke="#fff" stroke-linejoin="round" stroke-width="9.6"/><path id="path1181" d="M367,190.28c1.45-1.1,3.2-1.75,7.71-2.19,4.22-.29,7.28-.29,8.37,2.91,1.46,3.79,2.48,8.3,5.24,10.41-1.74,1-10.48,2.11-13.61.37-4.15-2.12-5.24-10.19-7.64-11.5Z" transform="translate(0 0.5)" fill="#fff" stroke="#fff" stroke-linejoin="round" stroke-width="9.6"/><path id="path1183" d="M397.08,190.64c1.38-1.09,3.13-1.09,7.64-.73s6.26.73,7.28,3.86c1.09,3.49,0,8,2.18,11.14-2.18.72-9.1.72-11.57-1.75-3.79-2.77-3.5-10.85-5.53-12.59Z" transform="translate(0 0.5)" fill="#fff" stroke="#fff" stroke-linejoin="round" stroke-width="9.6"/><path id="path1185" d="M418,192.68c-3.13-.73-5.24-1-6.55,0,1.68,2.11.29,10.48,3.79,13.24,2.4,1.75,8.73,2.19,10.11-1.74,1.75-3.5,1.75-8.74-7.27-11.5Z" transform="translate(0 0.5)" fill="#073163" stroke="#fff" stroke-linejoin="round" stroke-width="9.6"/><path id="path1187" d="M382.08,189.18c1-1,3.13-1.38,7.28-1.38,4.59,0,7.28.73,8.73,3.5,1.46,3.49,1,8,3.5,10.84-1,1.38-10.48,1.38-13.25-.73C384.48,198.94,384.12,190.93,382.08,189.18Z" transform="translate(0 0.5)" fill="#073163" stroke="#fff" stroke-linejoin="round" stroke-width="9.6"/><path id="path1189" d="M352.46,192.31c0-1.74,2.4-2,8.73-2.4,6.19-.73,6.56-.36,8.67,4.15,1,2.48,2.4,6.62,5.24,8-7.72,1.82-10.19,2.84-14.34.36a21.16,21.16,0,0,1-7.28-7.64c-.36-1-.36-2.11-1.09-2.48Z" transform="translate(0 0.5)" fill="#073163" stroke="#fff" stroke-linejoin="round" stroke-width="9.6"/></g></g><g id="use1101"><g id="turtle"><path id="path1270" d="M353.12,161.31a7.52,7.52,0,0,1-6-2.77c-2.4-3.2-9-4.58-11.87-1.74-1,.72-2.4.72-3.42,1-1.74,0-3.85,1.74-3.2,5.24,1.46-1.1,1.75,0,2.84,0,.73-.37.36.36.36,1,0,1.74,3.79,5.24,7.28,4.87,3.86,0,5.61,1.46,6.26,2.18,1.09,1,.37.66,1.09,2.41,1,1,1.39,1.38-.36,2.76a7.06,7.06,0,0,0-.9,9.95,7.65,7.65,0,0,0,.9.9c4.51,3.42,16,8.73,29-1.46,12.51-9.75,32-4.15,33.48-.73a30.41,30.41,0,0,1,2.76,7.35c.36,1.46,2.11,2.84,4.59,2.48a11.92,11.92,0,0,1,6.55,2.11c1.82,1,4.22.73,3.56-2.48-1.45-9.75-7.35-11.13-8-15.64,3.42.29,5.82.29,7.27-1.09,1-1.39,2.41-3.86,3.86-4.52,1-.73,1-1.45-.36-1.09-1.75.36-2.77,1.09-6,.73-16-1.75-61-14-69.72-11.5Z" transform="translate(0 0.5)" fill="#059334" stroke="#fff" stroke-linejoin="round" stroke-width="9.6"/><path id="path1272" d="M424.3,173.17a25.34,25.34,0,0,0-6.7,7c-3.42,4.51-13.9,9-26.86,9-12.51,0-20.16-2-25.76-6.55a43.63,43.63,0,0,0-7.72-4.94c-3.78-1.75-4.51-5.61-3.49-8.74-1,1.75-1.67,3.49-3.78,3.13-1.46,0-4.22,0-3.5,1.46-.36-.73-.36-1.75-.72-2.19l-.73-.65c1.09.73,3.56-1.38,5.31-1.38,1.38.36,3.13-1.39,2.77-3.5l-1-4.51c2.76-1.46,39.37,5.24,46.72,5.89,7.28.37,28.24,3.5,25.48,6Z" transform="translate(0 0.5)" stroke="#fff" stroke-linejoin="round" stroke-width="9.6"/><path id="path1274" d="M358,159.93c3.5-3.5,7.64-5.24,11.87-4.22h1c2.19-1.75,7-2.12,9.83-.73h1.38c4.15-1.39,12.16,0,15,2.84l1,.72c9.47-.72,15,3.42,21.62,10.12a6.9,6.9,0,0,0,3.49,2.4c2.11.37,2.48,1.46.73,2.48a27.58,27.58,0,0,0-7.28,6.55c-3.2,4.22-13.32,8.44-25.91,8.44-12.15,0-19.5-2.18-25.11-6.33a79.59,79.59,0,0,0-7.27-4.88c-2.11-.73-4.88-3.49-3.86-6.26.73-2.76-1-6.26-2.4-9.75,1-.73,3.78-1.75,5.16-1Z" transform="translate(0 0.5)" fill="#059334" stroke="#fff" stroke-linejoin="round" stroke-width="9.6"/><g id="g1292"><path id="path1276" d="M419.71,168.66c-6.55-6.7-12.15-10.84-21.62-10.19a5.44,5.44,0,0,1-.36,2.18,48.28,48.28,0,0,1,17.1,12.89C416.29,172.08,418.69,170.41,419.71,168.66Z" transform="translate(0 0.5)" fill="#00493d" stroke="#fff" stroke-linejoin="round" stroke-width="9.6"/><path id="path1278" d="M397.08,157.82c-2.84-2.77-10.85-4.23-15-2.77a11.54,11.54,0,0,1-.72,4.88c2.47,1,4.51,3.49,6.62,5.89,1.45-.36,4.87-1.38,6.62-1.74A33,33,0,0,0,397.08,157.82Z" transform="translate(0 0.5)" fill="#00493d" stroke="#fff" stroke-linejoin="round" stroke-width="9.6"/><path id="path1280" d="M380.7,155c-2.84-1.39-7.71-1-9.83.73a15.62,15.62,0,0,0-1,5.6,7,7,0,0,1,4.14,1.75,18.89,18.89,0,0,0,6-3.13c.37-1.46,1-3.5.73-4.88Z" transform="translate(0 0.5)" fill="#00493d" stroke="#fff" stroke-linejoin="round" stroke-width="9.6"/><path id="path1282" d="M358,159.93c3.5-3.5,7.64-5.24,11.87-4.22-.73,1.09-1,3.12-1,5.24-3.86-.37-8.74.72-10.85,2.11Z" transform="translate(0 0.5)" fill="#00493d" stroke="#fff" stroke-linejoin="round" stroke-width="9.6"/><path id="path1284" d="M413.45,174.19a46.82,46.82,0,0,0-16-12.23c0,.37-.73,1.75-1.09,2.84a126.56,126.56,0,0,1,8,14,58.77,58.77,0,0,0,9.1-4.59Z" transform="translate(0 0.5)" fill="#00493d" stroke="#fff" stroke-linejoin="round" stroke-width="9.6"/><path id="path1286" d="M387,181.91a132.37,132.37,0,0,0,1-14.34c1.74-.37,5.24-1.38,6.62-1.75,1.75,2.84,6,10.19,7.72,13.61C398.09,180.45,391.11,182.2,387,181.91Z" transform="translate(0 0.5)" fill="#00493d" stroke="#fff" stroke-linejoin="round" stroke-width="9.6"/><path id="path1288" d="M374.73,165.17a29.43,29.43,0,0,0,5.9-3.5,30.81,30.81,0,0,1,5.24,4.88c0,3.13-1,12.23-1.39,15.28-2.76,0-7.27-.65-9.75-2,.37-5.24.73-11.14,0-14.63Z" transform="translate(0 0.5)" fill="#00493d" stroke="#fff" stroke-linejoin="round" stroke-width="9.6"/><path id="path1290" d="M357.26,169.32a14.33,14.33,0,0,0,.73-4.15c2.77-1.75,9.76-3.5,15-.73a89.31,89.31,0,0,1-.37,14.34,69.8,69.8,0,0,0-15.28-9.46Z" transform="translate(0 0.5)" fill="#00493d" stroke="#fff" stroke-linejoin="round" stroke-width="9.6"/></g><g id="g1308"><path id="path1294" d="M339.87,163c-.73,0-1.09-2-2.47-2-.37,0-1.39.36-1.75,0a2.41,2.41,0,0,0,.73,1.74c.36,1,2.11.37,3.49.37Z" transform="translate(0 0.5)"/><path id="path1296" d="M339.87,169c4.15,0,4.88-5.24,7-5.53" transform="translate(0 0.5)" fill="none" stroke="#fff" stroke-linejoin="round" stroke-width="9.6"/><path id="path1298" d="M342.27,169.32c3.13,1.45,5.61-5.9,8-5.61" transform="translate(0 0.5)" fill="none" stroke="#fff" stroke-linejoin="round" stroke-width="9.6"/><path id="path1300" d="M336,160.29c1,0,1.75-1.46,3.5.29a3.72,3.72,0,0,0,2.47,1.09" transform="translate(0 0.5)" fill="none" stroke="#fff" stroke-linejoin="round" stroke-width="9.6"/><path id="path1302" d="M341.25,165.46c-1.45,2.18-3.85,3.49-5.24,2.84" transform="translate(0 0.5)" fill="none" stroke="#fff" stroke-linejoin="round" stroke-width="9.6"/><path id="path1304" d="M335.28,156.8a11.51,11.51,0,0,0-2.4,3.13" transform="translate(0 0.5)" fill="none" stroke="#fff" stroke-linejoin="round" stroke-width="9.6"/><path id="path1306" d="M331.86,162v1.75" transform="translate(0 0.5)" fill="none" stroke="#fff" stroke-linejoin="round" stroke-width="9.6"/></g></g></g><g id="use1103"><g id="pineapple1"><path id="path1192" d="M369.2,156.8c-7.35-5.61-16.08-10.85-24.09-11.87a204.65,204.65,0,0,1,23.73,18.49" transform="translate(0 0.5)" stroke="#fff" stroke-linejoin="round" stroke-width="9.6"/><path id="path1194" d="M373.35,151.56c-8.73-6-18.85-12.59-28.6-13.25a90.42,90.42,0,0,1,24,20.23" transform="translate(0 0.5)" stroke="#fff" stroke-linejoin="round" stroke-width="9.6"/><path id="path1196" d="M384.48,141.8a67.68,67.68,0,0,1,17.11-23.43c-3.5,7.35-7.28,22.34-9.1,28.31" transform="translate(0 0.5)" stroke="#fff" stroke-linejoin="round" stroke-width="9.6"/><path id="path1198" d="M392.2,140.06A35.2,35.2,0,0,1,410,121.5,73.49,73.49,0,0,0,396.71,147" transform="translate(0 0.5)" stroke="#fff" stroke-linejoin="round" stroke-width="9.6"/><path id="path1200" d="M395.33,147a61.53,61.53,0,0,1,27.51-23c-8.73,8.74-21.62,24.75-24.75,31.08" transform="translate(0 0.5)" stroke="#fff" stroke-linejoin="round" stroke-width="9.6"/><path id="path1202" d="M400.21,154.69c6.25-3.5,18.85-9.1,27.87-7.28-5.53,2-22.27,9.68-29.62,16.74" transform="translate(0 0.5)" stroke="#fff" stroke-linejoin="round" stroke-width="9.6"/><path id="path1204" d="M398.82,152.21c5.9-6.26,16.74-15.65,28.24-19.5-8.37,8-26.2,26.2-28.6,29" transform="translate(0 0.5)" stroke="#fff" stroke-linejoin="round" stroke-width="9.6"/><path id="path1206" d="M382.08,148.43c-4.22-13-10.48-25.11-19.87-29a95.37,95.37,0,0,1,15.29,35.59" transform="translate(0 0.5)" stroke="#fff" stroke-linejoin="round" stroke-width="9.6"/><path id="path1208" d="M374,148.06c-6.91-8.37-16.37-16.74-27.14-18.48a65.52,65.52,0,0,1,24,28.24" transform="translate(0 0.5)" stroke="#fff" stroke-linejoin="round" stroke-width="9.6"/><path id="path1210" d="M377.93,147.7c-8.73-15.72-15.43-18.49-19.21-21.62,3.13,5.9,10.77,21.62,15.28,28.24" transform="translate(0 0.5)" stroke="#fff" stroke-linejoin="round" stroke-width="9.6"/><path id="path1212" d="M360.47,146.68A42.16,42.16,0,0,1,373,158.83" transform="translate(0 0.5)" fill="none" stroke="#fff" stroke-linejoin="round" stroke-width="9.6"/><path id="path1214" d="M360.47,154c2,1.75,5.89,3.86,9.39,7" transform="translate(0 0.5)" stroke="#fff" stroke-linejoin="round" stroke-width="9.6"/><path id="path1216" d="M402,159.2a77,77,0,0,1,15-8.74" transform="translate(0 0.5)" stroke="#fff" stroke-linejoin="round" stroke-width="9.6"/><path id="path1218" d="M399.48,156.8c3.49-4.59,10.48-10.85,12.95-13" transform="translate(0 0.5)" stroke="#fff" stroke-linejoin="round" stroke-width="9.6"/><path id="path1220" d="M409.23,135.11A207.59,207.59,0,0,0,396,151.56" transform="translate(0 0.5)" stroke="#fff" stroke-linejoin="round" stroke-width="9.6"/><path id="path1222" d="M400.21,132a113,113,0,0,0-8.74,15.36" transform="translate(0 0.5)" stroke="#fff" stroke-linejoin="round" stroke-width="9.6"/><path id="path1224" d="M372.62,132.71c2.11,5.6,6,15,7.28,18.85" transform="translate(0 0.5)" stroke="#fff" stroke-linejoin="round" stroke-width="9.6"/><path id="path1226" d="M369.49,138.6a46.94,46.94,0,0,1,5.24,10.48" transform="translate(0 0.5)" stroke="#fff" stroke-linejoin="round" stroke-width="9.6"/></g></g><g id="use1105"><g id="pineapple2"><path id="path1229" d="M381.36,136.85c0-3.12,2.11-6.55,4.22-6.55,2.4,0,4.14,4.15,4.14,6.55,0,2.84-2.11,5.25-4.14,5.25C383.39,142.1,381.36,140.06,381.36,136.85Z" transform="translate(0 0.5)" stroke="#fff" stroke-linejoin="round" stroke-width="9.6"/><path id="path1231" d="M376.84,139.69c.37-3.49,2.77-6.26,4.88-6s3.13,4.58,2.76,7c-.36,2.77-2.76,4.88-4.51,4.51C378.23,145.22,376.48,142.82,376.84,139.69Z" transform="translate(0 0.5)" stroke="#fff" stroke-linejoin="round" stroke-width="9.6"/><path id="path1233" d="M386.23,140.71c-.73-3.13.73-6.55,2.84-7s4.15,3.12,4.51,6c.73,2.77-1.09,5.53-2.84,5.53C389.07,145.59,386.6,143.84,386.23,140.71Z" transform="translate(0 0.5)" stroke="#fff" stroke-linejoin="round" stroke-width="9.6"/><path id="path1235" d="M381,143.48c0-3.42,2.11-6.55,4.22-6.55,2.4,0,4.15,3.78,4.15,6.55s-2,5.24-4.15,5.24S381,146.68,381,143.48Z" transform="translate(0 0.5)" stroke="#fff" stroke-linejoin="round" stroke-width="9.6"/><path id="path1237" d="M374.73,145.22c0-3.12,2.48-6.55,4.51-6.55,2.19,0,4.23,4.15,4.23,6.55,0,2.84-2.48,5.24-4.23,5.24C377.21,150.46,374.73,148.43,374.73,145.22Z" transform="translate(0 0.5)" stroke="#fff" stroke-linejoin="round" stroke-width="9.6"/><path id="path1239" d="M387.61,143.84c0-3.13,2.19-6.55,4.23-6.55,2.4,0,4.14,4.15,4.14,6.55,0,2.84-2,5.24-4.14,5.24S387.61,147,387.61,143.84Z" transform="translate(0 0.5)" stroke="#fff" stroke-linejoin="round" stroke-width="9.6"/><path id="path1241" d="M386.23,146.68c0-3.49,2.48-6.62,4.51-6.62,2.19,0,4.23,3.78,4.23,6.55s-2.12,5.31-4.23,5.31S386.23,149.74,386.23,146.68Z" transform="translate(0 0.5)" stroke="#fff" stroke-linejoin="round" stroke-width="9.6"/><path id="path1243" d="M380.7,149.81c0-3.49,2-6.62,4.15-6.62,2.47,0,4.22,4.15,4.22,6.55,0,2.91-2.18,5.31-4.22,5.31s-4.22-2.18-4.22-5.24Z" transform="translate(0 0.5)" stroke="#fff" stroke-linejoin="round" stroke-width="9.6"/><path id="path1245" d="M372,149.81c0-3.49,1.74-6.62,3.49-6.62s3.13,4.15,3.13,6.55c0,2.91-1.75,5.31-3.13,5.31C373.71,155.05,372,152.87,372,149.81Z" transform="translate(0 0.5)" stroke="#fff" stroke-linejoin="round" stroke-width="9.6"/><path id="path1247" d="M391.47,149.15c0-3.2,1.75-6.33,3.5-6.33s3.49,3.86,3.49,6.26c0,3.13-2.11,5.24-3.49,5.24-1.75,0-3.5-2.11-3.5-5.24Z" transform="translate(0 0.5)" stroke="#fff" stroke-linejoin="round" stroke-width="9.6"/><path id="path1249" d="M393.58,155c.73-3.42,2.77-6.26,4.15-5.83s1.75,4.44,1.09,6.92c-.36,3.13-2.47,4.88-3.85,4.51s-2.12-2.76-1.46-5.53Z" transform="translate(0 0.5)" stroke="#fff" stroke-linejoin="round" stroke-width="9.6"/><path id="path1251" d="M387,154c.36-3.13,2.4-6.26,4.15-5.9,2.11,0,3.13,4.15,2.84,6.55-.37,3.21-2.19,5.32-3.86,4.95-1.75,0-3.49-2.47-3.13-5.6Z" transform="translate(0 0.5)" stroke="#fff" stroke-linejoin="round" stroke-width="9.6"/><path id="path1253" d="M377.21,155c-1.1-3.42-3.21-5.83-4.59-5.53s-1.75,4.51-1,7c.73,2.77,2.77,4.52,4.15,4.15,1.09-.29,2.18-2.76,1.46-5.53Z" transform="translate(0 0.5)" stroke="#fff" stroke-linejoin="round" stroke-width="9.6"/><path id="path1255" d="M374.73,154.32c0-3.13,1.75-6.26,3.5-6.26,2.11,0,3.49,3.86,3.49,6.26,0,3.13-1.75,5.24-3.49,5.24C376.77,159.56,374.73,157.45,374.73,154.32Z" transform="translate(0 0.5)" stroke="#fff" stroke-linejoin="round" stroke-width="9.6"/><path id="path1257" d="M380,155.71c0-3.5,2.11-6.56,4.15-6.56,2.48,0,4.22,3.79,4.22,6.56s-2.11,5.24-4.22,5.24S380,158.83,380,155.71Z" transform="translate(0 0.5)" stroke="#fff" stroke-linejoin="round" stroke-width="9.6"/><path id="path1259" d="M381.72,117.35c-.73,2.77-3.13,5.24-1.46,9.1-3.05-1.09-5.82-1.46-8.29,1.38,3.13-.36,5.89.73,7.27,2.77a4.23,4.23,0,0,0-4.87,2.83c2.47-.72,4.87-1.45,6-1.09-1.1,1.09-2.84,2.77-3.13,4.22,2-1.74,4.51-1.45,5.89-2.47-1,2.47,1,4.88,2.77,7.28-.29-3.42,1.74-5.83.73-7.64,3.12.72,3.49,3.49,8,3.49-1.75-1-2.76-4.51-4.88-4.51,1-.37,5.25-.73,6,0a6.3,6.3,0,0,0-4.58-2.77c1.45-1.45,3.86-4.22,5.6-5-2.47.37-6.26.73-7.64,2.84,3.42-2.84,2.77-8,6.55-8.73-2-.37-5.17,1-7.64,3.49,1.09-2.11,1.09-4.88,2.47-5.6-2.84.72-6,4.22-7,6a13.21,13.21,0,0,0-1.75-5.6Z" transform="translate(0 0.5)" stroke="#fff" stroke-linejoin="round" stroke-width="9.6"/><path id="path1261" d="M383.47,123a12,12,0,0,1-.37,3.79" transform="translate(0 0.5)" stroke="#fff" stroke-linejoin="round" stroke-width="9.6"/><path id="path1263" d="M388,122.59a9,9,0,0,0-2.11,5.24" transform="translate(0 0.5)" stroke="#fff" stroke-linejoin="round" stroke-width="9.6"/><path id="path1265" d="M390.09,126.74a5.52,5.52,0,0,0-2.48,3.2" transform="translate(0 0.5)" fill="none" stroke="#fff" stroke-linejoin="round" stroke-width="9.6"/></g></g></g><g id="motto"><path d="M277.06,365c2.11,5.53,17.1,12.89,34.57,3.5,11.86-6.7,19.51-16,26.86-32.75,2-4.23,3.13-9.47-1.75-12.6-3.86-2.83-10.19-6-12.95-8.73C322.4,313,321,312,320,311a13.38,13.38,0,0,1,2,2.4c7,8.37-.29,20.6-8,27.95-5.6,5.24-15.65,18.12-30.35,5.89-3.13-2.76-10.48,8.74-6.55,17.83Z" transform="translate(0 0.5)" fill="#fcea83" stroke="#000" stroke-width="1.4"/><path d="M489.14,365c-2.47,5.53-17.46,12.89-34.57,3.5-11.79-6.7-19.5-16-27.14-32.75-1.75-4.23-2.84-9.47,2-12.6,3.86-2.83,10.19-6,13-8.73A27.3,27.3,0,0,1,446.2,311a13.35,13.35,0,0,0-2,2.4c-7,8.37.29,20.6,7.64,27.95,5.6,5.24,16,18.12,30.71,5.89,3.13-2.76,10.12,8.74,6.55,17.83Z" transform="translate(0 0.5)" fill="#fcea83" stroke="#000" stroke-width="1.4"/><path d="M383.1,395c27.88,0,70.82-12.59,93.89-56.55,3.78-7.28,0-11.14-4.59-13.54a53.08,53.08,0,0,1-14-10.19c5.6,5.61,4.51,9.46.73,15.72-17.83,29.7-42.22,44.69-76.06,44.69s-58.22-15-76.05-44.69c-3.79-6.26-4.88-10.11.36-15.65a48,48,0,0,1-14,10.12c-4.52,2.4-8.37,6.26-4.52,13.54C311.92,382.42,355.15,395,383.1,395Z" transform="translate(0 0.5)" fill="#fcea83" stroke="#000" stroke-width="1.4"/><path d="M318.55,336.06c-.73-3.5-5.17-2.11-6.56,2.11a49.58,49.58,0,0,1-4.94-7.72c-4.15-6.26-4.88-10.48,1.09-16.37,2.76-2.77,8.37-6,12.15-2.48C328.3,318.23,324.15,329.07,318.55,336.06Z" transform="translate(0 0.5)" fill="#c8102e" stroke="#000" stroke-width="1.4"/><path d="M447.29,336.06c.73-3.5,5.61-2.11,7,2.11a55.14,55.14,0,0,0,4.88-7.72c4.15-6.26,4.87-10.48-1.46-16.37-2.4-2.77-8-6-12.15-2.48C437.83,318.23,441.69,329.07,447.29,336.06Z" transform="translate(0 0.5)" fill="#c8102e" stroke="#000" stroke-width="1.4"/><path d="M277.06,365c-3.49-5.24-6.26-18.92-7-22.34-1-3.13-1.38-6,2.48-7.28s7.28,3.42,9,7.64,4.59,10.41,7.72,18.13c-7.72-4.52-14-1.46-12.23,3.85Z" transform="translate(0 0.5)" fill="#c8102e" stroke="#000" stroke-width="1.4"/><path d="M489.14,365c3.13-5.24,5.9-18.92,7-22.34.73-3.13,1.38-6-2.47-7.28s-7.28,3.42-9,7.64-4.58,10.41-7.71,18.13c7.71-4.52,13.61-1.46,12.22,3.85Z" transform="translate(0 0.5)" fill="#c8102e" stroke="#000" stroke-width="1.4"/><g id="g1176"><path id="path1124" d="M297.29,333.58,294.53,335a1.31,1.31,0,0,0-.73,1.38h-.36l-1.39-3.13h.37c0,.29.36.73,1,.29l6-3.13c.73-.36.73-.73.37-1l.29-.36,1.75,3.49h-.3c-.36-.36-.72-.72-1.45-.36l-2.4,1.45,1,2,2.83-1c.73-.36.3-1.09.3-1.45h.36l1.46,3.2c-.37-.36-.73-.73-1.46-.36l-5.9,3.13c-.72.36-.72.72-.36,1l-.36.36-1.75-3.13.36-.36c.37.36.73.72,1.46.36l2.76-1.46Z" transform="translate(0 0.5)" fill="#00493d"/><path id="path1126" d="M303.26,338.17c.73-.37.73-.73.29-1.46h.37l3.49,5.24L305,343.7v-.29c1.38-1.09,1.38-2.48,1-2.84s-.73-.73-.73-1c-.29,0-.29-.36-1,.36l-2.47,1.75c.36.29.72,1.38,2.47.29h.36l-3.85,2.84v-.36c1.74-1.46,1-2.48.72-2.77L299,343.41a1,1,0,0,0-.73,1c.37,0,.37.36.73.72.36.73,1.46,1.39,3.13.73l.36.29-2.76,1-3.5-5.53h.37c.29.29.73.73,1.38.29Z" transform="translate(0 0.5)" fill="#00493d"/><path id="path1128" d="M308.79,351.41l-2.4,2a1.12,1.12,0,0,0,0,1.46H306l-2.48-2.48.37-.36c.36.36.72.73,1.45,0l4.51-4.51c.73-.37.73-.73.3-1.46l2.47,2.91a1,1,0,0,0-1.46,0l-2,2,1.74,1.75,2.11-1.75c.73-.73.37-1,0-1.46l.37-.29,2.4,2.77h-.36a1.3,1.3,0,0,0-1.39.36l-4.51,4.22c-.73.73-.73,1-.36,1.39v.36l-2.41-2.84c.3,0,1,.37,1.39,0l2.4-2.4Z" transform="translate(0 0.5)" fill="#00493d"/><path id="path1130" d="M314,358.76l1.09,1,1.39-3.13a11.68,11.68,0,0,0-2.84,1.39l.36.72-.36.3-.73-.73c-.29.36-.65.36-1,.73-1,.72-.73,1.09-.29,1.45v.29l-1.75-1.74h.3l1.45-.37,6.92-3.78.36.29s-.36.36-3.49,7.35c0,.73-.3,1,0,1.75l-2.77-2.41.36-.36c.37.73,1,.73,1.39,0,0-.36.36-1.09.36-1.46l-1.09-1,.36-.37Z" transform="translate(0 0.5)" fill="#00493d"/><path id="path1132" d="M316.8,365.68l.36-.37c.37.37.73.37,1.46,0l4.51-5.89-.36-.36a2.24,2.24,0,0,0-2.77.72v-.36l1.38-1.75,5.24,3.86-1.74,2h-.37a1.76,1.76,0,0,0,0-2.77v-.36l-4.51,6c-.73.36-.36,1,0,1.38h-.36Z" transform="translate(0 0.5)" fill="#00493d"/><path id="path1134" d="M325.9,367.06l-1.75,2.48c-.36.72,0,1,.36,1.45l-.36.29-2.77-2.11v-.36c.73.36,1,.36,1.39-.29l3.85-5.24a1.17,1.17,0,0,0-.36-1.46l.36-.29,2.77,2v.36c-.73-.36-1-.36-1.46.37l-1.67,2.47,2.11,1.38,1.75-2.47a1.06,1.06,0,0,0-.37-1.38l.37-.37,2.76,2.11v.37c-.36-.37-1-.37-1.45.36L328,372.3c-.73.37-.37.73,0,1.09v.29l-3.13-2h.36a1.19,1.19,0,0,0,1-.37l1.75-2.76Z" transform="translate(0 0.5)" fill="#00493d"/><path id="path1136" d="M332.88,376.89l.37-.37c.36.37,1,.37,1.38-.36l2.77-5.9c.36-.72,0-1.09-.37-1.45l6,2.84-1.46,2.76-.29-.36a2.43,2.43,0,0,0-.36-3.13c-.37,0-.73-.37-1-.37s-.36,0-.73.73a19.67,19.67,0,0,0-1.38,2.4c.36.37,1,1.1,2.47-.72h.29l-2,4.22-.37-.29c1-2.19-.36-2.48-.72-2.48L336,377.18c-.36.73,0,1.09.37,1.09v.36Z" transform="translate(0 0.5)" fill="#00493d"/><path id="path1138" d="M343,381.76c-1-.72-1-2.84,0-4.87.73-2.19,2.11-3.86,3.49-3.21,1,.37.73,2.48,0,4.59-1.09,2.4-2.47,3.78-3.49,3.49h-.36c2.47,1,4.22-.36,5.24-2.84,1-2,.72-4.51-1.46-5.53s-4.15.29-5.17,2.77-.73,4.88,1.46,5.6Z" transform="translate(0 0.5)" fill="#00493d"/><path id="path1140" d="M353.77,382.42l1.46-4.15a1.17,1.17,0,0,0-.37-1.46l1.75.37v.36c-.36,0-.73,0-1.09.73l-1.39,4.15c-.72,1.74-1.74,3.13-3.78,2.47A2.81,2.81,0,0,1,348.6,381l1.75-4.52a1.16,1.16,0,0,0-.36-1.45v-.29l3.13,1.38v.36c-.37-.36-1-.36-1,.37l-1.82,4.44c-.37,1.38-.37,2.76.73,3.13s2-.37,2.69-2.11Z" transform="translate(0 0.5)" fill="#00493d"/><path id="path1142" d="M357,377.91c0-.37,0-.37-.36-.37l2.4.37,2.18,6.62,1-4.22a1.08,1.08,0,0,0-.36-1.39l2,.37-.29.36c-.37,0-.73,0-1.1.73L360.76,388h-.29l-2.84-8.37-1.75,5.61c0,1,.37,1,.73,1.38V387l-2.11-.72v-.37c.36.37,1,0,1-.73l1.74-6.26Z" transform="translate(0 0.5)" fill="#00493d"/><path id="path1144" d="M368.84,384.89c-.73,3.13-2.19,3.86-2.84,3.86h-.73a.59.59,0,0,1,0-.73l1.09-7c.37-.37.37-.73.73-.37h.73c.65,0,1.31,1.46,1,4.22l1,.37c.72-3.5-.73-4.95-2.48-5.24-1.38-.37-3.49-.73-3.49-.73v.36c.36.37,1.09.37.73,1.46l-1,6.18c-.37.73-.73,1.1-1.1,1.1h-.29l3.42.72c1.75.29,3.5,0,4.23-3.85Z" transform="translate(0 0.5)" fill="#00493d"/><path id="path1146" d="M372,382.05a1.09,1.09,0,0,0-1.1-1v-.37l6.34.73-.37,2.76c0-1.74-1.09-2.4-1.74-2.4a1.36,1.36,0,0,0-1.1-.36c-.29,0-.29,0-.29,1l-.36,2.84c.36,0,1.38.29,2.11-1.75L375.1,388h-.37c0-2.11-1-2.11-1.45-2.11L373,389c0,.73,0,.73.36.73l.73.36c1,0,2-.36,2.76-2.47h.37l-.73,2.76-6.62-.72c.72,0,1-.29,1.45-.95Z" transform="translate(0 0.5)" fill="#00493d"/><path id="path1148" d="M383.47,386.28c0,3.13-1.1,4.14-2.11,4.14-.37-.29-.37-.29-.73-.29l-.29-.36.36-7.28c0-.44,0-.44.29-.44h.73c.73,0,1.75,1.1,1.75,4.23h1.38c0-3.5-1.75-4.52-3.49-4.52a17.83,17.83,0,0,0-3.5-.36v.36a1.08,1.08,0,0,1,1.09,1l-.36,6.63c0,.72-.36,1-.73,1v.37H381c1.75,0,3.49-.73,3.86-4.51h-1.38Z" transform="translate(0 0.5)" fill="#00493d"/><path id="path1150" d="M393.58,389c0,.73.37.73,1,.73v.36l-3.86.29c.37-.29,1.1-.72,1.1-1.38l-.73-6.55c-.37-.73-.73-.73-1.39-.73v-.36l3.86-.36c-.36.36-1.09.72-.73,1.45Z" transform="translate(0 0.5)" fill="#00493d"/><path id="path1152" d="M397.08,389.77v-.36c.36,0,.72-.37.72-1l-1.45-7.28H396a1.78,1.78,0,0,0-1,2.4h-.37l-.36-2.47,6.33-1,.29,2.4h-.29c0-1.38-1.09-1.75-2.18-1.75h-.3l1.46,7.28c0,.73.29,1.09,1,1.09v.37Z" transform="translate(0 0.5)" fill="#00493d"/><path id="path1154" d="M412.07,382.78l-1.46-4.15c0-.72-.65-.72-1-.72v-.37l1.75-.73v.37c-.36.36-.36.36-.36,1.09l1.45,4.51c.29,1.46.29,3.5-1.74,4.22a2.84,2.84,0,0,1-3.5-2.47L405.74,380c-.29-.73-.66-.73-1-.73l-.37-.37,3.5-1v.36c-.29.36-.73.73-.29,1.38l1,4.51a2.55,2.55,0,0,0,2.4,2.12c1.09-.37,1.45-1.75,1.09-3.5Z" transform="translate(0 0.5)" fill="#00493d"/><path id="path1156" d="M415.93,380.31c1.67-.73,1.38-1.68,1-2.77s-1-1.75-1.74-1.38c-.37,0-.73.36-.37.73l1.1,3.42.29.36.72,2.84a.85.85,0,0,0,1.46.29v.36l-3.2,1.46-.37-.36c.73-.37.73-.73.73-1.46l-2.47-5.89c-.37-1-.73-.73-1.39-.73v-.29l3.5-1.46a2.63,2.63,0,1,1,1.74,4.95,1.37,1.37,0,0,0-.72.29Z" transform="translate(0 0.5)" fill="#00493d"/><path id="path1158" d="M424.59,381.33c-1,.43-2.4-1-3.5-3.42-1-2.12-1-4.23,0-4.52s2.48,1,3.5,3.13,1.09,4.15,0,4.88c2.18-.73,2.84-3.13,1.74-5.61-1-2.11-3.13-3.49-5.24-2.76a4.07,4.07,0,0,0-1.81,5.47.83.83,0,0,0,.07.13c1.09,2.41,3.2,3.79,5.24,2.77Z" transform="translate(0 0.5)" fill="#00493d"/><path id="path1160" d="M425,371.65h-.65l2-1.46,6.34,3.49-2.19-3.78a1.27,1.27,0,0,0-1.31-.73v-.36l1.75-.73c-.36.44-.73.73,0,1.46l3.49,7-.36.37-7.72-4.22,2.84,5.24a.84.84,0,0,0,1.39.36v.36l-1.75,1v-.36c.36-.37.36-.73,0-1.38L426,372.3l-1.09-.73Z" transform="translate(0 0.5)" fill="#00493d"/><path id="path1162" d="M440.67,372.67v-.37c0-.36.37-.73,0-1.38l-4.22-5.9h-.36c-.73.29-1,1.75,0,2.77l-.29.36-1.46-2.47,5.24-3.5,1.46,2.19a2.39,2.39,0,0,0-2.84-.73l-.37.29,4.22,6a.89.89,0,0,0,1.46.36v.29Z" transform="translate(0 0.5)" fill="#00493d"/><path id="path1164" d="M444.53,364.3l2,2.47a1.32,1.32,0,0,0,1.45,0v.29l-2.84,2.48v-.37c.37-.36.37-.73,0-1.38L441,362.55c-.37-.73-.73-.37-1.46-.37l2.84-2.4v.37c0,.29-.37.72,0,1.38l1.75,2,2-1.39-1.67-2.4c-.36-.72-1.09-.36-1.46-.36l2.84-2.48v.37c-.36.36-.36.73,0,1.45l4.15,5.17a.67.67,0,0,0,1.09,0l.29.37-2.76,2.47-.37-.36c.37-.37.73-.73.37-1.46l-2.11-2.4Z" transform="translate(0 0.5)" fill="#00493d"/><path id="path1166" d="M447.66,356.94a1.33,1.33,0,0,0-1.46,0v-.29l4.59-4.22,2.11,2.11h-.37c-1.09-1.45-2.47-.72-3.12-.36,0,.36-.37.36-.73.73a2.81,2.81,0,0,0,.36,1l2.11,2.11c.29-.37,1.38-1.1,0-2.84h.29l2.84,3.2v.29c-1.75-1.75-2.47-.73-2.84-.29l2.19,2c.29.73.65.73.65.73l1-1c.36-.37.73-1.46,0-3.5h.36l1.39,2.41-4.52,4.51-.36-.29c.36-.37.73-.73,0-1.46Z" transform="translate(0 0.5)" fill="#00493d"/><path id="path1168" d="M456,347.19a.92.92,0,0,0,.29,1.46c.73.65,1.46.65,2.84,0a2.66,2.66,0,0,1,3.13.29,3,3,0,0,1,.73,3.86c-.37.36-1.1.72-1.46,1-.36,0-.36,0-.36.36v.36l-2.41-2.11h.37c1.38.73,2.76,1,3.49,0,.73-.73,0-1.45-.36-1.74-.73-.73-1.46-.73-2.48,0a4,4,0,0,1-3.49-.37c-1.38-1.38-1.38-2.4-.73-3.49l1.46-1c.36,0,.36,0,0-.73l2.47,1.75h-.36c-1.75-.73-2.84-.29-3.13.36Z" transform="translate(0 0.5)" fill="#00493d"/><path id="path1170" d="M459.16,344.43c-.73-.37-1.09,0-1.46.36h-.29l3.86-5.6,2.4,1.74-.36.37a2.39,2.39,0,0,0-3.13,0c0,.36-.37.72-.37,1-.29,0-.29.36.37.72.36.37,2.47,1.75,2.47,1.75.37-.36,1-1.09-.36-2.47V342l3.49,2.84c-2.11-1.09-2.47,0-2.76.29l2.4,1.75a2.74,2.74,0,0,0,1,.36c0-.36.36-.73.72-1,.37-.72.73-1.74-.72-3.13l.36-.36,1.75,2.11-3.5,5.24h-.36a1.23,1.23,0,0,0-.29-1.75Z" transform="translate(0 0.5)" fill="#00493d"/><path id="path1172" d="M468.55,338.17l-1,1.74a16.27,16.27,0,0,1-2.11-2.47l3.13.73h.72c.37,0,1,.29,1.39.29,1,.36.73.73.36,1.45h.37l1.74-3.2c-.73.73-1.09.37-1.74.37-7.36-1.39-8-1.75-8-1.75v.36l5.53,6.26a2.22,2.22,0,0,1,.36,1.46h.37l1-1.75-.37-.36c-.36.72-.72,1-1.38,0l-.73-.73,1.09-2.4Z" transform="translate(0 0.5)" fill="#00493d"/><path id="path1174" d="M466.44,330.45c-.3.37-.3,1.09.72,1.46s1.46,0,2.48-.73,2-1.46,3.42-.73a2.54,2.54,0,0,1,1.45,3.5l-1.09,1.45v.66l-2.76-1.46c1.74.36,3.13,0,3.49-1,.36-.73-.36-1.38-.73-1.74-.72-.3-1.38,0-2.4.72-1.09,1-2.18,1.46-3.49.73s-2.11-1.75-1.46-2.84c0-.73.73-1,1.09-1.38,0-.36,0-.36-.36-.73v-.29l2.84,1.38h-.37C467.53,329.07,466.44,329.8,466.44,330.45Z" transform="translate(0 0.5)" fill="#00493d"/></g></g><g id="crest"><path d="M356.25,207c-4.52,1-7.65,1.38-11.87-2.48-2.76-2.76-2.11-7.64.73-9.46,3.13-2,5.9-3.42,9.75-2.4s14,10.48,11.5,10.84C363.89,203.52,360.1,205.92,356.25,207Z" transform="translate(0 0.5)" fill="#fff" stroke="#000" stroke-width="1.4"/><path d="M367,190.28c1.45-1.1,3.2-1.75,7.71-2.19,4.22-.29,7.28-.29,8.37,2.91,1.46,3.79,2.48,8.3,5.24,10.41-1.74,1-10.48,2.11-13.61.37-4.15-2.12-5.24-10.19-7.64-11.5Z" transform="translate(0 0.5)" fill="#fff" stroke="#000" stroke-width="1.4"/><path d="M397.08,190.64c1.38-1.09,3.13-1.09,7.64-.73s6.26.73,7.28,3.86c1.09,3.49,0,8,2.18,11.14-2.18.72-9.1.72-11.57-1.75-3.79-2.77-3.5-10.85-5.53-12.59Z" transform="translate(0 0.5)" fill="#fff" stroke="#000" stroke-width="1.4"/><path d="M418,192.68c-3.13-.73-5.24-1-6.55,0,1.68,2.11.29,10.48,3.79,13.24,2.4,1.75,8.73,2.19,10.11-1.74,1.75-3.5,1.75-8.74-7.27-11.5Z" transform="translate(0 0.5)" fill="#073163" stroke="#000" stroke-width="1.4"/><path d="M382.08,189.18c1-1,3.13-1.38,7.28-1.38,4.59,0,7.28.73,8.73,3.5,1.46,3.49,1,8,3.5,10.84-1,1.38-10.48,1.38-13.25-.73C384.48,198.94,384.12,190.93,382.08,189.18Z" transform="translate(0 0.5)" fill="#073163" stroke="#000" stroke-width="1.4"/><path d="M352.46,192.31c0-1.74,2.4-2,8.73-2.4,6.19-.73,6.56-.36,8.67,4.15,1,2.48,2.4,6.62,5.24,8-7.72,1.82-10.19,2.84-14.34.36a21.16,21.16,0,0,1-7.28-7.64c-.36-1-.36-2.11-1.09-2.48Z" transform="translate(0 0.5)" fill="#073163" stroke="#000" stroke-width="1.4"/><g id="g1268"><path d="M369.2,156.8c-7.35-5.61-16.08-10.85-24.09-11.87a204.65,204.65,0,0,1,23.73,18.49" transform="translate(0 0.5)" fill="#f9d050" stroke="#000" stroke-width="0.6"/><path d="M373.35,151.56c-8.73-6-18.85-12.59-28.6-13.25a90.42,90.42,0,0,1,24,20.23" transform="translate(0 0.5)" fill="#f9d050" stroke="#000" stroke-width="0.6"/><path d="M384.48,141.8a67.68,67.68,0,0,1,17.11-23.43c-3.5,7.35-7.28,22.34-9.1,28.31" transform="translate(0 0.5)" fill="#f9d050" stroke="#000" stroke-width="0.6"/><path d="M392.2,140.06A35.2,35.2,0,0,1,410,121.5,73.49,73.49,0,0,0,396.71,147" transform="translate(0 0.5)" fill="#f9d050" stroke="#000" stroke-width="0.6"/><path d="M395.33,147a61.53,61.53,0,0,1,27.51-23c-8.73,8.74-21.62,24.75-24.75,31.08" transform="translate(0 0.5)" fill="#f9d050" stroke="#000" stroke-width="0.6"/><path d="M400.21,154.69c6.25-3.5,18.85-9.1,27.87-7.28-5.53,2-22.27,9.68-29.62,16.74" transform="translate(0 0.5)" fill="#f9d050" stroke="#000" stroke-width="0.6"/><path d="M398.82,152.21c5.9-6.26,16.74-15.65,28.24-19.5-8.37,8-26.2,26.2-28.6,29" transform="translate(0 0.5)" fill="#f9d050" stroke="#000" stroke-width="0.6"/><path d="M382.08,148.43c-4.22-13-10.48-25.11-19.87-29a95.37,95.37,0,0,1,15.29,35.59" transform="translate(0 0.5)" fill="#f9d050" stroke="#000" stroke-width="0.6"/><path d="M374,148.06c-6.91-8.37-16.37-16.74-27.14-18.48a65.52,65.52,0,0,1,24,28.24" transform="translate(0 0.5)" fill="#f9d050" stroke="#000" stroke-width="0.6"/><path d="M377.93,147.7c-8.73-15.72-15.43-18.49-19.21-21.62,3.13,5.9,10.77,21.62,15.28,28.24" transform="translate(0 0.5)" fill="#f9d050" stroke="#000" stroke-width="0.6"/><path d="M360.47,146.68A42.16,42.16,0,0,1,373,158.83" transform="translate(0 0.5)" fill="none" stroke="#000" stroke-width="0.6"/><path d="M360.47,154c2,1.75,5.89,3.86,9.39,7" transform="translate(0 0.5)" fill="#f9d050" stroke="#000" stroke-width="0.6"/><path d="M402,159.2a77,77,0,0,1,15-8.74" transform="translate(0 0.5)" fill="#f9d050" stroke="#000" stroke-width="0.6"/><path d="M399.48,156.8c3.49-4.59,10.48-10.85,12.95-13" transform="translate(0 0.5)" fill="#f9d050" stroke="#000" stroke-width="0.6"/><path d="M409.23,135.11A207.59,207.59,0,0,0,396,151.56" transform="translate(0 0.5)" fill="#f9d050" stroke="#000" stroke-width="0.6"/><path d="M400.21,132a113,113,0,0,0-8.74,15.36" transform="translate(0 0.5)" fill="#f9d050" stroke="#000" stroke-width="0.6"/><path d="M372.62,132.71c2.11,5.6,6,15,7.28,18.85" transform="translate(0 0.5)" fill="#f9d050" stroke="#000" stroke-width="0.6"/><path d="M369.49,138.6a46.94,46.94,0,0,1,5.24,10.48" transform="translate(0 0.5)" fill="#f9d050" stroke="#000" stroke-width="0.6"/><path d="M381.36,136.85c0-3.12,2.11-6.55,4.22-6.55,2.4,0,4.14,4.15,4.14,6.55,0,2.84-2.11,5.25-4.14,5.25C383.39,142.1,381.36,140.06,381.36,136.85Z" transform="translate(0 0.5)" fill="#f9d050" stroke="#000" stroke-width="0.6"/><path d="M376.84,139.69c.37-3.49,2.77-6.26,4.88-6s3.13,4.58,2.76,7c-.36,2.77-2.76,4.88-4.51,4.51C378.23,145.22,376.48,142.82,376.84,139.69Z" transform="translate(0 0.5)" fill="#f9d050" stroke="#000" stroke-width="0.6"/><path d="M386.23,140.71c-.73-3.13.73-6.55,2.84-7s4.15,3.12,4.51,6c.73,2.77-1.09,5.53-2.84,5.53C389.07,145.59,386.6,143.84,386.23,140.71Z" transform="translate(0 0.5)" fill="#f9d050" stroke="#000" stroke-width="0.6"/><path d="M381,143.48c0-3.42,2.11-6.55,4.22-6.55,2.4,0,4.15,3.78,4.15,6.55s-2,5.24-4.15,5.24S381,146.68,381,143.48Z" transform="translate(0 0.5)" fill="#f9d050" stroke="#000" stroke-width="0.6"/><path d="M374.73,145.22c0-3.12,2.48-6.55,4.51-6.55,2.19,0,4.23,4.15,4.23,6.55,0,2.84-2.48,5.24-4.23,5.24C377.21,150.46,374.73,148.43,374.73,145.22Z" transform="translate(0 0.5)" fill="#f9d050" stroke="#000" stroke-width="0.6"/><path d="M387.61,143.84c0-3.13,2.19-6.55,4.23-6.55,2.4,0,4.14,4.15,4.14,6.55,0,2.84-2,5.24-4.14,5.24S387.61,147,387.61,143.84Z" transform="translate(0 0.5)" fill="#f9d050" stroke="#000" stroke-width="0.6"/><path d="M386.23,146.68c0-3.49,2.48-6.62,4.51-6.62,2.19,0,4.23,3.78,4.23,6.55s-2.12,5.31-4.23,5.31S386.23,149.74,386.23,146.68Z" transform="translate(0 0.5)" fill="#f9d050" stroke="#000" stroke-width="0.6"/><path d="M380.7,149.81c0-3.49,2-6.62,4.15-6.62,2.47,0,4.22,4.15,4.22,6.55,0,2.91-2.18,5.31-4.22,5.31s-4.22-2.18-4.22-5.24Z" transform="translate(0 0.5)" fill="#f9d050" stroke="#000" stroke-width="0.6"/><path d="M372,149.81c0-3.49,1.74-6.62,3.49-6.62s3.13,4.15,3.13,6.55c0,2.91-1.75,5.31-3.13,5.31C373.71,155.05,372,152.87,372,149.81Z" transform="translate(0 0.5)" fill="#f9d050" stroke="#000" stroke-width="0.6"/><path d="M391.47,149.15c0-3.2,1.75-6.33,3.5-6.33s3.49,3.86,3.49,6.26c0,3.13-2.11,5.24-3.49,5.24-1.75,0-3.5-2.11-3.5-5.24Z" transform="translate(0 0.5)" fill="#f9d050" stroke="#000" stroke-width="0.6"/><path d="M393.58,155c.73-3.42,2.77-6.26,4.15-5.83s1.75,4.44,1.09,6.92c-.36,3.13-2.47,4.88-3.85,4.51s-2.12-2.76-1.46-5.53Z" transform="translate(0 0.5)" fill="#f9d050" stroke="#000" stroke-width="0.6"/><path d="M387,154c.36-3.13,2.4-6.26,4.15-5.9,2.11,0,3.13,4.15,2.84,6.55-.37,3.21-2.19,5.32-3.86,4.95-1.75,0-3.49-2.47-3.13-5.6Z" transform="translate(0 0.5)" fill="#f9d050" stroke="#000" stroke-width="0.6"/><path d="M377.21,155c-1.1-3.42-3.21-5.83-4.59-5.53s-1.75,4.51-1,7c.73,2.77,2.77,4.52,4.15,4.15,1.09-.29,2.18-2.76,1.46-5.53Z" transform="translate(0 0.5)" fill="#f9d050" stroke="#000" stroke-width="0.6"/><path d="M374.73,154.32c0-3.13,1.75-6.26,3.5-6.26,2.11,0,3.49,3.86,3.49,6.26,0,3.13-1.75,5.24-3.49,5.24C376.77,159.56,374.73,157.45,374.73,154.32Z" transform="translate(0 0.5)" fill="#f9d050" stroke="#000" stroke-width="0.6"/><path d="M380,155.71c0-3.5,2.11-6.56,4.15-6.56,2.48,0,4.22,3.79,4.22,6.56s-2.11,5.24-4.22,5.24S380,158.83,380,155.71Z" transform="translate(0 0.5)" fill="#f9d050" stroke="#000" stroke-width="0.6"/><path d="M381.72,117.35c-.73,2.77-3.13,5.24-1.46,9.1-3.05-1.09-5.82-1.46-8.29,1.38,3.13-.36,5.89.73,7.27,2.77a4.23,4.23,0,0,0-4.87,2.83c2.47-.72,4.87-1.45,6-1.09-1.1,1.09-2.84,2.77-3.13,4.22,2-1.74,4.51-1.45,5.89-2.47-1,2.47,1,4.88,2.77,7.28-.29-3.42,1.74-5.83.73-7.64,3.12.72,3.49,3.49,8,3.49-1.75-1-2.76-4.51-4.88-4.51,1-.37,5.25-.73,6,0a6.3,6.3,0,0,0-4.58-2.77c1.45-1.45,3.86-4.22,5.6-5-2.47.37-6.26.73-7.64,2.84,3.42-2.84,2.77-8,6.55-8.73-2-.37-5.17,1-7.64,3.49,1.09-2.11,1.09-4.88,2.47-5.6-2.84.72-6,4.22-7,6a13.21,13.21,0,0,0-1.75-5.6Z" transform="translate(0 0.5)" fill="#f9d050" stroke="#000" stroke-width="0.6"/><path d="M383.47,123a12,12,0,0,1-.37,3.79" transform="translate(0 0.5)" fill="#f9d050" stroke="#000" stroke-width="0.6"/><path d="M388,122.59a9,9,0,0,0-2.11,5.24" transform="translate(0 0.5)" fill="#f9d050" stroke="#000" stroke-width="0.6"/><path d="M390.09,126.74a5.52,5.52,0,0,0-2.48,3.2" transform="translate(0 0.5)" fill="none" stroke="#000" stroke-width="0.6"/></g><path d="M353.12,161.31a7.52,7.52,0,0,1-6-2.77c-2.4-3.2-9-4.58-11.87-1.74-1,.72-2.4.72-3.42,1-1.74,0-3.85,1.74-3.2,5.24,1.46-1.1,1.75,0,2.84,0,.73-.37.36.36.36,1,0,1.74,3.79,5.24,7.28,4.87,3.86,0,5.61,1.46,6.26,2.18,1.09,1,.37.66,1.09,2.41,1,1,1.39,1.38-.36,2.76a7.06,7.06,0,0,0-.9,9.95,7.65,7.65,0,0,0,.9.9c4.51,3.42,16,8.73,29-1.46,12.51-9.75,32-4.15,33.48-.73a30.41,30.41,0,0,1,2.76,7.35c.36,1.46,2.11,2.84,4.59,2.48a11.92,11.92,0,0,1,6.55,2.11c1.82,1,4.22.73,3.56-2.48-1.45-9.75-7.35-11.13-8-15.64,3.42.29,5.82.29,7.27-1.09,1-1.39,2.41-3.86,3.86-4.52,1-.73,1-1.45-.36-1.09-1.75.36-2.77,1.09-6,.73-16-1.75-61-14-69.72-11.5Z" transform="translate(0 0.5)" fill="#059334" stroke="#000" stroke-width="1.4"/><path d="M424.3,173.17a25.34,25.34,0,0,0-6.7,7c-3.42,4.51-13.9,9-26.86,9-12.51,0-20.16-2-25.76-6.55a43.63,43.63,0,0,0-7.72-4.94c-3.78-1.75-4.51-5.61-3.49-8.74-1,1.75-1.67,3.49-3.78,3.13-1.46,0-4.22,0-3.5,1.46-.36-.73-.36-1.75-.72-2.19l-.73-.65c1.09.73,3.56-1.38,5.31-1.38,1.38.36,3.13-1.39,2.77-3.5l-1-4.51c2.76-1.46,39.37,5.24,46.72,5.89,7.28.37,28.24,3.5,25.48,6Z" transform="translate(0 0.5)" stroke="#000" stroke-width="1.4"/><path d="M358,159.93c3.5-3.5,7.64-5.24,11.87-4.22h1c2.19-1.75,7-2.12,9.83-.73h1.38c4.15-1.39,12.16,0,15,2.84l1,.72c9.47-.72,15,3.42,21.62,10.12a6.9,6.9,0,0,0,3.49,2.4c2.11.37,2.48,1.46.73,2.48a27.58,27.58,0,0,0-7.28,6.55c-3.2,4.22-13.32,8.44-25.91,8.44-12.15,0-19.5-2.18-25.11-6.33a79.59,79.59,0,0,0-7.27-4.88c-2.11-.73-4.88-3.49-3.86-6.26.73-2.76-1-6.26-2.4-9.75,1-.73,3.78-1.75,5.16-1Z" transform="translate(0 0.5)" fill="#059334" stroke="#000" stroke-width="1.4"/><path d="M419.71,168.66c-6.55-6.7-12.15-10.84-21.62-10.19a5.44,5.44,0,0,1-.36,2.18,48.28,48.28,0,0,1,17.1,12.89C416.29,172.08,418.69,170.41,419.71,168.66Z" transform="translate(0 0.5)" fill="#00493d" stroke="#000" stroke-width="1.4"/><path d="M397.08,157.82c-2.84-2.77-10.85-4.23-15-2.77a11.54,11.54,0,0,1-.72,4.88c2.47,1,4.51,3.49,6.62,5.89,1.45-.36,4.87-1.38,6.62-1.74A33,33,0,0,0,397.08,157.82Z" transform="translate(0 0.5)" fill="#00493d" stroke="#000" stroke-width="1.4"/><path d="M380.7,155c-2.84-1.39-7.71-1-9.83.73a15.62,15.62,0,0,0-1,5.6,7,7,0,0,1,4.14,1.75,18.89,18.89,0,0,0,6-3.13c.37-1.46,1-3.5.73-4.88Z" transform="translate(0 0.5)" fill="#00493d" stroke="#000" stroke-width="1.4"/><path d="M358,159.93c3.5-3.5,7.64-5.24,11.87-4.22-.73,1.09-1,3.12-1,5.24-3.86-.37-8.74.72-10.85,2.11Z" transform="translate(0 0.5)" fill="#00493d" stroke="#000" stroke-width="1.4"/><path d="M413.45,174.19a46.82,46.82,0,0,0-16-12.23c0,.37-.73,1.75-1.09,2.84a126.56,126.56,0,0,1,8,14,58.77,58.77,0,0,0,9.1-4.59Z" transform="translate(0 0.5)" fill="#00493d" stroke="#000" stroke-width="1.4"/><path d="M387,181.91a132.37,132.37,0,0,0,1-14.34c1.74-.37,5.24-1.38,6.62-1.75,1.75,2.84,6,10.19,7.72,13.61C398.09,180.45,391.11,182.2,387,181.91Z" transform="translate(0 0.5)" fill="#00493d" stroke="#000" stroke-width="1.4"/><path d="M374.73,165.17a29.43,29.43,0,0,0,5.9-3.5,30.81,30.81,0,0,1,5.24,4.88c0,3.13-1,12.23-1.39,15.28-2.76,0-7.27-.65-9.75-2,.37-5.24.73-11.14,0-14.63Z" transform="translate(0 0.5)" fill="#00493d" stroke="#000" stroke-width="1.4"/><path d="M357.26,169.32a14.33,14.33,0,0,0,.73-4.15c2.77-1.75,9.76-3.5,15-.73a89.31,89.31,0,0,1-.37,14.34,69.8,69.8,0,0,0-15.28-9.46Z" transform="translate(0 0.5)" fill="#00493d" stroke="#000" stroke-width="1.4"/><path d="M339.87,163c-.73,0-1.09-2-2.47-2-.37,0-1.39.36-1.75,0a2.41,2.41,0,0,0,.73,1.74c.36,1,2.11.37,3.49.37Z" transform="translate(0 0.5)"/><path d="M339.87,169c4.15,0,4.88-5.24,7-5.53" transform="translate(0 0.5)" fill="none" stroke="#000" stroke-width="1.4"/><path d="M342.27,169.32c3.13,1.45,5.61-5.9,8-5.61" transform="translate(0 0.5)" fill="none" stroke="#000" stroke-width="1.4"/><path d="M336,160.29c1,0,1.75-1.46,3.5.29a3.72,3.72,0,0,0,2.47,1.09" transform="translate(0 0.5)" fill="none" stroke="#000" stroke-width="1.4"/><path d="M341.25,165.46c-1.45,2.18-3.85,3.49-5.24,2.84" transform="translate(0 0.5)" fill="none" stroke="#000" stroke-width="1.4"/><path d="M335.28,156.8a11.51,11.51,0,0,0-2.4,3.13" transform="translate(0 0.5)" fill="none" stroke="#000" stroke-width="1.4"/><path d="M331.86,162v1.75" transform="translate(0 0.5)" fill="none" stroke="#000" stroke-width="1.4"/></g><g id="g1475"><path d="M448.31,207.38v68c0,58.95-27.87,79.18-65.21,95.19-37.33-16-65.5-36.24-65.5-95.19V207.31H448.31Z" transform="translate(0 0.5)" fill="#fff"/><path id="path1313" d="M383.1,264.88c3.13,0,8-2.77,12.23-7,4.51-4.88,12.23-6.55,20.23,0s12.88,3.86,17.11,0,7.64-5.24,15.64-5.24V207.38H317.53v45.34c8,0,11.5,1.46,15.72,5.24s9,6.63,17.1,0c8.37-6.55,15.65-4.87,20.52,0,3.86,4.22,8.74,7,12.23,7Z" transform="translate(0 0.5)" fill="#c8102e"/><g id="g1321"><path id="path1315" d="M383.1,299.81c4.22,0,12.59-4.58,14.63-5.6,7.72-4.59,13.25-.37,17.83,1.74,4.88,2,13.9,4.52,19.51,0s8.73-4.22,12.59-4.22a118.09,118.09,0,0,0,.73-16.37v-4.22c-4.95-1-7.35.36-12.59,4.94s-11.21,3.5-18.93.73c-7.28-3.2-14.55-8.73-21.9,0a17.64,17.64,0,0,1-11.87,5.83c-5.24,0-9.75-3.43-11.86-5.83-7.64-8.73-14.63-3.2-22,0-7.64,2.77-14,3.79-19.14-.73-4.88-4.58-7.35-6-12.59-4.94v4.22a128.29,128.29,0,0,0,1,16.37c3.85,0,6.69-.36,12.22,4.22s15,2,19.58,0c4.88-2.11,10.41-6.33,18.12-1.74,2.11,1,10.12,5.53,14.63,5.53Z" transform="translate(0 0.5)" fill="#0b50a0"/><path id="path1317" d="M383.1,314.8a37,37,0,0,0,17.11-5.24c7-3.85,11.86-2.18,18.85,1.39,7.27,3.49,13.24,2.4,17.46,0,2-1.46,3.79-4.22,8.3-3.13a78.44,78.44,0,0,1-9,22.63,23.65,23.65,0,0,1-18.2-1.38c-7.28-3.49-16.38-5.6-21.25-2.47a26.27,26.27,0,0,1-13.25,4.22,26.76,26.76,0,0,1-13.24-4.22c-4.88-3.13-14-1-21.26,2.47a23.68,23.68,0,0,1-18.19,1.46,82.6,82.6,0,0,1-9-22.71c4.52-1.09,6.26,1.74,8.37,3.13a17.44,17.44,0,0,0,17.11,0c7.27-3.5,12.15-5.24,19.14-1.46a37,37,0,0,0,17.1,5.31Z" transform="translate(0 0.5)" fill="#0b50a0"/><path id="path1319" d="M383.1,370.55a139.59,139.59,0,0,0,37.34-21.61c-2.84-1-4.51-.37-7-2.11s-9.75-2.4-16,1.09a28.4,28.4,0,0,1-28.6,0c-6.34-3.49-13.61-2.84-16-1.09s-4.22,1.09-7.05,2.18A134.27,134.27,0,0,0,383.1,370.55Z" transform="translate(0 0.5)" fill="#0b50a0"/></g><g id="lion"><path id="path1323" d="M374,224.41c.37.73-.29,2.48,0,3.13.73,1.46.73,2.18,1.75,2.84h2.48c7.64,0,16.74-3.13,24.38-3.13,7.35,0,11.86,2.4,16,2.4,2.47,0,4.58-1.75,4.58-3.49s-2.76-2.77-8.73-2.77c-8.37,0-12.88,2.11-19.87,2.11-10.48,0-12.23-3.86-12.23-5.6s1.75-4.15,7.35-4.15a5.55,5.55,0,0,0,3.86-1.09,7.54,7.54,0,0,1,3.5-3.13c2.4-1.46,7.27,0,9.75-1.75,0,1.46-2.11,3.5-3.86,4.22,3.49-1.09,7.28-1.09,8,1.75-1.75-1.09-4.52-.36-5.53,0-1.46.29-2.12.73-3.5,1,1.38-.37,2.11,2.4,4.15,2.4-2,1.75-5.53,1.75-9,.36a22,22,0,0,0-5.61-1.38c-3.49,0-5.6.73-5.6,2.11,0,1.75,2.18,2.77,8.37,2.77s9.82-1.75,19.21-1.75c-.73-1,.37-2.11-1-3.13,3.5,0,7.28,1,8.74,3.49-.37-2.47,1.67-4.51,1-6.62a5.48,5.48,0,0,1,4.14,4.15c0-1,1.46-1,1.46-2a5.4,5.4,0,0,1,2.77,5.53c1-1.74,2.11-1,2.76-3.13.73,1.46.36,5.61-2.11,7a5.44,5.44,0,0,1,7.35,1c-2.11-.29-3.13.73-4.15,1.09a32.35,32.35,0,0,1-16.45,3.5c-5.53-.37-6.26-1.46-9.75-1.46,2.11.36,6.26,4.58,10.19,4.58a19,19,0,0,0,5.17-.36,6,6,0,0,1,4.15.73c1.09,1,3.2,2,4.58,1.75a3.13,3.13,0,0,1-2.11,2.4c1.75,1.09.73,1.74,2.48,3.13-.73,0-1.46.72-2.48.36,1,1,1,2.48,2.11,3.13-.36,0-1.45.36-2.11,0,1,1.46,0,3.13,1,3.86,1.09,1.45-1,3.13-2.77,1.74a1.4,1.4,0,0,1-1.74,1.75c-1-.36-1.75-1.45-1.46-1.75,0-.36,0-.36.44-.72a2.27,2.27,0,0,1-2.84.72c-.29-.36-.73-.72-.73-1a2.21,2.21,0,0,1-3.05-2.48c.29-1,2.4-1.45,3.13-1s1.38.73,2.11,0a1.9,1.9,0,0,0,1-1.74c0-1.1-1-4.23-5.6-3.86A55.18,55.18,0,0,1,402,239.4c-.36-.29-.73-.29-1.09-.72,0,1.45-1.38,2.18-1.38,3.56a3.62,3.62,0,0,0,2.84,3.79c-1.1,1.74-2.84,1.45-3.5.36,0,1.09-1.45,1.75-1.45,3.13-.29-.73-.73-1-1-1.75-1,2.48-3.86,3.86-5.24,3.21-1.75,1.38-3.79,1-4.51-.37a2.5,2.5,0,0,1-3.13,0c0,1-.73.73-1.1,2.11,0,.73-1.38,1-2,.73A1.69,1.69,0,0,1,380,251a2,2,0,0,1-2.76,0c0-.73,0-1.75.72-2.19h.66c-.73-.29-1.75,0-2.48-.29a1.64,1.64,0,0,1-.36-2.11c.36-.36,1.46-1,2.18-.36l.3.36c0-.73.36-1.38.72-1.38.73-.37,1.68-.37,2.77.73.73,1,1.38,1,3.49.72,1.75,0,4.51-1.82,6.55-3.56-5.82-1-2.4-4.88-.65-6.26a7.48,7.48,0,0,0-4.88.36c-7.28,3.86-15,8.37-19.87,7a4.41,4.41,0,0,0,.73,2c-1.09,0-3.2,0-3.86-1a4.78,4.78,0,0,0-.36,3.85,11.16,11.16,0,0,0-3.86-1.74c.73.73,0,2.11.37,3.13-1-1-2.77-1.75-3.5-1a3.45,3.45,0,0,1-3.13.73,5.44,5.44,0,0,1-2.76,2c0-.72,0-1.74-.37-2.11a5.92,5.92,0,0,1-2.76,3.13,5.31,5.31,0,0,0-.37-2.4c0,1.38-2.76,2.11-3.13,3.13a8.1,8.1,0,0,0,.37-2.76,5.31,5.31,0,0,1-3.5,2.4c.29-.73.73-1.46.29-2.11-.29,1.45-2.4,2.18-4.14,1.74,0,.73-1.46,1.75-3.13.73-1.09-.36-1.75-1.45-1.09-2.11-1.39,0-2.77-1.38-2-2.4,0-.37.29-.73.29-1.09a2,2,0,0,1-.29-3.13c.29-.37,1.38-.37,2-.37,0-2.76,2.47-2.76,3.49-.72.73,1.09,2.84,2.83,4.58,2.47.73,0,1-.36,1.75-.36a31.24,31.24,0,0,0,8.73-4.52,7.61,7.61,0,0,0,.3-2.4,10,10,0,0,0-3.5,2.4v-1c-1,0-2.76-.37-3.49-.37.36-.36.73-2.11,1.45-2.47a12.43,12.43,0,0,1-5-.29c.73-.73.73-1.75,1.1-2.84-.73.36-2.48-.29-3.86,0,.36-1,.73-2.4,1.75-2.77a7.93,7.93,0,0,1-4.88-.73c1.46,0,2.11-1.74,3.13-1.74-2.77,0-3.49-1.39-4.88-2,1,.29,1.75-.73,2.77-.73-1-.36-2.77-2.11-2-3.13a6.8,6.8,0,0,1-1.45,1.46,3.23,3.23,0,0,1-3.13-1.09c-.73-1.46-.37-3.13,1.09-3.5a1.67,1.67,0,0,1-1.57-1.78,1.73,1.73,0,0,1,.48-1.06c.36-.72,1.74-1.67,2.47-.72l1,1.45a8.51,8.51,0,0,1-.36-3.13c.36-1,1.09-1,2.18-1.45.94,0,1.67,1.09,1.67,2.18a13.59,13.59,0,0,0,.73,3.13l.29-1.46c0-1.38,1.75-1,2.84-.72s1.38,2.47,0,3.56a1.63,1.63,0,0,0,.36,2.4c2.41,3.86,6.55,7,10.12,7.35a5.73,5.73,0,0,1,1.75-3.85,4.8,4.8,0,0,1,.73-2.4c.29-2.12,1.31-3.13,2.69-2.48-.29-.36-.73-.73-.73-1-1-1.09-2-2.84-1.31-4.22s2.77-1,3.49-.29c-.36-2.18,2-3.86,2-4.95.37,1.09,1.09,2.48.73,3.49.36-1.38,2.76-3.13,4.51-3.78-.73,1,1.46,2.77,1.09,3.78.73-1.74,3.5-2.76,5.53-2.76a4.12,4.12,0,0,0-.72,2.76c1.09,0,2.91-.29,3.56-1.38a5,5,0,0,1-1.45,3.49c.36-.36,1.74-.36,2.84-.36-1.1,1.09-.73,2.18-1.75,2.84,1.38-.73,3.13-.73,3.49.73.73,1-.36,2.76-1.09,3.78-.73.37-1.38,1-1.75,1Z" transform="translate(0 0.5)" fill="#f9d050" stroke="#000" stroke-width="1.4"/><g id="g1423"><path id="path1325" d="M352.46,228.63c-2.47,1-3.2,3.5-3.57,4.88" transform="translate(0 0.5)" fill="none" stroke="#000" stroke-width="1.4"/><path id="path1327" d="M352.1,231c-3.5,2.19-5,3.86-4.22,7.72" transform="translate(0 0.5)" fill="none" stroke="#000" stroke-width="1.4"/><path id="path1329" d="M353.77,241.59c2.18-.73,3.49-1.46,5.24-4.59" transform="translate(0 0.5)" fill="none" stroke="#000" stroke-width="1.4"/><path id="path1331" d="M358,238.38c-.73,1.46,0,3.86-1,4.88a6.43,6.43,0,0,0,3.5-4.88" transform="translate(0 0.5)" fill="none" stroke="#000" stroke-width="1.4"/><path id="path1333" d="M358.72,242.24a11.81,11.81,0,0,0,4.51-5.24c-.36,1,0,2.77-.73,3.86,1.75-1.75,2.48-2.84,2.84-4.59l.29,1.46a3.76,3.76,0,0,0,1.46-2.84" transform="translate(0 0.5)" fill="none" stroke="#000" stroke-width="1.4"/><path id="path1335" d="M367,235.91v1.75a4.54,4.54,0,0,0,1.82-4.15" transform="translate(0 0.5)" fill="none" stroke="#000" stroke-width="1.4"/><path id="path1337" d="M368.47,235.62c2.11-1.46,2.4-3.49,2.4-6.62" transform="translate(0 0.5)" fill="none" stroke="#000" stroke-width="1.4"/><path id="path1339" d="M370.87,232.49c1.46-1.09,1.75-1.75,1.75-5" transform="translate(0 0.5)" fill="none" stroke="#000" stroke-width="1.4"/><path id="path1341" d="M368.11,218.15a1.34,1.34,0,0,0-1.46,1.46c0,.65-1,1.67-1,2.76-.29,1.39-1,1.75-2,1.39-1.1-.73-1.1-.73-1.1-1.75,0-1.46,1.75-1.75,1.75-3.13.37-.73.73-1.75,1.09-1.75-1.74,1-4.22.29-4.58-1.74" transform="translate(0 0.5)" fill="none" stroke="#000" stroke-width="1.4"/><path id="path1343" d="M371.24,219.17c-.73.36-1.46-.73-2.4-.29-.37,0-1.46.29-1.75,0" transform="translate(0 0.5)" fill="none" stroke="#000" stroke-width="1.4"/><path id="path1345" d="M366.36,220.92a4.13,4.13,0,0,0,3.86.36,1.33,1.33,0,0,1-1.09-2.4" transform="translate(0 0.5)" fill="none" stroke="#000" stroke-width="1.4"/><path id="path1347" d="M363.23,217.42c-1.45,0-2.47,1.1-2.11,2.19s1.75,1,2.77.29" transform="translate(0 0.5)" fill="none" stroke="#000" stroke-width="1.4"/><path id="path1349" d="M360.76,234.89a2.55,2.55,0,0,0,.73-1.45,2.43,2.43,0,0,0,1.74-.66,3,3,0,0,0,2.77-2c.73,0,1.09-1.74,1.45-2.47.3.36,1,0,1.39-1.46a1.42,1.42,0,0,0,2-1" transform="translate(0 0.5)" fill="none" stroke="#000" stroke-width="1.4"/><path id="path1351" d="M356.61,223.39c0,.37-.73,1-1.46,1.46.37.65,0,2.4-.65,2.69a3,3,0,0,1-.37,2.47c0,.37.37,1.46.37,1.75" transform="translate(0 0.5)" fill="none" stroke="#000" stroke-width="1.4"/><path id="path1353" d="M358,216.4c-.73,1.75-.36,3.86,1,4.23" transform="translate(0 0.5)" fill="none" stroke="#000" stroke-width="1.4"/><path id="path1355" d="M358.72,221.94c-.36,1.82-.36,4.22-.73,5.31-.36.73-1,3.13,1.75,3.78,3.13.73,4.88.37,6.62-4.87" transform="translate(0 0.5)" fill="none" stroke="#000" stroke-width="1.4"/><path id="path1357" d="M371.6,239.77a1.15,1.15,0,0,1-1,1.09" transform="translate(0 0.5)" fill="none" stroke="#000" stroke-width="1.4"/><path id="path1359" d="M374,239.11a3.85,3.85,0,0,1-1,2" transform="translate(0 0.5)" fill="none" stroke="#000" stroke-width="1.4"/><path id="path1361" d="M376.48,238.38c0,.73,0,1.75-.73,2.12" transform="translate(0 0.5)" fill="none" stroke="#000" stroke-width="1.4"/><path id="path1363" d="M355.23,216.77c.29,0,.72.73,1,1.38-1-.73-2.12,1-1.46,2.11" transform="translate(0 0.5)" fill="none" stroke="#000" stroke-width="1.4"/><path id="path1365" d="M354.13,222.66l-1.38,1.1" transform="translate(0 0.5)" fill="none" stroke="#000" stroke-width="1.4"/><path id="path1367" d="M353.12,225.79c-.37,0-.73.37-1,.37" transform="translate(0 0.5)" fill="none" stroke="#000" stroke-width="1.4"/><path id="path1369" d="M336.38,219.53c0-.36,0-.36.36-.72" transform="translate(0 0.5)" fill="none" stroke="#000" stroke-width="1.4"/><path id="path1371" d="M333.25,218.52c-.37,0-.37,0-.73-.37" transform="translate(0 0.5)" fill="none" stroke="#000" stroke-width="1.4"/><path id="path1373" d="M333.54,223.39h.73" transform="translate(0 0.5)" fill="none" stroke="#000" stroke-width="1.4"/><path id="path1375" d="M332.16,221.28a3.65,3.65,0,0,0-2-1" transform="translate(0 0.5)" fill="none" stroke="#000" stroke-width="1.4"/><path id="path1377" d="M351.37,234.24c-2.48,2-3.49,3.78-3.86,6.26" transform="translate(0 0.5)" fill="none" stroke="#000" stroke-width="1.4"/><path id="path1379" d="M353.77,235.91a8,8,0,0,1-2.76,3.2" transform="translate(0 0.5)" fill="none" stroke="#000" stroke-width="1.4"/><path id="path1381" d="M340.23,246.39a8,8,0,0,1-7-1c-.37-.36-.73-.36-1.09-.73" transform="translate(0 0.5)" fill="none" stroke="#000" stroke-width="1.4"/><path id="path1383" d="M350.64,241.59c-.29,1.31-.73,3-1.38,3.42,2.84-1.46,5.24-3.5,5.6-6.63" transform="translate(0 0.5)" fill="none" stroke="#000" stroke-width="1.4"/><path id="path1385" d="M330.41,248.14c1.09-.37,2.18.36,2.84-.37" transform="translate(0 0.5)" fill="none" stroke="#000" stroke-width="1.4"/><path id="path1387" d="M391.11,236.64a19.31,19.31,0,0,1,2.11,1,5.43,5.43,0,0,1,2.76-2" transform="translate(0 0.5)" fill="none" stroke="#000" stroke-width="1.4"/><path id="path1389" d="M366.36,244c-.36-1.46.37-3.13,2.48-3.86" transform="translate(0 0.5)" fill="none" stroke="#000" stroke-width="1.4"/><path id="path1391" d="M352.75,249.88c.37-.72.37-1.74.73-2.4" transform="translate(0 0.5)" fill="none" stroke="#000" stroke-width="1.4"/><path id="path1393" d="M337.4,251c-.37.72-1,1.38-1,2" transform="translate(0 0.5)" fill="none" stroke="#000" stroke-width="1.4"/><path id="path1395" d="M332.16,251.63a.35.35,0,0,1,.36-.36,4.46,4.46,0,0,0,2.11-1.75" transform="translate(0 0.5)" fill="none" stroke="#000" stroke-width="1.4"/><path id="path1397" d="M379.61,246.75c-.73.37-1,0-1.38-.36" transform="translate(0 0.5)" fill="none" stroke="#000" stroke-width="1.4"/><path id="path1399" d="M379.24,248.5a1,1,0,0,1-.72.36" transform="translate(0 0.5)" fill="none" stroke="#000" stroke-width="1.4"/><path id="path1401" d="M381,250.25c-.36.36-.73.73-1,.73" transform="translate(0 0.5)" fill="none" stroke="#000" stroke-width="1.4"/><path id="path1403" d="M391.11,251c.73-.37,1.09-1.1,1.45-2.48" transform="translate(0 0.5)" fill="none" stroke="#000" stroke-width="1.4"/><path id="path1405" d="M386.6,250.61a7.8,7.8,0,0,0,2.76-2.11" transform="translate(0 0.5)" fill="none" stroke="#000" stroke-width="1.4"/><path id="path1407" d="M396.35,247.77a3.93,3.93,0,0,1,.36-2" transform="translate(0 0.5)" fill="none" stroke="#000" stroke-width="1.4"/><path id="path1409" d="M422.19,251a1.5,1.5,0,0,1,.36-2.48c.73-.36,1-.73,1.75-1" transform="translate(0 0.5)" fill="none" stroke="#000" stroke-width="1.4"/><path id="path1411" d="M400.86,238.68c-5.53-2.41-5.17-5.54-9.75-5.17" transform="translate(0 0.5)" fill="none" stroke="#000" stroke-width="1.4"/><path id="path1413" d="M425.68,249.59c.36.29,0,1.39,0,1.68" transform="translate(0 0.5)" fill="none" stroke="#000" stroke-width="1.4"/><path id="path1415" d="M428.81,249.59a5.46,5.46,0,0,0-.37,2.4" transform="translate(0 0.5)" fill="none" stroke="#000" stroke-width="1.4"/><path id="path1417" d="M402,216.77H399" transform="translate(0 0.5)" fill="none" stroke="#000" stroke-width="1.4"/><path id="path1419" d="M372.62,228.63c0,.73,1.09,2.11,3.86,2.11a1.26,1.26,0,0,1-.73-.36" transform="translate(0 0.5)" fill="none" stroke="#000" stroke-width="1.4"/><path id="path1421" d="M374,224.41c-.29.36-.72,0-.72,0-.66-.73.43-2,1.45-2.77a6.43,6.43,0,0,1-2.47.37c-.73,2.11-2.77,3.13-4.15,1.75-.37,1.38-2.11,3.13-3.49,2.76-1.46-.73-1.75-1.75-1.46-2.76a2.86,2.86,0,0,1-4.44,0c-.36-.73,0-2.48.73-4.59" transform="translate(0 0.5)" fill="none" stroke="#000" stroke-width="1.4"/></g><path id="path1425" d="M396.35,237.66c-1,.72-2.11,0-3.13,1.09-.73.73.36,1,1,1-.29,1.09-.29,1.45,1.45,1.45-.72,1,1.39,1.39,1,2.77a3.34,3.34,0,0,0,.73-3.49c-.36-1.1-2.18-1.75-1.09-2.84Z" transform="translate(0 0.5)"/><g id="g1461"><path id="path1427" d="M364.62,226.52c-1.46-.73-1.75-1.75-1.46-2.76a1.67,1.67,0,0,1-1.67,1c-1.46,3.13-3.13,6-5.24,6-2.48.29-2.12,2.77-.37,2.77C359.74,234.24,361.49,232.78,364.62,226.52Z" transform="translate(0 0.5)" fill="#073163"/><path id="path1429" d="M330.12,218.15a1.43,1.43,0,0,0-.37-2.4,4,4,0,0,0-4.22,1.67c1.09-.29,2.19-.29,2.48.37s1,1.45,2.11.36Z" transform="translate(0 0.5)" fill="#073163"/><path id="path1431" d="M331.86,211.89c2.41,0,3.13.37,3.42,1.38a1.28,1.28,0,0,1-1,1.75c-1,0-2.11-.73-1.75-1a1.47,1.47,0,0,0-.73-2.18Z" transform="translate(0 0.5)" fill="#073163"/><path id="path1433" d="M338.78,217.42c1.74.37,2.47-.72,1.45-2-.36-1.1-1.45-1.75-3.2-1.46C338.78,215,337,216.77,338.78,217.42Z" transform="translate(0 0.5)" fill="#073163"/><path id="path1435" d="M325.9,223.39a2.91,2.91,0,0,0,3.49,1.46,1.61,1.61,0,0,0,1-2.19c-.73-1-1.75-1.38-2,0A1.57,1.57,0,0,1,325.9,223.39Z" transform="translate(0 0.5)" fill="#073163"/><path id="path1437" d="M331.14,244.64c-.73-1.38-2.77-1.38-4.52,0a2.06,2.06,0,0,1,2.41.73,1.44,1.44,0,0,0,1.45.73C330.77,245.74,331.5,245.37,331.14,244.64Z" transform="translate(0 0.5)" fill="#073163"/><path id="path1439" d="M333.9,242.61c0-1.75-2.4-2.19-3.78-1.46.73,0,1.74.73,1.74,1.46a1.66,1.66,0,0,0,1.39,1c.72-.36,1-.72.72-1Z" transform="translate(0 0.5)" fill="#073163"/><path id="path1441" d="M330.41,248.86c-2-.36-3.13,2.12-3.13,3.79a2.1,2.1,0,0,1,2.47-1.38c1,0,1.39-.29,1.39-1,.36-.73,0-1-.73-1.46Z" transform="translate(0 0.5)" fill="#073163"/><path id="path1443" d="M330.77,254.76c.73.36,1.46-.36,1.75-1.38,0-.73,1.45-.73,1.75-.37.72.37.72,1.75-.37,2.48-.73.36-2.4.73-3.13-.73Z" transform="translate(0 0.5)" fill="#073163"/><path id="path1445" d="M379.24,244.28c-.72-.29-2.4-1-3.78,0a1.66,1.66,0,0,1,2,1.09.79.79,0,0,0,1.45.37C379.24,245.37,379.68,244.64,379.24,244.28Z" transform="translate(0 0.5)" fill="#073163"/><path id="path1447" d="M376.11,246.75c-1.38-.72-3.12,1-3.49,2.48a5.06,5.06,0,0,1,2.48-1.09c.72.36,1.38,0,1.38-.73.36-.29.36-.66-.37-.66Z" transform="translate(0 0.5)" fill="#073163"/><path id="path1449" d="M377.93,249.59a3,3,0,0,0-2.47,2.77,1.24,1.24,0,0,1,1.75-.73c.72,0,1.74-.36,1.74-1a1,1,0,0,0-1.09-1.09Z" transform="translate(0 0.5)" fill="#073163"/><path id="path1451" d="M381,252.36a1.17,1.17,0,0,0-1.75,1,5.52,5.52,0,0,1-.29,2.47,8.17,8.17,0,0,1,2-1.45,1.45,1.45,0,0,0,0-2Z" transform="translate(0 0.5)" fill="#073163"/><path id="path1453" d="M420.44,249.23a1.32,1.32,0,0,0-2.11.29,4.65,4.65,0,0,0,0,3.86c0-.73.73-1.75,1.45-1.75A1.54,1.54,0,0,0,420.44,249.23Z" transform="translate(0 0.5)" fill="#073163"/><path id="path1455" d="M422.55,250.61c-1.46.73-1.46,3.13-.36,4.51a2.61,2.61,0,0,1,1-2.11c1.1,0,1.46-1.38,1.1-2a1.74,1.74,0,0,0-1.75-.37Z" transform="translate(0 0.5)" fill="#073163"/><path id="path1457" d="M426.7,252a1.08,1.08,0,0,0-1.46,1,3.14,3.14,0,0,0,1.46,3.13,2.55,2.55,0,0,1,.73-1.74C428.44,253.67,428.15,252.36,426.7,252Z" transform="translate(0 0.5)" fill="#073163"/><path id="path1459" d="M429.83,251.63c-.73,0-1.39,1-.73,2.11.36.73,1.09,1,2.47.73-.36,0-1-1.09-.72-1.46C431.21,252.29,430.85,251.63,429.83,251.63Z" transform="translate(0 0.5)" fill="#073163"/></g></g><g id="star"><path id="path1464" d="M332.88,316.84l17.47-53.71,17.47,53.71L322,283.73h56.62Z" transform="translate(0 0.5)" fill="#f9d050"/><path id="path1466" d="M336.38,312l36.24-26.5H328L363.89,312l-13.54-42.51Z" transform="translate(0 0.5)" fill="#024919"/></g><g id="use1469"><path d="M398.46,316.84l17.47-53.71,17.46,53.71-45.78-33.11h56.63Z" transform="translate(0 0.5)" fill="#f9d050"/><path d="M402,312l36.25-26.5H393.58L429.46,312l-13.53-42.51Z" transform="translate(0 0.5)" fill="#024919"/></g><g id="use1471"><path d="M365.63,354.83l17.47-53.71,17.47,53.71-45.78-33.11h56.62Z" transform="translate(0 0.5)" fill="#f9d050"/><path d="M369.13,350l36.24-26.49H360.76L396.64,350,383.1,307.45Z" transform="translate(0 0.5)" fill="#024919"/></g><path id="path1473" d="M448.31,207.38v68c0,58.95-27.87,79.18-65.21,95.19-37.33-16-65.5-36.24-65.5-95.19V207.31H448.31Z" transform="translate(0 0.5)" fill="none" stroke="#000" stroke-width="1.4"/></g></svg>