<svg id="flag-icons-lk" xmlns="http://www.w3.org/2000/svg" viewBox="0 0 512 512"><title>lk</title><path d="M0,0H512V512H0Z" fill="#ffb700"/><path d="M21.3,256,91.4,21.3h70.1V490.7h-70Z" fill="#ff5b00"/><path d="M21.3,21.3H91.4V490.7h-70Z" fill="#005641"/><path d="M182.7,21.3h308V490.7h-308Z" fill="#8d2029"/><path id="a" d="M463.4,454.9s2.9,5.9,6.1,8.3c4.8,3.5,14.5,3.3,18.6,7.4,5,5-.4,11.4-.3,12l.3,3.4a34.62,34.62,0,0,0-4.8.3c-2.1.3-3,2-6.9,1.8-9.9-.7-9.5-9.6-10-17.2-.5-3-1.7-6.7-2.3-9.6a38.88,38.88,0,0,1-.7-6.4Z" fill="#ffb700" stroke="#000" stroke-width="0.9"/><path d="M212.9,454.9s-2.9,5.9-6.1,8.3c-4.8,3.5-14.5,3.3-18.6,7.4-5,5,.4,11.4.3,12l-.3,3.4a34.62,34.62,0,0,1,4.8.3c2.1.3,3,2,6.9,1.8,9.9-.7,9.5-9.6,10-17.2.5-3,1.7-6.7,2.3-9.6a38.88,38.88,0,0,0,.7-6.4Z" fill="#ffb700" stroke="#000" stroke-width="0.9"/><path d="M463.4,57.1s2.9-5.9,6.1-8.3c4.8-3.5,14.5-3.3,18.6-7.4,5-5-.4-11.4-.3-12l.3-3.4a34.62,34.62,0,0,1-4.8-.3c-2.1-.3-3-2-6.9-1.8-9.9.7-9.5,9.6-10,17.2-.5,3-1.7,6.7-2.3,9.6a38.88,38.88,0,0,0-.7,6.4Z" fill="#ffb700" stroke="#000" stroke-width="0.9"/><path d="M212.8,57.1s-2.9-5.9-6.1-8.3c-4.8-3.5-14.5-3.3-18.6-7.4-5-5,.4-11.4.3-12l-.3-3.4a34.62,34.62,0,0,0,4.8-.3c2.1-.3,3-2,6.9-1.8,9.9.7,9.5,9.6,10,17.2.5,3,1.7,6.7,2.3,9.6a38.88,38.88,0,0,1,.7,6.4Z" fill="#ffb700" stroke="#000" stroke-width="0.9"/><g id="b"><path d="M290.8,335.84l1.84-1.12.8,1.12c1,1.44,4,1.36,5.92,0l1.52-1.2,1.28,1.12c1.6,1.52,4.64,1.52,6.64,0,1.36-1,1.6-1,2.4-.24a9.42,9.42,0,0,0,3.52,1.2c2.56.32,2.56.32,4-1.92,1.28-1.84,1.44-2.56,1.2-4.4-.22-1.41-.38-2.82-.48-4.24-.16-2.08-.08-2.08,2.88-3.2a39.28,39.28,0,0,0,4.32-1.6c1.2-.72,4.56-4.64,4.56-5.44a7.13,7.13,0,0,0-2.88-.64c-6.4-.8-7.44-4.16-3.28-10.4,6.64-10.4,10.72-20.4,10.72-26.72,0-2.88.24-3.84.56-3.2,1.52,2.48-1.2,13.12-5.2,20.8l-1.6,3,1.52-.32c.8-.24,5.92-2.4,11.2-4.8,14.56-6.56,19.52-7.84,29-7.44,7.92.32,11.2,1.84,16.8,7.68,3,3.2,5.84,5.36,11,8.64,11,6.88,11.52,7.52,12.08,15.68s.24,8.72-6,10.08c-5.36,1.2-8.72,3.68-9.6,7.2-.48,1.76.56,1.84,3.2.08l2-1.28.88,1.28c1.2,1.68,3.6,1.68,5.6,0l1.6-1.2,1.6,1.2c2.4,2,5.6,1.52,6.56-1,.16-.4.64-.32,1.6.56,1.84,1.6,6.4,2.24,6.88,1a3.84,3.84,0,0,0-.8-2.56c-2.64-4-3.52-5.84-3.52-8,0-3,.8-4.56,4.32-7,4.16-3,5.44-6.88,2.24-6.88-1.92,0-3.92-1.76-5.2-4.56-2.56-5.76-2-12.16,1.84-22.88a46.16,46.16,0,0,0,4.32-20.16c0-5.92-.16-6.88-1.44-10.16a36.06,36.06,0,0,0-3.68-6.48l-2.24-3,2.8-2.4c8.64-7.12,6.88-18.8-3.52-23.28-3.2-1.44-4-1.52-9.6-1.52a71,71,0,0,0-11.2,1,78.67,78.67,0,0,1-11.36,1c-5.44,0-6.4-.16-8.48-1.28s-2.56-1.68-3-4.4a1.61,1.61,0,0,0-.88-1.2c-.8-.24-4.16,2.72-4.64,4-.32.72-.48.64-1.2-.24a10.56,10.56,0,0,1-1.6-2.88c-.8-2.64.24-4.56,3.36-6.08l2.4-1.12-1.44-.88c-2.88-1.84-7.84-.56-9.6,2.4a6.75,6.75,0,0,1-1.28,1.6,9.14,9.14,0,0,1-2.08-1.84c-3.76-3.68-2.48-9.12,2.56-10.72,2.64-.88,5-.24,5.52,1.6.8,2.64,3-.88,2.64-4.16-.24-2.16-.24-2.24,1.28-2.24,2.08,0,6.4,2.72,7.84,4.8,1.6,2.48,1.44,6.4-.32,9.28l-1.36,2.24,1.84-.32a10.55,10.55,0,0,0,6.4-4.16,9.6,9.6,0,0,0,.32-8.32c-1.2-2.16-1-2.48.72-1.76,2.88,1.2,4.48,2.56,5.6,4.88,1.12,2.08,1.2,2.56.64,4.8a13.64,13.64,0,0,1-1.76,3.84c-1,1.28-1,1.52-.24,1.52a10.54,10.54,0,0,0,5.36-2.4,10.84,10.84,0,0,0,1.76-3.2l.8-2,.8,1.6a13.88,13.88,0,0,0,6.48,5.44c3.12,1.28,4.4,1.36,2.8.16-1.12-.8-3.2-6.8-2.48-7.36a40.7,40.7,0,0,1,9.36,7.2c4.56,4.08,7.44,5.44,11.6,5.44,5.36,0,8.48-4.64,6.08-9a3.81,3.81,0,0,0-6.4-.8,3.24,3.24,0,0,0-.8,3c.32,1.28.24,1.44-1,1.44-1.6,0-4.64-2-10.08-6.56a81.5,81.5,0,0,0-25.68-15,56.49,56.49,0,0,0-19.44-1,32.64,32.64,0,0,0-14.56,7c-5.84,5.6-5.92,13-.24,19.84l1.6,1.92-1,1.76a7.45,7.45,0,0,0,.32,8.32c.8,1.12,1.6,2,1.84,2s.32-.72.4-1.6c.16-2.16,1.12-3.6,2.72-4.16,1.44-.56,2.4-.24,9,2.4,7,2.72,18.4,2.88,30.56.48a34.07,34.07,0,0,1,16,.16c5.76,2.4,7,8.56,2.88,13.2-1.84,2.08-3.52,2.88-9.36,4.48a43.39,43.39,0,0,1-15.6,1.2c-8.64-.08-11.76.08-15.2.8-3.92.8-6.24.88-17.44.64l-13-.32,1.44,1.12a17.89,17.89,0,0,0,2.48,1.84c1,.56,1,.64-.48,1.2a14.69,14.69,0,0,1-4.24.56h-2.64l-.32,2.24a7.84,7.84,0,0,0,0,3.2c.32.8.16,1-.64.64a20.67,20.67,0,0,0-3.44-.88,20.94,20.94,0,0,1-4-1.28c-1.52-.8-1.68-.8-2.24.24-.48.8-5,4.16-5.6,4.16a21.24,21.24,0,0,0-1.76-6c-.8-1.68-1.52-3.6-1.76-4.16-.24-.88-.4-1-.8-.24a14.07,14.07,0,0,0-.8,2.56,12.43,12.43,0,0,1-1.44,3.68l-1.2,1.76-.8-1.52c-.8-1.6-2.08-3.36-2.56-3.36-.16,0-.4.48-.56,1.2-.4,1.28-3.52,5-4.32,5-.24,0-.48-1-.48-2.4,0-1.2-.24-2.32-.56-2.32s-.56.4-.56.8c0,1-2.64,4-3.6,4a2.25,2.25,0,0,0-1.36.8c-1,1-1.76.88-1.36-.32a7.29,7.29,0,0,0-.32-3l-.8-2.56c-.16-.4-1.12-.24-3.2.4-3.2,1-4.32.8-2.64-.48A9.08,9.08,0,0,0,301.2,247c.56-1.6,1.36-3,1.76-3.12.56-.16.56,0-.16,1a4.54,4.54,0,0,0-.88,2.08,8.81,8.81,0,0,1-.8,2.32,4.24,4.24,0,0,0-.72,1.68,12.65,12.65,0,0,0,2.8-1l2.56-1.28v1.12a17.49,17.49,0,0,0,.72,3.6l.72,2.4,1.76-.8c1.76-.8,3.44-3.68,3.44-6,0-1.12.64-1,1,.24,0,.32.48,1.68.8,3l.8,2.24,1.2-1.44a11,11,0,0,0,1.84-3.44c.64-1.92,1.6-2.8,1.6-1.36,0,1,2.72,4.64,3.2,4.32.32-.16.8-1.52,1.2-3,.8-3.2,2-5.28,2.8-4.8a.55.55,0,0,1,.24.8c-.16.16.48,2.24,1.44,4.48q1,2.52,2.08,5c.32.8.64.8,2.64-1a12.35,12.35,0,0,0,2.48-2.72c.24-.64.48-.56,1.6.16a19.88,19.88,0,0,0,7.6,2.24,10.22,10.22,0,0,0,.32-3.2l.08-3,1.6.32a11.08,11.08,0,0,0,4,0l2.4-.32-2.16-1.6a12.63,12.63,0,0,1-2.72-2.32,3.49,3.49,0,0,0-2.56-1c-3.28-.32-9.12-3.52-9.12-5.12,0-.32.8.24,1.76,1.12a12.53,12.53,0,0,0,8,3.2h1.92l-1.2-1.6a9.52,9.52,0,0,1-1.6-4.16c-.16-2.4-.4-2.72-2.88-4.4a27.92,27.92,0,0,1-4-3.44l-1.36-1.52-.72,1.84c-.4,1-.8,1.84-1,1.84a5.69,5.69,0,0,1-1.6-1.36,5.51,5.51,0,0,0-1.6-1.28c-.24,0-.8,1-1.44,2.16l-1.12,2.16-.8-1.2a19.39,19.39,0,0,0-2.4-2.72c-1-.8-1.36-1.44-1-1.44a7.26,7.26,0,0,1,2.4,1.84l1.76,1.84.8-1.36a4.83,4.83,0,0,0,.4-3c-.32-1.44-.24-1.52.24-.56a13,13,0,0,0,2.4,2.4l1.76,1.44,1.2-2.16c1.2-2.24,1.2-2.24,1.68-.88.8,1.68,6,6,10.4,8.48.8.4.48-.88-.8-4a10.35,10.35,0,0,1-.64-3.2c0-1.44-.4-2.08-2.24-3.52a8.71,8.71,0,0,1-4-6.72,9,9,0,0,0-1.12-3.28c-.48-.8-.64-.32-.48,2.08a11.31,11.31,0,0,1-.48,4.64l-.64,1.6-.48-1.36a9.2,9.2,0,0,0-2.8-2.8c-1.2-.8-2.08-1.6-1.92-1.76s1.44.56,2.8,1.6c2.16,1.68,2.56,1.84,2.88,1.12s0-4.48-.64-7c-.32-1.28-.32-1.28,1.28.32,1.12,1.12,1.76,2.56,2.32,5,.64,3,1,3.6,3.76,6.08a17.5,17.5,0,0,0,3.28,2.56,85.41,85.41,0,0,0,.48-8.64c.32-8.88,0-11-2.16-13.76l-1.12-1.44,1.76-1.84a12.81,12.81,0,0,0,3.76-7l.32-2.16-1.92,1.84c-1.6,1.52-2.4,1.84-4.24,1.84a4.16,4.16,0,0,1-3.76-1.6,16,16,0,0,0-6.64-3.84c-1-.32-1.28-.16-1.28.48a9.34,9.34,0,0,1-1.12,3l-1.12,2.08-2.4-2.4a12.25,12.25,0,0,0-4.56-2.88c-3.28-.8-3.44-.8-3.44,1.68,0,3.76-1.6,4.48-4.48,2-2.24-1.92-4-2.4-8.24-1.84l-3.2.32.56,1.44c.48,1.2.4,1.76-.64,3.12-1.68,2.24-3.84,3.2-7.2,3.2a12.07,12.07,0,0,0-4.32.72,17.18,17.18,0,0,1-4.56,1,32.12,32.12,0,0,0-4,.64c-.8.32-.8,0-.56-1.76.4-2.72-1.6-4.8-4.56-4.8-3.92,0-5.68,3.52-4.16,8.16.31,1,.58,2,.8,3a18.38,18.38,0,0,0,4.16,5.28,44.35,44.35,0,0,1,4.32,4.8,7.14,7.14,0,0,0,2.4,2l1.76,1-.24-1.92c-.24-2.08.16-2.4,1.28-.88a11,11,0,0,0,2.24,1.84c1.36.8,1.6.8,1.6.16a8,8,0,0,1,.56-2.32l.56-1.44,1,2a40.51,40.51,0,0,0,4.08,5.6c3.28,3.76,5.36,8,4.32,9-.48.4-1.6.4-4-.08a19.69,19.69,0,0,0-5-.4c-1.84.24-2,0-.8-1.44,1.2-1.6,1-1.84-1.44-1.84a52.14,52.14,0,0,1-12.48-2.4c-2.56-1-3.2-.8-4,1.68l-1.36,4.48-.8,2.4,2.88-.24a29.86,29.86,0,0,0,4.4-.8,4.78,4.78,0,0,1,1.76-.24c.16.08-.24,1-.8,2.16l-1.12,1.92,1.76-.32A18.82,18.82,0,0,0,287,235c1.44-.64,1.6-.64,2.72,1.2,1.36,2.16,2.4,2.08,2.64-.24s1-2.08,2.56,1.12c1.44,3,2.88,4.16,3.2,2.4a4.14,4.14,0,0,1,1.68-2.24c1.76-1.2,3-.8,3.76,1,.8,2-1,4-5.92,7a34.38,34.38,0,0,0-17.36,24.8c-1.52,9.44,3.2,19.2,12.48,26.32,4.48,3.36,11.6,6.88,11.12,5.6-1.92-5.84-1.84-16.8.08-18.64.32-.32.24.8-.24,2.48-1.6,6.32-.8,11.28,3.2,23,3.52,10.56,3,15.12-2.08,18.08-1.6,1-2.64,1.12-7,1-4.8,0-5.36,0-6.88,1.28a12.55,12.55,0,0,0-3.44,6.88c0,1,1.12.88,3.2-.32Z" fill="#ffb700" stroke="#000" stroke-width="5.6"/><path d="M368.4,335.6l2-1.28,1.36,1.28a3.74,3.74,0,0,0,5.6-.08c.8-.8,1.44-1.28,1.52-1.2l.72,1.28c.4.72,1.28,1,2.88,1.2,1.84.08,2.4,0,3.2-1.12l.8-1.36,2,1.28c5.44,3.52,8.32-.16,5.84-7.44-1.2-3.68-.48-5.76,3.44-10.4,1.68-2,3-4.16,3-4.8,0-.88-.32-1-2.56-1-2.08,0-2.72-.24-3.84-1.44-1.84-2-1.68-4.32.32-6.88l1.6-2-2.88-1.92a48,48,0,0,1-6.4-5.68,20.58,20.58,0,0,0-14-7.2l-3.76-.4v2.88c0,3.6,1.76,7.12,6.4,13,5.28,6.72,5.6,7.76,5.84,16.56l.24,7.44-1.6,1.44c-1.36,1.28-1.92,1.52-6.4,1.76-4.24.24-5.2.48-6.4,1.6a7,7,0,0,0-2.72,4.24c-.24,1.2-.16,1.44.72,1.44a8,8,0,0,0,3-1.28ZM254.64,316.4a4.68,4.68,0,0,0,.8-2.4c0-.8.48-1.12,2.56-1.44l2.48-.32-1.6-1.36c-2-1.6-2.24-2.8-.48-2.8s4.64-1.76,5.12-3.12a2.07,2.07,0,0,0-.32-1.84c-1-1.12-2.8-1-3.12.32s-1,1.28-2.4,0c-2-2-2.08-6.08,0-8.48.88-1.12.88-1.12-.32-2.32s-2.24-3.68-1.6-4.32a4,4,0,0,1,2.24.4c1.6.48,2.16.48,2.8,0,1.84-1.52-.16-3.44-3.2-3-1.28.16-1.76,0-1.92-.64a3.84,3.84,0,0,0-2.4-1.44c-2.16-.56-2.16-.56-2.16,1s-1,1.92-2.72.88c-1.44-.8-2.8-.16-2.8,1.36s1.36,2.08,4,1.92c1.92-.08,2,1.36.16,3.44l-1.36,1.6,1,1.52a7,7,0,0,1-.24,7.92l-1.36,1.44-.88-1.2c-1.28-1.6-3-1.52-3.44.24-.24,1.12,0,1.6,1.44,2.88a6.32,6.32,0,0,0,3.12,1.44c1.84,0,1.76,1.52-.16,3l-1.6,1.2,2.4.32c1.28.24,2.4.56,2.4.8,0,1,1.6,4.16,2.08,4.16.32,0,1-.56,1.44-1.2Z" fill="#ffb700" stroke="#000" stroke-width="5.6"/><path d="M285.2,303.12c2.16-.8,6.8-4.8,6.8-5.68,0-.32-1.28-1.76-2.88-3.2-3.2-2.88-6.8-7.92-7.76-10.8-.48-1.6-2.8-4.16-9.36-10.56l-8.72-8.4-2.48.64a26.06,26.06,0,0,1-3.76.64c-1.2,0-1.2,0,.4,1.28l1.6,1.28,2.4-1.28c2.16-1.28,2.24-1.28,2.48-.24a2.94,2.94,0,0,1-.8,2.32,3.25,3.25,0,0,0-.8,1.84c.24.24-.32.8-1.2,1.28-1.6.8-2.8,3.44-1.52,3.44s3.76-3.2,3.44-4.24a1.52,1.52,0,0,1,.16-1.28c1-.56,1,1.92,0,3.2-.64.64-1,1.44-.8,1.76s-.4.8-1.28,1.28c-1.6.8-2.8,3.44-1.52,3.44s3.76-3,3.52-4.16c-.16-.56-.16-1.2.08-1.36.72-.32,1,1.6.48,2.56a1.83,1.83,0,0,0,0,1.76,3.15,3.15,0,0,1-1,3.6c-.4.24-.16.8,1,1.6,1.6,1.12,1.6,1.28,1.6,6.4,0,4.32.16,5.44,1,6.16s1,.8,1,0,1.6-1.92,2.8-1.92c.4,0,2.72,2,5.2,4.4s5.12,4.56,5.84,4.64l1.76.32a7.94,7.94,0,0,0,2.48-.8Zm-26.64-20.88c0-1.36-2.88-2.88-6.32-3.2-2.8-.4-2.8-.32-2.8,1,0,1.12.4,1.6,2.4,2.4C254.88,283.84,258.56,283.68,258.56,282.24Z" fill="#ffb700" stroke="#000" stroke-width="5.6"/><path d="M261.68,282.08c1.44-1.28,2.08-2.72,1.2-2.72s-3.52,2.24-3.52,3.2c0,1.28.48,1.2,2.4-.48Zm-3-4.08c.08-.8-.4-1.28-1.84-2-3.2-1.36-6.88-2.08-7.76-1.36-1.68,1.36-.56,3.12,2.08,3.44a11.73,11.73,0,0,1,3.28.72c2.08.8,4,.4,4.24-.8Zm0-4.24c.16-1-.56-1.44-6.4-3.52-4.4-1.6-6.32-.8-4.88,1.84.48.88,1.28,1.28,3.12,1.6a22.45,22.45,0,0,1,4.08.88c2.4.8,3.84.48,4-.8Zm2.88-3.92a5.29,5.29,0,0,0,1.6-2.4c0-1.2-3.44,1-3.92,2.64-.48,1.84.4,1.76,2.4-.24Zm-2.88-.24c.16-1.28-1.92-2.4-6.08-3.28-3.12-.72-4.48-.32-4.24,1.12.16.8,1.2,1.36,4,2.24,4.72,1.44,6.08,1.44,6.32-.08Zm4-5.92c5.44-2.4,5.84-8.4.8-10-2.08-.64-3.36-.24-4.16,1.12-.64,1.12-.24,3,.56,3,.32,0,.56.4.56.8,0,2.16-8.16,3-11.52,1.36-1.2-.56-1.6-2.16-.72-2.16s1.28-1.6.88-2.64c-.48-1.6-2.08-2.08-4.24-1.44-5,1.28-4.88,7.2.24,9.6a26.88,26.88,0,0,0,17.6.32Z" fill="#ffb700" stroke="#000" stroke-width="5.6"/><path d="M259.44,259c.32-.32.16-.8-.32-1.12-1.12-.88-1-2.24.16-3.76,1-1.12,1-2.88,1.36-20.08.56-29.68,2.8-52,5.68-57.44,1.2-2.08,1-2.08-2,0A28.77,28.77,0,0,0,255,187.52c-5,9.2-6.64,21.6-6.64,48.16,0,15,.08,17,1,18.4a3.22,3.22,0,0,1,.32,3.36,3.18,3.18,0,0,0-.4,2c1.12,1,9.12.8,10.24-.4Zm44.88-28.32c.24-.24-.16-1.6-.8-2.88-1-2.08-1.36-2.4-2.72-2.4a52,52,0,0,1-18.4-5.12c-4.08-1.84-5.6-2.24-6-1.76-1.28,1.2.8,4,4,5.52A51.24,51.24,0,0,0,295,227c2.16,0,2.24,0,1,1.84l-.8,1.28h2.4l4,.48C304,231.2,304,231.2,304.32,230.72Z" fill="#ffb700" stroke="#000" stroke-width="5.6"/><path d="M329.6,244.08c0-.8-2.32-2.8-4.56-4.16-1.84-1-2.16-1.12-2.16-.24,0,1.28-1.12,4.56-1.6,4.56-.24,0-.64-.64-.8-1.36a12.16,12.16,0,0,0-2-3.44l-1.6-2-1.12,1.84c-1.12,1.76-3.12,3.44-4,3.44-.16,0-.24-1,0-2,.08-1.28,0-2.24-.4-2.4s-.64-.16-.64.16c0,.64-2.72,3.68-3.2,3.68-.32,0-.64-.8-.8-1.92l-.64-3.84c-.16-1,.24-.32.8,1.6l1.28,3.28,1.28-2a8.92,8.92,0,0,0,1.28-2.72c0-.4.24-.56.56-.4s.72,1.52.88,3l.4,2.72,1.44-1.6a23.25,23.25,0,0,0,2.08-2.56c.56-1,.64-1,1.84,0a17.55,17.55,0,0,1,2.32,3.12c.64,1.12,1.2,1.92,1.28,1.84l.48-2.56.32-2.4c.08-.4,4.32,2.4,5.92,3.76,1,.88,1.92,1.52,2.08,1.36a8.66,8.66,0,0,0,.32-3c0-2.24-.24-2.88-1.6-4.08-1.6-1.44-1.6-1.44-2.24-.4-.8,1.36-1.68,1.36-1.68,0,0-1-3-4.72-3.76-4.72-.24,0-.88.8-1.44,1.84a5.23,5.23,0,0,1-1.36,1.84c-.8,0-5-4.8-5-5.6,0-.64.32-.48,1,.64a17.06,17.06,0,0,0,2.48,2.88c1.6,1.44,2.24,1.12,2.88-1.68.24-.8.56-1.44.8-1.44.64,0,4.32,3.92,4.8,5.2l.56,1.28.4-1.44c.48-1.76,1-1.76,1.84-.16a11.81,11.81,0,0,0,3.52,3l3,1.92.56-1.92c.32-1,.8-1.6,1-1.28.32.4-.48,3.6-1,4.24a9.31,9.31,0,0,1-2.08-1.2l-2-1.44v2.56a20.13,20.13,0,0,1-.32,3.68c-.4,1.28-1.36,1.6-1.36.48Zm-14.8-20.32c-3.52-2.88-4-3.52-4-5l.08-1.44.24,1.36a7,7,0,0,0,2.24,3l2.08,1.6,1.2-1.44a5.25,5.25,0,0,0,1.28-2.08c0-1,.16-.88,2.56,1.2,2.08,1.84,2.16,1.84,2.4.64a6.58,6.58,0,0,0,0-2.8c-.8-2.4-.64-2.72.4-1.28l1.92,2.24c.8.88.88.88,1.2-.24a10.16,10.16,0,0,0,.4-2.72v-1.52l1.84,2.16c1.84,2.08,2,2.16,2.48,1.12a6.25,6.25,0,0,0,.64-3c0-1.44.16-1.76.48-1.28.64,1,.24,3.36-.88,5.44l-.8,1.6-1-1.68c-1.36-2.08-1.84-2.08-2.64.16s-1.36,2.32-2.16.64c-.48-1-.64-.88-1,1.36l-.4,2.4-2.4-1.84-2.4-1.84-1.2,1.2a5.09,5.09,0,0,0-1,1.92C316.32,224.56,315.68,224.56,314.8,223.76ZM346,212.88c-1.2-1.12-2.08-2.24-1.92-2.4s.4-.32.48-.16q1.15,1.25,2.4,2.4c2.72,2.88,2.16,3-.88.16Zm-41.6-4.32c-1.12-1.6-1-2.56.4-4.32,1-1.2,1.44-1.36,3.2-1.12a16.25,16.25,0,0,1,5.52,2.24,16.93,16.93,0,0,0,8.8,2.4L321,205.52c-1.76-2.64-1.76-3,.32-1.36s4.56,2.16,10.16,2l2.72-.08-1.6-1.6c-2.16-2.16-1.52-2.4,1-.24,2.24,2,2.16,2.16-2.72,2.64a18.3,18.3,0,0,1-6.08-.4c-2.72-.8-2.88-.72-2.32.16.32.56.8,1,1,1a.62.62,0,0,1,.56.64c0,1-5.92.08-8.8-1.28-6.4-3.28-7.2-3.6-8.8-3.12a3.43,3.43,0,0,0-1.92,1.84c-1,2.64,2.72,4.72,4.24,2.4.48-.72.4-1.12-.4-2-1.12-1.12-1-1.28.48-.8,1,.4,1.12,2.88.16,3.84A3.39,3.39,0,0,1,304.4,208.56Z" stroke="#000" stroke-width="5.6"/><path d="M329.92,202.08c-.8-.8-.16-1,3.44-1,4.48-.08,7.2-.8,10.4-2.88,2.56-1.6,3.28-1.28.8.4a18.93,18.93,0,0,1-9,3l-4.08.56a2.51,2.51,0,0,1-1.6-.08Z" stroke="#000" stroke-width="5.6"/></g><path d="M290.8,335.84l1.84-1.12.8,1.12c1,1.44,4,1.36,5.92,0l1.52-1.2,1.28,1.12c1.6,1.52,4.64,1.52,6.64,0,1.36-1,1.6-1,2.4-.24a9.42,9.42,0,0,0,3.52,1.2c2.56.32,2.56.32,4-1.92,1.28-1.84,1.44-2.56,1.2-4.4-.22-1.41-.38-2.82-.48-4.24-.16-2.08-.08-2.08,2.88-3.2a39.28,39.28,0,0,0,4.32-1.6c1.2-.72,4.56-4.64,4.56-5.44a7.13,7.13,0,0,0-2.88-.64c-6.4-.8-7.44-4.16-3.28-10.4,6.64-10.4,10.72-20.4,10.72-26.72,0-2.88.24-3.84.56-3.2,1.52,2.48-1.2,13.12-5.2,20.8l-1.6,3,1.52-.32c.8-.24,5.92-2.4,11.2-4.8,14.56-6.56,19.52-7.84,29-7.44,7.92.32,11.2,1.84,16.8,7.68,3,3.2,5.84,5.36,11,8.64,11,6.88,11.52,7.52,12.08,15.68s.24,8.72-6,10.08c-5.36,1.2-8.72,3.68-9.6,7.2-.48,1.76.56,1.84,3.2.08l2-1.28.88,1.28c1.2,1.68,3.6,1.68,5.6,0l1.6-1.2,1.6,1.2c2.4,2,5.6,1.52,6.56-1,.16-.4.64-.32,1.6.56,1.84,1.6,6.4,2.24,6.88,1a3.84,3.84,0,0,0-.8-2.56c-2.64-4-3.52-5.84-3.52-8,0-3,.8-4.56,4.32-7,4.16-3,5.44-6.88,2.24-6.88-1.92,0-3.92-1.76-5.2-4.56-2.56-5.76-2-12.16,1.84-22.88a46.16,46.16,0,0,0,4.32-20.16c0-5.92-.16-6.88-1.44-10.16a36.06,36.06,0,0,0-3.68-6.48l-2.24-3,2.8-2.4c8.64-7.12,6.88-18.8-3.52-23.28-3.2-1.44-4-1.52-9.6-1.52a71,71,0,0,0-11.2,1,78.67,78.67,0,0,1-11.36,1c-5.44,0-6.4-.16-8.48-1.28s-2.56-1.68-3-4.4a1.61,1.61,0,0,0-.88-1.2c-.8-.24-4.16,2.72-4.64,4-.32.72-.48.64-1.2-.24a10.56,10.56,0,0,1-1.6-2.88c-.8-2.64.24-4.56,3.36-6.08l2.4-1.12-1.44-.88c-2.88-1.84-7.84-.56-9.6,2.4a6.75,6.75,0,0,1-1.28,1.6,9.14,9.14,0,0,1-2.08-1.84c-3.76-3.68-2.48-9.12,2.56-10.72,2.64-.88,5-.24,5.52,1.6.8,2.64,3-.88,2.64-4.16-.24-2.16-.24-2.24,1.28-2.24,2.08,0,6.4,2.72,7.84,4.8,1.6,2.48,1.44,6.4-.32,9.28l-1.36,2.24,1.84-.32a10.55,10.55,0,0,0,6.4-4.16,9.6,9.6,0,0,0,.32-8.32c-1.2-2.16-1-2.48.72-1.76,2.88,1.2,4.48,2.56,5.6,4.88,1.12,2.08,1.2,2.56.64,4.8a13.64,13.64,0,0,1-1.76,3.84c-1,1.28-1,1.52-.24,1.52a10.54,10.54,0,0,0,5.36-2.4,10.84,10.84,0,0,0,1.76-3.2l.8-2,.8,1.6a13.88,13.88,0,0,0,6.48,5.44c3.12,1.28,4.4,1.36,2.8.16-1.12-.8-3.2-6.8-2.48-7.36a40.7,40.7,0,0,1,9.36,7.2c4.56,4.08,7.44,5.44,11.6,5.44,5.36,0,8.48-4.64,6.08-9a3.81,3.81,0,0,0-6.4-.8,3.24,3.24,0,0,0-.8,3c.32,1.28.24,1.44-1,1.44-1.6,0-4.64-2-10.08-6.56a81.5,81.5,0,0,0-25.68-15,56.49,56.49,0,0,0-19.44-1,32.64,32.64,0,0,0-14.56,7c-5.84,5.6-5.92,13-.24,19.84l1.6,1.92-1,1.76a7.45,7.45,0,0,0,.32,8.32c.8,1.12,1.6,2,1.84,2s.32-.72.4-1.6c.16-2.16,1.12-3.6,2.72-4.16,1.44-.56,2.4-.24,9,2.4,7,2.72,18.4,2.88,30.56.48a34.07,34.07,0,0,1,16,.16c5.76,2.4,7,8.56,2.88,13.2-1.84,2.08-3.52,2.88-9.36,4.48a43.39,43.39,0,0,1-15.6,1.2c-8.64-.08-11.76.08-15.2.8-3.92.8-6.24.88-17.44.64l-13-.32,1.44,1.12a17.89,17.89,0,0,0,2.48,1.84c1,.56,1,.64-.48,1.2a14.69,14.69,0,0,1-4.24.56h-2.64l-.32,2.24a7.84,7.84,0,0,0,0,3.2c.32.8.16,1-.64.64a20.67,20.67,0,0,0-3.44-.88,20.94,20.94,0,0,1-4-1.28c-1.52-.8-1.68-.8-2.24.24-.48.8-5,4.16-5.6,4.16a21.24,21.24,0,0,0-1.76-6c-.8-1.68-1.52-3.6-1.76-4.16-.24-.88-.4-1-.8-.24a14.07,14.07,0,0,0-.8,2.56,12.43,12.43,0,0,1-1.44,3.68l-1.2,1.76-.8-1.52c-.8-1.6-2.08-3.36-2.56-3.36-.16,0-.4.48-.56,1.2-.4,1.28-3.52,5-4.32,5-.24,0-.48-1-.48-2.4,0-1.2-.24-2.32-.56-2.32s-.56.4-.56.8c0,1-2.64,4-3.6,4a2.25,2.25,0,0,0-1.36.8c-1,1-1.76.88-1.36-.32a7.29,7.29,0,0,0-.32-3l-.8-2.56c-.16-.4-1.12-.24-3.2.4-3.2,1-4.32.8-2.64-.48A9.08,9.08,0,0,0,301.2,247c.56-1.6,1.36-3,1.76-3.12.56-.16.56,0-.16,1a4.54,4.54,0,0,0-.88,2.08,8.81,8.81,0,0,1-.8,2.32,4.24,4.24,0,0,0-.72,1.68,12.65,12.65,0,0,0,2.8-1l2.56-1.28v1.12a17.49,17.49,0,0,0,.72,3.6l.72,2.4,1.76-.8c1.76-.8,3.44-3.68,3.44-6,0-1.12.64-1,1,.24,0,.32.48,1.68.8,3l.8,2.24,1.2-1.44a11,11,0,0,0,1.84-3.44c.64-1.92,1.6-2.8,1.6-1.36,0,1,2.72,4.64,3.2,4.32.32-.16.8-1.52,1.2-3,.8-3.2,2-5.28,2.8-4.8a.55.55,0,0,1,.24.8c-.16.16.48,2.24,1.44,4.48q1,2.52,2.08,5c.32.8.64.8,2.64-1a12.35,12.35,0,0,0,2.48-2.72c.24-.64.48-.56,1.6.16a19.88,19.88,0,0,0,7.6,2.24,10.22,10.22,0,0,0,.32-3.2l.08-3,1.6.32a11.08,11.08,0,0,0,4,0l2.4-.32-2.16-1.6a12.63,12.63,0,0,1-2.72-2.32,3.49,3.49,0,0,0-2.56-1c-3.28-.32-9.12-3.52-9.12-5.12,0-.32.8.24,1.76,1.12a12.53,12.53,0,0,0,8,3.2h1.92l-1.2-1.6a9.52,9.52,0,0,1-1.6-4.16c-.16-2.4-.4-2.72-2.88-4.4a27.92,27.92,0,0,1-4-3.44l-1.36-1.52-.72,1.84c-.4,1-.8,1.84-1,1.84a5.69,5.69,0,0,1-1.6-1.36,5.51,5.51,0,0,0-1.6-1.28c-.24,0-.8,1-1.44,2.16l-1.12,2.16-.8-1.2a19.39,19.39,0,0,0-2.4-2.72c-1-.8-1.36-1.44-1-1.44a7.26,7.26,0,0,1,2.4,1.84l1.76,1.84.8-1.36a4.83,4.83,0,0,0,.4-3c-.32-1.44-.24-1.52.24-.56a13,13,0,0,0,2.4,2.4l1.76,1.44,1.2-2.16c1.2-2.24,1.2-2.24,1.68-.88.8,1.68,6,6,10.4,8.48.8.4.48-.88-.8-4a10.35,10.35,0,0,1-.64-3.2c0-1.44-.4-2.08-2.24-3.52a8.71,8.71,0,0,1-4-6.72,9,9,0,0,0-1.12-3.28c-.48-.8-.64-.32-.48,2.08a11.31,11.31,0,0,1-.48,4.64l-.64,1.6-.48-1.36a9.2,9.2,0,0,0-2.8-2.8c-1.2-.8-2.08-1.6-1.92-1.76s1.44.56,2.8,1.6c2.16,1.68,2.56,1.84,2.88,1.12s0-4.48-.64-7c-.32-1.28-.32-1.28,1.28.32,1.12,1.12,1.76,2.56,2.32,5,.64,3,1,3.6,3.76,6.08a17.5,17.5,0,0,0,3.28,2.56,85.41,85.41,0,0,0,.48-8.64c.32-8.88,0-11-2.16-13.76l-1.12-1.44,1.76-1.84a12.81,12.81,0,0,0,3.76-7l.32-2.16-1.92,1.84c-1.6,1.52-2.4,1.84-4.24,1.84a4.16,4.16,0,0,1-3.76-1.6,16,16,0,0,0-6.64-3.84c-1-.32-1.28-.16-1.28.48a9.34,9.34,0,0,1-1.12,3l-1.12,2.08-2.4-2.4a12.25,12.25,0,0,0-4.56-2.88c-3.28-.8-3.44-.8-3.44,1.68,0,3.76-1.6,4.48-4.48,2-2.24-1.92-4-2.4-8.24-1.84l-3.2.32.56,1.44c.48,1.2.4,1.76-.64,3.12-1.68,2.24-3.84,3.2-7.2,3.2a12.07,12.07,0,0,0-4.32.72,17.18,17.18,0,0,1-4.56,1,32.12,32.12,0,0,0-4,.64c-.8.32-.8,0-.56-1.76.4-2.72-1.6-4.8-4.56-4.8-3.92,0-5.68,3.52-4.16,8.16.31,1,.58,2,.8,3a18.38,18.38,0,0,0,4.16,5.28,44.35,44.35,0,0,1,4.32,4.8,7.14,7.14,0,0,0,2.4,2l1.76,1-.24-1.92c-.24-2.08.16-2.4,1.28-.88a11,11,0,0,0,2.24,1.84c1.36.8,1.6.8,1.6.16a8,8,0,0,1,.56-2.32l.56-1.44,1,2a40.51,40.51,0,0,0,4.08,5.6c3.28,3.76,5.36,8,4.32,9-.48.4-1.6.4-4-.08a19.69,19.69,0,0,0-5-.4c-1.84.24-2,0-.8-1.44,1.2-1.6,1-1.84-1.44-1.84a52.14,52.14,0,0,1-12.48-2.4c-2.56-1-3.2-.8-4,1.68l-1.36,4.48-.8,2.4,2.88-.24a29.86,29.86,0,0,0,4.4-.8,4.78,4.78,0,0,1,1.76-.24c.16.08-.24,1-.8,2.16l-1.12,1.92,1.76-.32A18.82,18.82,0,0,0,287,235c1.44-.64,1.6-.64,2.72,1.2,1.36,2.16,2.4,2.08,2.64-.24s1-2.08,2.56,1.12c1.44,3,2.88,4.16,3.2,2.4a4.14,4.14,0,0,1,1.68-2.24c1.76-1.2,3-.8,3.76,1,.8,2-1,4-5.92,7a34.38,34.38,0,0,0-17.36,24.8c-1.52,9.44,3.2,19.2,12.48,26.32,4.48,3.36,11.6,6.88,11.12,5.6-1.92-5.84-1.84-16.8.08-18.64.32-.32.24.8-.24,2.48-1.6,6.32-.8,11.28,3.2,23,3.52,10.56,3,15.12-2.08,18.08-1.6,1-2.64,1.12-7,1-4.8,0-5.36,0-6.88,1.28a12.55,12.55,0,0,0-3.44,6.88c0,1,1.12.88,3.2-.32Z" fill="#ffb700"/><path d="M368.4,335.6l2-1.28,1.36,1.28a3.74,3.74,0,0,0,5.6-.08c.8-.8,1.44-1.28,1.52-1.2l.72,1.28c.4.72,1.28,1,2.88,1.2,1.84.08,2.4,0,3.2-1.12l.8-1.36,2,1.28c5.44,3.52,8.32-.16,5.84-7.44-1.2-3.68-.48-5.76,3.44-10.4,1.68-2,3-4.16,3-4.8,0-.88-.32-1-2.56-1-2.08,0-2.72-.24-3.84-1.44-1.84-2-1.68-4.32.32-6.88l1.6-2-2.88-1.92a48,48,0,0,1-6.4-5.68,20.58,20.58,0,0,0-14-7.2l-3.76-.4v2.88c0,3.6,1.76,7.12,6.4,13,5.28,6.72,5.6,7.76,5.84,16.56l.24,7.44-1.6,1.44c-1.36,1.28-1.92,1.52-6.4,1.76-4.24.24-5.2.48-6.4,1.6a7,7,0,0,0-2.72,4.24c-.24,1.2-.16,1.44.72,1.44a8,8,0,0,0,3-1.28ZM254.64,316.4a4.68,4.68,0,0,0,.8-2.4c0-.8.48-1.12,2.56-1.44l2.48-.32-1.6-1.36c-2-1.6-2.24-2.8-.48-2.8s4.64-1.76,5.12-3.12a2.07,2.07,0,0,0-.32-1.84c-1-1.12-2.8-1-3.12.32s-1,1.28-2.4,0c-2-2-2.08-6.08,0-8.48.88-1.12.88-1.12-.32-2.32s-2.24-3.68-1.6-4.32a4,4,0,0,1,2.24.4c1.6.48,2.16.48,2.8,0,1.84-1.52-.16-3.44-3.2-3-1.28.16-1.76,0-1.92-.64a3.84,3.84,0,0,0-2.4-1.44c-2.16-.56-2.16-.56-2.16,1s-1,1.92-2.72.88c-1.44-.8-2.8-.16-2.8,1.36s1.36,2.08,4,1.92c1.92-.08,2,1.36.16,3.44l-1.36,1.6,1,1.52a7,7,0,0,1-.24,7.92l-1.36,1.44-.88-1.2c-1.28-1.6-3-1.52-3.44.24-.24,1.12,0,1.6,1.44,2.88a6.32,6.32,0,0,0,3.12,1.44c1.84,0,1.76,1.52-.16,3l-1.6,1.2,2.4.32c1.28.24,2.4.56,2.4.8,0,1,1.6,4.16,2.08,4.16.32,0,1-.56,1.44-1.2Z" fill="#ffb700"/><path d="M285.2,303.12c2.16-.8,6.8-4.8,6.8-5.68,0-.32-1.28-1.76-2.88-3.2-3.2-2.88-6.8-7.92-7.76-10.8-.48-1.6-2.8-4.16-9.36-10.56l-8.72-8.4-2.48.64a26.06,26.06,0,0,1-3.76.64c-1.2,0-1.2,0,.4,1.28l1.6,1.28,2.4-1.28c2.16-1.28,2.24-1.28,2.48-.24a2.94,2.94,0,0,1-.8,2.32,3.25,3.25,0,0,0-.8,1.84c.24.24-.32.8-1.2,1.28-1.6.8-2.8,3.44-1.52,3.44s3.76-3.2,3.44-4.24a1.52,1.52,0,0,1,.16-1.28c1-.56,1,1.92,0,3.2-.64.64-1,1.44-.8,1.76s-.4.8-1.28,1.28c-1.6.8-2.8,3.44-1.52,3.44s3.76-3,3.52-4.16c-.16-.56-.16-1.2.08-1.36.72-.32,1,1.6.48,2.56a1.83,1.83,0,0,0,0,1.76,3.15,3.15,0,0,1-1,3.6c-.4.24-.16.8,1,1.6,1.6,1.12,1.6,1.28,1.6,6.4,0,4.32.16,5.44,1,6.16s1,.8,1,0,1.6-1.92,2.8-1.92c.4,0,2.72,2,5.2,4.4s5.12,4.56,5.84,4.64l1.76.32a7.94,7.94,0,0,0,2.48-.8Zm-26.64-20.88c0-1.36-2.88-2.88-6.32-3.2-2.8-.4-2.8-.32-2.8,1,0,1.12.4,1.6,2.4,2.4C254.88,283.84,258.56,283.68,258.56,282.24Z" fill="#ffb700"/><path d="M261.68,282.08c1.44-1.28,2.08-2.72,1.2-2.72s-3.52,2.24-3.52,3.2c0,1.28.48,1.2,2.4-.48Zm-3-4.08c.08-.8-.4-1.28-1.84-2-3.2-1.36-6.88-2.08-7.76-1.36-1.68,1.36-.56,3.12,2.08,3.44a11.73,11.73,0,0,1,3.28.72c2.08.8,4,.4,4.24-.8Zm0-4.24c.16-1-.56-1.44-6.4-3.52-4.4-1.6-6.32-.8-4.88,1.84.48.88,1.28,1.28,3.12,1.6a22.45,22.45,0,0,1,4.08.88c2.4.8,3.84.48,4-.8Zm2.88-3.92a5.29,5.29,0,0,0,1.6-2.4c0-1.2-3.44,1-3.92,2.64-.48,1.84.4,1.76,2.4-.24Zm-2.88-.24c.16-1.28-1.92-2.4-6.08-3.28-3.12-.72-4.48-.32-4.24,1.12.16.8,1.2,1.36,4,2.24,4.72,1.44,6.08,1.44,6.32-.08Zm4-5.92c5.44-2.4,5.84-8.4.8-10-2.08-.64-3.36-.24-4.16,1.12-.64,1.12-.24,3,.56,3,.32,0,.56.4.56.8,0,2.16-8.16,3-11.52,1.36-1.2-.56-1.6-2.16-.72-2.16s1.28-1.6.88-2.64c-.48-1.6-2.08-2.08-4.24-1.44-5,1.28-4.88,7.2.24,9.6a26.88,26.88,0,0,0,17.6.32Z" fill="#ffb700"/><path d="M259.44,259c.32-.32.16-.8-.32-1.12-1.12-.88-1-2.24.16-3.76,1-1.12,1-2.88,1.36-20.08.56-29.68,2.8-52,5.68-57.44,1.2-2.08,1-2.08-2,0A28.77,28.77,0,0,0,255,187.52c-5,9.2-6.64,21.6-6.64,48.16,0,15,.08,17,1,18.4a3.22,3.22,0,0,1,.32,3.36,3.18,3.18,0,0,0-.4,2c1.12,1,9.12.8,10.24-.4Zm44.88-28.32c.24-.24-.16-1.6-.8-2.88-1-2.08-1.36-2.4-2.72-2.4a52,52,0,0,1-18.4-5.12c-4.08-1.84-5.6-2.24-6-1.76-1.28,1.2.8,4,4,5.52A51.24,51.24,0,0,0,295,227c2.16,0,2.24,0,1,1.84l-.8,1.28h2.4l4,.48C304,231.2,304,231.2,304.32,230.72Z" fill="#ffb700"/><path d="M329.6,244.08c0-.8-2.32-2.8-4.56-4.16-1.84-1-2.16-1.12-2.16-.24,0,1.28-1.12,4.56-1.6,4.56-.24,0-.64-.64-.8-1.36a12.16,12.16,0,0,0-2-3.44l-1.6-2-1.12,1.84c-1.12,1.76-3.12,3.44-4,3.44-.16,0-.24-1,0-2,.08-1.28,0-2.24-.4-2.4s-.64-.16-.64.16c0,.64-2.72,3.68-3.2,3.68-.32,0-.64-.8-.8-1.92l-.64-3.84c-.16-1,.24-.32.8,1.6l1.28,3.28,1.28-2a8.92,8.92,0,0,0,1.28-2.72c0-.4.24-.56.56-.4s.72,1.52.88,3l.4,2.72,1.44-1.6a23.25,23.25,0,0,0,2.08-2.56c.56-1,.64-1,1.84,0a17.55,17.55,0,0,1,2.32,3.12c.64,1.12,1.2,1.92,1.28,1.84l.48-2.56.32-2.4c.08-.4,4.32,2.4,5.92,3.76,1,.88,1.92,1.52,2.08,1.36a8.66,8.66,0,0,0,.32-3c0-2.24-.24-2.88-1.6-4.08-1.6-1.44-1.6-1.44-2.24-.4-.8,1.36-1.68,1.36-1.68,0,0-1-3-4.72-3.76-4.72-.24,0-.88.8-1.44,1.84a5.23,5.23,0,0,1-1.36,1.84c-.8,0-5-4.8-5-5.6,0-.64.32-.48,1,.64a17.06,17.06,0,0,0,2.48,2.88c1.6,1.44,2.24,1.12,2.88-1.68.24-.8.56-1.44.8-1.44.64,0,4.32,3.92,4.8,5.2l.56,1.28.4-1.44c.48-1.76,1-1.76,1.84-.16a11.81,11.81,0,0,0,3.52,3l3,1.92.56-1.92c.32-1,.8-1.6,1-1.28.32.4-.48,3.6-1,4.24a9.31,9.31,0,0,1-2.08-1.2l-2-1.44v2.56a20.13,20.13,0,0,1-.32,3.68c-.4,1.28-1.36,1.6-1.36.48Zm-14.8-20.32c-3.52-2.88-4-3.52-4-5l.08-1.44.24,1.36a7,7,0,0,0,2.24,3l2.08,1.6,1.2-1.44a5.25,5.25,0,0,0,1.28-2.08c0-1,.16-.88,2.56,1.2,2.08,1.84,2.16,1.84,2.4.64a6.58,6.58,0,0,0,0-2.8c-.8-2.4-.64-2.72.4-1.28l1.92,2.24c.8.88.88.88,1.2-.24a10.16,10.16,0,0,0,.4-2.72v-1.52l1.84,2.16c1.84,2.08,2,2.16,2.48,1.12a6.25,6.25,0,0,0,.64-3c0-1.44.16-1.76.48-1.28.64,1,.24,3.36-.88,5.44l-.8,1.6-1-1.68c-1.36-2.08-1.84-2.08-2.64.16s-1.36,2.32-2.16.64c-.48-1-.64-.88-1,1.36l-.4,2.4-2.4-1.84-2.4-1.84-1.2,1.2a5.09,5.09,0,0,0-1,1.92C316.32,224.56,315.68,224.56,314.8,223.76ZM346,212.88c-1.2-1.12-2.08-2.24-1.92-2.4s.4-.32.48-.16q1.15,1.25,2.4,2.4c2.72,2.88,2.16,3-.88.16Zm-41.6-4.32c-1.12-1.6-1-2.56.4-4.32,1-1.2,1.44-1.36,3.2-1.12a16.25,16.25,0,0,1,5.52,2.24,16.93,16.93,0,0,0,8.8,2.4L321,205.52c-1.76-2.64-1.76-3,.32-1.36s4.56,2.16,10.16,2l2.72-.08-1.6-1.6c-2.16-2.16-1.52-2.4,1-.24,2.24,2,2.16,2.16-2.72,2.64a18.3,18.3,0,0,1-6.08-.4c-2.72-.8-2.88-.72-2.32.16.32.56.8,1,1,1a.62.62,0,0,1,.56.64c0,1-5.92.08-8.8-1.28-6.4-3.28-7.2-3.6-8.8-3.12a3.43,3.43,0,0,0-1.92,1.84c-1,2.64,2.72,4.72,4.24,2.4.48-.72.4-1.12-.4-2-1.12-1.12-1-1.28.48-.8,1,.4,1.12,2.88.16,3.84A3.39,3.39,0,0,1,304.4,208.56Z"/><path d="M329.92,202.08c-.8-.8-.16-1,3.44-1,4.48-.08,7.2-.8,10.4-2.88,2.56-1.6,3.28-1.28.8.4a18.93,18.93,0,0,1-9,3l-4.08.56a2.51,2.51,0,0,1-1.6-.08Z"/></svg>