<svg id="flag-icons-md" xmlns="http://www.w3.org/2000/svg" viewBox="0 0 512 512"><title>md</title><path d="M0,0H170.7V512H0Z" fill="#00319c" fill-rule="evenodd"/><path d="M170.7,0H341.3V512H170.7Z" fill="#ffde00" fill-rule="evenodd"/><path d="M341.3,0H512V512H341.3Z" fill="#de2110" fill-rule="evenodd"/><path d="M289.66,321.52l19.7,28.42c1.11,1.61,2.2,3.17.56,4.21s-1.15,5.22,0,6.83c2.19,3.16,4.94,3.74,6.57,2.7l15-9.46c1.63-1,2.15-3.67-.05-6.84-1.23-1.59-4.91-3.69-6.54-2.66s-2.77-.5-3.85-2.06l-19.76-28.51" fill="#ff1900" stroke="#000" fill-rule="evenodd"/><path d="M297.3,301.41c8.79,10,11.85,21.45,6.84,25.48s-16.3-.81-25.1-10.8-11.82-21.48-6.8-25.52,16.26.78,25.1,10.81Z" fill="#a77b3b" stroke="#000" stroke-width="3.1" fill-rule="evenodd"/><path d="M209.64,309.88l-17.39,29.77c-1,1.68-1.94,3.31-3.65,2.4s-5.39,1.42-6.37,3.1c-1.94,3.32-1.21,5.92.5,6.83l15.65,8.35c1.71.91,4.41.14,6.34-3.18.92-1.78,1.19-5.86-.52-6.78s-.81-2.57.15-4.21l17.44-29.86" fill="#ff1900" stroke="#000" fill-rule="evenodd"/><path d="M265.83,289.18H250c-.56.54-5,28.9-9.92,39.82-5.93,13.27-23.8,25-23.8,25s10.64,3.21,13.89,5.35c.78-.21,17.81-3.8,19.83-24.61,2,20.81-11.93,30.29-11.93,30.29s19.88,5.67,19.88,19c0-13.28,19.82-19,19.82-19s-10-9.48-11.92-30.35c3.92,20.87,19,24.46,19.88,24.62,3.19-2.09,13.83-5.35,13.83-5.35S281.73,342.33,275.79,329c-4.87-10.86-9.4-39.34-9.91-39.82Z" fill="#a77b3b" stroke="#000" stroke-width="3.1" fill-rule="evenodd"/><path d="M198.32,194.3l29.8,9.48c10.64-.68,19.12-8.78,19.82-18.95.34-21.09-7.95-28.47-9.91-28.47l3.92-3.75-5.88-5.78s2-9.84,21.84-9.47,19.83,9.47,19.83,18.95-9.92,9.52-9.92,28.47c.74,10.18,9.23,18.27,19.89,18.94l29.74-9.47v94.94H198.32Z" fill="#a77b3b" stroke="#000" stroke-width="3.1" fill-rule="evenodd"/><path d="M244,198.09l2,5.7,2-5.7,2,5.7,4-5.7,1.93,6,2-6,2.92,6,3-6,2,5.7,2-5.7" fill="none" stroke="#000" stroke-width="0.6"/><path d="M251.92,177.23l-4,20.87m5.94-20.87V198.1m4-20.87V198.1m4-20.87,2,20.87m2-20.87,2,20.87" fill="none" stroke="#000" stroke-width="0.3"/><path d="M178.49,137.41c-19.82,9.48-19.82,28.48-19.82,38,.67,8.61,0,189.61,0,189.61A34.6,34.6,0,0,1,168.58,346l9.86-9.48,9.91-9.47c7.28-6.31,9.91-19,9.91-28.47V165.89s0-9.53-19.82-28.48Z" fill="#a77b3b" stroke="#000" stroke-width="3.1" fill-rule="evenodd"/><path d="M198.32,175.39c-.22,0-9.91-9.47-9.91-9.47l-9.92,9.47-9.91-9.47-9.91,9.47" fill="none" stroke="#000" stroke-width="3.1"/><path d="M198.32,184.81c-.22,0-9.91,9.47-9.91,9.47l-9.92-9.47-9.91,9.47-9.91-9.47" fill="none" stroke="#000" stroke-width="3.1"/><path d="M198.32,213.19c-.22,0-9.91-9.47-9.91-9.47l-9.92,9.47-9.91-9.47-9.91,9.47" fill="none" stroke="#000" stroke-width="3.1"/><path d="M188.29,165.92l.12,161.22" fill="none" stroke="#000" stroke-width="3.1"/><path d="M178.49,175.44l.12,160.83" fill="none" stroke="#000" stroke-width="3.1"/><path d="M168.59,165.92l.12,180.17" fill="none" stroke="#000" stroke-width="3.1"/><path d="M337.31,137.41c19.82,9.48,19.82,28.48,19.82,38-.67,8.61,0,189.61,0,189.61A34.6,34.6,0,0,0,347.22,346l-9.86-9.48-9.91-9.47c-7.28-6.31-9.91-19-9.91-28.47V165.89s0-9.53,19.82-28.48Z" fill="#a77b3b" stroke="#000" stroke-width="3.1" fill-rule="evenodd"/><path d="M317.48,175.39c.22,0,9.91-9.47,9.91-9.47l9.92,9.47,9.91-9.47,9.91,9.47" fill="none" stroke="#000" stroke-width="3.1"/><path d="M317.48,184.81c.22,0,9.91,9.47,9.91,9.47l9.92-9.47,9.91,9.47,9.91-9.47" fill="none" stroke="#000" stroke-width="3.1"/><path d="M317.48,213.19c.22,0,9.91-9.47,9.91-9.47l9.92,9.47,9.91-9.47,9.91,9.47" fill="none" stroke="#000" stroke-width="3.1"/><path d="M327.51,165.92l-.12,161.22" fill="none" stroke="#000" stroke-width="3.1"/><path d="M337.31,175.44l-.12,160.83" fill="none" stroke="#000" stroke-width="3.1"/><path d="M347.21,165.92l-.12,180.17" fill="none" stroke="#000" stroke-width="3.1"/><path d="M231.82,307.25c-5.26,12.06-14.51,19.91-20.55,17.5s-6.73-14.21-1.47-26.26S224.35,278.6,230.4,281s6.75,14.16,1.47,26.26Z" fill="#a77b3b" stroke="#000" stroke-width="3.1" fill-rule="evenodd"/><path d="M198.4,203.8h119v56.9h-119Z" fill="red" fill-rule="evenodd"/><path d="M198.4,260.7h119V289c0,19-29.7,19-59.5,38-29.8-19-59.5-19-59.5-38V260.7Z" fill="#564dff" fill-rule="evenodd"/><path d="M198.32,203.78H317.39v85.41c0,18.95-29.74,18.95-59.53,37.95-29.74-19-59.54-19-59.54-38V203.78Z" fill="none" stroke="#ff0" stroke-width="2.5"/><path d="M236.07,207.64s-19.83,14-19.83,27.3,20.81,17.81,20.81,17.81-6.93,0-6.93,17.79c0,8.93,20.81,4.48,20.81,8.93s-.27,15.2,0,22.26c0,4.45-13.88,0-13.88,4.45,0,2.21,10.43,13.34,20.86,13.34s20.82-11.13,20.82-13.34c0-4.45-13.88,0-13.88-4.45V279.47c0-4.45,20.82,0,20.82-8.93,0-17.79-6.94-17.79-6.94-17.79s20.86-4.45,20.86-17.81-19.88-27.3-19.88-27.3,11.17,18.4,11.17,27.3c0,4.44-5.21,13.36-19.09,13.36,0,0-3.53-4.47-6.94,0,0,0-4-4.47-6.94,0-1,1.51-2.82-4.47-7,0-1.72,1.19-3.13-4.47-6.94,0-6.94,0-20.81-4.47-20.81-13.36s12.89-27.3,12.89-27.3Z" fill="#ff0" stroke="#000" stroke-width="3" fill-rule="evenodd"/><path d="M236.44,287.32c-1.41.91,1.8,15.41,2.74,16,1.41.87,9.76.87,11.14,0,1-.63,0-14.25-1.38-15.13s-11.52-1.51-12.54-.91Z" fill="#ff0" stroke="#000" stroke-width="3" fill-rule="evenodd"/><path d="M279.36,287.32c1.41.91-1.8,15.41-2.74,16-1.41.87-9.76.87-11.14,0-1-.63,0-14.25,1.38-15.13s11.52-1.51,12.54-.91Z" fill="#ff0" stroke="#000" stroke-width="3" fill-rule="evenodd"/><path d="M250.73,282c0,2.77-3.23,5-7.21,5s-7.21-2.24-7.21-5,3.23-5,7.21-5S250.73,279.21,250.73,282Z" fill="#ff0" stroke="#000" stroke-width="3" fill-rule="evenodd"/><path d="M279.43,282c0,2.77-3.23,5-7.21,5s-7.21-2.25-7.21-5,3.23-5,7.21-5S279.43,279.22,279.43,282Z" fill="#ff0" stroke="#000" stroke-width="3" fill-rule="evenodd"/><path d="M270.4,311c0,1.2-1.6,2.2-3.5,2.2s-3.4-1-3.4-2.2,1.5-2.2,3.4-2.2S270.4,309.8,270.4,311Zm-18,0c0,1.2-1.6,2.2-3.5,2.2s-3.5-1-3.5-2.2,1.6-2.2,3.5-2.2,3.4,1,3.4,2.2Z" fill-rule="evenodd"/><path d="M257.89,239.87l-4.26-5.38-7,.89,1-6.68-5.63-4,5.63-4.08-1-6.68,7,.94,4.26-5.38,4.26,5.38,6.94-.94-.92,6.68,5.57,4.08-5.57,4.07.92,6.63-7-.89Z" fill="#ff0" stroke="#000" fill-rule="evenodd"/><path d="M287.59,260.67l11.93,5.72,11.93-5.72L299.52,255l-11.87,5.68Z" fill="#ff0" stroke="#000" fill-rule="evenodd"/><path d="M202.29,260.67l11.93,5.72,11.93-5.72L214.22,255l-11.87,5.68Z" fill="#ff0" stroke="#000" fill-rule="evenodd"/><path d="M306.15,294.65c-3.66-2.31-9.81-1.16-13.26.73S286,299.17,285.53,306c-4-6.59-.84-12.69,4.41-15.56a13,13,0,0,1,16.23,4.23Z" fill="#ff0" stroke="#000" fill-rule="evenodd"/><path d="M224.2,283.44a4,4,0,0,1-7.9,0h0a4,4,0,0,1,7.9,0Z" fill="#ff0" stroke="#000" fill-rule="evenodd"/><path d="M220.2,296.74a4,4,0,0,1-7.9,0h0a4,4,0,0,1,7.9,0Z" fill="#ff0" stroke="#000" fill-rule="evenodd"/><path d="M218.2,289.14a4,4,0,0,1-7.9,0h0a4,4,0,0,1,7.9,0Z" fill="#ff0" stroke="#000" fill-rule="evenodd"/><path d="M228.1,296.74a4,4,0,0,1-7.9,0h0a4,4,0,0,1,7.9,0Z" fill="#ff0" stroke="#000" fill-rule="evenodd"/><path d="M230.1,289.14a4,4,0,0,1-7.9,0h0a4,4,0,0,1,7.9,0Z" fill="#ff0" stroke="#000" fill-rule="evenodd"/><path d="M224.2,291a4,4,0,0,1-7.9,0h0a4,4,0,0,1,7.9,0Z" fill="#ff0" stroke="#000" fill-rule="evenodd"/><path d="M238.7,159c-10,0-11.3,1.5-15.8,3,0-4.3,11.1-9.4,21.1-9.4,0,3.2-2.6,6.3-5.3,6.3Z" fill="#da4500" fill-rule="evenodd"/><path d="M254,148.8a4,4,0,1,1-4-3.8A3.91,3.91,0,0,1,254,148.8Z" fill="#cac9c7" fill-rule="evenodd"/><path d="M212.21,135.54v5.67h9.91v28.42h6V141.21H238v-5.67h-9.91v-7.6h-6.05v7.6h-9.86Z" fill="#ff0" stroke="#000" fill-rule="evenodd"/><path d="M244,152.6a64.08,64.08,0,0,0-23.8,3.2c0-5.9,6.8-12.7,18.5-12.7C241.4,143.1,244,149.4,244,152.6Z" fill="#da4500" fill-rule="evenodd"/><path d="M140.81,253.27c-2.85-6.16-2.79-8.13,2.3-1.08l61.2,116-1.87.53L140.85,253.29Z" fill="#008500" stroke="#000" stroke-width="0.9" fill-rule="evenodd"/><path d="M182.3,329.6c.7-8.6-15-17.9-15.7-17.3s1,5.6,4,8.2c-5.8-2.9-11.8-4.7-12-3.4-.4,1.7,9,5.8,9.8,7.4,0,1.1-7,1-6.8,2.1s19.7,11,20.7,3Zm-15.7-25c.6-8.6-15.1-18-15.8-17.3s1,5.6,4,8.2c-5.7-3-11.7-4.8-11.9-3.5-.4,1.7,9,5.8,9.7,7.4.1,1.2-6.9,1-6.7,2.2s19.7,11,20.7,3Zm-12-22.8c.6-8.6-15.2-17.9-15.8-17.3s1,5.6,4,8.2c-5.8-3-11.8-4.7-11.9-3.4-.5,1.7,9,5.8,9.7,7.4.1,1.1-6.9,1-6.8,2.1s19.7,11,20.7,3Zm-12-24.6c.7-8.6-15-18-15.7-17.3s1,5.6,4,8.2c-5.8-3-11.8-4.8-11.9-3.5-.5,1.7,8.9,5.8,9.7,7.4.1,1.2-6.9,1-6.8,2.2C122,255.2,141.6,265.2,142.6,257.2Z" fill="#008f00" fill-rule="evenodd"/><path d="M146.7,256c7.7-4.6,6.2-22.2,5.3-22.3s-4.2,4-4.6,7.9c-1-6.2-3-11.9-4-11.2-1.8.7.3,10.3-.6,11.9-.9.7-5-4.7-5.8-4s2.4,21.7,9.7,17.7Zm11,21.7c8.9-2,13.6-19,12.9-19.4s-5.4,2.5-7.1,6c1.3-6.1,1.3-12.1,0-11.9-1.8.1-3.3,9.8-4.6,11-1.1.5-3-6-4.1-5.5s-5.3,21.2,3,19.8ZM171,299.8c8-4,8.2-21.6,7.3-21.8s-4.5,3.7-5.3,7.5c-.4-6.2-1.8-12-3-11.5-1.8.5-.7,10.3-1.7,11.8-1,.6-4.4-5.2-5.4-4.5s.4,21.9,8,18.5Zm14.2,29c8.4-3.2,10.5-20.8,9.6-21-.8-.4-4.9,3.1-6,6.8.3-6.2-.6-12.1-1.8-11.7-1.9.4-1.7,10.2-2.9,11.6-1,.6-3.9-5.5-4.9-5-1,.7-2,21.8,6,19.2Z" fill="#008f00" fill-rule="evenodd"/><path d="M203.74,358.84c-2.13,3.64-8.86,4-15.12.63s-9.5-9-7.37-12.64,8.91-3.94,15.12-.63S205.87,355.19,203.74,358.84Z" fill="#ff1900" stroke="#000" fill-rule="evenodd"/><path d="M365.32,236.75l1.06-2.72,2.83.89,1.06-2.72,2.84.89-1,2.69,2.92.92-1.07,2.75-2.92-.92-2.63,6.78-2.84-.89,2.63-6.78Zm-6.09,23.95,2.83.9-30.5,78.72-2.84-.9Z" fill="#ff0" stroke="#000" stroke-width="0.6" fill-rule="evenodd"/><path d="M327.78,337.62l5.76,1.82-8.41,21.72-5.76-1.82Zm33.86-91.37,8.64,2.72c5.72,1.8-7.25,14.48-7.25,14.48l-5.72-1.8S355.88,244.43,361.64,246.25Zm7.94.18c-.45,1.14-2.06,1.67-3.64,1.17s-2.52-1.83-2.09-2.94,2.06-1.67,3.64-1.17,2.52,1.82,2.07,3Z" fill="#ff0" stroke="#000" stroke-width="0.6" fill-rule="evenodd"/><path d="M332.48,349c2.41,3.48-.37,9.35-6.35,13.13s-12.72,3.94-15.13.46.42-9.38,6.35-13.13S330.07,345.51,332.48,349Z" fill="#ff1900" stroke="#000" fill-rule="evenodd"/></svg>