<svg id="flag-icons-mp" xmlns="http://www.w3.org/2000/svg" xmlns:xlink="http://www.w3.org/1999/xlink" viewBox="0 0 1023.95 511.92"><defs><clipPath id="clip-path" transform="translate(256)"><rect x="-0.04" width="511.92" height="511.92" fill="none"/></clipPath></defs><title>mp</title><g clip-path="url(#clip-path)"><path d="M-256,0H768V511.92H-256Z" transform="translate(256)" fill="#0071bc" fill-rule="evenodd"/><path d="M315.16,405s18.07-19.1,35.41-15.49c5.16-20,24.87-21.67,24.87-21.67s-2-22.19,23.22-27c.72-15.07,16-27.66,16-27.66s-3.1-23.33,12.9-28.8c-9.81-18.57,3.3-32,3.1-32.4s-16.52-29.42-2-37.68c-15.49-13-10.33-27.86-10.33-27.86s-16.92-4.23-10.83-24.46c-13.83-2.38-16.62-24.77-16.62-24.77S369.45,141.4,367,122.82c-14.14,2.27-15.69-11.66-15.9-11.66s-27.87,7.53-33.44-13.42c-10.73,5.47-15.48-4.44-15.48-4.44s-15.48,7.64-24.67-7.12c-18.37,11.46-28.59-.52-28.59-.52s-24.15,16-32.1,3.62c-14.24,14.45-26.93,8.25-26.93,8.25s-10.74,19-28.18,14.14c-3.92,17.76-23.94,18.06-23.94,18.06s2.06,15.69-21.88,19.82c-3.1,18.37-15.59,21.57-15.59,21.57s1.24,17.86-10.11,23.53c4.12,10.12-6.4,22.4-6.4,22.4s11.14,14.14-4,29.62c14.66,3.82,4.13,29,4.13,29s20,9.09,7.33,25.81c14.45,4.54,9.91,16.1,10.11,22.81,9.29,4.12,17.34,2.06,13.42,20.64,28.28,3.09,14.86,18.78,14.86,18.78s13.21.52,8,10.94c24.05-.51,27.56,18.06,27.56,18.06s22.4-5.88,25.39,2.79-9.81,67.09-9.81,67.09a49.27,49.27,0,0,1-33-15.07c-32.93-.83-25.6-22.5-26.11-22.5s-10.94,3.92-16.31-14.14c-22.09,4.54-21.37-14-21.57-14.24s-9.91-4.44-6.2-13.63c-22.7,2.07-21-20.12-21-20.12-5-2.07-6.81-6.71-6.09-11.36-2.89-1-23.12-1.34-12.69-27.86-19.2-11.67-7.23-25.08-7.23-25.08s-26.63-13.73-6.19-29.52c-15.07-22.4,1.44-33.75,1.44-33.75s-21.15-21.47.31-36.74c-3.51-32.72,16-40.46,16-40.46s-10.32-26.53,17.55-37.67c1.75-26.84,21.15-27.66,21.15-27.66s.52-21.37,31-19.2c6-19.1,26.83-15.28,26.83-15.28s6.4-23.12,34.68-12c14.45-28.18,35.81-13.73,35.81-13.73s13.52-8.87,20.34-6.19c8.56-14.65,26.83-.51,38.7,2.38,4.34-1.66,19.61-13.22,31.38,1.34,15.68-10.32,29,8.25,29,8.25s21.57-11,31.58,14c45.72-4.13,39.12,25.7,39.12,25.7s35.91-8.26,28.07,27.56c32.72,2.27,29.42,23.74,29.42,23.74s20.64,15.68,11.55,29.72c18.38.83,11.67,18.58,11.67,18.58s14,5.36,2.37,27.25c26.94,21.57,5.16,42.83,5.16,42.72-.31-.2,14.35,17.34,1.14,37.47,4,32-12.18,40.15-12.18,40.15s4.13,20.64-13.83,26.52c-.41,24.26-23.33,27.25-23.33,27.25s6.2,10.53-16.61,21.67c-.93,16.31-24.67,17.55-24.67,17.55s-2.27,29.93-32.51,21.88C358.2,464.14,322.8,457,322.08,456.7s-6.81-51.39-6.81-51.6Z" transform="translate(256)" fill="#fff" stroke="#000" stroke-width="1.9" fill-rule="evenodd"/><path d="M95.84,118.49s7.64,6.6,6.2,16.51-7.13,23.63-6,33.85a71.12,71.12,0,0,1,.41,11.46s-6.81-9.7-6.91-20.13S97,139.85,97,132.11a111.54,111.54,0,0,0-1.14-13.62Zm-3.82,3s-9.9,9.49-11.14,18.68c-1,4.75-1.34,26.83-1.45,36.74l-1.75,19.2c-.31,4.33,7.22-7.43,7.74-16.93a290.19,290.19,0,0,1,.72-33.75c.93-4.13.72-8.56,2.07-12.59L92,121.48Z" transform="translate(256)" fill="#217900" stroke="#000" stroke-linejoin="round" stroke-width="1.9" fill-rule="evenodd"/><path d="M310.52,90.52s12.9-6,16.51-17-11.14-11.15-13.1-7.64,1.65,12.28.72,14.55S308.46,88.35,310.52,90.52Z" transform="translate(256)" fill="#ffd200" stroke="#ef8a10" stroke-width="1.9" fill-rule="evenodd"/><path d="M196.37,94.54s8.36-11.46,6.19-22.91-15.17-4.34-15.17-.31,7.43,9.91,7.74,12.38S193.58,93.61,196.37,94.54Zm-22.6,6.81S182.13,89.9,180,78.44s-15.17-4.34-15.17-.31,7.43,9.91,7.74,12.39S171,100.42,173.77,101.35Zm-25.08,7.74s8.36-11.45,6.19-22.91-15.17-4.33-15.17-.31,7.43,9.91,7.74,12.39S145.9,108.16,148.69,109.09Zm-17.55,17.55s8.26-11.35,6.19-22.81c-2.27-11.46-15.27-4.34-15.27-.31s7.43,9.91,7.74,12.38-1.55,9.91,1.24,10.84Zm-18.58,17.13s8.26-11.45,6.2-22.91c-2.28-11.46-15.28-4.34-15.28-.31s7.43,9.91,7.74,12.38-1.55,9.91,1.24,10.84Z" transform="translate(256)" fill="#ffd200" stroke="#ef8a10" stroke-width="2.6" fill-rule="evenodd"/><path d="M155.19,44.59S144,53.36,143.11,64.92s13.42,8.26,14.45,4.44-4.44-11.56-4.13-14S157.56,46.24,155.19,44.59Zm37.15-11.46S181.2,41.9,180.17,53.46s13.41,8.26,14.55,4.44-4.44-11.56-4.13-14,4.13-9.08,1.75-10.73ZM53.94,133.35s2.27,14,12,20.43S79.64,146,76.75,143.15s-12.28-1.55-14.24-3.09-6-8.05-8.57-6.71ZM35.36,180.82s.11,14.25,8.67,22.09,14.76-5.47,12.39-8.77-11.87-3.51-13.63-5.27-4.64-8.87-7.43-8.05Zm42.83,53.05S73,220.66,62.3,216.33s-11.87,10.32-8.46,12.38c3.3,2.27,12.38-.72,14.55.31S75.82,235.73,78.19,233.87Zm-9-22.91s8.67-11.35,6.71-22.7c-2-11.56-15.07-4.65-15.17-.62s7.23,10,7.54,12.48-1.76,9.91,1,10.84ZM336.94,102s12.8-6,16.52-17S342.31,73.8,340.35,77.3s1.65,12.29.72,14.56S334.88,99.8,336.94,102Zm38.91,19.4s7.54-12,4.65-23.32-15.49-3.3-15.18.72,8.05,9.39,8.57,11.87S373,120.65,375.85,121.37ZM482.16,231.71s-5.16-13.21-15.9-17.65-11.87,10.32-8.56,12.59c3.4,2.06,12.38-.93,14.65.21s7.43,6.7,9.81,4.85Zm-52,8.25s.31-14.24,9-22,14.66,5.68,12.28,8.88-12,3.4-13.73,5.16-4.74,8.87-7.53,7.94ZM421.78,89.59s-13.21-5.06-23.74,0-.2,15.89,3.72,14.76,7.53-9.71,9.91-10.74,9.9-1,10.11-4ZM391.44,64.2s-13.21-5.06-23.74,0-.21,15.89,3.71,14.76,7.64-9.71,9.91-10.74,10-1,10.12-4ZM346.23,39.94S335,48.61,333.85,60.27s13.41,8.36,14.44,4.55-4.33-11.56-3.92-14,4.23-9.08,1.86-10.73ZM316.71,33s-5.16,13.21-.1,23.74,15.79.2,14.76-3.62-9.81-7.63-10.74-10S319.6,33.23,316.71,33Zm-83.6,50.88s9.19-10.73,7.85-22.4-14.87-5.36-15.18-1.34,6.71,10.32,6.92,12.9C232.7,75.55,230.43,82.77,233.11,83.91Z" transform="translate(256)" fill="#ffd200" stroke="#ef8a10" stroke-width="1.9" fill-rule="evenodd"/><path d="M283,107s22,1.44,23.12,14-5.26,20.22-5.26,20.22,2.78,27.25-18.79,35.2c-23,2.79-59.14.62-59.14.62s-10.52,2.68-14.86-19.3a365.86,365.86,0,0,1-5.57-37.57s2.17-12.28,17.65-13,62.75.1,63-.21Z" transform="translate(256)" fill="#8c8a8c" stroke="#000" stroke-width="1.9" fill-rule="evenodd"/><path d="M300.71,141.19S288.85,156,290.08,161.83" transform="translate(256)" fill="none" stroke="#000" stroke-linecap="round" stroke-width="1.9"/><path d="M284.82,175.77c2.89,2.47,5.68,5.16,6.3,14.24l1.23,18.16,15.38,138.31,13.52,100,.93,15.48s-3.2,11.35-12.38,12.38c-6.51,13.73-42.32,17.76-45.83,17.55-3.2-.1-14.65-4.85-21.57-4.23s-18.89,5.16-24.25,4.44-17.55-5-19.61-13.73C183.47,473.63,181,462.17,181,462.17L197.3,346.48l15.79-146.36s1.86-19.5,9.7-22.39c8.15-.72,50.26.82,62-2.07Z" transform="translate(256)" fill="#8c8a8c" stroke="#000" stroke-width="1.9" fill-rule="evenodd"/><path d="M201.84,376l-3.2,102.29m102.69-88.77,9,84.33" transform="translate(256)" fill="none" stroke="#000" stroke-width="1.9"/><path d="M38.46,322.74,38.05,324m425.43-4.85.31,1" transform="translate(256)" fill="none" stroke="#000"/><path d="M27,184.64s6.81,9.29,8,14.66,3.51,15.89,6.4,20.23S61,247.81,62,257.82c0,6.5-7,17.75-17.55,18-6.5-.21-23.42-4.54-24.15-19s5.16-14.87,5.89-23.74.82-48.2.82-48.51Z" transform="translate(256)" fill="none" stroke="#6b18b5" stroke-linejoin="round" stroke-width="1.9"/><path d="M142.7,57.8s-7,.41-12.38,3.3c-4.13,2.58-11.15,6.19-16.11,13.11C101.73,83.91,82.84,88.45,77,96.6c-3.62,5.47-3.41,18.79,5.57,24.36,5.68,3.3,22.4,8.36,30.45-3.61,8.25-12.08,3.3-15.48,7.22-23.33C126.91,76,142.6,57.9,142.7,57.69Zm169-17.75s-5.16-4.75-11-6.51C295.86,32.3,288,32.82,279.87,32c-15.79-2.17-32-13.53-41.91-12.18-6.4,1.34-15.79,10.73-13.62,21,1.55,6.4,8.67,19.3,23,16.72s14.13-5.68,22.6-8.26a76.73,76.73,0,0,1,41.69-9.29ZM479.27,202.91c1.24-2.68-1-7.64-2.48-13.62-1.55-4.65-3.71-11.87-9.18-18.27-6.51-14.45-5.37-34.37-11.77-42-4.54-4.85-17.55-7.84-25.08-.51-4.54,4.74-13.42,19.71-3.72,30.55s13.94,6.71,20.65,12.38c16,10.74,23.73,29.52,31.58,31.48Zm-5.58,126.74c2.07-3.09,6.09-8.77,5.58-13.62-.31-3.92,1.75-15.48,2.06-20.64,1.45-15.69,11.36-28.59,8.57-42.32-1.55-6.29-10.94-15.48-21.06-12.8-6.29,2-20.23,9.6-17,23.74s7.74,13.93,10.84,22.29C471.32,303.44,465.75,323.77,473.69,329.65Z" transform="translate(256)" fill="none" stroke="#6b18b5" stroke-linejoin="round"/><path d="M357.38,430.18s-2.69,5.16,8.05,9.6M378.84,418s11.87-2.89,19.92,0m15.69-30.14c0,.21-1.65,5.37,7.85,12.8m-1-26.21s7,5.16,18.79,4.95m-89.48,10.11s.41,13.63-6.61,20m30.14-41.08s11.45,2.89,20.95-1.86M448,348.54s2.47,3.51,15.27,2.89m-65-10.94c.31.21,15,4.95,24.25.62m5-56.77s.62-.72,5.16,15.18m6.19-59.87s-.62,8.47-7.43,12.18m50.88-46.75s-9.91,8-8.05,11.35M432.93,199.3s5.16,8.67-3.2,14.65m-21.68-51.7s8.88-.42,12.8,7.22m-29.52-32.41h6.81m28.49-31c0,.31,1.86,2-1.65,5.47M363.36,107a29,29,0,0,1,3.93,16.51m23.42-41.69c2.07-.21,9.09-3.31,9.09-3.31M360.27,52.33c-.21,0-2.69,9.29,1.85,12.59M348.81,94.64c0,9.91,7.84,7.43,2.48,16.93M329.61,86.39a68.26,68.26,0,0,0-12.38,11.14m-19.3-16.3s5.16,5.16,3.92,12.18m-19-16.31s-2.68,7.84-6.19,9.91M255.41,75c-.21.42-4.34,9.29-7.23,10.94M217.94,75.24c.21,0,4.13,8.26-1,14.24m-7.64-56.87c.21.21.83,6.4-3.1,11.77m-34,2.27c0,.21,1.75,7-9.29,9.29M151.37,109.4c.21.42,10.53,2.07,10.53,2.07m-36.23,21.77q6.21-2.06,12.49-3.92m-32.51,19.41c.41,0,8.67,1.44,10.73.41m-16.51,7.22s2.68,1.45.41,15.28M59.62,120l5.05,7.43M42.79,158.22c0-.21,5,7.43,11.56,8.88M81.7,197c.21,0,8-1.76,9.29-2.58M78.19,225c.21,0-.2-5.16,6.2-8.67M69.73,237.8c0,.2,6,7.63,10.12,8.67m-13.63,5.47c.62-.21,7-5.78,14.45-5.37M64.16,271.13s.2,6.4,19.19,4.75M66,293.74c0-.21,5.57-12.8,16.92-17.55m-1.65,33.65s1.65-5.37,11.15-9.09M91.82,331s6.81-5.57,9.29-6.39m-.83,22.91s4.13,4.33,14.45-3.1m-64.2,6.5c1.24-.2,16.21-3.71,21.37,4.13M56.42,363.3s15.89-2.07,18-.41m38.8,3.71s-2.06,4.34,17.55-2.89m6.71,10.74c-3.51,5.88.82,10.63-3.72,13.41M78,382.7c.51-.51,7.22-2.78,6.19-12.18m-.31,26.32c.83-.2,11.77-4.95,14-2.47m7.32,16.41s1.45-9.71,4.55-10.74m11.87,25.39s9.08-.2,13-3.09m4.54-29.73c.21.21,8.46,4.54,26,.21M145.8,432s2.47,12.49,2.27,15.48" transform="translate(256)" fill="none" stroke="#000" stroke-width="1.9"/><path d="M462.36,238.59c-.49-3.93-2.51-7.67-5-9.35-2.94-1.83-6-1.45-8,1a14.66,14.66,0,0,0,2.29,19.88c2.94,1.83,6,1.45,8-1a13.3,13.3,0,0,0,2.78-10.33Z" transform="translate(256)" fill="#de2010" stroke="#000" fill-rule="evenodd"/><path d="M460.61,217.64c-.49-3.93-2.51-7.67-5.05-9.35-2.94-1.83-6-1.45-8,1a14.66,14.66,0,0,0,2.29,19.88c2.94,1.83,6,1.45,8-1a13.26,13.26,0,0,0,2.77-10.33Z" transform="translate(256)" fill="#de2010" stroke="#000" fill-rule="evenodd"/><path d="M456.29,195.37c-.83-3.87-3.17-7.42-5.84-8.87-3.09-1.57-6.1-.92-7.9,1.7a14.67,14.67,0,0,0,4,19.6c3.09,1.56,6.1.91,7.9-1.7a13.35,13.35,0,0,0,1.86-10.54Z" transform="translate(256)" fill="#de2010" stroke="#000" fill-rule="evenodd"/><path d="M448.58,172c-1.8-3.54-5-6.37-7.92-7.09-3.39-.73-6.13.67-7.2,3.66a14.66,14.66,0,0,0,8.89,17.92c3.39.73,6.13-.67,7.2-3.66a13.32,13.32,0,0,0-.88-10.66Z" transform="translate(256)" fill="#de2010" stroke="#000" fill-rule="evenodd"/><path d="M440.32,153.24c-1.8-3.53-5-6.37-7.92-7.09-3.38-.72-6.13.67-7.2,3.66a14.68,14.68,0,0,0,8.9,17.93c3.38.72,6.13-.67,7.2-3.66a13.28,13.28,0,0,0-.89-10.66Z" transform="translate(256)" fill="#de2010" stroke="#000" fill-rule="evenodd"/><path d="M428.6,134.42c-2.08-3.37-5.48-5.92-8.48-6.39-3.44-.44-6.06,1.19-6.87,4.25a14.67,14.67,0,0,0,10.38,17.11c3.44.44,6.05-1.18,6.86-4.25a13.28,13.28,0,0,0-1.78-10.55Z" transform="translate(256)" fill="#de2010" stroke="#000" fill-rule="evenodd"/><path d="M415.48,116.24c-2.4-3.15-6-5.37-9.06-5.54-3.46-.1-5.91,1.76-6.42,4.9a14.65,14.65,0,0,0,12,16c3.46.1,5.91-1.76,6.42-4.9a13.28,13.28,0,0,0-2.8-10.32Z" transform="translate(256)" fill="#de2010" stroke="#000" fill-rule="evenodd"/><path d="M399.88,99.4c-2.83-2.77-6.74-4.43-9.77-4.17-3.44.41-5.59,2.61-5.64,5.78a14.66,14.66,0,0,0,14.18,14.12c3.44-.4,5.59-2.61,5.64-5.78A13.32,13.32,0,0,0,400,99.54Z" transform="translate(256)" fill="#de2010" stroke="#000" fill-rule="evenodd"/><path d="M382.29,83.75c-3.07-2.5-7.12-3.8-10.11-3.25-3.39.71-5.33,3.1-5.09,6.27a14.67,14.67,0,0,0,15.42,12.75c3.39-.72,5.33-3.11,5.09-6.27a13.3,13.3,0,0,0-5.15-9.38Z" transform="translate(256)" fill="#de2010" stroke="#000" fill-rule="evenodd"/><path d="M363.63,71.33c-3.45-2-7.66-2.56-10.52-1.53-3.22,1.27-4.73,4-4,7a14.67,14.67,0,0,0,17.32,10c3.22-1.27,4.74-3.95,4-7a13.34,13.34,0,0,0-6.64-8.39Z" transform="translate(256)" fill="#de2010" stroke="#000" fill-rule="evenodd"/><path d="M342.74,60.35c-3.61-1.62-7.85-1.85-10.61-.56-3.09,1.56-4.36,4.36-3.32,7.36a14,14,0,0,0,7.37,7.75c3.8,1.71,7.86,1.86,10.79.65,3.1-1.56,4.36-4.36,3.32-7.36a13.26,13.26,0,0,0-7.37-7.75Z" transform="translate(256)" fill="#de2010" stroke="#000" fill-rule="evenodd"/><path d="M322.32,52.06c-3.71-1.38-8-1.32-10.62.15-3,1.76-4.06,4.65-2.82,7.57a14.66,14.66,0,0,0,18.69,7.16c3-1.76,4.05-4.64,2.81-7.57a13.3,13.3,0,0,0-7.87-7.24Z" transform="translate(256)" fill="#de2010" stroke="#000" fill-rule="evenodd"/><path d="M301.57,45.52c-3.81-1.09-8-.71-10.58,1-2.84,2-3.69,4.94-2.23,7.76A14.66,14.66,0,0,0,307.93,60c2.84-2,3.69-4.94,2.24-7.76a13.32,13.32,0,0,0-8.41-6.62Z" transform="translate(256)" fill="#de2010" stroke="#000" fill-rule="evenodd"/><path d="M278.64,41.65c-3.93-.5-8.06.53-10.31,2.57-2.5,2.4-2.88,5.46-1,8a14.68,14.68,0,0,0,19.83,2.69c2.5-2.4,2.88-5.45,1-8a13.32,13.32,0,0,0-9.32-5.25Z" transform="translate(256)" fill="#de2010" stroke="#000" fill-rule="evenodd"/><path d="M256.08,40.43c-4-.16-8,1.22-10,3.45-2.29,2.6-2.41,5.67-.33,8.07a14.67,14.67,0,0,0,20,1c2.29-2.6,2.41-5.68.32-8.07a13.31,13.31,0,0,0-9.73-4.43Z" transform="translate(256)" fill="#de2010" stroke="#000" fill-rule="evenodd"/><path d="M235.33,41.05c-4-.16-8,1.22-10.05,3.45-2.28,2.6-2.41,5.67-.32,8.07a14.66,14.66,0,0,0,20,1c2.29-2.6,2.41-5.68.33-8.07a13.29,13.29,0,0,0-9.74-4.43Z" transform="translate(256)" fill="#de2010" stroke="#000" fill-rule="evenodd"/><path d="M211.16,44c-3.86.89-7.38,3.27-8.8,6-1.52,3.11-.84,6.11,1.8,7.87a14.66,14.66,0,0,0,19.55-4.27c1.53-3.11.84-6.11-1.8-7.87A13.26,13.26,0,0,0,211.36,44Z" transform="translate(256)" fill="#de2010" stroke="#000" fill-rule="evenodd"/><path d="M189.07,49.52c-3.77,1.2-7.08,3.86-8.27,6.66-1.27,3.23-.34,6.16,2.44,7.7A14.67,14.67,0,0,0,202.37,58c1.26-3.22.33-6.16-2.44-7.7a13.32,13.32,0,0,0-10.67-.85Z" transform="translate(256)" fill="#de2010" stroke="#000" fill-rule="evenodd"/><path d="M169,58.22c-3.61,1.64-6.58,4.68-7.43,7.6-.87,3.36.41,6.16,3.35,7.36a14.67,14.67,0,0,0,18.29-8.11c.87-3.35-.4-6.15-3.34-7.35a13.31,13.31,0,0,0-10.69.42Z" transform="translate(256)" fill="#de2010" stroke="#000" fill-rule="evenodd"/><path d="M148.88,68.5c-3.45,1.94-6.15,5.22-6.75,8.21-.58,3.41.93,6.09,4,7a14.69,14.69,0,0,0,17.54-9.64c.58-3.42-.93-6.1-4-7a13.28,13.28,0,0,0-10.62,1.33Z" transform="translate(256)" fill="#de2010" stroke="#000" fill-rule="evenodd"/><path d="M129.92,81.36c-3.23,2.3-5.55,5.86-5.82,8.89-.21,3.46,1.58,6,4.7,6.57a14.66,14.66,0,0,0,16.38-11.49c.21-3.46-1.58-6-4.7-6.57a13.29,13.29,0,0,0-10.4,2.48Z" transform="translate(256)" fill="#de2010" stroke="#000" fill-rule="evenodd"/><path d="M112.31,94.65c-3,2.57-5,6.31-5,9.35.08,3.47,2.08,5.81,5.24,6.15a14.67,14.67,0,0,0,15.35-12.83c-.09-3.46-2.08-5.81-5.24-6.15a13.34,13.34,0,0,0-10.16,3.35Z" transform="translate(256)" fill="#de2010" stroke="#000" fill-rule="evenodd"/><path d="M96.81,110.89c-2.82,2.78-4.56,6.65-4.36,9.69.34,3.45,2.5,5.64,5.67,5.76a14.68,14.68,0,0,0,14.39-13.9c-.33-3.45-2.49-5.64-5.66-5.76A13.25,13.25,0,0,0,97,110.75Z" transform="translate(256)" fill="#de2010" stroke="#000" fill-rule="evenodd"/><path d="M83.51,128.94c-2.58,3-4,7-3.54,10,.63,3.4,3,5.41,6.13,5.26a14.67,14.67,0,0,0,13.18-15.06c-.62-3.41-3-5.41-6.13-5.26a13.27,13.27,0,0,0-9.51,4.88Z" transform="translate(256)" fill="#de2010" stroke="#000" fill-rule="evenodd"/><path d="M71.34,147.33c-2.24,3.26-3.22,7.4-2.44,10.34,1,3.32,3.51,5.06,6.65,4.58a14.67,14.67,0,0,0,11.5-16.38c-1-3.32-3.52-5.06-6.65-4.58a13.27,13.27,0,0,0-8.94,5.88Z" transform="translate(256)" fill="#de2010" stroke="#000" fill-rule="evenodd"/><path d="M61.16,168.27c-1.66,3.6-1.91,7.84-.64,10.61,1.54,3.1,4.34,4.38,7.34,3.36a14.67,14.67,0,0,0,8.52-18.11C74.84,161,72,159.75,69,160.77a13.3,13.3,0,0,0-7.8,7.32Z" transform="translate(256)" fill="#de2010" stroke="#000" fill-rule="evenodd"/><path d="M53,190.16c-1.32,3.74-1.19,8,.33,10.62,1.81,2.95,4.71,4,7.61,2.69a14.66,14.66,0,0,0,6.84-18.81c-1.81-2.95-4.71-4-7.61-2.68a13.28,13.28,0,0,0-7.11,8Z" transform="translate(256)" fill="#de2010" stroke="#000" fill-rule="evenodd"/><path d="M46.11,231.44a9.5,9.5,0,0,0,2.91,8.2,6.86,6.86,0,0,0,8,.59,10.79,10.79,0,0,0,4.93-7.6,9.76,9.76,0,0,0-2.9-8.35,6.84,6.84,0,0,0-8-.6c-2.5,1.57-4.76,4.43-4.93,7.61Z" transform="translate(256)" fill="#de2010" stroke="#000" fill-rule="evenodd"/><path d="M47.93,212.18c-.88,3.86-.26,8.07,1.55,10.51,2.14,2.73,5.14,3.41,7.87,1.8A14.67,14.67,0,0,0,62,205c-2.14-2.72-5.14-3.41-7.88-1.79A13.32,13.32,0,0,0,48,212Z" transform="translate(256)" fill="#de2010" stroke="#000" fill-rule="evenodd"/><path d="M445.83,202.29c2.48-2.79,4.85-3.61,7.84-2.58-1-7.22-3.3-9.6-6.19-8.77-2.68.82-3.92,4.54-1.76,11.35ZM449.65,224c2.78-2.58,5.16-3.1,8.05-2.07-.52-7.22-2.58-9.8-5.37-9.08s-4.33,4.13-2.68,11Zm-9.29-41.6c1.86-3.3,3.92-4.64,7.12-4.44-2.89-6.6-5.68-8.46-8.15-6.91S436.54,176.49,440.36,182.37Zm-9.6-19.61c1.75-3.4,3.92-4.75,7-4.54-2.79-6.71-5.68-8.46-8.16-6.91s-2.68,5.47,1.14,11.35Zm-23.12-36.33c1.24-3.51,3.1-5.16,6.19-5.57-3.82-6.19-6.91-7.43-9.08-5.47S402.89,121.17,407.64,126.43Zm-15.17-15.79c1-3.61,2.89-5.26,6.09-5.68-4.13-6-7.23-7.22-9.29-5.16S387.51,105.58,392.47,110.64ZM360.68,83.81c0-3.72,1-6,3.92-7.23-5.67-4.54-9.08-4.64-10.42-2.06S354.49,80.5,360.68,83.81Zm16.51,12.38c.62-3.71,2.07-5.67,5.16-6.5-4.85-5.37-8.15-6.09-9.9-3.82s-.83,6,4.85,10.32Zm-35.4-22.81c-.41-3.71.52-6,3.1-7.64-6.19-3.81-9.39-3.71-10.53-1S335.29,70.8,341.79,73.38ZM322.49,65c-1-3.61-.41-6,2.07-8-6.71-2.89-9.91-2.17-10.63.62S315.68,63.37,322.49,65Zm-20.74-6.4c-1.34-3.51-.93-6,1.34-8.25C296.17,48.1,293,49,292.46,51.91S294.73,57.59,301.75,58.62ZM281.31,54.7c-1.55-3.4-1.34-5.88.72-8.26-7-1.85-10.11-.72-10.42,2.17s2.58,5.47,9.7,6Zm-21.67-1.65c-1.86-3.3-2-5.78,0-8.26-7.23-1.13-10.32.31-10.32,3.2S252.62,53.15,259.64,53.05Zm-42.32,3.1c-2.58-2.69-3.3-5.06-2.06-7.95-7.23.62-9.81,2.79-9.09,5.57S210.51,58.11,217.32,56.15Zm20.85-2.69c-2.27-3.09-2.58-5.47-1-8.25-7.23-.31-10.12,1.44-9.7,4.33S231.15,54.39,238.17,53.46Zm-41.28,7.23c-3.1-2.38-4-4.65-3.31-7.74-7,1.75-9.29,4.23-8.15,6.91s4.95,3.61,11.35.72Zm-39.22,18c-3.31-1.76-4.75-3.82-4.65-6.92-6.6,3.1-8.26,5.88-6.71,8.26S151.89,82.67,157.67,78.65Zm18.88-9.71c-3.09-2.06-4.23-4.23-3.71-7.32-6.92,2.16-9,4.85-7.64,7.43s5.16,3.2,11.35,0Zm-54,34.06c-3.61-.82-5.47-2.58-6-5.67-5.78,4.33-6.92,7.53-4.85,9.49s6,1.34,10.83-3.71Zm16.72-13.52c-3.5-1.24-5.16-3.09-5.47-6.19-6.19,3.82-7.43,6.92-5.57,9.08s5.78,1.86,11-2.89Zm-31.68,28.18c-3.61-.62-5.57-2.17-6.4-5.16-5.47,4.75-6.19,8-3.92,9.8S103.27,123.23,107.61,117.66ZM94.29,135c-3.71-.31-5.78-1.65-6.91-4.65-4.95,5.37-5.37,8.67-3,10.33S90.48,140.88,94.29,135ZM83.15,152.75c-3.72.31-6-.72-7.54-3.51-4.12,6.09-4.12,9.39-1.44,10.63s6.09-.62,9-7.12Zm-9.81,19c-3.71.72-6.09,0-7.94-2.48-3.2,6.4-2.79,9.71,0,10.64s5.88-1.45,7.94-8.26Zm-7.84,19.4c-3.51,1.35-6,1-8.26-1.23-2.06,6.91-1.13,10.11,1.65,10.52S64.57,198.06,65.5,191.14Zm-5.26,21.68c-3.41,1.44-5.89,1.34-8.26-.72-1.76,7-.52,10.11,2.37,10.32s5.47-2.69,5.89-9.7Zm-2.07,18c-3.3,1.65-5.78,1.86-8.26.62-1,5.67.52,7.94,3.41,7.74s5.16-2.79,4.75-8.36Zm364-85.67c1.24-3.51,3.1-5.16,6.2-5.47-3.72-6.19-6.82-7.53-9-5.67S417.55,139.75,422.19,145.11ZM452,245.85c2.79-2.48,5.16-3.1,8.05-1.86-.52-7.23-2.58-9.91-5.37-9.29S450.37,239,452,245.85Z" transform="translate(256)" fill="#ffe300" fill-rule="evenodd"/><path d="M423.64,128c-.11,0-8.26,8-6.81,18s7.63,22.09,6.5,32.3a110,110,0,0,1-3.1,17s9.6-10.83,9.7-21.26-6.5-24.15-6.5-31.79.31-14.45.21-14.34Zm15,33s-6.4,4.75-5.78,15.48S444.59,207,444.59,207s8.15,16.72,7.84,21.05,1.55-4.12.73-13.72-13.11-30.55-13.11-30.55a22.76,22.76,0,0,1-2.38-11.46c.31-7.22,1-11.25.93-11.35Z" transform="translate(256)" fill="#217900" stroke="#000" stroke-linejoin="round" stroke-width="1.9" fill-rule="evenodd"/><path d="M247.66,27.66c0-2.27-2.58-4.13-5.67-4.13s-5.58,1.86-5.58,4.13,2.48,4,5.58,4,5.57-1.86,5.57-4.13ZM250,37c0-2.07-2.68-3.82-5.78-3.82s-5.78,1.75-5.78,3.92,2.58,3.82,5.78,3.82S250,39.12,250,37Zm7.12-11s-6.61,4.95-3.92,6.91,10.32-4.33,10.32-4.33ZM450.89,139a4.15,4.15,0,0,0-1.76-3.4,3.09,3.09,0,0,0-3.51,0,4.26,4.26,0,0,0,.1,6.81,3.11,3.11,0,0,0,3.41,0A4.15,4.15,0,0,0,450.89,139Zm-2.59-9.39c0-2.37-1.54-4.23-3.61-4.23s-3.61,1.86-3.61,4.23,1.65,4.23,3.61,4.23S448.3,132,448.3,129.63Zm1.76,19.2c0-1.24-.62-2.27-1.45-2.27s-1.34,1-1.34,2.27.62,2.17,1.34,2.17S450.06,150,450.06,148.83Zm5.78-17.13c0-1.45-.62-2.58-1.34-2.58s-1.45,1.13-1.45,2.58.62,2.47,1.45,2.47S455.84,133.14,455.84,131.7Zm-15.79,1.65c0-1-.62-2.07-1.45-2.07s-1.44,1-1.44,2.07.62,2.06,1.44,2.06S440.05,134.48,440.05,133.35ZM442.53,147a3,3,0,1,0-6,0,3.13,3.13,0,0,0,3.1,3.2c1.75,0,2.89-1.44,2.89-3.3Zm-7.85-6a2.77,2.77,0,0,0-2.58-2.89,2.69,2.69,0,0,0-2.48,2.89,2.59,2.59,0,0,0,2.48,2.79A2.67,2.67,0,0,0,434.68,141Zm-1.24-8a2.53,2.53,0,0,0-1-2.06,2.08,2.08,0,0,0-2.27,0,2.35,2.35,0,0,0-1,2.06,2.3,2.3,0,0,0,1,2.07,2.07,2.07,0,0,0,2.17,0,2.36,2.36,0,0,0,1-2.07Zm35.82,40.77c-3.31-4.33-8.47-6.19-11.67-4.13s-3.09,7.23.21,11.56,8.46,6.09,11.56,4,3.1-7.23-.1-11.46Zm9.29,79.06c.51-5.26-2.07-9.91-5.78-10.32s-7.44,3.41-8,8.67,2,9.91,5.78,10.32,7.32-3.41,7.94-8.67Zm1.85,45.93c1-5.16-1-9.91-4.74-10.73s-7.64,2.78-8.78,7.94,1,10,4.85,10.84,7.64-2.79,8.67-7.95Zm8.88-43c0-2.06-1.45-3.71-3.1-3.71s-3.09,1.65-3.09,3.71,1.34,3.82,3.09,3.82S489.28,257.72,489.28,255.65Zm-7.74,8.67-6.4,7.23s-6.09.2-5.78,2.16,8.36,8,8.26,10.32,5.36-.62,5.36-.62l4.34-13.21s-.21-9.08-2.58-9-3,2.89-3.1,3.1ZM57.76,261.43a3.1,3.1,0,1,0-3.1,3.1A3.1,3.1,0,0,0,57.76,261.43Zm2.89-9.29a3.22,3.22,0,0,0-3.1-3.3,3.19,3.19,0,0,0-3.09,3.2,3.29,3.29,0,0,0,3.09,3.3,3.22,3.22,0,0,0,3.1-3.3ZM35.47,207.45c-1.14-2.58-3.62-4-5.37-3.09-1.86.72-2.38,3.5-1.24,6.09s3.61,4,5.37,3.09C36.08,212.82,36.6,210,35.47,207.45ZM43,235.32c-1.55-3.41-4.85-5.26-7.23-4.13S32.47,235.73,34,239s4.95,5.16,7.43,4.13,3.1-4.54,1.55-7.94Zm8.26,20.33c.41-4.13-1.24-8.05-3.93-8.57s-5.16,2.38-5.67,6.51,1.13,8,3.82,8.56,5.16-2.37,5.67-6.5Zm-13.11,2.89c1.55-3.82,1-8-1.45-9.29s-5.57.93-7.22,4.75-1,8.05,1.34,9.29,5.68-.83,7.23-4.65Z" transform="translate(256)" fill="#6b18b5" fill-rule="evenodd"/><path d="M32.16,249.77a3.46,3.46,0,0,0-3.4-3.51,3.55,3.55,0,0,0-3.41,3.61,3.41,3.41,0,1,0,6.81,0ZM29.48,241a3.1,3.1,0,0,0-2.88-3.3h-.22A3.16,3.16,0,0,0,23.29,241a3.06,3.06,0,0,0,3.09,3.19A3.12,3.12,0,0,0,29.48,241Zm2.89-17c0-3.1-1.34-5.47-3.1-5.47-1.55,0-2.89,2.47-2.89,5.47s1.34,5.47,3,5.47S32.37,227,32.37,224Zm9.18-1.35c.31-3-.61-5.57-2.27-5.78s-3.3,2.07-3.71,5c-.41,3.09.62,5.57,2.27,5.88S41.14,225.62,41.55,222.62ZM106.89,92.17c1.23-4.13,0-8.47-2.79-9.5s-6,1.65-7.23,5.88,0,8.47,2.79,9.5S105.65,96.4,106.89,92.17ZM94.5,111.05c3.61-3.09,5.16-7.43,3.41-9.59s-6-1.45-9.7,1.65-5.17,7.32-3.41,9.6C86.45,114.77,90.79,114.15,94.5,111.05Zm-7.22-10.52c3.51-2.58,5.16-6.3,3.4-8.26s-6-1.14-9.6,1.44-5.16,6.4-3.51,8.26S83.66,103.21,87.28,100.53Zm27.86-18.37c2.48-1.76,3.51-4.34,2.38-5.68s-4.13-.83-6.51,1-3.5,4.34-2.37,5.68S112.77,84.12,115.14,82.16Z" transform="translate(256)" fill="#6b18b5" fill-rule="evenodd"/><path d="M100.59,100c1.65-2.58,1.76-5.37.21-6.19s-4.13.51-5.68,3.09-1.86,5.37-.31,6.2,4.13-.52,5.78-3.1Zm21.06-11c2.58-2.17,3.61-5.16,2.27-6.51s-4.65-.72-7.23,1.45-3.61,5.16-2.27,6.61S119,91.24,121.65,89Zm-38.09,25.7c2.37-.11,4.23-1.35,4.13-2.69s-2.37-2.47-4.75-2.27c-2.48,0-4.33,1.34-4.13,2.69S81.08,114.77,83.56,114.67Zm45.93-39.22c1.65-2.69,1.75-5.37.21-6.2s-4.13.52-5.68,3.1-1.76,5.26-.31,6.19,4.13-.62,5.78-3.09Z" transform="translate(256)" fill="#6b18b5" fill-rule="evenodd"/><path d="M406.4,153.27s7.54-12,4.65-23.33-15.49-3.3-15.18.72,8.05,9.4,8.57,11.87S403.62,152.54,406.4,153.27Z" transform="translate(256)" fill="#ffd200" stroke="#ef8a10" fill-rule="evenodd"/><path d="M261.8,53.57s27.25,1,27.46,18.68a109.81,109.81,0,0,1-1,13.93,18.37,18.37,0,0,0,8.25-16.31c.21-18-24.25-30.13-34.68-16.3Z" transform="translate(256)" fill="#217900" stroke="#000" stroke-linejoin="round" stroke-width="2.4" fill-rule="evenodd"/><path d="M244.47,52.74s22-4.54,22.19,13.11-7,20.43-7,20.43,16.92-3.61,16.92-21.46S254.89,38.91,244.47,52.74Z" transform="translate(256)" fill="#217900" stroke="#000" stroke-linejoin="round" stroke-width="2.4" fill-rule="evenodd"/><path d="M319.19,433.79s102.9-29,133.86-155.33C435,408.09,322.39,449.17,322.39,449.17l-3.3-15.38Z" transform="translate(256)" fill="#f7df73" stroke="#000" stroke-linejoin="round" stroke-width="2.6" fill-rule="evenodd"/><path d="M329.72,441.74c3.2,0,11-8.77,15.58-9.7s5.06-5.58-.21-5.78-9.7,5.88-9.7,5.88-4.43,3.92-9.18,4.34-1.65,6.39,3.51,5.16Z" transform="translate(256)" fill="#8c1800" fill-rule="evenodd"/><path d="M389.06,397.46s-10.73,6.19-9.29,7.74,11.05-5.88,11.25-6.09,4-4.85-2.06-1.65Z" transform="translate(256)" fill="#8c1800" stroke="#8c1800" stroke-width="2.6" fill-rule="evenodd"/><path d="M351.7,425.64s-3.2-1.14,4.95-4.34,7.75-6.91,10.33-8.36c2.78-1.54,8.46-5.57,9.59-3.2s-6,7-7.63,7.54S359,425.33,356.65,426a5.85,5.85,0,0,1-4.95-.31Z" transform="translate(256)" fill="#8c1800" fill-rule="evenodd"/><path d="M405,381.77c-7,7.85-7,7.64-7,7.64" transform="translate(256)" fill="none" stroke="#8c1800" stroke-linecap="round" stroke-width="3.1"/><path d="M415.48,368.87l-6.7,8.26" transform="translate(256)" fill="none" stroke="#8c1800" stroke-linecap="round" stroke-width="2.9"/><path d="M426,352.15l-7.53,12" transform="translate(256)" fill="none" stroke="#8c1800" stroke-linecap="round" stroke-width="2.6"/><path d="M434.89,335,428.7,347.4m10.21-21.46-2.06,4.44" transform="translate(256)" fill="none" stroke="#8c1800" stroke-linecap="round" stroke-width="2.4"/><path d="M443.45,314.07l-1.65,5.16" transform="translate(256)" fill="none" stroke="#8c1800" stroke-linecap="round" stroke-width="1.4"/><path d="M184.18,431.22S82.1,401.57,51.47,272.89C69.34,405,181,446.75,181,446.75l3.14-15.53Z" transform="translate(256)" fill="#f7df73" stroke="#000" stroke-linejoin="round" fill-rule="evenodd"/><path d="M173.77,439.16c-3.1,0-10.94-8.88-15.49-9.91s-4.85-5.68.21-5.78,9.7,6,9.7,6,4.44,3.92,9.09,4.43,1.65,6.4-3.51,5.17Z" transform="translate(256)" fill="#8c1800" fill-rule="evenodd"/><path d="M115.08,394.11s10.6,6.45,9,8.07c-1.37,1.41-10.8-6.06-11-6.26S109.19,390.88,115.08,394.11Z" transform="translate(256)" fill="#8c1800" stroke="#8c1800" fill-rule="evenodd"/><path d="M152.09,422.75s3.1-1.14-5.05-4.44-7.64-6.91-10.33-8.46-8.25-5.68-9.28-3.31,5.88,7.23,7.53,7.74,9.8,8.16,12.08,8.88S151.06,423.47,152.09,422.75Z" transform="translate(256)" fill="#8c1800" fill-rule="evenodd"/><path d="M99.38,378.17l6.87,7.87" transform="translate(256)" fill="none" stroke="#8c1800" stroke-linecap="round" stroke-width="1.6"/><path d="M88.77,365.06l6.68,8.27" transform="translate(256)" fill="none" stroke="#8c1800" stroke-linecap="round" stroke-width="1.5"/><path d="M78.37,347.92l7.46,12.3" transform="translate(256)" fill="none" stroke="#8c1800" stroke-linecap="round" stroke-width="1.4"/><path d="M69.54,330.57l6.28,12.71m-10.21-22,2,4.43" transform="translate(256)" fill="none" stroke="#8c1800" stroke-linecap="round" stroke-width="1.3"/><path d="M61.09,309.19l1.77,5.45" transform="translate(256)" fill="none" stroke="#8c1800" stroke-linecap="round" stroke-width="0.8"/><path d="M458.11,255.14c.52,7.94,8.26,15.48,5.16,29.41-3.82,15.58-17.55,52.95-15.07,59.45-4.13-5.57-3.4-10.73-3.71-18.58s11.25-36.54,12.28-46.34a225.78,225.78,0,0,1,1.34-23.94Z" transform="translate(256)" fill="#217900" stroke="#000" stroke-linejoin="round" stroke-width="2.4" fill-rule="evenodd"/><path d="M458.11,255.34s12.59,16,12,28.69-7.74,27.46-5.36,34.06c-4.13-5.57-5.17-9.18-5.47-16.92s6.19-16.31,4.95-24.77S458,255.34,458,255.34ZM43.83,258.85c-.52,7.95-6.4,15.07-3.41,28.9,3.92,15.58,17.75,35.5,15.48,58.31a34.12,34.12,0,0,0,5.68-19.61c.31-7.74-15.38-33.85-16.41-43.65a228.59,228.59,0,0,0-1.34-23.95Z" transform="translate(256)" fill="#217900" stroke="#000" stroke-linejoin="round" stroke-width="2.4" fill-rule="evenodd"/><path d="M43.83,259.06s-12.39,15.48-11.67,28.17c.21,8.36,15.69,43.66,13.42,50.27,4-5.58,5.16-5,5-13.42-4.54-21.57-12.59-35.4-11.25-43.76S44,259.06,43.83,259.06Z" transform="translate(256)" fill="#217900" stroke="#000" stroke-linejoin="round" stroke-width="2.4" fill-rule="evenodd"/><path d="M254.16,117.2l30.4,94.26h99.49L303.9,269.79,334.44,364l-80.15-58.18L174.15,364l30.4-94.25-80.29-58.33h99.22Z" transform="translate(256)" fill="#fff" stroke="#000" stroke-linecap="square" stroke-linejoin="round" stroke-width="1.5"/></g></svg>