<svg id="flag-icons-mt" xmlns="http://www.w3.org/2000/svg" viewBox="0 0 512 512"><title>mt</title><path d="M256,0H512V512H256Z" fill="#ce0000" fill-rule="evenodd"/><path d="M0,0H256V512H0Z" fill="#fff" fill-rule="evenodd"/><path d="M104.79,108.11c0,.8-.91,1.47-2,1.47s-2.06-.7-2.06-1.47.91-1.47,2-1.47,2.1.66,2.1,1.47Z" fill="#f1eeee" fill-rule="evenodd"/><path d="M40.7,101v37.21H78a13.33,13.33,0,0,0,12.39,12.43v37.2h37.21v-37.2a13.34,13.34,0,0,0,12.39-12.43h37.21V101H139.94a13.35,13.35,0,0,0-12.39-12.39V51.4H90.34V88.61A13.33,13.33,0,0,0,78,101Z" fill="#c00" fill-rule="evenodd"/><path d="M42,102.26V137H79.17a13.33,13.33,0,0,0,12.39,12.39v37.25h34.73V149.37A13.31,13.31,0,0,0,138.71,137h37.21V102.26H138.71a13.34,13.34,0,0,0-12.42-12.43V52.63H91.56v37.2a13.33,13.33,0,0,0-12.35,12.43Z" fill="#ffe600" fill-rule="evenodd"/><path d="M43.15,103.49v32.23H80.36a13.33,13.33,0,0,0,12.43,12.43v37.21H125V148.11a13.32,13.32,0,0,0,12.39-12.42h37.21v-32.2H137.42a13.34,13.34,0,0,0-12.36-12.43V53.89H92.82V91.06A13.32,13.32,0,0,0,80.4,103.45H43.15Z" fill="#707070" fill-rule="evenodd"/><path d="M44.41,104.71v29.75H81.62A13.34,13.34,0,0,0,94,146.89V184.1h29.76V146.89a13.32,13.32,0,0,0,12.42-12.39h37.18V104.75H136.19A13.34,13.34,0,0,0,123.8,92.32V55.11H94.05V92.32a13.34,13.34,0,0,0-12.43,12.39Z" fill="#a0a0a0" fill-rule="evenodd"/><path d="M94.33,89.24c2.2,2.21.42,7.49-3.92,11.87s-9.66,6.12-11.87,3.92-.38-7.46,4-11.83,9.66-6.13,11.83-4Z" fill="#d0d0d0" fill-rule="evenodd"/><path d="M91.7,91.87c2.21,2.2,1.61,6.3-1.29,9.2s-7,3.5-9.21,1.33-1.61-6.3,1.3-9.2S89.53,89.69,91.7,91.87Z" fill="gray" fill-rule="evenodd"/><path d="M80.75,98.45l.87-.88,3.5,1.75-1.75-3.5.88-.87,3.5,7ZM86,93.2l.87-.88,5.25,5.25-.84.88Z" fill="#d0d0d0" fill-rule="evenodd"/><path d="M139.27,105.06c-2.17,2.17-7.49.39-11.83-4s-6.12-9.66-4-11.87,7.49-.39,11.83,4,6.12,9.66,4,11.83Z" fill="#d0d0d0" fill-rule="evenodd"/><path d="M136.65,102.4c-2.17,2.17-6.3,1.61-9.21-1.29s-3.5-7-1.33-9.21,6.3-1.61,9.21,1.3,3.5,7,1.33,9.2Z" fill="gray" fill-rule="evenodd"/><path d="M130.07,91.41l.87.91-1.75,3.5,3.5-1.75.88.88-7,3.5,3.5-7Zm5.25,5.29.87.87-5.25,5.25-.87-.84Z" fill="#d0d0d0" fill-rule="evenodd"/><path d="M123.49,150c-2.17-2.17-.39-7.49,4-11.83s9.66-6.13,11.83-4,.42,7.49-4,11.83S125.69,152.14,123.49,150Z" fill="#d0d0d0" fill-rule="evenodd"/><path d="M126.11,147.34c-2.17-2.17-1.57-6.3,1.33-9.2s7-3.5,9.21-1.33,1.57,6.3-1.33,9.2S128.32,149.52,126.11,147.34Z" fill="gray" fill-rule="evenodd"/><path d="M137.1,140.76l-.87.88-3.5-1.75,1.75,3.5-.91.87-3.5-7,7,3.5ZM131.85,146l-.91.88-5.25-5.25.88-.88Z" fill="#d0d0d0" fill-rule="evenodd"/><path d="M78.58,134.18c2.17-2.17,7.45-.42,11.83,4s6.12,9.66,4,11.83-7.49.42-11.86-4S76.37,136.35,78.58,134.18Z" fill="#d0d0d0" fill-rule="evenodd"/><path d="M81.2,136.81c2.17-2.17,6.3-1.58,9.21,1.33s3.5,7,1.29,9.2-6.3,1.58-9.2-1.33S79,139,81.2,136.81Z" fill="gray" fill-rule="evenodd"/><path d="M87.75,147.76l-.88-.87,1.75-3.5-3.5,1.75-.87-.88,7-3.5Zm-5.25-5.25-.88-.87,5.25-5.25.88.87Z" fill="#d0d0d0" fill-rule="evenodd"/><path d="M135,119.62a26,26,0,1,1-26-26,26.06,26.06,0,0,1,26,26Z" fill="none" stroke="#707070"/><path d="M128.78,119.62A19.84,19.84,0,1,1,109,99.78a19.86,19.86,0,0,1,19.83,19.84Z" fill="none" stroke="#707070"/><path d="M100.21,140.69A1.23,1.23,0,1,1,99,139.47a1.23,1.23,0,0,1,1.23,1.22Zm19.88,0a1.24,1.24,0,1,1-2.48,0,1.23,1.23,0,0,1,2.45,0h0Zm-12,0V142h-1.64c-1.65,0-1.65,1.29,0,1.29h1.64v1.3c0,1.33,1.47,1.5,1.58.1l.1-1.4h1.65c1.65,0,1.65-1.29,0-1.29h-1.65v-1.3A.85.85,0,1,0,108.08,140.69Z" fill="#d0d0d0" fill-rule="evenodd"/><path d="M102.76,122.38v.72s-.38.57-2.87.75a9.45,9.45,0,0,1-2.87,0,11.6,11.6,0,0,1,.41,3.3,9,9,0,0,1-.46,3.21c0,.08-.23.13-.77.08.42-.36.36-1.43.42-2.93s-1.57-3.78-1.24-4.4S102.76,122.38,102.76,122.38Z" fill="#d0d0d0" stroke="#707070" fill-rule="evenodd"/><path d="M112.57,119.72c2.42-.12,6.46-.1,6.46-.1a8.78,8.78,0,0,1,.92,3c0,1.06-.37,2-.81,1.51s.19-.36.27-1.51a4.09,4.09,0,0,0-.76-2.31,10.32,10.32,0,0,1-4.33.6c-2.61-.16-1.45-1.12-1.74-1.16Z" fill="#d0d0d0" stroke="#707070" fill-rule="evenodd"/><path d="M113.41,121.61a16,16,0,0,1,4,.25,9,9,0,0,1,.91,3c0,1-.37,2-.82,1.51s.21-.36.29-1.51a4.22,4.22,0,0,0-.78-2.33,10.19,10.19,0,0,1-4.32.61c-2.6-.15-1.86-.31-2.15-.35s-.37.72-4.3.83a14.49,14.49,0,0,1-6-.83s-.39.56-2.87.72a9.39,9.39,0,0,1-2.86,0,12.75,12.75,0,0,1,.4,3.31,9.23,9.23,0,0,1-.46,3.21c.06.08-.24.14-.76.08.4-.36.35-1.42.4-2.92s-1.56-3.79-1.22-4.41,2.11,0,2.46-.37-1.6-2.62-1.24-4.76,2.41-1.55,4.93-1.47,8.07.72,9.42,0,.75-3.41,2-5.13a3.88,3.88,0,0,1,3.28-1.47c.81,0,2.05,2.94,2.05,3.66l-.41.37H115V114c-.92.1-1.06-.8-1.63-1.46-.25,1,.81,4.39.81,6.59,0,1.84-.76,2.65-.81,2.51Z" fill="#d0d0d0" stroke="#707070" fill-rule="evenodd"/><path d="M105.51,118.41c0,.73-3.16,2.37-3.43,3s.81,1,.49,1.38-.6.23-.67.3-1.2-2.54-1.2-2.54,3-1.35,2.89-1.94-2.22-.93-2.62-2.41-.16-4.31-.47-4.91-4-1.16-4-2.06,3.81-3.36,4.21-3.73.81.37.4.73-3.37,2.64-3.37,3,2.46.73,3.28.73,1.22-.36,1.22-.72-.8-.37-.8-1.11.4-1.1,1.22-1.1a1.4,1.4,0,0,1,1.23,1.1c0,.62-.73.68-.82,1.1s.81.73,1.64.73,3.62,2.13,4,2.51.81.36.41.72-.17.81-.58.43a1.46,1.46,0,0,1-.41-.72c0-.34-3-1.84-3.44-1.47s0,4.76,0,5.13C104.7,117.31,105.54,117.31,105.51,118.41Z" fill="#d0d0d0" stroke="#707070" fill-rule="evenodd"/><path d="M100.28,109.93h4.9v5.14h-4.9Z" fill="#a7a7a7" fill-rule="evenodd"/><path d="M99.71,103.68l16.48,24.73c.14.21.18.42.08.47h0c-.09.05-.28-.08-.42-.29L99.37,103.86c-.14-.21-.17-.42-.08-.47h0C99.38,103.34,99.57,103.47,99.71,103.68Z" fill="gray" fill-rule="evenodd"/><path d="M101.5,105.89a.82.82,0,1,1-.82-.74.78.78,0,0,1,.82.74Z" fill="#d0d0d0" stroke="#707070" fill-rule="evenodd"/><path d="M115.86,112.55c0,.35-1.89.7-4.1.7s-4.1-.35-4.1-.7,1.89.46,4.1.46S115.86,112.27,115.86,112.55Z" fill="gray" fill-rule="evenodd"/><path d="M100.7,115.07h4.09v1.44H100.7Z" fill="#a7a7a7" fill-rule="evenodd"/><path d="M114,111.43c-.35.77-.77,1.3-.84,1.19a4.19,4.19,0,0,1,.6-1.5c.42-.74.8-1.26.84-1.19A3.49,3.49,0,0,1,114,111.43Zm1,1.93c-.45.42-.8.7-.84.59a4.2,4.2,0,0,1,.81-.87c.45-.39.84-.67.84-.56A3.67,3.67,0,0,1,115.05,113.36Z" fill="gray" fill-rule="evenodd"/><path d="M114.56,112.41a3.1,3.1,0,0,1,.46,1.19,6,6,0,0,1-.7-1c-.35-.63-.56-1.12-.49-1.15a4.54,4.54,0,0,1,.7,1Zm-.35,3.19a11.71,11.71,0,0,1-2.87.17,11.71,11.71,0,0,1-2.87-.17,11,11,0,0,1,2.87-.18A10.87,10.87,0,0,1,114.21,115.6Zm-9.42-.35a6,6,0,0,1-2,.17,6.13,6.13,0,0,1-2.06-.17,5.59,5.59,0,0,1,2-.18,6.15,6.15,0,0,1,2.1.18Z" fill="gray" fill-rule="evenodd"/><path d="M95.8,128s.68,1.64,3.55,1.66,3.88-.49,2.71-1.36-3.33-.6-3,.15-.82,1-1.07.48-1.29-2.1.56-2.2,5.79-.67,6.77.42-1.12,2.08.47,2.31,1.81-.27,4.54-.42,3.75.5,4.68.41.81-1.69.06-2.09-2.15-.49-2.51-.93-1.35-.09-1.26-.59,1.4.35,1.42.09c0,0,.21-.18.26-.22a.48.48,0,0,0-.39.09.51.51,0,0,0,.18-.25s-.19.13-.22.09.19-.25.09-.17-.29.15-.3.06.14-.12.1-.18-.23.05-.26.06c.11-.15.1-.14,0-.26s-.17-.11-.33,0c.07-.18.09-.22-.07-.29s-.13-.13-.29.19c.06-.35-.1-.36,0-.52s.25-.22.6-.18c.68,0,1,.81,1.25.81s.47-.86,1.42-.51,1.06.41,1.55.62-.34.52-.07.93,2.14,1.76,1.61,3.18-1.89,1.64-2,2.25,4.31.37,5.44.57a2.94,2.94,0,0,1,1.89,1.19,8.61,8.61,0,0,1-2,.13,9,9,0,0,0-3.52-.59c-2.49,0-3.43-1-4.36-1.17s-2.91.21-4,.16-2.23-.22-3-.32-4.28,1.61-4.27,2c-.75,0-2.49-.12-2.42-.08a2.19,2.19,0,0,1,1.67-.91c1.36-.15,2.7-.8,2.65-1.23a18.46,18.46,0,0,1,.38-2.54c.1-.63.63-.94.5-1.27s-1.67-.67-3.17-.66-3.16.09-3.4.45-.06,1.41.25,1.29-.07-.8.25-1a7,7,0,0,1,2-.28c.79,0,2.16.67,2.14.89s.44.95-.19,1.23a8,8,0,0,1-3.14.34,7.49,7.49,0,0,1-2.93-.76A2.21,2.21,0,0,1,95.8,128Z" fill="#d0d0d0" stroke="gray" fill-rule="evenodd"/><path d="M114,125.57a.35.35,0,0,1-.35.35.34.34,0,0,1-.35-.35.35.35,0,0,1,.35-.35A.35.35,0,0,1,114,125.57Z" fill-rule="evenodd"/><path d="M129.47,120.81l1.61.35,2.66-1.85-.21,1-1.4.91-.77.49.53.77.87,1.4-.21.91-1.64-2.84-1.61-.35.17-.77Zm-2.69-11.72,3.08-1.44-.84-1.82.42-.17,2,4.37-.42.18-.84-1.82-3.08,1.4-.35-.7Zm-4.8-5.85,2.84-2.59.56.63-.07,4.38,2.24-2,.52.56-2.87,2.59-.56-.6.11-4.41-2.24,2.07-.53-.6Zm-12.43-5,.49-3.85.78.14-.39,3.36,3,.35-.07.45Zm-6.09.56-.7-3.78.81-.14.59,3.32,2.94-.52.11.45Zm-11.3,5.56-.28-.35,2-1.61.87,1.12a6.32,6.32,0,0,1-1.57,2,5.08,5.08,0,0,1-1.44.84,2.4,2.4,0,0,1-1.29.14,1.66,1.66,0,0,1-1-.56,1.72,1.72,0,0,1-.35-1,2.27,2.27,0,0,1,.35-1.26,5.21,5.21,0,0,1,2.17-1.82,2.24,2.24,0,0,1,.88-.24,1.35,1.35,0,0,1,.73.21l-.49.56a1.19,1.19,0,0,0-.56-.14,1.35,1.35,0,0,0-.59.14,3.12,3.12,0,0,0-.74.45,3.57,3.57,0,0,0-.7.7l-.31.6a1.39,1.39,0,0,0,.24,1.29,1.36,1.36,0,0,0,.77.49,1.54,1.54,0,0,0,.95-.1,5.53,5.53,0,0,0,1-.56,4.07,4.07,0,0,0,.7-.74,3.18,3.18,0,0,0,.42-.7l-.45-.56-1.4,1.12Zm-.11,27.69-3.15,2.24-2.38-3.36.35-.25,1.93,2.7,1-.7-1.65-2.35.35-.24,1.68,2.31,1.4-1,.49.7Zm-4.62-5a1.26,1.26,0,0,0,.88-.87,2.86,2.86,0,0,0,0-1.54,2.59,2.59,0,0,0-.81-1.33,1.33,1.33,0,0,0-1.26-.25,1.44,1.44,0,0,0-.7.46,1.63,1.63,0,0,0-.35.87,3,3,0,0,0,.11,1.09,2.72,2.72,0,0,0,.77,1.33A1.32,1.32,0,0,0,87.43,127Zm.21.81A1.84,1.84,0,0,1,86,127.5a4,4,0,0,1-1.08-1.89,5,5,0,0,1-.18-1.54,2.18,2.18,0,0,1,.42-1.19,1.64,1.64,0,0,1,2-.56,2.28,2.28,0,0,1,1,.84,4.55,4.55,0,0,1,.63,1.36,4,4,0,0,1,.14,1.54,2.4,2.4,0,0,1-.42,1.19,1.57,1.57,0,0,1-.81.6ZM88,120l-3.85-.07.07-2.7a5.26,5.26,0,0,1,.1-1.22,1.88,1.88,0,0,1,.39-.7.93.93,0,0,1,.59-.21.85.85,0,0,1,.7.42,2.45,2.45,0,0,1,.32,1.29l.21-.45a3.26,3.26,0,0,1,.52-.7l1-1v1l-.84.77-.52.56a1.46,1.46,0,0,0-.28.42,1.42,1.42,0,0,0-.11.35v.46l0,.91,1.68.07V120Zm-2.14-.84,0-1.75,0-.84a1,1,0,0,0-.24-.49.78.78,0,0,0-.35-.18.44.44,0,0,0-.42.35,2,2,0,0,0-.21.95l0,1.92,1.26,0Zm10.71-16.94V97.71l.77-.45,4.1,2.06-.77.46-1.23-.63-2.17,1.29v1.33l-.7.46Zm.7-2.28,1.75-1-1.08-.59-.77-.46.07.81V100Zm18.59-1.19L120,97l.7.53-.25,4.55-.77-.53.14-1.36-2.1-1.47-1.19.52Zm2.35-.24,1.68,1.22.1-1.26a4.94,4.94,0,0,1,.14-.87l-.7.38Zm10.32,14.35,3.75-.91.63,2.62a7.74,7.74,0,0,1,.17,1.23,1.35,1.35,0,0,1-.21.73.77.77,0,0,1-.49.39.75.75,0,0,1-.77-.25,2.88,2.88,0,0,1-.66-1.15,1,1,0,0,1-.07.49,3.57,3.57,0,0,1-.35.77l-.77,1.29-.25-1,.6-1,.38-.7a2,2,0,0,0,.18-.45,2,2,0,0,0,0-.35l-.07-.46-.25-.91-1.64.39-.18-.77Zm2.28.28.38,1.68a4.68,4.68,0,0,0,.28.8.89.89,0,0,0,.35.42.42.42,0,0,0,.35.07.43.43,0,0,0,.35-.38,2.07,2.07,0,0,0,0-1l-.46-1.86Z" fill="#d0d0d0"/></svg>