<svg id="flag-icons-om" xmlns="http://www.w3.org/2000/svg" xmlns:xlink="http://www.w3.org/1999/xlink" viewBox="0 0 564.3 570.6"><defs><clipPath id="clip-path" transform="translate(23.3 21.6)"><rect width="512" height="512" fill="none"/></clipPath></defs><title>om</title><g clip-path="url(#clip-path)"><path d="M-23.3-21.6H531.4v553H-23.3Z" transform="translate(23.3 21.6)" fill="#ef2d29" fill-rule="evenodd"/><path d="M164.6,341.3H541V549H164.6Z" transform="translate(23.3 21.6)" fill="#009025" fill-rule="evenodd"/><path d="M164.6-19.4H541v190H164.6Z" transform="translate(23.3 21.6)" fill="#fff" fill-rule="evenodd"/><path d="M114.9,76.3h22.48a2.18,2.18,0,0,1,2.25,2.11V89a2.19,2.19,0,0,1-2.25,2.11H114.9A2.19,2.19,0,0,1,112.65,89V78.41A2.18,2.18,0,0,1,114.9,76.3Z" transform="translate(23.3 21.6)" fill="#fff" stroke="#ef2d28" stroke-width="1.4" fill-rule="evenodd"/><path d="M115.48,76.93h21.34a2,2,0,0,1,2.12,1.93V88.6a2,2,0,0,1-2.12,1.94H115.48a2,2,0,0,1-2.12-1.94V78.86A2,2,0,0,1,115.48,76.93Z" transform="translate(23.3 21.6)" fill="#fff" stroke="#ef2d28" fill-rule="evenodd"/><path d="M125.26,80.62l1.29,0,0,.59,1.06.54.83-.68,1,.54-.93.59.23.82L130,83v1.07l-.93,0-.48.67,1.06.77-.82.63-.89-.67-1.29.26.06,1-1.4.1-.19-1-1.17-.49-.65.68-1-.5.59-.77-.71-.49h-1l-.06-1.4,1,.09.7-.81-.82-.64L123,80.8l.76.58,1.29-.18Z" transform="translate(23.3 21.6)" fill="#fff" stroke="#ef2d28" fill-rule="evenodd"/><ellipse cx="148.92" cy="105.16" rx="1.43" ry="1.21" fill="#fff" stroke="#ef2d28"/><path d="M116.81,77.54l-2.09,1.85m3.48-1.85-2.09,1.85m3.45-1.85-2.07,1.85M121,77.54l-2.07,1.85m3.45-1.85-2.06,1.85m3.45-1.85-2.07,1.85m3.46-1.85L123,79.39m3.45-1.85-2.07,1.85m3.46-1.85-2.09,1.85m3.47-1.85-2.11,1.85m3.46-1.85-2.07,1.85M132,77.54l-2.06,1.85m-3.46-1.85-2,1.85m9-1.85-2.07,1.85m3.46-1.85-2.07,1.85m3.45-1.85-2.07,1.85m3.46-1.85-2.07,1.85m0-1.85,2.07,1.85m-3.46-1.85,2.07,1.85m-3.45-1.85,2.07,1.85m-3.46-1.85,2.07,1.85M130,77.54,132,79.39m-3.45-1.85,2.07,1.85m-3.46-1.85,2.09,1.85m-3.47-1.85,2.07,1.85m-3.48-1.85,2.09,1.85M123,77.54l2.07,1.85m-3.46-1.85,2.07,1.85m-3.45-1.85,2.06,1.85m3.48-1.85,2.07,1.85m-9-1.85,2.05,1.85m-3.46-1.85,2.09,1.85m-3.47-1.85,2.09,1.85m-3.48-1.85,2.11,1.85m0,8.65-2.07,1.87M118.18,88l-2.09,1.87M119.58,88l-2.09,1.87M121,88l-2.07,1.87M122.33,88l-2.06,1.87M123.72,88l-2.07,1.87M125.11,88l-2,1.87M126.49,88l-2.07,1.87M127.88,88l-2.09,1.87M129.24,88l-2.09,1.87M130.67,88l-2.09,1.87M132,88,130,89.91M126.49,88l-2.07,1.87m9-1.87-2.07,1.87M134.79,88l-2.07,1.87M136.17,88l-2.07,1.87M137.56,88l-2.07,1.87m0-1.87,2.07,1.87M134.1,88l2.07,1.87M132.72,88l2.07,1.87M131.33,88l2.07,1.87M130,88,132,89.91M128.56,88l2.09,1.87M127.15,88l2.09,1.87M125.79,88l2.07,1.87M124.42,88l2.07,1.87M123,88l2.07,1.87M121.65,88l2.07,1.87M120.27,88l2.06,1.87M125.81,88l2.07,1.87m-9-1.87,2,1.87M117.49,88l2.09,1.87M116.11,88l2.09,1.87M114.74,88l2.07,1.87" transform="translate(23.3 21.6)" fill="#fff" stroke="#ef2d28" fill-rule="evenodd"/><path d="M24.3,75.6H46.78A2.18,2.18,0,0,1,49,77.71V88.32a2.19,2.19,0,0,1-2.25,2.11H24.3a2.19,2.19,0,0,1-2.25-2.11V77.71A2.18,2.18,0,0,1,24.3,75.6Z" transform="translate(23.3 21.6)" fill="#fff" stroke="#ef2d28" stroke-width="1.4" fill-rule="evenodd"/><path d="M24.88,76.23H46.22a2,2,0,0,1,2.12,1.93V87.9a2,2,0,0,1-2.12,1.94H24.88a2,2,0,0,1-2.12-1.94V78.16A2,2,0,0,1,24.88,76.23Z" transform="translate(23.3 21.6)" fill="#fff" stroke="#ef2d28" fill-rule="evenodd"/><path d="M34.66,79.92,36,80l0,.59,1.06.54.83-.68,1,.54-.93.59.23.82,1.17-.05v1.07l-.93,0-.48.67,1.06.77-.82.63-.89-.67L36,85l.06,1-1.4.1-.19-1-1.17-.49-.65.68-1-.5.59-.77-.71-.49h-1l-.06-1.4,1,.09.7-.81-.82-.64,1.06-.71.76.58,1.29-.18Z" transform="translate(23.3 21.6)" fill="#fff" stroke="#ef2d28" fill-rule="evenodd"/><ellipse cx="58.32" cy="104.46" rx="1.43" ry="1.21" fill="#fff" stroke="#ef2d28"/><path d="M26.21,76.84l-2.09,1.85m3.48-1.85-2.09,1.85M29,76.84l-2.07,1.85m3.46-1.85-2.07,1.85m3.45-1.85-2.06,1.85m3.45-1.85-2.07,1.85m3.46-1.85-2.07,1.85m3.45-1.85-2.07,1.85m3.46-1.85-2.09,1.85m3.47-1.85-2.11,1.85M40,76.84l-2.07,1.85m3.45-1.85-2.06,1.85m-3.46-1.85-2,1.85m9-1.85-2.07,1.85m3.46-1.85-2.07,1.85m3.45-1.85L43.5,78.69M47,76.84l-2.07,1.85m0-1.85L47,78.69M43.5,76.84l2.07,1.85m-3.45-1.85,2.07,1.85m-3.46-1.85,2.07,1.85m-3.45-1.85,2.06,1.85M38,76.84,40,78.69m-3.46-1.85,2.09,1.85m-3.47-1.85,2.07,1.85m-3.48-1.85,2.09,1.85m-3.45-1.85,2.07,1.85M31,76.84l2.07,1.85m-3.45-1.85,2.06,1.85m3.48-1.85,2.07,1.85m-9-1.85,2,1.85m-3.46-1.85L29,78.69m-3.47-1.85,2.09,1.85M24.1,76.84l2.11,1.85m0,8.65-2.07,1.87m3.44-1.87-2.09,1.87M29,87.34l-2.09,1.87m3.46-1.87-2.07,1.87m3.45-1.87-2.06,1.87m3.45-1.87-2.07,1.87m3.46-1.87-2,1.87m3.43-1.87-2.07,1.87m3.46-1.87-2.09,1.87m3.45-1.87-2.09,1.87m3.52-1.87L38,89.21m3.45-1.87-2.06,1.87m-3.48-1.87-2.07,1.87m9-1.87-2.07,1.87m3.46-1.87-2.07,1.87m3.45-1.87L43.5,89.21M47,87.34l-2.07,1.87m0-1.87L47,89.21M43.5,87.34l2.07,1.87m-3.45-1.87,2.07,1.87m-3.46-1.87,2.07,1.87m-3.45-1.87,2.06,1.87M38,87.34l2.09,1.87m-3.5-1.87,2.09,1.87m-3.45-1.87,2.07,1.87m-3.44-1.87,2.07,1.87m-3.45-1.87,2.07,1.87m-3.46-1.87,2.07,1.87m-3.45-1.87,2.06,1.87m3.48-1.87,2.07,1.87m-9-1.87,2.05,1.87m-3.46-1.87L29,89.21m-3.47-1.87,2.09,1.87m-3.46-1.87,2.07,1.87" transform="translate(23.3 21.6)" fill="#fff" stroke="#ef2d28" fill-rule="evenodd"/><path d="M64.47,106.7c-33.56,32.92-47.87,37.07-41.14,39.73s28.33-14.33,50.81-36.88,36.24-42.63,29.51-45.29S100.17,71.73,64.47,106.7Z" transform="translate(23.3 21.6)" fill="#fff" stroke="#ef2d28" fill-rule="evenodd"/><path d="M36.1,130.7l11.77,3.09c-11.07,10.52-23.52,14.83-27,13s6.22-6.18,15.22-16.05Z" transform="translate(23.3 21.6)" fill="#fff" stroke="#ef2d28" stroke-width="1.3" fill-rule="evenodd"/><path d="M36.16,131.91l9.69,2.47c-10.78,10.11-21.44,13-24.2,11.74S27.41,141.42,36.16,131.91Z" transform="translate(23.3 21.6)" fill="#fff" stroke="#ef2d28" stroke-width="1.3" fill-rule="evenodd"/><path d="M72.27,105.31c0,.16-.11.87-.18,1.15a7.09,7.09,0,0,1-.08,1c-.11.27-.1.51-.43.61a1.3,1.3,0,0,1-.68.53,4.06,4.06,0,0,1-.87.47,1.81,1.81,0,0,1-1,.07c-.3-.18-.52-.38-.77-.54-.06-.24-.11-.59-.18-.84a3.45,3.45,0,0,1,.18,1,1.81,1.81,0,0,1-.34.83" transform="translate(23.3 21.6)" fill="none" stroke="#ef2d28" stroke-width="1.8"/><path d="M69.08,110.41l-.08-.07c.2.18.12.09-.35-.16a4.71,4.71,0,0,0-1.11-.3H66.33a3.87,3.87,0,0,0-1.11.15c-.25.22-.61.34-.87.54a1.32,1.32,0,0,0-.51.61c-.23.2-.38.52-.6.68-.1.35-.29.34-.43.61a1.31,1.31,0,0,1,.95.31c.36.15-.3-.16-.44-.31a2,2,0,0,0-.77-.15c-.38-.12-.63.09-1,.15a1,1,0,0,1-.6.16" transform="translate(23.3 21.6)" fill="none" stroke="#ef2d28" stroke-width="1.8"/><path d="M64.49,114.28a4,4,0,0,1-1.29,0,1.18,1.18,0,0,1-.77-.54c-.11-.2,0,.37,0,.61,0,.46-.2.46-.44.76s-.51.34-.77.47a2.61,2.61,0,0,1-.77.37,4,4,0,0,0-.77.38c-.29.18-.28.4-.44.7a.94.94,0,0,0,.34.75,2.13,2.13,0,0,0,.52.69c.21.36.46.52-.08.61-.3.12-.47,0-.78,0" transform="translate(23.3 21.6)" fill="none" stroke="#ef2d28" stroke-width="1.8"/><path d="M59,119.59c-.22,0-1-.26-1.3-.37H56.44a2.42,2.42,0,0,0-.93.3,2.58,2.58,0,0,1-.78.54,5.72,5.72,0,0,0-.69.84,3,3,0,0,0-.17,1,7.22,7.22,0,0,0,.17.92,2.29,2.29,0,0,0,.52.92.2.2,0,0,0,.17.15" transform="translate(23.3 21.6)" fill="none" stroke="#ef2d28" stroke-width="1.8"/><path d="M54.89,124.81s-.11.2-.24.36a.71.71,0,0,1-.73.31c-.39,0-.35-.16-.62-.24s-.28-.35-.43-.61-.18-.39-.29-.54-.25-.32-.37-.48a1.26,1.26,0,0,0-.31-.13c.35.06.39.19.61.37s.21.36.3.54a5.28,5.28,0,0,1,.13.78,1.82,1.82,0,0,1-.13.85,2.45,2.45,0,0,1-.43.42,4.81,4.81,0,0,0-.42.48l-.55.36a1.52,1.52,0,0,1-.66.24,1.75,1.75,0,0,1-.74-.24c-.23-.16-.41-.27-.61-.42a2.18,2.18,0,0,1-.43-.48.73.73,0,0,0-.73.12,1.53,1.53,0,0,0-.42.42c-.1,0-.28.2-.37.25" transform="translate(23.3 21.6)" fill="none" stroke="#ef2d28" stroke-width="2.4"/><path d="M48.18,127.33c.1,0,.46.29.61.38a5.56,5.56,0,0,1,.3.84,4.31,4.31,0,0,1,.08,1,4.26,4.26,0,0,1-.38,1c-.25.16-.37.28-.68.45a5.86,5.86,0,0,1-1,.09,1.66,1.66,0,0,1-.91,0,2.61,2.61,0,0,1-.83-.3,8.06,8.06,0,0,0-.76-.46,8.37,8.37,0,0,0-.6-.67,3.26,3.26,0,0,1-.46-.68c.12.31.28.6.37.9a1.62,1.62,0,0,1,.31.82,3.07,3.07,0,0,1,.08,1.06,3.68,3.68,0,0,1-.16.9v.23" transform="translate(23.3 21.6)" fill="none" stroke="#ef2d28" stroke-width="1.9"/><path d="M37,134.14v.12c0-.3,0-.16.14.43a1.34,1.34,0,0,0,1.21.21c.39-.29.39-.52,1.09-.64a2.52,2.52,0,0,1,1.37.43,1.84,1.84,0,0,1,1,.75c.14.37.22.63-.25.77a3.12,3.12,0,0,1-1.37.44c-.54,0-.95-.05-1.21.23s-.35.55-.35,1.18a6.09,6.09,0,0,0-.25,1,2.43,2.43,0,0,1-1.1.21c-.13-.35-.27-1-.37-1.31s-.11-.94-.37-1.21a2.92,2.92,0,0,0-.84-.76,1.52,1.52,0,0,0-.74-.42c.49.21.55.45.61,1a2.32,2.32,0,0,1-1.21.34,1.18,1.18,0,0,1-1.1-.56,5.62,5.62,0,0,1-.39,1.22,11.36,11.36,0,0,0-.58,1.08c.1.52.33.54.35,1.19.15.43.15.83.49,1.1.15.17.27.19.62.21a3.09,3.09,0,0,1-1.6-.32c-.35-.21-.62-.45-1-.66a4.88,4.88,0,0,0-1.47-.66c-.56,0-1-.06-1.21.22a2,2,0,0,0-.74,1.1c-.1.56-.16.94.14,1.31a1,1,0,0,1,0,1.08c-.3.35-.71.4-1.37.54a4.46,4.46,0,0,1-1.21-.21" transform="translate(23.3 21.6)" fill="none" stroke="#ef2d28" stroke-width="1.3"/><path d="M102.64,77.08c14.88-25.76,24.75-47.72,22.06-49s-17,18.66-31.89,44.42Z" transform="translate(23.3 21.6)" fill="#fff" stroke="#ef2d28" fill-rule="evenodd"/><path d="M101.65,76.64C116,51.79,125.9,30.78,123.74,29.79S108.15,48.16,93.8,73" transform="translate(23.3 21.6)" fill="#fff" stroke="#ef2d28" fill-rule="evenodd"/><path d="M99.19,63.68c-1.75,2.9-3.6,6.23-5.39,9.33l7.88,3.64c1.79-3.1,3.75-6.38,5.39-9.34Z" transform="translate(23.3 21.6)" fill="#fff" stroke="#ef2d28" fill-rule="evenodd"/><path d="M99.87,64.68c-1.75,2.92-3,5.13-4.76,8.25L101,75.64c1.79-3.1,3.13-5.29,4.76-8.24Z" transform="translate(23.3 21.6)" fill="#fff" stroke="#ef2d28" fill-rule="evenodd"/><path d="M104.15,68.05l-3.94-1.82-3.49,6,3.93,1.82Zm0,0-7.43,4.22m3.93,1.82-.44-7.86m21.71-28.94L118,35.47" transform="translate(23.3 21.6)" fill="#fff" stroke="#ef2d28" fill-rule="evenodd"/><ellipse cx="121.64" cy="33.47" rx="1.13" ry="1" transform="translate(18.85 50.88) rotate(-13.48)" fill="#ef0000" stroke="#ef2d28"/><path d="M96.83,106.1C130.39,139,144.7,143.17,138,145.83S109.64,131.5,87.16,109,50.92,66.32,57.65,63.66,61.13,71.13,96.83,106.1Z" transform="translate(23.3 21.6)" fill="#fff" stroke="#ef2d28" fill-rule="evenodd"/><path d="M125.1,130l-11.77,3.09c11.07,10.52,23.52,14.83,27,13s-6.22-6.18-15.22-16Z" transform="translate(23.3 21.6)" fill="#fff" stroke="#ef2d28" stroke-width="1.3" fill-rule="evenodd"/><path d="M125,131.31l-9.69,2.47c10.78,10.11,21.44,13,24.2,11.74S133.79,140.82,125,131.31Z" transform="translate(23.3 21.6)" fill="#fff" stroke="#ef2d28" stroke-width="1.3" fill-rule="evenodd"/><path d="M89,104.71c0,.16.11.87.18,1.15a7.09,7.09,0,0,0,.08,1c.11.27.1.51.43.61a1.3,1.3,0,0,0,.68.53,4.06,4.06,0,0,0,.87.47,1.81,1.81,0,0,0,1,.07c.3-.18.52-.38.77-.54.06-.24.11-.59.18-.84a3.45,3.45,0,0,0-.18,1,1.81,1.81,0,0,0,.34.83" transform="translate(23.3 21.6)" fill="none" stroke="#ef2d28" stroke-width="1.8"/><path d="M92.22,109.81l.08-.07c-.2.18-.12.09.35-.16a4.71,4.71,0,0,1,1.11-.3H95a3.87,3.87,0,0,1,1.11.15c.25.22.61.34.87.54a1.32,1.32,0,0,1,.51.61c.23.2.38.52.6.68.1.35.29.34.43.61a1.31,1.31,0,0,0-.95.31c-.36.15.3-.16.44-.31a2,2,0,0,1,.77-.15c.38-.12.63.09,1,.15a1,1,0,0,0,.6.16" transform="translate(23.3 21.6)" fill="none" stroke="#ef2d28" stroke-width="1.8"/><path d="M96.81,113.58a4,4,0,0,0,1.29,0,1.18,1.18,0,0,0,.77-.54c.11-.2,0,.37,0,.61,0,.46.2.46.44.76s.51.34.77.47a2.61,2.61,0,0,0,.77.37,4,4,0,0,1,.77.38c.29.18.28.4.44.7a.94.94,0,0,1-.34.75,2.13,2.13,0,0,1-.52.69c-.21.36-.46.52.08.61.3.12.47,0,.78,0" transform="translate(23.3 21.6)" fill="none" stroke="#ef2d28" stroke-width="1.8"/><path d="M102.25,119c.22,0,1-.26,1.3-.37h1.21a2.42,2.42,0,0,1,.93.3,2.58,2.58,0,0,0,.78.54,5.72,5.72,0,0,1,.69.84,3,3,0,0,1,.17,1,7.22,7.22,0,0,1-.17.92,2.29,2.29,0,0,1-.52.92.2.2,0,0,1-.17.15" transform="translate(23.3 21.6)" fill="none" stroke="#ef2d28" stroke-width="1.8"/><path d="M106.31,124.21s.11.2.24.36a.71.71,0,0,0,.73.31c.39,0,.35-.16.62-.24s.28-.35.43-.61.18-.39.29-.54.25-.32.37-.48a1.26,1.26,0,0,1,.31-.13c-.35.06-.39.19-.61.37s-.21.36-.3.54a5.28,5.28,0,0,0-.13.78,1.82,1.82,0,0,0,.13.85,2.45,2.45,0,0,0,.43.42,4.81,4.81,0,0,1,.42.48l.55.36a1.52,1.52,0,0,0,.66.24,1.75,1.75,0,0,0,.74-.24c.23-.16.41-.27.61-.42a2.18,2.18,0,0,0,.43-.48.73.73,0,0,1,.73.12,1.53,1.53,0,0,1,.42.42c.1.05.28.2.37.25" transform="translate(23.3 21.6)" fill="none" stroke="#ef2d28" stroke-width="2.4"/><path d="M113.12,126.73c-.1,0-.46.29-.61.38a5.56,5.56,0,0,0-.3.84,4.31,4.31,0,0,0-.08,1,4.26,4.26,0,0,0,.38,1c.25.16.37.28.68.45a5.86,5.86,0,0,0,1,.09,1.66,1.66,0,0,0,.91,0,2.61,2.61,0,0,0,.83-.3,8.06,8.06,0,0,1,.76-.46,8.37,8.37,0,0,1,.6-.67,3.26,3.26,0,0,0,.46-.68c-.12.31-.28.6-.37.9a1.62,1.62,0,0,0-.31.82,3.07,3.07,0,0,0-.08,1.06,3.68,3.68,0,0,0,.16.9v.23" transform="translate(23.3 21.6)" fill="none" stroke="#ef2d28" stroke-width="1.9"/><path d="M124.24,133.44v.12c0-.3,0-.16-.14.43a1.34,1.34,0,0,1-1.21.21c-.39-.29-.39-.52-1.09-.64a2.52,2.52,0,0,0-1.37.43,1.84,1.84,0,0,0-1,.75c-.14.37-.22.63.25.77a3.12,3.12,0,0,0,1.37.44c.54,0,1,0,1.21.23s.35.55.35,1.18a6.09,6.09,0,0,1,.25,1,2.43,2.43,0,0,0,1.1.21c.13-.35.27-.95.37-1.31s.11-.94.37-1.21a2.92,2.92,0,0,1,.84-.76,1.52,1.52,0,0,1,.74-.42c-.49.21-.55.45-.61,1a2.32,2.32,0,0,0,1.21.34,1.18,1.18,0,0,0,1.1-.56,5.62,5.62,0,0,0,.39,1.22,11.36,11.36,0,0,1,.58,1.08c-.1.52-.33.54-.35,1.19-.15.43-.15.83-.49,1.1-.15.17-.27.19-.62.21a3.09,3.09,0,0,0,1.6-.32c.35-.21.62-.45,1-.66a4.88,4.88,0,0,1,1.47-.66c.56,0,1-.06,1.21.22a2,2,0,0,1,.74,1.1c.1.56.16.94-.14,1.31a1,1,0,0,0,0,1.08c.3.35.71.4,1.37.54a4.46,4.46,0,0,0,1.21-.21" transform="translate(23.3 21.6)" fill="none" stroke="#ef2d28" stroke-width="1.3"/><path d="M58.56,76.38c-14.88-25.76-24.75-47.72-22.06-49s17,18.66,31.89,44.42Z" transform="translate(23.3 21.6)" fill="#fff" stroke="#ef2d28" fill-rule="evenodd"/><path d="M59.55,75.94C45.19,51.09,35.3,30.08,37.46,29.09S53.05,47.46,67.4,72.31" transform="translate(23.3 21.6)" fill="#fff" stroke="#ef2d28" fill-rule="evenodd"/><path d="M62,63c1.75,2.9,3.6,6.23,5.39,9.33L59.52,76c-1.79-3.1-3.75-6.38-5.39-9.34Z" transform="translate(23.3 21.6)" fill="#fff" stroke="#ef2d28" fill-rule="evenodd"/><path d="M61.33,64c1.75,2.92,3,5.13,4.76,8.25l-5.88,2.71c-1.79-3.1-3.13-5.29-4.76-8.24Z" transform="translate(23.3 21.6)" fill="#fff" stroke="#ef2d28" fill-rule="evenodd"/><path d="M57.05,67.35,61,65.53l3.49,6-3.93,1.82Zm0,0,7.43,4.22m-3.93,1.82L61,65.53M39.28,36.59l3.94-1.82" transform="translate(23.3 21.6)" fill="#fff" stroke="#ef2d28" fill-rule="evenodd"/><ellipse cx="39.56" cy="32.77" rx="1" ry="1.13" transform="translate(21.77 85.19) rotate(-76.52)" fill="#ef0000" stroke="#ef2d28"/><path d="M70.47,63.25c0,21.63.13,29.78-1.46,30.9s-43.48,0-43.48,6.17,34.55,12.39,44.94,12.39q20.76,0,20.73-18.56V63.26H70.47Z" transform="translate(23.3 21.6)" fill="#fff" stroke="#ef2d28" fill-rule="evenodd"/><path d="M70.47,69.42v3.09a69.92,69.92,0,0,0,20.73,0V69.42A69.92,69.92,0,0,1,70.47,69.42Z" transform="translate(23.3 21.6)" fill="#fff" stroke="#ef2d28" fill-rule="evenodd"/><path d="M70.47,63.25v3.08a69.92,69.92,0,0,0,20.73,0V63.25A70.6,70.6,0,0,1,70.47,63.25Z" transform="translate(23.3 21.6)" fill="#fff" stroke="#ef2d28" fill-rule="evenodd"/><path d="M70.47,66.33v3.09a69.92,69.92,0,0,0,20.73,0V66.33A69.92,69.92,0,0,1,70.47,66.33Z" transform="translate(23.3 21.6)" fill="#fff" stroke="#ef2d28" fill-rule="evenodd"/><path d="M70.47,72.51V75.6a69.92,69.92,0,0,0,20.73,0V72.51A69.92,69.92,0,0,1,70.47,72.51Z" transform="translate(23.3 21.6)" fill="#fff" stroke="#ef2d28" fill-rule="evenodd"/><ellipse cx="94.72" cy="89.68" rx="0.95" ry="0.67" fill="#fff" stroke="#ef2d28" stroke-width="4.5"/><ellipse cx="98.48" cy="90.02" rx="0.95" ry="0.67" fill="#fff" stroke="#ef2d28" stroke-width="4.5"/><ellipse cx="102.26" cy="90.36" rx="0.95" ry="0.67" fill="#fff" stroke="#ef2d28" stroke-width="4.5"/><ellipse cx="106.03" cy="90.36" rx="0.95" ry="0.67" fill="#fff" stroke="#ef2d28" stroke-width="4.5"/><ellipse cx="109.8" cy="90.02" rx="0.95" ry="0.67" fill="#fff" stroke="#ef2d28" stroke-width="4.5"/><ellipse cx="113.58" cy="89.68" rx="0.95" ry="0.67" fill="#fff" stroke="#ef2d28" stroke-width="4.5"/><path d="M70.47,78.69,91.2,95.38M72.54,78.69,91.22,93.52M75.29,79.32,91.22,91.69M77.36,79.3,91.22,89.82M79.45,79.32,91.2,88m-9.68-8.65,9.68,6.8m-7.61-6.8,7.61,4.93m-5.5-4.93L91.24,83m-3.49-3.69,3.47,2.47m-1.39-2.47,1.37,1.22m-20.73,0L91.2,97.25m0-18.54L68.37,97.23M89.11,78.69l-20,16.08M86.36,79.32,70.45,91.67M84.27,79.32,70.45,89.82m11.77-10.5L70.47,88m9.68-8.65-9.68,6.8m7.61-6.8-7.61,4.93M76,79.32,70.45,83m3.46-3.69-3.46,2.47m1.37-2.47-1.37,1.22m20.75,0L68.37,99.12M91.2,82.42,68.37,101M91.2,84.25,68.37,102.8M91.2,86.1,68.37,104.68M91.2,88,68.37,106.52M91.2,89.82,68.37,108.37M91.2,91.67,68.37,110.21M91.2,93.54,68.37,112.08M91.2,95.38,69.75,112.69M91.2,97.23,71.84,112.69m18.66-13L75.27,112.08m14.56-9.91-12.45,9.89m11.07-6.8L82.2,110.2M70.47,82.39l20,16.07m-20-14.22,20,16.08m-20-14.2,19.36,15.44M70.47,88l19.36,15.48M70.47,89.82l18.66,14.83M69.77,91.06l18.68,14.83m-18.68-13,17.29,13.61m-18-12.38,17.29,13.6m-18-12.38,16.58,13M68.37,97.22l15.9,12.37M68.37,99.08,82.22,110.2" transform="translate(23.3 21.6)" fill="#fff" stroke="#ef2d28" fill-rule="evenodd"/><path d="M70.47,75.62V78.7a69.92,69.92,0,0,0,20.73,0V75.62A70.6,70.6,0,0,1,70.47,75.62Z" transform="translate(23.3 21.6)" fill="#fff" stroke="#ef2d28" fill-rule="evenodd"/><path d="M68.39,101l12.45,9.89m-12.45-8,11.06,8.63m-11.06-6.8,9.68,7.43m-9.68-5.58,6.92,5.58m-6.94-3.71,5.54,4.32m-5.54-2.48,3.45,2.48" transform="translate(23.3 21.6)" fill="#fff" stroke="#ef2d28" fill-rule="evenodd"/><ellipse cx="94.72" cy="98.97" rx="0.95" ry="0.67" fill="#fff" stroke="#ef2d28" stroke-width="4.5"/><ellipse cx="98.48" cy="99.3" rx="0.95" ry="0.67" fill="#fff" stroke="#ef2d28" stroke-width="4.5"/><ellipse cx="102.26" cy="99.62" rx="0.95" ry="0.67" fill="#fff" stroke="#ef2d28" stroke-width="4.5"/><ellipse cx="106.03" cy="99.62" rx="0.95" ry="0.67" fill="#fff" stroke="#ef2d28" stroke-width="4.5"/><ellipse cx="109.8" cy="99.3" rx="0.95" ry="0.67" fill="#fff" stroke="#ef2d28" stroke-width="4.5"/><ellipse cx="113.58" cy="98.97" rx="0.95" ry="0.67" fill="#fff" stroke="#ef2d28" stroke-width="4.5"/><path d="M40.73,107.75l24.88-13M39.35,107.13,62.86,94.77m-24.2,11.12L60.09,94.77M38,104.67l18.68-9.9m-20.09,8.66,17.3-8.66m-16.59,6.81L49,95.38m-12.46,4.94,9-4.94m-9,3.09,6.25-3.09m0,13L66.3,96M44.89,109,67,97.23M47,109.6,67.7,98.47M49,110.21,66.32,101m-14.54,9.26,15.22-8m-13.15,8.65L67,104m-11.07,7.41,10.39-5.56m-7.61,5.58L67,107.13m-5.52,5L67,109m-2.73,3.1,3.45-1.85" transform="translate(23.3 21.6)" fill="#fff" stroke="#ef2d28" fill-rule="evenodd"/><path d="M69.07,94.16H65.61a50.19,50.19,0,0,0,0,18.53h3.46A50.19,50.19,0,0,1,69.07,94.16Z" transform="translate(23.3 21.6)" fill="#fff" stroke="#ef2d28" fill-rule="evenodd"/><path d="M28.28,102.8l8.29-6.18m-8.29,1.85,8.29,7.42" transform="translate(23.3 21.6)" fill="#fff" stroke="#ef2d28" fill-rule="evenodd"/><path d="M40.73,95.37,36.58,96a22.83,22.83,0,0,0,0,11.14l4.15,1.23A30.91,30.91,0,0,1,40.73,95.37Z" transform="translate(23.3 21.6)" fill="#fff" stroke="#ef2d28" fill-rule="evenodd"/><path d="M91.2,64.47V61.35c-3.13,0-5.2-1.84-5.2-3.7H75.65c0,1.85-2.05,3.72-5.18,3.72v3.09Z" transform="translate(23.3 21.6)" fill="#fff" stroke="#ef2d28" fill-rule="evenodd"/><path d="M76.37,54h8.9v3.71h-8.9Zm.76-3.72h7.4V54H77.11Zm0-3.7h7.4v3.7H77.11Zm.74-4.95h5.91v4.95H77.87Zm-.25-4.33h6.44V41.6H77.62Z" transform="translate(23.3 21.6)" fill="#fff" stroke="#ef2d28" stroke-width="1.4" fill-rule="evenodd"/><ellipse cx="104.47" cy="54.86" rx="8.57" ry="5.88" fill="#fff" stroke="#ef2d28"/><path d="M85.46,32.94c0,1.62,2.14,4.33,2.14,4.33a12,12,0,0,1-6.43,1.87c-2.36,0-5.3-.46-6.43-1.87,0,0,2.13-2.69,2.13-4.31s-2.13-3.72-2.13-3.72a12.1,12.1,0,0,1,12.86,0s-2.14,2.1-2.14,3.72Z" transform="translate(23.3 21.6)" fill="#fff" stroke="#ef2d28" fill-rule="evenodd"/><path d="M84,32.94c0,1.62,2.14,5,2.14,5-1.55,1-2.62,1.22-5,1.22s-3.87.19-5-1.22c0,0,2.14-3.32,2.14-5s-2.14-4.33-2.14-4.33c1.55-1,2.62-1.22,5-1.22s3.45.18,5,1.22C86.17,28.61,84,31.32,84,32.94Z" transform="translate(23.3 21.6)" fill="#fff" stroke="#ef2d28" fill-rule="evenodd"/><ellipse cx="95.9" cy="55.15" rx="2.14" ry="1.85" fill="#fff" stroke="#ef2d28"/><ellipse cx="113.05" cy="55.15" rx="2.14" ry="1.85" fill="#fff" stroke="#ef2d28"/><ellipse cx="104.49" cy="55.15" rx="2.14" ry="1.85" fill="#fff" stroke="#ef2d28"/><ellipse cx="104.49" cy="48.98" rx="2.14" ry="1.85" fill="#fff" stroke="#ef2d28"/><ellipse cx="98.22" cy="84.22" rx="2.21" ry="1.85" fill="#fff" stroke="#ef2d28"/><ellipse cx="110.05" cy="84.22" rx="2.21" ry="1.85" fill="#fff" stroke="#ef2d28"/><path d="M75.65,57.66H86l-5.18,5.57Z" transform="translate(23.3 21.6)" fill="#fff" stroke="#ef2d28" fill-rule="evenodd"/><ellipse cx="104.12" cy="83.59" rx="2.95" ry="2.47" fill="#fff" stroke="#ef2d28"/><path d="M70.33,80.59H84.52a.79.79,0,0,1,.86.67v2.39a.79.79,0,0,1-.86.66H70.33a.79.79,0,0,1-.86-.66V81.26A.79.79,0,0,1,70.33,80.59Z" transform="translate(23.3 21.6)" fill="#fff" stroke="#ef2d28" stroke-width="1.3" fill-rule="evenodd"/><path d="M90.22,77.5a3.35,3.35,0,0,0-3.46,3.23v2.81a3.33,3.33,0,0,0,3.42,3.23h0a3.33,3.33,0,0,0,3.45-3.19V80.75a3.3,3.3,0,0,0-3.39-3.24Zm0,1.23a2.37,2.37,0,0,0-2.07,2.59V83a2.12,2.12,0,1,0,4.14,0V81.32a2.36,2.36,0,0,0-2.07-2.58Zm-18-.62a2.36,2.36,0,0,0-2.07,2.6v2.87a2.12,2.12,0,1,0,4.14,0V80.7a2.37,2.37,0,0,0-2.07-2.6Zm0-1.22a3.33,3.33,0,0,0-3.45,3.19v4.09A3.32,3.32,0,0,0,72.2,87.4h0a3.35,3.35,0,0,0,3.46-3.23v-4a3.32,3.32,0,0,0-3.4-3.24h-.06Z" transform="translate(23.3 21.6)" fill="#fff" stroke="#ef2d28" stroke-width="1.3" fill-rule="evenodd"/><path d="M66.7,79.35a2.36,2.36,0,0,0-2.07,2.59v.68a2.13,2.13,0,1,0,4.16,0v-.68A2.38,2.38,0,0,0,66.7,79.35Zm0-1.22a3.34,3.34,0,0,0-3.46,3.19v1.89a3.32,3.32,0,0,0,3.41,3.23h0a3.36,3.36,0,0,0,3.47-3.23V81.36a3.3,3.3,0,0,0-3.39-3.24H66.7Z" transform="translate(23.3 21.6)" fill="#fff" stroke="#ef2d28" stroke-width="1.3" fill-rule="evenodd"/><path d="M58.43,77.65c-2.11,0-3.76,1.28-3.76,2.88v3.22c0,1.58,1.69,2.89,3.76,2.89s3.72-1.29,3.72-2.91v-3.2C62.15,78.93,60.47,77.65,58.43,77.65Zm0-1.37c-3.49,0-6.29,1.61-6.26,3.55v4.56c-.12,1.94,2.61,3.56,6.1,3.63h.11c3.48,0,6.26-1.62,6.26-3.63V79.87c.09-1.94-2.66-3.55-6.15-3.61h-.07Z" transform="translate(23.3 21.6)" fill="#fff" stroke="#ef2d28" stroke-width="0.9" fill-rule="evenodd"/><path d="M103.37,78.26c-2.1,0-3.75,1.28-3.75,2.88v3.22c0,1.58,1.68,2.89,3.75,2.89s3.73-1.29,3.73-2.91v-3.2C107.1,79.54,105.41,78.26,103.37,78.26Zm0-1.37c-3.49,0-6.29,1.61-6.25,3.55V85c-.12,1.94,2.62,3.56,6.11,3.63h.11c3.48,0,6.25-1.62,6.25-3.63V80.48c.1-1.94-2.65-3.55-6.14-3.61h-.08Z" transform="translate(23.3 21.6)" fill="#fff" stroke="#ef2d28" stroke-width="0.9" fill-rule="evenodd"/><path d="M92.05,80.59h7.4c.25,0,.45.3.45.67v2.39c0,.36-.2.66-.45.66h-7.4c-.25,0-.45-.3-.45-.66V81.26C91.6,80.89,91.8,80.59,92.05,80.59Z" transform="translate(23.3 21.6)" fill="#fff" stroke="#ef2d28" stroke-width="1.3" fill-rule="evenodd"/><path d="M84.26,80h4.3c.15,0,.27.39.27.87v3.21c0,.49-.12.88-.27.88h-4.3c-.15,0-.27-.39-.27-.88V80.85C84,80.37,84.11,80,84.26,80Z" transform="translate(23.3 21.6)" fill="#fff" stroke="#ef2d28" stroke-width="1.3" fill-rule="evenodd"/><path d="M61.45,80h4.29c.15,0,.28.39.28.87v3.21c0,.49-.13.88-.28.88H61.45c-.15,0-.27-.39-.27-.88V80.85C61.18,80.37,61.3,80,61.45,80Z" transform="translate(23.3 21.6)" fill="#fff" stroke="#ef2d28" stroke-width="1.3" fill-rule="evenodd"/><path d="M46.48,79.35h8.63c.29,0,.52.5.52,1.1v4c0,.61-.23,1.1-.52,1.1H46.48c-.29,0-.53-.49-.53-1.1v-4C46,79.85,46.19,79.35,46.48,79.35Z" transform="translate(23.3 21.6)" fill="#fff" stroke="#ef2d28" stroke-width="1.3" fill-rule="evenodd"/><path d="M106.61,80h8c.27,0,.49.49.49,1.1v4c0,.61-.22,1.1-.49,1.1h-8c-.27,0-.49-.49-.49-1.1v-4C106.12,80.47,106.34,80,106.61,80Z" transform="translate(23.3 21.6)" fill="#fff" stroke="#ef2d28" stroke-width="1.3" fill-rule="evenodd"/></g></svg>