<svg id="flag-icons-tm" xmlns="http://www.w3.org/2000/svg" xmlns:xlink="http://www.w3.org/1999/xlink" viewBox="0 0 767.88 512.13"><defs><clipPath id="clip-path" transform="translate(0 0.21)"><rect width="511.92" height="511.92" fill="none"/></clipPath></defs><title>tm</title><g clip-path="url(#clip-path)"><path d="M0,0H767.88V511.92H0Z" transform="translate(0 0.21)" fill="#00843d" fill-rule="evenodd"/><path d="M263.29,137.48c27.87,13.41,61.1,0,73.17-18.58,12.39-17.34,13.83-46.45-7.53-73.18,33,27.46,40.46,58.52,23.95,84.12-21.89,29.21-70.6,28.38-89.59,7.64Z" transform="translate(0 0.21)" fill="#fff" fill-rule="evenodd"/><path d="M306.53,78.65l1.55-5.58-4.54-3.4,5.57-.21L311,64l1.86,5.47h5.57L314,73.07l1.66,5.47-4.55-3.3Zm-27.86,34.67,1.65-5.47-4.54-3.5,5.67-.11,1.76-5.47,2,5.37,5.57.1-4.44,3.51,1.66,5.57-4.65-3.3ZM280.52,86l1.66-5.57L277.63,77l5.58-.2,1.86-5.47,1.85,5.47h5.68l-4.44,3.61,1.65,5.47-4.64-3.3Zm0-27.45L282.18,53l-4.55-3.41,5.58-.21,1.86-5.47,1.85,5.47h5.68L288.16,53l1.65,5.47-4.64-3.2ZM249.77,93.3l1.55-5.57-4.44-3.51,5.57-.1,1.86-5.47L256.17,84l5.57.11-4.44,3.51L259,93.2l-4.64-3.3Z" transform="translate(0 0.21)" fill="#fff" fill-rule="evenodd"/><path d="M47.48,0H212.1V511.92H47.58Z" transform="translate(0 0.21)" fill="#ca3745" fill-rule="evenodd"/><path d="M47.48,133.45v-3.61l6.91-9.19L53,118.9l4.13-5.58-1.35-1.75L53,115.18l-1.35-1.86,9.6-12.79,1.35,1.85-1.35,1.86L64,108l6.81-9.29L63.89,89.9,61.2,93.3l1.35,1.76L61.2,96.91,51.6,84.12,53,82.26,55.73,86l1.35-1.85L53,78.65l1.44-1.86-6.81-9.08V64l9.5,12.8-1.35,1.86,4.13,5.47-2.78,3.61,2.78,3.71L64,86l9.6,13L64,111.47,59.86,106l-2.78,3.61,2.78,3.61-4.13,5.57,1.35,1.76-9.5,12.8Z" transform="translate(0 0.21)" fill="#faae29" fill-rule="evenodd"/><path d="M47.48,87.73l1.44,3.71v5.47h4.13l2.68,1.86-2.68,1.76H48.92v5.57l-1.34,3.61v-22Z" transform="translate(0 0.21)" fill="#faae29" fill-rule="evenodd"/><path d="M47.48,221.28v-3.71l6.91-9.09L53,206.63l4.13-5.47-1.35-2L53,202.81l-1.35-1.55,9.6-12.8,1.35,1.76-1.35,1.85L64,195.79l6.81-9.19-6.91-8.87-2.69,3.4L62.55,183l-1.35,1.76L51.6,172,53,170.19l2.78,3.62L57.08,172,53,166.48l1.44-1.76-6.81-9.29v-3.71l9.5,12.8-1.35,1.85,4.13,5.47-2.78,3.72,2.78,3.61L64,173.7l9.6,13L64,199.3l-4.13-5.47-2.78,3.61,2.78,3.82-4.13,5.47,1.35,1.86-9.5,12.8Z" transform="translate(0 0.21)" fill="#faae29" fill-rule="evenodd"/><path d="M47.48,175.46l1.44,3.71v5.47h4.13l2.68,1.86-2.68,1.86H48.92v5.47l-1.34,3.61V175.56Z" transform="translate(0 0.21)" fill="#faae29" fill-rule="evenodd"/><path d="M47.48,309V305.4l6.91-9.19L53,294.35l4.13-5.47-1.35-1.75L53,290.74l-1.35-1.86,9.6-12.79,1.35,1.85L61.2,279.8,64,283.41l6.81-9.18-6.91-8.88-2.69,3.41,1.35,1.86-1.35,1.85-9.6-12.79L53,257.82l2.78,3.61,1.35-1.75L53,254.21l1.44-1.86-6.81-9.19v-3.61l9.5,12.8-1.35,1.86,4.13,5.47-2.78,3.61L59.86,267,64,261.53l9.6,13L64,287.13l-4.13-5.57-2.78,3.71,2.78,3.61-4.13,5.47,1.35,1.86L47.58,309Z" transform="translate(0 0.21)" fill="#faae29" fill-rule="evenodd"/><path d="M47.48,263.29,48.92,267v5.47h4.13l2.68,1.86-2.68,1.76H48.92v5.47l-1.34,3.71V263.19Z" transform="translate(0 0.21)" fill="#faae29" fill-rule="evenodd"/><path d="M47.48,391.27v-3.61l6.91-9.19L53,376.72l4.13-5.58-1.35-1.65L53,373.1l-1.35-1.85,9.6-12.8,1.35,1.86-1.35,1.85L64,365.88l6.81-9.29-6.91-8.77-2.69,3.4L62.55,353l-1.35,1.86L51.6,342,53,340.18l2.78,3.72L57.08,342,53,336.57l1.44-1.86-6.81-9.08v-3.72l9.5,12.8-1.35,1.75,4.13,5.47-2.78,3.62,2.78,3.71L64,343.79l9.6,13L64,369.39l-4.13-5.47-2.78,3.61,2.78,3.61-4.13,5.58,1.35,1.75-9.5,12.8Z" transform="translate(0 0.21)" fill="#faae29" fill-rule="evenodd"/><path d="M47.48,345.55l1.44,3.71v5.47h4.13l2.68,1.86-2.68,1.76H48.92v5.57l-1.44,3.51V345.55Z" transform="translate(0 0.21)" fill="#faae29" fill-rule="evenodd"/><path d="M212.1,133.45v-3.61l-6.82-9.19,1.35-1.75-4.13-5.58,1.44-1.75,2.79,3.61,1.34-1.86-9.6-12.79L197,102.38l1.44,1.86L195.58,108l-6.71-9.29,6.82-8.77,2.78,3.4L197,95.06l1.44,1.85,9.6-12.79-1.44-1.86L203.94,86l-1.34-1.85,4.13-5.47-1.45-1.86,6.82-9.19V64l-9.5,12.8,1.34,1.86-4.13,5.47,2.79,3.61-2.79,3.71L195.69,86l-9.6,13,9.6,12.59,4.12-5.47,2.79,3.61-2.79,3.61,4.13,5.58-1.34,1.75,9.5,12.8Z" transform="translate(0 0.21)" fill="#faae29" fill-rule="evenodd"/><path d="M212.1,87.73l-1.35,3.71v5.47h-4.12l-2.79,1.86,2.79,1.76h4.12v5.57l1.35,3.61Z" transform="translate(0 0.21)" fill="#faae29" fill-rule="evenodd"/><path d="M212.61,221.28v-3.71l-6.91-9.09,1.44-1.85L203,201.16l1.35-1.86,2.78,3.71,1.34-1.85-9.59-12.8-1.35,1.75,1.35,1.86-2.79,3.72-6.81-9.19,6.91-8.88,2.69,3.41-1.35,1.86,1.35,1.75,9.59-12.8-1.34-1.75-2.78,3.61L203,171.84l4.13-5.47-1.34-1.75,6.71-9.29v-3.51l-9.5,12.8,1.35,1.75-4.13,5.47,2.78,3.72-2.78,3.61-4.13-5.47-9.6,13,9.7,12.59,4.13-5.47,2.68,3.61-2.78,3.72,4.13,5.47L203,208.48l9.6,12.8Z" transform="translate(0 0.21)" fill="#faae29" fill-rule="evenodd"/><path d="M212.61,175.46l-1.44,3.71v5.47H207l-2.68,1.86,2.68,1.86h4.13v5.47l1.34,3.61V175.56Z" transform="translate(0 0.21)" fill="#faae29" fill-rule="evenodd"/><path d="M212.1,309V305.4l-6.71-9.19,1.34-1.86-4.13-5.47,1.45-1.75,2.78,3.61,1.34-1.86-9.59-12.79-1.45,1.85,1.45,1.86-2.89,3.61L189,274.23l6.81-8.88,2.79,3.41-1.45,1.86,1.45,1.85,9.59-12.79-1.44-1.86-2.68,3.61-1.35-1.75,4.13-5.47-1.44-1.86,6.81-9.19v-3.61l-9.5,12.8,1.35,1.86-4.13,5.47,2.78,3.61L199.92,267l-4.13-5.47-9.6,13,9.6,12.59,4.13-5.57,2.78,3.71-2.78,3.61,4.13,5.47-1.35,1.86,9.5,12.8Z" transform="translate(0 0.21)" fill="#faae29" fill-rule="evenodd"/><path d="M212.1,263.29,210.75,267v5.47h-4.12l-2.79,1.86,2.79,1.76h4.12v5.47l1.35,3.71v-22Z" transform="translate(0 0.21)" fill="#faae29" fill-rule="evenodd"/><path d="M212.1,391.27v-3.61l-6.82-9.19,1.35-1.75-4.13-5.58,1.44-1.75,2.79,3.61,1.34-1.86-9.6-12.79L197,360.2l1.44,1.86-2.89,3.72-6.71-9.29,6.82-8.78,2.78,3.41L197,352.87l1.44,1.86,9.6-12.8-1.44-1.85-2.69,3.71-1.34-1.86,4.13-5.47-1.45-1.85,6.82-9.09v-3.71l-9.5,12.8,1.34,1.85-4.13,5.47,2.79,3.62-2.79,3.71-4.12-5.47-9.6,13,9.6,12.59,4.12-5.47,2.79,3.61-2.79,3.61,4.13,5.58-1.34,1.75,9.5,12.8Z" transform="translate(0 0.21)" fill="#faae29" fill-rule="evenodd"/><path d="M212.1,345.55l-1.35,3.71v5.47h-4.12l-2.79,1.86,2.79,1.76h4.12v5.57l1.35,3.61Z" transform="translate(0 0.21)" fill="#faae29" fill-rule="evenodd"/><path d="M47.48,34.78V31l6.91-9.08L53,20l4.13-5.47-1.35-1.86L53,16.31,51.6,14.55l9.6-12.8,1.35,1.76L61.2,5.37,64,9.29,70.8,0h2.79L64,12.8,59.86,7.33l-2.78,3.61,2.78,3.72-4.13,5.47L57.08,22l-9.5,12.8ZM47.48,0h8.25L53.05,1.86H48.92V7.22l-1.34,3.62V0ZM212.1,34.78V31l-6.82-9.08L206.63,20l-4.13-5.47,1.44-1.86,2.69,3.62,1.44-1.76-9.6-12.8L197,3.51l1.44,1.86-2.89,3.71L188.87-.21h-2.78l9.6,12.9,4.12-5.47,2.79,3.62-2.79,3.71L203.94,20l-1.34,1.86,9.5,12.8ZM212.1,0h-8.26l2.79,1.86h4.12V7.22l1.35,3.62Z" transform="translate(0 0.21)" fill="#faae29" fill-rule="evenodd"/><path d="M116.11,504.7S122,494.38,137,491.18s17.44,6.91,25.91,6.91,22-6.91,22-6.91-13.42,13.21-23.84,12.9-13.94-6.92-24.57-6S116.11,505,116.11,504.7Z" transform="translate(0 0.21)" fill="#faae29" fill-rule="evenodd"/><path d="M144.8,504.7s-5.88-10.32-20.74-13.52-17.55,6.91-26,6.91-22-6.91-22-6.91,13.52,13.21,23.94,12.9,13.93-6.92,24.56-6S144.8,505,144.8,504.7Z" transform="translate(0 0.21)" fill="#faae29" fill-rule="evenodd"/><path d="M96.19,487.56c-1.34-2.78-4.54-14.76-2.89-16.2,2.69-1,9.6,11.25,9,22.19-4.54,2.48-20-1-19.82-4.23,1-4.54,9.81-3.1,13.73-1.76Z" transform="translate(0 0.21)" fill="#faae29" fill-rule="evenodd"/><path d="M86.8,477.14c-.83-3.1-2.17-15.69-.21-16.72,2.69-.21,7.64,13.62,5.27,24.15-4.85,1.24-19.51-6.4-18.79-9.6,1.76-4.13,10.12-.2,13.73,2.07Z" transform="translate(0 0.21)" fill="#faae29" fill-rule="evenodd"/><path d="M79.27,465.48c-.62-3.2-.83-16,1.13-16.62,2.79.1,6.4,14.66,3.1,24.77-4.85.41-18.68-9.49-17.76-12.38,2.07-3.93,10,1.23,13.42,4.12Z" transform="translate(0 0.21)" fill="#faae29" fill-rule="evenodd"/><path d="M73.28,452.89c-.31-3.2,1-15.8,3.1-16.11,2.68.73,4.54,15.9.2,25.19-5-.62-17.54-13.32-16.2-16,2.58-3.3,9.8,3.41,12.8,6.92Z" transform="translate(0 0.21)" fill="#faae29" fill-rule="evenodd"/><path d="M69.05,439.88c.1-3.3,2.78-15.48,4.85-15.38,2.48,1.24,2.79,16.62-2.58,25-4.75-1.55-15.79-16.51-14.24-19,2.89-2.79,9.28,5.26,12,9.29Z" transform="translate(0 0.21)" fill="#faae29" fill-rule="evenodd"/><path d="M70.18,425c-.31,13-2.68,13.11-7,3.51-1.85-3.61-2.06-18.58-.41-19.2C65.23,409.33,70.08,420,70.18,425Z" transform="translate(0 0.21)" fill="#faae29" fill-rule="evenodd"/><path d="M164.1,488.91c1.24-2.69,4.55-14.76,2.79-16.21-2.68-1-9.6,11.25-9,22.19,4.65,2.48,20.13-1,19.92-4.23-1.13-4.44-9.91-3-13.83-1.75Z" transform="translate(0 0.21)" fill="#faae29" fill-rule="evenodd"/><path d="M173.39,478.48c.83-3.09,2.17-15.69.31-16.72-2.78-.2-7.74,13.73-5.36,24.26,4.85,1.13,19.61-6.51,18.78-9.6C185.37,472.29,177,476.11,173.39,478.48Z" transform="translate(0 0.21)" fill="#faae29" fill-rule="evenodd"/><path d="M181,466.72c.52-3.1.83-15.9-1.24-16.52-2.68.21-6.4,14.76-3.09,24.77,5,.52,18.78-9.49,17.75-12.38C192.38,458.77,184.44,463.93,181,466.72Z" transform="translate(0 0.21)" fill="#faae29" fill-rule="evenodd"/><path d="M187,454.33c.2-3.3-1-15.89-3.1-16.1-2.68.72-4.64,15.79-.21,25.18,4.85-.62,17.45-13.41,16.1-16.1-2.58-3.3-9.7,3.41-12.79,7Z" transform="translate(0 0.21)" fill="#faae29" fill-rule="evenodd"/><path d="M191.14,441.22c-.1-3.2-2.68-15.48-4.74-15.38-2.58,1.24-2.89,16.62,2.47,25,4.86-1.55,15.8-16.51,14.25-18.89-2.89-2.78-9.29,5.16-12,9.29Z" transform="translate(0 0.21)" fill="#faae29" fill-rule="evenodd"/><path d="M190,426.36c.41,13,2.79,13.21,7,3.51,2-3.61,2.17-18.58.41-19.2C195,410.67,190.11,421.41,190,426.36Z" transform="translate(0 0.21)" fill="#faae29" fill-rule="evenodd"/><path d="M186.55,328.92h-8.19v5.49h-7.89v5.49H138.92l-5.35,5.65,2.68,2.82h13.24l2.53-2.82h-13.1l2.53-2.82h18.46L152,351h-18.3l-5.21-2.67L123.15,351H104.7l-7.89-8.31h18.45l2.68,2.82H104.7l2.68,2.82h13.24l2.53-2.82-5.21-5.65h-29v-5.49H81v-5.49H73.15v-25.1H81v-5.49h7.89v-5.65h29l5.21-5.49-2.53-2.82H107.38l-2.68,2.82h13.24l-2.68,2.67H96.81l7.89-8.32h18.6l5.36,2.83,5.2-2.83h18.46l7.89,8.32H141.75l-2.53-2.67h13.1l-2.68-2.82h-13.1l-2.82,2.82,5.35,5.49h31.55v5.65h7.89v5.49h8Z" transform="translate(0 0.21)" fill="#ca3745" stroke="#000" stroke-width="0.1" fill-rule="evenodd"/><path d="M75.79,306.74V326.2h7.89v5.49h7.88v5.49H118l10.57,8.39L139,337.26h29v-5.5l7.88-.07V326.2h8V306.66h-8v-5.49h-7.89v-5.64h-29l-10.49-8.32-10.57,8.32H91.64v5.64H83.75v5.49H75.86Z" transform="translate(0 0.21)" fill="#00843d" stroke="#faae29" fill-rule="evenodd"/><path d="M112.67,298.25l-15.8,13.91V298.25Zm31.59,0,15.9,13.91V298.25Zm-31.59,36.18-15.8-13.92v13.92Zm31.59,0,15.9-13.92v13.92Zm5.3-27.83-5.3,5.56h10.6Zm-42.19,0-5.2,5.56h10.5Zm0,19.48-5.2-5.57h10.5Zm42.19,0-5.3-5.57h10.6Z" transform="translate(0 0.21)" fill="#ca3745" fill-rule="evenodd"/><path d="M128.46,340l-5.3-5.57h10.6Zm0-27.84-5.3-5.56h10.6Zm0-19.48-5.3,5.69h10.6Zm0,27.83-5.3,5.57h10.6Z" transform="translate(0 0.21)" fill="#faae29" fill-rule="evenodd"/><path d="M144.32,312.23H155V315H144.39Z" transform="translate(0 0.21)" fill="#faae29" stroke="#000" stroke-width="0.1" fill-rule="evenodd"/><path d="M104.81,315H110v2.82h-5.21ZM147,315h5.21v2.82H147Z" transform="translate(0 0.21)" fill="#c00" stroke="#000" stroke-width="0.1" fill-rule="evenodd"/><path d="M123.26,298.35h10.49v2.74H123.26Zm0,5.49h10.49v2.82H123.26Z" transform="translate(0 0.21)" fill="#900" stroke="#000" stroke-width="0.1" fill-rule="evenodd"/><path d="M120.58,301.09h15.85v2.83H120.58Zm2.68,25.11h10.49v2.66H123.26Zm0,5.49h10.49v2.74H123.26Zm-2.68-2.75h15.85v2.75H120.58Z" transform="translate(0 0.21)" fill="#900" stroke="#000" stroke-width="0.1" fill-rule="evenodd"/><path d="M144.32,317.8H155v2.75H144.39Zm-42.19-5.57H112.7V315H102.13Zm0,5.49H112.7v2.83H102.13ZM99.53,315h5.2v2.82h-5.2Zm10.56,0h5.21v2.82h-5.21Zm31.63,0h5.2v2.82h-5.2Zm10.56,0h5.21v2.82h-5.21Z" transform="translate(0 0.21)" fill="#faae29" stroke="#000" stroke-width="0.1" fill-rule="evenodd"/><ellipse cx="122.04" cy="330.39" rx="0.67" ry="0.71" fill="#fff"/><ellipse cx="128.54" cy="330.39" rx="0.67" ry="0.71" fill="#fff"/><ellipse cx="135.13" cy="330.39" rx="0.67" ry="0.71" fill="#fff"/><ellipse cx="124.64" cy="327.73" rx="0.67" ry="0.71" fill="#fff"/><ellipse cx="132.43" cy="327.73" rx="0.67" ry="0.71" fill="#fff"/><ellipse cx="124.54" cy="333.17" rx="0.67" ry="0.71" fill="#fff"/><ellipse cx="132.43" cy="333.3" rx="0.67" ry="0.71" fill="#fff"/><ellipse cx="142.93" cy="316.47" rx="0.67" ry="0.71" fill="#fff"/><ellipse cx="149.53" cy="316.47" rx="0.67" ry="0.71" fill="#fff"/><ellipse cx="156.13" cy="316.47" rx="0.67" ry="0.71" fill="#fff"/><ellipse cx="145.63" cy="313.69" rx="0.67" ry="0.71" fill="#fff"/><ellipse cx="153.43" cy="313.69" rx="0.67" ry="0.71" fill="#fff"/><ellipse cx="145.53" cy="319.13" rx="0.67" ry="0.71" fill="#fff"/><ellipse cx="153.43" cy="319.25" rx="0.67" ry="0.71" fill="#fff"/><ellipse cx="121.94" cy="302.68" rx="0.67" ry="0.71" fill="#fff"/><ellipse cx="128.54" cy="302.68" rx="0.67" ry="0.71" fill="#fff"/><ellipse cx="135.13" cy="302.55" rx="0.67" ry="0.71" fill="#fff"/><ellipse cx="124.54" cy="299.9" rx="0.67" ry="0.71" fill="#fff"/><ellipse cx="132.43" cy="299.9" rx="0.67" ry="0.71" fill="#fff"/><ellipse cx="124.54" cy="305.34" rx="0.67" ry="0.71" fill="#fff"/><ellipse cx="132.43" cy="305.46" rx="0.67" ry="0.71" fill="#fff"/><ellipse cx="100.84" cy="316.72" rx="0.67" ry="0.71" fill="#fff"/><ellipse cx="107.44" cy="316.72" rx="0.67" ry="0.71" fill="#fff"/><ellipse cx="114.04" cy="316.6" rx="0.67" ry="0.71" fill="#fff"/><ellipse cx="103.54" cy="313.94" rx="0.67" ry="0.71" fill="#fff"/><ellipse cx="111.34" cy="313.94" rx="0.67" ry="0.71" fill="#fff"/><ellipse cx="103.44" cy="319.38" rx="0.67" ry="0.71" fill="#fff"/><ellipse cx="111.34" cy="319.51" rx="0.67" ry="0.71" fill="#fff"/><path d="M138.92,255.75l4.54-2.06,4.54,2.06Zm-13.62,0,4.54-2.06,4.54,2.06Zm-13.63,0,4.54-2.06,4.55,2.06Zm27.25-48.92,4.54,2.17,4.54-2.06h-9.08Zm-13.62,0,4.54,2.17,4.54-2.06H125.3Zm-13.63,0,4.54,2.17,4.55-2.06h-9.09Z" transform="translate(0 0.21)" fill="#fff" fill-rule="evenodd"/><path d="M135.21,262.15l-5.37,4.24-5.27-4.24-5.36,4.24-5.16-4.24v2.07l3.4,2.17-1.75,2.06v2.17h1.75l1.76-2.07,1.75,2.07h1.76v-2.07L121,266.39l3.61-2.07,3.51,2.07-1.75,2.06v2.17h1.75l1.76-2.07,1.75,2.07h1.76v-2.07l-1.76-2.16,3.51-2.07,3.51,2.07-1.75,2.06v2.17h1.75l1.76-2.07,1.75,2.07h1.75v-2.07l-1.75-2.16,3.61-2.07v-2.17l-5.36,4.13-5.16-4.23Zm0-61.61-5.37-4.34-5.27,4.34-5.36-4.34-5.16,4.34v-2.17l3.4-2.06-1.75-2.17v-2.07h1.75l1.76,2.07,1.75-2.07h1.86v2.07l-1.75,2.06,3.5,2.17,3.51-2.06-1.75-2.17v-2.07h1.75l1.76,2.07,1.75-2.07h1.76v2.07l-1.76,2.06,3.51,2.17,3.51-2.06-1.75-2.17v-2.07h1.75l1.76,2.07,1.75-2.07H144v2.07l-1.76,2.06,3.51,2.17v2.06l-5.36-4.12-5.16,4.12Zm39.94,35.4,5.67-4.65-5.67-4.54,5.67-4.64-5.67-4.65H178l2.78,3.1,2.89-1.55h2.79v1.55l-2.79,1.55,2.79,1.55v1.54h-2.79l-2.89-1.54L178,226.75l2.78,3.1,2.89-1.65h2.79v1.55l-2.79,1.54,2.79,1.55v1.55h-2.79l-2.89-1.55-2.78,3.1,2.78,3.09,2.89-1.54h2.79V239l-2.79,1.45L186.5,242v1.55h-2.79L180.82,242,178,245.12h-2.89l5.67-4.64Zm-90.72,0-5.68-4.65,5.68-4.54-5.68-4.64,5.68-4.65H81.64l-2.89,3.1L76,219H73.18v1.55L76,222.11l-2.78,1.55v1.54H76l2.89-1.54,2.79,3.09-2.89,3.1L76,228.2H73.18v1.55L76,231.29l-2.78,1.55v1.55H76l2.89-1.55,2.79,3.1L78.75,239,76,237.49H73.18V239L76,240.48,73.18,242v1.55H76L78.85,242l2.79,3.09h2.79l-5.68-4.64Z" transform="translate(0 0.21)" fill="#00843d" fill-rule="evenodd"/><path d="M177.43,251.5h2.31v2h-2.31Zm-2.3,2h2.3v2.16h-2.17Zm-11.26,10.67h2.3v2.16h-2.3Zm2.3-2.16h2.18v2.16h-2.18Zm-74.87,0h2.31v2.16H91.18ZM79.91,251.5h2.31v2H79.91Zm2.31,2h2.3v2.16h-2.3Zm0-46.78h2.3v2.16h-2.3Zm-2.31,2.16h2.31v2.15H79.91Zm13.7-12.72h2.17v2.16h-2Zm-2.31,2.16h2.31v2.16H91.18Zm72.57-2.16h2.3v2.16h-2.3Zm2.3,2.16h2.18v2.16h-2.18Zm9,8.4h2.3v2.16h-2.17Zm2.3,2.28h2.31v2h-2.31ZM93.74,264.21h2.17v2.16H93.74Z" transform="translate(0 0.21)" fill="#00843d" stroke="#000" stroke-width="0.3" fill-rule="evenodd"/><path d="M122.82,231.29h-6.61v-4.12h4.44v-3.93h4.44v-3.61h4.54v4.44a6.89,6.89,0,0,0-6.71,7.22Z" transform="translate(0 0.21)" fill="#fff" fill-rule="evenodd"/><path d="M136.24,231.29H143v-4.12h-4.44v-3.93h-4.44v-3.61h-4.44v4.44c3.61,0,6.61,3.1,6.61,7.22Z" transform="translate(0 0.21)" fill="#faae29" fill-rule="evenodd"/><path d="M136.24,231.29H143v4.13h-4.44v4h-4.44V243h-4.44v-4.44c3.61,0,6.61-3.1,6.61-7.23Z" transform="translate(0 0.21)" fill="#fff" fill-rule="evenodd"/><path d="M122.82,231.29h-6.61v4.13h4.44v4h4.44V243h4.54v-4.44c-3.71,0-6.71-3.1-6.71-7.23Z" transform="translate(0 0.21)" fill="#faae29" fill-rule="evenodd"/><path d="M136.24,231.29h-6.61v-7.22C133.24,224.07,136.24,227.37,136.24,231.29Z" transform="translate(0 0.21)" fill="#00843d" fill-rule="evenodd"/><path d="M136.24,231.29h-6.61v7.23C133.24,238.52,136.24,235.32,136.24,231.29Z" transform="translate(0 0.21)" fill="#ca3745" fill-rule="evenodd"/><path d="M122.82,231.29h6.81v7.23a7,7,0,0,1-6.71-7.23Z" transform="translate(0 0.21)" fill="#00843d" fill-rule="evenodd"/><path d="M122.82,231.29h6.81v-7.22a7,7,0,0,0-6.71,7.22Z" transform="translate(0 0.21)" fill="#ca3745" fill-rule="evenodd"/><path d="M136.65,257.82l-6.81-4.13L123,257.82l-6.82-4.13-6.81,4.13v-2.07l4.54-2.06-2.27-2.17v-2.06h2.27l2.27,2.06,2.28-2.06h2.27v2.06l-2.27,2.07,4.54,2.16,4.54-2.06-2.27-2.17v-2.06h2.27l2.27,2.06,2.27-2.06h2.27v2.06l-2.27,2.07,4.54,2.16,4.54-2.06-2.27-2.17v-2.06h2.27l2.27,2.06,2.27-2.06H148v2.06l-2.27,2.07,4.54,2.16v2.07l-6.81-4.13-6.81,4.13Zm0-53L129.84,209,123,204.77,116.21,209l-6.81-4.23v2.06l4.54,2.17-2.27,2.06v2.17h2.27l2.27-2.06,2.28,2.06h2.27v-2.06l-2.27-2.07,4.54-2.27,4.54,2.17-2.27,2.06v2.17h2.27l2.27-2.06,2.27,2.06h2.27v-2.06l-2.27-2.07,4.54-2.27,4.54,2.17-2.27,2.06v2.17h2.27l2.27-2.06,2.27,2.06H148v-2.06l-2.27-2.07,4.54-2.27v-2.06L143.46,209l-6.81-4.23Zm24.87,31.89-3.4-5.37,3.4-5.26-3.4-5.37,3.4-5.26H160l-1.76,3.51-1.65-1.76h-1.76v1.76l1.76,1.75-1.76,1.76v1.75h1.76l1.65-1.75L160,226l-1.76,3.51-1.65-1.76h-1.76v1.76l1.76,1.75-1.76,1.76v1.86h1.76l1.65-1.86,1.76,3.61-1.76,3.51-1.65-1.75h-1.76v1.75l1.76,1.75-1.76,1.76v1.86h1.76l1.65-1.86,1.76,3.61h1.65l-3.41-5.37,3.41-5.26Z" transform="translate(0 0.21)" fill="#00843d" fill-rule="evenodd"/><path d="M109.36,206.88l-9,8.39v31.91l9,8.52h41l9-8.4V215.39l-9.08-8.51Zm-2.3-6.48L84.41,221.75v19.19l22.78,21.11h45.3l22.65-21.23V221.63L152.49,200.4H107.06Z" transform="translate(0 0.21)" fill="#00843d" stroke="#000" stroke-width="0.4" fill-rule="evenodd"/><path d="M119,257.92l3.58,4.32,3.69-4.32H119Z" transform="translate(0 0.21)" fill="#faae29" stroke="#000" stroke-width="0.3" fill-rule="evenodd"/><path d="M119,204.77l3.58-4.32,3.69,4.32H119Z" transform="translate(0 0.21)" fill="#faae29" stroke="#000" stroke-width="0.3" fill-rule="evenodd"/><path d="M133.4,204.77l3.58-4.32,3.69,4.32H133.4Z" transform="translate(0 0.21)" fill="#faae29" stroke="#000" stroke-width="0.3" fill-rule="evenodd"/><path d="M133.4,257.92l3.58,4.32,3.69-4.32H133.4Z" transform="translate(0 0.21)" fill="#faae29" stroke="#000" stroke-width="0.3" fill-rule="evenodd"/><path d="M111.73,204.77l3.58-4.32,3.69,4.32h-7.27Z" transform="translate(0 0.21)" fill="#ca3745" stroke="#000" stroke-width="0.3" fill-rule="evenodd"/><path d="M126.18,204.77l3.58-4.32,3.68,4.32h-7.26Z" transform="translate(0 0.21)" fill="#ca3745" stroke="#000" stroke-width="0.3" fill-rule="evenodd"/><path d="M140.73,204.77l3.58-4.32,3.69,4.32h-7.27Z" transform="translate(0 0.21)" fill="#ca3745" stroke="#000" stroke-width="0.3" fill-rule="evenodd"/><path d="M102.63,251.53l6.72,6.29h-6.72Z" transform="translate(0 0.21)" fill="#ca3745" stroke="#000" stroke-width="0.3" fill-rule="evenodd"/><path d="M98.05,236.66l3.41-5.37L98.05,226l3.41-5.37-3.41-5.26H99.8l1.66,3.51,1.75-1.76h1.65v1.76l-1.65,1.75,1.65,1.76v1.86h-1.65l-1.75-1.86L99.8,226l1.66,3.51,1.75-1.76h1.65v1.76l-1.65,1.75,1.65,1.76v1.86h-1.65l-1.75-1.86-1.66,3.61,1.66,3.51,1.75-1.75h1.65v1.75l-1.65,1.75,1.65,1.76v1.86h-1.65l-1.75-1.86-1.66,3.61H98.05l3.41-5.37-3.41-5.26Z" transform="translate(0 0.21)" fill="#00843d" fill-rule="evenodd"/><path d="M163.81,225.5h9.08l2.31,1.95-2.31,1.94h-9v-4Z" transform="translate(0 0.21)" fill="#ca3745" stroke="#000" stroke-width="0.3" fill-rule="evenodd"/><path d="M102.58,211.07,98,215.39v31.79l4.6,4.32H95.8V211.07Z" transform="translate(0 0.21)" fill="#ca3745" stroke="#000" stroke-width="0.4" fill-rule="evenodd"/><path d="M111.73,257.92l3.58,4.32,3.69-4.32h-7.27Z" transform="translate(0 0.21)" fill="#ca3745" stroke="#000" stroke-width="0.3" fill-rule="evenodd"/><path d="M126.18,257.92l3.58,4.32,3.68-4.32h-7.26Z" transform="translate(0 0.21)" fill="#ca3745" stroke="#000" stroke-width="0.3" fill-rule="evenodd"/><path d="M140.73,257.92l3.58,4.32,3.69-4.32h-7.27Z" transform="translate(0 0.21)" fill="#ca3745" stroke="#000" stroke-width="0.3" fill-rule="evenodd"/><path d="M157,211.07l4.61,4.32v31.79L157,251.5h6.78V211.07Z" transform="translate(0 0.21)" fill="#ca3745" stroke="#000" stroke-width="0.4" fill-rule="evenodd"/><path d="M156.94,251.53l-6.72,6.29h6.72Z" transform="translate(0 0.21)" fill="#ca3745" stroke="#000" stroke-width="0.3" fill-rule="evenodd"/><path d="M156.94,211.06l-6.72-6.3h6.72Z" transform="translate(0 0.21)" fill="#ca3745" stroke="#000" stroke-width="0.3" fill-rule="evenodd"/><path d="M102.63,211.06l6.72-6.3h-6.72Z" transform="translate(0 0.21)" fill="#ca3745" stroke="#000" stroke-width="0.3" fill-rule="evenodd"/><path d="M109.36,206.88l-9,8.39v31.91l9,8.52h41l9-8.4V215.39l-9.08-8.51Zm0-2.16L98.1,215.27v31.91l11.26,10.68h41l11.26-10.68V215.27l-11.39-10.55Z" transform="translate(0 0.21)" fill="#00843d" stroke="#000" stroke-width="0.4" fill-rule="evenodd"/><path d="M163.81,229.33h9.08l2.31,1.95-2.31,1.94h-9v-4Z" transform="translate(0 0.21)" fill="#faae29" stroke="#000" stroke-width="0.3" fill-rule="evenodd"/><path d="M163.81,233.24h9.08l2.31,1.95-2.31,1.94h-9v-4Z" transform="translate(0 0.21)" fill="#ca3745" stroke="#000" stroke-width="0.3" fill-rule="evenodd"/><path d="M163.81,237h9.08l2.31,1.94-2.31,2h-9v-4Z" transform="translate(0 0.21)" fill="#faae29" stroke="#000" stroke-width="0.3" fill-rule="evenodd"/><path d="M163.81,221.69h9.08l2.31,1.95-2.31,1.94h-9v-4Z" transform="translate(0 0.21)" fill="#faae29" stroke="#000" stroke-width="0.3" fill-rule="evenodd"/><path d="M95.87,225.5H86.78l-2.3,1.95,2.3,1.94h9v-4Z" transform="translate(0 0.21)" fill="#ca3745" stroke="#000" stroke-width="0.3" fill-rule="evenodd"/><path d="M95.87,229.33H86.78l-2.3,1.95,2.3,1.94h9v-4Z" transform="translate(0 0.21)" fill="#faae29" stroke="#000" stroke-width="0.3" fill-rule="evenodd"/><path d="M95.87,233.24H86.78l-2.3,1.95,2.3,1.94h9v-4Z" transform="translate(0 0.21)" fill="#ca3745" stroke="#000" stroke-width="0.3" fill-rule="evenodd"/><path d="M95.87,237.07H86.78l-2.3,2,2.3,1.94h9v-4Z" transform="translate(0 0.21)" fill="#faae29" stroke="#000" stroke-width="0.3" fill-rule="evenodd"/><path d="M95.87,221.69H86.78l-2.3,1.95,2.3,1.94h9v-4Z" transform="translate(0 0.21)" fill="#faae29" stroke="#000" stroke-width="0.3" fill-rule="evenodd"/><path d="M82.22,209v44.38H93.61v10.67h72.56V253.42h11.26V209H166.17V198.48H93.61V209Zm2.3,2V251.5H95.78v10.55h68.09V251.5h11.39V211.07H163.87V200.64H95.78v10.55H84.52Z" transform="translate(0 0.21)" fill="#970000" stroke="#000" stroke-width="0.3" fill-rule="evenodd"/><path d="M186.48,43.07l-6.78-8.19V28.76l-6.78-6.11H159.35L148,16.54H111.74l-11.39,6.11H86.79L80,28.76v6.12L73.22,43V59.44L80,67.52v6.23l6.79,6.11h13.56L111.74,86H148l11.39-6.11h13.57l6.91-6.11V67.63l6.78-8.19V43Z" transform="translate(0 0.21)" fill="#ca3745" stroke="#000" stroke-width="0.3" fill-rule="evenodd"/><path d="M75.34,51.19v6.19l6.92,8.16v6.19l6.81,6.09h13.52l11.35,6.09h15.9V51.19H75.34Z" transform="translate(0 0.21)" fill="#faae29" fill-rule="evenodd"/><path d="M110.74,65.54l-8.25,5.16H97.43l1.65,1.86-3.3,3.51,1.65,1.75,4.95-1.75L104,77.82l.82-4.75,9.08-5.57-3.3-2.06Z" transform="translate(0 0.21)" fill="#ca3745" fill-rule="evenodd"/><path d="M101.66,61.41l-8.25,5.26H88.35L90,68.43l-3.3,3.51,1.65,1.75,5-1.75L95,73.69l.83-4.75,9.08-5.47Zm-4.54-8.26-8.26,5.37h-5l1.65,1.75-3.3,3.51,1.65,1.76,5-1.76,1.65,1.76.83-4.75,9.08-5.47-3.2-2.06Z" transform="translate(0 0.21)" fill="#ca3745" fill-rule="evenodd"/><path d="M184.23,51.19V45l-6.81-8V30.76l-6.81-6.2H157l-11.35-6.09H129.84V51.19Z" transform="translate(0 0.21)" fill="#faae29" fill-rule="evenodd"/><path d="M129.84,83.91h-4.13l-4.95-4.13H113l-4.12-2.06L111,75.65l4.13,2.07h4.23l4.13-6.09,6.4,2.06v4.13h-6.3l6.19,6.09Z" transform="translate(0 0.21)" fill="#ca3745" fill-rule="evenodd"/><path d="M75.34,51.19V45l6.92-8V30.76l6.81-6.2h13.52l11.35-6.09h15.9V51.19H75.34Z" transform="translate(0 0.21)" fill="#fff" fill-rule="evenodd"/><path d="M129.84,18.58h-4.13l-4.95,4H113l-4.12,2.07L111,26.73l4.13-2.06h4.23l4.13,6.09,6.4-2.07V24.56h-6.3l6.19-6.09Zm0,0H134l4.95,4h7.74l4.13,2.07-2.06,2.06-4.13-2.06h-4.23l-4.24,6.09-6.29-2.07V24.56H136l-6.19-6.09Z" transform="translate(0 0.21)" fill="#ca3745" fill-rule="evenodd"/><path d="M184.23,51.19v6.19l-6.81,8.16v6.19l-6.81,6.09H157l-11.35,6.09H129.84V51.19Z" transform="translate(0 0.21)" fill="#fff" fill-rule="evenodd"/><path d="M129.84,83.91H134l4.95-4.13h7.74l4.13-2.06-2.06-2.07-4.13,2.07h-4.23l-4.24-6.09-6.29,2.06v4.13H136l-6.19,6.09ZM101.66,41l-8.25-5.16H88.35L90,34l-3.3-3.51,1.65-1.76,5,1.76L95,28.69l.83,4.75,9.08,5.47Zm47.27-4.12,8.26-5.16h4.95l-1.55-1.86,3.31-3.41-1.76-1.75-4.85,1.75-1.75-1.75-.72,4.64-9.09,5.57,3.2,2.07Z" transform="translate(0 0.21)" fill="#ca3745" fill-rule="evenodd"/><path d="M110.74,37l-8.25-5.26H97.43l1.65-1.86-3.3-3.41,1.65-1.75,4.95,1.75L104,24.67l.82,4.64,9.08,5.57L110.64,37ZM97,49l-8.26-5.16H83.7L85.35,42l-3.3-3.51,1.65-1.76,5,1.76,1.65-1.76.82,4.75L100.22,47Z" transform="translate(0 0.21)" fill="#ca3745" fill-rule="evenodd"/><path d="M79.47,51.19h2.07l2.06,2.07,2.06-2.07h44.18V79.78h-2.07l2.07,2.07v2.06l-6.3-6.19V75.65h2.07v2.07h2.06V75.65l-16.93-9H96.29V57.9L90,53.26H85.66L83.6,55.32l2.06,2.06H83.6l-4.23-6.19Z" transform="translate(0 0.21)" fill="#fff" fill-rule="evenodd"/><path d="M79.47,51.19h2.07l2.06-2.06,2.06,2.06h44.18V22.6h-2.07l2.07-2.06V18.47l-6.3,6.2v2.06h2.07V24.67h2.06v2.06l-16.93,9H96.29v8.88L90,49.13H85.66L83.6,47.06,85.66,45H83.6l-4.23,6.19Z" transform="translate(0 0.21)" fill="#faae29" fill-rule="evenodd"/><path d="M89.07,51.19h40.77V75.76L111.67,65.44H98.05V57.28Z" transform="translate(0 0.21)" fill="#00843d" fill-rule="evenodd"/><path d="M158,41l8.26-5.16h5L169.57,34l3.31-3.51-1.65-1.76-5,1.76-1.65-1.76-.72,4.75-9.09,5.47L158,41Zm4.55,8.26,8.25-5.37h5l-1.65-1.75,3.3-3.51-1.65-1.75-5,1.75-1.65-1.75-.72,4.74-9.08,5.47,3.2,2.07Z" transform="translate(0 0.21)" fill="#ca3745" fill-rule="evenodd"/><path d="M180.2,51.19h-2.06l-2.06-2.06-2.17,2.06H129.84V22.6h2.06l-2.06-2.06V18.47l6.19,6.2v2.06H134V24.67H131.9v2.06l17,9h14.45v8.88l6.3,4.54h4.13L176,47.06,173.91,45H176l4.13,6.19Z" transform="translate(0 0.21)" fill="#fff" fill-rule="evenodd"/><path d="M170.61,51.19H129.84V26.83L148,37.05h13.52v8.16l9.09,6.19Z" transform="translate(0 0.21)" fill="#00843d" fill-rule="evenodd"/><path d="M148.93,65.54l8.26,5.16h5.06l-1.66,1.86,3.31,3.51-1.65,1.75-5-1.75-1.65,1.75-.83-4.75-9.08-5.57,3.2-2.06Z" transform="translate(0 0.21)" fill="#ca3745" fill-rule="evenodd"/><path d="M158,61.41l8.26,5.26h5l-1.66,1.76,3.31,3.51-1.65,1.75-5-1.75-1.65,1.75-.72-4.75-9.09-5.47,3.2-2.06Zm4.55-8.26,8.25,5.37h5l-1.65,1.75,3.3,3.51-1.65,1.76-5-1.76-1.65,1.76-.72-4.75-9.08-5.47,3.2-2.06Z" transform="translate(0 0.21)" fill="#ca3745" fill-rule="evenodd"/><path d="M180.2,51.19h-2.06l-2.06,2.07-2.17-2.07H129.84V79.78h2.06l-2.06,2.07v2.06L136,77.72V75.65H134v2.07H131.9V75.65l17-9h14.45V57.9l6.3-4.64h4.13L176,55.32l-2.06,2.06H176l4.13-6.19Z" transform="translate(0 0.21)" fill="#faae29" fill-rule="evenodd"/><path d="M170.61,51.19H129.84V75.76L148,65.44h13.52V57.28l9.09-6.09Zm-81.54,0h40.77V26.83L111.67,37.05H98.05v8.16l-9,6.19Z" transform="translate(0 0.21)" fill="#ca3745" fill-rule="evenodd"/><path d="M134.28,51.19,145.63,45h6.91l-2.27-2.06,4.54-4-2.37-2.06-6.71,2.06-2.27-2.06-1,5.47-12.59,6.5Zm-8.88,0-11.35,6.19h-6.92l2.27,2.07-4.54,4,2.27,2.07,6.81-2.07,2.27,2.07,1-5.47,12.59-6.5-4.54-2.38Z" transform="translate(0 0.21)" fill="#ca3745" fill-rule="evenodd"/><path d="M125.4,51.19,114.05,45h-6.92l2.27-2.06-4.54-4,2.27-2.06,6.81,2.06,2.27-2.06,1,5.47,12.59,6.5-4.54,2.37Zm8.88,0,11.35,6.19h6.91l-2.27,2.07,4.54,4-2.37,2.07-6.71-2.07-2.27,2.07-1-5.47-12.59-6.5Z" transform="translate(0 0.21)" fill="#00843d" fill-rule="evenodd"/><path d="M116.21,51.19,129.84,41l13.62,10.22L129.84,61.41Z" transform="translate(0 0.21)" fill="#fff" fill-rule="evenodd"/><path d="M85.66,55.32l2.17,2.06-2.06,2.07H83.7l-6.4-8.26h2.07l4.23,6.19h2.06L83.6,55.32l2.06-2.06H89.9v2.06H85.66Zm0-8.26L87.83,45l-2.06-2.06H83.7l-6.4,8.25h2.07L83.6,45h2.06L83.6,47.06l2.06,2.07H89.9V47.06H85.66Zm88.25,8.26-2.07,2.06,2.07,2.07H176l6.3-8.26H180.2l-4.12,6.19h-2.17L176,55.32l-2.06-2.06h-4.13v2.06Zm0-8.26L171.84,45l2.07-2.06H176l6.3,8.25H180.2L176.08,45h-2.17L176,47.06l-2.06,2.07h-4.13V47.06Zm-46.24-4.12h4.23V59.45h-4.13Z" transform="translate(0 0.21)" fill="#ca3745" fill-rule="evenodd"/><path d="M121.48,47.06H138.2v8.26H121.48Z" transform="translate(0 0.21)" fill="#ca3745" fill-rule="evenodd"/><path d="M110.63,361.79,72.94,382.57v33.85l38,20.77h37.68l37.69-20.77V382.57l-37.69-20.39H111Z" transform="translate(0 0.21)" fill="#00843d" stroke="#000" stroke-width="0.1" fill-rule="evenodd"/><path d="M87.21,396.33h2.27v-4.24h4.44v4.13h2.27v-9.7H93.92v4.13H89.38v-4.13H87.11v9.7ZM145,428.84h2.37v-4.13h4.55v4.13h2.27V419h-2.27v4.23h-4.55v-4.12h-2.27v9.7ZM108.47,380h2.27v-4.34h4.65v4.13h2.27v-9.7h-2.27v4.13h-4.54v-4.13h-2.48v9.81ZM142,380h2.27v-4.34h4.54v4.13h2.37v-9.7h-2.37v4.13h-4.54v-4.13H142V380Zm21.36,16.2h2.27v-4.13h4.54v4.13h2.27v-9.7H170.3v4.13h-4.54v-4.13h-2.28v9.7Zm0,16.31h2.27V408.4h4.54v4.13h2.27v-9.7H170.3V407h-4.54v-4.13h-2.28v9.7Z" transform="translate(0 0.21)" fill="#c00" fill-rule="evenodd"/><path d="M129.84,435.44v-36h54.8v16.31l-36.53,19.61H129.84Zm0-71.73v35.71H74.93v-16.3l36.64-19.61h18.27Z" transform="translate(0 0.21)" fill="#faae29" fill-rule="evenodd"/><path d="M129.84,363.71v35.71h54.8v-16.3l-36.53-19.61H129.84Zm0,71.73v-36H74.93v16.31l36.64,19.61h18.27Z" transform="translate(0 0.21)" fill="#fff" fill-rule="evenodd"/><path d="M159.05,384.92h22l-22-9.76Zm25.59-1.66v16.28H150v-13h-7.32l-9.19-4.87V370.29l5.57-5H131.7V381.7h-1.86V363.76h18.27l36.53,19.5Z" transform="translate(0 0.21)" fill="#faae29" stroke="#000" stroke-width="0.1" fill-rule="evenodd"/><path d="M111.47,388.07V411H117l12.8,6.5,12.8-6.5h5.47V388.07h-5.47l-12.8-6.61L117,388.07Z" transform="translate(0 0.21)" fill="#ca3745" fill-rule="evenodd"/><path d="M100.63,414.24h-22l22,9.75ZM75,415.9V399.61h34.68v13H117l9.19,4.88v11.41l-5.58,5H128V417.46h1.86V435.4H111.57L75,415.9Z" transform="translate(0 0.21)" fill="#faae29" stroke="#000" stroke-width="0.1" fill-rule="evenodd"/><path d="M100.63,384.92h-22l22-9.76ZM75,383.26v16.28h34.68v-13H117l9.19-4.87V370.29l-5.58-5H128V381.7h1.86V363.76H111.57L75,383.26Z" transform="translate(0 0.21)" fill="#fff" stroke="#000" stroke-width="0.1" fill-rule="evenodd"/><path d="M159.05,414.24h22l-22,9.75Zm25.59,1.66V399.61H150v13h-7.32l-9.19,4.88v11.41l5.57,5H131.7V417.46h-1.86V435.4h18.27l36.53-19.5Z" transform="translate(0 0.21)" fill="#fff" stroke="#000" stroke-width="0.1" fill-rule="evenodd"/><path d="M86,412.63h2.27v-4.95h4.55v4.85h2.27V401.18H92.89V406H88.35v-4.85H86.08v11.35Zm21.88,16.21h2.28V424h4.64v4.85H117V417.48h-2.27v4.86h-4.64v-4.86h-2.28ZM86,386.52h2.27v4.85h4.55v-4.85h2.27v11.35H92.89V393H88.35v4.85H86.08V386.52Zm21.88-16.31h2.28v4.86h4.64v-4.86H117v11.36h-2.27v-4.85h-4.64v4.85h-2.28Zm34.79,58.63h2.27V424h4.54v4.85h2.37V417.48h-2.37v4.86h-4.54v-4.86h-2.27Zm22-31h2.27V393h4.54v4.85h2.27V386.52h-2.27v4.85h-4.54v-4.85h-2.27Z" transform="translate(0 0.21)" fill="#ca3745" fill-rule="evenodd"/><path d="M142.64,428.84h2.27V424h4.54v4.85h2.37V417.48h-2.37v4.86h-4.54v-4.86h-2.27Z" transform="translate(0 0.21)" fill="#ca3745" fill-rule="evenodd"/><path d="M142.64,428.84h2.27V424h4.54v4.85h2.37V417.48h-2.37v4.86h-4.54v-4.86h-2.27Zm22-16.31h2.27v-4.85h4.54v4.85h2.27V401.18h-2.27V406h-4.54v-4.85h-2.27Zm-22-31h2.27v-4.85h4.54v4.85h2.37V370.21h-2.37v4.86h-4.54v-4.86h-2.27Z" transform="translate(0 0.21)" fill="#ca3745" fill-rule="evenodd"/><path d="M131.7,399.53l7.22-6h3.72v3.1H139v1.44h5.47v-6H139v-4.43H131.7v4.43h1.75v-3h3.72v3.1l-7.33,5.88-7.23-6v-3h3.51v3.1H128v-4.54h-7.22v4.43h-5.58v6h5.47v-1.55H117v-2.89h3.61l7.33,5.89-7.22,6H117v-3.09h3.61V401h-5.47v6h5.47v4.44H128V407h-1.86v3h-3.61v-3l7.22-6,7.44,6v3h-3.72v-3H131.7v4.44h7.22V407h5.57v-6h-5.57v1.55h3.72v3H139l-7.32-6Z" transform="translate(0 0.21)" fill="#fff" fill-rule="evenodd"/><path d="M78.54,146.87l3.51-3.64h21.26l15.9-16h21.26l15.89,16.1h21.26l3.51,3.54-3.51,3.55H156.26l-15.89,16.1H119.1l-15.79-16.1H82l-3.51-3.55Z" transform="translate(0 0.21)" fill="#ca3745" fill-rule="evenodd"/><path d="M80.35,147.17l1.92-1.75h21.91l16.43-16.9h18.26l16.52,17H177.3l1.83,1.74-1.83,1.66H155.39l-14.7,15.25H118.78l-14.6-15.25h-22Z" transform="translate(0 0.21)" fill="#ca3745" stroke="#000" stroke-width="0.3" fill-rule="evenodd"/><path d="M138.71,148.7l7,7.09-3.51,3.54-1.85-1.72h-1.66v1.72l1.76,1.82h3.61l3.51-3.54V154l-7.12-7.1,7.12-7.18v-3.55l-3.51-3.54h-3.61l-1.76,1.72v1.82h1.76l1.86-1.82,3.51,3.64-7.13,7.09-7-7.09,7-7.19V129H137l-7,7.19L122.82,129h-1.75v1.82l7,7.19-7,7.09L113.94,138l3.62-3.64,1.75,1.82h1.76v-1.82l-1.76-1.72H115.7l-3.51,3.54v3.55l7.12,7.18-7.12,7.1v3.64l3.51,3.54h3.61l1.76-1.82v-1.72h-2l-1.75,1.72-3.61-3.54,7.12-7.09,7,7.09-7,7.19v1.72h1.75l7.12-7.09,7,7.09h1.76V163l-7-7.19,7-7.09Zm-8.87-9-7.12,7.18,7.12,7.1,7-7.1Zm-10.63,26.83V180.9L121,179l1.76,1.92,1.75-1.92,1.76,1.92,1.85-1.92,1.76,1.92,1.75-1.92,1.76,1.92L135.1,179l1.76,1.92,1.75-1.92,1.86,1.92V166.52H119.21Zm21.26-39.29V112.85l-1.86,1.92-1.75-1.92-1.76,1.92-1.75-1.92-1.76,1.92-1.75-1.92L128,114.77l-1.75-1.92-1.76,1.92-1.75-1.92L121,114.77l-1.75-1.92v14.38Zm29.93,16.1V129l-1.65,1.92L167,129l-1.75,1.92L163.38,129l-1.75,1.92L159.87,129l-1.75,1.92L156.36,129v14.38h14Zm-67.09,0V129l-1.85,1.92L99.7,129,98,130.87,96.19,129l-1.75,1.92L92.68,129l-1.86,1.92L89.07,129v14.38h14.24Zm67.19,7.09V164.8l-1.75-1.92L167,164.8l-1.75-1.92-1.86,1.92-1.75-1.92-1.76,1.92-1.75-1.92-1.76,1.92V150.42Zm-67.29,0V164.8l-1.75-1.92L99.7,164.8,98,162.88l-1.76,1.92-1.75-1.92-1.76,1.92-1.86-1.92-1.75,1.92V150.42Z" transform="translate(0 0.21)" fill="#faae29" fill-rule="evenodd"/><path d="M140.37,166.52v8.91l1.85-1.82,1.76,1.92,1.75-1.92,1.76,1.92,1.75-1.92,1.76,1.92,1.85-1.92,1.76,1.92,1.75-1.92V150.42Zm-21.16,0v8.91l-1.86-1.82-1.75,1.92-1.76-1.92-1.75,1.92-1.76-1.92-1.75,1.92-1.76-1.92-1.75,1.92-1.86-1.92V150.42l16,16.1Zm0-39.29v-8.91L117.35,120l-1.75-1.72L113.84,120l-1.75-1.72L110.33,120l-1.75-1.72L106.82,120l-1.75-1.72L103.21,120v23.29l16-16.1Zm21.16,0v-8.91l1.85,1.72,1.76-1.72,1.75,1.72,1.76-1.72,1.75,1.72,1.76-1.72,1.75,1.72,1.86-1.72,1.75,1.72v23.29Zm-51.3,33.92-1.75-1.82-1.76,1.92-1.75-1.92-1.76,1.92-1.75-1.92-1.86,1.92-1.75-1.92-1.76,1.92V132.5l1.76,1.92,1.75-1.92,1.86,1.92,1.75-1.92,1.76,1.92,1.75-1.92,1.76,1.92,1.75-1.92v10.83h-7l-3.61,3.55,3.61,3.54h7Zm81.43,0,1.76-1.82,1.75,1.92,1.76-1.92,1.85,1.92,1.76-1.92,1.75,1.92,1.76-1.92,1.75,1.92V132.5l-1.75,1.92-1.76-1.92-1.75,1.92-1.76-1.92-1.85,1.92L174,132.5l-1.75,1.92-1.76-1.92v10.83h7.12l3.51,3.55-3.51,3.54H170.5Z" transform="translate(0 0.21)" fill="#00843d" fill-rule="evenodd"/><path d="M110.43,167.67S109,169,109,169.78s1.55,2.11,2.27,2.11a3.08,3.08,0,0,0,2.17-2.11c0-.67-1.45-2.11-1.45-2.11V164.8s3.1,4.88,3.1,2.78c0-1.54-3.1-4.13-3.1-4.13h-1.55s-3.09,3.07-3.09,4.13c0,2.1,3.09-2.78,3.09-2.78Z" transform="translate(0 0.21)" fill="#fff" fill-rule="evenodd"/><path d="M128.91,173.13s-1.76,1.92-1.76,2.88,1.86,3.07,2.69,3.07c1,0,2.58-2,2.58-3s-1.76-3-1.76-3v-4s3.1,6.52,3.1,3.55c0-1.92-3.1-5.47-3.1-5.47h-1.75s-3.61,4.41-3.1,5.47c0,3,3.1-3.55,3.1-3.55v4Z" transform="translate(0 0.21)" fill="#ca3745" fill-rule="evenodd"/><ellipse cx="110.3" cy="146.98" rx="3.5" ry="1.82" fill="#00843d"/><ellipse cx="129.81" cy="146.98" rx="3.5" ry="1.82" fill="#00843d"/><ellipse cx="149.21" cy="146.98" rx="3.5" ry="1.82" fill="#00843d"/><path d="M110.13,126.27s-1.45-1.44-1.45-2.11a3.66,3.66,0,0,1,2.17-2.2,3.07,3.07,0,0,1,2.16,2.11c0,.76-1.44,2.2-1.44,2.2v2.88s3.2-5,3.2-2.88c0,1.53-3.1,4.22-3.1,4.22h-1.54s-3.2-3.07-3.2-4.12c0-2.11,3.09,2.68,3.09,2.68v-2.88Z" transform="translate(0 0.21)" fill="#fff" fill-rule="evenodd"/><path d="M128.5,120.71s-1.76-1.92-1.76-2.87,2-3,2.69-3c1,0,2.68,1.91,2.68,2.87s-1.76,3.07-1.76,3.07v3.83s3.1-6.42,3.1-3.45c0,1.92-3.1,5.56-3.1,5.56h-2s-3.61-4.51-3.09-5.56c0-2.87,3.09,3.55,3.09,3.55v-4Z" transform="translate(0 0.21)" fill="#ca3745" fill-rule="evenodd"/><path d="M148.11,167.67s-1.45,1.34-1.45,2.11,1.55,2.11,2.27,2.11a3.08,3.08,0,0,0,2.17-2.11c0-.67-1.45-2.11-1.45-2.11V164.8s3.1,4.88,3.1,2.78c0-1.54-3.1-4.13-3.1-4.13H148s-3.09,3.07-3.09,4.13c0,2.1,3.09-2.78,3.09-2.78v2.87Zm-.31-41.4s-1.45-1.44-1.45-2.2a3.76,3.76,0,0,1,2.17-2.11,3.08,3.08,0,0,1,2.17,2.11c0,.76-1.45,2.2-1.45,2.2v2.88s3.2-5,3.2-2.88c0,1.53-3.1,4.22-3.1,4.22H147.8s-3.2-3.07-3.2-4.12c0-2.11,3.09,2.68,3.09,2.68v-2.88Z" transform="translate(0 0.21)" fill="#fff" fill-rule="evenodd"/><path d="M95.06,157.7s-2,1.35-2,1.92,2.06,2.11,3,2S99,160.39,99,159.72s-2-2-2-2V155s3.51,4.31,3.51,2.4c0-1.34-3.51-3.74-3.51-3.74h-2s-4,3.07-3.41,3.74c0,1.91,3.41-2.4,3.41-2.4Zm-.42-20.22s-2-1.34-2-2,2.07-2,3-1.92,2.89,1.25,2.89,1.92-2,1.92-2,1.92v2.68s3.51-4.31,3.51-2.3c0,1.25-3.51,3.64-3.51,3.64h-2s-4-3-3.4-3.64c0-1.92,3.4,2.3,3.4,2.3Zm68.43,19.75s-2.06,1.34-2.06,2,2.16,2,3.09,2,2.89-1.34,2.89-1.92c0-.76-2.06-2.1-2.06-2.1v-2.59s3.51,4.31,3.51,2.3c0-1.25-3.41-3.64-3.41-3.64H163s-3.92,3-3.41,3.64c0,2,3.51-2.3,3.51-2.3v2.59Zm-.41-20.13s-2.07-1.34-2.07-2,2.17-2,3.1-2,2.89,1.35,2.89,1.92c0,.77-2.06,2-2.06,2v2.69s3.51-4.32,3.51-2.4c0,1.34-3.41,3.74-3.41,3.74h-2.06s-3.93-3-3.41-3.64c0-2,3.51,2.3,3.51,2.3V137.1Z" transform="translate(0 0.21)" fill="#ca3745" fill-rule="evenodd"/><path d="M80.61,157.51a4.06,4.06,0,0,1-.42-2.49c0-.67,1.76-1.92,2.38-1.92a2.94,2.94,0,0,1,2.17,2.11,8.61,8.61,0,0,1-.31,2.49l-.83-2c-1.14,2.88-1.24,2.88-1.86-.09l-1,1.91Zm0-20.6a5,5,0,0,0-.42,2.49c0,.67,1.76,1.92,2.48,1.92a2.93,2.93,0,0,0,2.17-2.11,8.61,8.61,0,0,0-.31-2.49l-.93,2c-1-2.88-1.14-2.88-1.86.09l-1-1.91Zm95.47,20.32a4.36,4.36,0,0,1-.52-2.5c0-.67,1.86-1.91,2.48-1.91a3.07,3.07,0,0,1,2.16,2.11,8.56,8.56,0,0,1-.3,2.49l-.93-2c-1,2.88-1.14,3-1.86,0l-1,1.83Zm0-20.51a3.91,3.91,0,0,0-.42,2.49c0,.57,1.76,1.91,2.38,1.91a3.23,3.23,0,0,0,2.27-2.1,8.86,8.86,0,0,0-.31-2.59l-1,2.11c-1-3-1-3.07-1.76,0l-1-1.92Z" transform="translate(0 0.21)" fill="#fff" fill-rule="evenodd"/><path d="M118.9,181.28V176.1H102.38V166H87.73v-3.36H74.93V131.92h12.8v-3.35h14.65V118.41H118.9v-5.08h21.88v5.08h16.51v10.16h14.55V132h12.91v30.57H172V166H157.4V176.1H140.88v5.08H119ZM117,182.91v-5.08H100.53V167.67H86v-3.45H73.18V130.29H86v-3.35h14.56V116.69H117v-5.08h25.6v5.08h16.51v10.25H173.7v3.35h12.8v33.93H173.7v3.45H159.05v10.16H142.53v5.08Z" transform="translate(0 0.21)" fill="#ca3745" stroke="#000" stroke-width="0.1" fill-rule="evenodd"/></g></svg>