<svg id="flag-icons-va" xmlns="http://www.w3.org/2000/svg" viewBox="0 0 512 512"><title>va</title><path d="M256,0H512V512H256Z" fill="#fff" fill-rule="evenodd"/><path d="M389.67,209.33c0,.11-12.07,39.82-25.47,53.7-14.95,15.6-24.38,15.62-24.38,15.62l-15.28-3.18s9,.38,26.69-18.62c18-19.25,23.57-51.11,23.29-50.54l15.15,3Z" fill="#fff" stroke="#000" fill-rule="evenodd"/><path d="M375.29,212.27c-.32-1.68,7.31,39.5,30.21,58.47,11.44,9.49,19.08,9.49,19.08,9.49l19.09-3.16s-11.14.68-28.87-18.32c-18-19.26-23.39-47.05-23.26-47.16Z" fill="#fff" stroke="#000" fill-rule="evenodd"/><path d="M374.73,210.93c0,.11,12.07,39.82,25.47,53.7,14.95,15.6,24.38,15.62,24.38,15.62l15.28-3.18s-9,.38-26.69-18.62c-18-19.25-23.57-51.11-23.29-50.54l-15.15,3Z" fill="#fff" stroke="#000" fill-rule="evenodd"/><path d="M389.11,210.67c.32-1.68-7.31,39.5-30.21,58.47-11.44,9.49-19.08,9.49-19.08,9.49l-19.09-3.16s11.14.68,28.87-18.32c18-19.26,23.39-47,23.26-47.16Z" fill="#fff" stroke="#000" fill-rule="evenodd"/><path d="M389.16,242.58l1.88,4a2.71,2.71,0,0,1,1.88-2l1.52-.27s5.58,8.91,6.69,10.5-.86,3-.47,3,5.76-2,5.76-2-2.29.12-3.2-1.16S396,243.79,396,243.79s1.33-.44,2.48-.88,2.25,1.47,2.25,1.47l-2.72-4.8s0,1.59-1,1.87-1.74.62-1.74.62-.72-1.13-1.66-2.41,1-2.5,1-2.5l-5,2a7.28,7.28,0,0,1,2.24,1.62l1.1,1.59a12.72,12.72,0,0,1-1.78.59,2.15,2.15,0,0,1-2-.34Z" fill="#fff133" stroke="#000" fill-rule="evenodd"/><path d="M339.23,341.76c-.56-.09-.8-.55-.48-.92a2.35,2.35,0,0,1,1.77-.56l3.09.48c.56.09.8.54.47.91a2.31,2.31,0,0,1-1.77.57l-3.08-.48Z" fill="#b00" stroke="#000" stroke-width="14.3" fill-rule="evenodd"/><path d="M337.68,342.91c-.55-.1-.77-.56-.44-.93a2.29,2.29,0,0,1,1.76-.54l3,.55c.55.1.77.57.44.93a2.23,2.23,0,0,1-1.76.54l-3-.55Z" fill="#b00" stroke="#000" stroke-width="14.3" fill-rule="evenodd"/><path d="M335.93,344.36c-.56-.09-.8-.55-.48-.92a2.35,2.35,0,0,1,1.77-.56l3.09.48c.56.09.8.54.47.91a2.31,2.31,0,0,1-1.77.57l-3.08-.48Z" fill="#b00" stroke="#000" stroke-width="14.3" fill-rule="evenodd"/><path d="M357.46,326.25c-.57,0-.94-.36-.74-.78a2.15,2.15,0,0,1,1.54-.93l3.13-.19c.56,0,.93.35.73.78a2.06,2.06,0,0,1-1.53.92l-3.13.2Z" fill="#b00" stroke="#000" stroke-width="14.3" fill-rule="evenodd"/><path d="M356.21,327.65c-.56,0-.91-.4-.69-.82a2.1,2.1,0,0,1,1.55-.88l3.1-.06c.56,0,.91.4.69.82a2,2,0,0,1-1.56.87l-3.09.07Z" fill="#b00" stroke="#000" stroke-width="14.3" fill-rule="evenodd"/><path d="M354.93,329.26c-.57,0-.93-.37-.72-.79a2.12,2.12,0,0,1,1.56-.9l3.14-.14c.57,0,.93.37.72.79a2.14,2.14,0,0,1-1.56.9l-3.13.14Z" fill="#b00" stroke="#000" stroke-width="14.3" fill-rule="evenodd"/><path d="M353.5,330c-.56,0-.88-.45-.63-.86a2.2,2.2,0,0,1,1.62-.79l3.09.1c.57,0,.88.45.63.86a2.11,2.11,0,0,1-1.62.78L353.5,330Z" fill="#b00" stroke="#000" stroke-width="14.3" fill-rule="evenodd"/><path d="M362.12,320.24c-.56.09-1-.27-.84-.71a2,2,0,0,1,1.42-1l3.08-.47c.56-.09,1,.27.84.71a2,2,0,0,1-1.42,1l-3.08.47Z" fill="#b00" stroke="#000" stroke-width="14.3" fill-rule="evenodd"/><path d="M361.11,321.94c-.56.07-1-.3-.82-.74a2,2,0,0,1,1.42-1l3.06-.39c.56-.07,1,.3.81.75a2,2,0,0,1-1.42,1l-3.05.39Z" fill="#b00" stroke="#000" stroke-width="14.3" fill-rule="evenodd"/><path d="M360,323.74c-.56.09-1-.27-.84-.71a2,2,0,0,1,1.42-1l3.08-.47c.56-.09,1,.27.84.71a2,2,0,0,1-1.42,1l-3.08.47Z" fill="#b00" stroke="#000" stroke-width="14.3" fill-rule="evenodd"/><path d="M358.79,325.26c-.56.06-1-.32-.8-.75a2,2,0,0,1,1.44-1l3.07-.34c.56-.06,1,.32.79.76a1.94,1.94,0,0,1-1.44,1l-3.06.34Z" fill="#b00" stroke="#000" stroke-width="14.3" fill-rule="evenodd"/><path d="M345.94,336.7c-.57-.05-.85-.49-.56-.88a2.28,2.28,0,0,1,1.7-.69l3.12.28c.57,0,.85.49.57.88a2.27,2.27,0,0,1-1.71.68l-3.12-.27Z" fill="#b00" stroke="#000" stroke-width="14.3" fill-rule="evenodd"/><path d="M344.5,338c-.56-.06-.82-.51-.53-.9a2.25,2.25,0,0,1,1.7-.66l3.07.34c.56.06.83.52.53.91a2.21,2.21,0,0,1-1.7.65L344.5,338Z" fill="#b00" stroke="#000" stroke-width="14.3" fill-rule="evenodd"/><path d="M342.84,339.5c-.57-.05-.85-.49-.56-.88a2.28,2.28,0,0,1,1.7-.69l3.12.28c.57.05.85.49.57.88a2.27,2.27,0,0,1-1.71.68l-3.12-.27Z" fill="#b00" stroke="#000" stroke-width="14.3" fill-rule="evenodd"/><path d="M341,340.31c-.55-.1-.77-.56-.44-.93a2.29,2.29,0,0,1,1.76-.54l3,.55c.55.1.77.57.44.93a2.23,2.23,0,0,1-1.76.54l-3-.55Z" fill="#b00" stroke="#000" stroke-width="14.3" fill-rule="evenodd"/><path d="M352,331.59c-.57,0-.9-.42-.65-.83a2.23,2.23,0,0,1,1.62-.82l3.14,0c.57,0,.9.42.66.83a2.17,2.17,0,0,1-1.63.81l-3.13,0Z" fill="#b00" stroke="#000" stroke-width="14.3" fill-rule="evenodd"/><path d="M350.7,333c-.56,0-.88-.45-.63-.86a2.2,2.2,0,0,1,1.62-.79l3.09.1c.57,0,.88.45.63.86a2.11,2.11,0,0,1-1.62.78L350.7,333Z" fill="#b00" stroke="#000" stroke-width="14.3" fill-rule="evenodd"/><path d="M349,333.8c-.57-.05-.85-.49-.56-.88a2.28,2.28,0,0,1,1.7-.69l3.12.28c.57.05.85.49.57.88a2.27,2.27,0,0,1-1.71.68L349,333.8Z" fill="#b00" stroke="#000" stroke-width="14.3" fill-rule="evenodd"/><path d="M347.6,335.16c-.56-.06-.82-.51-.53-.9a2.25,2.25,0,0,1,1.7-.66l3.07.34c.56.06.83.52.53.91a2.21,2.21,0,0,1-1.7.65l-3.07-.34Z" fill="#b00" stroke="#000" stroke-width="14.3" fill-rule="evenodd"/><path d="M372,300.5c-.53.17-1-.11-1-.56a1.86,1.86,0,0,1,1.14-1.27l2.92-1c.53-.18,1,.1,1,.56a1.79,1.79,0,0,1-1.14,1.26l-2.91,1Z" fill="#b00" stroke="#000" stroke-width="14.3" fill-rule="evenodd"/><path d="M371.42,301.27c-.54.12-1-.2-.91-.66a1.92,1.92,0,0,1,1.27-1.16l3-.68c.55-.13,1,.2.91.66a1.83,1.83,0,0,1-1.26,1.15l-3,.69Z" fill="#b00" stroke="#000" stroke-width="14.3" fill-rule="evenodd"/><path d="M370.62,303.26c-.54.14-1-.17-.93-.63a2,2,0,0,1,1.26-1.18l3-.77c.55-.14,1,.17.93.63a1.89,1.89,0,0,1-1.26,1.18l-3,.77Z" fill="#b00" stroke="#000" stroke-width="14.3" fill-rule="evenodd"/><path d="M369.92,305c-.54.12-1-.2-.91-.66a1.92,1.92,0,0,1,1.27-1.16l3-.68c.55-.13,1,.2.91.66a1.83,1.83,0,0,1-1.26,1.15l-3,.69Z" fill="#b00" stroke="#000" stroke-width="14.3" fill-rule="evenodd"/><path d="M373.7,294.91c-.53.16-1-.14-1-.6a1.86,1.86,0,0,1,1.15-1.24l2.91-.88c.53-.16,1,.14,1,.6a1.78,1.78,0,0,1-1.15,1.24l-2.91.88Z" fill="#b00" stroke="#000" stroke-width="14.3" fill-rule="evenodd"/><path d="M373.18,296.8c-.53.17-1-.11-1-.56a1.86,1.86,0,0,1,1.14-1.27l2.92-1c.53-.18,1,.1,1,.56a1.79,1.79,0,0,1-1.14,1.26l-2.91,1Z" fill="#b00" stroke="#000" stroke-width="14.3" fill-rule="evenodd"/><path d="M372.6,298.51c-.53.16-1-.14-1-.6a1.86,1.86,0,0,1,1.15-1.24l2.91-.88c.53-.16,1,.14,1,.6a1.78,1.78,0,0,1-1.15,1.24l-2.91.88Z" fill="#b00" stroke="#000" stroke-width="14.3" fill-rule="evenodd"/><path d="M366,313.49c-.56.11-1-.24-.86-.68a2,2,0,0,1,1.36-1.1l3.07-.57c.55-.1,1,.24.86.69a2,2,0,0,1-1.37,1.1l-3.06.56Z" fill="#b00" stroke="#000" stroke-width="14.3" fill-rule="evenodd"/><path d="M365.14,315.19c-.55.09-1-.27-.85-.71a2,2,0,0,1,1.37-1.07l3-.49c.56-.09,1,.27.85.72a1.93,1.93,0,0,1-1.37,1.07l-3,.48Z" fill="#b00" stroke="#000" stroke-width="14.3" fill-rule="evenodd"/><path d="M364.14,317c-.56.11-1-.24-.86-.68a2,2,0,0,1,1.36-1.1l3.07-.57c.55-.1,1,.24.86.69a2,2,0,0,1-1.37,1.1l-3.06.56Z" fill="#b00" stroke="#000" stroke-width="14.3" fill-rule="evenodd"/><path d="M363.11,318.44c-.56.07-1-.3-.82-.74a2,2,0,0,1,1.42-1l3.06-.39c.56-.07,1,.3.81.75a2,2,0,0,1-1.42,1l-3.05.39Z" fill="#b00" stroke="#000" stroke-width="14.3" fill-rule="evenodd"/><path d="M369.12,306.86c-.54.14-1-.17-.93-.63a2,2,0,0,1,1.26-1.18l3-.77c.55-.14,1,.17.93.63a1.89,1.89,0,0,1-1.26,1.18l-3,.77Z" fill="#b00" stroke="#000" stroke-width="14.3" fill-rule="evenodd"/><path d="M368.84,308.09c-.55.09-1-.27-.85-.71a2,2,0,0,1,1.37-1.07l3-.49c.56-.09,1,.27.85.72a1.93,1.93,0,0,1-1.37,1.07l-3,.48Z" fill="#b00" stroke="#000" stroke-width="14.3" fill-rule="evenodd"/><path d="M367.84,309.89c-.56.11-1-.24-.86-.68a2,2,0,0,1,1.36-1.1l3.07-.57c.55-.1,1,.24.86.69a2,2,0,0,1-1.37,1.1l-3.06.56Z" fill="#b00" stroke="#000" stroke-width="14.3" fill-rule="evenodd"/><path d="M366.94,311.59c-.55.09-1-.27-.85-.71a2,2,0,0,1,1.37-1.07l3-.49c.56-.09,1,.27.85.72a1.93,1.93,0,0,1-1.37,1.07l-3,.48Z" fill="#b00" stroke="#000" stroke-width="14.3" fill-rule="evenodd"/><path d="M377.57,284.17c-.49.25-1,0-1.08-.42a1.71,1.71,0,0,1,.88-1.4l2.7-1.35c.49-.24,1,0,1.08.43a1.67,1.67,0,0,1-.89,1.4l-2.69,1.34Z" fill="#b00" stroke="#000" stroke-width="14.3" fill-rule="evenodd"/><path d="M376.79,286c-.53.19-1-.09-1-.54a1.86,1.86,0,0,1,1.11-1.29l2.9-1c.53-.18,1,.09,1,.55a1.81,1.81,0,0,1-1.12,1.28l-2.89,1Z" fill="#b00" stroke="#000" stroke-width="14.3" fill-rule="evenodd"/><path d="M376.3,287.77c-.52.17-1-.12-1-.58a1.82,1.82,0,0,1,1.12-1.26l2.89-.93c.53-.16,1,.13,1,.59a1.76,1.76,0,0,1-1.13,1.25l-2.88.93Z" fill="#b00" stroke="#000" stroke-width="14.3" fill-rule="evenodd"/><path d="M378.2,278.4a.71.71,0,0,1-1.07-.46,1.69,1.69,0,0,1,.9-1.38l2.71-1.26a.71.71,0,0,1,1.07.46,1.67,1.67,0,0,1-.9,1.38l-2.7,1.26Z" fill="#b00" stroke="#000" stroke-width="14.3" fill-rule="evenodd"/><path d="M378,280.37c-.49.25-1,0-1.08-.42a1.71,1.71,0,0,1,.88-1.4l2.7-1.35c.49-.24,1,0,1.08.43a1.67,1.67,0,0,1-.89,1.4L378,280.37Z" fill="#b00" stroke="#000" stroke-width="14.3" fill-rule="evenodd"/><path d="M377.8,282.2a.71.71,0,0,1-1.07-.46,1.69,1.69,0,0,1,.9-1.38l2.71-1.26a.71.71,0,0,1,1.07.46,1.67,1.67,0,0,1-.9,1.38l-2.7,1.26Z" fill="#b00" stroke="#000" stroke-width="14.3" fill-rule="evenodd"/><path d="M375.79,289.75c-.53.19-1-.09-1-.54a1.86,1.86,0,0,1,1.11-1.29l2.9-1c.53-.18,1,.09,1,.55a1.81,1.81,0,0,1-1.12,1.28l-2.89,1Z" fill="#b00" stroke="#000" stroke-width="14.3" fill-rule="evenodd"/><path d="M375,291c-.53.16-1-.14-1-.6a1.86,1.86,0,0,1,1.15-1.24l2.91-.88c.53-.16,1,.14,1,.6a1.78,1.78,0,0,1-1.15,1.24L375,291Z" fill="#b00" stroke="#000" stroke-width="14.3" fill-rule="evenodd"/><path d="M374.38,293c-.53.17-1-.11-1-.56a1.86,1.86,0,0,1,1.14-1.27l2.92-1c.53-.18,1,.1,1,.56A1.79,1.79,0,0,1,377.3,292l-2.91,1Z" fill="#b00" stroke="#000" stroke-width="14.3" fill-rule="evenodd"/><path d="M423.06,336.69c.56-.06.84-.5.54-.89a2.34,2.34,0,0,0-1.72-.66l-3.11.31c-.57.06-.84.5-.55.89a2.26,2.26,0,0,0,1.72.66l3.11-.31Z" fill="#b00" stroke="#000" stroke-width="14.3" fill-rule="evenodd"/><path d="M424.6,338c.55-.07.81-.53.51-.91a2.24,2.24,0,0,0-1.71-.64l-3.06.38c-.56.07-.82.53-.52.91a2.2,2.2,0,0,0,1.72.64l3.06-.38Z" fill="#b00" stroke="#000" stroke-width="14.3" fill-rule="evenodd"/><path d="M426.26,339.49c.56-.06.84-.5.54-.89a2.34,2.34,0,0,0-1.72-.66l-3.11.31c-.57.06-.84.5-.55.89a2.26,2.26,0,0,0,1.72.66l3.11-.31Z" fill="#b00" stroke="#000" stroke-width="14.3" fill-rule="evenodd"/><path d="M406.13,320.19c.57.07,1-.3.8-.74a2.07,2.07,0,0,0-1.46-1l-3.11-.36c-.56-.07-1,.3-.79.74a2,2,0,0,0,1.46,1l3.1.36Z" fill="#b00" stroke="#000" stroke-width="14.3" fill-rule="evenodd"/><path d="M407.27,321.7c.56.05.94-.35.76-.78a2,2,0,0,0-1.49-.95l-3.08-.24c-.56,0-.94.35-.76.78a2,2,0,0,0,1.49,1l3.08.23Z" fill="#b00" stroke="#000" stroke-width="14.3" fill-rule="evenodd"/><path d="M408.46,323.51c.56.06,1-.32.78-.75a2.06,2.06,0,0,0-1.49-1l-3.11-.32c-.57,0-1,.32-.78.76a2.06,2.06,0,0,0,1.48,1l3.11.31Z" fill="#b00" stroke="#000" stroke-width="14.3" fill-rule="evenodd"/><path d="M409.78,324.15c.56,0,.91-.4.69-.83a2.09,2.09,0,0,0-1.55-.87l-3.1-.07c-.56,0-.91.4-.69.82a2,2,0,0,0,1.55.87l3.1.08Z" fill="#b00" stroke="#000" stroke-width="14.3" fill-rule="evenodd"/><path d="M402,314.05c.55.11,1-.22.88-.67a2,2,0,0,0-1.32-1.13l-3.05-.64c-.55-.11-1,.22-.89.67a2,2,0,0,0,1.33,1.13l3,.64Z" fill="#b00" stroke="#000" stroke-width="14.3" fill-rule="evenodd"/><path d="M402.89,315.75c.54.1,1-.25.86-.69a1.92,1.92,0,0,0-1.33-1.11l-3-.56c-.55-.1-1,.25-.87.7a1.88,1.88,0,0,0,1.33,1.1l3,.56Z" fill="#b00" stroke="#000" stroke-width="14.3" fill-rule="evenodd"/><path d="M403.69,317.65c.55.11,1-.22.88-.67a2,2,0,0,0-1.32-1.13l-3.05-.64c-.55-.11-1,.22-.89.67a2,2,0,0,0,1.33,1.13l3,.64Z" fill="#b00" stroke="#000" stroke-width="14.3" fill-rule="evenodd"/><path d="M404.91,319.18c.55.1,1-.26.85-.71a2,2,0,0,0-1.36-1.08l-3-.51c-.55-.09-1,.27-.85.72a1.9,1.9,0,0,0,1.36,1.08l3,.5Z" fill="#b00" stroke="#000" stroke-width="14.3" fill-rule="evenodd"/><path d="M416.84,331.29c.57,0,.89-.44.64-.84a2.28,2.28,0,0,0-1.66-.78l-3.13.1c-.57,0-.89.44-.63.85a2.18,2.18,0,0,0,1.65.77l3.13-.1Z" fill="#b00" stroke="#000" stroke-width="14.3" fill-rule="evenodd"/><path d="M418.18,332.67c.56,0,.86-.47.6-.87a2.18,2.18,0,0,0-1.65-.75l-3.09.17c-.56,0-.86.47-.6.88a2.16,2.16,0,0,0,1.65.74l3.09-.17Z" fill="#b00" stroke="#000" stroke-width="14.3" fill-rule="evenodd"/><path d="M419.64,334.29c.57,0,.89-.44.64-.84a2.28,2.28,0,0,0-1.66-.78l-3.13.1c-.57,0-.89.44-.63.85a2.18,2.18,0,0,0,1.65.77l3.13-.1Z" fill="#b00" stroke="#000" stroke-width="14.3" fill-rule="evenodd"/><path d="M421.5,335.26c.55-.07.81-.53.51-.91a2.24,2.24,0,0,0-1.71-.64l-3.06.38c-.56.07-.82.53-.52.91a2.19,2.19,0,0,0,1.72.64l3.06-.38Z" fill="#b00" stroke="#000" stroke-width="14.3" fill-rule="evenodd"/><path d="M411.05,325.86c.57,0,.94-.37.73-.79a2.16,2.16,0,0,0-1.56-.91l-3.13-.14c-.57,0-.93.37-.72.79a2.1,2.1,0,0,0,1.55.9l3.13.15Z" fill="#b00" stroke="#000" stroke-width="14.3" fill-rule="evenodd"/><path d="M412.38,327.35c.56,0,.91-.4.69-.83a2.09,2.09,0,0,0-1.55-.87l-3.1-.07c-.56,0-.91.4-.69.82a2,2,0,0,0,1.55.87l3.1.08Z" fill="#b00" stroke="#000" stroke-width="14.3" fill-rule="evenodd"/><path d="M413.84,328.29c.57,0,.89-.44.64-.84a2.28,2.28,0,0,0-1.66-.78l-3.13.1c-.57,0-.89.44-.63.85a2.18,2.18,0,0,0,1.65.77l3.13-.1Z" fill="#b00" stroke="#000" stroke-width="14.3" fill-rule="evenodd"/><path d="M415.28,329.67c.56,0,.86-.47.6-.87a2.18,2.18,0,0,0-1.65-.75l-3.09.17c-.56,0-.86.47-.6.88a2.16,2.16,0,0,0,1.65.74l3.09-.17Z" fill="#b00" stroke="#000" stroke-width="14.3" fill-rule="evenodd"/><path d="M393.64,293.74c.52.2,1-.05,1-.51a1.79,1.79,0,0,0-1-1.33l-2.83-1.12c-.52-.2-1,.05-1,.51a1.72,1.72,0,0,0,1,1.32l2.83,1.13Z" fill="#b00" stroke="#000" stroke-width="14.3" fill-rule="evenodd"/><path d="M394.18,294.54c.53.15,1-.15,1-.61A1.83,1.83,0,0,0,394,292.7l-2.92-.85c-.53-.15-1,.15-1,.61a1.81,1.81,0,0,0,1.17,1.23l2.92.85Z" fill="#b00" stroke="#000" stroke-width="14.3" fill-rule="evenodd"/><path d="M394.79,296.52c.54.17,1-.11,1-.57a1.88,1.88,0,0,0-1.16-1.25l-2.93-.93c-.54-.17-1,.12-1,.57a1.83,1.83,0,0,0,1.16,1.25l2.93.93Z" fill="#b00" stroke="#000" stroke-width="14.3" fill-rule="evenodd"/><path d="M395.48,298.34c.53.15,1-.15,1-.61a1.83,1.83,0,0,0-1.17-1.23l-2.92-.85c-.53-.15-1,.15-1,.61a1.81,1.81,0,0,0,1.17,1.23l2.92.85Z" fill="#b00" stroke="#000" stroke-width="14.3" fill-rule="evenodd"/><path d="M392.32,288.06c.52.19,1-.08,1-.54a1.72,1.72,0,0,0-1.05-1.3l-2.83-1c-.52-.19-1,.08-1,.54a1.73,1.73,0,0,0,1.06,1.3l2.83,1Z" fill="#b00" stroke="#000" stroke-width="14.3" fill-rule="evenodd"/><path d="M392.74,290c.52.2,1-.05,1-.51a1.79,1.79,0,0,0-1-1.33l-2.83-1.12c-.52-.2-1,.05-1,.51a1.72,1.72,0,0,0,1,1.32l2.83,1.13Z" fill="#b00" stroke="#000" stroke-width="14.3" fill-rule="evenodd"/><path d="M393.22,291.76c.52.19,1-.08,1-.54a1.72,1.72,0,0,0-1.05-1.3l-2.83-1c-.52-.19-1,.08-1,.54a1.73,1.73,0,0,0,1.06,1.3l2.83,1Z" fill="#b00" stroke="#000" stroke-width="14.3" fill-rule="evenodd"/><path d="M398.56,307c.55.14,1-.18.92-.63a1.93,1.93,0,0,0-1.28-1.17l-3-.74c-.55-.13-1,.19-.92.64a1.91,1.91,0,0,0,1.28,1.17l3,.73Z" fill="#b00" stroke="#000" stroke-width="14.3" fill-rule="evenodd"/><path d="M399.35,308.69c.55.12,1-.21.9-.66a1.86,1.86,0,0,0-1.28-1.15l-3-.65c-.54-.12-1,.22-.89.67a1.83,1.83,0,0,0,1.28,1.14l3,.65Z" fill="#b00" stroke="#000" stroke-width="14.3" fill-rule="evenodd"/><path d="M400.16,310.58c.55.14,1-.18.92-.63a1.93,1.93,0,0,0-1.28-1.17l-3-.74c-.55-.13-1,.19-.92.64a1.91,1.91,0,0,0,1.28,1.17l3,.73Z" fill="#b00" stroke="#000" stroke-width="14.3" fill-rule="evenodd"/><path d="M401.19,312.15c.54.1,1-.25.86-.69a1.92,1.92,0,0,0-1.33-1.11l-3-.56c-.55-.1-1,.25-.87.7a1.88,1.88,0,0,0,1.33,1.1l3,.56Z" fill="#b00" stroke="#000" stroke-width="14.3" fill-rule="evenodd"/><path d="M396,300.22c.54.17,1-.11,1-.57a1.88,1.88,0,0,0-1.16-1.25l-2.93-.93c-.54-.17-1,.12-1,.57a1.83,1.83,0,0,0,1.16,1.25l2.93.93Z" fill="#b00" stroke="#000" stroke-width="14.3" fill-rule="evenodd"/><path d="M396.15,301.49c.55.12,1-.21.9-.66a1.86,1.86,0,0,0-1.28-1.15l-3-.65c-.54-.12-1,.22-.89.67a1.83,1.83,0,0,0,1.28,1.14l3,.65Z" fill="#b00" stroke="#000" stroke-width="14.3" fill-rule="evenodd"/><path d="M397,303.38c.55.14,1-.18.92-.63a1.93,1.93,0,0,0-1.28-1.17l-3-.74c-.55-.13-1,.19-.92.64a1.91,1.91,0,0,0,1.28,1.17l3,.73Z" fill="#b00" stroke="#000" stroke-width="14.3" fill-rule="evenodd"/><path d="M397.75,305.09c.55.12,1-.21.9-.66a1.86,1.86,0,0,0-1.28-1.15l-3-.65c-.54-.12-1,.22-.89.67a1.83,1.83,0,0,0,1.28,1.14l3,.65Z" fill="#b00" stroke="#000" stroke-width="14.3" fill-rule="evenodd"/><path d="M389.39,277.17a.71.71,0,0,0,1.11-.37,1.64,1.64,0,0,0-.77-1.44l-2.58-1.49a.71.71,0,0,0-1.11.36,1.64,1.64,0,0,0,.77,1.45l2.58,1.49Z" fill="#b00" stroke="#000" stroke-width="14.3" fill-rule="evenodd"/><path d="M389.94,279c.51.21,1,0,1-.49a1.76,1.76,0,0,0-1-1.34L387.16,276c-.51-.21-1,0-1,.5a1.73,1.73,0,0,0,1,1.34l2.81,1.16Z" fill="#b00" stroke="#000" stroke-width="14.3" fill-rule="evenodd"/><path d="M390.42,280.71c.51.2,1-.06,1-.52a1.75,1.75,0,0,0-1-1.32l-2.81-1.08c-.51-.2-1,.06-1,.53a1.68,1.68,0,0,0,1,1.31l2.81,1.08Z" fill="#b00" stroke="#000" stroke-width="14.3" fill-rule="evenodd"/><path d="M389.15,271.3a.72.72,0,0,0,1.1-.4,1.63,1.63,0,0,0-.78-1.43l-2.6-1.4a.72.72,0,0,0-1.11.4,1.62,1.62,0,0,0,.79,1.42l2.6,1.41Z" fill="#b00" stroke="#000" stroke-width="14.3" fill-rule="evenodd"/><path d="M389.19,273.27a.71.71,0,0,0,1.11-.37,1.64,1.64,0,0,0-.77-1.44L387,270a.71.71,0,0,0-1.11.36,1.64,1.64,0,0,0,.77,1.45l2.58,1.49Z" fill="#b00" stroke="#000" stroke-width="14.3" fill-rule="evenodd"/><path d="M389.35,275.2a.72.72,0,0,0,1.1-.4,1.63,1.63,0,0,0-.78-1.43l-2.6-1.4a.72.72,0,0,0-1.11.4,1.62,1.62,0,0,0,.79,1.42l2.6,1.41Z" fill="#b00" stroke="#000" stroke-width="14.3" fill-rule="evenodd"/><path d="M390.84,282.79c.51.21,1,0,1-.49a1.76,1.76,0,0,0-1-1.34l-2.81-1.17c-.51-.21-1,0-1,.5a1.73,1.73,0,0,0,1,1.34l2.81,1.16Z" fill="#b00" stroke="#000" stroke-width="14.3" fill-rule="evenodd"/><path d="M391.42,284.16c.52.19,1-.08,1-.54a1.72,1.72,0,0,0-1.05-1.3l-2.83-1c-.52-.19-1,.08-1,.54a1.73,1.73,0,0,0,1.06,1.3l2.83,1Z" fill="#b00" stroke="#000" stroke-width="14.3" fill-rule="evenodd"/><path d="M391.94,286.14c.52.2,1-.05,1-.51a1.79,1.79,0,0,0-1-1.33l-2.83-1.12c-.52-.2-1,.05-1,.51a1.72,1.72,0,0,0,1,1.32l2.83,1.13Z" fill="#b00" stroke="#000" stroke-width="14.3" fill-rule="evenodd"/><path d="M375.24,241l-1.88,4a2.71,2.71,0,0,0-1.88-2l-1.52-.27s-5.58,8.91-6.69,10.5.86,3,.47,3-5.76-2-5.76-2,2.29.12,3.2-1.16,7.22-10.86,7.22-10.86-1.33-.44-2.48-.88-2.25,1.47-2.25,1.47l2.72-4.8s0,1.59,1,1.87,1.74.62,1.74.62.72-1.13,1.66-2.41-1-2.5-1-2.5l5,2a7.28,7.28,0,0,0-2.24,1.62l-1.1,1.59a12.72,12.72,0,0,0,1.78.59,2.15,2.15,0,0,0,2-.34Z" fill="#fff133" stroke="#000" fill-rule="evenodd"/><path d="M393.46,277.89l-6.5,5.44,22.73,19,6.49-5.43Z" fill="silver" fill-rule="evenodd"/><ellipse cx="296.05" cy="201.79" rx="4.59" ry="3.84" fill="#fff133" stroke="#000"/><path d="M299.3,201.78l4.86,4.09-3.24,2.72-4.87-4.08c-1.62-1.36,1.62-4.07,3.24-2.71Z" fill="silver" stroke="#000" fill-rule="evenodd"/><path d="M306.48,205.09,300,210.52a3,3,0,0,1-3.24-2.71h0c1.4-2.8,3.24-4.17,6.48-5.43a3.25,3.25,0,0,1,3.24,2.71Z" fill="#fff133" stroke="#000" fill-rule="evenodd"/><path d="M305.78,204.51l4.89,4.08L304.16,214,299.3,210c.65-2.17,3.89-4.89,6.48-5.43Z" fill="silver" stroke="#000" fill-rule="evenodd"/><path d="M311.36,209.16l-6.5,5.44a3,3,0,0,1-3.24-2.72c1.4-2.81,3.24-4.16,6.48-5.43a3.25,3.25,0,0,1,3.24,2.71Z" fill="#fff133" stroke="#000" fill-rule="evenodd"/><path d="M310.66,208.59l44.42,37.18-6.48,5.44L304.16,214c.65-2.17,3.91-4.88,6.5-5.42Z" fill="silver" stroke="#000" fill-rule="evenodd"/><path d="M357.75,248l-6.51,5.43a3,3,0,0,1-3.24-2.71c1.4-2.81,3.24-4.18,6.48-5.43A3.24,3.24,0,0,1,357.75,248Z" fill="#fff133" stroke="#000" fill-rule="evenodd"/><path d="M357.75,248,387,272.46l-6.48,5.43-29.25-24.46c.65-2.17,3.9-4.88,6.49-5.42Z" fill="silver" stroke="#000" fill-rule="evenodd"/><path d="M375.59,260.23l-9.73,8.15a3,3,0,0,1-3.24-2.71s0-2.71,3.24-5.44a11,11,0,0,1,6.48-2.71A4,4,0,0,1,375.59,260.23Z" fill="silver" stroke="#000" fill-rule="evenodd"/><path d="M375.59,260.23l6.51,8.15-6.49,5.44-9.75-5.43c-.36-.27,0-2.72,3.24-5.44A11.23,11.23,0,0,1,375.59,260.23Z" fill="silver" stroke="#000" fill-rule="evenodd"/><path d="M380.49,269.74c-2.66-2.22-6.49-5.43-11.37-6.79,1.63,4.08,5.48,7.29,8.12,9.51Z" fill="silver" stroke="#000" fill-rule="evenodd"/><path d="M375.6,273.82l1.63-1.36L374,269.74c-3.24-2.71-8.11-1.36-8.11-1.36Z" fill="silver" stroke="#000" fill-rule="evenodd"/><path d="M382.11,268.39l-1.62,1.35L377.24,267c-3.24-2.72-1.63-6.8-1.63-6.8Z" fill="silver" stroke="#000" fill-rule="evenodd"/><path d="M310.66,208.59l4.87,4.08c3.24,2.71,14.62,14.94,14.62,14.94s15.2,10,18.44,12.73l4.88,4.08c-3.24-2.71-23.32-14.08-23.32-14.08s12,15.43,16.83,19.5l-4.87-4.08c-3.24-2.71-15.2-15.43-15.2-15.43s-13-8.15-16.25-10.87L304.18,214c3.24,2.71,22.71,13.58,22.71,13.58S313.91,211.31,310.66,208.59Z" fill="#fff133" stroke="#000" fill-rule="evenodd"/><path d="M390.21,280.62a104.59,104.59,0,0,0,14.61,14.95,11.7,11.7,0,0,0,6.49,2.71s0-2.71-3.24-5.43A114.68,114.68,0,0,0,390.21,280.62Zm-8.11-12.24c11.35,9.51,24.35,14.95,32.46,21.75,6.49,5.42,2,9.59.18,10.91s-6.74,5.46-13.16,0c-8.13-6.79-14.62-17.67-26-27.18,0-2.72,3.26-5.43,6.5-5.43Z" fill="silver" stroke="#000" fill-rule="evenodd"/><path d="M421.76,297.67,418,294.12l-12.86,10.44,3.72,3.54Z" fill="silver" stroke="#000" fill-rule="evenodd"/><path d="M308.57,214.14l-5.27,4.3,5.27,4.31L306,224.9l-5.26-4.31-10.56,8.64,5.26,4.31-2.61,2.14-5.27-4.31-5.29,4.31L298,248.63,308.57,240l-5.27-4.33-2.64,2.16L298,235.68l10.53-8.62,2.64,2.17-2.64,2.14,5.26,4.31,5.26-4.31-2.61-2.14,2.61-2.17,10.56,8.62L327,237.84l-2.61-2.16-5.3,4.33,5.3,4.31,2.61-2.17,2.65,2.17-10.56,8.62-2.61-2.17,2.61-2.14-5.26-4.31-10.53,8.62,15.79,12.92,5.3-4.31-5.3-4.31,2.68-2.14,5.23,4.31,10.56-8.64-5.29-4.31,2.64-2.14,5.27,4.31,5.26-4.31-36.87-30.18Z" fill="silver" stroke="#000" stroke-width="0.6" fill-rule="evenodd"/><path d="M324.37,261.56v4.3L311.2,276.65V268l2.63-2.17h5.28l5.25-4.3Z" fill="silver" stroke="#000" stroke-width="1.3" fill-rule="evenodd"/><path d="M337.54,250.87l-10.47,8.57-.11,4.28L337.54,255Z" fill="silver" stroke="#000" stroke-width="1.3" fill-rule="evenodd"/><path d="M327,263.71l-5.26-4.31v-4.31L327,259.4Z" fill="silver" stroke="#000" stroke-width="1.3" fill-rule="evenodd"/><path d="M340.18,252.93l-5.26-4.31v-4.31l5.26,4.31Z" fill="silver" stroke="#000" stroke-width="1.3" fill-rule="evenodd"/><path d="M334.91,244.31v4.31l-2.64-2.16Z" fill="silver" stroke="#000" stroke-width="1.3" fill-rule="evenodd"/><path d="M321.75,255.09v4.31l-2.65-2.15Z" fill="silver" stroke="#000" stroke-width="1.3" fill-rule="evenodd"/><path d="M345.5,244.31l-5.32,4.31v4.3l5.32-4.44Z" fill="silver" stroke="#000" stroke-width="1.3" fill-rule="evenodd"/><path d="M313.84,240l-5.27-4.31v-4.31l5.27,4.31Z" fill="silver" stroke="#000" stroke-width="1.3" fill-rule="evenodd"/><path d="M324.37,248.62l-5.26-4.31V240l5.26,4.31Z" fill="silver" stroke="#000" stroke-width="1.3" fill-rule="evenodd"/><path d="M327,237.83l-7.89-6.46v-4.31l10.54,8.62L327,237.84Z" fill="silver" stroke="#000" stroke-width="1.3" fill-rule="evenodd"/><path d="M319.12,227.06v4.31l-2.65-2.15Z" fill="silver" stroke="#000" stroke-width="1.3" fill-rule="evenodd"/><path d="M313.84,240l5.26-4.3v-4.31l-5.26,4.31V240Z" fill="silver" stroke="#000" stroke-width="1.3" fill-rule="evenodd"/><path d="M300.66,237.83l7.91-6.45v-4.31L298,235.69l2.63,2.17Z" fill="silver" stroke="#000" stroke-width="1.3" fill-rule="evenodd"/><path d="M308.57,240,298,248.63h-5.26l-2.63,2.14v8.63l18.44-15.14V240Z" fill="silver" stroke="#000" stroke-width="1.3" fill-rule="evenodd"/><path d="M319.11,265.86,303.3,252.93H298l15.8,12.93ZM311.2,268l-15.81-12.94,2.64-2.15,15.8,12.92L311.2,268Z" fill="silver" stroke="#000" stroke-width="1.3" fill-rule="evenodd"/><path d="M311.2,268v8.62l-15.81-12.94v-8.62Z" fill="silver" stroke="#000" stroke-width="1.3" fill-rule="evenodd"/><path d="M298,248.62l-15.81-12.94H277l15.81,12.94Zm-7.91,2.16-15.81-12.94,2.63-2.15,15.81,12.93-2.63,2.15Z" fill="silver" stroke="#000" stroke-width="1.3" fill-rule="evenodd"/><path d="M290.13,250.78v8.62l-15.81-12.94v-8.62Z" fill="silver" stroke="#000" stroke-width="1.3" fill-rule="evenodd"/><path d="M292.76,235.68l-2.63-2.15v-4.31l5.27,4.31Z" fill="silver" stroke="#000" stroke-width="1.3" fill-rule="evenodd"/><path d="M305.93,224.9l-2.63-2.15v-4.31l5.26,4.31Z" fill="silver" stroke="#000" stroke-width="1.3" fill-rule="evenodd"/><path d="M319.1,252.94v-4.31l-2.63,2.15Z" fill="silver" stroke="#000" stroke-width="1.3" fill-rule="evenodd"/><path d="M324.37,248.62l5.27-4.3L327,242.17l-2.63,2.15v4.31Z" fill="silver" stroke="#000" stroke-width="1.3" fill-rule="evenodd"/><path d="M308.56,231.37l2.63-2.15-2.63-2.16Z" fill="silver" stroke="#000" stroke-width="1.3" fill-rule="evenodd"/><path d="M425.81,300.48l-4.08-3.88-14.15,11.45,4.09,3.88Z" fill="#fff133" stroke="#000" fill-rule="evenodd"/><path d="M419.67,328.54c0,3-8.71,7.27-8.71-3.62h8.71Z" fill="silver" stroke="#000" fill-rule="evenodd"/><path d="M442.93,299.55c36.18,0,27.84,33.6,24.71,25.37-2.31-6-8.74-14.49-16-16.41-9.89-2.62-6.57,1.92-10.16,1.92s-.3-4.54-10.19-1.92c-7.26,1.92-13.69,10.37-16,16.41C412.17,333.17,402.25,299.55,442.93,299.55Z" fill="silver" stroke="#000" fill-rule="evenodd"/><path d="M406.58,328.54c.51,16,16.54,28.67,35.81,28.24,18.55-.41,33.47-12.81,34-28.24v-3.62c0-5.93-8.71,25.38-34.87,25.38s-34.9-25.52-34.9-25.38Z" fill="silver" stroke="#000" fill-rule="evenodd"/><path d="M463.27,328.77c0,3,8.71,7.27,8.71-3.62h-8.71Z" fill="silver" stroke="#000" fill-rule="evenodd"/><path d="M406.58,324.92c0,16,15.62,29,34.9,29s34.9-13,34.9-29-15.63-29-34.9-29S406.58,308.89,406.58,324.92Zm13.09,0c0,3-5.61.62-2.31,8.8,2,5.51,7.25,9.77,13.93,11.26,9.89,2.6,6.57-1.93,10.19-1.93s.27,4.53,10.16,1.93c6.8-1.52,12.1-5.94,13.93-11.59,3.15-8.22-2.29-5.46-2.29-8.47s5.42-.22,2.29-8.45c-1.83-5.65-7.13-10.06-13.93-11.58-9.89-2.62-6.57,1.9-10.16,1.9s-.3-4.5-10.19-1.9c-6.79,1.52-12.1,5.93-13.93,11.58C414.23,324.7,419.67,321.91,419.67,324.92Z" fill="silver" stroke="#000" fill-rule="evenodd"/><path d="M467.64,324.93c4.35,0,.41,12.91,1.94,9.87a21.7,21.7,0,0,0,0-19.75C468.05,312,472,324.93,467.64,324.93Z" fill="silver" stroke="#000" fill-rule="evenodd"/><path d="M411,324.93a17.73,17.73,0,0,0,2.39,9.88c2,3-2.42-9.88,2-9.88-4.36,0-.42-12.91-2-9.87a21.74,21.74,0,0,0-2.42,9.87Z" fill="silver" stroke="#000" fill-rule="evenodd"/><path d="M429.59,348.29a36.08,36.08,0,0,0,23.75,0c3.67-1.27-11.86,2-11.86-1.61,0,3.62-15.53.34-11.89,1.63Zm11.89-45.1c0-3.62,15.5-.35,11.86-1.64a36,36,0,0,0-23.75,0C426,302.84,441.48,299.57,441.48,303.19Z" fill="silver" stroke="#000" fill-rule="evenodd"/><ellipse cx="471.61" cy="302.69" rx="4.8" ry="3.88" transform="translate(-53.62 107.31) rotate(-12.29)" fill="#fff133" stroke="#000"/><path d="M461.75,301.29a32.18,32.18,0,0,1,9.57,8.56l1.51-.75a33.59,33.59,0,0,0-10.05-9Z" fill="#fff133" stroke="#000" fill-rule="evenodd"/><path d="M411.7,340a32,32,0,0,0,9.57,8.56l-1,1.2a33.59,33.59,0,0,1-10.05-9Z" fill="#fff133" stroke="#000" fill-rule="evenodd"/><path d="M409.44,344.23a34.65,34.65,0,0,0,4.85,4.64,35.32,35.32,0,0,0,5.6,3.63l.39-2.75a33.65,33.65,0,0,1-10.06-9l-.79,3.5Z" fill="#fff133" stroke="#000" fill-rule="evenodd"/><path d="M459.55,349.81a33.38,33.38,0,0,0,10.3-7.95l1.44.84a35,35,0,0,1-10.82,8.36Z" fill="#fff133" stroke="#000" fill-rule="evenodd"/><ellipse cx="410.9" cy="349.81" rx="4.8" ry="3.88" transform="translate(-65.04 95.47) rotate(-12.29)" fill="#fff133" stroke="#000"/><path d="M460.55,350.89a31.69,31.69,0,0,0,5.35-3.3,41,41,0,0,0,5.37-4.91l.42,3.26a35,35,0,0,1-10.82,8.36Z" fill="#fff133" stroke="#000" fill-rule="evenodd"/><path d="M459.69,350.09l.22,3,.79.92-.25-3.07-.73-.88Zm-38.52-1.27-.88.86-.25,2.79.71-.62Z" fill="#fff133" stroke="#000" fill-rule="evenodd"/><ellipse cx="469.02" cy="351.5" rx="4.8" ry="3.88" transform="translate(-64.07 107.88) rotate(-12.29)" fill="#fff133" stroke="#000"/><path d="M339.82,199.48l-7.63-3.16-7.62,3.16s15.79,6.35,15.79,28.51c0,15.83-27,19-27,38,0,8.15,7.34,15.84,15,15.84s19.08-3.17,30.52-12.68c-7.62,3.17-16.37,6.67-22.9,6.44-4.22-.06-11.84-3.17-11.84-9.47,0-12.69,26.45-19.13,26.45-38.12,0-22.16-10.77-28.49-10.77-28.49Z" fill="#fff" stroke="#000" fill-rule="evenodd"/><path d="M338.42,199.48l-10-3.16-2.16,3.16s15.21,6.35,15.21,28.51c0,15.83-27.12,19-27.12,38,0,8.15,5.75,15.62,14.07,15.84,15.81.41,19.47-4.29,30.52-12.68-9.28,5.78-22.62,8.37-27.79,6.12-6.33-2.76-7.54-6.44-7.54-9.62,0-12.67,26.05-18.66,26.05-37.65,0-22.16-11.2-28.49-11.2-28.49Z" fill="#fff" stroke="#000" fill-rule="evenodd"/><path d="M339.92,199.57c-1.5-.43-7.75-3.25-15.35,3.09-3.84,3.17-3.84,9.49-3.84,12.66l-11.44-9.49s6.25-15.53,23.18-9.58a80.25,80.25,0,0,1,7.43,3.32Z" fill="#fff" stroke="#000" fill-rule="evenodd"/><path d="M337.66,198.45a17.21,17.21,0,0,0-13.91,3.32c-3.82,3.16-4.1,7.67-4.1,10.83l-8.74-6.79c-.73-.55,5.34-14.51,21.37-9.65a36.27,36.27,0,0,1,5.38,2.3Z" fill="#fff" stroke="#000" fill-rule="evenodd"/><path d="M340.88,244.15,338,247.41s.32-1.54-.8-1.95l-1.13-.39s-7.68,7.16-9.14,8.43-.37,2.68-.69,2.65-4-2.28-4-2.28a4,4,0,0,0,3-.69c1.2-1,9.7-8.68,9.7-8.68s-.92-.51-1.69-1-2.34,1.05-2.34,1.05l3.91-3.89s-.54,1.38.13,1.73,1.19.71,1.19.71,1-.9,2.2-1.92a1.58,1.58,0,0,0,.05-2.28l3.35,2.22a8.57,8.57,0,0,0-2.39,1.17l-1.45,1.27a6.92,6.92,0,0,0,1.23.69A1.83,1.83,0,0,0,340.88,244.15Z" fill="#fff133" stroke="#000" fill-rule="evenodd"/><path d="M312.2,204.44l1.53-2.43a2.13,2.13,0,0,0,1.33,1.55l1.11.36s4.44-5.29,5.31-6.22-.52-2.08-.24-2,4.2,1.94,4.2,1.94-1.69-.33-2.41.42-5.72,6.39-5.72,6.39,1,.44,1.8.86,1.72-.72,1.72-.72l-2.18,2.88s0-1.06-.67-1.36-1.27-.6-1.27-.6-.58.66-1.31,1.41.67,1.78.67,1.78l-3.63-1.87a4.74,4.74,0,0,0,1.71-.82L315,205a11.22,11.22,0,0,0-1.3-.59A1.71,1.71,0,0,0,312.2,204.44Z" fill="#fff133" stroke="#000" fill-rule="evenodd"/><ellipse cx="472.01" cy="201.79" rx="4.59" ry="3.84" fill="silver" stroke="#000"/><path d="M468.77,201.79l-4.88,4.08,3.26,2.73,4.87-4.09C473.64,203.16,470.39,200.43,468.77,201.79Z" fill="#fff133" stroke="#000" fill-rule="evenodd"/><path d="M461.58,205.11l6.49,5.43a3,3,0,0,0,3.25-2.73h0c-1.41-2.8-3.24-4.17-6.49-5.44a3.27,3.27,0,0,0-3.25,2.72Z" fill="silver" stroke="#000" fill-rule="evenodd"/><path d="M462.28,204.52l-4.87,4.08L463.9,214l4.87-4.08c-.65-2.17-3.91-4.89-6.5-5.44Z" fill="#fff133" stroke="#000" fill-rule="evenodd"/><path d="M456.73,209.17l6.49,5.43a3,3,0,0,0,3.24-2.71c-1.41-2.81-3.24-4.18-6.5-5.44a3.26,3.26,0,0,0-3.25,2.72Z" fill="silver" stroke="#000" fill-rule="evenodd"/><path d="M374.62,277.9l6.49,5.43-22.73,19-6.5-5.44Z" fill="#fff133" fill-rule="evenodd"/><path d="M457.41,208.6,413,245.78l6.49,5.43L463.9,214c-.65-2.17-3.9-4.9-6.49-5.44Z" fill="#fff133" stroke="#000" fill-rule="evenodd"/><path d="M410.33,248l6.49,5.43a3,3,0,0,0,3.24-2.72c-1.41-2.8-3.24-4.17-6.49-5.44a3.27,3.27,0,0,0-3.25,2.72Z" fill="silver" stroke="#000" fill-rule="evenodd"/><path d="M410.33,248l-29.22,24.46,6.49,5.43,29.22-24.46c-.65-2.17-3.9-4.9-6.5-5.44Z" fill="#fff133" stroke="#000" fill-rule="evenodd"/><path d="M392.46,260.23l9.75,8.16a3,3,0,0,0,3.25-2.7v0s0-2.72-3.25-5.44a11,11,0,0,0-6.49-2.72A4.13,4.13,0,0,0,392.46,260.23Z" fill="#fff133" stroke="#000" fill-rule="evenodd"/><path d="M392.46,260.23,386,268.39l6.49,5.44,9.75-5.44c.37-.27,0-2.72-3.26-5.44A11.31,11.31,0,0,0,392.46,260.23Z" fill="#fff133" stroke="#000" fill-rule="evenodd"/><path d="M387.6,269.74c2.65-2.22,6.49-5.43,11.36-6.8-1.63,4.08-5.47,7.3-8.12,9.51Z" fill="#fff133" stroke="#000" fill-rule="evenodd"/><path d="M392.47,273.82l-1.62-1.36,3.25-2.71c3.24-2.72,8.11-1.37,8.11-1.37Z" fill="#fff133" stroke="#000" fill-rule="evenodd"/><path d="M386,268.38l1.62,1.36,3.24-2.72c3.25-2.71,1.63-6.79,1.63-6.79Z" fill="#fff133" stroke="#000" fill-rule="evenodd"/><path d="M377.86,280.61a105.18,105.18,0,0,1-14.61,15,11.59,11.59,0,0,1-6.5,2.71s0-2.71,3.25-5.44a115.43,115.43,0,0,1,17.85-12.22ZM386,268.39c-11.37,9.51-24.36,15-32.48,21.75-6.49,5.43-2,9.59-.19,10.9s6.74,5.46,13.18,0c8.11-6.78,14.61-17.65,26-27.17C392.48,271.11,389.23,268.39,386,268.39Z" fill="#fff133" stroke="#000" fill-rule="evenodd"/><path d="M457.41,208.6l-4.87,4.08c-3.24,2.71-14.62,14.93-14.62,14.93s-15.19,10-18.43,12.73l-4.88,4.09c3.25-2.72,23.31-14.09,23.31-14.09S426,245.79,421.11,249.86l4.87-4.08c3.25-2.71,15.21-15.44,15.21-15.44s13-8.15,16.22-10.87l6.5-5.44c-3.24,2.72-22.72,13.6-22.72,13.6S454.17,211.31,457.41,208.6Z" fill="silver" stroke="#000" fill-rule="evenodd"/><path d="M346.3,297.67l3.72-3.55,12.86,10.44-3.72,3.54Z" fill="#fff133" stroke="#000" fill-rule="evenodd"/><path d="M348.39,328.54c0,3,8.71,7.27,8.71-3.62h-8.71Z" fill="#fff133" stroke="#000" fill-rule="evenodd"/><path d="M325.13,299.55c-36.18,0-27.83,33.6-24.71,25.37,2.31-6,8.74-14.49,16-16.41,9.89-2.62,6.57,1.92,10.16,1.92s.3-4.54,10.19-1.92c7.26,1.92,13.69,10.37,16,16.41C355.9,333.17,365.81,299.55,325.13,299.55Z" fill="#fff133" stroke="#000" fill-rule="evenodd"/><path d="M361.48,328.54c-.51,16-16.54,28.67-35.81,28.24-18.55-.41-33.47-12.81-34-28.24v-3.62c0-5.93,8.71,25.38,34.87,25.38s34.9-25.52,34.9-25.38Z" fill="#fff133" stroke="#000" fill-rule="evenodd"/><ellipse cx="296.47" cy="302.69" rx="3.88" ry="4.8" transform="translate(-62.39 527.94) rotate(-77.71)" fill="silver" stroke="#000"/><path d="M342.25,300.48l4.08-3.88,14.15,11.45-4.08,3.88Z" fill="silver" stroke="#000" fill-rule="evenodd"/><path d="M304.8,328.77c0,3-8.71,7.27-8.71-3.62h8.71Z" fill="#fff133" stroke="#000" fill-rule="evenodd"/><path d="M361.48,324.92c0,16-15.62,29-34.9,29s-34.9-13-34.9-29,15.63-29,34.9-29S361.48,308.89,361.48,324.92Zm-13.09,0c0,3,5.61.62,2.31,8.8-2,5.51-7.25,9.77-13.93,11.26-9.89,2.6-6.57-1.93-10.19-1.93s-.27,4.53-10.16,1.93c-6.8-1.52-12.1-5.94-13.93-11.59-3.15-8.22,2.29-5.46,2.29-8.47s-5.42-.22-2.29-8.45c1.83-5.65,7.13-10.06,13.93-11.58,9.89-2.62,6.57,1.9,10.16,1.9s.3-4.5,10.19-1.9c6.79,1.52,12.1,5.93,13.93,11.58C353.83,324.7,348.39,321.91,348.39,324.92Z" fill="#fff133" stroke="#000" fill-rule="evenodd"/><path d="M300.42,324.93c-4.35,0-.41,12.91-1.94,9.87a21.7,21.7,0,0,1,0-19.75C300,312,296.07,324.93,300.42,324.93Z" fill="#fff133" stroke="#000" fill-rule="evenodd"/><path d="M357.1,324.93a17.73,17.73,0,0,1-2.39,9.88c-2,3,2.42-9.88-2-9.88,4.35,0,.41-12.91,2-9.87a21.74,21.74,0,0,1,2.42,9.87Z" fill="#fff133" stroke="#000" fill-rule="evenodd"/><path d="M338.47,348.29a36.08,36.08,0,0,1-23.75,0c-3.67-1.27,11.86,2,11.86-1.61,0,3.62,15.53.34,11.89,1.63Zm-11.89-45.1c0-3.62-15.5-.35-11.86-1.64a36,36,0,0,1,23.75,0C342.11,302.84,326.58,299.57,326.58,303.19Z" fill="#fff133" stroke="#000" fill-rule="evenodd"/><path d="M306.32,301.29a32.14,32.14,0,0,0-9.56,8.56l-1.52-.75a33.75,33.75,0,0,1,10.06-9Z" fill="silver" stroke="#000" fill-rule="evenodd"/><path d="M356.36,340a32,32,0,0,1-9.57,8.56l1,1.2a33.75,33.75,0,0,0,10.06-9Z" fill="silver" stroke="#000" fill-rule="evenodd"/><path d="M358.62,344.23a35.62,35.62,0,0,1-10.45,8.27l-.39-2.75a33.65,33.65,0,0,0,10.06-9l.8,3.5Z" fill="silver" stroke="#000" fill-rule="evenodd"/><path d="M308.51,349.81a33.22,33.22,0,0,1-10.29-7.95l-1.45.84a35,35,0,0,0,10.82,8.36Z" fill="silver" stroke="#000" fill-rule="evenodd"/><ellipse cx="357.17" cy="349.81" rx="3.88" ry="4.8" transform="translate(-60.65 624.34) rotate(-77.71)" fill="silver" stroke="#000"/><path d="M307.51,350.89a32.09,32.09,0,0,1-5.35-3.3,41,41,0,0,1-5.37-4.91l-.41,3.26a34.85,34.85,0,0,0,10.81,8.36Z" fill="silver" stroke="#000" fill-rule="evenodd"/><path d="M308.37,350.09l-.22,3-.79.92.25-3.07.74-.88Zm38.52-1.27.88.86.25,2.79-.71-.62Z" fill="silver" stroke="#000" fill-rule="evenodd"/><ellipse cx="299.06" cy="351.5" rx="3.88" ry="4.8" transform="translate(-108.04 568.89) rotate(-77.71)" fill="silver" stroke="#000"/><path d="M459.51,214.14l5.26,4.3-5.26,4.31,2.62,2.15,5.26-4.31,10.55,8.64-5.26,4.31,2.62,2.14,5.26-4.31,5.29,4.31L470,248.63,459.51,240l5.26-4.33,2.65,2.16,2.61-2.16-10.52-8.62-2.65,2.17,2.65,2.14-5.26,4.31L449,231.37l2.62-2.14L449,227.06l-10.55,8.62,2.64,2.16,2.62-2.16L449,240l-5.29,4.31-2.62-2.17-2.64,2.17L449,252.94l2.62-2.17L449,248.63l5.27-4.31,10.52,8.62L449,265.86l-5.29-4.31,5.29-4.31-2.67-2.14-5.24,4.31-10.55-8.64,5.29-4.31-2.65-2.14-5.26,4.31-5.26-4.31,36.87-30.18Z" fill="#fff133" stroke="#000" stroke-width="0.6" fill-rule="evenodd"/><path d="M443.7,261.56v4.3l13.18,10.79V268l-2.64-2.17H449l-5.25-4.3Z" fill="#fff133" stroke="#000" stroke-width="1.3" fill-rule="evenodd"/><path d="M430.53,250.87,441,259.44l.12,4.28L430.53,255Z" fill="#fff133" stroke="#000" stroke-width="1.3" fill-rule="evenodd"/><path d="M441.07,263.71l5.27-4.31v-4.31l-5.27,4.31Z" fill="#fff133" stroke="#000" stroke-width="1.3" fill-rule="evenodd"/><path d="M427.89,252.93l5.27-4.31v-4.31l-5.27,4.31Z" fill="#fff133" stroke="#000" stroke-width="1.3" fill-rule="evenodd"/><path d="M433.16,244.31v4.31l2.65-2.16Z" fill="#fff133" stroke="#000" stroke-width="1.3" fill-rule="evenodd"/><path d="M446.33,255.09v4.31l2.65-2.15Z" fill="#fff133" stroke="#000" stroke-width="1.3" fill-rule="evenodd"/><path d="M422.58,244.31l5.32,4.31v4.3l-5.32-4.44Z" fill="#fff133" stroke="#000" stroke-width="1.3" fill-rule="evenodd"/><path d="M454.24,240l5.26-4.31v-4.31l-5.26,4.31Z" fill="#fff133" stroke="#000" stroke-width="1.3" fill-rule="evenodd"/><path d="M443.7,248.62l5.27-4.31V240l-5.27,4.31Z" fill="#fff133" stroke="#000" stroke-width="1.3" fill-rule="evenodd"/><path d="M441.07,237.83l7.9-6.46v-4.31l-10.55,8.62,2.65,2.16Z" fill="#fff133" stroke="#000" stroke-width="1.3" fill-rule="evenodd"/><path d="M449,227.06v4.31l2.65-2.15Z" fill="#fff133" stroke="#000" stroke-width="1.3" fill-rule="evenodd"/><path d="M454.24,240,449,235.7v-4.31l5.26,4.31V240Z" fill="#fff133" stroke="#000" stroke-width="1.3" fill-rule="evenodd"/><path d="M467.41,237.83l-7.91-6.45v-4.31L470,235.69l-2.63,2.17Z" fill="#fff133" stroke="#000" stroke-width="1.3" fill-rule="evenodd"/><path d="M459.5,240,470,248.63h5.26l2.63,2.14v8.63L459.5,244.26V240Z" fill="#fff133" stroke="#000" stroke-width="1.3" fill-rule="evenodd"/><path d="M449,265.86l15.8-12.93h5.28l-15.81,12.93Zm7.91,2.17,15.8-12.94-2.63-2.15-15.81,12.92,2.64,2.16Z" fill="#fff133" stroke="#000" stroke-width="1.3" fill-rule="evenodd"/><path d="M456.88,268v8.62l15.8-12.94v-8.62Z" fill="#fff133" stroke="#000" stroke-width="1.3" fill-rule="evenodd"/><path d="M470,248.62l15.8-12.94h5.28l-15.8,12.94Zm7.91,2.16,15.8-12.94-2.63-2.15-15.8,12.93,2.63,2.15Z" fill="#fff133" stroke="#000" stroke-width="1.3" fill-rule="evenodd"/><path d="M478,250.78v8.62l15.8-12.94v-8.62Z" fill="#fff133" stroke="#000" stroke-width="1.3" fill-rule="evenodd"/><path d="M475.31,235.68l2.63-2.15v-4.31l-5.26,4.31Z" fill="#fff133" stroke="#000" stroke-width="1.3" fill-rule="evenodd"/><path d="M462.13,224.9l2.63-2.15v-4.31l-5.26,4.31Z" fill="#fff133" stroke="#000" stroke-width="1.3" fill-rule="evenodd"/><path d="M449,252.94v-4.31l2.63,2.15Z" fill="#fff133" stroke="#000" stroke-width="1.3" fill-rule="evenodd"/><path d="M443.7,248.62l-5.26-4.3,2.63-2.15,2.63,2.15v4.31Z" fill="#fff133" stroke="#000" stroke-width="1.3" fill-rule="evenodd"/><path d="M459.5,231.37l-2.63-2.15,2.63-2.16Z" fill="#fff133" stroke="#000" stroke-width="1.3" fill-rule="evenodd"/><path d="M381,287.27a.72.72,0,0,0-1.13.32,1.66,1.66,0,0,0,.7,1.47l2.51,1.58a.73.73,0,0,0,1.13-.33,1.6,1.6,0,0,0-.7-1.47L381,287.27Z" fill="#b00" stroke="#000" stroke-width="20" fill-rule="evenodd"/><path d="M381,285.44a.74.74,0,0,0-1.13.36,1.61,1.61,0,0,0,.72,1.45l2.53,1.49a.72.72,0,0,0,1.12-.36,1.57,1.57,0,0,0-.71-1.45L381,285.44Z" fill="#b00" stroke="#000" stroke-width="20" fill-rule="evenodd"/><path d="M381,283.37a.72.72,0,0,0-1.13.32,1.66,1.66,0,0,0,.7,1.47l2.51,1.58a.72.72,0,0,0,1.13-.33,1.6,1.6,0,0,0-.7-1.47L381,283.37Z" fill="#b00" stroke="#000" stroke-width="20" fill-rule="evenodd"/><path d="M381.06,281.54a.74.74,0,0,0-1.13.36,1.61,1.61,0,0,0,.72,1.45l2.53,1.49a.72.72,0,0,0,1.12-.36,1.57,1.57,0,0,0-.71-1.45l-2.53-1.49Z" fill="#b00" stroke="#000" stroke-width="20" fill-rule="evenodd"/><path d="M380.9,295a.72.72,0,0,0-1.13.32,1.66,1.66,0,0,0,.7,1.47l2.51,1.58a.72.72,0,0,0,1.13-.33,1.6,1.6,0,0,0-.7-1.47L380.9,295Z" fill="#b00" stroke="#000" stroke-width="20" fill-rule="evenodd"/><path d="M380.86,293.14a.74.74,0,0,0-1.13.36,1.61,1.61,0,0,0,.72,1.45l2.53,1.49a.72.72,0,0,0,1.12-.36,1.57,1.57,0,0,0-.71-1.45l-2.53-1.49Z" fill="#b00" stroke="#000" stroke-width="20" fill-rule="evenodd"/><path d="M380.9,291.07a.72.72,0,0,0-1.13.32,1.66,1.66,0,0,0,.7,1.47l2.51,1.58a.72.72,0,0,0,1.13-.33,1.6,1.6,0,0,0-.7-1.47l-2.51-1.57Z" fill="#b00" stroke="#000" stroke-width="20" fill-rule="evenodd"/><path d="M381,289.24a.74.74,0,0,0-1.13.36,1.61,1.61,0,0,0,.72,1.45l2.53,1.49a.72.72,0,0,0,1.12-.36,1.57,1.57,0,0,0-.71-1.45L381,289.24Z" fill="#b00" stroke="#000" stroke-width="20" fill-rule="evenodd"/><path d="M381.1,271.87a.72.72,0,0,0-1.13.32,1.66,1.66,0,0,0,.7,1.47l2.51,1.58a.72.72,0,0,0,1.13-.33,1.6,1.6,0,0,0-.7-1.47l-2.51-1.57Z" fill="#b00" stroke="#000" stroke-width="20" fill-rule="evenodd"/><path d="M381.06,270a.74.74,0,0,0-1.13.36,1.61,1.61,0,0,0,.72,1.45l2.53,1.49a.72.72,0,0,0,1.12-.36,1.57,1.57,0,0,0-.71-1.45L381.06,270Z" fill="#b00" stroke="#000" stroke-width="20" fill-rule="evenodd"/><path d="M381.1,268a.72.72,0,0,0-1.13.32,1.66,1.66,0,0,0,.7,1.47l2.51,1.58a.72.72,0,0,0,1.13-.33,1.6,1.6,0,0,0-.7-1.47L381.1,268Z" fill="#b00" stroke="#000" stroke-width="20" fill-rule="evenodd"/><path d="M381.16,266.24a.74.74,0,0,0-1.13.36,1.61,1.61,0,0,0,.72,1.45l2.53,1.49a.72.72,0,0,0,1.12-.36,1.57,1.57,0,0,0-.71-1.45l-2.53-1.49Z" fill="#b00" stroke="#000" stroke-width="20" fill-rule="evenodd"/><path d="M381.1,279.57a.72.72,0,0,0-1.13.32,1.66,1.66,0,0,0,.7,1.47l2.51,1.58a.72.72,0,0,0,1.13-.33,1.6,1.6,0,0,0-.7-1.47l-2.51-1.57Z" fill="#b00" stroke="#000" stroke-width="20" fill-rule="evenodd"/><path d="M381.06,277.74a.74.74,0,0,0-1.13.36,1.61,1.61,0,0,0,.72,1.45l2.53,1.49a.72.72,0,0,0,1.12-.36,1.57,1.57,0,0,0-.71-1.45l-2.53-1.49Z" fill="#b00" stroke="#000" stroke-width="20" fill-rule="evenodd"/><path d="M381.1,275.67A.72.72,0,0,0,380,276a1.66,1.66,0,0,0,.7,1.47l2.51,1.58a.72.72,0,0,0,1.13-.33,1.6,1.6,0,0,0-.7-1.47l-2.51-1.57Z" fill="#b00" stroke="#000" stroke-width="20" fill-rule="evenodd"/><path d="M381.06,273.84a.74.74,0,0,0-1.13.36,1.61,1.61,0,0,0,.72,1.45l2.53,1.49a.72.72,0,0,0,1.12-.36,1.57,1.57,0,0,0-.71-1.45l-2.53-1.49Z" fill="#b00" stroke="#000" stroke-width="20" fill-rule="evenodd"/><path d="M380.7,318a.72.72,0,0,0-1.13.32,1.66,1.66,0,0,0,.7,1.47l2.51,1.58a.72.72,0,0,0,1.13-.33,1.6,1.6,0,0,0-.7-1.47L380.7,318Z" fill="#b00" stroke="#000" stroke-width="20" fill-rule="evenodd"/><path d="M380.66,316.14a.74.74,0,0,0-1.13.36,1.61,1.61,0,0,0,.72,1.45l2.53,1.49a.72.72,0,0,0,1.12-.36,1.57,1.57,0,0,0-.71-1.45l-2.53-1.49Z" fill="#b00" stroke="#000" stroke-width="20" fill-rule="evenodd"/><path d="M380.7,314.17a.72.72,0,0,0-1.13.32,1.66,1.66,0,0,0,.7,1.47l2.51,1.58a.72.72,0,0,0,1.13-.33,1.6,1.6,0,0,0-.7-1.47l-2.51-1.57Z" fill="#b00" stroke="#000" stroke-width="20" fill-rule="evenodd"/><path d="M380.66,312.34a.74.74,0,0,0-1.13.36,1.61,1.61,0,0,0,.72,1.45l2.53,1.49a.72.72,0,0,0,1.12-.36,1.57,1.57,0,0,0-.71-1.45l-2.53-1.49Z" fill="#b00" stroke="#000" stroke-width="20" fill-rule="evenodd"/><path d="M380.6,325.67a.72.72,0,0,0-1.13.32,1.66,1.66,0,0,0,.7,1.47l2.51,1.58a.72.72,0,0,0,1.13-.33,1.6,1.6,0,0,0-.7-1.47l-2.51-1.57Z" fill="#b00" stroke="#000" stroke-width="20" fill-rule="evenodd"/><path d="M380.56,323.84a.74.74,0,0,0-1.13.36,1.61,1.61,0,0,0,.72,1.45l2.53,1.49a.72.72,0,0,0,1.12-.36,1.57,1.57,0,0,0-.71-1.45l-2.53-1.49Z" fill="#b00" stroke="#000" stroke-width="20" fill-rule="evenodd"/><path d="M380.6,321.87a.72.72,0,0,0-1.13.32,1.66,1.66,0,0,0,.7,1.47l2.51,1.58a.72.72,0,0,0,1.13-.33,1.6,1.6,0,0,0-.7-1.47l-2.51-1.57Z" fill="#b00" stroke="#000" stroke-width="20" fill-rule="evenodd"/><path d="M380.56,319.94a.74.74,0,0,0-1.13.36,1.61,1.61,0,0,0,.72,1.45l2.53,1.49a.72.72,0,0,0,1.12-.36,1.57,1.57,0,0,0-.71-1.45l-2.53-1.49Z" fill="#b00" stroke="#000" stroke-width="20" fill-rule="evenodd"/><path d="M380.8,302.57a.72.72,0,0,0-1.13.32,1.66,1.66,0,0,0,.7,1.47l2.51,1.58a.72.72,0,0,0,1.13-.33,1.6,1.6,0,0,0-.7-1.47l-2.51-1.57Z" fill="#b00" stroke="#000" stroke-width="20" fill-rule="evenodd"/><path d="M380.76,300.84a.74.74,0,0,0-1.13.36,1.61,1.61,0,0,0,.72,1.45l2.53,1.49a.72.72,0,0,0,1.12-.36,1.57,1.57,0,0,0-.71-1.45l-2.53-1.49Z" fill="#b00" stroke="#000" stroke-width="20" fill-rule="evenodd"/><path d="M380.9,298.77a.72.72,0,0,0-1.13.32,1.66,1.66,0,0,0,.7,1.47l2.51,1.58a.73.73,0,0,0,1.13-.33,1.6,1.6,0,0,0-.7-1.47l-2.51-1.57Z" fill="#b00" stroke="#000" stroke-width="20" fill-rule="evenodd"/><path d="M380.86,296.94a.74.74,0,0,0-1.13.36,1.61,1.61,0,0,0,.72,1.45l2.53,1.49a.72.72,0,0,0,1.12-.36,1.57,1.57,0,0,0-.71-1.45l-2.53-1.49Z" fill="#b00" stroke="#000" stroke-width="20" fill-rule="evenodd"/><path d="M380.7,310.27a.72.72,0,0,0-1.13.32,1.66,1.66,0,0,0,.7,1.47l2.51,1.58a.73.73,0,0,0,1.13-.33,1.6,1.6,0,0,0-.7-1.47l-2.51-1.57Z" fill="#b00" stroke="#000" stroke-width="20" fill-rule="evenodd"/><path d="M380.76,308.44a.74.74,0,0,0-1.13.36,1.61,1.61,0,0,0,.72,1.45l2.53,1.49a.72.72,0,0,0,1.12-.36,1.57,1.57,0,0,0-.71-1.45l-2.53-1.49Z" fill="#b00" stroke="#000" stroke-width="20" fill-rule="evenodd"/><path d="M380.8,306.47a.72.72,0,0,0-1.13.32,1.66,1.66,0,0,0,.7,1.47l2.51,1.58a.72.72,0,0,0,1.13-.33,1.6,1.6,0,0,0-.7-1.47l-2.51-1.57Z" fill="#b00" stroke="#000" stroke-width="20" fill-rule="evenodd"/><path d="M380.76,304.64a.74.74,0,0,0-1.13.36,1.61,1.61,0,0,0,.72,1.45l2.53,1.49a.72.72,0,0,0,1.12-.36,1.57,1.57,0,0,0-.71-1.45l-2.53-1.49Z" fill="#b00" stroke="#000" stroke-width="20" fill-rule="evenodd"/><path d="M380.3,348.77a.72.72,0,0,0-1.13.32,1.66,1.66,0,0,0,.7,1.47l2.51,1.58a.73.73,0,0,0,1.13-.33,1.6,1.6,0,0,0-.7-1.47l-2.51-1.57Z" fill="#b00" stroke="#000" stroke-width="20" fill-rule="evenodd"/><path d="M380.36,346.84a.74.74,0,0,0-1.13.36,1.61,1.61,0,0,0,.72,1.45l2.53,1.49a.72.72,0,0,0,1.12-.36,1.57,1.57,0,0,0-.71-1.45l-2.53-1.49Z" fill="#b00" stroke="#000" stroke-width="20" fill-rule="evenodd"/><path d="M380.4,345a.72.72,0,0,0-1.13.32,1.66,1.66,0,0,0,.7,1.47l2.51,1.58a.72.72,0,0,0,1.13-.33,1.6,1.6,0,0,0-.7-1.47L380.4,345Z" fill="#b00" stroke="#000" stroke-width="20" fill-rule="evenodd"/><path d="M380.36,343a.74.74,0,0,0-1.13.36,1.61,1.61,0,0,0,.72,1.45l2.53,1.49a.72.72,0,0,0,1.12-.36,1.57,1.57,0,0,0-.71-1.45L380.36,343Z" fill="#b00" stroke="#000" stroke-width="20" fill-rule="evenodd"/><path d="M380.26,354.64a.74.74,0,0,0-1.13.36,1.61,1.61,0,0,0,.72,1.45l2.53,1.49a.72.72,0,0,0,1.12-.36,1.57,1.57,0,0,0-.71-1.45l-2.53-1.49Z" fill="#b00" stroke="#000" stroke-width="20" fill-rule="evenodd"/><path d="M380.3,352.57a.72.72,0,0,0-1.13.32,1.66,1.66,0,0,0,.7,1.47l2.51,1.58a.72.72,0,0,0,1.13-.33,1.6,1.6,0,0,0-.7-1.47l-2.51-1.57Z" fill="#b00" stroke="#000" stroke-width="20" fill-rule="evenodd"/><path d="M380.26,350.74a.74.74,0,0,0-1.13.36,1.61,1.61,0,0,0,.72,1.45l2.53,1.49a.72.72,0,0,0,1.12-.36,1.57,1.57,0,0,0-.71-1.45l-2.53-1.49Z" fill="#b00" stroke="#000" stroke-width="20" fill-rule="evenodd"/><path d="M380.5,333.37a.72.72,0,0,0-1.13.32,1.66,1.66,0,0,0,.7,1.47l2.51,1.58a.72.72,0,0,0,1.13-.33,1.6,1.6,0,0,0-.7-1.47l-2.51-1.57Z" fill="#b00" stroke="#000" stroke-width="20" fill-rule="evenodd"/><path d="M380.46,331.54a.74.74,0,0,0-1.13.36,1.61,1.61,0,0,0,.72,1.45l2.53,1.49a.72.72,0,0,0,1.12-.36A1.57,1.57,0,0,0,383,333l-2.53-1.49Z" fill="#b00" stroke="#000" stroke-width="20" fill-rule="evenodd"/><path d="M380.5,329.57a.72.72,0,0,0-1.13.32,1.66,1.66,0,0,0,.7,1.47l2.51,1.58a.72.72,0,0,0,1.13-.33,1.6,1.6,0,0,0-.7-1.47l-2.51-1.57Z" fill="#b00" stroke="#000" stroke-width="20" fill-rule="evenodd"/><path d="M380.56,327.64a.74.74,0,0,0-1.13.36,1.61,1.61,0,0,0,.72,1.45l2.53,1.49a.72.72,0,0,0,1.12-.36,1.57,1.57,0,0,0-.71-1.45l-2.53-1.49Z" fill="#b00" stroke="#000" stroke-width="20" fill-rule="evenodd"/><path d="M380.4,341a.72.72,0,0,0-1.13.32,1.66,1.66,0,0,0,.7,1.47l2.51,1.58a.72.72,0,0,0,1.13-.33,1.6,1.6,0,0,0-.7-1.47L380.4,341Z" fill="#b00" stroke="#000" stroke-width="20" fill-rule="evenodd"/><path d="M380.36,339.24a.74.74,0,0,0-1.13.36,1.61,1.61,0,0,0,.72,1.45l2.53,1.49a.72.72,0,0,0,1.12-.36,1.57,1.57,0,0,0-.71-1.45l-2.53-1.49Z" fill="#b00" stroke="#000" stroke-width="20" fill-rule="evenodd"/><path d="M380.5,337.17a.72.72,0,0,0-1.13.32,1.66,1.66,0,0,0,.7,1.47l2.51,1.58a.72.72,0,0,0,1.13-.33,1.6,1.6,0,0,0-.7-1.47l-2.51-1.57Z" fill="#b00" stroke="#000" stroke-width="20" fill-rule="evenodd"/><path d="M380.46,335.34a.74.74,0,0,0-1.13.36,1.61,1.61,0,0,0,.72,1.45l2.53,1.49a.72.72,0,0,0,1.12-.36,1.57,1.57,0,0,0-.71-1.45l-2.53-1.49Z" fill="#b00" stroke="#000" stroke-width="20" fill-rule="evenodd"/><path d="M380.1,368a.72.72,0,0,0-1.13.32,1.66,1.66,0,0,0,.7,1.47l2.51,1.58a.72.72,0,0,0,1.13-.33,1.6,1.6,0,0,0-.7-1.47L380.1,368Z" fill="#b00" stroke="#000" stroke-width="20" fill-rule="evenodd"/><path d="M380.06,366.24a.74.74,0,0,0-1.13.36,1.61,1.61,0,0,0,.72,1.45l2.53,1.49a.72.72,0,0,0,1.12-.36,1.57,1.57,0,0,0-.71-1.45l-2.53-1.49Z" fill="#b00" stroke="#000" stroke-width="20" fill-rule="evenodd"/><path d="M380.1,364.17a.72.72,0,0,0-1.13.32,1.66,1.66,0,0,0,.7,1.47l2.51,1.58a.72.72,0,0,0,1.13-.33,1.6,1.6,0,0,0-.7-1.47l-2.51-1.57Z" fill="#b00" stroke="#000" stroke-width="20" fill-rule="evenodd"/><path d="M380.16,362.34a.74.74,0,0,0-1.13.36,1.61,1.61,0,0,0,.72,1.45l2.53,1.49a.72.72,0,0,0,1.12-.36,1.57,1.57,0,0,0-.71-1.45l-2.53-1.49Z" fill="#b00" stroke="#000" stroke-width="20" fill-rule="evenodd"/><path d="M380.06,373.84a.74.74,0,0,0-1.13.36,1.61,1.61,0,0,0,.72,1.45l2.53,1.49a.72.72,0,0,0,1.12-.36,1.57,1.57,0,0,0-.71-1.45l-2.53-1.49Z" fill="#b00" stroke="#000" stroke-width="20" fill-rule="evenodd"/><path d="M380.1,372a.72.72,0,0,0-1.13.32,1.66,1.66,0,0,0,.7,1.47l2.51,1.58a.72.72,0,0,0,1.13-.33,1.6,1.6,0,0,0-.7-1.47L380.1,372Z" fill="#b00" stroke="#000" stroke-width="20" fill-rule="evenodd"/><path d="M380.06,370a.74.74,0,0,0-1.13.36,1.61,1.61,0,0,0,.72,1.45l2.53,1.49a.72.72,0,0,0,1.12-.36,1.57,1.57,0,0,0-.71-1.45L380.06,370Z" fill="#b00" stroke="#000" stroke-width="20" fill-rule="evenodd"/><path d="M380.2,360.37a.72.72,0,0,0-1.13.32,1.66,1.66,0,0,0,.7,1.47l2.51,1.58a.72.72,0,0,0,1.13-.33,1.6,1.6,0,0,0-.7-1.47l-2.51-1.57Z" fill="#b00" stroke="#000" stroke-width="20" fill-rule="evenodd"/><path d="M380.16,358.54a.74.74,0,0,0-1.13.36,1.61,1.61,0,0,0,.72,1.45l2.53,1.49a.72.72,0,0,0,1.12-.36,1.57,1.57,0,0,0-.71-1.45l-2.53-1.49Z" fill="#b00" stroke="#000" stroke-width="20" fill-rule="evenodd"/><path d="M380.2,356.57a.72.72,0,0,0-1.13.32,1.66,1.66,0,0,0,.7,1.47l2.51,1.58a.72.72,0,0,0,1.13-.33,1.6,1.6,0,0,0-.7-1.47l-2.51-1.57Z" fill="#b00" stroke="#000" stroke-width="20" fill-rule="evenodd"/><path d="M383.55,287.43a.72.72,0,0,0-1.12.34,1.61,1.61,0,0,0,.72,1.46l2.53,1.55a.71.71,0,0,0,1.12-.33,1.62,1.62,0,0,0-.72-1.47l-2.53-1.55Z" fill="#b00" stroke="#000" stroke-width="20" fill-rule="evenodd"/><path d="M383.5,285.6a.73.73,0,0,0-1.12.37,1.62,1.62,0,0,0,.74,1.44l2.55,1.47a.73.73,0,0,0,1.12-.37,1.57,1.57,0,0,0-.74-1.44l-2.55-1.47Z" fill="#b00" stroke="#000" stroke-width="20" fill-rule="evenodd"/><path d="M383.55,283.63a.72.72,0,0,0-1.12.34,1.61,1.61,0,0,0,.72,1.46l2.53,1.55a.71.71,0,0,0,1.12-.33,1.62,1.62,0,0,0-.72-1.47l-2.53-1.55Z" fill="#b00" stroke="#000" stroke-width="20" fill-rule="evenodd"/><path d="M383.5,281.8a.73.73,0,0,0-1.12.37,1.62,1.62,0,0,0,.74,1.44l2.55,1.47a.73.73,0,0,0,1.12-.37,1.57,1.57,0,0,0-.74-1.44l-2.55-1.47Z" fill="#b00" stroke="#000" stroke-width="20" fill-rule="evenodd"/><path d="M383.55,295.13a.72.72,0,0,0-1.12.34,1.61,1.61,0,0,0,.72,1.46l2.53,1.55a.71.71,0,0,0,1.12-.33,1.62,1.62,0,0,0-.72-1.47l-2.53-1.55Z" fill="#b00" stroke="#000" stroke-width="20" fill-rule="evenodd"/><path d="M383.5,293.3a.73.73,0,0,0-1.12.37,1.62,1.62,0,0,0,.74,1.44l2.55,1.47a.73.73,0,0,0,1.12-.37,1.57,1.57,0,0,0-.74-1.44l-2.55-1.47Z" fill="#b00" stroke="#000" stroke-width="20" fill-rule="evenodd"/><path d="M383.55,291.33a.72.72,0,0,0-1.12.34,1.61,1.61,0,0,0,.72,1.46l2.53,1.55a.71.71,0,0,0,1.12-.33,1.62,1.62,0,0,0-.72-1.47l-2.53-1.55Z" fill="#b00" stroke="#000" stroke-width="20" fill-rule="evenodd"/><path d="M383.5,289.5a.73.73,0,0,0-1.12.37,1.62,1.62,0,0,0,.74,1.44l2.55,1.47a.73.73,0,0,0,1.12-.37,1.57,1.57,0,0,0-.74-1.44l-2.55-1.47Z" fill="#b00" stroke="#000" stroke-width="20" fill-rule="evenodd"/><path d="M383.45,272a.72.72,0,0,0-1.12.34,1.61,1.61,0,0,0,.72,1.46l2.53,1.55a.71.71,0,0,0,1.12-.33,1.62,1.62,0,0,0-.72-1.47L383.45,272Z" fill="#b00" stroke="#000" stroke-width="20" fill-rule="evenodd"/><path d="M383.5,270.2a.73.73,0,0,0-1.12.37,1.62,1.62,0,0,0,.74,1.44l2.55,1.47a.73.73,0,0,0,1.12-.37,1.57,1.57,0,0,0-.74-1.44l-2.55-1.47Z" fill="#b00" stroke="#000" stroke-width="20" fill-rule="evenodd"/><path d="M383.45,268.23a.72.72,0,0,0-1.12.34,1.61,1.61,0,0,0,.72,1.46l2.53,1.55a.71.71,0,0,0,1.12-.33,1.62,1.62,0,0,0-.72-1.47l-2.53-1.55Z" fill="#b00" stroke="#000" stroke-width="20" fill-rule="evenodd"/><path d="M383.4,266.4a.73.73,0,0,0-1.12.37,1.62,1.62,0,0,0,.74,1.44l2.55,1.47a.73.73,0,0,0,1.12-.37,1.57,1.57,0,0,0-.74-1.44l-2.55-1.47Z" fill="#b00" stroke="#000" stroke-width="20" fill-rule="evenodd"/><path d="M383.55,279.73a.72.72,0,0,0-1.12.34,1.61,1.61,0,0,0,.72,1.46l2.53,1.55a.71.71,0,0,0,1.12-.33,1.62,1.62,0,0,0-.72-1.47l-2.53-1.55Z" fill="#b00" stroke="#000" stroke-width="20" fill-rule="evenodd"/><path d="M383.5,277.9a.73.73,0,0,0-1.12.37,1.62,1.62,0,0,0,.74,1.44l2.55,1.47a.73.73,0,0,0,1.12-.37,1.57,1.57,0,0,0-.74-1.44l-2.55-1.47Z" fill="#b00" stroke="#000" stroke-width="20" fill-rule="evenodd"/><path d="M383.55,275.93a.72.72,0,0,0-1.12.34,1.61,1.61,0,0,0,.72,1.46l2.53,1.55a.71.71,0,0,0,1.12-.33,1.62,1.62,0,0,0-.72-1.47l-2.53-1.55Z" fill="#b00" stroke="#000" stroke-width="20" fill-rule="evenodd"/><path d="M383.5,274.1a.73.73,0,0,0-1.12.37,1.62,1.62,0,0,0,.74,1.44l2.55,1.47a.73.73,0,0,0,1.12-.37,1.57,1.57,0,0,0-.74-1.44l-2.55-1.47Z" fill="#b00" stroke="#000" stroke-width="20" fill-rule="evenodd"/><path d="M383.65,318.23a.72.72,0,0,0-1.12.34,1.61,1.61,0,0,0,.72,1.46l2.53,1.55a.71.71,0,0,0,1.12-.33,1.62,1.62,0,0,0-.72-1.47l-2.53-1.55Z" fill="#b00" stroke="#000" stroke-width="20" fill-rule="evenodd"/><path d="M383.6,316.4a.73.73,0,0,0-1.12.37,1.62,1.62,0,0,0,.74,1.44l2.55,1.47a.73.73,0,0,0,1.12-.37,1.57,1.57,0,0,0-.74-1.44l-2.55-1.47Z" fill="#b00" stroke="#000" stroke-width="20" fill-rule="evenodd"/><path d="M383.65,314.33a.72.72,0,0,0-1.12.34,1.61,1.61,0,0,0,.72,1.46l2.53,1.55a.71.71,0,0,0,1.12-.33,1.62,1.62,0,0,0-.72-1.47l-2.53-1.55Z" fill="#b00" stroke="#000" stroke-width="20" fill-rule="evenodd"/><path d="M383.6,312.5a.73.73,0,0,0-1.12.37,1.62,1.62,0,0,0,.74,1.44l2.55,1.47a.73.73,0,0,0,1.12-.37,1.57,1.57,0,0,0-.74-1.44l-2.55-1.47Z" fill="#b00" stroke="#000" stroke-width="20" fill-rule="evenodd"/><path d="M383.65,325.93a.72.72,0,0,0-1.12.34,1.61,1.61,0,0,0,.72,1.46l2.53,1.55a.71.71,0,0,0,1.12-.33,1.62,1.62,0,0,0-.72-1.47l-2.53-1.55Z" fill="#b00" stroke="#000" stroke-width="20" fill-rule="evenodd"/><path d="M383.6,324.1a.73.73,0,0,0-1.12.37,1.62,1.62,0,0,0,.74,1.44l2.55,1.47a.73.73,0,0,0,1.12-.37,1.57,1.57,0,0,0-.74-1.44l-2.55-1.47Z" fill="#b00" stroke="#000" stroke-width="20" fill-rule="evenodd"/><path d="M383.65,322a.72.72,0,0,0-1.12.34,1.61,1.61,0,0,0,.72,1.46l2.53,1.55a.71.71,0,0,0,1.12-.33,1.62,1.62,0,0,0-.72-1.47L383.65,322Z" fill="#b00" stroke="#000" stroke-width="20" fill-rule="evenodd"/><path d="M383.6,320.2a.73.73,0,0,0-1.12.37,1.62,1.62,0,0,0,.74,1.44l2.55,1.47a.73.73,0,0,0,1.12-.37,1.57,1.57,0,0,0-.74-1.44l-2.55-1.47Z" fill="#b00" stroke="#000" stroke-width="20" fill-rule="evenodd"/><path d="M383.65,302.83a.72.72,0,0,0-1.12.34,1.61,1.61,0,0,0,.72,1.46l2.53,1.55a.71.71,0,0,0,1.12-.33,1.62,1.62,0,0,0-.72-1.47l-2.53-1.55Z" fill="#b00" stroke="#000" stroke-width="20" fill-rule="evenodd"/><path d="M383.6,301a.73.73,0,0,0-1.12.37,1.62,1.62,0,0,0,.74,1.44l2.55,1.47a.73.73,0,0,0,1.12-.37,1.57,1.57,0,0,0-.74-1.44L383.6,301Z" fill="#b00" stroke="#000" stroke-width="20" fill-rule="evenodd"/><path d="M383.55,298.93a.72.72,0,0,0-1.12.34,1.61,1.61,0,0,0,.72,1.46l2.53,1.55a.71.71,0,0,0,1.12-.33,1.62,1.62,0,0,0-.72-1.47l-2.53-1.55Z" fill="#b00" stroke="#000" stroke-width="20" fill-rule="evenodd"/><path d="M383.6,297.1a.73.73,0,0,0-1.12.37,1.62,1.62,0,0,0,.74,1.44l2.55,1.47a.73.73,0,0,0,1.12-.37,1.57,1.57,0,0,0-.74-1.44l-2.55-1.47Z" fill="#b00" stroke="#000" stroke-width="20" fill-rule="evenodd"/><path d="M383.65,310.53a.72.72,0,0,0-1.12.34,1.61,1.61,0,0,0,.72,1.46l2.53,1.55a.71.71,0,0,0,1.12-.33,1.62,1.62,0,0,0-.72-1.47l-2.53-1.55Z" fill="#b00" stroke="#000" stroke-width="20" fill-rule="evenodd"/><path d="M383.6,308.7a.73.73,0,0,0-1.12.37,1.62,1.62,0,0,0,.74,1.44l2.55,1.47a.73.73,0,0,0,1.12-.37,1.57,1.57,0,0,0-.74-1.44l-2.55-1.47Z" fill="#b00" stroke="#000" stroke-width="20" fill-rule="evenodd"/><path d="M383.65,306.63a.72.72,0,0,0-1.12.34,1.61,1.61,0,0,0,.72,1.46l2.53,1.55a.71.71,0,0,0,1.12-.33,1.62,1.62,0,0,0-.72-1.47l-2.53-1.55Z" fill="#b00" stroke="#000" stroke-width="20" fill-rule="evenodd"/><path d="M383.6,304.8a.73.73,0,0,0-1.12.37,1.62,1.62,0,0,0,.74,1.44l2.55,1.47a.73.73,0,0,0,1.12-.37,1.57,1.57,0,0,0-.74-1.44l-2.55-1.47Z" fill="#b00" stroke="#000" stroke-width="20" fill-rule="evenodd"/><path d="M383.75,348.93a.72.72,0,0,0-1.12.34,1.61,1.61,0,0,0,.72,1.46l2.53,1.55A.71.71,0,0,0,387,352a1.62,1.62,0,0,0-.72-1.47l-2.53-1.55Z" fill="#b00" stroke="#000" stroke-width="20" fill-rule="evenodd"/><path d="M383.7,347.1a.73.73,0,0,0-1.12.37,1.62,1.62,0,0,0,.74,1.44l2.55,1.47A.73.73,0,0,0,387,350a1.57,1.57,0,0,0-.74-1.44l-2.55-1.47Z" fill="#b00" stroke="#000" stroke-width="20" fill-rule="evenodd"/><path d="M383.75,345.13a.72.72,0,0,0-1.12.34,1.61,1.61,0,0,0,.72,1.46l2.53,1.55a.71.71,0,0,0,1.12-.33,1.62,1.62,0,0,0-.72-1.47l-2.53-1.55Z" fill="#b00" stroke="#000" stroke-width="20" fill-rule="evenodd"/><path d="M383.7,343.3a.73.73,0,0,0-1.12.37,1.62,1.62,0,0,0,.74,1.44l2.55,1.47a.73.73,0,0,0,1.12-.37,1.57,1.57,0,0,0-.74-1.44l-2.55-1.47Z" fill="#b00" stroke="#000" stroke-width="20" fill-rule="evenodd"/><path d="M383.7,354.8a.73.73,0,0,0-1.12.37,1.62,1.62,0,0,0,.74,1.44l2.55,1.47a.73.73,0,0,0,1.12-.37,1.57,1.57,0,0,0-.74-1.44l-2.55-1.47Z" fill="#b00" stroke="#000" stroke-width="20" fill-rule="evenodd"/><path d="M383.75,352.83a.72.72,0,0,0-1.12.34,1.61,1.61,0,0,0,.72,1.46l2.53,1.55a.71.71,0,0,0,1.12-.33,1.62,1.62,0,0,0-.72-1.47l-2.53-1.55Z" fill="#b00" stroke="#000" stroke-width="20" fill-rule="evenodd"/><path d="M383.7,350.9a.73.73,0,0,0-1.12.37,1.62,1.62,0,0,0,.74,1.44l2.55,1.47a.73.73,0,0,0,1.12-.37,1.57,1.57,0,0,0-.74-1.44l-2.55-1.47Z" fill="#b00" stroke="#000" stroke-width="20" fill-rule="evenodd"/><path d="M383.65,333.53a.72.72,0,0,0-1.12.34,1.61,1.61,0,0,0,.72,1.46l2.53,1.55a.71.71,0,0,0,1.12-.33,1.62,1.62,0,0,0-.72-1.47l-2.53-1.55Z" fill="#b00" stroke="#000" stroke-width="20" fill-rule="evenodd"/><path d="M383.7,331.8a.73.73,0,0,0-1.12.37,1.62,1.62,0,0,0,.74,1.44l2.55,1.47a.73.73,0,0,0,1.12-.37,1.57,1.57,0,0,0-.74-1.44l-2.55-1.47Z" fill="#b00" stroke="#000" stroke-width="20" fill-rule="evenodd"/><path d="M383.65,329.73a.72.72,0,0,0-1.12.34,1.61,1.61,0,0,0,.72,1.46l2.53,1.55a.71.71,0,0,0,1.12-.33,1.62,1.62,0,0,0-.72-1.47l-2.53-1.55Z" fill="#b00" stroke="#000" stroke-width="20" fill-rule="evenodd"/><path d="M383.6,327.9a.73.73,0,0,0-1.12.37,1.62,1.62,0,0,0,.74,1.44l2.55,1.47a.73.73,0,0,0,1.12-.37,1.57,1.57,0,0,0-.74-1.44l-2.55-1.47Z" fill="#b00" stroke="#000" stroke-width="20" fill-rule="evenodd"/><path d="M383.75,341.23a.72.72,0,0,0-1.12.34,1.61,1.61,0,0,0,.72,1.46l2.53,1.55a.71.71,0,0,0,1.12-.33,1.62,1.62,0,0,0-.72-1.47l-2.53-1.55Z" fill="#b00" stroke="#000" stroke-width="20" fill-rule="evenodd"/><path d="M383.7,339.4a.73.73,0,0,0-1.12.37,1.62,1.62,0,0,0,.74,1.44l2.55,1.47a.73.73,0,0,0,1.12-.37,1.57,1.57,0,0,0-.74-1.44l-2.55-1.47Z" fill="#b00" stroke="#000" stroke-width="20" fill-rule="evenodd"/><path d="M383.75,337.43a.72.72,0,0,0-1.12.34,1.61,1.61,0,0,0,.72,1.46l2.53,1.55a.71.71,0,0,0,1.12-.33,1.62,1.62,0,0,0-.72-1.47l-2.53-1.55Z" fill="#b00" stroke="#000" stroke-width="20" fill-rule="evenodd"/><path d="M383.7,335.6a.73.73,0,0,0-1.12.37,1.62,1.62,0,0,0,.74,1.44l2.55,1.47a.73.73,0,0,0,1.12-.37,1.57,1.57,0,0,0-.74-1.44l-2.55-1.47Z" fill="#b00" stroke="#000" stroke-width="20" fill-rule="evenodd"/><path d="M383.85,368.23a.72.72,0,0,0-1.12.34,1.61,1.61,0,0,0,.72,1.46l2.53,1.55a.71.71,0,0,0,1.12-.33,1.62,1.62,0,0,0-.72-1.47l-2.53-1.55Z" fill="#b00" stroke="#000" stroke-width="20" fill-rule="evenodd"/><path d="M383.8,366.4a.73.73,0,0,0-1.12.37,1.62,1.62,0,0,0,.74,1.44l2.55,1.47a.73.73,0,0,0,1.12-.37,1.57,1.57,0,0,0-.74-1.44l-2.55-1.47Z" fill="#b00" stroke="#000" stroke-width="20" fill-rule="evenodd"/><path d="M383.75,364.43a.72.72,0,0,0-1.12.34,1.61,1.61,0,0,0,.72,1.46l2.53,1.55a.71.71,0,0,0,1.12-.33,1.62,1.62,0,0,0-.72-1.47l-2.53-1.55Z" fill="#b00" stroke="#000" stroke-width="20" fill-rule="evenodd"/><path d="M383.8,362.6a.73.73,0,0,0-1.12.37,1.62,1.62,0,0,0,.74,1.44l2.55,1.47a.73.73,0,0,0,1.12-.37,1.57,1.57,0,0,0-.74-1.44l-2.55-1.47Z" fill="#b00" stroke="#000" stroke-width="20" fill-rule="evenodd"/><path d="M383.8,374.1a.73.73,0,0,0-1.12.37,1.62,1.62,0,0,0,.74,1.44l2.55,1.47a.73.73,0,0,0,1.12-.37,1.57,1.57,0,0,0-.74-1.44l-2.55-1.47Z" fill="#b00" stroke="#000" stroke-width="20" fill-rule="evenodd"/><path d="M383.85,372.13a.72.72,0,0,0-1.12.34,1.61,1.61,0,0,0,.72,1.46l2.53,1.55a.71.71,0,0,0,1.12-.33,1.62,1.62,0,0,0-.72-1.47l-2.53-1.55Z" fill="#b00" stroke="#000" stroke-width="20" fill-rule="evenodd"/><path d="M383.8,370.3a.73.73,0,0,0-1.12.37,1.62,1.62,0,0,0,.74,1.44l2.55,1.47a.73.73,0,0,0,1.12-.37,1.57,1.57,0,0,0-.74-1.44l-2.55-1.47Z" fill="#b00" stroke="#000" stroke-width="20" fill-rule="evenodd"/><path d="M383.75,360.53a.72.72,0,0,0-1.12.34,1.61,1.61,0,0,0,.72,1.46l2.53,1.55a.71.71,0,0,0,1.12-.33,1.62,1.62,0,0,0-.72-1.47l-2.53-1.55Z" fill="#b00" stroke="#000" stroke-width="20" fill-rule="evenodd"/><path d="M383.7,358.8a.73.73,0,0,0-1.12.37,1.62,1.62,0,0,0,.74,1.44l2.55,1.47a.73.73,0,0,0,1.12-.37,1.57,1.57,0,0,0-.74-1.44l-2.55-1.47Z" fill="#b00" stroke="#000" stroke-width="20" fill-rule="evenodd"/><path d="M383.75,356.73a.72.72,0,0,0-1.12.34,1.61,1.61,0,0,0,.72,1.46l2.53,1.55a.71.71,0,0,0,1.12-.33,1.62,1.62,0,0,0-.72-1.47l-2.53-1.55Z" fill="#b00" stroke="#000" stroke-width="20" fill-rule="evenodd"/><path d="M392.39,274.85c-.57-.14-1.06.17-1,.62a2,2,0,0,0,1.31,1.2l3.16.79c.57.14,1.06-.17,1-.63a1.92,1.92,0,0,0-1.31-1.19l-3.16-.79Z" fill="#b00" stroke="#000" stroke-width="14.3" fill-rule="evenodd"/><path d="M393.23,275.31A.78.78,0,0,0,392,275a1.56,1.56,0,0,0-.55,1.53l.88,2.53a.78.78,0,0,0,1.19.32,1.51,1.51,0,0,0,.55-1.52l-.88-2.54Z" fill="#b00" stroke="#000" stroke-width="14.3" fill-rule="evenodd"/><path d="M393.07,275a.79.79,0,0,0-1.23.17,1.51,1.51,0,0,0,.43,1.55l2.3,1.88a.8.8,0,0,0,1.24-.17,1.48,1.48,0,0,0-.44-1.55l-2.3-1.88Z" fill="#b00" stroke="#000" stroke-width="14.3" fill-rule="evenodd"/><path d="M391.58,276.54c.35-.39.13-.86-.44-.94a2.58,2.58,0,0,0-1.83.62l-1.93,2.14c-.35.39-.13.86.44.94a2.5,2.5,0,0,0,1.84-.62l1.92-2.14Z" fill="#b00" stroke="#000" stroke-width="14.3" fill-rule="evenodd"/><path d="M393.94,276.5c.33-.39.09-.86-.48-.93a2.44,2.44,0,0,0-1.81.63l-1.82,2.15c-.33.39-.09.86.48.94a2.44,2.44,0,0,0,1.81-.64l1.82-2.15Z" fill="#b00" stroke="#000" stroke-width="14.3" fill-rule="evenodd"/><path d="M382,276.59c.37-.37.17-.85-.39-.94a2.55,2.55,0,0,0-1.87.56l-2,2.08c-.37.38-.17.85.4.95a2.52,2.52,0,0,0,1.86-.57l2-2.08Z" fill="#b00" stroke="#000" stroke-width="14.3" fill-rule="evenodd"/><path d="M384.28,276.65c.35-.38.13-.85-.44-.94a2.48,2.48,0,0,0-1.83.58l-1.92,2.1c-.35.38-.13.85.44.94a2.41,2.41,0,0,0,1.83-.58l1.92-2.1Z" fill="#b00" stroke="#000" stroke-width="14.3" fill-rule="evenodd"/><path d="M386.82,276.69c.37-.37.17-.85-.39-.94a2.55,2.55,0,0,0-1.87.56l-2,2.08c-.37.38-.17.85.4.95a2.52,2.52,0,0,0,1.86-.57l2-2.08Z" fill="#b00" stroke="#000" stroke-width="14.3" fill-rule="evenodd"/><path d="M389,276.5c.33-.39.09-.86-.48-.93a2.44,2.44,0,0,0-1.81.63l-1.82,2.15c-.33.39-.09.86.48.94a2.44,2.44,0,0,0,1.81-.64L389,276.5Z" fill="#b00" stroke="#000" stroke-width="14.3" fill-rule="evenodd"/><path d="M378.92,275.79c.37-.37.17-.85-.39-.94a2.55,2.55,0,0,0-1.87.56l-2,2.08c-.37.38-.17.85.4.95a2.52,2.52,0,0,0,1.86-.57l2-2.08Z" fill="#b00" stroke="#000" stroke-width="14.3" fill-rule="evenodd"/><path d="M380,276.52c.41-.35.26-.84-.29-1a2.58,2.58,0,0,0-1.91.4l-2.22,1.9c-.4.35-.26.84.3,1a2.57,2.57,0,0,0,1.91-.4l2.21-1.9Z" fill="#b00" stroke="#000" stroke-width="14.3" fill-rule="evenodd"/><path d="M377.22,276c.53-.22.61-.71.14-1a2.78,2.78,0,0,0-2-.1l-2.93,1.22c-.53.22-.6.71-.14,1a2.73,2.73,0,0,0,2,.1l2.93-1.22Z" fill="#b00" stroke="#000" stroke-width="14.3" fill-rule="evenodd"/><path d="M424.07,355.92a.52.52,0,0,1,0,1,2.46,2.46,0,0,1-1.88-.12l-2.55-1.53a.53.53,0,0,1,0-1,2.43,2.43,0,0,1,1.89.12l2.54,1.53Z" fill="#b00" stroke="#000" stroke-width="14.3" fill-rule="evenodd"/><path d="M426.13,355.31a.54.54,0,0,1-.08,1,2.45,2.45,0,0,1-1.86-.14l-2.47-1.57a.54.54,0,0,1,.08-1,2.34,2.34,0,0,1,1.87.14l2.46,1.57Z" fill="#b00" stroke="#000" stroke-width="14.3" fill-rule="evenodd"/><path d="M428.37,354.72a.52.52,0,0,1,0,1,2.46,2.46,0,0,1-1.88-.12l-2.55-1.53a.53.53,0,0,1,0-1,2.43,2.43,0,0,1,1.89.12l2.54,1.53Z" fill="#b00" stroke="#000" stroke-width="14.3" fill-rule="evenodd"/><path d="M430.53,354.11a.54.54,0,0,1-.08,1,2.45,2.45,0,0,1-1.86-.14l-2.47-1.57a.54.54,0,0,1,.08-1,2.34,2.34,0,0,1,1.87.14l2.46,1.57Z" fill="#b00" stroke="#000" stroke-width="14.3" fill-rule="evenodd"/><path d="M439.73,347.21c.55-.09,1,.27.85.72a2,2,0,0,1-1.36,1.07l-3,.5c-.55.09-1-.27-.85-.71a1.92,1.92,0,0,1,1.36-1.08l3-.5Z" fill="#b00" stroke="#000" stroke-width="14.3" fill-rule="evenodd"/><path d="M438.19,343.87a.76.76,0,0,1,1.19.1,1.55,1.55,0,0,1-.28,1.57l-2,2a.74.74,0,0,1-1.18-.1,1.52,1.52,0,0,1,.27-1.57l2-2Z" fill="#b00" stroke="#000" stroke-width="14.3" fill-rule="evenodd"/><path d="M440.63,345.32c.55-.11,1,.23.87.68a2,2,0,0,1-1.36,1.1l-3.06.58c-.56.1-1-.24-.87-.69a2,2,0,0,1,1.36-1.1l3.06-.57Z" fill="#b00" stroke="#000" stroke-width="14.3" fill-rule="evenodd"/><path d="M415.42,358a.53.53,0,0,1-.14,1,2.5,2.5,0,0,1-1.87-.26L411,357a.53.53,0,0,1,.14-1,2.44,2.44,0,0,1,1.87.25l2.38,1.71Z" fill="#b00" stroke="#000" stroke-width="14.3" fill-rule="evenodd"/><path d="M417.58,357.58a.54.54,0,0,1-.18,1,2.43,2.43,0,0,1-1.85-.27l-2.29-1.75a.54.54,0,0,1,.18-1,2.34,2.34,0,0,1,1.85.27l2.29,1.74Z" fill="#b00" stroke="#000" stroke-width="14.3" fill-rule="evenodd"/><path d="M419.87,356.62a.53.53,0,0,1,0,1,2.48,2.48,0,0,1-1.89-.07l-2.61-1.45c-.47-.27-.48-.77,0-1a2.48,2.48,0,0,1,1.89.06l2.61,1.46Z" fill="#b00" stroke="#000" stroke-width="14.3" fill-rule="evenodd"/><path d="M421.7,356.54a.54.54,0,0,1-.23,1,2.4,2.4,0,0,1-1.83-.34l-2.19-1.84a.54.54,0,0,1,.23-1,2.33,2.33,0,0,1,1.83.34l2.19,1.83Z" fill="#b00" stroke="#000" stroke-width="14.3" fill-rule="evenodd"/><path d="M432.77,353.52a.52.52,0,0,1,0,1,2.46,2.46,0,0,1-1.88-.12l-2.55-1.53a.53.53,0,0,1,0-1,2.43,2.43,0,0,1,1.89.12l2.54,1.53Z" fill="#b00" stroke="#000" stroke-width="14.3" fill-rule="evenodd"/><path d="M434.93,352.91a.54.54,0,0,1-.08,1,2.45,2.45,0,0,1-1.86-.14l-2.47-1.57a.54.54,0,0,1,.08-1,2.34,2.34,0,0,1,1.87.14l2.46,1.57Z" fill="#b00" stroke="#000" stroke-width="14.3" fill-rule="evenodd"/><path d="M387.56,360.31c.34.37.16.85-.38.94a2.3,2.3,0,0,1-1.76-.56l-1.92-2.08c-.35-.38-.16-.85.37-.95a2.31,2.31,0,0,1,1.77.57l1.91,2.08Z" fill="#b00" stroke="#000" stroke-width="14.3" fill-rule="evenodd"/><path d="M389.81,360.25c.33.38.13.85-.41.94a2.28,2.28,0,0,1-1.74-.58l-1.82-2.09c-.33-.38-.13-.86.41-.95a2.24,2.24,0,0,1,1.74.58l1.82,2.1Z" fill="#b00" stroke="#000" stroke-width="14.3" fill-rule="evenodd"/><path d="M392.16,360.21c.34.37.16.85-.38.94a2.3,2.3,0,0,1-1.76-.56l-1.92-2.08c-.35-.38-.16-.85.37-.95a2.31,2.31,0,0,1,1.77.57l1.91,2.08Z" fill="#b00" stroke="#000" stroke-width="14.3" fill-rule="evenodd"/><path d="M394.41,360.15c.33.38.13.85-.41.94a2.28,2.28,0,0,1-1.74-.58l-1.82-2.09c-.33-.38-.13-.86.41-.95a2.24,2.24,0,0,1,1.74.58l1.82,2.1Z" fill="#b00" stroke="#000" stroke-width="14.3" fill-rule="evenodd"/><path d="M378.46,360.51c.34.37.16.85-.38.94a2.3,2.3,0,0,1-1.76-.56l-1.92-2.08c-.35-.38-.16-.85.37-.95a2.31,2.31,0,0,1,1.77.57l1.91,2.08Z" fill="#b00" stroke="#000" stroke-width="14.3" fill-rule="evenodd"/><path d="M380.61,360.55c.33.38.13.85-.41.94a2.28,2.28,0,0,1-1.74-.58l-1.82-2.09c-.33-.38-.13-.86.41-.95a2.24,2.24,0,0,1,1.74.58l1.82,2.1Z" fill="#b00" stroke="#000" stroke-width="14.3" fill-rule="evenodd"/><path d="M383.06,360.41c.34.37.16.85-.38.94a2.3,2.3,0,0,1-1.76-.56L379,358.71c-.35-.38-.16-.85.37-.95a2.31,2.31,0,0,1,1.77.57l1.91,2.08Z" fill="#b00" stroke="#000" stroke-width="14.3" fill-rule="evenodd"/><path d="M385.21,360.35c.33.38.13.85-.41.94a2.28,2.28,0,0,1-1.74-.58l-1.82-2.09c-.33-.38-.13-.86.41-.95a2.24,2.24,0,0,1,1.74.58l1.82,2.1Z" fill="#b00" stroke="#000" stroke-width="14.3" fill-rule="evenodd"/><path d="M406.17,359.5a.53.53,0,0,1-.24,1,2.36,2.36,0,0,1-1.83-.4l-2.18-1.89a.53.53,0,0,1,.25-1,2.35,2.35,0,0,1,1.83.4l2.17,1.89Z" fill="#b00" stroke="#000" stroke-width="14.3" fill-rule="evenodd"/><path d="M408.39,359.11a.54.54,0,0,1-.26,1,2.38,2.38,0,0,1-1.82-.37l-2.15-1.86a.55.55,0,0,1,.25-1,2.31,2.31,0,0,1,1.82.38l2.15,1.86Z" fill="#b00" stroke="#000" stroke-width="14.3" fill-rule="evenodd"/><path d="M410.82,358.79a.53.53,0,0,1-.2,1,2.45,2.45,0,0,1-1.85-.35l-2.25-1.83a.54.54,0,0,1,.21-1,2.39,2.39,0,0,1,1.85.36l2.24,1.83Z" fill="#b00" stroke="#000" stroke-width="14.3" fill-rule="evenodd"/><path d="M413.08,358.38a.54.54,0,0,1-.18,1,2.43,2.43,0,0,1-1.85-.27l-2.29-1.75a.54.54,0,0,1,.18-1,2.34,2.34,0,0,1,1.85.27l2.29,1.74Z" fill="#b00" stroke="#000" stroke-width="14.3" fill-rule="evenodd"/><path d="M396.76,360.11c.34.37.16.85-.38.94a2.3,2.3,0,0,1-1.76-.56l-1.92-2.08c-.35-.38-.16-.85.37-1a2.31,2.31,0,0,1,1.77.57l1.91,2.08Z" fill="#b00" stroke="#000" stroke-width="14.3" fill-rule="evenodd"/><path d="M399,359.89c.36.36.19.85-.34,1a2.33,2.33,0,0,1-1.78-.49l-2-2c-.36-.36-.19-.85.34-1a2.3,2.3,0,0,1,1.78.49l2,2Z" fill="#b00" stroke="#000" stroke-width="14.3" fill-rule="evenodd"/><path d="M401.55,359.58a.53.53,0,0,1-.24,1,2.4,2.4,0,0,1-1.83-.39l-2.19-1.88a.54.54,0,0,1,.24-1,2.34,2.34,0,0,1,1.83.4l2.19,1.88Z" fill="#b00" stroke="#000" stroke-width="14.3" fill-rule="evenodd"/><path d="M403.61,359.56c.35.36.17.85-.36,1a2.35,2.35,0,0,1-1.77-.51l-1.94-2c-.35-.37-.17-.85.36-1a2.27,2.27,0,0,1,1.78.51l1.93,2Z" fill="#b00" stroke="#000" stroke-width="14.3" fill-rule="evenodd"/><path d="M350.53,359.28c.26.42,0,.86-.57.87a2.16,2.16,0,0,1-1.62-.82L346.9,357c-.26-.42,0-.86.57-.88a2.19,2.19,0,0,1,1.62.83l1.44,2.33Z" fill="#b00" stroke="#000" stroke-width="14.3" fill-rule="evenodd"/><path d="M352.67,359.64c.25.42-.06.86-.61.87a2.16,2.16,0,0,1-1.59-.83l-1.34-2.34c-.24-.42.06-.86.61-.87a2.07,2.07,0,0,1,1.59.84l1.34,2.33Z" fill="#b00" stroke="#000" stroke-width="14.3" fill-rule="evenodd"/><path d="M355.26,359.83c.32.4.09.86-.45.92a2.28,2.28,0,0,1-1.71-.68l-1.72-2.2c-.32-.39-.09-.86.46-.92a2.28,2.28,0,0,1,1.71.68l1.71,2.2Z" fill="#b00" stroke="#000" stroke-width="14.3" fill-rule="evenodd"/><path d="M357.52,359.87c.29.41,0,.86-.51.92a2.22,2.22,0,0,1-1.68-.69l-1.62-2.21c-.29-.4,0-.86.5-.91a2.16,2.16,0,0,1,1.68.69l1.62,2.2Z" fill="#b00" stroke="#000" stroke-width="14.3" fill-rule="evenodd"/><path d="M343.57,358.44c.25.42-.06.86-.61.87a2.16,2.16,0,0,1-1.59-.83L340,356.14c-.24-.42.06-.86.61-.87a2.07,2.07,0,0,1,1.59.84l1.34,2.33Z" fill="#b00" stroke="#000" stroke-width="14.3" fill-rule="evenodd"/><path d="M346,358.78c.26.42,0,.86-.57.87a2.16,2.16,0,0,1-1.62-.82l-1.44-2.33c-.26-.42,0-.86.57-.88a2.19,2.19,0,0,1,1.62.83l1.44,2.33Z" fill="#b00" stroke="#000" stroke-width="14.3" fill-rule="evenodd"/><path d="M348.17,359c.25.42-.06.86-.61.87a2.16,2.16,0,0,1-1.59-.83l-1.34-2.34c-.24-.42.06-.86.61-.87a2.07,2.07,0,0,1,1.59.84l1.34,2.33Z" fill="#b00" stroke="#000" stroke-width="14.3" fill-rule="evenodd"/><path d="M369.06,360.43c.32.4.09.86-.45.92a2.28,2.28,0,0,1-1.71-.68l-1.72-2.2c-.32-.39-.09-.86.46-.92a2.28,2.28,0,0,1,1.71.68l1.71,2.2Z" fill="#b00" stroke="#000" stroke-width="14.3" fill-rule="evenodd"/><path d="M371.22,360.57c.29.41,0,.86-.51.92a2.22,2.22,0,0,1-1.68-.69l-1.62-2.21c-.29-.4,0-.86.5-.91a2.16,2.16,0,0,1,1.68.69l1.62,2.2Z" fill="#b00" stroke="#000" stroke-width="14.3" fill-rule="evenodd"/><path d="M373.76,360.51c.34.37.16.85-.38.94a2.3,2.3,0,0,1-1.76-.56l-1.92-2.08c-.35-.38-.16-.85.37-.95a2.31,2.31,0,0,1,1.77.57l1.91,2.08Z" fill="#b00" stroke="#000" stroke-width="14.3" fill-rule="evenodd"/><path d="M376,360.55c.33.38.13.85-.41.94a2.28,2.28,0,0,1-1.74-.58L372,358.82c-.33-.38-.13-.86.41-.95a2.24,2.24,0,0,1,1.74.58l1.82,2.1Z" fill="#b00" stroke="#000" stroke-width="14.3" fill-rule="evenodd"/><path d="M359.86,360c.32.4.09.86-.45.92a2.28,2.28,0,0,1-1.71-.68l-1.72-2.2c-.32-.39-.09-.86.46-.92a2.28,2.28,0,0,1,1.71.68l1.71,2.2Z" fill="#b00" stroke="#000" stroke-width="14.3" fill-rule="evenodd"/><path d="M362,360.17c.29.41,0,.86-.51.92a2.22,2.22,0,0,1-1.68-.69l-1.62-2.21c-.29-.4,0-.86.5-.91a2.16,2.16,0,0,1,1.68.69l1.62,2.2Z" fill="#b00" stroke="#000" stroke-width="14.3" fill-rule="evenodd"/><path d="M364.46,360.23c.32.4.09.86-.45.92a2.28,2.28,0,0,1-1.71-.68l-1.72-2.2c-.32-.39-.09-.86.46-.92a2.28,2.28,0,0,1,1.71.68l1.71,2.2Z" fill="#b00" stroke="#000" stroke-width="14.3" fill-rule="evenodd"/><path d="M366.62,360.37c.29.41,0,.86-.51.92a2.22,2.22,0,0,1-1.68-.69l-1.62-2.21c-.29-.4,0-.86.5-.91a2.16,2.16,0,0,1,1.68.69l1.62,2.2Z" fill="#b00" stroke="#000" stroke-width="14.3" fill-rule="evenodd"/><path d="M331.34,349.68c-.56.07-1-.3-.81-.73a2,2,0,0,1,1.45-1l3.1-.4c.56-.07,1,.29.81.73a2,2,0,0,1-1.45,1l-3.1.4Z" fill="#b00" stroke="#000" stroke-width="14.3" fill-rule="evenodd"/><path d="M331.72,352.14a.73.73,0,0,1-1.13-.33,1.59,1.59,0,0,1,.66-1.47l2.46-1.56a.73.73,0,0,1,1.14.33,1.52,1.52,0,0,1-.66,1.46l-2.46,1.57Z" fill="#b00" stroke="#000" stroke-width="14.3" fill-rule="evenodd"/><path d="M333,354.31a.74.74,0,0,1-1.19,0,1.5,1.5,0,0,1,0-1.58l1.65-2.23a.74.74,0,0,1,1.19,0,1.48,1.48,0,0,1,0,1.58L333,354.31Z" fill="#b00" stroke="#000" stroke-width="14.3" fill-rule="evenodd"/><path d="M334.35,355.77a.73.73,0,0,1-1.12.37,1.56,1.56,0,0,1-.64-1.47l.66-2.54a.72.72,0,0,1,1.12-.36,1.53,1.53,0,0,1,.64,1.47l-.66,2.53Z" fill="#b00" stroke="#000" stroke-width="14.3" fill-rule="evenodd"/><path d="M335,344.77c-.56,0-.87-.46-.61-.87a2.22,2.22,0,0,1,1.65-.75l3.09.17c.56,0,.86.46.6.87a2.15,2.15,0,0,1-1.65.75l-3.08-.17Z" fill="#b00" stroke="#000" stroke-width="14.3" fill-rule="evenodd"/><path d="M333.57,346.29c-.57,0-.88-.44-.63-.84a2.21,2.21,0,0,1,1.65-.78l3.13.09c.57,0,.89.44.64.85a2.2,2.2,0,0,1-1.65.77l-3.13-.09Z" fill="#b00" stroke="#000" stroke-width="14.3" fill-rule="evenodd"/><path d="M332.42,347.87c-.56.06-.95-.32-.78-.76a2,2,0,0,1,1.45-1l3.07-.32c.56-.05.95.33.79.77a2,2,0,0,1-1.46,1l-3.07.31Z" fill="#b00" stroke="#000" stroke-width="14.3" fill-rule="evenodd"/><path d="M336.18,357.27a.65.65,0,0,1-.94.61,1.82,1.82,0,0,1-1.08-1.3L334,354a.65.65,0,0,1,.94-.6,1.76,1.76,0,0,1,1.08,1.3l.17,2.62Z" fill="#b00" stroke="#000" stroke-width="14.3" fill-rule="evenodd"/><path d="M338.59,357.91c.14.46-.26.83-.8.75a1.93,1.93,0,0,1-1.36-1.07l-.77-2.52c-.14-.45.26-.83.8-.74a1.89,1.89,0,0,1,1.36,1.07l.77,2.51Z" fill="#b00" stroke="#000" stroke-width="14.3" fill-rule="evenodd"/><path d="M341.43,358.18c.26.42,0,.86-.57.87a2.16,2.16,0,0,1-1.62-.82l-1.44-2.33c-.26-.42,0-.86.57-.88a2.19,2.19,0,0,1,1.62.83l1.44,2.33Z" fill="#b00" stroke="#000" stroke-width="14.3" fill-rule="evenodd"/><path d="M436,351.09c.55.11.76.58.41.94a2.38,2.38,0,0,1-1.8.47l-3-.63c-.55-.11-.76-.58-.41-.94a2.35,2.35,0,0,1,1.8-.47l3.05.63Z" fill="#b00" stroke="#000" stroke-width="14.3" fill-rule="evenodd"/><path d="M436.6,351.5c.54.15.7.63.32,1a2.34,2.34,0,0,1-1.82.37l-2.94-.81c-.53-.15-.69-.64-.31-1a2.27,2.27,0,0,1,1.82-.38l2.93.82Z" fill="#b00" stroke="#000" stroke-width="14.3" fill-rule="evenodd"/><path d="M440.16,348.94c.56.09.8.55.48.92a2.38,2.38,0,0,1-1.77.56l-3.08-.47c-.56-.09-.8-.55-.48-.92a2.33,2.33,0,0,1,1.77-.56l3.08.47Z" fill="#b00" stroke="#000" stroke-width="14.3" fill-rule="evenodd"/><path d="M438.33,350.43c.53.16.68.65.29,1a2.34,2.34,0,0,1-1.82.34l-2.92-.87c-.53-.16-.68-.65-.29-1a2.34,2.34,0,0,1,1.83-.34l2.91.87Z" fill="#b00" stroke="#000" stroke-width="14.3" fill-rule="evenodd"/><path d="M428,341.75c-.52.2-.62.69-.2,1a2.49,2.49,0,0,0,1.88.2l2.86-1.09c.52-.19.62-.69.2-1a2.41,2.41,0,0,0-1.88-.19L428,341.75Z" fill="#b00" stroke="#000" stroke-width="14.3" fill-rule="evenodd"/><path d="M426.09,340.92c-.5.21-.58.7-.16,1a2.44,2.44,0,0,0,1.86.17l2.79-1.14c.5-.2.59-.7.16-1a2.4,2.4,0,0,0-1.86-.17l-2.78,1.14Z" fill="#b00" stroke="#000" stroke-width="14.3" fill-rule="evenodd"/><path d="M423.82,339.72c-.53.16-.68.64-.29,1a2.41,2.41,0,0,0,1.85.32l2.95-.9c.54-.16.69-.64.3-1a2.4,2.4,0,0,0-1.86-.32l-2.95.9Z" fill="#b00" stroke="#000" stroke-width="14.3" fill-rule="evenodd"/><path d="M434.09,344.62c-.5.21-.58.7-.16,1a2.44,2.44,0,0,0,1.86.17l2.79-1.14c.5-.2.59-.7.16-1a2.4,2.4,0,0,0-1.86-.17l-2.78,1.14Z" fill="#b00" stroke="#000" stroke-width="14.3" fill-rule="evenodd"/><path d="M432,343.65c-.52.2-.62.69-.2,1a2.49,2.49,0,0,0,1.88.2l2.86-1.09c.52-.19.62-.69.2-1a2.41,2.41,0,0,0-1.88-.19L432,343.65Z" fill="#b00" stroke="#000" stroke-width="14.3" fill-rule="evenodd"/><path d="M430.09,342.72c-.5.21-.58.7-.16,1a2.44,2.44,0,0,0,1.86.17l2.79-1.14c.5-.2.59-.7.16-1a2.4,2.4,0,0,0-1.86-.17l-2.78,1.14Z" fill="#b00" stroke="#000" stroke-width="14.3" fill-rule="evenodd"/><path d="M380,128v4.56h-3.84v3H380v9.12h2.56v-9.12h3.84v-3h-3.84V128H380Z" fill="#fff133" stroke="#000" fill-rule="evenodd"/><ellipse cx="381.25" cy="144.76" rx="2.56" ry="3.04" fill="#fff133" stroke="#000"/><path d="M410.23,201.76A121.82,121.82,0,0,1,408,225.32a97.86,97.86,0,0,0-25.91-4.56c-6.7,0-18.82,1.53-26.4,3.05a106.05,106.05,0,0,1-2.33-22.05c0-31.46,8-44.84,28.09-57C399.28,156.92,410.23,170.3,410.23,201.76Z" fill="#fff" stroke="#000" fill-rule="evenodd"/><path d="M410.24,202.73c0-2.81-12.78-5.09-28.51-5.09s-28.5,2.28-28.5,5.09v1.7c0-2.81,12.77-4.53,28.5-4.53s28.51,2.85,28.51,5.66Z" fill="#fff133" stroke="#000" fill-rule="evenodd"/><path d="M381.73,180.66l-4.5,3.4,3,2.26-1.5,1.13-3-2.26-4.5,3.39,4.5,3.4,3-2.27,1.5,1.14v3.39h3v-3.39l1.5-1.14,3,2.27,4.5-3.4-4.5-3.4-3,2.27-1.51-1.13,3-2.27Z" fill="#fff133" stroke="#000" fill-rule="evenodd"/><path d="M351.48,184.23l.44,3.42.75,2.19-1.07,1.38-.76-2.19-.32,3.57,2.58,3-.76-2.2,1.83.81,1.13,3.29,1.45-.29-1.12-3.28,1.07-1.38.75,2.19.34-3.57-2.59-3,.75,2.19-1.83-.81-.75-2.19Z" fill="#fff133" stroke="#000" fill-rule="evenodd"/><path d="M412,184.28l-1.73,3.18-.68,2.21-1.8.84.68-2.2-2.49,3,.44,3.57.68-2.21,1.12,1.36-1,3.3,1.47.26,1-3.3,1.81-.85-.69,2.21,2.5-3.05-.45-3.56-.68,2.2L411,189.92l.68-2.2Z" fill="#fff133" stroke="#000" fill-rule="evenodd"/><path d="M362.36,188.9a2.24,2.24,0,0,1,1.9-2.52,2.81,2.81,0,0,1,2.84,1.94,3.53,3.53,0,0,1-.7,2.38l5.7,3.89-2.37.29L365.46,192l-2.85,3.78-2.37.29,3.79-5A4.39,4.39,0,0,1,362.36,188.9Z" fill="#fff133" stroke="#000" fill-rule="evenodd"/><path d="M396.32,188.34a2.81,2.81,0,0,1,2.84-2,2.26,2.26,0,0,1,1.92,2.51,4.38,4.38,0,0,1-1.65,2.1l3.83,5-2.37-.28L398,192l-4.25,2.94-2.37-.27,5.67-3.93A3.55,3.55,0,0,1,396.32,188.34Z" fill="#fff133" stroke="#000" fill-rule="evenodd"/><path d="M410.27,199.33c0-2.81-12.79-5.09-28.54-5.09s-28.52,2.28-28.52,5.09V201c0-2.81,12.78-4.53,28.52-4.53s28.54,2.85,28.54,5.66Z" fill="#fff133" stroke="#000" fill-rule="evenodd"/><path d="M407.92,224c0-2.81-11.71-5.09-26.12-5.09s-26.12,2.28-26.12,5.09v1.7c0-2.81,11.7-4.53,26.12-4.53s26.12,2.85,26.12,5.66Z" fill="#fff133" stroke="#000" fill-rule="evenodd"/><path d="M382.05,201.94l-4.24,3.4,2.83,2.26-1.42,1.13-2.83-2.26-4.24,3.39,4.24,3.4,2.84-2.27,1.41,1.13v3.4h2.82v-3.4l1.41-1.13,2.84,2.26,4.23-3.39-4.23-3.4-2.83,2.27-1.42-1.13,2.83-2.27Z" fill="#fff133" stroke="#000" fill-rule="evenodd"/><path d="M353.56,205.51l.42,3.42.71,2.19-1,1.38-.71-2.19-.3,3.57,2.43,3-.71-2.21,1.72.82,1.06,3.29,1.37-.29-1.06-3.28,1-1.39.71,2.2.31-3.58-2.43-3,.7,2.19-1.72-.8-.7-2.19Z" fill="#fff133" stroke="#000" fill-rule="evenodd"/><path d="M410.52,205.56l-1.62,3.18-.64,2.21-1.7.84.64-2.2-2.34,3,.41,3.57.65-2.22,1.05,1.37-1,3.3,1.38.26,1-3.3,1.7-.85L409.4,217l2.35-3.05-.42-3.57-.64,2.21-1.06-1.36.65-2.2Z" fill="#fff133" stroke="#000" fill-rule="evenodd"/><path d="M363.81,210.18a2.23,2.23,0,0,1,1.79-2.52,2.65,2.65,0,0,1,2.68,1.94,3.65,3.65,0,0,1-.66,2.38l5.36,3.89-2.23.29-4-2.91L364.05,217l-2.23.29,3.56-5A4.36,4.36,0,0,1,363.81,210.18Z" fill="#fff133" stroke="#000" fill-rule="evenodd"/><path d="M395.8,209.62a2.64,2.64,0,0,1,2.67-2,2.23,2.23,0,0,1,1.8,2.51,4.29,4.29,0,0,1-1.55,2.1l3.61,5-2.24-.28-2.7-3.77-4,2.94-2.23-.28,5.34-3.92A3.65,3.65,0,0,1,395.8,209.62Z" fill="#fff133" stroke="#000" fill-rule="evenodd"/><path d="M408.92,220.62c0-2.81-12-5.09-26.87-5.09s-26.87,2.28-26.87,5.09v1.7c0-2.81,12-4.53,26.87-4.53s26.87,2.85,26.87,5.66Z" fill="#fff133" stroke="#000" fill-rule="evenodd"/><path d="M408.72,183c0-2.81-12.05-5.09-26.89-5.09S355,180.16,355,183v1.7c0-2.81,12-4.53,26.88-4.53s26.89,2.85,26.89,5.66Z" fill="#fff133" stroke="#000" fill-rule="evenodd"/><path d="M382.13,161,378,164.17l2.77,2.13-1.39,1.07-2.77-2.14-4.14,3.2,4.14,3.21,2.78-2.15,1.38,1.08v3.2h2.76v-3.2l1.38-1.08,2.77,2.14,4.15-3.2-4.15-3.2-2.76,2.13-1.39-1.06,2.77-2.14Z" fill="#fff133" stroke="#000" fill-rule="evenodd"/><path d="M354.27,164.32l.4,3.23.69,2.06-1,1.3-.69-2.06-.3,3.36,2.38,2.84-.7-2.08,1.69.77,1,3.1,1.34-.27-1-3.09,1-1.31.7,2.07.3-3.37L357.69,168l.69,2.07-1.68-.76-.69-2.07Z" fill="#fff133" stroke="#000" fill-rule="evenodd"/><path d="M410,164.37l-1.59,3-.63,2.08-1.66.79.63-2.07L404.44,171l.4,3.36.64-2.08,1,1.28-.94,3.12,1.34.24,1-3.11,1.66-.8-.63,2.08,2.3-2.88-.41-3.36-.63,2.08-1-1.28.63-2.07Z" fill="#fff133" stroke="#000" fill-rule="evenodd"/><path d="M364.29,168.73a2.12,2.12,0,0,1,1.75-2.38,2.59,2.59,0,0,1,2.62,1.84,3.38,3.38,0,0,1-.65,2.24l5.25,3.67-2.18.27-3.94-2.75-2.61,3.57-2.19.27,3.49-4.76A4.08,4.08,0,0,1,364.29,168.73Z" fill="#fff133" stroke="#000" fill-rule="evenodd"/><path d="M395.58,168.19a2.59,2.59,0,0,1,2.61-1.85,2.12,2.12,0,0,1,1.76,2.37,4.08,4.08,0,0,1-1.51,2l3.52,4.75-2.18-.27-2.64-3.55-3.92,2.77-2.18-.26,5.22-3.7A3.37,3.37,0,0,1,395.58,168.19Z" fill="#fff133" stroke="#000" fill-rule="evenodd"/><path d="M408.41,178.58c0-2.66-11.78-4.81-26.28-4.81s-26.28,2.15-26.28,4.81v1.6c0-2.65,11.78-4.27,26.28-4.27s26.28,2.68,26.28,5.34Z" fill="#fff133" stroke="#000" fill-rule="evenodd"/><ellipse cx="381.89" cy="225.61" rx="26.25" ry="4.28" fill="#b90000"/><path d="M424.58,201.08l7.63-3.16,7.62,3.16S424,207.43,424,229.59c0,15.83,27,19,27,38,0,8.15-7.34,15.84-15,15.84s-19.08-3.17-30.52-12.68c7.62,3.17,16.37,6.67,22.9,6.44,4.22-.06,11.84-3.17,11.84-9.47,0-12.69-26.45-19.13-26.45-38.12,0-22.16,10.77-28.49,10.77-28.49Z" fill="#fff" stroke="#000" fill-rule="evenodd"/><path d="M379.1,375.91a1,1,0,0,0-.72,1.51,2.34,2.34,0,0,0,1.92,1.33l3.63-.26a1,1,0,0,0,.71-1.51,2.28,2.28,0,0,0-1.92-1.33l-3.62.26Z" fill="#b00" stroke="#000" stroke-width="20" fill-rule="evenodd"/><path d="M426,201.08l10-3.16,2.16,3.16S423,207.43,423,229.59c0,15.83,27.12,19,27.12,38,0,8.15-5.75,15.62-14.07,15.84-15.81.41-19.47-4.29-30.52-12.68,9.28,5.78,22.62,8.37,27.79,6.12,6.33-2.76,7.54-6.44,7.54-9.62,0-12.67-26.05-18.66-26.05-37.65,0-22.16,11.2-28.49,11.2-28.49Z" fill="#fff" stroke="#000" fill-rule="evenodd"/><path d="M424.48,201.17c1.5-.43,7.75-3.25,15.35,3.09,3.84,3.17,3.84,9.49,3.84,12.66l11.44-9.49s-6.25-15.53-23.18-9.58a80.25,80.25,0,0,0-7.43,3.32Z" fill="#fff" stroke="#000" fill-rule="evenodd"/><path d="M426.74,200.05a17.21,17.21,0,0,1,13.91,3.32c3.82,3.16,4.1,7.67,4.1,10.83l8.74-6.79c.73-.55-5.34-14.51-21.37-9.65a36.27,36.27,0,0,0-5.38,2.3Z" fill="#fff" stroke="#000" fill-rule="evenodd"/><path d="M423.42,245.75l2.93,3.26s-.32-1.54.8-1.95l1.13-.39s7.68,7.16,9.14,8.43.37,2.68.69,2.65,4-2.28,4-2.28a4,4,0,0,1-3-.69c-1.2-1-9.7-8.68-9.7-8.68s.92-.51,1.69-1,2.34,1,2.34,1l-3.91-3.89s.54,1.38-.13,1.73-1.19.71-1.19.71-1-.9-2.2-1.92a1.58,1.58,0,0,1-.05-2.28l-3.35,2.22a8.57,8.57,0,0,1,2.39,1.17l1.45,1.27a6.92,6.92,0,0,1-1.23.69A1.83,1.83,0,0,1,423.42,245.75Z" fill="#fff133" stroke="#000" fill-rule="evenodd"/><path d="M452.2,206.14l-1.53-2.43a2.13,2.13,0,0,1-1.33,1.55l-1.11.36s-4.44-5.29-5.31-6.22.52-2.08.24-2-4.2,1.94-4.2,1.94,1.69-.33,2.41.42,5.72,6.39,5.72,6.39-1,.44-1.8.86-1.72-.72-1.72-.72l2.18,2.88s0-1.06.67-1.36,1.27-.6,1.27-.6.58.66,1.31,1.41-.67,1.78-.67,1.78l3.63-1.87a4.74,4.74,0,0,1-1.71-.82l-.87-.93a11.22,11.22,0,0,1,1.3-.59A1.71,1.71,0,0,1,452.2,206.14Z" fill="#fff133" stroke="#000" fill-rule="evenodd"/><path d="M382.1,375.61a1,1,0,0,0-.72,1.51,2.34,2.34,0,0,0,1.92,1.33l3.63-.26a1,1,0,0,0,.71-1.51,2.28,2.28,0,0,0-1.92-1.33l-3.62.26Z" fill="#b00" stroke="#000" stroke-width="20" fill-rule="evenodd"/><path d="M377.56,378.31c-1.11,0-1.71.8-1.21,1.51a4.55,4.55,0,0,0,3.24,1.33l6.1-.26c1.11,0,1.71-.8,1.2-1.51a4.4,4.4,0,0,0-3.23-1.33l-6.1.26Z" fill="#b00" stroke="#000" stroke-width="20" fill-rule="evenodd"/><path d="M380.56,378.11c-1.11,0-1.71.8-1.21,1.51a4.55,4.55,0,0,0,3.24,1.33l6.1-.26c1.11,0,1.71-.8,1.2-1.51a4.4,4.4,0,0,0-3.23-1.33l-6.1.26Z" fill="#b00" stroke="#000" stroke-width="20" fill-rule="evenodd"/><path d="M376.4,381.11c-1.37,0-2.12.8-1.49,1.51a6.32,6.32,0,0,0,4,1.33l7.57-.26c1.37,0,2.12-.8,1.49-1.51a6.21,6.21,0,0,0-4-1.33l-7.56.26Z" fill="#b00" stroke="#000" stroke-width="20" fill-rule="evenodd"/><path d="M380.1,380.91c-1.37,0-2.12.8-1.49,1.51a6.32,6.32,0,0,0,4,1.33l7.57-.26c1.37,0,2.12-.8,1.49-1.51a6.21,6.21,0,0,0-4-1.33l-7.56.26Z" fill="#b00" stroke="#000" stroke-width="20" fill-rule="evenodd"/><path d="M0,0H256V512H0Z" fill="#ffe000" fill-rule="evenodd"/></svg>