<svg id="flag-icons-ai" xmlns="http://www.w3.org/2000/svg" viewBox="0 0 640 480"><title>ai</title><path id="rect4120" d="M0,0H640V480H0Z" fill="#012169"/><path id="path1855" d="M484.3,180.4l2,2Z" fill="#49497d"/><path id="path1857" d="M486.3,180.4l2,2Z" fill="#0e0e6e"/><path id="path1859" d="M480.2,182.4l2,2Z" fill="#262678"/><path id="path1861" d="M482.3,182.4l2,2Z" fill="#808067"/><path id="path1863" d="M488.3,182.4l2,2Z" fill="#58587b"/><path id="path1865" d="M413.2,184.5l2,2Z" fill="#0e0e6e"/><path id="path1867" d="M476.2,184.5l2,2Z" fill="#1b1b74"/><path id="path1869" d="M478.2,184.5l2,2Z" fill="#6e6c70"/><path id="path1871" d="M416.8,188c0,52.6-6,111.7,33,152.8,8,8.4,23.4,27.7,36.5,27,13.7-.8,31.4-21.1,39.2-31,34-44.8,28.7-98.2,29.8-150.2-15.3,6.9-23,9.2-36.4,9-10,1-25.3-5.5-34.5-10-6,4-14.7,8.9-30.4,9.4-18,.8-23.8-2.3-37.2-7Z" fill="#cc3"/><path id="path1873" d="M490.4,184.5l2,2Z" fill="#99994e"/><path id="path1875" d="M492.4,184.5l2,2Z" fill="#49497d"/><path id="path1877" d="M555.3,184.5l2,2Z" fill="#0e0e6e"/><path id="path1879" d="M415.3,186.5l2,2Z" fill="#a4a43d"/><path id="path1881" d="M417.3,186.5l2,2Z" fill="#6e6c70"/><path id="path1883" d="M419.3,186.5l2,2Z" fill="#3a3a7c"/><path id="path1885" d="M472,186.5l2,2Z" fill="#1b1b74"/><path id="path1887" d="M474,186.5l2,2Z" fill="#6e6c70"/><path id="path1889" d="M476.2,186.5l2,2Z" fill="#a4a43d"/><path id="path1891" d="M484.3,186.5l2,2Z" fill="#d0d045"/><path id="path1893" d="M492.4,186.5l2,2Z" fill="#a4a43d"/><path id="path1895" d="M494.4,186.5l2,2Z" fill="#8d8d5b"/><path id="path1897" d="M496.5,186.5l2,2Z" fill="#3a3a7c"/><path id="path1899" d="M549.2,186.5l2,2Z" fill="#262678"/><path id="path1901" d="M551.3,186.5l2,2Z" fill="#53527c"/><path id="path1903" d="M553.3,186.5l2,2Z" fill="#8d8d5b"/><path id="path1905" d="M423.4,188.6l2,2Z" fill="#737370"/><path id="path1907" d="M425.4,188.6l2,2Z" fill="#53527c"/><path id="path1909" d="M427.4,188.6l2,2Z" fill="#1b1b74"/><path id="path1911" d="M468,188.6l2,2Z" fill="#262678"/><path id="path1913" d="M470,188.6l2,2Z" fill="#6e6c70"/><path id="path1915" d="M472,188.6l2,2Z" fill="#a4a43d"/><path id="path1917" d="M482.3,188.6l2,2Z" fill="#e5e59d"/><path id="path1919" d="M420.9,193.8c-1,27.6-.2,58.6,4,88,4.9,15.5,4.2,24,11.3,33.2l99-.8c6-9.7,10.5-24.4,11-30.3,5.6-29.7,5.7-62.6,5.9-92a62,62,0,0,1-35.7,7.4,69.09,69.09,0,0,1-30.5-9.2c-9.5,5.6-12.8,8.2-28.4,8.9-12.2.6-22,1.6-36.6-5.2Z" fill="#fff"/><path id="path1921" d="M486.3,188.6l2,2Z" fill="#f2f1d7"/><path id="path1923" d="M488.3,188.6l2,2Z" fill="#d9d868"/><path id="path1925" d="M496.5,188.6l2,2Z" fill="#a4a43d"/><path id="path1927" d="M498.5,188.6l2,2Z" fill="#99994e"/><path id="path1929" d="M500.5,188.6l2,2Z" fill="#49497d"/><path id="path1931" d="M502.5,188.6l2,2Z" fill="#0e0e6e"/><path id="path1933" d="M543.2,188.6l2,2Z" fill="#3a3a7c"/><path id="path1935" d="M545.2,188.6l2,2Z" fill="#667"/><path id="path1937" d="M547.2,188.6l2,2Z" fill="#99994e"/><path id="path1939" d="M549.2,188.6l2,2-2-2m-121.8,2,2,2Z" fill="#a4a43d"/><path id="path1941" d="M429.5,190.6l2,2Z" fill="#99994e"/><path id="path1943" d="M431.5,190.6l2,2Z" fill="#6e6c70"/><path id="path1945" d="M433.5,190.6l2,2Z" fill="#49497d"/><path id="path1947" d="M435.5,190.6l2,2-2-2m26.4,0,2,2Z" fill="#1b1b74"/><path id="path1949" d="M463.9,190.6l2,2Z" fill="#53527c"/><path id="path1951" d="M466,190.6l2,2Z" fill="#8d8d5b"/><path id="path1953" d="M468,190.6l2,2Z" fill="#a4a43d"/><path id="path1955" d="M478.2,190.6l2,2Z" fill="#e5e59d"/><path id="path1957" d="M480.2,190.6l2,2Z" fill="#fbfaf2"/><path id="path1959" d="M490.4,190.6l2,2Z" fill="#f2f1d2"/><path id="path1961" d="M492.4,190.6l2,2Z" fill="#d9d868"/><path id="path1963" d="M502.5,190.6l2,2Z" fill="#a4a43d"/><path id="path1965" d="M504.6,190.6l2,2Z" fill="#6e6c70"/><path id="path1967" d="M506.6,190.6l2,2Z" fill="#3a3a7c"/><path id="path1969" d="M533,190.6l2,2Z" fill="#0e0e6e"/><path id="path1971" d="M535,190.6l2,2Z" fill="#32327b"/><path id="path1973" d="M537,190.6l2,2Z" fill="#58587b"/><path id="path1975" d="M539,190.6l2,2Z" fill="#808067"/><path id="path1977" d="M542.5,191.2l1.3.7Z" fill="#a4a43d"/><path id="path1979" d="M419.3,192.6l2,2Z" fill="#dddc7a"/><path id="path1981" d="M421.3,192.6l2,2Z" fill="#d0d045"/><path id="path1983" d="M436.9,193.2l1.4.7Z" fill="#a4a43d"/><path id="path1985" d="M439.6,192.6l2,2Z" fill="#808067"/><path id="path1987" d="M441.6,192.6l2,2Z" fill="#667"/><path id="path1989" d="M443.7,192.6l2,2Z" fill="#58587b"/><path id="path1991" d="M445.7,192.6l2,2Z" fill="#49497d"/><path id="path1993" d="M457.9,192.6l2,2Z" fill="#737370"/><path id="path1995" d="M459.9,192.6l2,2Z" fill="#99994e"/><path id="path1997" d="M461.9,192.6l2,2Z" fill="#a4a43d"/><path id="path1999" d="M474,192.6l2,2Z" fill="#e5e59d"/><path id="path2001" d="M476.2,192.6l2,2Z" fill="#fbfaf2"/><path id="path2003" d="M494.4,192.6l2,2Z" fill="#f2f1d2"/><path id="path2005" d="M496.5,192.6l2,2Z" fill="#d9d868"/><path id="path2007" d="M507.9,193.2l1.4.7-1.3-.7Z" fill="#a4a43d"/><path id="path2009" d="M510.7,192.6l2,2Z" fill="#808067"/><path id="path2011" d="M512.7,192.6l2,2Z" fill="#667"/><path id="path2013" d="M514.7,192.6l2,2Z" fill="#58587b"/><path id="path2015" d="M516.8,192.6l2,2Z" fill="#3a3a7c"/><path id="path2017" d="M526.2,193.2l1.4.7Z" fill="#58587b"/><path id="path2019" d="M528.9,192.6l2,2Z" fill="#737370"/><path id="path2021" d="M530.9,192.6l2,2Z" fill="#99994e"/><path id="path2023" d="M533,192.6l2,2Z" fill="#a4a43d"/><path id="path2025" d="M549.2,192.6l2,2Z" fill="#dddc7a"/><path id="path2027" d="M551.3,192.6l2,2Z" fill="#d0d045"/><path id="path2029" d="M423.4,194.6l2,2Z" fill="#f2f1d7"/><path id="path2031" d="M425.4,194.6l2,2Z" fill="#e0dea1"/><path id="path2033" d="M427.4,194.6l2,2Z" fill="#dddc7a"/><path id="path2035" d="M468,194.6l2,2Z" fill="#d9d868"/><path id="path2037" d="M470,194.6l2,2Z" fill="#e5e3af"/><path id="path2039" d="M498.5,194.6l2,2Z" fill="#f6f6e4"/><path id="path2041" d="M500.5,194.6l2,2Z" fill="#e1e18c"/><path id="path2043" d="M541,194.6l2,2Z" fill="#d4d456"/><path id="path2045" d="M543.2,194.6l2,2Z" fill="#e1e18c"/><path id="path2047" d="M545.2,194.6l2,2Z" fill="#eeedc1"/><path id="path2049" d="M431.5,196.6l2,2Z" fill="#f2f1d2"/><path id="path2051" d="M433.5,196.6l2,2Z" fill="#e0dea1"/><path id="path2053" d="M435.5,196.6l2,2Z" fill="#dddc7a"/><path id="path2055" d="M437.6,196.6l2,2Z" fill="#d0d045"/><path id="path2057" d="M461.9,196.6l2,2Z" fill="#dddc7a"/><path id="path2059" d="M463.9,196.6l2,2Z" fill="#e5e3af"/><path id="path2061" d="M466,196.6l2,2Z" fill="#f6f6e4"/><path id="path2063" d="M504.6,196.6l2,2Z" fill="#eeedc1"/><path id="path2065" d="M506.6,196.6l2,2Z" fill="#e1e18c"/><path id="path2067" d="M508.6,196.6l2,2Z" fill="#d4d456"/><path id="path2069" d="M533,196.6l2,2Z" fill="#d9d868"/><path id="path2071" d="M535,196.6l2,2Z" fill="#e1e18c"/><path id="path2073" d="M537,196.6l2,2Z" fill="#eeedc1"/><path id="path2075" d="M539,196.6l2,2Z" fill="#f6f6e4"/><path id="path2077" d="M441.6,198.6l2,2Z" fill="#f2f1d7"/><path id="path2079" d="M443.7,198.6l2,2Z" fill="#f2f1d2"/><path id="path2081" d="M445.7,198.6l2,2Z" fill="#eeedc1"/><path id="path2083" d="M455.2,199.3l1.3.7Z" fill="#f2f1d2"/><path id="path2085" d="M457.9,198.6l2,2Z" fill="#fbfaf2"/><path id="path2087" d="M468,198.6l4,4v-4Z" fill="#fef8f1"/><path id="path2089" d="M512.7,198.6l2,2Z" fill="#f2f1d7"/><path id="path2091" d="M514.7,198.6l2,2Z" fill="#f2f1d2"/><path id="path2093" d="M516.8,198.6l2,2Z" fill="#e5e3af"/><path id="path2095" d="M520.2,199.3l1.3.7-1.4-.7Z" fill="#e5e59d"/><path id="path2097" d="M522.9,198.6l2,2Z" fill="#e0dea1"/><path id="path2099" d="M526.2,199.3l1.4.7Z" fill="#f2f1d2"/><path id="path2101" d="M528.9,198.6l2,2Z" fill="#fbfaf2"/><path id="path2103" d="M463.9,200.7l2,2Z" fill="#fef8f1"/><path id="path2105" d="M466,200.7l2,2Z" fill="#fbbe66"/><path id="path2107" d="M463.9,202.7l2,2Z" fill="#fbc477"/><path id="path2109" d="M468,202.7l2,2Z" fill="#fcb144"/><path id="path2111" d="M463.9,204.8l2,2Z" fill="#fe9f11"/><path id="path2113" d="M468,204.8l2,2Z" fill="#fea522"/><path id="path2115" d="M461.9,206.8l2,2-2-2m8.2,0,2,2Z" fill="#fae3c9"/><path id="path2117" d="M480.2,206.8l2,2Z" fill="#fbead6"/><path id="path2119" d="M482.3,206.8l2,2Z" fill="#f9d6aa"/><path id="path2121" d="M490.4,206.8l2,2Z" fill="#fae3c9"/><path id="path2123" d="M492.4,206.8l2,2Z" fill="#fef8f1"/><path id="path2125" d="M461.9,208.8l2,2Z" fill="#f9d099"/><path id="path2127" d="M470,208.8l2,2Z" fill="#fdab33"/><path id="path2129" d="M474,208.8l2,2Z" fill="#fcf1e4"/><path id="path2131" d="M476.2,208.8l2,2Z" fill="#fbc477"/><path id="path2133" d="M478.2,208.8l2,2Z" fill="#fea522"/><path id="path2135" d="M494.4,208.8l2,2Z" fill="#fcb755"/><path id="path2137" d="M496.5,208.8l2,2Z" fill="#f9d6aa"/><path id="path2139" d="M461.9,210.9l2,2Z" fill="#faca88"/><path id="path2141" d="M472,210.9l2,2-2-2m26.5,0,2,2Z" fill="#fea522"/><path id="path2143" d="M500.5,210.9l2,2Z" fill="#f8dcbb"/><path id="path2145" d="M419.3,212.9l2,2Z" fill="#f6f6e4"/><path id="path2147" d="M461.9,212.9l2,2Z" fill="#fbc477"/><path id="path2149" d="M502.5,212.9l2,2Z" fill="#fbbe66"/><path id="path2151" d="M504.6,212.9l2,2Z" fill="#f8dcbb"/><path id="path2153" d="M461.9,214.9l2,2Z" fill="#faca88"/><path id="path2155" d="M508.6,214.9l2,2Z" fill="#fcb755"/><path id="path2157" d="M510.7,214.9l2,2Z" fill="#f8dcbb"/><path id="path2159" d="M459.9,217l2,2Z" fill="#fef8f1"/><path id="path2161" d="M461.9,217l2,2Z" fill="#fe9f11"/><path id="path2163" d="M518.8,217l2,2Z" fill="#fdab33"/><path id="path2165" d="M520.9,217l2,2Z" fill="#fcb144"/><path id="path2167" d="M522.9,217l2,2Z" fill="#fbc477"/><path id="path2169" d="M524.9,217l4,4Z" fill="#f9d6aa"/><path id="path2171" d="M526.9,217l2,2Z" fill="#fef8f1"/><path id="path2173" d="M459.9,219l2,2Z" fill="#fcb144"/><path id="path2175" d="M488.3,219l2,2Z" fill="#fdab33"/><path id="path2177" d="M490.4,219l2,2Zm8,0,2,2Z" fill="#fbc477"/><path id="path2179" d="M500.5,219l2,2Z" fill="#fea522"/><path id="path2181" d="M457.9,221l2,2Z" fill="#fae3c9"/><path id="path2183" d="M484.3,221l2,2Z" fill="#fcb144"/><path id="path2185" d="M486.3,221l2,2Z" fill="#fae3c9"/><path id="path2187" d="M502.5,221l2,2Z" fill="#f8dcbb"/><path id="path2189" d="M504.6,221l2,2Z" fill="#fdab33"/><path id="path2191" d="M516.8,221l2,2Z" fill="#fe9f11"/><path id="path2193" d="M518.8,221l2,2Z" fill="#fcb755"/><path id="path2195" d="M520.9,221l2,2Z" fill="#f9d099"/><path id="path2197" d="M522.9,221l2,2Z" fill="#fbead6"/><path id="path2199" d="M457.9,223l2,2Z" fill="#fcb144"/><path id="path2201" d="M482.3,223l2,2Z" fill="#fbbe66"/><path id="path2203" d="M506.6,223l2,2Z" fill="#f9d099"/><path id="path2205" d="M514.7,223l2,2Z" fill="#fbead6"/><path id="path2207" d="M455.9,225l2,2Z" fill="#fcf1e4"/><path id="path2209" d="M480.2,225l2,2Z" fill="#fbbe66"/><path id="path2211" d="M508.6,225l2,2Z" fill="#f9d099"/><path id="path2213" d="M514.7,225l2,2Z" fill="#fae3c9"/><path id="path2215" d="M455.9,227l2,2Z" fill="#fbc477"/><path id="path2217" d="M478.2,227l2,2-2-2m32.5,0,2,2Z" fill="#fcb144"/><path id="path2219" d="M514.7,227l2,2Z" fill="#fbbe66"/><path id="path2221" d="M419.3,229l2,2Z" fill="#f6f6e4"/><path id="path2223" d="M455.9,229l2,2Z" fill="#fea522"/><path id="path2225" d="M478.2,229l2,2Z" fill="#fbead6"/><path id="path2227" d="M510.7,229l2,2Z" fill="#fcf1e4"/><path id="path2229" d="M516.8,229l2,2Z" fill="#fef8f1"/><path id="path2231" d="M453.9,231.2l2,2Z" fill="#fcf1e4"/><path id="path2233" d="M476.2,231.2l2,2Z" fill="#fbbe66"/><path id="path2235" d="M512.7,231.2l2,2Z" fill="#faca88"/><path id="path2237" d="M516.8,231.2l2,2Z" fill="#f9d099"/><path id="path2239" d="M453.9,233.2l2,2Z" fill="#f9d6aa"/><path id="path2241" d="M476.2,233.2l2,2Z" fill="#fcf1e4"/><path id="path2243" d="M486.3,233.2l2,2Z" fill="#fae3c9"/><path id="path2245" d="M488.3,233.2l2,2Z" fill="#fea522"/><path id="path2247" d="M490.4,233.2l2,2Z" fill="#fcb144"/><path id="path2249" d="M492.4,233.2l2,2Z" fill="#f9d6aa"/><path id="path2251" d="M512.7,233.2l2,2Z" fill="#fef8f1"/><path id="path2253" d="M514.7,233.2l2,2Z" fill="#fea522"/><path id="path2255" d="M516.8,233.2l2,2Z" fill="#fdab33"/><path id="path2257" d="M453.9,235.2l-2.1,6,2-6Z" fill="#faca88"/><path id="path2259" d="M474,235.2l2,2Z" fill="#fea522"/><path id="path2261" d="M476.2,235.2l2,2Z" fill="#fef8f1"/><path id="path2263" d="M486.3,235.2l2,2Z" fill="#f9d099"/><path id="path2265" d="M494.4,235.2l2,2Z" fill="#fdab33"/><path id="path2267" d="M496.5,235.2l2,2Z" fill="#fae3c9"/><path id="path2269" d="M514.7,235.2l2,2Z" fill="#f8dcbb"/><path id="path2271" d="M516.8,235.2l2,2Z" fill="#f90"/><path id="path2273" d="M519.5,236.6l.6,1.3Z" fill="#fbead6"/><path id="path2275" d="M478.2,237.2l2,2Z" fill="#fea522"/><path id="path2277" d="M480.2,237.2l2,2Z" fill="#fbbe66"/><path id="path2279" d="M482.3,237.2l2,2Z" fill="#faca88"/><path id="path2281" d="M484.3,237.2l2,2Z" fill="#fcb144"/><path id="path2283" d="M486.3,237.2l2,2Z" fill="#fae3c9"/><path id="path2285" d="M488.3,237.2l2,2Z" fill="#fe9f11"/><path id="path2287" d="M498.5,237.2l2,2Z" fill="#fdab33"/><path id="path2289" d="M500.5,237.2l2,2Z" fill="#fbc477"/><path id="path2291" d="M502.5,237.2l2,2Z" fill="#faca88"/><path id="path2293" d="M504.6,237.2l2,2Z" fill="#f9d6aa"/><path id="path2295" d="M507.9,237.9l1.4.7-1.3-.7Z" fill="#fae3c9"/><path id="path2297" d="M510.7,237.2l2,2Z" fill="#fef8f1"/><path id="path2299" d="M516.8,237.2l2,2Z" fill="#fbc477"/><path id="path2301" d="M429.5,239.3l2,2Z" fill="#fef8f1"/><path id="path2303" d="M431.5,239.3l2,2Z" fill="#fcf1e4"/><path id="path2305" d="M484.3,239.3l2,2Z" fill="#fcb755"/><path id="path2307" d="M488.3,239.3l2,2Z" fill="#fbead6"/><path id="path2309" d="M490.4,239.3l2,2Z" fill="#fea522"/><path id="path2311" d="M506.6,239.3l2,2Z" fill="#fe9f11"/><path id="path2313" d="M508.6,239.3l-2,4Z" fill="#fcb144"/><path id="path2315" d="M512.7,239.3l2,2Z" fill="#fe9f11"/><path id="path2317" d="M514.7,239.3l2,2Z" fill="#fbbe66"/><path id="path2319" d="M516.8,239.3l2,2Z" fill="#fcf1e4"/><path id="path2321" d="M429.5,241.3l2,2Z" fill="#fae3c9"/><path id="path2323" d="M431.5,241.3l4,4Z" fill="#fe9f11"/><path id="path2325" d="M433.5,241.3l2,2Zm18.3,0,2,2Z" fill="#fbead6"/><path id="path2327" d="M453.9,241.3l2,2Z" fill="#fae3c9"/><path id="path2329" d="M472,241.3l2,2Z" fill="#fe9f11"/><path id="path2331" d="M474,241.3l2,2Z" fill="#fbc477"/><path id="path2333" d="M476.2,241.3l2,2Z" fill="#fea522"/><path id="path2335" d="M482.3,241.3l2,2Z" fill="#fbc477"/><path id="path2337" d="M484.3,241.3l2,2Z" fill="#fef8f1"/><path id="path2339" d="M492.4,241.3l2,2Z" fill="#fbc477"/><path id="path2341" d="M508.6,241.3l2,2Z" fill="#fff"/><path id="path2343" d="M510.7,241.3l2,2Z" fill="#fdab33"/><path id="path2345" d="M518.8,241.3l2,2Z" fill="#fbc477"/><path id="path2347" d="M429.5,243.3l2,2Z" fill="#fef8f1"/><path id="path2349" d="M435.5,243.3l2,2Z" fill="#fbead6"/><path id="path2351" d="M445.7,243.3l2,2Z" fill="#f9d6aa"/><path id="path2353" d="M455.9,243.3l2,2Z" fill="#fe9f11"/><path id="path2355" d="M459.2,244l1.4.7Z" fill="#f9d6aa"/><path id="path2357" d="M472,243.3l2,2Z" fill="#f8dcbb"/><path id="path2359" d="M478.2,243.3l2,2Z" fill="#fcf1e4"/><path id="path2361" d="M494.4,243.3l2,2Z" fill="#f9d6aa"/><path id="path2363" d="M508.6,243.3l2,2Z" fill="#fdab33"/><path id="path2365" d="M520.9,243.3l2,2Z" fill="#fcb755"/><path id="path2367" d="M522.9,243.3l2,2Z" fill="#fef8f1"/><path id="path2369" d="M413.2,245.4l2,2Z" fill="#53527c"/><path id="path2371" d="M431.5,245.4l2,2Z" fill="#fcb755"/><path id="path2373" d="M435.5,245.4l2,2Z" fill="#fea522"/><path id="path2375" d="M443.7,245.4l2,2Z" fill="#fbead6"/><path id="path2377" d="M447.7,245.4l2,2Z" fill="#fe9f11"/><path id="path2379" d="M449.8,245.4l2,2Z" fill="#fcf1e4"/><path id="path2381" d="M455.9,245.4l2,2Z" fill="#fbbe66"/><path id="path2383" d="M457.9,245.4l2,2Z" fill="#fbc477"/><path id="path2385" d="M459.9,245.4l2,2Z" fill="#fbbe66"/><path id="path2387" d="M470,245.4l2,2Z" fill="#fea522"/><path id="path2389" d="M496.5,245.4l2,2Z" fill="#f9d6aa"/><path id="path2391" d="M522.9,245.4l2,2Z" fill="#fcb144"/><path id="path2393" d="M555.3,245.4l2,2Z" fill="#8d8d5b"/><path id="path2395" d="M419.3,247.4l2,2Z" fill="#e5e3af"/><path id="path2397" d="M431.5,247.4l2,2Z" fill="#f8dcbb"/><path id="path2399" d="M437.6,247.4l2,2Z" fill="#fdab33"/><path id="path2401" d="M443.7,247.4l2,2Z" fill="#fe9f11"/><path id="path2403" d="M447.7,247.4l2,2Z" fill="#faca88"/><path id="path2405" d="M455.9,247.4l2,2Z" fill="#fcf1e4"/><path id="path2407" d="M470,247.4l2,2-2-2m28.5,0,2,2Z" fill="#f9d099"/><path id="path2409" d="M524.9,247.4l2,2Z" fill="#fbbe66"/><path id="path2411" d="M433.5,249.4l2,2Z" fill="#fea522"/><path id="path2413" d="M439.6,249.4l2,2Z" fill="#fdab33"/><path id="path2415" d="M441.6,249.4l2,2Z" fill="#fea522"/><path id="path2417" d="M445.7,249.4l2,2Z" fill="#fe9f11"/><path id="path2419" d="M447.7,249.4l2,2Z" fill="#fef8f1"/><path id="path2421" d="M457.9,249.4l2,2Z" fill="#fbbe66"/><path id="path2423" d="M470,249.4l2,2Z" fill="#fef8f1"/><path id="path2425" d="M500.5,249.4l2,2Z" fill="#fbbe66"/><path id="path2427" d="M526.9,249.4l2,2Z" fill="#f9d099"/><path id="path2429" d="M433.5,251.5l2,2Z" fill="#f9d6aa"/><path id="path2431" d="M445.7,251.5l2,2Z" fill="#f9d099"/><path id="path2433" d="M457.9,251.5l2,2Z" fill="#fcf1e4"/><path id="path2435" d="M468,251.5l2,2-2-2m34.5,0,2,2Z" fill="#fdab33"/><path id="path2437" d="M528.9,251.5l2,2Z" fill="#fbead6"/><path id="path2439" d="M435.5,253.5l2,2Z" fill="#fea522"/><path id="path2441" d="M443.7,253.5l2,2Z" fill="#fe9f11"/><path id="path2443" d="M459.9,253.5l2,2Z" fill="#fcb144"/><path id="path2445" d="M468,253.5l2,2Z" fill="#faca88"/><path id="path2447" d="M502.5,253.5l2,2Z" fill="#f8dcbb"/><path id="path2449" d="M528.9,253.5l2,2Z" fill="#fcb144"/><path id="path2451" d="M419.3,255.6l2,2Z" fill="#d3d079"/><path id="path2453" d="M435.5,255.6l2,2Zm24.4,0,2,2Z" fill="#faca88"/><path id="path2455" d="M468,255.6l2,2-2-2m34.5,0,2,2Z" fill="#fae3c9"/><path id="path2457" d="M530.9,255.6l2,2Z" fill="#f8dcbb"/><path id="path2459" d="M549.2,255.6l2,2Z" fill="#f2f1d7"/><path id="path2461" d="M556,256.9l.7,1.3Z" fill="#58587b"/><path id="path2463" d="M419.9,258.9l.8,1.4-.7-1.4Z" fill="#d9d868"/><path id="path2465" d="M435.5,257.6l2,2Z" fill="#f8dcbb"/><path id="path2467" d="M500.5,257.6l2,2Z" fill="#f9d6aa"/><path id="path2469" d="M502.5,257.6l2,2Z" fill="#fe9f11"/><path id="path2471" d="M530.9,257.6l2,2Z" fill="#fcb144"/><path id="path2473" d="M549.9,258.9l.7,1.4Z" fill="#f2f1d2"/><path id="path2475" d="M435.5,259.6l2,2Z" fill="#fcf1e4"/><path id="path2477" d="M498.5,259.6l2,2Z" fill="#fef8f1"/><path id="path2479" d="M500.5,259.6l2,2Z" fill="#fe9f11"/><path id="path2481" d="M506.6,259.6l-2,4Z" fill="#fdab33"/><path id="path2483" d="M508.6,259.6l2,2Z" fill="#fcb755"/><path id="path2485" d="M533,259.6l2,2Z" fill="#fea522"/><path id="path2487" d="M535,259.6l2,2Z" fill="#f9d099"/><path id="path2489" d="M555.3,259.6l2,2Z" fill="#53527c"/><path id="path2491" d="M415.9,263l.7,1.3Z" fill="#808067"/><path id="path2493" d="M437.6,261.6l2,2-2-2m6,0,2,2Z" fill="#fea522"/><path id="path2495" d="M466,261.6l2,2Z" fill="#fe9f11"/><path id="path2497" d="M498.5,261.6l2,2Z" fill="#fae3c9"/><path id="path2499" d="M506.6,261.6l2,2Z" fill="#fef8f1"/><path id="path2501" d="M510.7,261.6l2,2Z" fill="#fcb144"/><path id="path2503" d="M537,261.6l2,2Z" fill="#fcb755"/><path id="path2505" d="M539,261.6l4,4Z" fill="#fef8f1"/><path id="path2507" d="M549.9,263l.7,1.3Z" fill="#e5e59d"/><path id="path2509" d="M556,263l.7,1.3Z" fill="#32327b"/><path id="path2511" d="M438.3,265l.6,1.4Z" fill="#fcb755"/><path id="path2513" d="M445.7,263.6l2,2Z" fill="#fef8f1"/><path id="path2515" d="M466,263.6l2,2Z" fill="#fbbe66"/><path id="path2517" d="M498.5,263.6l2,2Z" fill="#fbead6"/><path id="path2519" d="M502.5,263.6l2,2Z" fill="#fe9f11"/><path id="path2521" d="M504.6,263.6l2,2Z" fill="#fcf1e4"/><path id="path2523" d="M510.7,263.6l2,2Z" fill="#fbead6"/><path id="path2525" d="M539,263.6l2,2Z" fill="#fdab33"/><path id="path2527" d="M415.3,265.6l2,2Z" fill="#667"/><path id="path2529" d="M421.3,265.6l2,2Z" fill="#f6f6e4"/><path id="path2531" d="M445.7,265.6l2,2Z" fill="#f9d6aa"/><path id="path2533" d="M461.9,265.6l2,2Z" fill="#fdab33"/><path id="path2535" d="M463.9,265.6l2,2Z" fill="#fe9f11"/><path id="path2537" d="M466,265.6l2,2Z" fill="#fcf1e4"/><path id="path2539" d="M500.5,265.6l2,2Z" fill="#fea522"/><path id="path2541" d="M502.5,265.6l2,2-2-2m10.2,0,2,2Z" fill="#faca88"/><path id="path2543" d="M541,265.6l2,2Z" fill="#fcb144"/><path id="path2545" d="M549.2,265.6l2,2Z" fill="#dddc7a"/><path id="path2547" d="M415.3,267.7l2,2Z" fill="#58587b"/><path id="path2549" d="M421.3,267.7l2,2Z" fill="#f2f1d2"/><path id="path2551" d="M438.3,269l.6,1.4Z" fill="#fcb144"/><path id="path2553" d="M445.7,267.7l2,2Z" fill="#fea522"/><path id="path2555" d="M466,267.7l2,2Z" fill="#fef8f1"/><path id="path2557" d="M468,267.7l2,2Z" fill="#fea522"/><path id="path2559" d="M472,267.7l2,2Z" fill="#fcb144"/><path id="path2561" d="M474,267.7l2,2Z" fill="#fbead6"/><path id="path2563" d="M500.5,267.7l2,2Z" fill="#f8dcbb"/><path id="path2565" d="M502.5,267.7l2,2Z" fill="#fcf1e4"/><path id="path2567" d="M512.7,267.7l2,2Z" fill="#fef8f1"/><path id="path2569" d="M514.7,267.7l2,2Z" fill="#fe9f11"/><path id="path2571" d="M543.2,267.7l2,2Z" fill="#fbead6"/><path id="path2573" d="M549.2,267.7l2,2Z" fill="#d9d868"/><path id="path2575" d="M415.3,269.7l2,2Z" fill="#3a3a7c"/><path id="path2577" d="M421.3,269.7l2,2Z" fill="#e5e3af"/><path id="path2579" d="M447.7,269.7l2,2Z" fill="#faca88"/><path id="path2581" d="M468,269.7l2,2Z" fill="#fbead6"/><path id="path2583" d="M474,269.7l2,2Z" fill="#fe9f11"/><path id="path2585" d="M476.2,269.7l2,2Z" fill="#fcf1e4"/><path id="path2587" d="M498.5,269.7l2,2Z" fill="#fbead6"/><path id="path2589" d="M500.5,269.7l2,2Z" fill="#fae3c9"/><path id="path2591" d="M502.5,269.7l2,2Z" fill="#fbead6"/><path id="path2593" d="M514.7,269.7l2,2-2-2m16.3,0,2,2Z" fill="#fbbe66"/><path id="path2595" d="M533,269.7l2,2Z" fill="#fcf1e4"/><path id="path2597" d="M535,269.7l2,2Z" fill="#fef8f1"/><path id="path2599" d="M537,269.7l2,2Z" fill="#f8dcbb"/><path id="path2601" d="M539,269.7l2,2Z" fill="#fcb755"/><path id="path2603" d="M543.2,269.7l2,2Z" fill="#fae3c9"/><path id="path2605" d="M553.3,269.7l2,2Z" fill="#808067"/><path id="path2607" d="M415.3,271.8l2,2Z" fill="#32327b"/><path id="path2609" d="M417.9,273l.7,1.5-.6-1.4Z" fill="#a4a43d"/><path id="path2611" d="M421.3,271.8l2,2Z" fill="#e5e59d"/><path id="path2613" d="M437.6,271.8l2,2Z" fill="#fbc477"/><path id="path2615" d="M449.8,271.8l2,2Z" fill="#f9d6aa"/><path id="path2617" d="M470,271.8l2,2Z" fill="#fbbe66"/><path id="path2619" d="M476.2,271.8l2,2Z" fill="#f9d099"/><path id="path2621" d="M494.4,271.8l2,2Z" fill="#fae3c9"/><path id="path2623" d="M496.5,271.8l2,2Z" fill="#fcb144"/><path id="path2625" d="M504.6,271.8l2,2Z" fill="#fae3c9"/><path id="path2627" d="M514.7,271.8l2,2Z" fill="#f8dcbb"/><path id="path2629" d="M530.9,271.8l2,2Z" fill="#f9d099"/><path id="path2631" d="M541,271.8l2,2Z" fill="#fbc477"/><path id="path2633" d="M543.2,271.8l2,2Z" fill="#fbead6"/><path id="path2635" d="M553.3,271.8l2,2Z" fill="#737370"/><path id="path2637" d="M421.3,273.8l2,2Z" fill="#d9d868"/><path id="path2639" d="M437.6,273.8l2,2Z" fill="#f9d099"/><path id="path2641" d="M451.8,273.8l2,2-2-2m18.3,0,2,2Z" fill="#f9d6aa"/><path id="path2643" d="M476.2,273.8l2,2Z" fill="#fbc477"/><path id="path2645" d="M486.3,273.8l2,2Z" fill="#fef8f1"/><path id="path2647" d="M488.3,273.8l2,2Z" fill="#f8dcbb"/><path id="path2649" d="M490.4,273.8l2,2Z" fill="#fbc477"/><path id="path2651" d="M492.4,273.8l2,2Z" fill="#fea522"/><path id="path2653" d="M504.6,273.8l2,2Z" fill="#fbead6"/><path id="path2655" d="M547.2,273.8l2,2Z" fill="#f2f1d2"/><path id="path2657" d="M553.3,273.8l2,2Z" fill="#58587b"/><path id="path2659" d="M417.3,275.8l2,2Z" fill="#99994e"/><path id="path2661" d="M421.3,275.8l2,2Z" fill="#d0d045"/><path id="path2663" d="M453.9,275.8l2,2Z" fill="#fcb144"/><path id="path2665" d="M455.9,275.8l2,2Z" fill="#fae3c9"/><path id="path2667" d="M470,275.8l2,2Z" fill="#fef8f1"/><path id="path2669" d="M478.2,275.8l2,2Z" fill="#fcb755"/><path id="path2671" d="M480.2,275.8l2,2Z" fill="#fbc477"/><path id="path2673" d="M482.3,275.8l2,2Z" fill="#fcb144"/><path id="path2675" d="M484.3,275.8l2,2Z" fill="#fea522"/><path id="path2677" d="M500.5,275.8l2,2Z" fill="#fe9f11"/><path id="path2679" d="M502.5,275.8l2,2Z" fill="#f9d6aa"/><path id="path2681" d="M530.9,275.8l2,2Z" fill="#fef8f1"/><path id="path2683" d="M547.2,275.8l2,2Z" fill="#e0dea1"/><path id="path2685" d="M553.3,275.8l2,2Z" fill="#3a3a7c"/><path id="path2687" d="M417.3,277.9l2,2Z" fill="#737370"/><path id="path2689" d="M423.4,277.9l2,2Z" fill="#fbfaf2"/><path id="path2691" d="M439.6,277.9l2,2Z" fill="#fea522"/><path id="path2693" d="M457.9,277.9l2,2Z" fill="#fe9f11"/><path id="path2695" d="M459.9,277.9l2,2Z" fill="#fcb144"/><path id="path2697" d="M461.9,277.9l2,2Z" fill="#fbc477"/><path id="path2699" d="M463.9,277.9l2,2Z" fill="#faca88"/><path id="path2701" d="M466,277.9l2,2Z" fill="#fbc477"/><path id="path2703" d="M468,277.9l2,2Z" fill="#fcb144"/><path id="path2705" d="M470,277.9l2,2Z" fill="#fdab33"/><path id="path2707" d="M498.5,277.9l2,2Z" fill="#fbc477"/><path id="path2709" d="M500.5,277.9l2,2Z" fill="#fef8f1"/><path id="path2711" d="M528.9,277.9l2,2Z" fill="#fdab33"/><path id="path2713" d="M547.2,277.9l2,2Z" fill="#e1e18c"/><path id="path2715" d="M551.9,279.2l.7,1.4Z" fill="#a4a43d"/><path id="path2717" d="M553.3,277.9l2,2Z" fill="#262678"/><path id="path2719" d="M417.3,279.9l2,2Z" fill="#58587b"/><path id="path2721" d="M423.4,279.9l2,2Z" fill="#f2f1d2"/><path id="path2723" d="M439.6,279.9l2,2Z" fill="#faca88"/><path id="path2725" d="M494.4,279.9l2,2Z" fill="#fe9f11"/><path id="path2727" d="M496.5,279.9l2,2Z" fill="#fbead6"/><path id="path2729" d="M514.7,279.9l2,2Z" fill="#fbc477"/><path id="path2731" d="M528.9,279.9l2,2Z" fill="#faca88"/><path id="path2733" d="M547.2,279.9l2,2Z" fill="#d4d456"/><path id="path2735" d="M417.3,281.9l2,2Z" fill="#32327b"/><path id="path2737" d="M423.4,281.9l2,2Z" fill="#e5e59d"/><path id="path2739" d="M439.6,281.9l2,2Z" fill="#fef8f1"/><path id="path2741" d="M441.6,281.9l2,2Z" fill="#fe9f11"/><path id="path2743" d="M494.4,281.9l2,2Z" fill="#fbead6"/><path id="path2745" d="M514.7,281.9l2,2Z" fill="#fea522"/><path id="path2747" d="M528.9,281.9l2,2Z" fill="#fcf1e4"/><path id="path2749" d="M551.3,281.9l2,2Z" fill="#808067"/><path id="path2751" d="M417.3,283.9l2,2Z" fill="#0e0e6e"/><path id="path2753" d="M419.3,283.9l2,2Z" fill="#a4a43d"/><path id="path2755" d="M423.4,283.9l2,2Z" fill="#d9d868"/><path id="path2757" d="M441.6,283.9l2,2Z" fill="#f8dcbb"/><path id="path2759" d="M512.7,283.9l2,2Z" fill="#f9d6aa"/><path id="path2761" d="M526.9,283.9l2,2Z" fill="#faca88"/><path id="path2763" d="M545.2,283.9l2,2Z" fill="#f2f1d2"/><path id="path2765" d="M551.3,283.9l2,2Z" fill="#58587b"/><path id="path2767" d="M419.3,286l2,2Z" fill="#8d8d5b"/><path id="path2769" d="M443.7,286l2,2Z" fill="#f9d6aa"/><path id="path2771" d="M484.3,286l2,2Z" fill="#fdab33"/><path id="path2773" d="M486.3,286l2,2Z" fill="#fff"/><path id="path2775" d="M489.7,286.6l1.4.7Z" fill="#fcb144"/><path id="path2777" d="M510.7,286l-2,4Z" fill="#fef8f1"/><path id="path2779" d="M512.7,286l2,2Z" fill="#fe9f11"/><path id="path2781" d="M524.9,286l-2,4Z" fill="#fdab33"/><path id="path2783" d="M545.2,286l2,2Z" fill="#e5e59d"/><path id="path2785" d="M551.3,286l2,2Z" fill="#3a3a7c"/><path id="path2787" d="M419.3,288l2,2Z" fill="#667"/><path id="path2789" d="M425.4,288l2,2Z" fill="#f2f1d2"/><path id="path2791" d="M445.7,288l2,2Z" fill="#f9d6aa"/><path id="path2793" d="M484.3,288l2,2Z" fill="#fe9f11"/><path id="path2795" d="M486.3,288l2,2Z" fill="#faca88"/><path id="path2797" d="M488.3,288l2,2Z" fill="#fea522"/><path id="path2799" d="M490.4,288l2,2Z" fill="#fcf1e4"/><path id="path2801" d="M510.7,288l2,2Z" fill="#fdab33"/><path id="path2803" d="M524.9,288l2,2Z" fill="#fef8f1"/><path id="path2805" d="M545.2,288l2,2Z" fill="#d9d868"/><path id="path2807" d="M549.2,288l2,2Z" fill="#a4a43d"/><path id="path2809" d="M551.3,288l2,2Z" fill="#0e0e6e"/><path id="path2811" d="M419.3,290l2,2Z" fill="#3a3a7c"/><path id="path2813" d="M425.4,290l2,2Z" fill="#e5e59d"/><path id="path2815" d="M447.7,290l4,4Z" fill="#fae3c9"/><path id="path2817" d="M449.8,290l2,2Z" fill="#fe9f11"/><path id="path2819" d="M488.3,290l2,2Z" fill="#f8dcbb"/><path id="path2821" d="M506.6,290l2,2Z" fill="#fcf1e4"/><path id="path2823" d="M508.6,290l2,2Z" fill="#fdab33"/><path id="path2825" d="M520.9,290l2,2Z" fill="#fcb144"/><path id="path2827" d="M522.9,290l2,2Z" fill="#fef8f1"/><path id="path2829" d="M543.2,290l2,2Z" fill="#fbfaf2"/><path id="path2831" d="M549.2,290l2,2Z" fill="#8d8d5b"/><path id="path2833" d="M419.3,292l2,2Z" fill="#0e0e6e"/><path id="path2835" d="M421.3,292l2,2Z" fill="#a4a43d"/><path id="path2837" d="M425.4,292l2,2Z" fill="#d4d456"/><path id="path2839" d="M486.3,292l2,2Z" fill="#f9d6aa"/><path id="path2841" d="M504.6,292l2,2Z" fill="#f9d099"/><path id="path2843" d="M506.6,292l2,2Z" fill="#fe9f11"/><path id="path2845" d="M518.8,292l2,2Z" fill="#faca88"/><path id="path2847" d="M543.2,292l2,2Z" fill="#eeedc1"/><path id="path2849" d="M549.2,292l2,2Z" fill="#58587b"/><path id="path2851" d="M421.3,294l2,2Z" fill="#737370"/><path id="path2853" d="M427.4,294l2,2Z" fill="#f6f6e4"/><path id="path2855" d="M449.8,294l2,2Z" fill="#fbbe66"/><path id="path2857" d="M482.3,294l2,2Z" fill="#fcb144"/><path id="path2859" d="M484.9,295.5l.7,1.3Z" fill="#f8dcbb"/><path id="path2861" d="M500.5,294l2,2Z" fill="#fbbe66"/><path id="path2863" d="M502.5,294l2,2Z" fill="#fe9f11"/><path id="path2865" d="M514.7,294l2,2Z" fill="#fbc477"/><path id="path2867" d="M516.8,294l2,2Z" fill="#fcf1e4"/><path id="path2869" d="M543.2,294l2,2Z" fill="#d3d079"/><path id="path2871" d="M547.2,294l2,2Z" fill="#a4a43d"/><path id="path2873" d="M549.2,294l2,2Z" fill="#262678"/><path id="path2875" d="M421.3,296l2,2Z" fill="#49497d"/><path id="path2877" d="M427.4,296l2,2Z" fill="#e0dea1"/><path id="path2879" d="M447.7,296l2,2Z" fill="#fae3c9"/><path id="path2881" d="M476.2,296l2,2Z" fill="#fdab33"/><path id="path2883" d="M478.2,296l2,2Z" fill="#fbc477"/><path id="path2885" d="M480.2,296l2,2Z" fill="#fbead6"/><path id="path2887" d="M486.3,296l2,2Z" fill="#fcb144"/><path id="path2889" d="M512.7,296l2,2Z" fill="#f9d6aa"/><path id="path2891" d="M547.2,296l2,2Z" fill="#99994e"/><path id="path2893" d="M421.3,298.2l2,2Z" fill="#0e0e6e"/><path id="path2895" d="M423.4,298.2l2,2Z" fill="#a4a43d"/><path id="path2897" d="M427.4,298.2l2,2Z" fill="#d4d456"/><path id="path2899" d="M445.7,298.2l2,2Z" fill="#f9d099"/><path id="path2901" d="M447.7,298.2l2,2-2-2m10.2,0,2,2Z" fill="#fe9f11"/><path id="path2903" d="M459.9,298.2l2,2Z" fill="#f9d6aa"/><path id="path2905" d="M461.9,298.2l2,2Z" fill="#f9d099"/><path id="path2907" d="M470,298.2l2,2Z" fill="#f9d6aa"/><path id="path2909" d="M472,298.2l2,2Z" fill="#fae3c9"/><path id="path2911" d="M474,298.2l2,2Z" fill="#fef8f1"/><path id="path2913" d="M490.4,298.2l2,2Z" fill="#fbead6"/><path id="path2915" d="M492.4,298.2l2,2Z" fill="#fae3c9"/><path id="path2917" d="M494.4,298.2l2,2Z" fill="#faca88"/><path id="path2919" d="M496.5,298.2l2,2Z" fill="#fbc477"/><path id="path2921" d="M498.5,298.2l2,2Z" fill="#fdab33"/><path id="path2923" d="M508.6,298.2l2,2Z" fill="#fe9f11"/><path id="path2925" d="M510.7,298.2l2,2Z" fill="#f9d6aa"/><path id="path2927" d="M541,298.2l2,2Z" fill="#e5e3af"/><path id="path2929" d="M547.2,298.2l2,2Z" fill="#667"/><path id="path2931" d="M423.4,300.2l2,2Z" fill="#737370"/><path id="path2933" d="M429.5,300.2l2,2Z" fill="#f2f1d7"/><path id="path2935" d="M443.7,300.2l2,2Z" fill="#fea522"/><path id="path2937" d="M453.9,300.2l2,2Z" fill="#fe9f11"/><path id="path2939" d="M455.9,300.2l2,2Z" fill="#fbbe66"/><path id="path2941" d="M457.9,300.2l2,2Z" fill="#fcf1e4"/><path id="path2943" d="M506.6,300.2l2,2Z" fill="#fea522"/><path id="path2945" d="M508.6,300.2l2,2Z" fill="#fbead6"/><path id="path2947" d="M541,300.2l2,2Z" fill="#dddc7a"/><path id="path2949" d="M545.2,300.2l2,2Z" fill="#a4a43d"/><path id="path2951" d="M547.2,300.2l2,2Z" fill="#262678"/><path id="path2953" d="M423.4,302.2l2,2Z" fill="#49497d"/><path id="path2955" d="M426,303.6l.8,1.3Z" fill="#a4a43d"/><path id="path2957" d="M429.5,302.2l2,2Z" fill="#d3d079"/><path id="path2959" d="M445.7,302.2l2,2Z" fill="#f9d099"/><path id="path2961" d="M447.7,302.2l2,2Z" fill="#fcb144"/><path id="path2963" d="M449.8,302.2l2,2Z" fill="#faca88"/><path id="path2965" d="M451.8,302.2l2,2Z" fill="#f8dcbb"/><path id="path2967" d="M453.9,302.2l2,2Z" fill="#fef8f1"/><path id="path2969" d="M498.5,302.2l2,2Z" fill="#f8dcbb"/><path id="path2971" d="M506.6,302.2l2,2Z" fill="#fcf1e4"/><path id="path2973" d="M539,302.2l2,2Z" fill="#f6f6e4"/><path id="path2975" d="M545.2,302.2l2,2Z" fill="#8d8d5b"/><path id="path2977" d="M431.5,304.2l2,2Z" fill="#fbfaf2"/><path id="path2979" d="M498.5,304.2l2,2Z" fill="#fbbe66"/><path id="path2981" d="M504.6,304.2l2,2Z" fill="#faca88"/><path id="path2983" d="M539,304.2l2,2Z" fill="#e1e18c"/><path id="path2985" d="M545.2,304.2l2,2Z" fill="#49497d"/><path id="path2987" d="M425.4,306.3l2,2Z" fill="#58587b"/><path id="path2989" d="M431.5,306.3l2,2Z" fill="#e5e59d"/><path id="path2991" d="M498.5,306.3l2,2Z" fill="#fe9f11"/><path id="path2993" d="M502.5,306.3l2,2Z" fill="#fdab33"/><path id="path2995" d="M537,306.3l2,2Z" fill="#fbfaf2"/><path id="path2997" d="M543.2,306.3l2,2Z" fill="#a4a43d"/><path id="path2999" d="M545.2,306.3l2,2Z" fill="#0e0e6e"/><path id="path3001" d="M425.4,308.3l2,2Z" fill="#1b1b74"/><path id="path3003" d="M427.4,308.3l2,2Z" fill="#a4a43d"/><path id="path3005" d="M431.5,308.3l2,2Z" fill="#d0d045"/><path id="path3007" d="M496.5,308.3l2,2Z" fill="#fbead6"/><path id="path3009" d="M500.5,308.3l2,2Z" fill="#fe9f11"/><path id="path3011" d="M502.5,308.3l2,2Z" fill="#fbead6"/><path id="path3013" d="M537,308.3l2,2Z" fill="#e5e59d"/><path id="path3015" d="M543.2,308.3l2,2Z" fill="#667"/><path id="path3017" d="M427.4,310.3l2,2Z" fill="#6e6c70"/><path id="path3019" d="M433.5,310.3l2,2Z" fill="#e5e3af"/><path id="path3021" d="M497,311.7l.8,1.4Z" fill="#faca88"/><path id="path3023" d="M500.5,310.3l2,2Z" fill="#fae3c9"/><path id="path3025" d="M535,310.3l2,2Z" fill="#fbfaf2"/><path id="path3027" d="M541,310.3l2,2Z" fill="#a4a43d"/><path id="path3029" d="M543.2,310.3l2,2-2-2m-115.8,2,2,2Z" fill="#1b1b74"/><path id="path3031" d="M429.5,312.4l2,2Z" fill="#a4a43d"/><path id="path3033" d="M433.5,312.4l2,2Z" fill="#d0d045"/><path id="path3035" d="M435.5,312.4l2,2Z" fill="#fbfaf2"/><path id="path3037" d="M498.5,312.4l2,2Z" fill="#f9d6aa"/><path id="path3039" d="M535,312.4l2,2Z" fill="#e5e59d"/><path id="path3041" d="M541,312.4l2,2-2-2m-111.5,2,2,2Z" fill="#6e6c70"/><path id="path3043" d="M435.5,314.4l2,2Z" fill="#8cbf84"/><path id="path3045" d="M436.4,314.4c7,14.8,32,49.8,51,49.2,18.6-.7,39.5-35,47.6-49.2Z" fill="#0cf"/><path id="path3047" d="M539,314.4l2,2Z" fill="#a4a43d"/><path id="path3049" d="M541,314.4l2,2-2-2m-111.5,2,2,2Z" fill="#1b1b74"/><path id="path3051" d="M431.5,316.4l2,2Z" fill="#a4a43d"/><path id="path3053" d="M435.5,316.4l2,2Z" fill="#adb333"/><path id="path3055" d="M437.6,316.4l2,2Z" fill="#1ac5b5"/><path id="path3057" d="M533,316.4l2,2Z" fill="#68b070"/><path id="path3059" d="M539,316.4l2,2Z" fill="#667"/><path id="path3061" d="M431.5,318.5l2,2Z" fill="#58587b"/><path id="path3063" d="M437.6,318.5l2,2Z" fill="#7fb15c"/><path id="path3065" d="M530.9,318.5l2,2Z" fill="#27c2aa"/><path id="path3067" d="M537,318.5l-2,4Z" fill="#a4a43d"/><path id="path3069" d="M539,318.5l2,2-2-2m-107.5,2,2,2Z" fill="#0e0e6e"/><path id="path3071" d="M433.5,320.5l4,4Z" fill="#a4a43d"/><path id="path3073" d="M439.6,320.5l2,2Z" fill="#34be9e"/><path id="path3075" d="M530.9,320.5l2,2Z" fill="#96b247"/><path id="path3077" d="M537,320.5l2,2Z" fill="#53527c"/><path id="path3079" d="M433.5,322.6l2,2Z" fill="#3a3a7c"/><path id="path3081" d="M439.6,322.6l2,2Z" fill="#a2b23d"/><path id="path3083" d="M441.6,322.6l2,2Z" fill="#0dc9c1"/><path id="path3085" d="M528.9,322.6l2,2Z" fill="#5bb47c"/><path id="path3087" d="M535,322.6l2,2Z" fill="#8d8d5b"/><path id="path3089" d="M435.5,324.6l2,2Z" fill="#737370"/><path id="path3091" d="M441.6,324.6l2,2Z" fill="#74b166"/><path id="path3093" d="M526.9,324.6l2,2Z" fill="#27c2aa"/><path id="path3095" d="M533,324.6l-2,4Z" fill="#a4a43d"/><path id="path3097" d="M535,324.6l2,2Z" fill="#262678"/><path id="path3099" d="M435.5,326.6l2,2Z" fill="#0e0e6e"/><path id="path3101" d="M437.6,326.6l4,4Z" fill="#a4a43d"/><path id="path3103" d="M443.7,326.6l2,2Z" fill="#42bb92"/><path id="path3105" d="M524.9,326.6l2,2Z" fill="#0dc9c1"/><path id="path3107" d="M526.9,326.6l2,2Z" fill="#96b247"/><path id="path3109" d="M533,326.6l2,2Z" fill="#58587b"/><path id="path3111" d="M437.6,328.6l2,2Z" fill="#3a3a7c"/><path id="path3113" d="M443.7,328.6l2,2Z" fill="#adb333"/><path id="path3115" d="M445.7,328.6l2,2Z" fill="#27c2aa"/><path id="path3117" d="M524.9,328.6l2,2Z" fill="#74b166"/><path id="path3119" d="M530.9,328.6l2,2Z" fill="#8d8d5b"/><path id="path3121" d="M439.6,330.6l2,2Z" fill="#6e6c70"/><path id="path3123" d="M445.7,330.6l2,2Z" fill="#96b247"/><path id="path3125" d="M447.7,330.6l2,2Z" fill="#0dc9c1"/><path id="path3127" d="M522.9,330.6l2,2Z" fill="#42bb92"/><path id="path3129" d="M528.9,330.6l-4,6Z" fill="#a4a43d"/><path id="path3131" d="M530.9,330.6l2,2Z" fill="#1b1b74"/><path id="path3133" d="M439.6,332.6l2,2Z" fill="#0e0e6e"/><path id="path3135" d="M441.6,332.6l2,2Z" fill="#8d8d5b"/><path id="path3137" d="M447.7,332.6l2,2Z" fill="#7fb15c"/><path id="path3139" d="M520.9,332.6l2,2Z" fill="#34be9e"/><path id="path3141" d="M528.9,332.6l2,2Z" fill="#3a3a7c"/><path id="path3143" d="M441.6,334.7l2,2Z" fill="#1b1b74"/><path id="path3145" d="M443.7,334.7,466,357Z" fill="#a4a43d"/><path id="path3147" d="M449.8,334.7l2,2Z" fill="#74b166"/><path id="path3149" d="M518.8,334.7l2,2Z" fill="#27c2aa"/><path id="path3151" d="M520.9,334.7l2,2Z" fill="#adb333"/><path id="path3153" d="M526.9,334.7l2,2Z" fill="#667"/><path id="path3155" d="M443.7,336.7l2,2Z" fill="#32327b"/><path id="path3157" d="M451.8,336.7l2,2Z" fill="#42bb92"/><path id="path3159" d="M516.8,336.7l-8.2,10.2,8.3-10.3Z" fill="#0dc9c1"/><path id="path3161" d="M518.8,336.7l2,2Z" fill="#adb333"/><path id="path3163" d="M524.9,336.7l2,2Z" fill="#737370"/><path id="path3165" d="M445.7,338.8l2,2Z" fill="#49497d"/><path id="path3167" d="M453.9,338.8l2,2Z" fill="#42bb92"/><path id="path3169" d="M516.8,338.8l2,2Z" fill="#96b247"/><path id="path3171" d="M522.9,338.8l-2,4Z" fill="#8d8d5b"/><path id="path3173" d="M524.9,338.8l2,2Z" fill="#0e0e6e"/><path id="path3175" d="M447.7,340.8l2,2Z" fill="#53527c"/><path id="path3177" d="M455.9,340.8l2,2Z" fill="#42bb92"/><path id="path3179" d="M514.7,340.8l2,2Z" fill="#96b247"/><path id="path3181" d="M522.9,340.8l2,2Z" fill="#0e0e6e"/><path id="path3183" d="M449.8,342.8l2,2Z" fill="#6e6c70"/><path id="path3185" d="M457.9,342.8l2,2Z" fill="#42bb92"/><path id="path3187" d="M512.7,342.8l2,2Z" fill="#96b247"/><path id="path3189" d="M518.8,342.8l-4,6Z" fill="#a4a43d"/><path id="path3191" d="M520.9,342.8l2,2Z" fill="#262678"/><path id="path3193" d="M451.8,344.9l2,2Z" fill="#6e6c70"/><path id="path3195" d="M459.9,344.9l2,2Z" fill="#42bb92"/><path id="path3197" d="M510.7,344.9l2,2Z" fill="#96b247"/><path id="path3199" d="M518.8,344.9l2,2Z" fill="#262678"/><path id="path3201" d="M453.9,346.9l2,2Z" fill="#6e6c70"/><path id="path3203" d="M461.9,346.9l2,2Z" fill="#68b070"/><path id="path3205" d="M506.6,346.9l2,2Z" fill="#27c2aa"/><path id="path3207" d="M508.6,346.9l2,2Z" fill="#adb333"/><path id="path3209" d="M516.8,346.9l2,2Z" fill="#262678"/><path id="path3211" d="M455.9,348.9l2,2Z" fill="#667"/><path id="path3213" d="M463.9,348.9l2,2Z" fill="#74b166"/><path id="path3215" d="M504.6,348.9l2,2Z" fill="#34be9e"/><path id="path3217" d="M506.6,348.9l2,2Z" fill="#adb333"/><path id="path3219" d="M512.7,348.9l-2,4Z" fill="#8d8d5b"/><path id="path3221" d="M514.7,348.9l2,2Z" fill="#262678"/><path id="path3223" d="M457.9,350.9l2,2Z" fill="#49497d"/><path id="path3225" d="M466,350.9l2,2Z" fill="#96b247"/><path id="path3227" d="M468,350.9l2,2Z" fill="#0dc9c1"/><path id="path3229" d="M502.5,350.9l2,2Z" fill="#42bb92"/><path id="path3231" d="M512.7,350.9l2,2Z" fill="#0e0e6e"/><path id="path3233" d="M459.9,353l2,2Z" fill="#49497d"/><path id="path3235" d="M468,353l2,2Z" fill="#a2b23d"/><path id="path3237" d="M470,353l2,2Z" fill="#27c2aa"/><path id="path3239" d="M500.5,353l2,2Z" fill="#74b166"/><path id="path3241" d="M506.6,353l-6,8Z" fill="#a4a43d"/><path id="path3243" d="M508.6,353l2,2Z" fill="#808067"/><path id="path3245" d="M510.7,353l2,2Z" fill="#0e0e6e"/><path id="path3247" d="M461.9,355l2,2Z" fill="#262678"/><path id="path3249" d="M470,355l2,2Z" fill="#adb333"/><path id="path3251" d="M472,355l2,2Z" fill="#42bb92"/><path id="path3253" d="M496.5,355l2,2Z" fill="#0dc9c1"/><path id="path3255" d="M498.5,355l2,2Z" fill="#96b247"/><path id="path3257" d="M506.6,355l2,2Z" fill="#6e6c70"/><path id="path3259" d="M463.9,357l2,2Z" fill="#1b1b74"/><path id="path3261" d="M466,357l2,2Z" fill="#8d8d5b"/><path id="path3263" d="M474,357l2,2Z" fill="#74b166"/><path id="path3265" d="M476.2,357l2,2Z" fill="#0dc9c1"/><path id="path3267" d="M494.4,357l2,2Z" fill="#34be9e"/><path id="path3269" d="M496.5,357l2,2Z" fill="#adb333"/><path id="path3271" d="M504.6,357l2,2Z" fill="#49497d"/><path id="path3273" d="M466,359l2,2Z" fill="#0e0e6e"/><path id="path3275" d="M468,359l2,2Z" fill="#6e6c70"/><path id="path3277" d="M470,359l4,4Z" fill="#a4a43d"/><path id="path3279" d="M476.2,359l2,2Z" fill="#96b247"/><path id="path3281" d="M478.2,359l2,2Z" fill="#27c2aa"/><path id="path3283" d="M492.4,359l2,2Z" fill="#68b070"/><path id="path3285" d="M502.5,359l2,2Z" fill="#32327b"/><path id="path3287" d="M470,361l2,2Z" fill="#49497d"/><path id="path3289" d="M480.2,361l2,2Z" fill="#5bb47c"/><path id="path3291" d="M488.3,361l2,2Z" fill="#27c2aa"/><path id="path3293" d="M490.4,361l2,2Z" fill="#96b247"/><path id="path3295" d="M496.5,361l-2,4Z" fill="#a4a43d"/><path id="path3297" d="M498.5,361l2,2Z" fill="#808067"/><path id="path3299" d="M500.5,361l2,2Z" fill="#0e0e6e"/><path id="path3301" d="M472,363l2,2Z" fill="#262678"/><path id="path3303" d="M474,363l2,2Z" fill="#8d8d5b"/><path id="path3305" d="M482.3,363l2,2Z" fill="#8bb252"/><path id="path3307" d="M484.3,363l2,2Z" fill="#1ac5b5"/><path id="path3309" d="M486.3,363l2,2Z" fill="#5bb47c"/><path id="path3311" d="M496.5,363l2,2Z" fill="#58587b"/><path id="path3313" d="M474,365.2l2,2Z" fill="#0e0e6e"/><path id="path3315" d="M476.2,365.2l2,2Z" fill="#667"/><path id="path3317" d="M478.2,365.2l2,2Z" fill="#a4a43d"/><path id="path3319" d="M492.4,365.2l2,2Z" fill="#99994e"/><path id="path3321" d="M494.4,365.2l2,2-2-2m-16.2,2,2,2Z" fill="#32327b"/><path id="path3323" d="M480.2,367.2l2,2Z" fill="#99994e"/><path id="path3325" d="M488.3,367.2l2,2Z" fill="#a4a43d"/><path id="path3327" d="M490.4,367.2l2,2Z" fill="#667"/><path id="path3329" d="M492.4,367.2l2,2-2-2m-12.2,2,2,2Z" fill="#0e0e6e"/><path id="path3331" d="M482.3,369.2l2,2Z" fill="#667"/><path id="path3333" d="M484.3,369.2l2,2Z" fill="#a4a43d"/><path id="path3335" d="M486.3,369.2l2,2Z" fill="#99994e"/><path id="path3337" d="M488.3,369.2l2,2Z" fill="#32327b"/><path id="path3339" d="M484.3,371.2l2,2Z" fill="#262678"/><path id="path3341" d="M486.3,371.2l2,2Z" fill="#0e0e6e"/><path id="path3343" d="M488.3,235.2c3.2,7.4,13.2,15.5,16,19.5-3.5,4-4.2,3.6-3.8,11,6-6.4,6.2-7,10.2-6.1,8.6,8.6,1.5,27-5.6,31-7.1,4.3-5.8-.1-16.5,5.2,4.9,4.2,10.6-.6,15.2.7,2.5,3-1.2,8.4.7,13.6,4-.4,3.6-8.7,4.6-11.7,3-11,21-18.6,21.9-28.7,3.8-1.7,7.5-.5,12,2-2.2-9.4-9.7-9.3-11.8-12.2-4.8-7.4-9.1-15.8-19.4-18-8-1.7-7.3.5-12.3-3-3.2-2.4-12.7-7-11.2-3.3Z" fill="#f90"/><path id="path3345" d="M510.9,243.6a1.65,1.65,0,1,1-1.65-1.65,1.65,1.65,0,0,1,1.65,1.65Z" fill="#fff" fill-rule="evenodd"/><path id="path3347" d="M463.2,266.5c5-6.2,7.6-19,9.8-23.2,5.2,1.2,5,2,11.5-1.8-8.5-2.4-9.2-2.2-10.2-6.1,3.6-11.7,23.2-14,30-9.6,7.2,4.3,2.7,5.2,12.4,12,1.4-6.2-5.5-9-6.5-13.6,1.5-3.7,8-3,11.6-7-2.2-3.5-9.3.8-12.4,1.4-11,2.5-26.3-9.8-35.6-6-3.3-2.5-4-6.4-4-11.7-7.1,6.5-3.5,13-5.2,16.3-4.2,7.7-9.7,15.5-6.8,25.6,2.2,7.8,3.8,6.2,3.2,12.3C460.3,259,460.6,269.6,463.2,266.5Z" fill="#f90"/><path id="path3349" d="M460,242.6a1.73,1.73,0,0,1,2.3.7,1.6,1.6,0,1,1-2.2-.7Z" fill="#fff" fill-rule="evenodd"/><path id="path3351" d="M504.3,270.8c-8-1-20.1,3.3-25,3.7-1.5-5.1-.8-5.5-7.4-9,2.3,8.6,2.8,9,0,12-11.8,2.9-24-12.7-23.8-20.8,0-8.3,3.2-5,4-17-6,2-4.8,9.5-8.3,12.8-4,.6-6.6-5.3-12-6.3-1.8,3.7,5.5,7.5,7.6,9.9,7.9,8.2,5.2,27.5,13.3,33.5-.4,4.2-3.4,6.8-8,9.4,9.3,2.9,13-3.7,16.7-4,8.8-.2,18.3.4,25.5-7.3,5.4-6,3.3-6.5,8.8-9,3.7-1.4,12.6-7.2,8.6-8Z" fill="#f90"/><path id="path3353" d="M485.5,285.9a1.64,1.64,0,1,1,2.25-.55,1.64,1.64,0,0,1-2.25.55Z" fill="#fff" fill-rule="evenodd"/><path id="path5288" d="M0,0H320V240H0Z" fill="#012169"/><path id="path5290" d="M37.5,0l122,90.5L281,0h39V31L200,120.5l120,89V240H280L160,150.5,40.5,240H0V210l119.5-89L0,32V0Z" fill="#fff"/><path id="path5292" d="M212,140.5,320,220v20L184.5,140.5Zm-92,10,3,17.5L27,240H0ZM320,0V1.5l-124.5,94,1-22L295,0ZM0,0,119.5,88h-30L0,21Z" fill="#c8102e"/><path id="path5294" d="M120.5,0V240h80V0ZM0,80v80H320V80Z" fill="#fff"/><path id="path5296" d="M0,96.5v48H320v-48ZM136.5,0V240h48V0Z" fill="#c8102e"/></svg>