<svg id="flag-icons-aw" xmlns="http://www.w3.org/2000/svg" xmlns:xlink="http://www.w3.org/1999/xlink" viewBox="0 0 719.99 480"><defs><clipPath id="clip-path"><rect width="639.99" height="480" fill="none"/></clipPath></defs><title>aw</title><g clip-path="url(#clip-path)"><path d="M0,0V480H720V0Z" fill="#39c"/><path d="M0,320v26.66H720V320Zm0,53.33V400H720V373.33Z" fill="#ff0"/></g><path d="M142.7,28l2.9,3-3-3Zm-3,6,3,3-3-3m5.9,0,3,3Z" fill="#9cc"/><path d="M139.7,37l3,2.9-3-3m5.9,0,3,3Z" fill="#ccf"/><path d="M136.7,42.8l3,3Z" fill="#6cc"/><path d="M142.7,42.8l2.9,3-3-3Z" fill="#c66"/><path d="M148.6,42.8l2.9,3-3-3Z" fill="#6cc"/><path d="M136.7,45.8l3,3Zm11.9,0,2.9,3-3-3Z" fill="#ccf"/><path d="M139.7,48.7l3,3-3-3m5.9,0,3,3Z" fill="#fcc"/><path d="M133.8,51.7l3,3Z" fill="#6cc"/><path d="M142.2,34l-20.7,78.5L42.8,134l78.4,20.5,21,78.4,20.9-78.4,78.4-21-78.4-20.9-21-78.4Z" fill="#c00" stroke="#fff" stroke-width="3.7"/><path d="M151.5,51.7l3,3Z" fill="#6cc"/><path d="M133.8,54.6l3,3-3-3m17.7,0,3,3Z" fill="#9cf"/><path d="M136.7,57.6l3,3-3-3m11.9,0,2.9,3-3-3Z" fill="#fcc"/><path d="M130.8,60.5l3,3Z" fill="#69c"/><path d="M137.7,62.5l1,2-1-2m11.8,0,1,2Z" fill="#c33"/><path d="M154.5,60.5l3,3Z" fill="#69c"/><path d="M130.8,63.5l3,3-3-3m23.7,0,3,3Z" fill="#9cf"/><path d="M133.8,66.4l3,3-3-3m17.7,0,3,3Z" fill="#fcc"/><path d="M127.9,69.4l3,3Zm29.5,0,3,3Z" fill="#69c"/><path d="M127.9,72.3l3,3-3-3m29.5,0,3,3Z" fill="#9cc"/><path d="M127.9,75.3l3,3-3-3m29.5,0,3,3Z" fill="#cff"/><path d="M125,78.3l2.9,2.9-3-3Z" fill="#69c"/><path d="M130.8,78.3l3,2.9-3-3m23.7,0,3,3Z" fill="#fcc"/><path d="M160.4,78.3l3,2.9-3-3Z" fill="#69c"/><path d="M125,81.2l2.9,3-3-3Z" fill="#9cc"/><path d="M131.8,83.2l1,2-1-2m23.6,0,1,2Z" fill="#c33"/><path d="M160.4,81.2l3,3Z" fill="#9cc"/><path d="M125,84.2l2.9,3-3-3m35.5,0,3,3Z" fill="#cff"/><path d="M127.9,87.1l3,3-3-3m29.5,0,3,3Z" fill="#fcc"/><path d="M122,90l3,3Z" fill="#9cc"/><path d="M128.9,92l1,2-1-2m29.5,0,1,2Z" fill="#c33"/><path d="M163.3,90l3,3Z" fill="#9cc"/><path d="M122,93l3,3-3-3m41.3,0,3,3Z" fill="#ccf"/><path d="M125,96l2.9,3-3-3m35.5,0,3,3Z" fill="#fcc"/><path d="M119,99l3,2.9-3-3Z" fill="#9cc"/><path d="M126,100.9l.9,2-1-2m35.4,0,1,2Z" fill="#c33"/><path d="M166.3,99l3,2.9-3-3Z" fill="#9cc"/><path d="M119,101.9l3,3-3-3m47.3,0,3,3Z" fill="#ccf"/><path d="M122,104.8l3,3-3-3m41.3,0,3,3Z" fill="#fcc"/><path d="M116,107.8l3,3Z" fill="#9cc"/><path d="M122,107.8l3,3-3-3m41.3,0,3,3Z" fill="#c33"/><path d="M169.2,107.8l3,3-3-3m-62,3,3,2.9-3-3Z" fill="#9cc"/><path d="M110.2,110.7l3,3-3-3m65,0,2.9,3-3-3Z" fill="#ccf"/><path d="M178,110.7l3,3-3-3m-79.6,3,3,3Z" fill="#9cc"/><path d="M101.3,113.7l3,3Z" fill="#ccf"/><path d="M113.1,113.7l3,3Z" fill="#fcc"/><path d="M116,113.7l3,3-3-3m53.2,0,3,3Z" fill="#c33"/><path d="M172.2,113.7l3,3Z" fill="#fcc"/><path d="M184,113.7l3,3Z" fill="#ccf"/><path d="M187,113.7l2.9,3-3-3Z" fill="#9cc"/><path d="M86.6,116.6l3,3Z" fill="#69c"/><path d="M89.5,116.6l3,3Z" fill="#9cc"/><path d="M92.5,116.6l3,3Z" fill="#cff"/><path d="M104.3,116.6l3,3Z" fill="#fcc"/><path d="M109.2,117.6l2,1-2-1m67.9,0,2,1Z" fill="#c33"/><path d="M181,116.6l3,3Z" fill="#fcc"/><path d="M192.8,116.6l3,3Z" fill="#cff"/><path d="M195.8,116.6l3,3Z" fill="#9cc"/><path d="M198.7,116.6l3,3-3-3m-121,3,3,3Z" fill="#69c"/><path d="M80.7,119.6l3,3Z" fill="#9cc"/><path d="M83.6,119.6l3,3Z" fill="#cff"/><path d="M95.4,119.6l3,3Z" fill="#fcc"/><path d="M100.3,120.6l2,1-2-1m85.6,0,2,1Z" fill="#c33"/><path d="M189.9,119.6l3,3Z" fill="#fcc"/><path d="M201.7,119.6l3,3Z" fill="#cff"/><path d="M204.6,119.6l3,3Z" fill="#9cc"/><path d="M207.6,119.6l3,3-3-3m-138.8,3,3,2.9-3-3Z" fill="#69c"/><path d="M71.8,122.5l3,3Z" fill="#9cf"/><path d="M86.6,122.5l3,3Z" fill="#fcc"/><path d="M91.5,123.5l2,1-2-1m103.3,0,2,1Z" fill="#c33"/><path d="M198.7,122.5l3,3Z" fill="#fcc"/><path d="M213.5,122.5l3,3Z" fill="#9cf"/><path d="M216.4,122.5l3,3Z" fill="#69c"/><path d="M60,125.5l3,3Z" fill="#6cc"/><path d="M63,125.5l2.9,3-3-3Z" fill="#9cf"/><path d="M74.8,125.5l2.9,3-3-3Zm135.8,0,2.9,3-3-3Z" fill="#fcc"/><path d="M222.3,125.5l3,3Z" fill="#9cf"/><path d="M225.3,125.5l3,3-3-3m-174.2,3,3,2.9-3-3Z" fill="#6cc"/><path d="M54,128.4l3,3Z" fill="#ccf"/><path d="M65.9,128.4l3,3Z" fill="#fcc"/><path d="M70.8,129.4l2,1-2-1m144.7,0,2,1Z" fill="#c33"/><path d="M219.4,128.4l3,3Z" fill="#fcc"/><path d="M231.2,128.4l3,3Z" fill="#ccf"/><path d="M234.2,128.4l3,3Z" fill="#6cc"/><path d="M42.3,131.4l3,3Z" fill="#9cc"/><path d="M45.2,131.4l3,3Z" fill="#ccf"/><path d="M57,131.4l3,3Zm171.3,0,3,3Z" fill="#fcc"/><path d="M240,131.4l3,3Z" fill="#ccf"/><path d="M243,131.4l3,3-3-3m-206.6,3,3,2.9-3-3Z" fill="#9cc"/><path d="M51.1,134.3l3,3Zm183,0,3,3Z" fill="#c66"/><path d="M249,134.3l2.9,3-3-3m-206.6,3,3,3Z" fill="#9cc"/><path d="M45.2,137.3l3,3Z" fill="#ccf"/><path d="M57,137.3l3,3-3-3m171.3,0,3,3Z" fill="#fcc"/><path d="M240,137.3l3,3Z" fill="#ccf"/><path d="M243,137.3l3,3Z" fill="#9cc"/><path d="M51.1,140.3l3,2.9-3-3Z" fill="#6cc"/><path d="M54,140.3l3,2.9-3-3Z" fill="#ccf"/><path d="M65.9,140.3l3,2.9-3-3Z" fill="#fcc"/><path d="M70.8,141.2l2,1-2-1m144.7,0,2,1Z" fill="#c33"/><path d="M219.4,140.3l3,2.9-3-3Z" fill="#fcc"/><path d="M231.2,140.3l3,2.9-3-3Z" fill="#ccf"/><path d="M234.2,140.3l3,2.9-3-3M60,143.2l3,3Z" fill="#6cc"/><path d="M63,143.2l2.9,3-3-3Z" fill="#9cf"/><path d="M74.8,143.2l2.9,3-3-3Zm135.8,0,2.9,3-3-3Z" fill="#fcc"/><path d="M222.3,143.2l3,3Z" fill="#9cf"/><path d="M225.3,143.2l3,3Z" fill="#6cc"/><path d="M68.8,146.2l3,2.9-3-3Z" fill="#69c"/><path d="M71.8,146.2l3,2.9-3-3Z" fill="#9cf"/><path d="M86.6,146.2l3,2.9-3-3Z" fill="#fcc"/><path d="M91.5,147.1l2,1-2-1m103.3,0,2,1Z" fill="#c33"/><path d="M198.7,146.2l3,2.9-3-3Z" fill="#fcc"/><path d="M213.5,146.2l3,2.9-3-3Z" fill="#9cf"/><path d="M216.4,146.2l3,2.9-3-3m-138.7,3,3,3Z" fill="#69c"/><path d="M80.7,149.1l3,3Z" fill="#9cc"/><path d="M83.6,149.1l3,3Z" fill="#cff"/><path d="M95.4,149.1l3,3Z" fill="#fcc"/><path d="M100.3,150l2,1-2-1m85.6,0,2,1Z" fill="#c33"/><path d="M189.9,149.1l3,3Z" fill="#fcc"/><path d="M201.7,149.1l3,3Z" fill="#cff"/><path d="M204.6,149.1l3,3Z" fill="#9cc"/><path d="M207.6,149.1l3,3-3-3m-121,3,2.9,2.9-3-3Z" fill="#69c"/><path d="M89.5,152l3,3Z" fill="#9cc"/><path d="M92.5,152l3,3Z" fill="#cff"/><path d="M104.3,152l3,3Z" fill="#fcc"/><path d="M109.2,153l2,1-2-1m67.9,0,2,1Z" fill="#c33"/><path d="M181,152l3,3Z" fill="#fcc"/><path d="M192.8,152l3,3Z" fill="#cff"/><path d="M195.8,152l3,3Z" fill="#9cc"/><path d="M198.7,152l3,3Z" fill="#69c"/><path d="M98.4,155l3,3Z" fill="#9cc"/><path d="M101.3,155l3,3Z" fill="#ccf"/><path d="M113.1,155l3,3Z" fill="#fcc"/><path d="M116,155l3,3-3-3m53.2,0,3,3Z" fill="#c33"/><path d="M172.2,155l3,3Z" fill="#fcc"/><path d="M184,155l3,3Z" fill="#ccf"/><path d="M187,155l2.9,3-3-3m-79.7,3,3,3Z" fill="#9cc"/><path d="M110.2,158l3,3-3-3m65,0,2.9,3-3-3Z" fill="#ccf"/><path d="M178,158l3,3-3-3m-62,3,3,2.9-3-3Z" fill="#9cc"/><path d="M122,161l3,2.9-3-3m41.3,0,3,3Z" fill="#c33"/><path d="M169.2,161l3,2.9-3-3Z" fill="#9cc"/><path d="M122,163.9l3,3-3-3m41.3,0,3,3Z" fill="#fcc"/><path d="M119,166.8l3,3Z" fill="#ccf"/><path d="M126,168.8l.9,2-1-2m35.4,0,1,2Z" fill="#c33"/><path d="M166.3,166.8l3,3Z" fill="#ccf"/><path d="M119,169.8l3,3-3-3m47.3,0,3,3Z" fill="#9cc"/><path d="M125,172.7l2.9,3-3-3m35.5,0,3,3Z" fill="#fcc"/><path d="M122,175.7l3,3Z" fill="#ccf"/><path d="M128.9,177.6l1,2-1-2m29.5,0,1,2Z" fill="#c33"/><path d="M163.3,175.7l3,3Z" fill="#ccf"/><path d="M122,178.6l3,3-3-3m41.3,0,3,3Z" fill="#9cc"/><path d="M127.9,181.6l3,3-3-3m29.5,0,3,3Z" fill="#fcc"/><path d="M125,184.5l2.9,3-3-3Z" fill="#cff"/><path d="M131.8,186.5l1,2-1-2m23.6,0,1,2Z" fill="#c33"/><path d="M160.4,184.5l3,3Z" fill="#cff"/><path d="M125,187.5l2.9,3-3-3m35.5,0,3,3Z" fill="#9cc"/><path d="M125,190.4l2.9,3-3-3Z" fill="#69c"/><path d="M130.8,190.4l3,3-3-3m23.7,0,3,3Z" fill="#fcc"/><path d="M160.4,190.4l3,3Z" fill="#69c"/><path d="M127.9,193.4l3,3Zm29.5,0,3,3Z" fill="#cff"/><path d="M127.9,196.3l3,3-3-3m29.5,0,3,3Z" fill="#9cc"/><path d="M127.9,199.3l3,3-3-3m29.5,0,3,3Z" fill="#69c"/><path d="M133.8,202.2l3,3-3-3m17.7,0,3,3Z" fill="#fcc"/><path d="M130.8,205.2l3,3Z" fill="#9cf"/><path d="M137.7,207.2l1,2-1-2m11.8,0,1,2Z" fill="#c33"/><path d="M154.5,205.2l3,3Z" fill="#9cf"/><path d="M130.8,208.2l3,2.9-3-3m23.7,0,3,3Z" fill="#69c"/><path d="M136.7,211.1l3,3-3-3m11.9,0,2.9,3-3-3Z" fill="#fcc"/><path d="M133.8,214l3,3Zm17.7,0,3,3Z" fill="#9cf"/><path d="M133.8,217l3,3-3-3m17.7,0,3,3Z" fill="#6cc"/><path d="M139.7,220l3,3-3-3m5.9,0,3,3Z" fill="#fcc"/><path d="M136.7,222.9l3,3-3-3m11.9,0,2.9,3-3-3Z" fill="#ccf"/><path d="M136.7,225.9l3,3Z" fill="#6cc"/><path d="M142.7,225.9l2.9,3-3-3Z" fill="#c66"/><path d="M148.6,225.9l2.9,3-3-3Z" fill="#6cc"/><path d="M139.7,231.8l3,3-3-3m5.9,0,3,3Z" fill="#ccf"/><path d="M139.7,234.7l3,3-3-3m5.9,0,3,3-3-3m-3,6,3,2.9-3-3Z" fill="#9cc"/></svg>