<svg id="flag-icons-bm" xmlns="http://www.w3.org/2000/svg" viewBox="0 0 640 480"><title>bm</title><path id="path555" d="M0,0H640V480H0Z" fill="#cf142b"/><path id="path565" d="M559.7,130.6V292.2c0,43.1-86.2,57.2-86.2,57.2s-86.4-14-86.4-57.4V130.6H559.7Z" fill="#fff"/><path id="path567" d="M559.7,292.2c0,43.1-86.2,57.2-86.2,57.2s-86.4-14-86.4-57.4c0,0,0-3.5,1.8-5.4a16,16,0,0,0,4.5,12.6s-4.3-7.8,0-15.3c0,0-1.7,9.8,4.4,15.3a23.31,23.31,0,0,1,.4-16.7s-1.8,14.3,4.7,17.3c0,0,1.8-8.4-.8-13.6,0,0,4.5,1.8,4.3,13.8,0,0,1.4-1.8,1.8-10.5,0,0,.2,10,3.5,12.3,0,0,1.2-1-.3-5.5s.6-6,1-6a10.41,10.41,0,0,0,3.4,8.8s-1.8-7.9.7-9c0,0-.6,6.7,4.8,8.1a7,7,0,0,0-.8-4,7.49,7.49,0,0,1-.3-4.5s1.7,6,4,7a10.46,10.46,0,0,1,0-7s.2,5,4.7,7.1c0,0-3-4-1.9-8.2l28.7,1.4,15,.7,44.7-3L523,281s3.1,4.1-1.8,10.8c0,0,4.8-.8,6.3-8.3a9.87,9.87,0,0,1-.7,8.8s5.3-5.4,6-11.3c0,0,2.1,5.8-2.9,12,0,0,4.4-1.6,6.3-8.1,0,0,1.6,4-2.7,9.5,0,0,8.1-4.1,7.9-13,0,0,3.3,4.8-.5,11.6a15.78,15.78,0,0,0,4.5-9.3s2.3,2.5-.2,9.4c0,0,5-4.8,5.8-9.9,0,0,1,4.8-3.2,10.8,0,0,2.9-.8,5.7-6.6,0,0,.7,2.4-1.8,6.6,0,0,2.8-.5,4.6-5.9a18.82,18.82,0,0,1-.5,6s2.1-1.3,2.6-7.3a9,9,0,0,0,1.2,4.4v.8Z" fill="#2f8f22"/><path id="path569" d="M515.4,198.7a15.83,15.83,0,0,1-7-.6c-3.8-1.2-5.3-.7-6.5,0,0,0,1.5-3.1-2.3-5.6,0,0,1.2,3.2-.5,4.6,0,0-.7.7-1.6-.3a13.65,13.65,0,0,0-2.8-2.4s3.3-1.2,2.7-4.5-2.4-3.6-3.3-4.1a6.06,6.06,0,0,0,0,2.4s-3.5-2,1.2-4.7,4-4.4,3.1-5.8a13,13,0,0,0-3.5-3.6,4.66,4.66,0,0,1,.7,2.9c-.1,1.2-2.4,2-2-.1.5-2.4,0-2,0-4.3a4.83,4.83,0,0,0,6-2.8s1.6-4.3-3.8-6.4c0,0,1.3,1.8.7,3,0,0-1.2,2.2-2.5.6s-2.2-2.2-2.1-4.2c0,0,4.9.7,3.6-4.7,0,0-.9,3.6-7.2-1.2,0,0,4.2-4.2,2.5-7.6,0,0-.5-1.5-4.9-.7,0,0,3.8-2.4,2.3-4.5,0,0-.9-1.3-4.6.4,0,0,1.5-2.3-2.1-5a17.26,17.26,0,0,0-3.6,2.4,37.52,37.52,0,0,0-4-4.3,6.23,6.23,0,0,0-3.5,4.3,9.56,9.56,0,0,0-4.3-2.4s-1.4,2.8.5,5a11.61,11.61,0,0,1-4-1.1s-2.8-1.2-2.3,1.1a10.06,10.06,0,0,0,1.2,4.2s-6.5-1.5-6.2,2a8.81,8.81,0,0,0,3,6.2s-3.5,4.8-6.6,1.2c0,0-1.2,1.2,1.2,4.2,0,0,2.4,2.5.3,4.2,0,0-2.5,2-3.7-2,0,0-4.1,4.1.8,7.2a5.49,5.49,0,0,0,6.3-1s-1,8-4,6.4c0,0-1.9-1.2,1.4-2.9,0,0-4.8-.6-5.5,4,0,0-.6,3.5,3.5,5,0,0,3.1,1.2,0,3.6a3.22,3.22,0,0,0-.9,4.4s1.8,2.8-2.9,3.2a12.24,12.24,0,0,1-3.3-.4,6.08,6.08,0,0,0-.4,4s-2.3-1.7-7.5.2-4.9.6-5.2,1.2l-1.6,2.4s2.8,3.6,2.9,3.3l-.6,4,1.4.6,10.8-4.8,11-5.7,8.9.4,5.6,1.3,7.2.6,5.4-2.8h7.6l8.4,4.2,9.5,5.7,5,1,3.9-.3v-7.8Z" fill="#d40000" stroke="#000" stroke-linejoin="round" stroke-width="1.2"/><path id="path571" d="M428.2,207.7s4.2,2.2,6-.3a4.12,4.12,0,0,0-2.8-6s2.8-3.2-.2-6.2a3.83,3.83,0,0,0-4.2-.5,4.25,4.25,0,0,0-3.7-2.2,3.17,3.17,0,0,0-3,2.5s-3.2-1.2-4.9.6c0,0-3,3.2,1.1,5.8l2.9.3,2.8-1.4,3.3.9s-.9,3.2,2.7,6.5Z" fill="#d40000" stroke="#000" stroke-linejoin="round" stroke-width="1.2"/><path id="path573" d="M521.6,200.1a6.7,6.7,0,0,1,6.9,3.8c2.6,6.2-3,9.6-3,9.6a16.27,16.27,0,0,1,.5,3.2c7.8,1,6.4,9.8,6.4,9.8l-2.6-2.2c-4.5-1.8-9.3,2.2-12.6,8.6-3.4,6.6-1.8,9.5-1.2,17.3s13,12.4,13,12.4l-9.7,25c-3.8,10-12,5.9-14.3,3.7-2.3-2-2.9-.8-4,0-1.1,1,5.3,6-6.5,10.8s-13.7,8.3-15.7,9.5-10,.5-10.8-.6c-1-1-.4-1-3.5-2.9-3-1.7-8.2-3.5-13.8-6.2s-5.4-6.2-5.3-6.9,1.9-6.5-4.7-1.9-12.1-2.2-12.1-2.2c-1.2-1.7-6.8-16.4-6.8-16.4a93.2,93.2,0,0,0-4.3-12s-.4.8,4.5-2,7-7.3,8.7-11.9,0-12.5-.6-14-4.2-8.9-8.7-10.4-7.5,2.4-7.5,2.4-1.3-9,6.6-10a12.73,12.73,0,0,1,.4-3.1s-5.6-3.4-3-9.6a6.65,6.65,0,0,1,6.8-3.8l-1.1,2.4s-1.2,12.6,17.2,4.2c18.5-8.6,18-10.2,28.7-4.8l7.6-.1s11-5.3,14.7-3c3.5,2.3,16.3,9.4,16.3,9.4s12.4,4.7,14.9-4Z" fill="#64b4d1" stroke="#000" stroke-width="1.2"/><path id="path575" d="M465.8,255s-.6-3.9-1.2-6.4c0,0-1.5-3.9,1-6.8l2.8-3.3s1.8-2.4,4-2.7c0,0,2.3,0,2.4-.5.3-.5,2.8-4.5,8.6,0,0,0,1.8-3,4.8-3.6,0,0,3-.8,4.5,1.4,0,0,3.5-2.6,6.4,1.7,0,0,4.1-2.4,7.2,2.3a4.83,4.83,0,0,1,6.4,2.1c2.5,4.3,2,6,2,6l2,6.8,6.5,8L508,265.8h-7l-13.7,3.6L463,271.3l-6.7-8,9.6-8.3Z" fill="#fff" stroke="#00247d" stroke-miterlimit="10" stroke-width="1.2"/><path id="path577" d="M445.3,295.5s-3.6.1-5.5,1.2a36.06,36.06,0,0,0-5.4,3.2s-1,1.3-5.2.5c0,0-7.2-1.7-7.2,4,0,0-8.8.6-5.2,8.3,0,0,2.3,6,7.3,1.8,0,0-3.2,4.5,3,6.3a4.71,4.71,0,0,0,5.8-3.5,4.31,4.31,0,0,0-1-4,6.11,6.11,0,0,0,3.6-2.7s-4.6,5.8.5,8c0,0,6.3,1.5,6.6-5,0,0-.6-3.2,2-4.3a10.77,10.77,0,0,0,7-6.6s-7-3.9-6.3-7.2ZM430.6,238s-5.6-2.5-8.4,0a7.72,7.72,0,0,0-7.5,0,38.89,38.89,0,0,0-6.3,5.2s-1.8,1.5-1.2,6.4c0,0,1,3.5.5,5.1,0,0-1.2-.2-3.7,2.8,0,0-3.1,3.5-6,.3a5.1,5.1,0,0,0,6.1,3.8s-2.5,2-.3,7c0,0,1.6,3.6-1,8.2a7.58,7.58,0,0,0,4.4-7.2s-.5-3.6,1-6c0,0-1.5,2.2,1.6,7.1,0,0,2.4,3.6.5,7.2a6.69,6.69,0,0,0,4-7c-.4-5.4-3-3.2-1.4-8.2a9.63,9.63,0,0,0,1.8,4,7.2,7.2,0,0,1,2.4,7s2.6-3.4,2-6.8a13.07,13.07,0,0,0-1.3-4.4l8.4-4.8,4.3-7.5Z" fill="#d40000" stroke="#000" stroke-linejoin="round" stroke-width="1.2"/><path id="path579" d="M417.8,259.5s-3.5-.2-4-3m-6.1-1.8a3.72,3.72,0,0,1,2.4,1.2,2,2,0,0,0,1.9,1" fill="none" stroke="#000" stroke-miterlimit="10" stroke-width="1.2"/><path id="path581" d="M423,249.2a6.28,6.28,0,0,1-3-.8,1,1,0,0,0-1.5.4,1.5,1.5,0,0,0,.8,2.3s2.2,1.2-1.2,3.4c0,0,4-1.6,2.4-3.6,0,0-1.8-1.2-1.2-1.7,0,0,.2-.4,1,0,.6.6,2,.4,2.7,0Z"/><path id="path583" d="M477.6,259l2.1-.6-14-48h-.4Z" fill="#784421" stroke="#000" stroke-width="1.2"/><path id="path585" d="M431.2,312.3s-3.2-1.9-6,.3a3.15,3.15,0,0,1,2.4-1.7s1.2-3.2,4.3-2.9a17.11,17.11,0,0,1-3,2.8,3.24,3.24,0,0,1,2.4,1.5Z"/><path id="path587" d="M419.7,319.8s-5.2-3.2-2.3-8.7a2.28,2.28,0,0,1,2.3-1.2s3.3,1,.8,5.5c0,0-1.4,2.9-.8,4.5Zm10.5,5.3s-7.4-3.4-5.1-9.2c0,0,.7-2,2.4-1.8,0,0,2.8.2,2.3,4a13.07,13.07,0,0,0,.4,7Z" fill="#64b4d1" stroke="#00247d" stroke-miterlimit="2.6" stroke-width="1.2"/><path id="path589" d="M428.7,303.6a19.64,19.64,0,0,0-3.1,2.8,8.1,8.1,0,0,0-2.2-1.8s1.5-.3,2.2.3a6.87,6.87,0,0,1,3-1.3Z"/><path id="path591" d="M435.2,323.6s6-1.4,4.8-7.5c0,0-.6-2.6-3-2.2,0,0-3,.8-1,4.6A5.38,5.38,0,0,1,435.2,323.6Z" fill="#64b4d1" stroke="#00247d" stroke-miterlimit="2.6" stroke-width="1.2"/><path id="path593" d="M461.6,196.7l5.7,1.9a18.66,18.66,0,0,0,12.3,0l5.2-2-3.5,5.4v2.9l2.1,3.2s-1.3.6-5.4-2a8.41,8.41,0,0,0-9.6,0s-3,2-5.4,2l3.5-3.8-1.3-3.5-3.6-4.3Z" fill="#f5ce00" stroke="#000" stroke-miterlimit="2.6" stroke-width="1.2"/><path id="path595" d="M437.5,316.5s.2-.4,0-.5l-.5.2a2.75,2.75,0,0,0,0,2.4,2.9,2.9,0,0,1,.3,1.8v.4a.45.45,0,0,0,.3-.4,2,2,0,0,0-.2-1.8s-.6-1.4.1-2.1Z" fill="#fff"/><path id="path597" d="M518,207.7s-4.2,2.2-6-.3c0,0-2.1-4.4,2.9-6,0,0-2.8-3.2.1-6.2a3.83,3.83,0,0,1,4.2-.5,4.25,4.25,0,0,1,3.7-2.2,3.17,3.17,0,0,1,3,2.5s3.3-1.2,5,.6c0,0,2.8,3.2-1.2,5.8l-2.9.3-2.9-1.4-3,.9s.8,3.2-3,6.5Z" fill="#d40000" stroke="#000" stroke-linejoin="round" stroke-width="1.2"/><path id="path599" d="M484.8,204.4a1.06,1.06,0,0,1-.8,1,1.26,1.26,0,0,1-1.5-.9v-.3a3.4,3.4,0,0,1,1.4-3.3s2.6-2.1,7.6.5q7.23,4.07,14.8,7.5a20.55,20.55,0,0,0,7.9,1.8s6.5.5,9.3-4.1c0,0,2.1-3.5,0-5.8a2.75,2.75,0,0,0-2.3-.8,3,3,0,0,0-1.8,1.2,2,2,0,0,0,.1,2.5,1.41,1.41,0,0,0,2.2-1,3.64,3.64,0,0,1-.4,2.9s-4,6-14.9-.1l-14.3-8.1s-7.1-3.7-11.6,2.1c0,0-3.4,4.8,1.1,7.9,0,0,3.4,2,5.4-1.2,0,0,1.8-3.1-1-4.4,0,0-2.4-1.2-3.3,1.2s1.8,3,2,1.3c0,0,0-.4.3,0Z" fill="#f5ce00" stroke="#000" stroke-miterlimit="2.6" stroke-width="1.2"/><path id="path601" d="M428,229.2v-9c0-.8,0-1.2,1.2-2.2,1-.8,2.1-2.3,3.7,1.7,0,0,3.2-3.5,4.2-4a2.17,2.17,0,0,1,3.3.7s1.6-2.6,3-3.2c0,0,3.2-2,3.3,4.2l2.5-2.4s2-1.5,4.2.7a43.68,43.68,0,0,1,4,4.6,5.68,5.68,0,0,1,1,2.7,4.94,4.94,0,0,0,1,3,5.44,5.44,0,0,0,2.2,1.2,4.35,4.35,0,0,1,3.6,2.6s.3-.5,1.6,11.2v21.5l-14.4,17.1L429.3,273l-9.2-3.9-2.2-6.6,9-5.9,4.8-13-1.5-9.3-2.2-5.2Z" fill="#e4cb5e" stroke="#000" stroke-miterlimit="2.6" stroke-width="1.2"/><path id="path603" d="M491.6,240.4l1.2-1.5,2.5-2s4,10.4,4.2,12.7v3.2s6,1.6,7.2,10.7l-5,9.2-7.8-4.4-2.3-1.5V240.4Z" fill="#784421" stroke="#000" stroke-width="1.2"/><path id="path605" d="M418.3,312.4a.56.56,0,0,0,0-.6l-.5.4a4,4,0,0,0-.2,4.4s0,.4.3.2c0,0,.3,0,0-.3,0,0-1.1-2.4.4-4Z" fill="#fff"/><path id="path607" d="M441.7,310.6a2.67,2.67,0,0,0-.4-1.6,2.9,2.9,0,0,1-.2-1.5" fill="none" stroke="#000" stroke-miterlimit="10" stroke-width="1.2"/><path id="path609" d="M446.7,217.4a12.43,12.43,0,0,0,.7,4c.6,1.6,2.9,4.5,3,5.9" fill="none" stroke="#000" stroke-miterlimit="10" stroke-width="1.2"/><path id="path611" d="M501,295.5s3.6.1,5.5,1.2a28.85,28.85,0,0,1,5.5,3.2s1,1.3,5.2.5c0,0,7.2-1.7,7.2,4,0,0,8.7.6,5.2,8.3,0,0-2.4,6-7.4,1.8,0,0,3.2,4.5-3,6.3a4.59,4.59,0,0,1-5.7-3.5s-.8-1.8,1-4a5.78,5.78,0,0,1-3.5-2.7s4.5,5.8-.5,8c0,0-6.3,1.5-6.7-5,0,0,.5-3.2-2-4.3a11.3,11.3,0,0,1-7.2-6.6s7.2-3.9,6.5-7.2Z" fill="#d40000" stroke="#000" stroke-linejoin="round" stroke-width="1.2"/><path id="path613" d="M443.8,227.4l6,47.8m-4.5-47.9,6.6,44.6m-5.5-44.8,7.8,44.2" fill="none" stroke="#000" stroke-miterlimit="10" stroke-width="1.2"/><path id="path615" d="M458.6,267.5l2.2-.7-14-48h-.5Z" fill="#784421" stroke="#000" stroke-width="1.2"/><path id="path617" d="M450.7,225.3l14.1,35.5m-15-35,13.6,37" fill="none" stroke="#000" stroke-miterlimit="10" stroke-width="1.2"/><path id="path619" d="M427.6,321.6a5.15,5.15,0,0,1-1.4-4.3s0-.6-.3-.7c0,0-.3-.1-.3.6,0,0-.5,2.9,1.5,4.5a.31.31,0,0,0,.4.2s.2,0,0-.3Z" fill="#fff"/><path id="path621" d="M451.5,224.8l14.3,32.4m-18.3-30.4,9,43.7" fill="none" stroke="#000" stroke-miterlimit="10" stroke-width="1.2"/><path id="path623" d="M520,259c-6.3-3.6-7.7-11.4-7.7-11.4a24.6,24.6,0,0,1,1.6-14.3c4-8.6,11.1-10.3,11.1-10.3s-6.9,4.8-8.8,11.2a30.83,30.83,0,0,0-.6,10.7c.8,5.5.5,4.1,1.8,8.3l2.6,6Z" fill="#f5ce00" stroke="#000" stroke-miterlimit="2.6" stroke-width="1.2"/><path id="path625" d="M492.7,238.7l-26.6,8.5-1.4,12c-6.3,9.1-19.2,10.7-19.2,10.7l10,10.7,19,4,10.2-7.8,9.2-8.4c-1-4.5-.5-11.2-.5-11.2a29.62,29.62,0,0,1,.5-3.8s-1.5-10.7-1.2-14.5Z" fill="#784421" stroke="#000" stroke-width="1.2"/><path id="path627" d="M465,256.2s17.6-5.5,28-10m-36.4,20s22-4,37.3-12.8l5.6-3.8" fill="none" stroke="#000" stroke-miterlimit="10" stroke-width="1.2"/><path id="path629" d="M499.5,252.8l-6,4.4s-24.5,11.2-43.2,11.6m43.1-3.6S474.6,275,464,275" fill="none" stroke="#000" stroke-miterlimit="10" stroke-width="1.2"/><path id="path631" d="M515.8,238s5.6-2.5,8.4,0a7.94,7.94,0,0,1,7.6,0,40.43,40.43,0,0,1,6.2,5.2s1.8,1.5,1.2,6.4c0,0-1,3.5-.3,5.1,0,0,1.1-.2,3.5,2.8,0,0,3.3,3.5,6,.3,0,0-.8,4.6-6,3.8,0,0,2.4,2,.3,7,0,0-1.6,3.6,1,8.2a7.43,7.43,0,0,1-4.4-7.2s.4-3.6-1-6c0,0,1.4,2.2-1.7,7.1,0,0-2.4,3.6-.4,7.2a6.57,6.57,0,0,1-4-7c.3-5.4,3-3.2,1.3-8.2a8.92,8.92,0,0,1-1.7,4,7.2,7.2,0,0,0-2.4,7s-2.6-3.4-2-6.8,1.2-4.4,1.2-4.4l-8.3-4.8-4.2-7.5Z" fill="#d40000" stroke="#000" stroke-linejoin="round" stroke-width="1.2"/><path id="path633" d="M420.6,268.4s.8-3.7,4.3-2.4a8,8,0,0,1,7.7-6.2c6.5-.2,6.8,6.4,6.8,6.8,0,0,2-2.8,5.1-2.5,0,0,5.5-.3,3.6,8.5l1,1.2s4.1-9.9,12.7-7.4c0,0,8.4,2.6,3,10.7,0,0,4.2,5.5,7.6,5,3.6-.5,6.7-1.6,10.2-7.8s11.7-7.2,13.7-6.8a4.88,4.88,0,0,1,4,3.2s4.3-14.3,19.8-12.2l6.2,3.3,2.4,1-3.6,10L516.7,292l-6.6,2-6.8-3.9-2.4,1.2v5.9l-9,6.4-6.2,2.5-6.8,4.8-1.7,4.2a11,11,0,0,0-8,0l-1.4-3.6-4-3.7-15.6-7.4-2.7-9-2.9-1.3-3.2,3.6-4.5.6-7-4.8-7.4-21Z" fill="#fff" stroke="#00247d" stroke-miterlimit="10" stroke-width="1.2"/><path id="path635" d="M488.2,198s-6-.2-5.7,6" fill="none" stroke="#000" stroke-miterlimit="2.6" stroke-width="1.2"/><path id="path637" d="M527,263.3c-10.2-3.2-13-14.3-13-14.3a25.55,25.55,0,0,1,1.2-15.5c4.8-11,12.7-11,12.7-11a4,4,0,0,1,4.5,3.2,3,3,0,0,1-1.3,3.3,3.62,3.62,0,0,1-4.5-.5,2.49,2.49,0,0,1-.3-2.9c.7-1,2-.4,2-.4,1.3.2,1,1.6,1,1.6a1.39,1.39,0,0,0-1.2-1.8s-3.2-.7-6.8,3.8a25.47,25.47,0,0,0-4.7,14.1s-.6,14.8,14.7,18.6c0,0-1.6,2.4-4.6,11.1,0,0-3.3,11.2-6.4,17.3,0,0-4.3,8.6-13.9,5.1,0,0-5.6-2.5-5.6-6.5,0,0-.3-3.8,3-4,0,0,3.3-.3,3.3,2.5,0,0,0,3-3.5,2.4a1.45,1.45,0,0,1-1.1-1.5s.2-1.2,1.8-.6,0,0,0-.1a1.45,1.45,0,0,0-1.2,0s-.6,0-.6,1a1.48,1.48,0,0,0,.7,1.1l1.7.2a6,6,0,0,0,3,2.7A8,8,0,0,0,515,291a10.72,10.72,0,0,0,3-4.3,111.93,111.93,0,0,0,5.2-13.5,67.75,67.75,0,0,1,3.4-8.7Z" fill="#f5ce00" stroke="#000" stroke-miterlimit="2.6" stroke-width="1.2"/><path id="path639" d="M498,291.4s2-.2,2,1.5c0,0-.1,2.4-3.2,1.9,0,0-3-.6-2-4a3.29,3.29,0,0,1,3.6-2s2.8,0,4,3.8a8,8,0,0,1-.7,6c-1.8,3-6.2,5-8.4,6,0,0-8.7,3.3-11.3,5.3,0,0-4,2.9-2.2,5.6a2.4,2.4,0,0,0,1.7,1.1,1.3,1.3,0,0,0,1.3-1.2,1.14,1.14,0,0,1-.7,1,1.65,1.65,0,0,1-1.7-.3,2,2,0,0,1-.2-2.4s1-1.6,3.6-.6a2.7,2.7,0,0,1,1.2,3.3,3.56,3.56,0,0,1-3.4,2,5.24,5.24,0,0,1-3.2-1.2,6.33,6.33,0,0,1-.2-8,12.72,12.72,0,0,1,4.7-3.6l9-3.5c2.6-1.1,4.9-2.3,6.4-4.1a8.63,8.63,0,0,0,1.8-4s.4-2-.8-2.4l-1.2-.3Z" fill="#f5ce00" stroke="#000" stroke-miterlimit="2.6" stroke-width="1.2"/><path id="path641" d="M498.2,291.4s2.1-.4,3.5,2.2a10.14,10.14,0,0,1,.8,2.5m.7-9s-2.1.3-1,3.4a8.64,8.64,0,0,0,3.5,4.2" fill="none" stroke="#000" stroke-miterlimit="2.6" stroke-width="1.2"/><path id="path643" d="M461.6,204.4a1.09,1.09,0,0,0,1,1s.8.2,1.3-.9v-.3a3.6,3.6,0,0,0-1.2-3.3s-2.8-2.1-7.8.5c0,0-4,2-6.7,3.6,0,0-7.1,3.8-8,4a21.46,21.46,0,0,1-8,1.8s-6.5.5-9.2-4.1c0,0-2.2-3.5,0-5.8a2.47,2.47,0,0,1,2.2-.8,2.74,2.74,0,0,1,1.8,1.2,2,2,0,0,1-.1,2.5,1.41,1.41,0,0,1-2.2-1,4.8,4.8,0,0,0,.5,3s4,5.9,14.8-.3l14.3-8s7.2-3.7,11.6,2c0,0,3.4,4.8-1,8a4,4,0,0,1-5.5-1.2s-1.6-3,1-4.4a2.51,2.51,0,0,1,3.5,1.2c1,2.4-2,3-2.2,1.3,0,0,0-.4-.1,0Zm-35.2,54.7c6.3-3.5,7.8-11.5,7.8-11.5a25.36,25.36,0,0,0-1.7-14.3c-4-8.6-11-10.3-11-10.3s6.8,4.8,8.7,11.2a26.16,26.16,0,0,1,.6,10.7c-.8,5.5-.5,4.1-1.8,8.3Z" fill="#f5ce00" stroke="#000" stroke-miterlimit="2.6" stroke-width="1.2"/><path id="path645" d="M458.4,198s6-.2,5.6,6" fill="none" stroke="#000" stroke-miterlimit="2.6" stroke-width="1.2"/><path id="path647" d="M419.3,263.3c10.3-3.2,13-14.3,13-14.3a25.54,25.54,0,0,0-1.1-15.5c-4.8-11-12.7-11-12.7-11a4,4,0,0,0-4.5,3.2,3.21,3.21,0,0,0,1.3,3.3,3.73,3.73,0,0,0,4.6-.5,2.58,2.58,0,0,0,.2-2.9c-.7-1-2-.4-2-.4-1.2.2-1,1.6-1,1.6s-.3-1.6,1.2-1.8c0,0,3.2-.7,6.8,3.8a25.16,25.16,0,0,1,4.8,14.1s.6,14.8-14.8,18.6c0,0,1.7,2.4,4.6,11.1,0,0,3.4,11.2,6.6,17.3,0,0,4.2,8.6,13.7,5.1,0,0,5.6-2.5,5.6-6.5,0,0,.4-3.8-3-4,0,0-3.3-.3-3.3,2.5,0,0,0,3,3.6,2.4a1.32,1.32,0,0,0,1-1.5s-.2-1.2-1.7-.6,0,0,0-.1a1.2,1.2,0,0,1,1.1,0s.6,0,.6,1a1.48,1.48,0,0,1-.7,1.1l-1.5.2a5.87,5.87,0,0,1-3.2,2.7,7.5,7.5,0,0,1-7-1.2,10.72,10.72,0,0,1-3-4.3,114.19,114.19,0,0,1-5.3-13.5s-1.8-5.7-3.2-8.7l-.6-1.2Z" fill="#f5ce00" stroke="#000" stroke-miterlimit="2.6" stroke-width="1.2"/><path id="path649" d="M448.5,291.4s-2-.2-2,1.5c0,0,0,2.4,3.2,1.9,0,0,3-.6,1.9-4a3.19,3.19,0,0,0-3.6-2s-2.7,0-4,3.8a8.33,8.33,0,0,0,.8,6c1.8,3,6.2,5,8.3,6,0,0,8.7,3.3,11.4,5.3,0,0,3.9,2.9,2.1,5.6a2.16,2.16,0,0,1-1.7,1.1,1.3,1.3,0,0,1-1.3-1.2,1.14,1.14,0,0,0,.7,1,1.66,1.66,0,0,0,1.7-.3,2,2,0,0,0,.2-2.4s-1-1.6-3.4-.6a2.5,2.5,0,0,0-1.2,3.3,3.16,3.16,0,0,0,3.2,2,5.07,5.07,0,0,0,3.2-1.2,6.63,6.63,0,0,0,.4-8,15.11,15.11,0,0,0-4.8-3.6c-1.9-.6-5.5-2.1-9-3.5-2.7-1.1-5-2.3-6.5-4.1a8.63,8.63,0,0,1-1.8-4s-.3-2,.9-2.4l1.2-.3Z" fill="#f5ce00" stroke="#000" stroke-miterlimit="2.6" stroke-width="1.2"/><path id="path651" d="M448.2,291.4s-2.1-.4-3.4,2.2a14.4,14.4,0,0,0-.9,2.5m-.7-9s2.2.3,1.1,3.4a8.64,8.64,0,0,1-3.6,4.2m27.4-91.1s5.2-3.3,10.4.3" fill="none" stroke="#000" stroke-miterlimit="2.6" stroke-width="1.2"/><path id="path653" d="M438.8,235.2s.7-3-2.6-8c0,0-2.2-4.7-3.2-7.5m7.4-3.3,2.3,6.6,3,6.8" fill="none" stroke="#000" stroke-miterlimit="2.6" stroke-width="1.2"/><path id="path655" d="M441.2,238.3a7.89,7.89,0,0,1,1.8,5.6m-8.1-7.9s2.1,1,1.9,6.8c0,0-.1,4,3,6.2m-5.3,1.4s6.7-.7,7.2,3.5c0,0,0,4,2.4,4.3a4.65,4.65,0,0,1,4,3.6M436.7,255a13.94,13.94,0,0,0,2.4,2.6m6.2-7a25.82,25.82,0,0,1,2,4.1m5.3-35a14.36,14.36,0,0,0,3.1,3m3.1,9.6s3.4,1.6,3,10c0,0-.6,5,.9,7.7" fill="none" stroke="#000" stroke-miterlimit="10" stroke-width="1.2"/><path id="path657" d="M443.1,226.6l.4.8s6,.3,9.1-3.8l-.3-.8a12.18,12.18,0,0,0-9,3.8Z" fill="#784421" stroke="#000" stroke-width="1.2"/><path id="path659" d="M464.7,258.5s20.6-6,28.6-9.6" fill="none" stroke="#000" stroke-miterlimit="10" stroke-width="1.2"/><path id="path661" d="M462.5,220.5l-.2-.6,10.1-4,.3.8Z" fill="#784421" stroke="#000" stroke-width="1.2"/><path id="path663" d="M463.4,220.1l6.8,33.3m-5.6-33.6,7.7,33m-6.4-33.6,8.4,32.9m-5-34.1,11.5,24.6m-10-25,12.3,24.2M471.8,217l13.4,24.3m-15.5,12.4,5.2-1.6m-9.1-1.6s15.2-4.5,27-9.2M465.4,252s19.5-5,27.2-8.8m-21.2,24.6,1,3.3,2.8-1-1-3.1m5-1.3,1,3,2.8-.9-1-3m-16-17.6-.2-4.2,25.5-7.7,1.3,3.6m-16,.8,1.3,3.8m7.6-6.4,1.6,3.6m.5-4.3,1.6,3.3m.4-4,1.6,3.6m0-4,2.8-1.6,1.2,3.1m-2.6-2.3,1.4,3.3" fill="none" stroke="#000" stroke-miterlimit="10" stroke-width="1.2"/><path id="path665" d="M429.5,283.1s-5-5.1,0-10c0,0-5.5-2.6-4.6-7m13.6,21s-5.3.7-3.7-9.4a58.25,58.25,0,0,0-2.9,6,4.7,4.7,0,0,0,2,5.4c.9.6,5.5,1.8,7-1.2m-8.3-16.2s-2.1,1.9-.6,5.4m2.8-5s.2,3.5,2,5.4m-.5-6.7a9.69,9.69,0,0,0,2.9,6.6m-1.5-8a10.59,10.59,0,0,0,3.4,7.4m13.5-.7s1.6-3.9,5.2-3.6a3,3,0,0,0-1.7,2.5,3,3,0,0,0,2.9,3.2s2.5.4,3.8-1" fill="none" stroke="#00247d" stroke-miterlimit="10" stroke-width="1.2"/><path id="path667" d="M463.1,293.1s-8.9-4.2-8-10.1a7.4,7.4,0,0,1,4-5.4m-2,3.8a4.5,4.5,0,0,0,1,4.3m1.1-6s-1.2,2.8.7,4.8m1.5-6.3a4.27,4.27,0,0,0,.2,4.5m-8.4,11s4.8,4.3,8.6,4.3m-10.1-2.9s4.5,3.6,7.4,4.2m-9-3.2s5.5,4.9,9,5.2m13.7,4.6s-5.5,3-1.2,6.2m-2.4-9.4,9-4.6m-6.7,6.2s9-5.5,11.7-6.7m-7,7.2s7.7-5.2,11.9-7.5m-6.8,7.1s5.3-4,10.5-7.1m1.7-5.1s-2.6-3.9-11.2,0a32.66,32.66,0,0,1,9.5-5.2m8.5-16.3s.8,3.1,0,5" fill="none" stroke="#00247d" stroke-miterlimit="10" stroke-width="1.2"/><path id="path669" d="M486.5,285.7a12.29,12.29,0,0,1,6.3-4,4.39,4.39,0,0,0,4.8,2.5s5.2-1.1,3.6-7c0,0-1.1-4.2-7.2-4.7m18.1-7.3s6.1,1.2,6,6.1c0,0,.6,7.6-7.4,9m6.6-12a10.65,10.65,0,0,1,5.5-5.2m-4.6-2.2s1.7,2.8,2.8,3.1m-3.6-1a23.82,23.82,0,0,0,2,2.5m-2.6-.5a7.85,7.85,0,0,0,1.5,1.6M485,235.8s1.2-2,4.3-1.2m12.1,15.8s2-7.8,8.5-5m-2.6-.6s.6-3.6-1-5.5m-3.6,5.2a2.77,2.77,0,0,1,.1,2.7" fill="none" stroke="#00247d" stroke-miterlimit="10" stroke-width="1.2"/><path id="path671" d="M516.2,325s7.4-3.3,5.1-9.1c0,0-.7-2-2.4-1.8,0,0-2.8.1-2.3,4a11.64,11.64,0,0,1-.5,7Z" fill="#64b4d1" stroke="#00247d" stroke-miterlimit="2.6" stroke-width="1.2"/><path id="path673" d="M518.8,321.6a5.4,5.4,0,0,0,1.5-4.3s-.2-.6,0-.7c0,0,.4-.1.4.6,0,0,.5,2.9-1.4,4.5a.31.31,0,0,1-.4.2s-.2,0,0-.3Z" fill="#fff"/><path id="path675" d="M526.7,319.8s5.2-3.2,2.4-8.7a2.48,2.48,0,0,0-2.4-1.2s-3.2,1-.7,5.5c0,0,1.2,2.9.7,4.5Z" fill="#64b4d1" stroke="#00247d" stroke-miterlimit="2.6" stroke-width="1.2"/><path id="path677" d="M528,312.4a.56.56,0,0,1,0-.6l.4.4a4.14,4.14,0,0,1,.3,4.4.32.32,0,0,1-.5.2v-.3s1.2-2.4-.2-4Z" fill="#fff"/><path id="path679" d="M511,323.6s-5.8-1.4-4.7-7.5c0,0,.6-2.6,3.1-2.2,0,0,3,.8,1,4.6a5.52,5.52,0,0,0,.7,5.1Z" fill="#64b4d1" stroke="#00247d" stroke-miterlimit="2.6" stroke-width="1.2"/><path id="path681" d="M508.8,316.5V316s.4,0,.5.2a3,3,0,0,1,.1,2.4,2.5,2.5,0,0,0-.2,1.8.44.44,0,0,1-.3.4l-.2-.4a2.4,2.4,0,0,1,.2-1.8s.6-1.4,0-2.1Z" fill="#fff"/><path id="path683" d="M515.2,312.3s3.4-1.9,6,.3c0,0-.2-1.2-2.4-1.7,0,0-1-3.2-4.2-2.9a13.65,13.65,0,0,0,3,2.8,3.24,3.24,0,0,0-2.4,1.5Zm2.4-8.7a19,19,0,0,1,3.2,2.8,7.43,7.43,0,0,1,2-1.8,2.68,2.68,0,0,0-2,.3,6.2,6.2,0,0,0-3-1.3Z"/><path id="path685" d="M504.8,310.6a1.77,1.77,0,0,1,.3-1.6,2,2,0,0,0,.2-1.5m23.4-48s3.5-.2,4-3m6-1.8a3.11,3.11,0,0,0-2.2,1.2s-.9,1.2-2,1" fill="none" stroke="#000" stroke-miterlimit="10" stroke-width="1.2"/><path id="path687" d="M523.6,249.2a4.85,4.85,0,0,0,2.7-.8,1.17,1.17,0,0,1,1.7.4,1.5,1.5,0,0,1-.8,2.3s-2.2,1.2,1.3,3.4c0,0-4.2-1.6-2.4-3.6,0,0,1.8-1.2,1-1.7,0,0-.2-.4-.9,0a2.43,2.43,0,0,1-2.6,0Z"/><path id="path689" d="M526,205.6s.8-1.2.5-4.4,2.6-3.7,3.6-2.8c0,0,1.2,1,0,3.1a8.27,8.27,0,0,1-4.1,4.1Z" fill="#64b4d1" stroke="#00247d" stroke-miterlimit="2.6" stroke-width="1.2"/><path id="path691" d="M527,203s1.2-1.1.6-3.6l.2-.2h.3s.6,2.8-.6,4.2c0,0-.2.3-.5,0Z" fill="#fff"/><path id="path693" d="M525.1,204.4s0-1.4-2.3-3.6c-2.4-2.4-.5-4.4,1-4.4,0,0,1.3,0,2,2.3A8.34,8.34,0,0,1,525.1,204.4Z" fill="#64b4d1" stroke="#00247d" stroke-miterlimit="2.6" stroke-width="1.2"/><path id="path695" d="M524.8,201.4s0-1.6-2.2-3.3v-.4h.4s2.3,1.8,2.3,3.8a.29.29,0,0,1-.3.3s-.2,0-.2-.4Z" fill="#fff"/><path id="path697" d="M522,203.3s-.7-1-3.5-2.1-2.2-3.5-1-4c0,0,1.3-.5,2.6,1.1a7.62,7.62,0,0,1,1.8,5Z" fill="#64b4d1" stroke="#00247d" stroke-miterlimit="2.6" stroke-width="1.2"/><path id="path699" d="M520.6,201.3s-.6-1.4-3.2-2.1c0,0-.2,0-.2-.3,0,0,0-.2.3-.1,0,0,2.9.6,3.7,2.4l-.1.3s-.3,0-.4-.2Z" fill="#fff"/><path id="path701" d="M523.7,204.4s-1.3.5-4.4-1-4.4,1.1-3.8,2.3c0,0,.5,1.6,2.8,1.2a8.27,8.27,0,0,0,5.4-2.4Z" fill="#64b4d1" stroke="#00247d" stroke-miterlimit="2.6" stroke-width="1.2"/><path id="path703" d="M516.6,205.4s1.4,1,3.9,0h.3a.36.36,0,0,1-.2.3s-2.6,1.2-4.4.1c0,0-.2,0,0-.3h.4Z" fill="#fff"/><path id="path705" d="M519.3,194.7a2.6,2.6,0,0,1,1.2,2.5" fill="none" stroke="#000" stroke-miterlimit="2.6" stroke-width="1.2"/><path id="path707" d="M526,195a4.75,4.75,0,0,1,0,3" fill="none" stroke="#000" stroke-miterlimit="10" stroke-width="1.2"/><path id="path709" d="M420.2,205.6s-.8-1.2-.5-4.4c.4-3.4-2.5-3.7-3.5-2.8,0,0-1.2,1-.2,3.1a8.31,8.31,0,0,0,4.2,4.1Z" fill="#64b4d1" stroke="#00247d" stroke-miterlimit="2.6" stroke-width="1.2"/><path id="path711" d="M419.1,203s-1-1.1-.6-3.6v-.2h-.4s-.5,2.8.7,4.2c0,0,.2.3.3,0Z" fill="#fff"/><path id="path713" d="M421.2,204.4s0-1.4,2.4-3.6c2.3-2.4.4-4.4-1-4.4,0,0-1.6,0-2,2.3A8.32,8.32,0,0,0,421.2,204.4Z" fill="#64b4d1" stroke="#00247d" stroke-miterlimit="2.6" stroke-width="1.2"/><path id="path715" d="M421.5,201.4a4.83,4.83,0,0,1,2-3.3s.3-.3,0-.4h-.2s-2.4,1.8-2.4,3.8c0,0,0,.3.4.3,0,0,.2,0,.2-.4Z" fill="#fff"/><path id="path717" d="M424.3,203.3s.6-1,3.5-2.1,2-3.5.9-4c0,0-1.2-.5-2.6,1.1A7.62,7.62,0,0,0,424.3,203.3Z" fill="#64b4d1" stroke="#00247d" stroke-miterlimit="2.6" stroke-width="1.2"/><path id="path719" d="M425.6,201.3s.6-1.4,3.2-2.1c0,0,.2,0,.2-.3,0,0,0-.2-.2-.1,0,0-2.9.6-3.7,2.4v.3s.4,0,.5-.2Z" fill="#fff"/><path id="path721" d="M422.5,204.4s1.4.5,4.4-1,4.4,1.1,4,2.3a2.58,2.58,0,0,1-3,1.2,8.27,8.27,0,0,1-5.4-2.4Z" fill="#64b4d1" stroke="#00247d" stroke-miterlimit="2.6" stroke-width="1.2"/><path id="path723" d="M429.6,205.4s-1.3,1-3.9,0h-.2v.3s2.8,1.2,4.5.1c0,0,.2,0,0-.3h-.4Z" fill="#fff"/><path id="path725" d="M427,194.7a2.43,2.43,0,0,0-1.2,2.5" fill="none" stroke="#000" stroke-miterlimit="2.6" stroke-width="1.2"/><path id="path727" d="M420.2,195a4.75,4.75,0,0,0,0,3" fill="none" stroke="#000" stroke-miterlimit="10" stroke-width="1.2"/><path id="path729" d="M486.7,177.6a11.89,11.89,0,0,1,.6,5.2c-.3,2.4.2,2.9,1,3.4a2.19,2.19,0,0,0,2.5-2.2,4.81,4.81,0,0,1-1.8,6.3,4.26,4.26,0,0,1-5-.4c-.8-.9-1.2-3-.7-5a10.43,10.43,0,0,0-.5-5.5,6,6,0,0,1,1.2,4.9s-.8,6,3.6,5.6c0,0,3,0,3-3.6a2.59,2.59,0,0,1-2.4.8,2.4,2.4,0,0,1-1.8-2.8,34.26,34.26,0,0,0,.3-6.7ZM482,187s-.4,4.8-4.6,5.9c0,0,.6-.9-.3-3.3a5.43,5.43,0,0,1-1-3.3s-1.2,1,.3,3.8a3.85,3.85,0,0,1-.1,3.7c-.4.1,6.9-1,5.6-6.7Zm-5.6-4.5a6.18,6.18,0,0,1-1.2-3.8c0-2.7-.5-3.4-.9-3.6a16.79,16.79,0,0,1,.4,3.6,7,7,0,0,0,.4,3s-2.4.3-3.9-3c-1.3-3.3-2.7-3-3.4-3,0,0,.8.1,2.4,3s2.1,3.7,6.2,3.7Zm-10.8-7a30.75,30.75,0,0,1,1.4,4.8s-3.1-1-4-3.5c0,0-3.2,1-2,4.7a8.79,8.79,0,0,1-4.2-3.2,13.19,13.19,0,0,0,3.1,1.7s-.2-3.1,3.6-4.2c0,0,.6,2.7,2.6,3.3Zm5-5.4a4.56,4.56,0,0,0,3.4,1.5,3.59,3.59,0,0,0,3.2-1.5,3,3,0,0,1-3.2,2.7s-3.3,0-3.3-2.7Zm-13.4,18.5,2,1.9a1.18,1.18,0,0,0,2-.3s1.3-2.4,2.9-2.2a7.57,7.57,0,0,0-2.4,3,1.29,1.29,0,0,1-1.2.8,1.76,1.76,0,0,1-1.8-.7,18.31,18.31,0,0,1-1.5-2.4Zm16.7-29.4c-3.2,0-.5,2.4-.5,2.4,0,4-3.1,5.4-5.3,4.2s-.4-4-.4-4a2.86,2.86,0,0,0-1,3.9c1.6,2.4,5.7,1.2,7.2-.9,1.5,2.2,5.7,3.3,7.1.9a2.74,2.74,0,0,0-.8-4s1.8,2.9-.5,4c-2.1,1.3-5.4,0-5.2-4,0,0,2.7-2.5-.5-2.5Zm2-4.4a9.25,9.25,0,0,1,1,5s.9-3-1-4.9Zm-10,4.7a2.81,2.81,0,0,0-2.4-2.4A8.58,8.58,0,0,1,465.9,159.5Zm16,0a2.83,2.83,0,0,1,2.5-2.4,10.17,10.17,0,0,0-2.4,2.4Zm-19.2,3.2a2.56,2.56,0,0,0,2.6-.7Zm-5.4-13.1s1.9-.1,3.8,2.7a12.07,12.07,0,0,0-2.4,1.6,2.24,2.24,0,0,1,1-1.7,4.77,4.77,0,0,0-2.4-2.5Zm32,0s-2-.1-3.9,2.7a9.76,9.76,0,0,1,2.4,1.6,2.24,2.24,0,0,0-1-1.7,4.74,4.74,0,0,1,2.5-2.5Zm-14.7,2.2a5.22,5.22,0,0,0,3.8-.7s2.6-1.4,4.3,0c0,0-1.4-.7-4.3.7C478.4,151.8,475.7,153.4,474.6,151.8Z"/><path id="path731" d="M476.4,153.6s1.4-2.5,6-2C482.4,151.6,481.1,155.2,476.4,153.6Z" fill="#fff"/><ellipse id="ellipse733" cx="479.4" cy="152.8" rx="0.8" ry="1.1" fill="#784421"/><ellipse id="ellipse735" cx="479.4" cy="152.8" rx="0.5" ry="0.7"/><path id="path737" d="M466.8,148.1a16.44,16.44,0,0,1,4.6,1.2,3.34,3.34,0,0,0,3.8-.3,20.17,20.17,0,0,0,3.7-3.1,33.93,33.93,0,0,1-4.8,2.7,4.94,4.94,0,0,1-1.5-2.3s0-1,2-2.7c0,0-2.5.8-3,2.9a7.14,7.14,0,0,0,1.4,2.3s-.4.3-1.6-.6c0,0-2.8-.8-4.6,0Zm7.2,17c-2.4,2.1,0,1.9,0,1.9s2.4.2,0-2Zm-1.4-13.2a5.75,5.75,0,0,1-4-.7s-2.6-1.4-4.3,0c0,0,1.5-.7,4.3.7C468.6,151.9,471.5,153.5,472.6,151.9Z"/><path id="path739" d="M470.8,153.6s-1.5-2.5-6-2C464.8,151.6,466,155.2,470.8,153.6Z" fill="#fff"/><ellipse id="ellipse741" cx="467.7" cy="152.8" rx="0.8" ry="1.1" fill="#784421"/><ellipse id="ellipse743" cx="467.7" cy="152.8" rx="0.5" ry="0.7"/><path id="path745" d="M560,130.6V292.2c0,43.1-86.2,57.2-86.2,57.2s-86.4-14-86.4-57.2V130.6H560Z" fill="none" stroke="#000" stroke-width="1.2"/><path id="path969" d="M0,0H320V240H0Z" fill="#006"/><path id="path971" d="M37.5,0l122,90.5L281,0h39V31L200,120.5l120,89V240H280L160,150.5,40.5,240H0V210l119.5-89L0,32V0Z" fill="#fff"/><path id="path973" d="M212,140.5,320,220v20L184.5,140.5Zm-92,10,3,17.5L27,240H0ZM320,0V1.5l-124.5,94,1-22L295,0ZM0,0,119.5,88h-30L0,21Z" fill="#c8102e"/><path id="path975" d="M120.5,0V240h80V0ZM0,80v80H320V80Z" fill="#fff"/><path id="path977" d="M0,96.5v48H320v-48ZM136.5,0V240h48V0Z" fill="#c8102e"/></svg>