<svg id="flag-icons-ck" xmlns="http://www.w3.org/2000/svg" viewBox="0 0 640 480"><title>ck</title><path id="path628" d="M0,0H640V480H0Z" fill="#006"/><path id="path638" d="M471.6,213l5.2-16.7-14-10.6,17.6-.2,6-16.5,5.6,16.5,17.7.5-14.1,10.5,5,16.7-14.5-10m27.1,13,10.4-13.9-9.7-14.8,16.7,5.8,11-13.5v17.6l16.4,6.4-16.8,5-.8,17.5-10.2-14.4m-98.4,15-.7-17.5-16.8-5.2L431,198V180.6l10.9,13.5,16.8-5.6-9.8,14.7,10.3,14-17-4.5m-39.6,40.9-7.4-15.8-17.4,1.8,12.8-12.3L384,211l15.2,8.2,13.3-11.8-3.4,17.4,14.9,8.9-17.3,2.5M389,291.8l-13.3-11.1-15,9.2,6.4-16.7-12.9-11.6,17.3.7,7-16.4,4.3,17.2,17.2,1.5-14.6,9.8m3.2,60.4L372.1,330,362,344.5l-.7-17.9-16.4-5.5,16.1-6.2v-18L371.7,311l16.4-5.6-9.6,15M408,371.2l-17,2.4L387.5,391l-7.8-16-17.1,1.6,12.2-12.3-7.1-16.4,15.3,8.5,12.8-11.8L393,362m45,38-15.1,8.2,2.6,17.6-12.7-12.4L397.2,421l7.3-15.9-12.3-12.9,17.3,2.6,8-15.5,3.4,17.4m53.8,9L466.4,421l11.7,13.2-17.4-3.3-8.9,15-2.4-17.3-17.2-4,15.8-7.4-1.7-17.5,12.2,12.8m57.4-13.1-.5,17.4,16.3,6.4-17,5-1.2,17.5-10-14.3-17,4.4,10.8-13.9-9.4-14.7,16.6,5.7M559,209.8l12,12.6,15.9-7.4-8.3,15.8,11.5,13.1-17-2.8-9,15.5L562,239l-17-3.5,15.7-8m34.2,21,5.5,16.6,17.5.3-14.2,10.7,4.7,16.8-14.1-10L579.7,293l5.4-16.8-13.8-10.6,17.6-.4m19.5,33.2-2,17.4,15.7,7.7-17.3,3.6-2.7,17.3-8.7-15.1L576,332.2l12-13-8.1-15.5,16,7.2m3,39.8-7.8,15.6L603,379l-17.4-2.7-8.4,15.3-3-17.3L556.8,371l15.6-8-2.3-17.4,12.6,12.3M572.9,397l-14.7,9.2,3.8,17.3L548.5,412l-15,8.6,6.3-16.3-13.1-12.1,17.4,1.5,7-16,4.4,17.2" fill="#fff" fill-rule="evenodd"/><path id="path1423" d="M0,0H320V240H0Z" fill="#006"/><path id="path1425" d="M37.5,0l122,90.5L281,0h39V31L200,120.5l120,89V240H280L160,150.5,40.5,240H0V210l119.5-89L0,32V0Z" fill="#fff"/><path id="path1427" d="M212,140.5,320,220v20L184.5,140.5Zm-92,10,3,17.5L27,240H0ZM320,0V1.5l-124.5,94,1-22L295,0ZM0,0,119.5,88h-30L0,21Z" fill="#c8102e"/><path id="path1429" d="M120.5,0V240h80V0ZM0,80v80H320V80Z" fill="#fff"/><path id="path1431" d="M0,96.5v48H320v-48ZM136.5,0V240h48V0Z" fill="#c8102e"/></svg>