<svg id="flag-icons-dm" xmlns="http://www.w3.org/2000/svg" xmlns:xlink="http://www.w3.org/1999/xlink" viewBox="0 0 970.64 481.28"><defs><clipPath id="clip-path" transform="translate(164.7)"><rect x="-0.2" width="641.74" height="481.28" fill="none"/></clipPath></defs><title>dm</title><g clip-path="url(#clip-path)"><path d="M-163.1,0H802.75V481.28H-163.1Z" transform="translate(164.7)" fill="#108c00" fill-rule="evenodd"/><path d="M-164.7,167.51H805.94V214.6H-164.7Z" transform="translate(164.7)" fill="#ffd600" fill-rule="evenodd"/><path d="M249.84,0h45.59V481.28h-45.5Z" transform="translate(164.7)" fill="#ffd600" fill-rule="evenodd"/><path d="M293.83,0h45.5V481.28h-45.5Z" transform="translate(164.7)" fill-rule="evenodd"/><path d="M-164.7,213H805.94v47.19H-164.7Z" transform="translate(164.7)" fill-rule="evenodd"/><path d="M-164.7,260.19H805.94v47.1H-164.7Z" transform="translate(164.7)" fill="#fff" fill-rule="evenodd"/><path d="M339.33,0h45.59V481.28H339.33Z" transform="translate(164.7)" fill="#fff" fill-rule="evenodd"/><path d="M321.94,370.27h0c-71.07,0-128.69-57.87-128.69-129.25h0c0-71.39,57.62-129.25,128.69-129.25h0c71.07,0,128.68,57.86,128.68,129.25h0C450.62,312.4,393,370.27,321.94,370.27Z" transform="translate(164.7)" fill="#e72910" fill-rule="evenodd"/><path d="M315.17,128.78l5.26-15,4.8,14.76s16.07.47,16.07.19-12.69,9.68-12.69,9.68l5.74,16.54c-.19-.47-13.92-10.24-13.92-10.24s-13.91,9.77-13.63,9.77,5.27-16,5.27-16L299.57,129l15.6-.28Z" transform="translate(164.7)" fill-rule="evenodd"/><path d="M315.92,129.44l4.42-12.88,4.14,12.78s14,.38,14,.19-11,8.46-11,8.46l4.89,14.29c-.19-.47-12-8.84-12-8.84s-12,8.46-11.84,8.46S313.2,138,313.2,138l-10.91-8.27,13.54-.19Z" transform="translate(164.7)" fill="#ffe700" fill-rule="evenodd"/><path d="M317.8,131.6l2.63-7.52,2.45,7.43s8,.18,8,0-6.3,4.88-6.3,4.88l2.82,8.28c-.09-.29-7-5.08-7-5.08l-6.76,4.89c.18,0,2.63-8,2.63-8l-6.21-4.7Z" transform="translate(164.7)" fill="#108c00" fill-rule="evenodd"/><path d="M415.19,199.09l5.26-15,4.7,14.76s16.17.56,16.17.28-12.69,9.68-12.69,9.68l5.64,16.55c-.19-.47-13.82-10.25-13.82-10.25s-13.91,9.78-13.63,9.78,5.26-16,5.26-16l-12.5-9.59,15.61-.28Z" transform="translate(164.7)" fill-rule="evenodd"/><path d="M415.84,199.84l4.61-13.06,4.14,12.88s13.91.37,13.91.18-11,8.46-11,8.46l5,14.2c-.19-.38-12-8.84-12-8.84s-12,8.46-11.84,8.46,4.6-13.91,4.6-13.91L402.4,200l13.44-.19Z" transform="translate(164.7)" fill="#ffe700" fill-rule="evenodd"/><path d="M417.82,202l2.63-7.52,2.35,7.33,8.08.19-6.39,4.79s3,8.46,2.82,8.27c0-.28-6.86-5.07-6.86-5.07l-6.86,4.79,2.63-8-6.2-4.7,7.8-.09Z" transform="translate(164.7)" fill="#108c00" fill-rule="evenodd"/><path d="M386.05,310.76l5.26-15,4.7,14.86s16.17.47,16.17.28-12.69,9.68-12.69,9.68L405.13,337c-.19-.47-13.82-10.15-13.82-10.15s-13.91,9.68-13.72,9.68,5.35-16,5.35-16l-12.5-9.4,15.61-.28Z" transform="translate(164.7)" fill-rule="evenodd"/><path d="M386.7,311.52l4.61-13,4.14,12.79s13.91.47,13.91.19-11,8.46-11,8.46l5,14.28c-.19-.47-12-8.83-12-8.83s-12,8.46-11.84,8.46,4.6-13.91,4.6-13.91l-10.81-8.18,13.44-.28Z" transform="translate(164.7)" fill="#ffe700" fill-rule="evenodd"/><path d="M388.68,313.68l2.63-7.52,2.35,7.42s8.08.29,8.08.1-6.39,4.89-6.39,4.89l2.82,8.17c0-.18-6.86-5.07-6.86-5.07l-6.86,4.89,2.63-8-6.2-4.7,7.8-.19Z" transform="translate(164.7)" fill="#108c00" fill-rule="evenodd"/><path d="M246.27,310.76l5.26-15,4.7,14.86s16.08.47,16.08.28-12.69,9.68-12.69,9.68L265.44,337c-.28-.47-13.91-10.15-13.91-10.15s-13.91,9.68-13.72,9.68,5.36-16,5.36-16l-12.51-9.4,15.61-.28Z" transform="translate(164.7)" fill-rule="evenodd"/><path d="M247,311.52l4.51-13,4.14,12.79s13.91.47,13.91.19-11,8.46-11,8.46l5,14.28c-.18-.47-12-8.83-12-8.83s-12,8.46-11.84,8.46,4.6-13.91,4.6-13.91l-10.81-8.18,13.45-.28Z" transform="translate(164.7)" fill="#ffe700" fill-rule="evenodd"/><path d="M248.9,313.68l2.63-7.52,2.35,7.42s8.09.29,8.09.1-6.4,4.89-6.4,4.89l2.82,8.17c0-.18-6.86-5.07-6.86-5.07l-6.86,4.89,2.63-8-6.2-4.7,7.8-.19Z" transform="translate(164.7)" fill="#108c00" fill-rule="evenodd"/><path d="M220.7,196.18l5.26-15,4.8,14.85s16.07.47,16.07.19S234.14,206,234.14,206l5.74,16.45c-.29-.47-13.92-10.15-13.92-10.15s-13.91,9.59-13.63,9.59,5.27-16,5.27-16l-12.5-9.4,15.6-.28Z" transform="translate(164.7)" fill-rule="evenodd"/><path d="M221.45,196.93,226,184l4.23,12.78s13.82.47,13.82.19-11,8.46-11,8.46l5,14.29c-.19-.47-12-8.84-12-8.84s-12,8.46-11.75,8.46,4.52-13.91,4.52-13.91l-10.81-8.18Z" transform="translate(164.7)" fill="#ffe700" fill-rule="evenodd"/><path d="M223.33,199.09l2.63-7.52,2.45,7.43,8,.09L230.1,204l2.82,8.18c-.09-.19-7-5.08-7-5.08L219.2,212c.18,0,2.63-8,2.63-8l-6.21-4.7,7.71-.19Z" transform="translate(164.7)" fill="#108c00" fill-rule="evenodd"/><path d="M384.82,163.65l-5.26,15-4.7-14.75s-16.17-.47-16.17-.29S371.38,154,371.38,154l-5.64-16.45c.19.47,13.82,10.15,13.82,10.15S393.47,138,393.19,138s-5.26,16-5.26,16l12.5,9.4-15.61.28Z" transform="translate(164.7)" fill-rule="evenodd"/><path d="M384.17,162.9c0,.28-4.7,13.07-4.7,13.07l-4.05-12.79s-13.91-.47-13.91-.28,11-8.36,11-8.36l-5-14.29c.19.47,12,8.83,12,8.83s12-8.46,11.84-8.46-4.6,13.92-4.6,13.92l10.81,8.17-13.54.19Z" transform="translate(164.7)" fill="#ffe700" fill-rule="evenodd"/><path d="M382.19,160.74l-2.63,7.52-2.35-7.33s-8.08-.28-8.08-.1,6.39-4.88,6.39-4.88l-2.82-8.18c0,.19,6.86,5.07,6.86,5.07l6.86-4.88c-.19,0-2.72,8-2.72,8l6.29,4.7-7.8.18Z" transform="translate(164.7)" fill="#108c00" fill-rule="evenodd"/><path d="M425,272.88l-5.26,15L415,273.07s-16.17-.47-16.17-.19,12.69-9.68,12.69-9.68l-5.64-16.54c.19.47,13.82,10.15,13.82,10.15s13.91-9.68,13.63-9.68-5.27,16-5.27,16l12.6,9.49-15.6.28Z" transform="translate(164.7)" fill-rule="evenodd"/><path d="M424.3,272.13l-4.6,13-4.14-12.78s-13.91-.38-13.91-.19,11-8.46,11-8.46l-5-14.29c.18.47,12,8.84,12,8.84s12-8.46,11.84-8.46-4.6,13.91-4.6,13.91l10.81,8.27-13.54.19Z" transform="translate(164.7)" fill="#ffe700" fill-rule="evenodd"/><path d="M422.33,270l-2.63,7.52-2.35-7.43s-8.09-.19-8.09,0,6.4-4.89,6.4-4.89l-2.82-8.27c0,.28,6.86,5.08,6.86,5.08l6.86-4.89c-.19,0-2.73,8.08-2.73,8.08l6.3,4.7Z" transform="translate(164.7)" fill="#108c00" fill-rule="evenodd"/><path d="M325.42,352.78l-5.27,15L315.45,353s-16.17-.47-16.17-.28S312,343,312,343l-5.64-16.45c.19.47,13.82,10.15,13.82,10.15S334.06,327,333.78,327s-5.26,16-5.26,16L341,352.5Z" transform="translate(164.7)" fill-rule="evenodd"/><path d="M324.76,351.94l-4.61,13.16L316,352.22s-13.92-.47-13.92-.19,11-8.46,11-8.46l-5-14.29c.19.47,12,8.84,12,8.84s12-8.46,11.85-8.46-4.61,13.91-4.61,13.91l10.81,8.18-13.44.28Z" transform="translate(164.7)" fill="#ffe700" fill-rule="evenodd"/><path d="M322.78,349.87l-2.63,7.52L317.8,350s-8.08-.28-8.08-.09,6.39-4.89,6.39-4.89l-2.82-8.18c0,.19,6.86,5.08,6.86,5.08L327,337l-2.63,8,6.21,4.7-7.81.19Z" transform="translate(164.7)" fill="#108c00" fill-rule="evenodd"/><path d="M232,272.88l-5.36,15-4.7-14.85s-16.17-.47-16.17-.19,12.69-9.68,12.69-9.68l-5.64-16.54c.19.47,13.82,10.15,13.82,10.15l13.82-9.59-5.36,16,12.5,9.49L232,273Z" transform="translate(164.7)" fill-rule="evenodd"/><path d="M231.23,272.13l-4.61,13-4.13-12.78s-13.92-.38-13.92-.19,11-8.46,11-8.46l-5-14.29c.19.47,12,8.84,12,8.84s12-8.46,11.85-8.46-4.61,13.91-4.61,13.91l10.81,8.27-13.44.19Z" transform="translate(164.7)" fill="#ffe700" fill-rule="evenodd"/><path d="M229.25,270l-2.63,7.52-2.35-7.43s-8.08-.19-8.08,0,6.39-4.89,6.39-4.89l-2.82-8.27c0,.28,6.86,5.08,6.86,5.08l6.86-4.89-2.63,8.08,6.21,4.7Z" transform="translate(164.7)" fill="#108c00" fill-rule="evenodd"/><path d="M266.48,165.25l-5.27,15-4.88-14.76s-16-.47-16-.28S253,155.57,253,155.57l-5.74-16.45c.19.47,13.82,10.15,13.82,10.15s13.91-9.68,13.72-9.68-5.26,16-5.26,16L282,165l-15.51.38Z" transform="translate(164.7)" fill-rule="evenodd"/><path d="M265.73,164.5l-4.61,13.16L257,164.78s-13.91-.47-13.91-.19,11-8.46,11-8.46l-5-14.28c.19.47,12,8.83,12,8.83s12-8.46,11.84-8.46-4.51,13.91-4.51,13.91l10.72,8.18-13.44.28Z" transform="translate(164.7)" fill="#ffe700" fill-rule="evenodd"/><path d="M263.75,162.43,261.12,170l-2.35-7.42s-8-.29-8-.1,6.3-4.89,6.3-4.89l-2.82-8.17c0,.18,6.86,5.07,6.86,5.07l6.86-4.89-2.63,8,6.2,4.7Z" transform="translate(164.7)" fill="#108c00" fill-rule="evenodd"/><ellipse cx="329.69" cy="268.43" rx="33.41" ry="6.74" transform="translate(224.21 596.69) rotate(-89.7)" fill="#009200" stroke="#000" stroke-width="2.5"/><ellipse cx="338.31" cy="267.93" rx="33.41" ry="7.22" transform="translate(233 604.59) rotate(-89.65)" fill="#009200" stroke="#000" stroke-width="2.5"/><ellipse cx="334.89" cy="269.37" rx="36.75" ry="5.78" transform="translate(229.16 603.4) rotate(-89.82)" fill="#009200" stroke="#000" stroke-width="2.5"/><path d="M295.2,276.44c5.87-.29,3.32-3.22,6.26-4.89s7.13-.58,8.4,1.37.3,3.91,2,3.91,45.95-2.44,47.51-.88,2,4.89.29,6.16-57.58,2.94-59.53,1.57S295.2,276.83,295.2,276.44Z" transform="translate(164.7)" fill="#a95600" stroke="#000" stroke-width="0.5" fill-rule="evenodd"/><path d="M325.84,288c0,3.91,6.69,2.72,6.86,6-.1,3.46-11.25.34-11.52-6,.27-6.34,11-9.58,11.24-6,.18,3-6.6,2.06-6.6,6Z" transform="translate(164.7)" fill="#ff0" stroke="#000" stroke-width="3.9" fill-rule="evenodd"/><path d="M329.75,288.13c0,3.91,6.69,2.71,6.86,6-.1,3.46-11.25.34-11.52-6,.27-6.34,11-9.59,11.24-6,.18,3-6.6,2-6.6,6Z" transform="translate(164.7)" fill="#ff0" stroke="#000" stroke-width="3.9" fill-rule="evenodd"/><path d="M334,287.93c0,3.91,6.69,2.72,6.87,6-.11,3.46-11.25.34-11.53-6,.28-6.34,11-9.58,11.25-6,.17,3-6.6,2-6.6,6Z" transform="translate(164.7)" fill="#ff0" stroke="#000" stroke-width="3.9" fill-rule="evenodd"/><path d="M337.86,287.93c0,3.91,6.69,2.72,6.87,6-.11,3.46-11.25.34-11.53-6,.28-6.34,11-9.58,11.25-6,.17,3-6.6,2-6.6,6Z" transform="translate(164.7)" fill="#ff0" stroke="#000" stroke-width="3.9" fill-rule="evenodd"/><ellipse cx="356.75" cy="296" rx="3.76" ry="3.82" transform="translate(162.41 2.78) rotate(-0.45)" fill="#a95600" stroke="#000" stroke-width="0.4"/><ellipse cx="332.52" cy="288.98" rx="3.46" ry="7.54" transform="translate(137.2 35.08) rotate(-5.8)" fill="#009200" stroke="#000" stroke-width="2.5"/><ellipse cx="326.77" cy="288.49" rx="3.46" ry="7.54" transform="translate(137.22 34.5) rotate(-5.8)" fill="#009200" stroke="#000" stroke-width="2.5"/><ellipse cx="322.68" cy="281.14" rx="3.46" ry="7.54" transform="translate(137.94 34.05) rotate(-5.8)" fill="#009200" stroke="#000" stroke-width="2.5"/><ellipse cx="326.82" cy="279.1" rx="3.25" ry="8.25" transform="translate(138.17 34.46) rotate(-5.8)" fill="#009200" stroke="#000" stroke-width="2.5"/><ellipse cx="334.93" cy="280.53" rx="3.25" ry="7.77" transform="translate(138.07 35.28) rotate(-5.8)" fill="#009200" stroke="#000" stroke-width="2.5"/><ellipse cx="330.53" cy="277.84" rx="3.25" ry="7.77" transform="translate(138.32 34.82) rotate(-5.8)" fill="#009200" stroke="#000" stroke-width="2.5"/><ellipse cx="325.03" cy="273.97" rx="3.25" ry="7.77" transform="translate(138.68 34.25) rotate(-5.8)" fill="#009200" stroke="#000" stroke-width="2.5"/><ellipse cx="319.89" cy="271.74" rx="3.25" ry="7.77" transform="translate(138.88 33.72) rotate(-5.8)" fill="#009200" stroke="#000" stroke-width="2.5"/><path d="M315.93,200s-11.44,9.78-9.88,36.08c1.76,26.39,25.91,38.61,25.91,38.61s6.06-7.52,5.08-28.84c-2-31.08-13.49-44.67-13.49-44.67l-7.62-1.27Z" transform="translate(164.7)" fill="#804bff" stroke="#000" stroke-width="0.5" fill-rule="evenodd"/><ellipse cx="340.42" cy="290.04" rx="7.54" ry="3.46" transform="translate(189.27 606.65) rotate(-85.5)" fill="#009200" stroke="#000" stroke-width="2.5"/><ellipse cx="334.85" cy="288.52" rx="7.54" ry="3.46" transform="translate(185.65 599.7) rotate(-85.5)" fill="#009200" stroke="#000" stroke-width="2.5"/><ellipse cx="332.14" cy="280.56" rx="7.54" ry="3.46" transform="matrix(0.08, -1, 1, 0.08, 191.09, 589.67)" fill="#009200" stroke="#000" stroke-width="2.5"/><ellipse cx="336.59" cy="279.29" rx="8.25" ry="3.25" transform="translate(196.45 592.93) rotate(-85.5)" fill="#009200" stroke="#000" stroke-width="2.5"/><ellipse cx="344.31" cy="282.15" rx="7.77" ry="3.25" transform="translate(200.71 603.26) rotate(-85.5)" fill="#009200" stroke="#000" stroke-width="2.5"/><ellipse cx="340.46" cy="278.71" rx="7.77" ry="3.25" transform="translate(200.59 596.25) rotate(-85.5)" fill="#009200" stroke="#000" stroke-width="2.5"/><ellipse cx="335.73" cy="273.93" rx="7.77" ry="3.25" transform="translate(201.01 587.14) rotate(-85.5)" fill="#009200" stroke="#000" stroke-width="2.5"/><ellipse cx="331.08" cy="270.82" rx="7.77" ry="3.25" transform="translate(199.82 579.62) rotate(-85.5)" fill="#009200" stroke="#000" stroke-width="2.5"/><ellipse cx="338.67" cy="248.34" rx="9.74" ry="29.46" transform="translate(96.41 144.63) rotate(-21.95)" fill="#c90000" stroke="#000"/><ellipse cx="333.11" cy="221.81" rx="3.78" ry="4.22" transform="translate(270.22 551.01) rotate(-89)" fill="#009200" stroke="#000" stroke-width="1.5"/><ellipse cx="334.47" cy="216.46" rx="3.78" ry="3.7" transform="translate(276.91 547.1) rotate(-89)" fill="#009200" stroke="#000" stroke-width="1.6"/><ellipse cx="329.39" cy="216.37" rx="3.78" ry="3.7" transform="translate(272 541.94) rotate(-89)" fill="#009200" stroke="#000" stroke-width="1.6"/><ellipse cx="331.35" cy="208.38" rx="3.4" ry="3.91" transform="translate(281.92 536.05) rotate(-89)" fill="#009200" stroke="#000" stroke-width="1.6"/><ellipse cx="330.94" cy="203.98" rx="3.4" ry="3.91" transform="translate(285.92 531.31) rotate(-89)" fill="#009200" stroke="#000" stroke-width="1.6"/><ellipse cx="324.55" cy="213.55" rx="3.78" ry="3.7" transform="translate(270.07 534.32) rotate(-89)" fill="#009200" stroke="#000" stroke-width="1.6"/><ellipse cx="325.58" cy="210.83" rx="3.78" ry="3.7" transform="translate(273.8 532.68) rotate(-89)" fill="#009200" stroke="#000" stroke-width="1.6"/><ellipse cx="321.41" cy="208.9" rx="3.78" ry="4.22" transform="translate(271.63 526.61) rotate(-89)" fill="#009200" stroke="#000" stroke-width="1.5"/><ellipse cx="328.1" cy="198.55" rx="3.4" ry="3.91" transform="translate(288.56 523.13) rotate(-89)" fill="#009200" stroke="#000" stroke-width="1.6"/><ellipse cx="321.95" cy="205.49" rx="3.78" ry="3.7" transform="translate(275.58 523.81) rotate(-89)" fill="#009200" stroke="#000" stroke-width="1.6"/><ellipse cx="313.97" cy="209.06" rx="3.78" ry="3.7" transform="translate(264.16 519.34) rotate(-89)" fill="#009200" stroke="#000" stroke-width="1.6"/><ellipse cx="315.25" cy="208.4" rx="3.78" ry="3.7" transform="matrix(0.02, -1, 1, 0.02, 266.08, 519.97)" fill="#009200" stroke="#000" stroke-width="1.6"/><ellipse cx="316.87" cy="205.4" rx="3.78" ry="3.7" transform="translate(270.68 518.64) rotate(-89)" fill="#009200" stroke="#000" stroke-width="1.6"/><ellipse cx="339.39" cy="254.33" rx="12.27" ry="37.32" transform="translate(96.86 135.85) rotate(-20.63)" fill="#009200" stroke="#000" stroke-width="2.5"/><ellipse cx="349.18" cy="260.36" rx="2.38" ry="7.86" transform="translate(94.93 141.22) rotate(-20.84)" fill="#009200" stroke="#000" stroke-width="2.5"/><path d="M347.65,259.93c9.65,13.32,8.19,21.58,7,28.56-2.95-8.17-4.49-13.3-14.13-26.61s-4.51-22.34-3.72-27.16C338.19,239,338,246.62,347.65,259.93Z" transform="translate(164.7)" fill="#009200" stroke="#000" stroke-width="1.5" fill-rule="evenodd"/><path d="M348.34,270.49c9.64,13.31,8.19,21.58,7,28.56-2.95-8.17-4.49-13.3-14.14-26.62s-4.5-22.33-3.72-27.15C338.87,249.51,338.69,257.18,348.34,270.49Z" transform="translate(164.7)" fill="#009200" stroke="#000" stroke-width="1.5" fill-rule="evenodd"/><path d="M349.1,279c9.95,13.09,8.68,21.39,7.63,28.4-3.13-8.1-4.79-13.2-14.74-26.29s-5-22.23-4.33-27.07C339.16,258.2,339.15,265.88,349.1,279Z" transform="translate(164.7)" fill="#009200" stroke="#000" stroke-width="1.5" fill-rule="evenodd"/><ellipse cx="341.64" cy="248.51" rx="4.3" ry="14.03" transform="translate(96.91 144.37) rotate(-21.76)" fill="#009200" stroke="#000" stroke-width="1.4"/><ellipse cx="338.62" cy="254.71" rx="3.78" ry="11.47" transform="matrix(0.93, -0.36, 0.36, 0.93, 95.61, 139.34)" fill="#009200" stroke="#000" stroke-width="1.6"/><ellipse cx="332.12" cy="259.07" rx="3.78" ry="11.45" transform="matrix(0.94, -0.34, 0.34, 0.94, 97, 126.53)" fill="#009200" stroke="#000" stroke-width="1.6"/><ellipse cx="336.65" cy="240.85" rx="2.99" ry="8.69" transform="translate(94.78 163.1) rotate(-24.75)" fill="#009200" stroke="#000" stroke-width="2.1"/><ellipse cx="333.78" cy="244.95" rx="3.04" ry="8.74" transform="translate(98.88 136.66) rotate(-21.11)" fill="#009200" stroke="#000" stroke-width="2.1"/><path d="M330.46,240.21c2.76,7.84,3.78,14.86,2.27,15.67s-5-4.9-7.7-12.74" transform="translate(164.7)" fill="#009200" stroke="#000" stroke-width="2.1" fill-rule="evenodd"/><ellipse cx="333.5" cy="235.84" rx="3.04" ry="8.74" transform="matrix(0.93, -0.36, 0.36, 0.93, 102.14, 135.94)" fill="#009200" stroke="#000" stroke-width="2.1"/><ellipse cx="328.68" cy="239.09" rx="3.03" ry="8.77" transform="translate(102.61 127.31) rotate(-20.07)" fill="#009200" stroke="#000" stroke-width="2.1"/><path d="M325.93,229.6c2.75,5.32,4.2,10.25,3.22,11s-4-2.93-6.75-8.25" transform="translate(164.7)" fill="#009200" stroke="#000" stroke-width="2.9" fill-rule="evenodd"/><path d="M328,226.18c2.76,5.32,4.2,10.25,3.22,11s-4-2.94-6.75-8.25" transform="translate(164.7)" fill="#009200" stroke="#000" stroke-width="2.9" fill-rule="evenodd"/><path d="M336.87,228.05c3.83,7.31,5.83,14.09,4.45,15.13s-5.58-4.06-9.41-11.37" transform="translate(164.7)" fill="#009200" stroke="#000" stroke-width="2.1" fill-rule="evenodd"/><path d="M331.05,223c2.76,5.85,4.2,11.28,3.22,12.12s-4-3.22-6.75-9.07" transform="translate(164.7)" fill="#009200" stroke="#000" stroke-width="2.7" fill-rule="evenodd"/><path d="M335.09,202.62c-1.92,2,.07,5.42,1.88,6.6,2,1.66,13.55,12.52,21.32,2.59C351.91,212,339.72,198.21,335.09,202.62Z" transform="translate(164.7)" fill="#804bff" stroke="#000" stroke-width="2.5" fill-rule="evenodd"/><path d="M333.73,196.85c-1.93,2,.06,5.42,1.87,6.61,2,1.65,13.55,12.51,21.32,2.58C350.54,206.21,338.36,192.45,333.73,196.85Z" transform="translate(164.7)" fill="#804bff" stroke="#000" stroke-width="2.5" fill-rule="evenodd"/><path d="M332,191.38c-1.93,2,.06,5.42,1.87,6.6,2,1.66,13.55,12.52,21.32,2.58C348.78,200.74,336.6,187,332,191.38Z" transform="translate(164.7)" fill="#804bff" stroke="#000" stroke-width="2.5" fill-rule="evenodd"/><path d="M328.15,185.12c-1.92,2,.07,5.42,1.88,6.61,2,1.65,13.55,12.51,21.32,2.58C345,194.48,332.78,180.71,328.15,185.12Z" transform="translate(164.7)" fill="#804bff" stroke="#000" stroke-width="2.5" fill-rule="evenodd"/><path d="M310.68,182.36c3.71-2.9,10.66-3.76,16.15-.87,4.59,2.31,12.33,11.68,18,13.9a13,13,0,0,1-9-1.18c-4.94,3.77-6.71,4.31-11.84,5.06-7.08,1-13.05-.91-15.2-4.75C306.63,190.89,307.4,185.06,310.68,182.36Z" transform="translate(164.7)" fill="#804bff" stroke="#000" stroke-width="2.5" fill-rule="evenodd"/><ellipse cx="321.55" cy="186.77" rx="1.91" ry="3.47" transform="translate(293.9 505.02) rotate(-89)" fill="red" stroke="#000" stroke-width="2.5"/><ellipse cx="312.03" cy="194.48" rx="4.91" ry="2.86" transform="translate(116.35 121.62) rotate(-20.5)" fill="#ff0" stroke="#000" stroke-width="2.5"/><circle cx="480.75" cy="192.83" r="1.13"/><path d="M317.58,189.18c.41,1.42-.71,3.35-3.31,4.06-2.63,1-4.56,3.19-5.56,6.78-4.47-8.15-2-11.63,2.23-12.5C314.62,186.46,316.86,186.58,317.58,189.18Z" transform="translate(164.7)" fill="#ff0" stroke="#000" stroke-width="6.6" fill-rule="evenodd"/><circle cx="471.31" cy="196.96" r="0.92"/></g></svg>