<svg id="flag-icons-ec" xmlns="http://www.w3.org/2000/svg" viewBox="0 0 640 480"><title>ec</title><g id="g8"><path id="path2" d="M0,0H640V480H0Z" fill="#ffe800" fill-rule="evenodd"/><path id="path4" d="M0,240H640V480H0Z" fill="#00148e" fill-rule="evenodd"/><path id="path6" d="M0,360H640V480H0Z" fill="#da0010" fill-rule="evenodd"/></g><g id="g16"><path id="path10" d="M269.6,290.8,197,367.3l-1.2-1.6,72.4-76.5,1.2,1.6ZM320,303.3l-94.8,100-1.6-1.6,94.7-100Z" fill-rule="evenodd"/><path id="path12" d="M225.49,402.13,216.63,411l-10.1,7.62,7.62-10.1,8.86-8.86Z" fill="gray" stroke="#000" stroke-width="4.1" fill-rule="evenodd"/><path id="path14" d="M201.09,363l-8.86,8.86-10.1,7.62,7.62-10.1,8.86-8.86Z" fill="gray" stroke="#000" stroke-width="4.1" fill-rule="evenodd"/></g><path id="path18" d="M207.94,114.79s-8,215.43,23.9,215.43,47.83-22.66,47.83-22.66l-.36-118.4Z" fill="#ffdf00" stroke="#000" fill-rule="evenodd"/><path id="path20" d="M227.42,134.89c0,11.33-3.55,172.67,12.38,172.67s39.87-11.33,39.87-11.33l-.36-107.07Z" fill="#0000c4" stroke="#000" fill-rule="evenodd"/><path id="path22" d="M237.77,145.77c0,11.33,2,139.13,18,139.13h23.9l-.36-95.74-41.54-43.39Z" fill="#e10000" stroke="#000" fill-rule="evenodd"/><path id="path24" d="M206.2,116l72.4,76.5,1.3-1.6-72.4-76.5Z" fill-rule="evenodd"/><path id="path26" d="M184.3,158.94s-20.54,208.69,41.06,208.69c51.33,0,51.33-32.92,61.6-32.92l-10.27-76.88-92.45-98.89Z" fill="#ffdf00" stroke="#000" fill-rule="evenodd"/><g id="g76"><path id="path28" d="M235.18,193.63a141.1,141.1,0,0,1,55-55.09" fill="none" stroke="#000" stroke-width="2.3"/><path id="path30" d="M228.81,161.85a36.06,36.06,0,0,1,12,8.85c-6.21-1.3-9.42-1.83-14.85-4.36s-9.58-6.41-12.87-9.55C217.12,158,223.35,159.3,228.81,161.85Z" fill="#005b00" stroke="#000" fill-rule="evenodd"/><path id="path32" d="M242.43,182.5a1.6,1.6,0,0,1-.79,2.11,1.67,1.67,0,0,1-2.27-.41,1.56,1.56,0,0,1,.8-2.09A1.67,1.67,0,0,1,242.43,182.5Z" fill="red" stroke="#000" fill-rule="evenodd"/><path id="path34" d="M259.49,140.27a48.17,48.17,0,0,1-7.94,13.58c1.35-6.65,1.92-10.06,4.27-16a65.38,65.38,0,0,1,8.56-14.58C263.18,127.61,261.86,134.26,259.49,140.27Z" fill="#005b00" stroke="#000" fill-rule="evenodd"/><path id="path36" d="M251.55,140a64.94,64.94,0,0,1-3.3,15.29c-.41-5.8-.71-8.71-.17-14.68a87.22,87.22,0,0,1,3.57-16.44C251.67,128.15,252.09,134,251.55,140Z" fill="#005b00" stroke="#000" fill-rule="evenodd"/><path id="path38" d="M256.73,146.79a19.31,19.31,0,0,1-8.38,6.21c2.74-5,4.08-7.69,7.16-11.31a26.24,26.24,0,0,1,9-6.64C262.56,138.1,259.83,143.15,256.73,146.79Z" fill="#005b00" stroke="#000" fill-rule="evenodd"/><path id="path40" d="M230.52,151.85A34.49,34.49,0,0,1,237.3,165c-4.74-3.22-7.24-4.73-10.86-9.07s-5.66-9.79-7.26-14.17C222.12,144.28,226.88,147.48,230.52,151.85Z" fill="#005b00" stroke="#000" fill-rule="evenodd"/><path id="path42" d="M223.23,185.33a29.1,29.1,0,0,1,8.82,11.57c-5.76-2.39-8.78-3.46-13.3-7.08s-7.28-8.52-9.45-12.47C212.9,179.33,218.68,181.69,223.23,185.33Z" fill="#005b00" stroke="#000" fill-rule="evenodd"/><path id="path44" d="M244.42,183.34a52.27,52.27,0,0,1-12,13.36c2.16-6.35,3.1-9.6,6.72-15.4s8.79-10.55,13-14.34C250.2,171.16,248.06,177.52,244.42,183.34Z" fill="#005b00" stroke="#000" fill-rule="evenodd"/><path id="path46" d="M248.21,183.11A55.26,55.26,0,0,1,232,190.8c4.95-5.1,7.35-7.78,13.15-11.77s12.25-6.36,17.44-8.23C259,174,254,179.11,248.21,183.11Z" fill="#005b00" stroke="#000" fill-rule="evenodd"/><path id="path48" d="M287.25,141.49A29.43,29.43,0,0,1,280,147.6a48.15,48.15,0,0,1,5.62-8.15,40.65,40.65,0,0,1,7.81-6.55A92.09,92.09,0,0,1,287.25,141.49Z" fill="#005b00" stroke="#000" fill-rule="evenodd"/><path id="path50" d="M281.76,133a39.91,39.91,0,0,1-4.76,7.7,43,43,0,0,1,2.72-7.7,55,55,0,0,1,5.14-8.28A83.7,83.7,0,0,1,281.76,133Z" fill="#005b00" stroke="#000" fill-rule="evenodd"/><path id="path52" d="M290.24,138.47a14,14,0,0,1-6.34,2,34.13,34.13,0,0,1,6.34-4.88,18.87,18.87,0,0,1,6.82-2.16A64.89,64.89,0,0,1,290.24,138.47Z" fill="#005b00" stroke="#000" fill-rule="evenodd"/><path id="path54" d="M255.27,154.69a62,62,0,0,1-12.12,5.66,72.84,72.84,0,0,1,23.74-13.76C264,148.68,259.82,152,255.27,154.69Z" fill="#005b00" stroke="#000" fill-rule="evenodd"/><path id="path56" d="M268.48,158.75a52.14,52.14,0,0,1-16.43,6.55c5.24-4.85,7.81-7.42,13.78-11s12.47-5.52,17.68-7C279.72,150.23,274.49,155.11,268.48,158.75Z" fill="#005b00" stroke="#000" fill-rule="evenodd"/><path id="path58" d="M227.89,217.34c.38-.22-3.26-32,21-65" fill="none" stroke="#000" stroke-width="2.4"/><path id="path60" d="M265.13,150.4a1.6,1.6,0,0,1-.79,2.11,1.67,1.67,0,0,1-2.27-.41,1.56,1.56,0,0,1,.8-2.09A1.67,1.67,0,0,1,265.13,150.4Z" fill="red" stroke="#000" fill-rule="evenodd"/><path id="path62" d="M275.93,144.1a1.6,1.6,0,0,1-.79,2.11,1.67,1.67,0,0,1-2.27-.41,1.56,1.56,0,0,1,.8-2.09A1.67,1.67,0,0,1,275.93,144.1Z" fill="red" stroke="#000" fill-rule="evenodd"/><path id="path64" d="M245.79,165.27c.28.52-.24,1.34-1.18,1.81s-1.93.42-2.22-.11.25-1.33,1.19-1.8S245.51,164.75,245.79,165.27Z" fill="red" stroke="#000" fill-rule="evenodd"/><path id="path66" d="M249,163.87c.28.52-.24,1.34-1.18,1.81s-1.93.42-2.22-.11.25-1.33,1.19-1.8S248.71,163.35,249,163.87Z" fill="red" stroke="#000" fill-rule="evenodd"/><path id="path68" d="M247.09,166.87c.28.52-.24,1.34-1.18,1.81s-1.93.42-2.22-.11.25-1.33,1.19-1.8S246.81,166.35,247.09,166.87Z" fill="red" stroke="#000" fill-rule="evenodd"/><path id="path70" d="M252.7,167.3a1.75,1.75,0,0,1-1,2.3,1.66,1.66,0,0,1-2.4-.7,1.72,1.72,0,0,1,1-2.3,1.53,1.53,0,0,1,2.3.7Z" fill="red" stroke="#000" stroke-width="0.3" fill-rule="evenodd"/><path id="path72" d="M255,164.9a2,2,0,0,1-3.5,1.7,1.78,1.78,0,0,1,1-2.4,1.73,1.73,0,0,1,2.4.7Z" fill="red" stroke="#000" stroke-width="0.3" fill-rule="evenodd"/><path id="path74" d="M255.5,166a1.72,1.72,0,0,1-1,2.3,1.79,1.79,0,0,1-2.4-.6,1.75,1.75,0,0,1,1-2.3A1.71,1.71,0,0,1,255.5,166Z" fill="red" stroke="#000" stroke-width="0.3" fill-rule="evenodd"/></g><path id="path78" d="M204.83,181c0,11-20.53,131.81,30.85,164.73,20.54,11,51.33-11,51.33,0l-10.26-87.85Z" fill="#0000c4" stroke="#000" fill-rule="evenodd"/><path id="path80" d="M225.36,202.89c0,11-10.27,98.83,20.59,120.84,20.53,21.95,71.92,16,71.92,16l-41.12-81.9-51.39-54.94Z" fill="#e10000" stroke="#000" fill-rule="evenodd"/><path id="path82" d="M183.8,158l94.8,100,1.7-1.6-94.8-99.9-1.6,1.6Z" fill-rule="evenodd"/><path id="path84" d="M169.21,146.15l6,1.06L177,149c-.24,0,1.77,1.77-.71,4.25s-6-1.08-6-1.08,1.06,6,4.61,9.57a9.5,9.5,0,0,0,7.79,2.83s-4-3.31-1.06-6,4.25-.71,4.25-.71l3.54,3.54,2.49-2.49L177.74,144.7l-1.06-6-9.13-1.51,1.67,9Z" fill="#cececc" stroke="#000" fill-rule="evenodd"/><path id="path86" d="M183.18,104.12l7.28,11.29,9.22,2.49-6,3.89,11-.35,5,3.55,1.78-2.85-5-3.56-3.88-11L201.44,115l-5.66-8.17-12.61-2.77Z" fill="#cececc" stroke="#000" fill-rule="evenodd"/><path id="path88" d="M212.8,110.9c0,.6-.8,1.11-1.72,1.11s-1.76-.51-1.76-1.11.8-1.14,1.76-1.14S212.8,110.27,212.8,110.9Zm-2.48,2.37c0,10.74,8.36,56.34,9,57.45,0,1.35-1.92,1.92-2.84.27-2.64-5.22-8.32-48-8.52-58-.12-4.11,1.48-4.44,3.32-4.35,1.48.06,3.32,1.11,3.32,2.37C214.64,112.52,212.32,113.63,210.32,113.27Z" fill="#e10000" stroke="#000" fill-rule="evenodd"/><path id="path90" d="M216,121.55a2,2,0,0,1-2.19.68c-.87-.23-1.42-1-1.12-1.55a2,2,0,0,1,2.25-.7C215.85,120.22,216.31,120.92,216,121.55Zm-3.54,1.75c2.76,21.57-6.5,54.88-6.42,56.19-.63,1.33-2.79,1.44-2.82-.47-.46-1.24,10.2-31.33,7.17-56.57,1.94-4.14,3.63-4.07,5.33-3.52,1.37.43,2.6,1.94,2,3.2C216.94,123.63,214.18,124.16,212.46,123.3Z" fill="#0000c4" stroke="#000" fill-rule="evenodd"/><path id="path92" d="M186.7,151.5a2.21,2.21,0,0,1-4.4,0,2,2,0,0,1,2.2-1.8,1.94,1.94,0,0,1,2.1,1.8Zm-3.2,4c0,17.9,10.5,93.9,11.3,95.8,0,2.2-2.3,3.2-3.5.4-3.3-8.7-10.4-80-10.7-96.6-.1-6.9,1.9-7.4,4.2-7.3,1.9.1,4.1,1.9,4.1,4,0,2.4-2.9,4.3-5.4,3.7Z" fill="#e10000" stroke="#000" stroke-width="0.7" fill-rule="evenodd"/><path id="path94" d="M192.1,160.74a2.34,2.34,0,0,1-2.8,1.13,1.92,1.92,0,0,1-1.38-2.44,2.41,2.41,0,0,1,2.88-1.16A1.85,1.85,0,0,1,192.1,160.74Zm-4.56,2.86c2.84,34.19-10,87.32-9.9,89.4-.84,2.12-3.59,2.35-3.57-.68-.54-2,13.94-50,10.87-90,2.6-6.62,4.74-6.54,6.88-5.71,1.74.65,3.25,3,2.41,5-1,2.4-4.53,3.3-6.69,2Z" fill="#0000c4" stroke="#000" fill-rule="evenodd"/><g id="g102"><path id="path96" d="M370.4,290.8l72.5,76.5,1.3-1.6-72.5-76.5ZM320,303.3l94.8,100,1.6-1.6-94.7-100Z" fill-rule="evenodd"/><path id="path98" d="M414.51,402.13l8.86,8.86,10.1,7.62-7.62-10.1L417,399.65Z" fill="gray" stroke="#000" stroke-width="4.1" fill-rule="evenodd"/><path id="path100" d="M438.91,363l8.86,8.86,10.1,7.62-7.62-10.1-8.86-8.86Z" fill="gray" stroke="#000" stroke-width="4.1" fill-rule="evenodd"/></g><g id="g158"><path id="path104" d="M432.06,114.79s8,215.43-23.9,215.43-47.83-22.66-47.83-22.66l.36-118.4Z" fill="#ffdf00" stroke="#000" fill-rule="evenodd"/><path id="path106" d="M412.57,134.89c0,11.33,3.56,172.67-12.37,172.67s-39.87-11.33-39.87-11.33l.36-107.07Z" fill="#0000c4" stroke="#000" fill-rule="evenodd"/><path id="path108" d="M402.22,145.77c0,11.33-2,139.13-18,139.13H360.33l.36-95.74,41.53-43.39Z" fill="#e10000" stroke="#000" fill-rule="evenodd"/><path id="path110" d="M433.8,116l-72.4,76.5-1.3-1.6,72.4-76.5Z" fill-rule="evenodd"/><g id="g136"><path id="path112" d="M376.65,175.08s20.3,26,30.09,46.16S428,272.14,428,272.14s-6.53-30.26-18.85-54.51C393,187.12,376.64,176.81,376.65,175.08Z" fill="#005b00" stroke="#000" fill-rule="evenodd"/><path id="path114" d="M376,154.39s22.65,32.21,33,56.09,21.82,59.8,21.82,59.8-5.58-34.51-18.67-63.38C394.84,170.46,375.81,156.31,376,154.39Z" fill="#005b00" stroke="#000" fill-rule="evenodd"/><path id="path116" d="M395.5,122.55s16,47.69,20.9,77.18,7.83,70.13,7.83,70.13,3.08-34.09-3.46-70.28C411.71,153.25,394.83,124,395.5,122.55Z" fill="#005b00" stroke="#000" fill-rule="evenodd"/><path id="path118" d="M381.11,120.37s22.19,42.35,30.83,71.13,16.73,70.4,16.73,70.4-1.17-37.77-12.34-72.8C401.36,144.59,380.62,122.28,381.11,120.37Z" fill="#005b00" stroke="#000" fill-rule="evenodd"/><path id="path120" d="M407.76,133.84s11,45.6,13.81,72.81,3.54,64,3.54,64a292.78,292.78,0,0,0,0-63.22C419.62,164.36,407.16,135,407.76,133.84Z" fill="#005b00" stroke="#000" fill-rule="evenodd"/><path id="path122" d="M378.58,135.1s21.46,36.28,30.15,61.64,17.2,62.52,17.2,62.52-2.07-34.4-13.24-65.2C397.78,155,378.18,136.9,378.58,135.1Z" fill="#005b00" stroke="#000" fill-rule="evenodd"/><path id="path124" d="M374.55,160.37s22.65,28.76,33,50.78,21.82,55.59,21.82,55.59-5.58-32.83-18.67-59.4C393.44,173.9,374.41,162.24,374.55,160.37Z" fill="#005b00" stroke="#000" fill-rule="evenodd"/><path id="path126" d="M377.49,147.15S398.33,181,407.4,205.46s18.69,60.89,18.69,60.89-3.86-34.46-15.41-64.11C395.38,164.76,377.26,149,377.49,147.15Z" fill="#005b00" stroke="#000" fill-rule="evenodd"/><path id="path128" d="M400.05,123.27s13.4,46.69,16.72,75.21S420.92,266,420.92,266s4.79-32.35.17-67.38C414.5,153.74,399.32,124.64,400.05,123.27Z" fill="#005b00" stroke="#000" fill-rule="evenodd"/><path id="path130" d="M381.67,111.63s19.56,44,26.64,73.35,13.05,71.5,13.05,71.5.53-37.73-8.71-73.54C400.15,137.39,381.12,113.49,381.67,111.63Z" fill="#005b00" stroke="#000" fill-rule="evenodd"/><path id="path132" d="M412.81,137.18s8.42,43.79,9.63,69.73-.13,60.82-.13,60.82a265.05,265.05,0,0,0,3.61-60C422.92,166.71,412.15,138.28,412.81,137.18Z" fill="#005b00" stroke="#000" fill-rule="evenodd"/><path id="path134" d="M379.17,129.76s19.56,37.91,26.64,63.86,13.05,63.61,13.05,63.61.53-34.35-8.71-65.92C397.65,151.22,378.62,131.52,379.17,129.76Z" fill="#005b00" stroke="#000" fill-rule="evenodd"/></g><path id="path138" d="M455.7,158.94s20.54,208.69-41.06,208.69c-51.33,0-51.33-32.92-61.6-32.92l10.27-76.88,92.45-98.89Z" fill="#ffdf00" stroke="#000" fill-rule="evenodd"/><path id="path140" d="M435.17,181c0,11,20.53,131.81-30.85,164.73-20.54,11-51.33-11-51.33,0l10.26-87.85Z" fill="#0000c4" stroke="#000" fill-rule="evenodd"/><path id="path142" d="M414.64,202.89c0,11,10.27,98.83-20.59,120.84-20.53,21.95-71.92,16-71.92,16l41.12-81.9,51.39-54.94Z" fill="#e10000" stroke="#000" fill-rule="evenodd"/><path id="path144" d="M456.2,158,361.4,258l-1.7-1.6,94.8-99.9,1.7,1.6Z" fill-rule="evenodd"/><path id="path146" d="M470.79,146.15l-6,1.06L463,149c.24,0-1.77,1.77.71,4.25s6-1.08,6-1.08-1.06,6-4.61,9.57a9.5,9.5,0,0,1-7.79,2.83s4-3.31,1.06-6-4.25-.71-4.25-.71l-3.54,3.54-2.49-2.49,14.17-14.17,1.06-6,9.13-1.51-1.67,9Z" fill="#cececc" stroke="#000" fill-rule="evenodd"/><path id="path148" d="M456.82,104.12l-7.28,11.29-9.22,2.49,6,3.89-11-.35-5,3.55-1.78-2.85,5-3.56,3.88-11,1.08,7.45,5.66-8.17,12.61-2.77Z" fill="#cececc" stroke="#000" fill-rule="evenodd"/><path id="path150" d="M427.3,110.9c0,.6.8,1.11,1.72,1.11s1.76-.51,1.76-1.11-.8-1.14-1.76-1.14S427.3,110.27,427.3,110.9Zm2.48,2.37c0,10.74-8.36,56.34-9,57.45,0,1.35,1.92,1.92,2.84.27,2.64-5.22,8.32-48,8.52-58,.12-4.11-1.48-4.44-3.32-4.35-1.48.06-3.32,1.11-3.32,2.37C425.46,112.52,427.78,113.63,429.78,113.27Z" fill="#e10000" stroke="#000" fill-rule="evenodd"/><path id="path152" d="M424,121.55a2,2,0,0,0,2.19.68c.87-.23,1.42-1,1.12-1.55a2,2,0,0,0-2.25-.7C424.15,120.22,423.69,120.92,424,121.55Zm3.54,1.75c-2.76,21.57,6.5,54.88,6.42,56.19.63,1.33,2.79,1.44,2.82-.47.46-1.24-10.2-31.33-7.17-56.57-1.94-4.14-3.63-4.07-5.33-3.52-1.37.43-2.6,1.94-2,3.2C423.06,123.63,425.82,124.16,427.54,123.3Z" fill="#0000c4" stroke="#000" fill-rule="evenodd"/><path id="path154" d="M453.4,151.5a2.17,2.17,0,0,0,2.1,2,2.19,2.19,0,0,0,2.2-2,2,2,0,0,0-2.2-1.8A1.94,1.94,0,0,0,453.4,151.5Zm3,4q-3.58,48.12-11.2,95.8c0,2.2,2.3,3.2,3.5.4,3.3-8.7,10.4-80,10.7-96.6.1-6.9-1.9-7.4-4.2-7.3-1.9.1-4.1,1.9-4.1,4,0,2.4,2.9,4.3,5.4,3.7Z" fill="#e10000" stroke="#000" stroke-width="0.7" fill-rule="evenodd"/><path id="path156" d="M447.9,160.74a2.34,2.34,0,0,0,2.8,1.13,1.92,1.92,0,0,0,1.38-2.44,2.41,2.41,0,0,0-2.88-1.16A1.85,1.85,0,0,0,447.9,160.74Zm4.56,2.86c-2.84,34.19,10,87.32,9.9,89.4.84,2.12,3.59,2.35,3.57-.68.54-2-13.94-50-10.87-90-2.6-6.62-4.74-6.54-6.88-5.71-1.74.65-3.25,3-2.41,5,1,2.4,4.53,3.3,6.69,2Z" fill="#0000c4" stroke="#000" fill-rule="evenodd"/></g><g id="g180"><path id="path160" d="M287.07,422.56a29.18,29.18,0,0,0,30.8,0V334.71H297.34c10.26,32.92,10.26,65.9-10.33,87.85Z" fill="#e10000" stroke="#000" fill-rule="evenodd"/><path id="path162" d="M303.33,336.65c0,62-14.88,75.74-14.88,88.2,6.2,0,10.33-5.81,14.88-13.79,6.19-12.46,6.79-75.39,6.19-74.41Z" fill="#0000c4" stroke="#000" fill-rule="evenodd"/><path id="path164" d="M290.94,336.65c-.32,36.19-15.68,69.72-12.78,77.14,3.29,6.65,12.78-15.19,25.17-2.8,6.19-12.39,6.79-75.32,6.19-74.41H290.94Z" fill="#0000c4" stroke="#000" fill-rule="evenodd"/><path id="path166" d="M292.33,331.37c0,40.71-14.25,43.42-14.25,54.28,6.2,0,14.21-5.93,14.25-5.38,6.19-8.19,6.79-49.54,6.19-48.9Z" fill="#ffdf00" stroke="#000" fill-rule="evenodd"/><path id="path168" d="M279.94,331.37c-.32,23.78-15.33,44-12.43,48.9,3.33,4.32,12.43-8.19,24.82,0,6.19-8.19,6.79-49.54,6.19-48.9Z" fill="#ffdf00" stroke="#000" fill-rule="evenodd"/><path id="path170" d="M352.93,422.56a29.18,29.18,0,0,1-30.8,0V334.71h20.53c-10.26,32.92-10.26,65.9,10.33,87.85Z" fill="#e10000" stroke="#000" fill-rule="evenodd"/><path id="path172" d="M336.67,336.65c0,62,14.88,75.74,14.88,88.2-6.2,0-10.33-5.81-14.88-13.79-6.19-12.46-6.79-75.39-6.19-74.41Z" fill="#0000c4" stroke="#000" fill-rule="evenodd"/><path id="path174" d="M349.06,336.65c.32,36.19,15.68,69.72,12.78,77.14-3.29,6.65-12.78-15.19-25.17-2.8-6.19-12.39-6.79-75.32-6.19-74.41h18.58Z" fill="#0000c4" stroke="#000" fill-rule="evenodd"/><path id="path176" d="M347.67,331.37c0,40.71,14.25,43.42,14.25,54.28-6.2,0-14.21-5.93-14.25-5.38-6.19-8.19-6.79-49.54-6.19-48.9Z" fill="#ffdf00" stroke="#000" fill-rule="evenodd"/><path id="path178" d="M360.06,331.37c.32,23.78,15.33,44,12.43,48.9-3.33,4.32-12.43-8.19-24.82,0-6.19-8.19-6.79-49.54-6.19-48.9Z" fill="#ffdf00" stroke="#000" fill-rule="evenodd"/></g><g id="g202"><path id="path182" d="M241.63,341.56l-10.76,7.79,10.76,7.79,5.38-3.9,2.69,3.9,2.68,7.78,2.7-7.78,2.69-3.9H402v-7.79H257.76l-2.69-3.91c0-3.9.57-7.79,2.7-7.79h10.75c0-3.89-5.37-11.68-16.14-11.68s-16.14,7.79-16.14,11.68H247c2.12,0,2.69,3.89,2.69,7.81L247,345.45l-5.39-3.91Z" fill="#908f8a" stroke="#000" stroke-width="4.5" fill-rule="evenodd"/><path id="path184" d="M273.2,360.44h94.28v4.78H273.23Zm0-4.81h94.28v4.81H273.23Zm0-4.78h94.28v4.81H273.23Zm0-4.77h94.28v4.77H273.23Zm0-4.78h94.28v4.78H273.23Zm0-4.81h94.28v4.81H273.23Zm0-4.75h94.28v4.75H273.23Z" fill="#b74d00" stroke="#000" stroke-width="1.8" fill-rule="evenodd"/><path id="path186" d="M277.7,331.45l34.45,33.48h4.92l-34.42-33.45h-4.93Z" fill="#908f8a" stroke="#000" stroke-width="3.3" fill-rule="evenodd"/><path id="path188" d="M277.7,366l34.45-33.48h4.92l-34.42,33.45h-4.93Z" fill="#908f8a" stroke="#000" stroke-width="3.3" fill-rule="evenodd"/><path id="path190" d="M278.66,331.45v33.48h4.95V331.45Z" fill="#908f8a" stroke="#000" stroke-width="3.1" fill-rule="evenodd"/><path id="path192" d="M322,331.45l34.45,33.48h4.93L327,331.48H322Z" fill="#908f8a" stroke="#000" stroke-width="3.3" fill-rule="evenodd"/><path id="path194" d="M322,366l34.45-33.48h4.93L327,365.92H322Z" fill="#908f8a" stroke="#000" stroke-width="3.3" fill-rule="evenodd"/><path id="path196" d="M357.46,331.45v33.48h5V331.45Z" fill="#908f8a" stroke="#000" stroke-width="3.1" fill-rule="evenodd"/><path id="path198" d="M323.06,331.45v33.48H328V331.45Z" fill="#908f8a" stroke="#000" stroke-width="3.1" fill-rule="evenodd"/><path id="path200" d="M313.06,331.45v33.48H318V331.45Z" fill="#908f8a" stroke="#000" stroke-width="3.1" fill-rule="evenodd"/></g><g id="g210"><path id="path204" d="M389.79,235.88c0,54.56-32.25,98.83-71.92,98.83S246,290.44,246,235.88,278.14,137,317.87,137s71.92,44.27,71.92,98.83Zm-10.27,0c0,48.48-27.6,87.85-61.65,87.85s-61.65-39.37-61.65-87.85S283.82,148,317.87,148s61.65,39.37,61.65,87.92Z" fill="#ffdf00" stroke="#000" fill-rule="evenodd"/><path id="path206" d="M345.88,144.8a54.31,54.31,0,0,0-56-.06l4.06,10.17a45.33,45.33,0,0,1,48,0l4-10.17Z" fill="#ffdf00" stroke="#000" fill-rule="evenodd"/><path id="path208" d="M346.08,324.3a54.31,54.31,0,0,1-56,.06l4.06-10.17a45.33,45.33,0,0,0,48,0l4,10.17Z" fill="#ffdf00" stroke="#000" fill-rule="evenodd"/></g><path id="path212" d="M379.6,235.9c0,48.5-27.7,87.8-61.7,87.8s-61.6-39.3-61.6-87.8,27.6-88,61.6-88,61.7,39.4,61.7,88Z" fill="#a7cfff" fill-rule="evenodd"/><path id="path214" d="M379.52,235.88c.64,16.49-2.66,24.55-6.9,41.72-1.1,1.86-6.38-4-9.51-6.94s-4.52,2.6-8.47-1.86-6.38,1.24-9.28-2.6-29.75-4.34-29.75-4.72c2.67-1.36,16.35.13,14.15-6.88-2.49-7.31-18-.25-20.07-9.55-1.45-9.3-31.09-9.67-33.23-11.9.87,3.47,23.08,5,22.56,13.95-.52,3.72-21.87,4.77-23.95,7.87-1.74,3.91,16.82-1.05,17.45,3.72,0,2-2.72,0-12.35,3.1-4.87,1.55,8.93,6.39,3.71,9.06s-16.41,3.84-15.95,5c1.74,5.58,25.93,12.15,23.55,13.08-8.58,4.09-13.11,6.76-17.23,9.11a109.18,109.18,0,0,1-18-62.12c18.38-7.07,14.5-8.56,48.48-8.56s45.24,1.43,74.82,8.56Z" fill="#afff7b" stroke="#000" fill-rule="evenodd"/><path id="path216" d="M379.52,235.88c-4.64,0-9.51,2.11-14.5,2.11s-10.15-2.17-15.37-2.17-11.19,2.85-16.53,2.85-10.09-2.79-15.48-2.79S306.85,238,301.51,238s-10.61-2.17-15.77-2.17S275.47,238,270.54,238s-9.74-2.17-14.32-2.17a120.26,120.26,0,0,1,4.87-34.17c15.66,1.24,6.38-9.73,15.66-9.73A18.48,18.48,0,0,1,291.42,198c1.39,0,8.35-7.07,16.18-6.08s4.93,16.93,15.32,17.73c5.22,4.22,8.29,6.88,15.48,8.62,10.27,1,39.67-1.55,39.85-.12a125,125,0,0,1,1.27,17.73Z" fill="#fff" stroke="#000" fill-rule="evenodd"/><path id="path218" d="M327.18,287c0-2.74,2.7-4.56,2.7-8.93s-2.4-4.46-2.48-8.54c0-1.68,2.06-3.36,3-3.55s1.7,3.55,1.7,4.36-.94-2-1.72-2.06-2.46.29-2.46,1.1c0,1.64,3,3.65,2.74,9.12s-2.54,7-2.54,8.64a47.35,47.35,0,0,0,1,6.15s-1.94-3.6-1.94-6.34Z" stroke="#000" fill-rule="evenodd"/><path id="path220" d="M335.82,286.62c0-2.74-2.7-4.56-2.7-8.93s2.4-4.46,2.48-8.54c.2-1.92-2.36-3.17-3.28-3.31s-2,3.84-2,4.6,1.08-2.49,1.86-2.54,2.92.29,2.92,1.1c0,1.64-3,3.65-2.74,9.12s2.54,7,2.54,8.64a47.35,47.35,0,0,1-1,6.15s1.94-3.6,1.94-6.34Z" stroke="#000" fill-rule="evenodd"/><path id="path222" d="M333,264.9c0,1.3-.7,2.4-1.5,2.4s-1.4-1.1-1.4-2.5.6-2.4,1.4-2.4S333,263.5,333,264.9Zm17,9h.4v19.5h-.5Zm4.1-1.6h.5V292h-.5Z" fill-rule="evenodd"/><path id="path224" d="M352.6,281.2v-.5l4,.7v.5Z" fill-rule="evenodd"/><path id="path226" d="M295.43,286.86s15.08,7.07,18.39,11.28,2,4.22,2,4.22l33.47,1.43c0-2.11,5.91-2.11,7.25-7.07a31.16,31.16,0,0,0,1.33-6.33l-10.5,3.54.58-6.33h-9.16l-1.33,6.33-19.72-.68L319,276.32l-3.94.68-.58,16.12c-.7,0-18.45-4.9-19.14-6.26Z" fill="#b74d00" stroke="#000" fill-rule="evenodd"/><path id="path228" d="M265.09,185.91S287,179,318.51,179.46s53.42,7.93,52.95,7.93-6-11.4-6-11.4A204.67,204.67,0,0,0,318,169c-25.05-.5-46.92,5-46.4,5.46l-6.55,11.47Z" fill="#fede00" stroke="#fede00" fill-rule="evenodd"/><path id="path230" d="M306,169.8l13.6-.2.2,7.9-13.6.3Zm-31.2,4.3L270,182l16.2-2-1.3-7.7-10.1,2Zm13.7-3,13.6-1.1.6,7.8L289.2,179Zm48.9-.7-13.5-1-.5,8,13.5.8Zm29.2,5,4.9,9.6-14.6-3.6,1.6-7.7,8,1.6Zm-11.8-3-13.4-1.7-1,7.8,13.5,1.8Z" fill="#38a9f9" fill-rule="evenodd"/><path id="path232" d="M318.51,190.37,317.06,182l-4.41,7.13,1.62-8.37-6.55,4.77,4.41-7-7.77,1.73,6.67-4.71L303.2,174l7.83-1.61-6.67-4.71,7.77,1.73-4.47-7,6.61,4.77-1.62-8.37,4.41,7.13,1.45-8.37,1.51,8.37,4.35-7.13-1.57,8.37,6.55-4.77-4.46,7,7.83-1.73-6.67,4.71,7.83,1.61-7.83,1.55,6.67,4.71-7.83-1.73,4.46,7-6.55-4.77,1.62,8.37L320,182Z" fill="#ffdf00" stroke="#000" fill-rule="evenodd"/><path id="path234" d="M330.09,168.75a8.48,8.48,0,1,0,0,.05Z" fill="#ffdf00" stroke="#000" fill-rule="evenodd"/><path id="path236" d="M320.7,170.6c0,.5-1.3,1-2.8,1s-2.8-.5-2.8-1,1.2-1,2.8-1S320.7,170,320.7,170.6Zm6,0c0,.5-.9,1-2,1s-2.2-.5-2.2-1,1-1,2.1-1S326.7,170,326.7,170.6Z" fill-rule="evenodd"/><path id="path238" d="M320.41,174.05l.58.33c-1.4-.85-.76-.54,1.44,1.64a7.68,7.68,0,0,0,2.28-2.31" fill="none" stroke="#000"/><path id="path240" d="M314.82,178.47l.47.49c-1.1-1.24-.58-.62,1.85,1a6.83,6.83,0,0,0,6.09-2.48" fill="none" stroke="#000"/><path id="path242" d="M281.4,194.8s1,8-5.1,18-5.1,6.4-5.1,6.4,2.8,5.5,2.3,5.5-4.7-5-4.7-5l-5,5.5s4.6-8.5,4.1-8.5-1.4-3-1.4-3l3.7-1.5s5.6-10.4,5.6-9.9-16.7,11.4-16.7,11.4l22.3-18.8Zm3.7,3c-.5,0,2.3,8,4.7,12a20.25,20.25,0,0,1,2.3,8.9l7.9,4-10.2-15.4,6.5,2.4-11.2-11.9Zm0,20.9s5.6,6,6,8a53.41,53.41,0,0,1,.5,6.4l-2.3-5-3.3,4.5s2.4-7,1.9-7.5-3.7,2.5-3.7,2.5,1.4-4,1.4-4.4A17.62,17.62,0,0,0,285.1,218.7Zm-27.9,13.9a19.46,19.46,0,0,1,5.6-2.5s-2.3,4-2.8,4a3.1,3.1,0,0,1-2.8-1.5Zm64.1-21.8s12.1,7.4,12.1,7.9-7.9-3.5-7.9-3.5Zm-21.8-15.5c1,.5,17.7,14.4,17.2,14.4s-7.4-4-7.4-3.4v3.4l-3.8-7.9-.9,3-5-9.5Zm4.2,22.4,4.6,9.4,4.7-1s-8.8-8.4-9.3-8.4Zm14.4-6,.5,9s2.7,2.5,2.7,2S318.6,212.2,318.1,211.7Z" fill="#b7e1ff" fill-rule="evenodd"/><path id="path244" d="M182.6,89.5a350.89,350.89,0,0,1,44.9-20.2,303.94,303.94,0,0,1,54.2-14.4c7,0,19.2,17.8,21.2,17.8s10.1-5,20.3-5,16.1,8,18.2,8h18.2c2,0-6.1-19.8,0-18.8,3,.5,28.8,4.5,52.8,12.2s58,21.6,58,21.6S414.9,98,400,95.9c-2,1,0,13-3,7.7-4.6-1-21.7-3.7-24.7-3.7s-8.7,3.4-16.8,5.4-18.2,5-18.2,5L350.5,131l-16.2,8s-10.1-23.8-14.2-23.8S314.1,132,309,131s-7-15.8-11.1-19.8-25.4-5.4-33.5-7.3-21.1-3.5-28.2-5.5-14.2,5-17.2,5,4-6,1-7-5,3-7,3-23.3-4-25.3-5,5-4.9,3-4.9Z" fill="#984000" fill-rule="evenodd"/><path id="path246" d="M333.46,79.6a10.09,10.09,0,1,1-10.1-10A10,10,0,0,1,333.46,79.6Z" fill="gray" stroke="#772600" stroke-width="3.7" fill-rule="evenodd"/><path id="path248" d="M282.27,81.5c1.81-2.11,4.05-5.31,9.91-5.31,1.35-.55,1.35-3.75,4.48-3.75s2.24,3.2,4.51,4.29,20.68-1.09,20.68-1.09a5.68,5.68,0,0,1,1.78,3.75c0,2.14-1.35,3.71-1.78,3.71S303.41,81.5,302.06,82a11,11,0,0,1-5.4,1.06c-3.13,0-4.05-3.71-6.29-3.71s-4.48-.55-8.1,2.14Z" fill="#984000" stroke="#772600" stroke-width="5.3" fill-rule="evenodd"/><path id="path250" d="M337.13,80.39h7.18c2.6,0,3.49,1,5.86,1h6.29c2.3-.09,3.52-.73,5.84-1,3.91-.07,2.59-.42,1.81-3.2-.71-2.08-.81-3.07-1.81-4.26-.38-2.56-1.24-3.45-1.35-6.4-.41-2.24-1.16-3.74-.43-6.4,1,1.83,1.43,2.56,4.05,2.69s3.75-.1,5.4,1.06c1.24,1.56,2.91,1.05,5.4,1.05,2.05.45,2.4,1.7,4,2.66a8.75,8.75,0,0,0,5.83,1.6,20.73,20.73,0,0,1,5.4,1.6c1.16,1.63,3,2,5.4,2.14a10.94,10.94,0,0,0,3.59-.54c2.08.13,4.19,0,6.75,0,1.68,2.3,2.05,3.17,4.94,3.2,2,1.66,3.67,1.92,5.4,2.65h6.75c2.43.23,3.19,1.41,5.4,2.15A49.07,49.07,0,0,0,434.68,83a24.67,24.67,0,0,0,5.86.55c1.65,1,3.67,1.09,4.94,2.11,1.87.48,4.4,1.06,5.84,1.6,2.37.38,3.29,1.28,5.4,1.6,1.8.64-.6,1.15-1.81,1.6-2.65-.1-2.84-1.28-5.4-1.6-1.35-.93-3.41-.8-5.4-1.6h-.44c1.79,1.28,3.51,2.08,2.7,4.29a62.62,62.62,0,0,1-6.29-.55c-2.26-.51-3.29-1.05-5.83-1.05,2.54-.74,3.19.06,4.94,1.05.65,2.56-.75,1.6-3.16,1.6-2-.86-3.29-1.92-5.83-2.14h-5.4c2.68.13,3.24,1.31,4.94,2.69.14.83,0,.77-1.35,1-1.4-1.44-3.21-1.92-5.4-2.65a19.65,19.65,0,0,1-6.29-1.09c-1.32-.1-1.1-2,1.81,1.09,1.76,1.21,2.38,2.24,2.24,3.2-2.32-.71-3.45-1.79-4.94-2.69A14.24,14.24,0,0,0,409.52,91c-2.32-.73.24-1.15,1.78,1.6,3.35,2.82-.43,1.6-1.78,1.06-2-.67-4.13-1.66-5.86-2.11a16.79,16.79,0,0,0-4.05-1.09c2.35.26,3.13,1.25,4.05,3.2,2.38,1.92-.11,1-2.24.54-1.35-1.4-3.1-2.14-4.05-3.74-2.24-1.31-2.32-2.88-.89.54.35,1.09.27,3.46.43,3.75-1.65-2.15-1.29-2.69-3.13-2.69-1.27-1-3.11-1.82-4-3.2-1.73-.19-1.84-.93-3.59-1.6,1.43,2,3.35,4,4.48,5.89,2.05,1.34,2.62,2.56,4.05,3.71.57,1.18,2.16,2.14.46.54-1.94-2.24-3.38-2.78-6.29-4.25-1.68-1.6-2.27-2.24-4-3.75-2.43-.92-1.49-1.44,0,1.6,1.7,1.86,3,3.91,4.48,5.35a19.52,19.52,0,0,0,4.05,4.25c.41.71,1.62.84,0,1.06C392,100.23,390,99.3,388.38,98c-2.24-.74-3.29-2.12-4.94-3.72-1.08-1.88-2.81-3.32-4.05-4.8-2.59-1.21.51,1.16,1.35,2.66.57,2,1.29,3.52,1.78,5.34.76,1.76-2.27-.41-3.13-1a14,14,0,0,0-5.86-2.69c-1.79-.42-3.59-.78-5.4-1.06-2-.64,1.11,1.54,2.27,3.75,2.27,2.53-2.24.45-3.59,0a28.91,28.91,0,0,0-6.75-.55c-2.89.2-.81.64,0,2.12a4.6,4.6,0,0,1,1.35,3.2,39.57,39.57,0,0,0-5.86-1.06c-1.89.74-4.13.54-6.29.54-.08,1.35.4.2,1.35,1.6,1.56.74,2.59,1.64,2.26,2.66h-13c-1.43.45.3.22,1.35,2.14-.59,1.73-1.35,1.06-3.16,1.06-1.21-.58-3.67-.83-4.94-1.6-1.27,0-1.16-.38-2.24-.54,3.78,3.2,1.89,2.4,4.05,4.8.35.16,1.22.54.43.54m-29.67,17.06c-.27,0-.86-1.73-1.78-3.2-.65-1.92-1.46-.84-2.27-3.75a45.56,45.56,0,0,0,0-6.4,11.61,11.61,0,0,1-4.05-4.8c-2.27-2.24.35-6.08.78-8.89-2-.52-3,3.68-6,5.18-2.21,1.76-.27-3.65-1.35-6.78-.73-4.45-2.91,2.24-3.72,4.12-1.49,1.19-1.95,2.72-4.05.52,0-1.64,1.32-6.24.75-7.14-2.1,1.25-4.86,5-7,5.54-2.22-.55.45-4.74.45-7.84-.81-.32-4,8.25-5.26,8.32s-.73-8.32-1.35-8.13c-.95,1.6-2.86,4.93-4.19,6.08-2.56-.42.38-5.6.76-7.52.43-2.31-2.4,4.41-3.91,4.83a10.66,10.66,0,0,1-4,2.14c.86-2,5.13-6,4.86-7.13-2.52.09-6.32,4-8.46,4.48a31.36,31.36,0,0,0-3.59.51c.11-2.56,5.24-4.67,6-6.24-2.51.48-7.34,3.1-8.75,5.18-1.67.42-3.78,1-5.4,0,.25-2.4,4-7,4.86-8.57-2.29,1.18-3.43,2.11-5.86,2.65-.45.55-1.75,1.7-1.35.55.73-2.24,1.81-3.2,2.7-4.8-2,.45-2.78,1.82-4.94,3.2-1.37.06-5.32,4.77-6.64,4.83a17.59,17.59,0,0,1-7.64,4.26,6.27,6.27,0,0,0-4.05,2.14,15.9,15.9,0,0,1,4.05-5.31,8.7,8.7,0,0,1,4.05-4.29c.51-.74,1.92-.93.43-1.06a50,50,0,0,1-4.48,3.75c-1.38,1-3,2-3.62,1.6.73-2.31,2-2.88,3.16-4.8,2.38-1.79,0-.64-1.81,0-1.16,1.21-3.24,2.14-4.94,3.2-1.89.57-3.16,1.92-5.4,2.65,0,.77.65-1.37.92-2.14,1.84-2.37,2.32-3,4.48-3.71.54-.93,1.19-.55-.43-.55-1.24,1.28-2.92,2-4.51,3.2a24.21,24.21,0,0,1-5.83.55c-2.81.38-2.57.64,0-1.09,1.43-1.6,2.62-1.18,2.7-3.2a36,36,0,0,1-5.86,3.74c-1.73.07-2.19.55-4.05.55.89-1.09,1.43-2.47,2.7-3.2,1.89-2.47-1.19-.48-1.81,0h-6.75c-1.19,1.79,0,0,.92-1.09,1.16-.7,2.37-1.63,2.24-2.11-1.35,1.37-2.89,2-4.05,3.2-1.24.45-2.7.64-2.7,1,1-1.69,2.59-2.75,3.62-4.25,1.51-.39,2.81-1,3.13-1.6h-1.81a43.59,43.59,0,0,0,6.32-.55c3.56-.7-.33-1-2.27-1-.35-.83,1.13-1.28,2.7-1.6,1.35-.77,3-1.44,4.51-2.15a11.31,11.31,0,0,0,3.59-2.11c-1.35.07-1.35.45-2.7.51,2-.16,3.46-.51,5.86-.51a58.62,58.62,0,0,0,5.83-2.65c.81-1.16,1.14-1.09-.89-1.09,1.81-.67,4.37-1,5.83-1.6a22.59,22.59,0,0,0,5.4-2.11c1.33-1.06,2.08-2.31,3.59-3.2,1.76,1.4,1.79,1.6,4.94,1.6a6.87,6.87,0,0,0,5.4-2.15c2-.64,2.3-1.73,4.51-2.11a30.24,30.24,0,0,0,6.29.51,18.53,18.53,0,0,0,5.84-3.2c1.37-.8,3-1.95,4.51-2.65a13,13,0,0,0,4.94,2.14c2.08-.38,3.18-1.6,4.94-2.14A7.3,7.3,0,0,1,278.68,58c2.62-1.54,2.43.48,3.59,2.11,1.35,1.67,3.08.87,4.94,1.6A12.53,12.53,0,0,0,290.37,66c1.05,1.53,2.29,1.92,4.51,2.14.81,1.28.16,2.18,1.78,2.66a6.93,6.93,0,0,0,2.7,1.6" fill="none" stroke="#772600" stroke-width="3.5"/><path id="path252" d="M332,114.76V115c0-.73,0-.32.46,1.09.16,1.15-.22,1-.68,1.86-.08,1.18-.21,2-.21,3.45a11.8,11.8,0,0,1-1.14,3.2c-.43,1-2.29,1.57-2.24,3-1.08.35-1.1-.48-1.13-1.89a15.17,15.17,0,0,1-1.35-3.2c-.27-1.09-.92-1.92-1.35-3.2a22.74,22.74,0,0,1-1.78-2.91c-.25-.64-.19-1.48-.68-1.86a2.45,2.45,0,0,0-2.48-1.34c-1,.25-1.35.76-2.24,1-.71.29-2.06.19-2.92.55-.22.41.43.64.68,1.6a6.6,6.6,0,0,0-1.14,2.4,5.27,5.27,0,0,0-1.13,2.4,2.48,2.48,0,0,1-.44,2.4,23.82,23.82,0,0,1-.91,2.91,7.33,7.33,0,0,0-1.57,2.14c-.51.87-1,.8-2.24.8-1-.32-1.13-1-2-1.34-.09-.32-.17-.42-.46-.51" fill="none" stroke="#782600" stroke-width="3.1"/><path id="path254" d="M307.6,125.5s-.4,5-3.6,8.3-9.8,7.1-9.8,7.1,8.9-4.2,9.8-3.3-5.7,8.3-5.7,8.3,8.7-7.7,9.8-7.7,3.6,7.5,4.6,7.3-2-9.5-1.6-11,0-9.3,0-9.3l-3.4.3Zm20.5-.6s-.4,5.3-3.6,8.8-9.8,7.6-9.8,7.6,8.9-4.5,9.8-3.5-5.7,8.8-5.7,8.8,8.7-8.2,9.8-8.2,3.6,8,4.6,7.8-2-10.2-1.6-11.7,0-10,0-10l-3.5.4Zm-28.7-48a2,2,0,0,1-2.1,1.7,2.1,2.1,0,0,1-2.2-1.8,2,2,0,0,1,2.2-1.8,1.94,1.94,0,0,1,2.1,1.8Z" fill="#812e00" fill-rule="evenodd"/></svg>