<svg id="flag-icons-fk" xmlns="http://www.w3.org/2000/svg" xmlns:xlink="http://www.w3.org/1999/xlink" viewBox="0 0 640 480"><defs><linearGradient id="Dégradé_sans_nom" x1="419.05" y1="-75.86" x2="445.55" y2="-60.76" gradientTransform="matrix(0.86, 0, 0, -0.96, -160.4, 457.45)" gradientUnits="userSpaceOnUse"><stop offset="0" stop-color="#a43907"/><stop offset="1" stop-color="#fff"/></linearGradient><linearGradient id="Dégradé_sans_nom_2" x1="470.27" y1="-75.73" x2="496.77" y2="-60.63" gradientTransform="translate(938.68 237.21) rotate(180) scale(1.08 1.27)" xlink:href="#Dégradé_sans_nom"/><linearGradient id="Dégradé_sans_nom_3" x1="486.48" y1="-43.36" x2="548.78" y2="-33.66" gradientTransform="translate(937.77 293.69) rotate(180) scale(1.02 1.36)" xlink:href="#Dégradé_sans_nom"/><linearGradient id="Dégradé_sans_nom_4" x1="473.62" y1="-66.47" x2="446.52" y2="-67.97" gradientTransform="matrix(1.08, 0, 0, -1.27, 48.52, 237.21)" xlink:href="#Dégradé_sans_nom"/><linearGradient id="Dégradé_sans_nom_5" x1="518.66" y1="-36.6" x2="457.06" y2="-41" gradientTransform="matrix(1.02, 0, 0, -1.36, 49.43, 293.69)" xlink:href="#Dégradé_sans_nom"/><linearGradient id="Dégradé_sans_nom_6" x1="849.38" y1="105.93" x2="643.89" y2="105.93" gradientTransform="matrix(0.86, 0, 0, -0.96, -159.5, 458.35)" xlink:href="#Dégradé_sans_nom"/><linearGradient id="Dégradé_sans_nom_7" x1="386.76" y1="30.85" x2="675.66" y2="29.25" gradientTransform="matrix(0.89, 0, 0, -1.55, 51.95, 415.83)" xlink:href="#Dégradé_sans_nom"/><linearGradient id="Dégradé_sans_nom_8" x1="578.54" y1="27.7" x2="555.54" y2="26.7" gradientTransform="matrix(0.91, 0, 0, -1.52, 50.95, 398.59)" xlink:href="#Dégradé_sans_nom"/><linearGradient id="Dégradé_sans_nom_9" x1="610.53" y1="30.66" x2="588.03" y2="28.36" gradientTransform="translate(935.25 415.83) rotate(180) scale(0.89 1.55)" xlink:href="#Dégradé_sans_nom"/><linearGradient id="Dégradé_sans_nom_10" x1="579.75" y1="21.51" x2="617.55" y2="35.51" gradientTransform="translate(936.25 398.59) rotate(180) scale(0.91 1.52)" xlink:href="#Dégradé_sans_nom"/></defs><title>fk</title><path id="path2937" d="M0,0H640V480H0Z" fill="#012169"/><path id="path2939" d="M0,0H400V200H0Z" fill="#012169" fill-rule="evenodd"/><path id="path2949" d="M412.9,308.9a9.65,9.65,0,0,0-1.7,0c-3,.6-7.6,11.3-10,17.6a77.93,77.93,0,0,0-7.8,12.7c-.7,1.2-1.7,2.6-1.4,4.2-6,1.6-6.3,7.4-6.3,9.6a7.88,7.88,0,0,0,.7,3.7l3.6,7.5v.1c3.8,9,9.4,20.9,12.7,21.8,4.4,1.5,16-3.3,24.8-11.7a127.55,127.55,0,0,0,53.2,12.1c20.4,0,38.7-5.5,53-12.1,8.8,8.4,20.4,13.2,25,11.7,3-1,8.7-13,12.6-21.8l3.5-7.6a7.65,7.65,0,0,0,.7-3.6c0-2.2-.3-8-6.3-9.6.3-1.6-.6-3-1.3-4.3a110.9,110.9,0,0,0-7.7-13c-2.6-6.2-7.2-16.7-10-17.2-4.2-.8-13,1.5-13,2.4v.4l-17.7,18.6a139,139,0,0,0,4.3,26,113.65,113.65,0,0,1-43.3,8.2,111.5,111.5,0,0,1-43.2-8.3,145.62,145.62,0,0,0,4.3-26L424,311.8v-.4C424,310.7,417.2,308.9,412.9,308.9Zm4.4,23c2.3,0,4.6,2.2,6.5,4.4l-.1,1.3a82.16,82.16,0,0,1-2.8,10.2,74.05,74.05,0,0,1-12.2-9.9c1.9-2.3,5-5.4,8.2-5.8h.4Zm126.6,0h.4c3.3.6,6.3,3.7,8.3,6a74.45,74.45,0,0,1-12.3,10,81.94,81.94,0,0,1-2.8-10.3c-.08-.43-.15-.86-.2-1.3,2-2.3,4.3-4.3,6.6-4.3ZM401.5,358.3a93.39,93.39,0,0,0,9.1,6.8,10,10,0,0,1-3.2,1.6,10.65,10.65,0,0,1-4.7,0,18.58,18.58,0,0,1-1-5.6c-.08-.93-.15-1.87-.2-2.8Zm158.2,0-.1,2.8a19,19,0,0,1-1,5.5,9.42,9.42,0,0,1-8-1.5A82.53,82.53,0,0,0,559.7,358.3Z" stroke="#fff" stroke-width="10" fill-rule="evenodd" fill="url(#Dégradé_sans_nom)"/><path id="path2951" d="M426.2,339.6s-6.1-11.1-11.1-10.2c-5.1.7-10,7.8-10.2,8.2a49.7,49.7,0,0,1-7.5-9.5c.3-.4,7.8-20.9,12-21.8,4-.9,12.7,1.5,12.7,2.3Z" stroke="#000" stroke-width="1.2" fill-rule="evenodd" fill="url(#Dégradé_sans_nom_2)"/><path id="path2953" d="M439.8,327.7c0,.8-2.2,30.2-10.9,40.4s-23,16.6-28.2,15.1c-5-1.6-16.5-31.3-16.5-31.3s12.2,14.2,21.3,11.8,14.6-20.1,16.3-28.9c1.7-8.6.3-25.7.3-25.7l17.8,18.6Z" stroke="#000" stroke-width="1.2" fill-rule="evenodd" fill="url(#Dégradé_sans_nom_3)"/><path id="path2955" d="M532.9,339.6s6.2-11.1,11.2-10.2c5,.7,9.8,7.8,10.2,8.2a49.7,49.7,0,0,0,7.5-9.5c-.4-.4-7.9-20.9-12-21.8s-12.8,1.5-12.8,2.3Z" stroke="#000" stroke-width="1.2" fill-rule="evenodd" fill="url(#Dégradé_sans_nom_4)"/><path id="path2957" d="M519.3,327.7c0,.8,2.2,30.2,10.9,40.4s23,16.6,28.2,15.1c5-1.6,16.6-31.3,16.6-31.3s-12.3,14.2-21.4,11.8-14.5-20.1-16.2-28.9c-1.8-8.6-.4-25.7-.4-25.7l-17.8,18.6Z" stroke="#000" stroke-width="1.2" fill-rule="evenodd" fill="url(#Dégradé_sans_nom_5)"/><path id="path2959" d="M401.2,326.2a110,110,0,0,0-7.9,13c-1.7,3.2-.6,7.7,3.2,14,4.3,6.7,39,33.4,84.1,33.4s79.8-26.6,84-33.4c4-6.4,5-10.8,3.3-14a97.76,97.76,0,0,0-7.9-13c0,8.3-28.7,38.5-79.4,38.5S401.2,334.5,401.2,326.2Z" stroke="#000" stroke-width="1.5" fill-rule="evenodd" fill="url(#Dégradé_sans_nom_6)"/><path id="path2961" d="M557.7,378.8l7.8-15.1-3.9-3.2c-1,3.8-5.5,5.1-6.3,10-.7,4.7,3,9.4,2.4,8.3Z" stroke="#000" stroke-width="1.2" fill-rule="evenodd" fill="url(#Dégradé_sans_nom_7)"/><path id="path2963" d="M564.8,374.5s1.4-6.8-3-7.6-6.8,3.8-6.1,2c.6-2,3.2-4,3.7-10.7a48.48,48.48,0,0,0-.4-10.3s1.8-8.7,8.8-7.5c7.2,1.3,7.5,7.6,7.5,9.9a9.12,9.12,0,0,1-.6,3.5Z" stroke="#000" stroke-width="1.2" fill-rule="evenodd" fill="url(#Dégradé_sans_nom_8)"/><path id="path2965" d="M539.2,351.7l1.5,2.8,1-.6-.7-2,.1-.3,1.7-1.2,4.4,8.7v.5l-1,.7.5.8,4.2-3-.4-.8-1,.6h-.3l-4.4-8.8,1.6-1.2h.4l1,1.6,1-.7-1.5-2.8-8,5.7Zm-10.5,6.7.4.8.9-.4.3.1,3.9,8.9-.1.4-.8.6.3.8,4.1-2.5-.3-.8-.9.4h-.4l-1.8-4.3,4.3-2.4,1.8,4v.5l-1,.6.4.9,4.2-2.5-.4-.8-.9.4-.3-.2-3.8-8.8v-.4l.8-.6-.3-.8-4.1,2.5.3.8,1-.5.3.2,1.5,3.6-4.2,2.5-1.6-3.7.2-.4.8-.5-.4-.9Zm-2.4,7.6.2.8,1.2-.3.4.1.9,3.7-.8.4c-2.5.8-4.4-.5-5.3-3.7s.2-5.6,2.5-6.4a3.16,3.16,0,0,1,1.4-.1l.3.2.8,1.7,1.2-.4-.7-3a9.51,9.51,0,0,0-3.5.6,6.56,6.56,0,0,0-4.3,8.2c1,3.7,3.9,5.4,7.2,4.3a10.77,10.77,0,0,0,3.4-2L530,366l.2-.4.9-.4-.3-.9Zm-9.7,10.3,4.7-1.7-.3-.9-1,.2-.3-.1-2.6-9.6.1-.3,1-.5-.2-.8-4.7,1.6.3.9,1-.3.4.2,2.5,9.5-.2.4-1,.4.3.9Zm-25.5,4.6,8.3-.8-.3-3.4-1,.1-.2,2-.2.3-3.5.4-.4-4.9,2-.2.3.3.2,1.3h1l-.4-4.4h-1V373l-.2.4-2,.1-.4-4.4,3.1-.3.2.2.4,1.7,1.1-.1-.2-3-7.8.8v.9h1l.3.3.7,9.9-.1.3-1,.2v1Zm-12.4-12.3v1h1l.2.3.1,9.9-.2.3-.9.2v.8h4.4v-.9h-1l-.2-.4V375h4.4v4.6l-.2.3-.9.1v1h4.4v-1h-1l-.1-.4-.2-10,.2-.3h1v-1h-4.5v1l1,.1.2.3v4l-4.3.1-.2-4,.3-.3h.9v-1Zm-9.4-.3v3.3h1l.3-2,.2-.3h1.9v10.2l-.3.4h-1v1H476V380l-1-.1-.3-.4.1-10h1.8l.3.2.3,2h1v-3.3ZM455,378.9l8,.4.2-3.3h-1l-.3,1.9-.2.2-3.5-.1.2-5,1.9.2.2.3.2,1.4h.8l.2-4.3h-.9l-.2,1.2-.2.3h-2l.2-4.6,3,.2.2.2.1,1.7H463v-2.9l-7.5-.4v.9l1,.2.1.3-.4,9.9-.2.3h-1v1Zm-18.6-5.4,4.4,1.6.2-.8-1-.5v-.4l2.5-9.5.3-.2,1,.3.2-.8-4.3-1.7-.2.9.9.4.2.4-2.7,9.4-.2.3-1-.3Zm-7.6-3.3a8.27,8.27,0,0,0,2.6,1.6c2.4.8,4.3-.2,4.8-2.2a4,4,0,0,0-.5-3.2l-1.8-2a3,3,0,0,1-.6-2.5,1.57,1.57,0,0,1,2.2-1,2.55,2.55,0,0,1,1,.7v.3l-.2,2,1,.3.8-2.8a7.92,7.92,0,0,0-2.5-1.7,3.22,3.22,0,0,0-4.4,2.2,3.79,3.79,0,0,0,.4,2.8,5.5,5.5,0,0,0,1.5,2,3.27,3.27,0,0,1,1,2.9,1.62,1.62,0,0,1-2.4,1,4.13,4.13,0,0,1-1.2-.8l-.1-.3.4-2.2-1.1-.4Zm-9.8-4.6,7.4,4,1.2-3-1-.5-.9,1.7-.3.1-3.1-1.8,1.8-4.3,1.8,1v.3l-.3,1.3.8.5,1.6-4-.8-.4-.7,1.1-.3.2-1.7-1,1.6-4,2.7,1.5.1.3-.4,1.6,1,.5,1-2.6-6.8-3.9-.4.8.8.6.1.4-3.6,9h-.3l-.9-.3Zm-1.1-15-3.7-2.9-.5.8.7.7.1.4-4.6,8.2-.4.1-.7-.5-.5.8,3.6,2.8a5.51,5.51,0,0,0,3.6,1.4,5.37,5.37,0,0,0,4-3C421.3,356,420.8,352.8,417.9,350.6Zm-1.6,0,.8.6c2,1.5,2.2,3.7.5,6.6s-3.5,3.6-5.4,2l-.8-.4,5-8.7Zm29.3,13-.1.8.9.3.1.4-1.7,9.7-.3.2h-1v.8l4.1,1,.2-.8-1-.4-.1-.3.7-4.1h.3c1.5.4,1.8,1.3,1.8,3.2a4.91,4.91,0,0,0,.8,2.7,2,2,0,0,0,1.4.9,8.45,8.45,0,0,0,1.5.2l.1-.8h-.1c-1-.3-1.5-.7-1.5-1.8a15.44,15.44,0,0,0-.4-3,2.78,2.78,0,0,0-1.3-1.4,2.79,2.79,0,0,0,3-2.5c.4-2-.5-3.5-2.9-4l-4.4-1.1Zm3,1.7.6.2a2.24,2.24,0,0,1,1.7,2.9c-.3,1.7-1.2,2.3-2.8,1.8l-.5-.1.9-4.8Zm54.2,1,.1,1h1l.3.2,1.4,9.8-.2.3-1,.3.2.8,4.5-.8v-1l-1.1.2-.3-.3-.6-4h.3c1.6-.5,2.2.2,3,1.9a3.54,3.54,0,0,0,1.5,2.2,2.46,2.46,0,0,0,1.8.3,10.21,10.21,0,0,0,1.6-.5l-.1-.9H515a1.66,1.66,0,0,1-2.2-.9,11.88,11.88,0,0,0-1.3-2.5,2.2,2.2,0,0,0-1.8-.8,3.42,3.42,0,0,0,2.3-3.7c-.3-2-1.7-3-4.2-2.5Zm3.5.5h.7a2,2,0,0,1,2.8,1.8,2.48,2.48,0,0,1-2.2,3H507l-.8-4.8Z"/><path id="path2967" d="M401.5,378.8l-7.8-15.1,3.9-3.2c1,3.8,5.5,5.1,6.3,10,.7,4.7-3,9.4-2.4,8.3Z" stroke="#000" stroke-width="1.2" fill-rule="evenodd" fill="url(#Dégradé_sans_nom_9)"/><path id="path2969" d="M394.3,374.5s-1.4-6.8,3-7.6,6.8,3.8,6.2,2c-.7-2-3.3-4-3.7-10.7a45.59,45.59,0,0,1,.3-10.3s-1.7-8.7-8.8-7.5-7.5,7.6-7.5,9.9a7.94,7.94,0,0,0,.7,3.5Z" stroke="#000" stroke-width="1.2" fill-rule="evenodd" fill="url(#Dégradé_sans_nom_10)"/><path id="path2971" d="M480.5,356.1s-82-27-81.4-129.4l.6-135.6H561l.6,134.8c.5,102.4-81.4,130.1-81.4,130.1Z" fill="#0072c4" stroke="#fff" stroke-width="3.9" fill-rule="evenodd"/><g id="g2985"><path id="path2973" d="M410.26,123.61a25.64,25.64,0,0,0,2.05-2c1.25-.83,2.42-1.73,3.67-2.47,1-.58,2.93-1.07,3.73-1.56a9.45,9.45,0,0,0,3.08-2.8,50.16,50.16,0,0,0,.37-5.1,27.44,27.44,0,0,1,3.66-2c1.69-.57,2.05-1.31,3.74-1.64a14.51,14.51,0,0,1,4.4-.41c1.68,0,2.71,1.4,4.25,1.64a12.32,12.32,0,0,1,4.1,2.8,7.41,7.41,0,0,0,2.64,3,14.19,14.19,0,0,0,3.37,2,13.25,13.25,0,0,1,3.73,2.79c1,.82,1.47,2,2.35,2.8a27.69,27.69,0,0,0,3.44,2.8,6.89,6.89,0,0,0,5.21,1.64,21.66,21.66,0,0,1,4,0,15.08,15.08,0,0,1,4.76.49,41.72,41.72,0,0,1,4.76.42,29.05,29.05,0,0,0,4.69.32,14.86,14.86,0,0,0,4.77.42h9.52a20.11,20.11,0,0,1,4.69.41,34.48,34.48,0,0,0,4.76-.41c1.84,0,3.23-.33,5.06-.42h5.72c1.46.5,3.37.83,4.39,1.65,1.39.41,2,1.15,3.37,1.56a9.69,9.69,0,0,1,3.45,2.8,20.45,20.45,0,0,1,2.71,4.36,37,37,0,0,1,2,5.18,22.6,22.6,0,0,1,.73,5.51,27.45,27.45,0,0,1,.29,5.6,45.38,45.38,0,0,1-1,5.51,26,26,0,0,1-.66,5.18,27.52,27.52,0,0,0-.74,4.77V174c0,1.81-.44,3.13-.58,5.1a60.31,60.31,0,0,0-2.42,6,11.64,11.64,0,0,0-2.71,3.12c-.73.5-1.1,1.32-1,1.65,1.31.49,1,1.56,1,3.54.22,1.56.36,3.45.73,5.18a12.07,12.07,0,0,0,.95,4.36c.59.82.74.41-.66.41-1,.82-2,.41-2.34-1.24a10.55,10.55,0,0,1-1.39-4.35,16.12,16.12,0,0,0-1-4.78c-.22-2.22-.73-2.22-2.71-2.38-1-.91-2.2-1.15-4.1-1.15s-2-.25-2,2v5.59c-.37,1.65-1,2.88-1.39,4.36-1,.83-1.47,2.23-2.71,3.13-.59,1.81-1.39,2.14-3,2.47l-2-2.8c.95-1.81,1.76-2.06,2.35-4,.73-1.56,1.17-2.55,1.68-3.95a18.12,18.12,0,0,1-2-3.53,23.68,23.68,0,0,1-1.68-4.36c-1.17-.5-2.93-.58-3.74-1.24-1.68-.41-2.12,1.65-4.1,1.65h-4.69c-2.13,0-2.64,1.23-4.4,1.15-.51.16-1.83-.08-3.74,0a13.21,13.21,0,0,1-4.76.41,17.14,17.14,0,0,1-4.4-.82,22.23,22.23,0,0,0-4.68-1.15c-2,0-2.79.16-4.11,1.15-1,.74-2.56,2.3-3.66,3.21-.52,1.31-.73,3.53-1.47,5.1-.29,1.64-.88,2.55-1.24,4a16.65,16.65,0,0,0-1,4.77c-.15,2.63-.66,2.3-2.05,1.56-.59-1.15-1.47-2.3-2-3.62a28.48,28.48,0,0,0,.73-5.1c-.37-1.64-1.1-1.48-2-.41,0,2.06,0,3.7-.73,4.77a5,5,0,0,1-2,3.13,5,5,0,0,1-2.71,2.79c-.15,0,0-.49,0-1.64-.81-1.73,0-3.29,0-5.51a16.82,16.82,0,0,1,.36-5.1,23.48,23.48,0,0,0-1-5.19c-.66-1.48-1-2.22-2.71-2.79-1.25-.58-2.94-1.24-3.74-2.47a7.22,7.22,0,0,0-3.08-2.71,15.93,15.93,0,0,1-3.37-2c-1-1.32-1.91-1.81-2.34-3.54-.74-1.23-.81-3.53-1.32-5.18a19.81,19.81,0,0,0-1-4.77,22,22,0,0,0-1-4.77c-.22-1.64-.58-3.29-1-5.18a26.77,26.77,0,0,0-.37-5.51v-5.6a45.5,45.5,0,0,0-.66-5.18,12.86,12.86,0,0,0-.73-4.77c-.73-1.4-.73-2-2-2.38a5.58,5.58,0,0,1-4,2,25.34,25.34,0,0,1-4.4-1.23,11.14,11.14,0,0,1-3.37-1.65,34.22,34.22,0,0,0-2-3.12c-.22-2.06-.58-3.13-.73-5.19,0-1.48.07-.65,1.47-2.71Z" fill="#bcbcbc" fill-rule="evenodd"/><path id="path2975" d="M430.27,137.92l.29-.33c-.59.66-.37.33.95-.24a18.54,18.54,0,0,0,2.64-2,10.77,10.77,0,0,0,2.2-1.4,11.57,11.57,0,0,1,2.12-2.22,15.71,15.71,0,0,1,2.86-2c1.32-.17,1.83-.82,3.08-.33a2,2,0,0,0,2.64-.82,5.73,5.73,0,0,0,2.41-2.47v-1.73c0,1.81-.36,2.47-1.46,3a25.43,25.43,0,0,0-2.2,3.12c-.73,1.24-.88,1.89-1.61,2.47-.66.9-1.69,1.4-1.91,2.88.3.66,0,1,.74,1.07.66.66,1.39.41,2.34,0a12,12,0,0,0,1.91-3.29,25.36,25.36,0,0,0,1.68-2.88,3.79,3.79,0,0,0,1.69-2.22,17,17,0,0,0,2.41-2,5.65,5.65,0,0,1,2.13-1.15,5.37,5.37,0,0,1-.73,3.13,5.21,5.21,0,0,0,.29,3.29c.66.57.51,1,.95,2.05a21.67,21.67,0,0,0,.74-3.94v-.25a13.49,13.49,0,0,1-.3,3.62,10.32,10.32,0,0,0,.74,3.62,4.09,4.09,0,0,0,1.17,1.4c0-1.65.44-2.64.51-4.12.29,1.07.22,2.64.44,3.87a9.71,9.71,0,0,0,.95,3.37c.59.33.74,1.48,1,.58a59.16,59.16,0,0,0,1-6.17,11.21,11.21,0,0,1,.51-3.37l-.51,3.29a11.51,11.51,0,0,1,.51-3.29v-.33a34.16,34.16,0,0,1,.51,4.52,14.92,14.92,0,0,0,.22,3.62,4.89,4.89,0,0,0,1.69-2.47,14.7,14.7,0,0,1,1.9-3.12l-1.9,3a15.25,15.25,0,0,1,1.9-3v-.25a38.28,38.28,0,0,0-.22,3.87,18.75,18.75,0,0,0,.22,3.7,16.37,16.37,0,0,1,.74,3.29c0,.82-.15,1.64.22,2.05,1,.25,1-.41,1.17-2,0-1.81.44-3,.51-4.77,0-2.14.22.25.44,1.07a11.59,11.59,0,0,1,.73,3.7,3.91,3.91,0,0,0,.22,2c1-.49,1.32-1.64,1.91-2.3a26.69,26.69,0,0,1,1.47-2.8c1.24-.24,1.17-.82,1.17-2.46a13.55,13.55,0,0,1,.29-4,35.83,35.83,0,0,0,.95-3.7c.44-.25.88.49,1.18,1.15a7.87,7.87,0,0,1,.44,3.62,18.4,18.4,0,0,0,1.24,3.37,12.57,12.57,0,0,0,1.69,2.8,19.06,19.06,0,0,1,.22,3.7c1-1.24,1.1-3,1.17-4.77a35.33,35.33,0,0,0-.44-4,14.5,14.5,0,0,0-.51-3.37c-.74-.41-1-.83-.22-2,.73-.74,1.61-.41,2.85-.24.66.74.88,1.15,1,2.79a7.8,7.8,0,0,0,.51,3.62,8.43,8.43,0,0,1,1.17,2.8c.37.41.66,1,1.17.33.3-.82.52-2.47.74-3.37a2.87,2.87,0,0,1,1.17-2,8,8,0,0,0,.51,3.62c.44,1.23.74,1.73,1.17,3.13.52.41.59,1.23,1.25,1.64a39.56,39.56,0,0,0,.22-4.44v-3.95a10.13,10.13,0,0,1,.73-3.12,4.35,4.35,0,0,1,.74,3.12c.73-.33.88-1,1.17-2,.51-.58.73-.83.95.57a40,40,0,0,0,.73,4.2,19.87,19.87,0,0,0,1.62,2.79,13.07,13.07,0,0,0,1.46,2.31c.37.82.44,1.4,1.47,1.64a34.43,34.43,0,0,0-.3-5.59,27.39,27.39,0,0,0-.44-3.7,5.46,5.46,0,0,1-.51-2.8,9.09,9.09,0,0,1,2.2,3.37c.51,1.4,1,2.31,1.46,3.71a16,16,0,0,1,1.84,2.79c.88.82,1.32,1.73,2.19,2.47.44.49,1.47.82,1.69.58a16.77,16.77,0,0,0-.73-4.45,8.24,8.24,0,0,0-.74-3.37,7.68,7.68,0,0,1-2.19-2.8,2.25,2.25,0,0,1-.44-1.39,20.85,20.85,0,0,1,3.37,3.86,5.48,5.48,0,0,0,1.9,2,5.75,5.75,0,0,0,2.86,1.64,4.1,4.1,0,0,0,2.42,1.73L514,142.69a4,4,0,0,0,2.42,1.65v.33a11.62,11.62,0,0,0-1.47-4.53,7.09,7.09,0,0,0-2.2-3.12,7.12,7.12,0,0,0-2.34-2.47,29.54,29.54,0,0,0-2.2-2.8c1.1-.82,2.27.5,3.37,1.07.95,1.15,1.83,2.64,2.42,3.38a15,15,0,0,0,2.2,3.7,13.33,13.33,0,0,1,2.56,2.22c1.47.41.88-.17.52-1.4-.52-1.65,0-1.65,1-.58a17.14,17.14,0,0,0,2.42,2c.36.57,1,1,1.61.57.29-.41.29-.41.29-.82-.51-1.81-1-3.12-2.2-3.7a22.07,22.07,0,0,0-2.19-2.47c-.44-.82-1-1.31-1.4-2.3l1.47,2.22a15.54,15.54,0,0,1-1.47-2.22h-.22a5,5,0,0,1,3.08,1.15,5.15,5.15,0,0,1,2.2,2c.44.66,1.17,1.4,1.68,2.23l2.35,2a5.17,5.17,0,0,1,1,3.62,10.28,10.28,0,0,1,.73,3.37c-.14,1.56-.65.33-.73-.57-.14-1.24-.58-1.16-1.46-.83a6.9,6.9,0,0,0,.73,3.38,7.08,7.08,0,0,1-.88,2.79c-.59.41-.73-.82-1.25-1.4,0-1.64-.44-1.89-1.46-2.79v1.15a8.59,8.59,0,0,1,1.24,3.86,11.07,11.07,0,0,1,.52,3.71A16.77,16.77,0,0,1,526,161c0,1.49-.22,2.14-.22,3.62v7.9a23.08,23.08,0,0,0-.22,3.62l.22-3.62a17.86,17.86,0,0,0-.22,3.62v.25a39.3,39.3,0,0,1-1.24-4.12,8.47,8.47,0,0,1-1.61-2.88c-.22-1.23-.3-2.63-.52-3.61s-.73-2.06-1.46-1.4a10.05,10.05,0,0,0,.73,5.26c.37,1.32.37,2.47.73,3.7.59,1.48,1,1.65,0,3.29a7,7,0,0,0-.95,2.31,1.88,1.88,0,0,0-1.17,2c-.29-1.07-1-2.39-1.47-3.62a40.33,40.33,0,0,1-1.17-4,28.11,28.11,0,0,0-1.9-3.12,26.06,26.06,0,0,1-1.91-3.29c-1-1.24-1.17-2-2-2.55-.14-.58-.44-1.32-1-.83a16.67,16.67,0,0,0,.29,3.87c.22,1.65.66,2.55.74,4.2v3.12c-.59-1.64-1.25-3-1.69-4.52-.59-.83-1.1-2.47-1.68-3a13.4,13.4,0,0,0-1.25-2.79c-.07-.83-.44-.83-.73-1.4,0,1.56.51,2.14.73,3.29a7.1,7.1,0,0,1,.51,3.45c-.58-2-1.17-4.11-1.9-5.92a25.15,25.15,0,0,1-1.91-3.7c-.73-.91-1.46-1-2.2-1.65a4.39,4.39,0,0,1-1.68-1.39c.22,1.48.73,2.46.95,3.62.22,1.39.73,2.55.95,3.7-.22,1.89-.58-.58-.95-1.4a9.27,9.27,0,0,0-1.17-3.37c-.66-.58-1.25-1.48-1.91-2-.73-.33-.44,0-.44,1.07a10.28,10.28,0,0,0,.44,3.95,6.33,6.33,0,0,1,.52,3.37c-.08,1.4-.3,2.47-.3,3.95v2.22a23,23,0,0,1-1.46-3.37,29.31,29.31,0,0,1-1.61-3.62c-.52-.25-1.47-.49-1.91,0,.07,1.4.66,2,.73,3.62-1,1.07-.8,1.4-1.46-.25-.52-1.31-1.17-1.23-1.91-2-1.24-.17-.8-1.07-1.17-2.31a10.31,10.31,0,0,0-.29-3c-1.32,0-2.05,0-2.86.82a7.84,7.84,0,0,0,0,3.71v3.86c-.29,1-.73,1.07-.95,2.3-.44,1.16-.59,2.47-1,3.29-.88.91-.51,1-.95-.49v-9.05c0-1.48.22-2.22.22-3.62-.51-1.15-.58-1.39-2.2-1.39a6.11,6.11,0,0,0,0,2.79,24.9,24.9,0,0,0,.3,3.7c0,1.48.14,2.39.22,3.62a4.61,4.61,0,0,1-1,3.29c-.8.33-.07,1-.95,1.24a10.93,10.93,0,0,1-2.64-2,8.08,8.08,0,0,0-3.07-.57c-1.62,0-1.62-.25-2.2-1.65a28.83,28.83,0,0,1-1-4.52,27.75,27.75,0,0,1-.95-3.7,5,5,0,0,0-1.46-2,24.72,24.72,0,0,0-.66,4.28,19.68,19.68,0,0,0-.52,3,20.15,20.15,0,0,1-.95-3.62c-.44-1.64-.8-2.79-2.34-2.22-1.62,0-1.69,0-1.69,2l1.91,3.29v3.95c0,1.64.07,2.13-1,2.46a14.16,14.16,0,0,0-2.19-4.69c-.08-1.15-.37-.82-1.4-.82-.66,0-1.32-.16-1.68.25v2.47c-.59.16-.74,0-1.17-.5-.44.83-.15,2,0,3a10.19,10.19,0,0,1-1.18,3.12c-.14-.41-.36-.24,0-.24A46.74,46.74,0,0,0,451.3,175c-.74,0-1.4.91-1.84,1.65a8.16,8.16,0,0,1-3.15.82c-1.32,0-1.9.24-3.07.24a12,12,0,0,1-3.15.33c-.59-.24-1.76-.24-2.13-.57a10.19,10.19,0,0,0,1.47-2.47,16.22,16.22,0,0,0,1.9-2.06,25.78,25.78,0,0,0,1.91-2.22,3.18,3.18,0,0,1,1.68-2.22c1.47,0,1.69.58,3.08.82,1.39.58,2.2.83,2.93-.32,1.1-.5,2.05-1.4,3.3-1.65l2.42-1.64a23.23,23.23,0,0,0,2.34-2.31c.29-1.15,1-2,.73-3.29-1.32-.41-2.12-.33-2.93.5a13.37,13.37,0,0,1-2.34,2.22c-1,.33-1.47.82-2.64,1.15a8.77,8.77,0,0,1-3.3.24,7.39,7.39,0,0,0-3.15.33,13.3,13.3,0,0,1,3.37-2,3.81,3.81,0,0,1,2.64-1.15c.59-.82,1.17-.82,1.47-2.22.36-1.65-1-1.15-2-.58a15.83,15.83,0,0,0-2.86,1.4,9.6,9.6,0,0,1-3.08.58c-.29-.5.22-.91.44-1.65,1.1-.49,1.32-.66,1.47-2-1.32.16-1.76.65-2.93.82a17.81,17.81,0,0,1-3.81.57h-3.3c-1.17,0-1.83-.32-3.15-.32-1-.58-1-.83-1-2.47.74-1,1.47-.82,2.94-.82l2.56-1.49c.88-.16,1.47-.57,1.25-1.06h-3.38c-1.31-.66,0-.91.74-1.4a6.07,6.07,0,0,1,3.08.49c1.46,0,2-.58,3.07-1.64a17.42,17.42,0,0,1,2.42-2,17,17,0,0,0,1.91-2.22,13.24,13.24,0,0,0,2.19-2.55c.59-.41,1-.82.74-1.4a5.06,5.06,0,0,0-3.15,1.65,7.43,7.43,0,0,1-1.91,1.64,5.59,5.59,0,0,1-3.15,1.24c-1.17,0-2.2-.25-3.3-.33-1.32-.17-.14-.5.22-1.15a1.44,1.44,0,0,0,.44-1.9,8.74,8.74,0,0,0-3.3-.33h-3.37a4.43,4.43,0,0,1-2.63-.82c-.22-.82,0-.57.95-.57a12.15,12.15,0,0,0,3.15-.58c1.1-.33,1.25-.82,1.47-2.22a11.74,11.74,0,0,1-3.16-.25Zm-20.67-6.41c-.22-2.06-.66-3.13-.73-5.19,0-1.48.07-.65,1.39-2.71a25.64,25.64,0,0,0,2.05-2c1.25-.83,2.42-1.73,3.67-2.47.95-.58,2.93-1.07,3.73-1.56a9.45,9.45,0,0,0,3.08-2.8c.08-1.73.3-3,.3-5.1a33,33,0,0,1,3.73-2c1.69-.57,2.05-1.31,3.74-1.64a14.51,14.51,0,0,1,4.4-.41c1.68,0,2.71,1.4,4.25,1.64a11.38,11.38,0,0,1,4,2.8,8.19,8.19,0,0,0,2.71,3,14.19,14.19,0,0,0,3.37,2c0,1.48.29,1.23-.59,1.23-.14,1.48-.44,1.32-1.68,1.4a6.19,6.19,0,0,1-2.2-2.31c.51-1.39.22,1.24,0,1.73-.59.58-1,1.15-1.61.58a11.37,11.37,0,0,1-.74-4c-.22-1.73-.66-.49-.95.25a4.06,4.06,0,0,0,.22,3.12,15.27,15.27,0,0,1-3.08-.33,4.44,4.44,0,0,0-2.93.58c-1.24.9-.8.9-.22,2a20.15,20.15,0,0,1,2.93,1.65,30,30,0,0,0,3.3-.82,6.53,6.53,0,0,1,3.37,0c.59.41,1.32.41,1.69.82a5.11,5.11,0,0,1-.3,2.3c-.44.41-.95,1.4-1.68,1.65a11.49,11.49,0,0,1-3.3,1.48,5.12,5.12,0,0,0-3.15,1.07,2.18,2.18,0,0,1-1.69,2.3,6.83,6.83,0,0,1-3.29.82c-.74,0-1.4.08-1.69-.33a10.88,10.88,0,0,0,1.91-3.29c.22-.66.66-1,.22-1.48-1.4.08-1.76.08-1.91,1.65a2.26,2.26,0,0,1-1.68,2.3,35.5,35.5,0,0,1,.73-3.62,16.77,16.77,0,0,1-3.08.25c-.73.49-1,.74-.73,1.64a6.62,6.62,0,0,1-3.37,0c-1,0-.44-.49-1.17-1.07a2.13,2.13,0,0,0-2.2-1.39c-.52.82-1.47,1.06-2.13,1.64-1,.41-1.68.08-2.64-.49-1.17,0-1,.41-.73,1.4.51.32,0,.74.73.82a3.3,3.3,0,0,0,2.64.82,11.27,11.27,0,0,1,3.37-.25c1.18,0,1,.33,1,1.65-.74.66-1.91.57-3.16.57a10.78,10.78,0,0,1-2.85-.82,6.71,6.71,0,0,0-2.86,0c-.37.5-1.47.66-.22.82.51.58,3.3.25,3.44,1.24.74.82.52,1.89-.58,1.89a1.46,1.46,0,0,0-1.69,0c-.73.16-1.76,0-3.15.16,1.83.17-1.32-2.22-2-3.2Z" fill="#fefefe" fill-rule="evenodd"/><path id="path2977" d="M417.15,122.21l-1.47,1.07a28.84,28.84,0,0,0-2.85,2.22c-.52.5-.52.82-1.18.82a6.65,6.65,0,0,0,2.64-1.06,5.5,5.5,0,0,0,3.08-1.16c.66-.24,0-1.31-.22-2Zm11-13.24c.15,0,.44.82.95,1.4a8.32,8.32,0,0,1,.74,3.12c.29-1.4.73-2.46.95-3.95-.37-.82-.37-1.06-1.47-1.15,0,.83.15.25-1.17.58Z" fill="#bcbcbc" fill-rule="evenodd"/><path id="path2979" d="M421.48,118.89c-.54,0,.87-.64,1.41-.76a5.1,5.1,0,0,1,1.41-2.28,2.53,2.53,0,0,1,2.39,1.39c1.08.38,1.41.89,2.6,1.14.54.51,1.08.51,0,.89a5.84,5.84,0,0,1-2.82.5,7,7,0,0,0-2.82.89c-1.63,0-1.41,0-2.17-1.77Z" fill="#c4c4c2" stroke="#000" stroke-width="0.9" fill-rule="evenodd"/><path id="path2981" d="M432.46,109.22v.32c0-.82,0-.41.22,1.16a8.12,8.12,0,0,1,.52,3.29,5.61,5.61,0,0,0,1.46-2.47C434.66,109.3,434.3,109.38,432.46,109.22Zm8.8,32.32h.29c-.73,0-.29,0,.95-.82.81-.66,1.47-1.65,2.64-2a9.39,9.39,0,0,1,3.08-2c.58-.33,1.1-.82,1.68-.25-.14,1.32-.36,1.9-1.46,2.47a4.34,4.34,0,0,1-2.13,1.65c-.73.49-1.61.49-1.9,1.48-1.32.66-1.47.49-3.08-.58Zm4.61,8.15c.37-.42,1.91-2.14,2.64-2.8a11.82,11.82,0,0,1,2.35-2.8c.73-1.23,1.61-2.05,2.19-3.12l1.91-2.8c0,1.23-.15,2.88.22,3.62a6.39,6.39,0,0,1-.73,3.37,4.6,4.6,0,0,1-2.2,2.3,14.45,14.45,0,0,0-2.57,1.65,18,18,0,0,1-2.19,1.4c-.66.33-.37.24-1.62-.82Zm-7.47,6.41h.29c-.73,0-.36.08,1-.82a8.09,8.09,0,0,1,3.07-2.22,6.89,6.89,0,0,0,2.93-.82c.52-.17,1-.58,1.4,0,.73,1.15.95,1.48-.22,2.22a6.7,6.7,0,0,1-2.42,1.39c-.59.58-1.76.58-2.93.83-.88,0-1.47.16-1.83-.58l1.9.58a5.65,5.65,0,0,1-3.15-.58Zm10.26,0v-.25c0,.83,0,.42.51-1.15.95-1.56,1.25-2.46,2.42-2.79.51-.83,1.46-1,2.64-1.4.44.82.07,1.81,0,2.79a8.78,8.78,0,0,1-1.69,2.55c-.73.58-1,1.16-2.2,1.4-.88,0-.36,0-1.61-1.15Z" fill="#bcbcbc" fill-rule="evenodd"/><path id="path2983" d="M425.28,119.66a1.22,1.22,0,1,1-2.41,0,1.37,1.37,0,0,1,1.24-1.4A1.26,1.26,0,0,1,425.28,119.66Z" fill-rule="evenodd"/></g><g id="g2991"><path id="path2987" d="M428.85,196.15h1c-3,0-1.19-.26,3.8,4.43,2.17-2,2.17-2.28,3.79,1.27,1.09,1.9,1.31-.26,2.93-2.28.76,4.05,1.2,8.23,3.8,4.43,3,0,6.07-.25,7.7,1.14,2,4.18,1.3-.76,2.82,1.14,4.34.51,4.23-4.31,8.78-5.57,2.82,4.18,4.12,1,7.59-1,2.72.76,5.21,5.45,5.75.89,2.17-4.05,2.28-3.8,3.8,0,2.17,2.28,3-1,4.77-2.15,3.25,2.15,6.83,2.53,11.49,1.14.87,3.67,2.82,2,4.88,1,4.23,2.15,5.64,2.79,10.52,0,2.39-3.29,1.09.13,2.82,2.28,3.58-1.27,2.61-1.52,6.73-1.14,4.23,0,4.55,0,5.75-3.29,2.16,2.4,2.82,4.18,5.74,1.14,4.56,0,3.15.63,5.75-1.27,2.06,5.07,2.5,1.52,4.88,3.42a17.75,17.75,0,0,1-6.72,8.87c-1.85,3.8-3,7.6-6.73,9.12-2.71,3.17-5.64,5.07-8.67,7.85-4.12,1.27-8.68,1-13.34,1H468.11c-2.82,1.77-7.6,2.53-11.5,3.42-4.34,0-9.43,0-12.47-1.14-2.06-2.41-5.64-5.07-7.59-7.86-2.17-1.9-2.17-5.57-3.91-7.85-1.52-3.17-2.17-8.24-3.79-11.15Z" fill="#005120" stroke="#002b0d" fill-rule="evenodd"/><path id="path2989" d="M521.79,206.28v1c0-3,.11-1.39-1.95,4.56-.33,1.4-1.31,1.78-2.82,2.28m-3.8-3.42h1c-3.58,3.8-6,5.7-6.73,10.14l6.73-10.14c-3.58,3.8-6,5.7-6.73,10.14m-7.7-15.71s-.11,3.93-1,5.57M496,213v0Zm-7.7-6.71h0Zm-53.68,0c.43,0,2.38,3.55,4.77,5.57-.55,3.3-1.52,7.1,0,10.14m2.93-9c.43,0,2.27,3.55,4.77,5.58L442.3,213c.43,0,2.27,3.55,4.77,5.58v1.14c0-3.55-.22-7.1,1-9,1.09,2.16,2.39,5.45,2.82,2.28,5.42-.25,8-2,11.5-3.42,0,1.65-.22.89,1.08,2.28m65.07-4.56h1c-1.85,1.78-3.26,5.45-4.77,7.86M489.25,204h7.59" fill="#005120" stroke="#002b0d" fill-rule="evenodd"/></g><path id="path2993" d="M425.9,214.3c-11.5,0-15.4,13.5-26.9,13.5h-.6v.8a178.75,178.75,0,0,0,1.8,26.2c10.6-.8,14.5-13.4,25.7-13.4,11.5,0,15.3,13.4,26.8,13.4s15.4-13.4,26.9-13.4,15.4,13.4,26.9,13.4,15.3-13.4,26.8-13.4c11,0,15,12.5,25.6,13.4a175.32,175.32,0,0,0,1.9-27h-.7c-11.5,0-15.3-13.4-26.8-13.4s-15.4,13.5-26.8,13.5-15.4-13.5-27-13.5c-11.4,0-15.3,13.5-26.8,13.5s-15.3-13.5-26.8-13.5Zm0,52.7c-9,0-13.2,8.2-20.2,11.8a132.24,132.24,0,0,0,8.6,20.5c3.3-2.8,6.7-5.2,11.6-5.2,11.5,0,15.3,13.5,26.8,13.5s15.4-13.5,26.9-13.5,15.4,13.5,26.8,13.5,15.4-13.5,26.9-13.5a17.2,17.2,0,0,1,11.3,5,133.08,133.08,0,0,0,8.6-20.4c-6.7-3.7-11-11.7-20-11.7-11.4,0-15.3,13.5-26.8,13.5S491,267,479.6,267s-15.4,13.5-26.9,13.5S437.4,267,425.9,267Zm53.7,52.7c-11.5,0-15.4,13.5-26.9,13.5-10.9,0-14.9-12-25-13.4a132,132,0,0,0,39.3,33c3.6-3.2,7.3,3.6,12.5,3.6s9-6.9,12.5-3.8a131.43,131.43,0,0,0,39-32.7c-9.8,1.7-14,13.3-24.6,13.3C494.9,333.2,491.1,319.7,479.6,319.7Z" fill="#fff" fill-rule="evenodd"/><g id="g3070"><path id="path2995" d="M408.26,268.28a103.47,103.47,0,0,1,11.35-3.79l17.62,19.81-14.49,3.41Z" fill="none" stroke="#512007" stroke-width="0.5"/><path id="path2997" d="M443,300.61c.28-4.6,8.07-31,8.07-31m-5.41,31.3,6.14-31.1m-4,31.2,5.13-31.2m-9.62,27a38.71,38.71,0,0,1,5.31-2m-3.39-2.6a14.49,14.49,0,0,0,3.94-1.2m-3.21-2.3a20.59,20.59,0,0,1,4-1.2m-3.49-3.2,4.31-.8m-2.38-3c0,.3,2.93.3,2.93.3m-2.2-3.7,2.94.5" fill="none" stroke="#512007" stroke-width="0.6"/><path id="path2999" d="M493.32,319.85c-.32-7.85-9.51-53-9.51-53m6.38,51.42-7.25-51.25m4,47.32c-.21-2.91-5.29-47.15-5.29-47.15M493,313.36a39,39,0,0,0-6.27-3.41m4-4.45c-1.52,0-4.65-2.05-4.65-2.05m3.78-3.92a18.61,18.61,0,0,0-4.75-2m4.1-5.47-5.08-1.37m2.81-5.12c0,.51-3.46.51-3.46.51m2.6-6.32-3.46.85" fill="none" stroke="#512007" stroke-width="0.4"/><path id="path3001" d="M520,303.68c-.33-5.8-9.51-39.11-9.51-39.11m6.37,38-7.24-37.86m4,35c-.21-2.15-5.29-34.83-5.29-34.83m11.34,34.07a44.19,44.19,0,0,0-6.26-2.53m4-3.28c-1.51,0-4.64-1.51-4.64-1.51m3.78-2.9a23.14,23.14,0,0,0-4.76-1.52m4.11-4-5.08-1m2.81-3.79c0,.38-3.46.38-3.46.38m2.6-4.67-3.46.63" fill="none" stroke="#512007" stroke-width="0.5"/><path id="path3003" d="M476.14,307.14l1-92.11s2.81-.38,2.81,0-.33,91.73-.65,92.11S475.81,307.77,476.14,307.14Zm30.8-88.08-.65,77.35-2.16,3,.65-80.38Z" fill="#dd8b59" stroke="#512007" stroke-width="0.5" fill-rule="evenodd"/><path id="path3005" d="M441.23,292s3.24,37.85,39.34,36.72,46.15-38.11,46.15-38.11l-15.67-.76c-.33,0-12.54,17.67-28.32,17.29s-20.75-4.8-24.21-8.46a57.71,57.71,0,0,1-6.49-9.21L433.66,281l1.08,8.07Zm97.59-3.79-1.08-5v-4.29l1.73-4.54s-27.34,4.67-27.34,5.05L512,288l26.8.13Z" fill="#dd8b59" stroke="#512007" stroke-width="0.5" fill-rule="evenodd"/><path id="path3007" d="M533.63,278.87l-.64,7.58h4.43l-.33-7.58Zm-4.64.38-.33,8.08,2.81-.38.33-7.7Zm-4.76,8.08V281l2.81-1.14.33,6.31Zm-5.4-.38.65-5.55,3.24.38.21,5.93Zm-6,0,.33-4.79,3.24-.38v5.55ZM440,291.62c1,0,8.21,1.89,8.21,1.89l7.57,11.74" fill="none" stroke="#512007" stroke-width="0.5"/><path id="path3009" d="M445.33,293.13c.33.38,6.6,25,36.75,25s37.4-27.89,37.4-27.89" fill="none" stroke="#512007" stroke-width="0.5"/><path id="path3011" d="M524.23,291s-14.48,36.59-42.15,34.07-32-14.64-34.15-20.95-3.46-11.36-3.46-11.36" fill="none" stroke="#512007" stroke-width="0.5"/><path id="path3013" d="M452.25,289.47c.32-2.14.32-68.64.32-68.64l-1.83-.25-.33,67.76,1.84,1.26ZM407.4,267.9l23.77,13.5-.54,1.89s-22.91-12.62-22.91-13,.22-1.89-.32-2.52Z" fill="#dd8b59" stroke="#512007" stroke-width="0.5" fill-rule="evenodd"/><path id="path3015" d="M418.31,263.86c0,1,3.46,23.47,3.46,23.47s2.16.38,2.16,0l-3.67-23.09Zm22.05.63c1.19,0,22.7-4,22.7-4l-.43,4L441.55,267Z" fill="#dd8b59" stroke="#512007" stroke-width="0.5" fill-rule="evenodd"/><path id="path3017" d="M443.39,234.08c.75,0,7.56,4,10.48,3s1-3.79,1.51-3.79,2.81,1.9,4.11.38,2.16-5.8,1.62-5.42-17.29,7.31-17.62,5.8Z" fill="#fecf3e" stroke="#512007" stroke-width="0.5" fill-rule="evenodd"/><path id="path3019" d="M440.68,243.29c1.19.38,25.73-7.7,25.73-7.7s0,2.53-.33,2.53l-25.4,7.69Z" fill="#dd8b59" stroke="#512007" stroke-width="0.5" fill-rule="evenodd"/><path id="path3021" d="M497.43,231.94s1.62,4.41,3.24,3.65a12.9,12.9,0,0,0,3.13-2.27s1.3,3.79,3.46,3,3.46-4.79,3.46-4.79,2.16.75,3.14.38,2.16-6.31,2.16-6.31l-18.48,6.31Zm-1.84,35.58c-.32.76,1.62,2.52,3.24,2.52s2.16-2.52,2.49-1.76.32,4,4.32,2.9,4.11-4.42,4.11-4.42-1.19,1.14,1.62,1.52,5.62-4.8,5.4-4.8c-.43,0-20.53,4.42-21.18,4Z" fill="#fecf3e" stroke="#512007" stroke-width="0.5" fill-rule="evenodd"/><path id="path3023" d="M441.66,232.57a7.25,7.25,0,0,0,.21,3.4l20.54-8.07s.86-1.9,0-1.9-21.08,7.32-20.86,6.69Zm27-5c.54,0,21-7.7,21-7.7s.32,3.28,0,3.28l-19.13,6.56-1.95-2.14Z" fill="#dd8b59" stroke="#512007" stroke-width="0.5" fill-rule="evenodd"/><path id="path3025" d="M495.59,243.67a12.89,12.89,0,0,0-2.16,9.46c1,5.56,2.16,10.35,2.48,10.35s3.79-7.32,7.57-7.7,10.7,4,10.7,4-1-8.83-.65-12.87,5.62-11,5.62-11l-23.56,7.57Z" fill="#fecf3e" stroke="#512007" stroke-width="0.5" fill-rule="evenodd"/><path id="path3027" d="M467.06,237s-.65,3.41-.33,3.41l26.7-8.08v-2.39l-26.37,6.94Z" fill="#dd8b59" stroke="#512007" stroke-width="0.5" fill-rule="evenodd"/><path id="path3029" d="M433.12,281.4s-6.27-1-5.95.75,3.14,3.66,3.46,4.8-1,5.05,1,4.79,3.67-1.89,3.67-3l-.32-6.31Z" fill="#b6b6b4" stroke="#512007" stroke-width="0.5" fill-rule="evenodd"/><path id="path3031" d="M468,263.1v2.53L490.62,262l-.65-1.9Z" fill="#dd8b59" stroke="#512007" stroke-width="0.5" fill-rule="evenodd"/><path id="path3033" d="M441.23,267.52c.43,0,0,3.28,2.59,2.52a4.73,4.73,0,0,0,3.13-2.52s.65,4,4.11,3.66,5.4-4.8,5.4-4.8.22,3.28,2.38,2.15a6.3,6.3,0,0,0,2.81-3.66l-19.78,3.28-.54-.63Zm0-21.71s-2.81,1.14-1.84,7.7,3.24,10.35,3.46,10.35,2.81-6.31,6.59-7.32c3.78-1.26,10.38,3.28,10.38,3.28a46.08,46.08,0,0,1,.32-11.36,24.16,24.16,0,0,1,4.11-9.58s-22.05,6.93-22.92,6.93Z" fill="#fecf3e" stroke="#512007" stroke-width="0.5" fill-rule="evenodd"/><path id="path3035" d="M494.08,264.87l.32,2.27s22.7-3.28,22.7-3.79c0-.25,0-2.52-.43-2.52s-22.27,4.42-22.7,4Zm-.33-23.47.33,2.52,26.69-8.33s.65-2.27.33-2.27-26.7,9.21-27.35,8.08Z" fill="#dd8b59" stroke="#512007" stroke-width="0.5" fill-rule="evenodd"/><path id="path3037" d="M496.56,229.66s-.32,2.28,0,2.28,19.78-5.56,19.78-5.94,1.95-2.52.33-2.14-19.46,6.94-20.11,5.8Zm41.83,42.53-19.45-35.84m-2.6,24.86c.33-1,1.3-23.09,1.3-23.09" fill="none" stroke="#512007" stroke-width="0.5"/><path id="path3039" d="M469.33,228.65c1.08.26,3.35,4,4.64,3.29a16.79,16.79,0,0,0,3.14-3s-.33,4.41,2.16,3.78,2.92-3.78,2.92-3.78a3.07,3.07,0,0,0,3.46,0c1.51-1,3-6.56,2.48-6.56s-18.26,6.56-18.91,6.3Zm-.65,10.6c0,.76-3.24,6.57-2.16,12.12s2.7,10.6,3,10.6,5.08-5.81,9.19-6.94,10,3.66,9.73,3.66-1.62-5.56-1.62-9.59,4.75-16.41,4.75-16.41Zm0,26.5c0,.25.86,2.78,3.13,2.78S474.3,266,474.3,266s-.33,4.42,3.13,4,4.65-4.41,4.65-4.41.32,2.27,3.24,1.13a20.35,20.35,0,0,0,6.27-4.79c-.32,0-22.7,4.79-23,3.78Z" fill="#fecf3e" stroke="#512007" stroke-width="0.5" fill-rule="evenodd"/><g id="use3041"><path id="k" d="M471.27,251.71a1.86,1.86,0,0,1,1.62,2,1.83,1.83,0,0,1-1.74,1.9h0a1.87,1.87,0,0,1-1.61-2.05A1.82,1.82,0,0,1,471.27,251.71Z" fill="#be0f17" stroke="#512007" stroke-width="0.6" fill-rule="evenodd"/></g><g id="use3043"><path d="M482.69,248.31a1.87,1.87,0,0,1,1.61,2,1.83,1.83,0,0,1-1.74,1.91h0a1.88,1.88,0,0,1-1.6-2.06A1.82,1.82,0,0,1,482.69,248.31Z" fill="#be0f17" stroke="#512007" stroke-width="0.6" fill-rule="evenodd"/></g><g id="use3045"><path d="M477,255.3a1.86,1.86,0,0,1,1.61,2,1.81,1.81,0,0,1-1.73,1.9h0a1.86,1.86,0,0,1-1.61-2.05A1.82,1.82,0,0,1,477,255.3Z" fill="#be0f17" stroke="#512007" stroke-width="0.6" fill-rule="evenodd"/></g><path d="M477,244.62a1.86,1.86,0,0,1,1.61,2,1.82,1.82,0,0,1-1.73,1.91h0a1.87,1.87,0,0,1-1.61-2A1.83,1.83,0,0,1,477,244.62Z" fill="#be0f17" stroke="#512007" stroke-width="0.6" fill-rule="evenodd"/><path id="path3048" d="M479.27,216c0-.26,9.73,4.79,9.73,5.17s34.58,54,34.91,54m-17.3-54,8.87,4.42,2.81,8.07m-66.36-13.12c-.33,0,9.72,8.83,9.72,8.83l1.3,7.19m-45.18,37.48c4.32-2.15,34.8-33.31,34.8-33.31m-43,27.38,34.26-33.69m22.91,5,32.43,62.83m-3.89-36.84s3.78,14.76,7.56,17a92,92,0,0,1,8.22,5.81" fill="none" stroke="#512007" stroke-width="0.5"/><path id="path3050" d="M494.83,265.88s2.71,17.41,6.49,20.69,7.56,6.94,7.56,6.94" fill="none" stroke="#512007" stroke-width="0.5"/><path id="path3052" d="M468.81,265.73s3.67,24.23,11.24,29.78q6.94,5,13.83,10.22" fill="none" stroke="#512007" stroke-width="0.5"/><path id="path3054" d="M468.48,265.35s8.11,19.18,15.13,25a121.28,121.28,0,0,0,16.22,11.35M442.11,267c2.16,4.42,1.84,12.87,4.32,15.78a81.11,81.11,0,0,1,6.27,9.59m-10.05-25.11c1.3,2.14,4.76,13.12,6.92,16.4,1.62,3,17.62,21.7,17.62,21.7" fill="none" stroke="#512007" stroke-width="0.5"/><path id="path3056" d="M461.89,306.24a2.41,2.41,0,1,1-4.76,0h0a2.41,2.41,0,1,1,4.76,0Zm11.56,5.93a2.07,2.07,0,1,1-4.1,0h0a2.07,2.07,0,1,1,4.1,0Zm14.81,1.51a2.07,2.07,0,1,1-4.1,0h0a2.07,2.07,0,1,1,4.1,0ZM501.12,308a1.91,1.91,0,0,1-1.73,2.15,2,2,0,0,1-1.72-2.15c0-1.13.75-2.27,1.72-2.27S501.12,306.74,501.12,308Zm10.38-7.19a2.06,2.06,0,1,1-2.05-2A2.05,2.05,0,0,1,511.5,300.81Z" stroke="#512007" stroke-width="0.5" fill-rule="evenodd"/><path id="path3058" d="M450.54,222.07c-1,.76-16.64,5.18-14.48,4.8s14.81,3.78,14.48,2.52S450.54,222.83,450.54,222.07Zm26.7-5.42a91,91,0,0,0-9.41,4c.33,0,10.38,3.28,10.06,2.52s-.33-5.55-.65-6.56Zm27.34,3.66c-.65.38-11.35,3.28-9.4,3.66s9.08,3.28,9.08,2.52,0-5.8.32-6.31Z" fill="red" stroke="#512007" stroke-width="0.5" fill-rule="evenodd"/><path id="path3060" d="M493.23,306.11c.33-5.8,9.51-39.12,9.51-39.12m-6.37,38,7.24-37.85m-4,34.95c.22-2.14,5.3-34.82,5.3-34.82m-11.35,34.07a44.18,44.18,0,0,1,6.27-2.53m-4-3.28c1.51,0,4.65-1.51,4.65-1.51m-3.79-2.91a23.3,23.3,0,0,1,4.76-1.51m-4.11-4,5.08-1m-2.81-3.78c0,.38,3.46.38,3.46.38m-2.59-4.67,3.45.63" fill="none" stroke="#512007" stroke-width="0.5"/><path id="path3062" d="M466.43,310.34c.32-6.07,9.51-40.92,9.51-40.92m-6.38,41.32,7.25-41.06m-4.76,41.19,6.05-41.19m-11.35,35.65a42.87,42.87,0,0,1,6.27-2.64m-4-3.44c1.52,0,4.65-1.58,4.65-1.58m-3.78-3a22.27,22.27,0,0,1,4.75-1.58m-4.1-4.22,5.08-1.06m-2.81-4c0,.39,3.46.39,3.46.39m-2.6-4.88,3.46.66" fill="none" stroke="#512007" stroke-width="0.5"/><path id="path3064" d="M466.34,307.68c-.32-5.89-9.51-39.72-9.51-39.72m6.38,38.57L456,268.09m4,35.49c-.22-2.18-5.3-35.36-5.3-35.36M466,302.81a44.12,44.12,0,0,0-6.27-2.56m4-3.33c-1.51,0-4.65-1.54-4.65-1.54m3.78-2.94a22.71,22.71,0,0,0-4.75-1.54m4.11-4.1-5.08-1m2.81-3.84c0,.38-3.46.38-3.46.38m2.59-4.74-3.46.64" fill="none" stroke="#512007" stroke-width="0.5"/><path id="path3066" d="M509.75,289.85l29.83.76.32-2.52-30.8-.38Zm1.3-9.21c3.45,0,29.5-5.8,29.5-5.8s1-3.79,0-3.79-29.5,7.07-29.5,7.07Z" fill="#dd8b59" stroke="#512007" stroke-width="0.5" fill-rule="evenodd"/><g id="use3068"><path d="M477,250a1.86,1.86,0,0,1,1.61,2,1.83,1.83,0,0,1-1.73,1.91h0a1.88,1.88,0,0,1-1.61-2.06A1.82,1.82,0,0,1,477,250Z" fill="#be0f17" stroke="#512007" stroke-width="0.6" fill-rule="evenodd"/></g></g><path id="path4214" d="M0,0H320V240H0Z" fill="#012169"/><path id="path4216" d="M37.5,0l122,90.5L281,0h39V31L200,120.5l120,89V240H280L160,150.5,40.5,240H0V210l119.5-89L0,32V0Z" fill="#fff"/><path id="path4218" d="M212,140.5,320,220v20L184.5,140.5Zm-92,10,3,17.5L27,240H0ZM320,0V1.5l-124.5,94,1-22L295,0ZM0,0,119.5,88h-30L0,21Z" fill="#c8102e"/><path id="path4220" d="M120.5,0V240h80V0ZM0,80v80H320V80Z" fill="#fff"/><path id="path4222" d="M0,96.5v48H320v-48ZM136.5,0V240h48V0Z" fill="#c8102e"/></svg>