<svg id="flag-icons-gd" xmlns="http://www.w3.org/2000/svg" viewBox="0 0 640 480"><title>gd</title><path d="M0,0H640V480H0Z" fill="#ce1126"/><path d="M67.2,67.2H572.8V412.8H67.2Z" fill="#007a5e"/><path d="M67.2,67.3H572.8L67.2,412.9H572.8Z" fill="#fcd116"/><circle cx="319.9" cy="240.1" r="57.6" fill="#ce1126"/><g id="c"><g id="b"><path id="a" d="M320,187.2l-16.32,50.22,25.11,8.15" fill="#fcd116"/><path d="M320,187.2l16.32,50.22-25.11,8.15" fill="#fcd116"/></g><path d="M370.22,223.68h-52.8v26.4" fill="#fcd116"/><path d="M370.22,223.68l-42.72,31L312,233.36" fill="#fcd116"/><path d="M351,282.72,334.72,232.5l-25.11,8.16" fill="#fcd116"/><path d="M351,282.72l-42.72-31,15.52-21.36" fill="#fcd116"/><path d="M289,282.72l42.72-31-15.52-21.36" fill="#fcd116"/><path d="M289,282.72l16.32-50.22,25.11,8.16" fill="#fcd116"/><path d="M269.78,223.68l42.72,31L328,233.36" fill="#fcd116"/><path d="M269.78,223.68h52.8v26.4" fill="#fcd116"/></g><g id="d"><path d="M189.7,2.4l-9.64,29.67,14.84,4.82" fill="#fcd116"/><path d="M189.7,2.4l9.64,29.67L184.5,36.89" fill="#fcd116"/><path d="M219.37,24h-31.2v15.6" fill="#fcd116"/><path d="M219.37,24,194.13,42.3,185,29.68" fill="#fcd116"/><path d="M208,58.84,198.4,29.17,183.56,34" fill="#fcd116"/><path d="M208,58.84,182.8,40.5,192,27.88" fill="#fcd116"/><path d="M171.36,58.84,196.6,40.5l-9.17-12.62" fill="#fcd116"/><path d="M171.36,58.84,181,29.17,195.84,34" fill="#fcd116"/><path d="M160,24,185.27,42.3l9.17-12.62" fill="#fcd116"/><path d="M160,24h31.2v15.6" fill="#fcd116"/></g><path d="M320,2.4l-9.64,29.67,14.84,4.82" fill="#fcd116"/><path d="M320,2.4l9.64,29.67L314.8,36.89" fill="#fcd116"/><path d="M349.67,24h-31.2v15.6" fill="#fcd116"/><path d="M349.67,24,324.43,42.3l-9.17-12.62" fill="#fcd116"/><path d="M338.34,58.84,328.7,29.17,313.86,34" fill="#fcd116"/><path d="M338.34,58.84,313.1,40.5l9.17-12.62" fill="#fcd116"/><path d="M301.66,58.84,326.9,40.5l-9.17-12.62" fill="#fcd116"/><path d="M301.66,58.84l9.64-29.67L326.14,34" fill="#fcd116"/><path d="M290.33,24,315.57,42.3l9.17-12.62" fill="#fcd116"/><path d="M290.33,24h31.2v15.6" fill="#fcd116"/><path d="M450.3,2.4l-9.64,29.67,14.84,4.82" fill="#fcd116"/><path d="M450.3,2.4l9.64,29.67L445.1,36.89" fill="#fcd116"/><path d="M480,24h-31.2v15.6" fill="#fcd116"/><path d="M480,24,454.73,42.3l-9.17-12.62" fill="#fcd116"/><path d="M468.64,58.84,459,29.17,444.16,34" fill="#fcd116"/><path d="M468.64,58.84,443.4,40.5l9.17-12.62" fill="#fcd116"/><path d="M432,58.84,457.2,40.5,448,27.88" fill="#fcd116"/><path d="M432,58.84l9.64-29.67L456.44,34" fill="#fcd116"/><path d="M420.63,24,445.87,42.3,455,29.68" fill="#fcd116"/><path d="M420.63,24h31.2v15.6" fill="#fcd116"/><path d="M102.3,240.7a80.43,80.43,0,0,0,33.5,33.2,111,111,0,0,0-11.3-45Z" fill="#ce1126"/><path d="M90.1,194.7c10.4,21.7-27.1,73.7,35.5,85.9a63.24,63.24,0,0,1-10.9-41.9,70,70,0,0,1,32.5,30.8C163.6,210,105.2,213.7,90.1,194.7Z" fill="#fcd116"/><path d="M189.7,417l-9.64,29.67,14.84,4.82" fill="#fcd116"/><path d="M189.7,417l9.64,29.67-14.84,4.82" fill="#fcd116"/><path d="M219.37,438.56h-31.2v15.6" fill="#fcd116"/><path d="M219.37,438.56,194.13,456.9,185,444.28" fill="#fcd116"/><path d="M208,473.44l-9.64-29.67-14.84,4.82" fill="#fcd116"/><path d="M208,473.44,182.8,455.1,192,442.48" fill="#fcd116"/><path d="M171.36,473.44,196.6,455.1l-9.17-12.62" fill="#fcd116"/><path d="M171.36,473.44,181,443.77l14.84,4.82" fill="#fcd116"/><path d="M160,438.56l25.24,18.34,9.17-12.62" fill="#fcd116"/><path d="M160,438.56h31.2v15.6" fill="#fcd116"/><path d="M320,417l-9.64,29.67,14.84,4.82" fill="#fcd116"/><path d="M320,417l9.64,29.67-14.84,4.82" fill="#fcd116"/><path d="M349.67,438.56h-31.2v15.6" fill="#fcd116"/><path d="M349.67,438.56,324.43,456.9l-9.17-12.62" fill="#fcd116"/><path d="M338.34,473.44l-9.64-29.67-14.84,4.82" fill="#fcd116"/><path d="M338.34,473.44,313.1,455.1l9.17-12.62" fill="#fcd116"/><path d="M301.66,473.44,326.9,455.1l-9.17-12.62" fill="#fcd116"/><path d="M301.66,473.44l9.64-29.67,14.84,4.82" fill="#fcd116"/><path d="M290.33,438.56l25.24,18.34,9.17-12.62" fill="#fcd116"/><path d="M290.33,438.56h31.2v15.6" fill="#fcd116"/><path d="M450.3,417l-9.64,29.67,14.84,4.82" fill="#fcd116"/><path d="M450.3,417l9.64,29.67-14.84,4.82" fill="#fcd116"/><path d="M480,438.56h-31.2v15.6" fill="#fcd116"/><path d="M480,438.56,454.73,456.9l-9.17-12.62" fill="#fcd116"/><path d="M468.64,473.44,459,443.77l-14.84,4.82" fill="#fcd116"/><path d="M468.64,473.44,443.4,455.1l9.17-12.62" fill="#fcd116"/><path d="M432,473.44,457.2,455.1,448,442.48" fill="#fcd116"/><path d="M432,473.44l9.64-29.67,14.84,4.82" fill="#fcd116"/><path d="M420.63,438.56l25.24,18.34L455,444.28" fill="#fcd116"/><path d="M420.63,438.56h31.2v15.6" fill="#fcd116"/></svg>