<svg id="flag-icons-gi" xmlns="http://www.w3.org/2000/svg" viewBox="0 0 640 480"><title>gi</title><path d="M0,0H640V480H0Z" fill="#da000c"/><path d="M0,0H640V321.6H0Z" fill="#fff"/><g id="a"><path d="M208.63,218.06h120v82.5h-120Z"/><path d="M270.88,288.56H197.75l-16.31,10.69V310.5h89.44m-30.57-69.38c10.5,0,19.13,8.82,19.13,19.69v27.56h13.69v-105H197.56v105h23.63V260.81C221.19,250.31,229.63,241.12,240.31,241.12Z" fill="#da000c" stroke="#000" stroke-linecap="square"/><path d="M223.44,112.5h34.87v63.75H223.44Z"/><path d="M258.13,166.31H227.75V155.44H205.44v10.87h-15V155.44h-9.19v19.5h76.88m-67.88,0h65.63v8.43H190.25ZM216.5,89.25v66.38h11.25V137.44c0-6.75,4.69-12.38,11.44-12.75h.75a12.75,12.75,0,0,1,12.75,12.75h0v18.19h10.69V89.25Zm-4.31-9v9h54.94v-9Zm-6.94-17.06V80.25h65.63V63.19h-9.94V72H248.56V63.19H229.81V72H217.62V63.19Zm-24,236.06h90M329.38,294H268.63l-18.38,8.81v13.13h79.13" fill="#da000c" stroke="#000" stroke-linecap="square"/><path d="M250.25,302.81h81" fill="#da000c" stroke="#000"/></g><path d="M431.37,218.06h-120v82.5h120Z"/><path d="M369.12,288.56h73.13l16.31,10.69V310.5H369.12m30.57-69.38c-10.5,0-19.13,8.82-19.13,19.69v27.56H366.88v-105h75.56v105H418.81V260.81C418.81,250.31,410.37,241.12,399.69,241.12Z" fill="#da000c" stroke="#000" stroke-linecap="square"/><path d="M416.56,112.5H381.69v63.75h34.87Z"/><path d="M381.88,166.31h30.37V155.44h22.31v10.87h15V155.44h9.19v19.5H381.88m67.87,0H384.12v8.43h65.63ZM423.5,89.25v66.38H412.25V137.44c0-6.75-4.69-12.38-11.44-12.75h-.75a12.75,12.75,0,0,0-12.75,12.75h0v18.19H376.62V89.25Zm4.31-9v9H372.87v-9Zm6.94-17.06V80.25H369.12V63.19h9.94V72h12.38V63.19h18.75V72h12.19V63.19Zm24,236.06h-90M310.63,294h60.74l18.38,8.81v13.13H310.63" fill="#da000c" stroke="#000" stroke-linecap="square"/><path d="M389.75,302.81h-81" fill="#da000c" stroke="#000"/><path d="M352.44,281.25c-5.07,1.88-9.38,4.5-14.07,7.13a135,135,0,0,0-16.68,11.25,19.49,19.49,0,0,0-5.07,4.49c-1.87,1.51-3.75,3.75-3.37,6.57,0,1.12,1.5-1.5,2.62-1.69a8.29,8.29,0,0,1,5.82-.75c2.43-2.62,5.62-4.31,8.25-6.37a143.89,143.89,0,0,1,24.37-14.25l-1.87-6.38Z" fill="#f8d80e" stroke="#000" stroke-linecap="round" stroke-width="0.8"/><path d="M328.25,295.12v7.32m4.5-10.5v7.31m4.5-10.13v7.13m4.69-9.94v7.5" fill="#f8d80e" stroke="#000" stroke-linecap="round"/><path d="M287.94,281.62l-2.25,6.19a162.48,162.48,0,0,1,29.62,15c3.19,2.25,6.57,4.32,9,7.31a1.8,1.8,0,0,1-2.43,2.25c-1.32-.37-2.82-.93-4.13,0-2.06.94-3.94,4.13-.94,5.07,4.5,3,11.44,1.68,13.5-3.38,1.13-2.62,1.32-6-.93-8.25-3.75-4.31-9-7.5-13.88-10.69a167.89,167.89,0,0,0-27.56-13.5Z" fill="#f8d80e" stroke="#000" stroke-linecap="round" stroke-width="0.8"/><path d="M316.25,296.25l-.56,6.37m5.81-3.18-1.5,6.19m7.12-1.88-3.37,4.88m5.06,6.75-4.87-2.63m6.37-2.62-5.62.56m-1.5,7.5-.38-4.88m-1.87-.56-4.5,3.38m-17.63-29.44v5.81m11.82.56v6.57m-6-9.75v6.18" fill="#f8d80e" stroke="#000" stroke-linecap="round"/><path d="M282.13,426.75v15h9.37v-7.5h12.94v7.5h10.12v-15Zm0,20.63v15h32.25v-15H304.25v7.5H291.31v-7.5Z" fill="#f8d80e" stroke="#000"/><path d="M314.38,363.19h9.37V471.94h-9.37Z" fill="#f8d80e" stroke="#000"/><path d="M314.38,372.56h9.37v93.75h-9.37Zm4.87-36.19L339.13,348l-19.88,11.62L299.19,348Zm-26.81,7.5h-5.06v8.25h5.06l26.81,15.57,26.63-15.57h5.25v-8.25h-5.25l-26.63-15.56Z" fill="#f8d80e" stroke="#000"/><path d="M318.69,308.06a9.37,9.37,0,0,0-7.5,9.57v21a9.37,9.37,0,0,0,8.62,8.62,9.19,9.19,0,0,0,9-5.25l-3.18-1.87A5.45,5.45,0,0,1,320,343.5a5.33,5.33,0,0,1-5.06-5.81v-21a5.43,5.43,0,0,1,5.62-4.88c1.13-.37,2.81,1.32,3.56,0,1.13-1.68-.75-2.81-1.87-3.75Zm10.87,7.31a9.35,9.35,0,0,1-3.56,3v14.06l3.75,2.06V315.38Z" fill="#f8d80e" stroke="#000"/><path d="M291.5,72h54.94v99.75H291.5Z"/><path d="M287.75,72v83.44h17.44V130.69c0-5.63,3.75-13.69,14.81-13.69s15,8.06,15,13.69v24.94h17.25V72Zm29.63,9.38h5.24v28.5h-5.25ZM301.81,87h5.63v20.81h-5.63Zm30.94,0h5.44v20.81h-5.63Zm-51-27V71.81h76.5V60Zm-7.12-13.87V60h90.93V46.13H354.12v7.5H341v-7.5H326.37v7.5H313.62v-7.5H298.81v7.5H286.25v-7.5ZM257.75,183.37V192H382.44v-8.63Z" fill="#da000c" stroke="#000"/><path d="M252.5,155.44v28.12h135V155.44H374.75v10.87H357.5V155.44H334.62v10.87H305V155.44H282.13v10.87H265.25V155.44Z" fill="#da000c" stroke="#000"/><path d="M268.81,192V294h24V255.75c0-17.81,12-26.25,27.19-26.25,14.62,0,27.19,8.44,27.19,26.25V294h24V192Z" fill="#da000c" stroke="#000" stroke-linejoin="round"/></svg>