<svg id="flag-icons-hm" xmlns="http://www.w3.org/2000/svg" viewBox="0 0 640 480"><title>hm</title><path id="path617" d="M0,0H640V480H0Z" fill="#006"/><path id="path625" d="M299.8,392.5l-43.7,3.8,6,43.4L232,408l-30.1,31.7,6-43.4-43.7-3.8,37.7-22.3-24.3-36.5,41,15.5L232,307.5l13.5,41.7,41-15.5-24.3,36.5m224.4,62.3L476,416.7l17.8,6.7,5.8-18.1,5.8,18.1,17.8-6.7-10.5,15.8,16.4,9.7-19,1.7,2.6,18.9-13-13.9-13.2,13.9,2.6-18.9-19-1.6m16.4-291.9L476,134.6l17.8,6.7,5.8-18.1,5.8,18.1,17.8-6.7-10.5,15.8,16.4,9.8-19,1.6,2.6,18.9-13-13.8-13.2,13.7,2.6-18.8-19-1.6M380.8,265l-10.5-15.8,17.8,6.7,5.8-18.1,5.9,18.1,17.8-6.7L407,265l16.4,9.7-19,1.7,2.7,18.9-13.2-13.9-13,13.9,2.5-18.9-19-1.6m216.3-38L570,221l17.8,6.7,5.8-18.1,5.9,18.1,17.8-6.7-10.5,15.8,16.3,9.7-19,1.7,2.6,18.8-13-13.8L580.5,267l2.6-18.8-19-1.7M542,320l-10.3,6.5,2.9-11.9-9.3-7.8,12.1-1,4.6-11.2,4.7,11.3,12.1.9-9.3,7.8,2.9,11.9" fill="#fff" fill-rule="evenodd"/><path id="path969" d="M0,0H320V240H0Z" fill="#006"/><path id="path971" d="M37.5,0l122,90.5L281,0h39V31L200,120.5l120,89V240H280L160,150.5,40.5,240H0V210l119.5-89L0,32V0Z" fill="#fff"/><path id="path973" d="M212,140.5,320,220v20L184.5,140.5Zm-92,10,3,17.5L27,240H0ZM320,0V1.5l-124.5,94,1-22L295,0ZM0,0,119.5,88h-30L0,21Z" fill="#c8102e"/><path id="path975" d="M120.5,0V240h80V0ZM0,80v80H320V80Z" fill="#fff"/><path id="path977" d="M0,96.5v48H320v-48ZM136.5,0V240h48V0Z" fill="#c8102e"/></svg>