<svg id="flag-icons-ht" xmlns="http://www.w3.org/2000/svg" viewBox="0 0 640 480"><title>ht</title><path d="M0,0H640V480H0Z" fill="#d21034"/><path d="M0,0H640V240H0Z" fill="#00209f"/><path d="M244.3,179.7H395.7V300.2H244.3Z" fill="#fff"/><path d="M350.5,266.8l-31,1-30.7.3s-15.8,5.8-22.3,7.1-5.6,3.4-10.5,4.6a41.8,41.8,0,0,1-6.8,1.3c-1.5,0-3.2,1.2-5,2.4v16.7H395.7V284.3a24.47,24.47,0,0,0-4.8-2,46.27,46.27,0,0,0-7.7-2.5c-5-1.1-4.2-3.3-10.6-4.6S350.5,266.8,350.5,266.8Z" fill="#016a16" stroke="#016a16" stroke-width="0.3"/><g id="a"><path d="M311.2,229.6h2.24l4.16,17.12-1,5.44-5.44-22.4Z" fill="#f1b517" stroke="#000" stroke-width="0.2"/><path d="M308.8,218.08l1.6,13.28H312l-3.2-13.12Z" fill="#fff" stroke="#000" stroke-width="0.2"/><path d="M313.12,247.36,306.24,229l2.56-.16,8,22.4Z" fill="#f1b517" stroke="#000" stroke-width="0.2"/><path d="M303,218.4l2.88,12.8h2.24Z" fill="#fff" stroke="#000" stroke-width="0.2"/><path d="M307,241l-4-8.8,1.6-.32,7.52,14.4Z" fill="#f1b517" stroke="#000" stroke-width="0.2"/><path d="M297.6,222.08l4.64,12.16h2.24l-6.72-12.16Z" fill="#fff" stroke="#000" stroke-width="0.2"/><path d="M307.68,242.24l-18.4-20c-5.76,4.48-4.64,12.8-4.64,12.8l20.8,16.32,2.08-9.12Z" fill="#0a328c" stroke="#000" stroke-width="0.2"/><path d="M318.24,253.12l-13.6-13.76c-5.76.32-1.28,8.8-1,9.92l14.4,12.32v-8.48Z" fill="#d20014" stroke="#000" stroke-width="0.2"/><path d="M317,250.88,289,220.8l-1.12.8,29.76,33-.64-3.68Zm-29.6-32-.64-.8v-1.44L281,213l2.56,5.92,2.08.32.48.64,1.28-1Z" fill="#f1b517" stroke="#000" stroke-width="0.2"/><path d="M284.32,221a13.51,13.51,0,0,1,4.32-3.52l1.6,2.4-3.52,2.88-2.4-1.6Z" fill="#f1b517" stroke="#000" stroke-width="0.2"/><path d="M281.28,226.08l1,1.6c.64-.16,6.4-5.6,6.4-5.6H293l1.12-1.44c-3.2-3.2-5.92.48-5.92.48l-6.88,4.8Z" fill="#0a328c" stroke="#0a328c" stroke-width="0.2"/><path d="M284.8,228.8c0-1.6,2.88-5.12,3.2-5.28,2.08.64,4,1.92,6.24-2.88-1.92,2.24-5.6,0-5.6,0l-1.6,1.28v.64l-4.8,4.48,2.4,1.76Z" fill="#d20014" stroke="#d20014" stroke-width="0.2"/><path d="M299.68,247.52l-23-18.24c-4,4-.64,16.32-.64,16.32l22.4,12.16,1.12-10.24Z" fill="#0a328c" stroke="#000" stroke-width="0.2"/><path d="M318.72,262.4l-19-15.36c-6.4,1-1.28,10.4-1,11.52l20,10.88v-7Z" fill="#d20014" stroke="#000" stroke-width="0.2"/><path d="M317.92,259.2l-41-30.72-.8,1L319,263l-1.12-3.84ZM275,226.88l-.64-.64-.32-1.28-6.4-2.72,3.68,5.28h2.08l.64.64,1-1.28Z" fill="#f1b517" stroke="#000" stroke-width="0.2"/><path d="M272.48,229.44a13.22,13.22,0,0,1,3.68-4.16l1.92,2.08-2.88,3.36Z" fill="#f1b517" stroke="#000" stroke-width="0.2"/><path d="M270.4,234.56v1.76c.64-.32,5.92-5.92,5.92-5.92l4-.8,1-1.28c-2.88-3.36-5.92,1.12-5.92,1.12l-5.12,5.12Z" fill="#0a328c" stroke="#0a328c" stroke-width="0.2"/><path d="M273.6,237.6c-.32-1.6,1.92-6.08,2.24-6.4,2.56.8,4.8,1.92,5.6-3.2-1.6,2.56-5.6.64-5.6.64l-1.28,1.6v.8l-4,5.28,3,1.28Z" fill="#d20014" stroke="#d20014" stroke-width="0.2"/><path d="M297.92,258.72q-14.84-8.34-29.6-16.8c-2.08,3.68-.16,8.8.8,9.6,0,2.4-1,3.68,1.12,8.8.64,3.2,2.08,6.24,4.32,8,2.56,10.24,13.12,11,17.12,2.56l6.4-12.16Z" fill="#0a328c" stroke="#000" stroke-width="0.2"/><path d="M317.28,269.6l-20-11.68c-6.4.8,0,12.8.48,13.92l19.52,6.88Z" fill="#d20014" stroke="#000" stroke-width="0.2"/><path d="M313.92,265.28l-45.28-24-.8,1,48,26.72ZM266.4,240l-.8-.48-.48-1.28-6.56-1.6,4.32,4.64,1.92-.32,1,.48.64-1.44Z" fill="#f1b517" stroke="#000" stroke-width="0.2"/><path d="M264.32,242.88a14.14,14.14,0,0,1,2.88-4.8l2.24,1.76-2.24,3.84Z" fill="#f1b517" stroke="#000" stroke-width="0.2"/><path d="M262.56,248.32l1,1.92,4.8-7.36,4-1.44.8-1.6c-3.2-2.88-5.6,2.24-5.6,2.24l-5,6.24Z" fill="#0a328c" stroke="#0a328c" stroke-width="0.2"/><path d="M266.88,250.88c-.32-1.6.8-6.72,1.12-6.88,2.4.8,4.48,1,5.12-4.16-1.6,2.4-5.28,1.6-5.28,1.6l-1.12,1.6.16.64-3.2,6.4,3.2.8Z" fill="#d20014" stroke="#d20014" stroke-width="0.2"/></g><path d="M328.64,229.6H326.4l-4.16,17.12,1,5.44,5.44-22.4Z" fill="#f1b517" stroke="#000" stroke-width="0.2"/><path d="M331,218.08l-1.6,13.28h-1.6l3.2-13.12Z" fill="#fff" stroke="#000" stroke-width="0.2"/><path d="M326.72,247.36,333.6,229,331,228.8l-8,22.4Z" fill="#f1b517" stroke="#000" stroke-width="0.2"/><path d="M336.8,218.4l-2.88,12.8h-2.24Z" fill="#fff" stroke="#000" stroke-width="0.2"/><path d="M332.8,241l4-8.8-1.6-.32-7.52,14.4Z" fill="#f1b517" stroke="#000" stroke-width="0.2"/><path d="M342.24,222.08l-4.64,12.16h-2.24l6.72-12.16Z" fill="#fff" stroke="#000" stroke-width="0.2"/><path d="M332.16,242.24l18.4-20c5.76,4.48,4.64,12.8,4.64,12.8l-20.8,16.32-2.08-9.12Z" fill="#0a328c" stroke="#000" stroke-width="0.2"/><path d="M321.6,253.12l13.6-13.76c5.76.32,1.28,8.8,1,9.92l-14.4,12.32v-8.48Z" fill="#d20014" stroke="#000" stroke-width="0.2"/><path d="M322.88,250.88l28-30.08,1.12.8-29.76,33,.64-3.68Zm29.6-32,.64-.8v-1.44l5.76-3.68-2.56,5.92-2.08.32-.48.64-1.28-1Z" fill="#f1b517" stroke="#000" stroke-width="0.2"/><path d="M355.52,221a13.51,13.51,0,0,0-4.32-3.52l-1.6,2.4,3.52,2.88,2.4-1.6Z" fill="#f1b517" stroke="#000" stroke-width="0.2"/><path d="M358.56,226.08l-1,1.6c-.64-.16-6.4-5.6-6.4-5.6h-4.32l-1.12-1.44c3.2-3.2,5.92.48,5.92.48l6.88,4.8Z" fill="#0a328c" stroke="#0a328c" stroke-width="0.2"/><path d="M355,228.8c0-1.6-2.88-5.12-3.2-5.28-2.08.64-4,1.92-6.24-2.88,1.92,2.24,5.6,0,5.6,0l1.6,1.28v.64l4.8,4.48-2.4,1.76Z" fill="#d20014" stroke="#d20014" stroke-width="0.2"/><path d="M340.16,247.52l23-18.24c4,4,.64,16.32.64,16.32l-22.4,12.16-1.12-10.24Z" fill="#0a328c" stroke="#000" stroke-width="0.2"/><path d="M321.12,262.4l19-15.36c6.4,1,1.28,10.4,1,11.52l-20,10.88v-7Z" fill="#d20014" stroke="#000" stroke-width="0.2"/><path d="M321.92,259.2l41-30.72.8,1L320.8,263l1.12-3.84Zm42.88-32.32.64-.64.32-1.28,6.4-2.72-3.68,5.28H366.4l-.64.64-1-1.28Z" fill="#f1b517" stroke="#000" stroke-width="0.2"/><path d="M367.36,229.44a13.22,13.22,0,0,0-3.68-4.16l-1.92,2.08,2.88,3.36Z" fill="#f1b517" stroke="#000" stroke-width="0.2"/><path d="M369.44,234.56v1.76c-.64-.32-5.92-5.92-5.92-5.92l-4-.8-1-1.28c2.88-3.36,5.92,1.12,5.92,1.12l5.12,5.12Z" fill="#0a328c" stroke="#0a328c" stroke-width="0.2"/><path d="M366.24,237.6c.32-1.6-1.92-6.08-2.24-6.4-2.56.8-4.8,1.92-5.6-3.2,1.6,2.56,5.6.64,5.6.64l1.28,1.6v.8l4,5.28-3,1.28Z" fill="#d20014" stroke="#d20014" stroke-width="0.2"/><path d="M341.92,258.72q14.83-8.34,29.6-16.8c2.08,3.68.16,8.8-.8,9.6,0,2.4,1,3.68-1.12,8.8-.64,3.2-2.08,6.24-4.32,8-2.56,10.24-13.12,11-17.12,2.56l-6.4-12.16Z" fill="#0a328c" stroke="#000" stroke-width="0.2"/><path d="M322.56,269.6l20-11.68c6.4.8,0,12.8-.48,13.92l-19.52,6.88Z" fill="#d20014" stroke="#000" stroke-width="0.2"/><path d="M325.92,265.28l45.28-24,.8,1L324,269ZM373.44,240l.8-.48.48-1.28,6.56-1.6L377,241.28,375,241l-1,.48-.64-1.44Z" fill="#f1b517" stroke="#000" stroke-width="0.2"/><path d="M375.52,242.88a14.14,14.14,0,0,0-2.88-4.8l-2.24,1.76,2.24,3.84Z" fill="#f1b517" stroke="#000" stroke-width="0.2"/><path d="M377.28,248.32l-1,1.92-4.8-7.36-4-1.44-.8-1.6c3.2-2.88,5.6,2.24,5.6,2.24l5,6.24Z" fill="#0a328c" stroke="#0a328c" stroke-width="0.2"/><path d="M373,250.88c.32-1.6-.8-6.72-1.12-6.88-2.4.8-4.48,1-5.12-4.16,1.6,2.4,5.28,1.6,5.28,1.6l1.12,1.6-.16.64,3.2,6.4-3.2.8Z" fill="#d20014" stroke="#d20014" stroke-width="0.2"/><path d="M318.08,201l-.8,14.4h4.64l-.64-14.4,4.8-.48-.48-5.76-12,.48v5.12l4.48.64Z" fill="#016a16" stroke="#016a16" stroke-width="0.2"/><g id="b"><path d="M319.68,195c-12.48-12.48-22.24-6.4-24.48-4.64,1.6.32,2.88-.64,3.68-.8l-1.6,1.92a46.52,46.52,0,0,1,4.48-1.6,6.48,6.48,0,0,0-1.28,1.6c.32,0,2.56-1.76,2.88-1.76a5.05,5.05,0,0,0-.8,2.4l1.92-.8c.48.32-.16,1,.16,1,3.2-.32,7.52,2.72,8,3.68" fill="#016a16" stroke="#000" stroke-width="0.2"/><path d="M316.64,197.28c-1.28-2.88-25-8-29.76.48,1.92.48,3.68-1.6,3.68-1.6v1.92l3-2.56-1.12,2.56,2.4-2.08v2.08l3.2-3.2-.48,1.76,2.72-1.12-.32,1.6" fill="#016a16" stroke="#000" stroke-width="0.2"/><path d="M315.52,197.76c-6.08-4-15.36-1.28-15.36-1.28-6.08,3.2-9.28,2.72-9.92,9a12.72,12.72,0,0,0,2.08-2.24l1.28,2.4.32-3.36,1,2.72,1.6-4.48.32,3,2.24-3,1,1,1-2.4,1,1.6s1.6-1,2.4-.48l1.6-1.92.48,1.44,1.6-1.6.48,1.12,1.44-1.28v1h4.8" fill="#016a16" stroke="#000" stroke-width="0.2"/><path d="M314.24,198.4c-4.32,0-16.48,4.64-19.52,9.28a20.55,20.55,0,0,1,2.08-1l.48,1.92.8-1.92.16,1.6c.48-1.28,1-1.28,1.92-.16l.32-1.76L301,208l.8-1.76s.48,1.92.8,1.92c0,0,1.28-3.52,1.92-3.68l.16,2.24.8-2.24.8,1.6v-2.24l1,1.6s.32-1.6,1-1.92l1.28,1.12,5.44-4" fill="#016a16" stroke="#000" stroke-width="0.2"/><path d="M315,199.52c-5.6,2.08-10.72,9.92-10.24,13.12,2.4-3.2,1.92-2.72,3,1,0,0,.32-3.2.8-3.52l.8,2.24.16-3h.8l-.16-1.76,1.12.8c-.32-1.12-.48-1.44.64-2.4,0,0-1.6.16-.32-2.4l1.12,1s-.32-1.12,0-1.6L317,201.6" fill="#016a16" stroke="#000" stroke-width="0.2"/><path d="M315.52,200l-2.08,4.16,1.12.32L312,206.24l2.08-.16a5.5,5.5,0,0,0-3.52,4.32l3.2-1.6s-2.72,2.88-3.2,4.64l2.08-1.6a6.26,6.26,0,0,0-1.6,4.8l1.44-1.6c-.32,3.68-.32,4,1.28,6.72,0,0-.32-4.16,0-4.8l3.68,3.84-1.92-5.28s2.24,3.2,3.52,3l-2.88-4.32,2.88,2.24-3.2-4.8,2.88,1s-2.08-2.72-1.92-4.48l2.08,2.24a11,11,0,0,1-.64-3.2l1.12.16-2.08-2.24,1.44-.32-.16-1.6,1-.16v-1.76m-1.76,0c-3.52,4.8-1.76,12-3.84,15.84" fill="#016a16" stroke="#000" stroke-width="0.2"/></g><path d="M320.16,195c12.48-12.48,22.24-6.4,24.48-4.64-1.6.32-2.88-.64-3.68-.8l1.6,1.92a46.52,46.52,0,0,0-4.48-1.6,6.48,6.48,0,0,1,1.28,1.6c-.32,0-2.56-1.76-2.88-1.76a5.05,5.05,0,0,1,.8,2.4l-1.92-.8c-.48.32.16,1-.16,1-3.2-.32-7.52,2.72-8,3.68" fill="#016a16" stroke="#000" stroke-width="0.2"/><path d="M323.2,197.28c1.28-2.88,25-8,29.76.48-1.92.48-3.68-1.6-3.68-1.6v1.92l-3-2.56,1.12,2.56L345,196v2.08l-3.2-3.2.48,1.76-2.72-1.12.32,1.6" fill="#016a16" stroke="#000" stroke-width="0.2"/><path d="M324.32,197.76c6.08-4,15.36-1.28,15.36-1.28,6.08,3.2,9.28,2.72,9.92,9a12.72,12.72,0,0,1-2.08-2.24l-1.28,2.4-.32-3.36L345,205l-1.6-4.48-.32,3-2.24-3-1,1-1-2.4-1,1.6s-1.6-1-2.4-.48l-1.6-1.92-.48,1.44-1.6-1.6-.48,1.12-1.44-1.28v1h-4.8" fill="#016a16" stroke="#000" stroke-width="0.2"/><path d="M325.6,198.4c4.32,0,16.48,4.64,19.52,9.28a20.55,20.55,0,0,0-2.08-1l-.48,1.92-.8-1.92-.16,1.6c-.48-1.28-1-1.28-1.92-.16l-.32-1.76-.48,1.6-.8-1.76s-.48,1.92-.8,1.92c0,0-1.28-3.52-1.92-3.68l-.16,2.24-.8-2.24-.8,1.6v-2.24l-1,1.6s-.32-1.6-1-1.92l-1.28,1.12-5.44-4" fill="#016a16" stroke="#000" stroke-width="0.2"/><path d="M324.8,199.52c5.6,2.08,10.72,9.92,10.24,13.12-2.4-3.2-1.92-2.72-3,1,0,0-.32-3.2-.8-3.52l-.8,2.24-.16-3h-.8l.16-1.76-1.12.8c.32-1.12.48-1.44-.64-2.4,0,0,1.6.16.32-2.4l-1.12,1s.32-1.12,0-1.6l-4.16-1.28" fill="#016a16" stroke="#000" stroke-width="0.2"/><path d="M324.32,200l2.08,4.16-1.12.32,2.56,1.76-2.08-.16a5.5,5.5,0,0,1,3.52,4.32l-3.2-1.6s2.72,2.88,3.2,4.64l-2.08-1.6a6.26,6.26,0,0,1,1.6,4.8l-1.44-1.6c.32,3.68.32,4-1.28,6.72,0,0,.32-4.16,0-4.8l-3.68,3.84,1.92-5.28s-2.24,3.2-3.52,3l2.88-4.32-2.88,2.24,3.2-4.8-2.88,1s2.08-2.72,1.92-4.48L321,210.4a11,11,0,0,0,.64-3.2l-1.12.16,2.08-2.24-1.44-.32.16-1.6-1-.16v-1.76m1.76,0c3.52,4.8,1.76,12,3.84,15.84" fill="#016a16" stroke="#000" stroke-width="0.2"/><path d="M321.6,266.4s1.76-16,1.76-22.72c0-5.44-1.28-17.28-1.28-17.28H316.8s-.8,11.84-.64,17.28c0,6.72,1.76,22.72,1.76,22.72Z" fill="#f1b517" stroke="#000" stroke-width="0.2"/><path d="M316.32,227.2h6.4l-.8-4.32h-4.64l-1,4.16Z" fill="#f1b517" stroke="#000" stroke-width="0.2"/><path d="M316.8,223.68h5.6l-1.12-4.32h-3.52l-1.12,4.32Z" fill="#f1b517" stroke="#000" stroke-width="0.2"/><path d="M317.12,220.32h4.8L321,216h-3Z" fill="#f1b517" stroke="#000" stroke-width="0.2"/><path d="M321.12,215.52h-3.2l-.48,1.6h4Zm.64,47.52H317.6m4.48-3.2h-4.8m5.44-3.2h-6.08m6.4-3.36h-6.4m6.4-3.52h-6.56m6.72-3.2h-7m7-2.72h-7.36m7.36-3.52h-7.36M323,237h-7.2m6.88-3.52h-6.56m6.24-3.2h-5.92" fill="#f1b517" stroke="#000" stroke-width="0.2"/><path d="M320,190.4c-1.28-.48-3.68-2.08-3-3l1.12-1.92c1.6-3.52,0-2.24,0-3.2-.32-1.28,6.08-.32,6.08,2.08a10.56,10.56,0,0,0-.32,4.16l-1.28,2.4a5.61,5.61,0,0,1-2.72-.32Z" fill="#0a328c" stroke="#0a328c" stroke-width="0.2"/><path d="M320.64,200l-1.6-1.44.48-11.36,1.6.48-.48,12.16Z" fill="#f1b517" stroke="#000" stroke-width="0.2"/><path d="M322.72,190.88c1-.64,1.6-2.4,1-3.36-1.6-2.08-2.72-1.28-5.44-2.24-.48.64-1.6,1.6-1.44,2.56,3.68,1.6,2.24.32,3.52.48.64,0,1,.8,2.4,2.4Z" fill="#d20014" stroke="#d20014" stroke-width="0.2"/><path id="c" d="M301.6,256.48c-.32-.8-1.6-1.44-3.2-1.44a3.61,3.61,0,0,0-3.2,1.44,1.38,1.38,0,0,1,0-.64c0-1.12,1.44-1.92,3.2-1.92,1.92,0,3.36.8,3.36,1.92a1.38,1.38,0,0,1,0,.64Z" fill="#016a16" stroke="#fff" stroke-linecap="round" stroke-width="0.2"/><path d="M301.44,258.88c0,1.92-1.44,3.68-3,3.68s-2.88-1.6-2.88-3.84V256.8h5.92v2.08Z" fill="#016a16" stroke="#fff" stroke-linecap="round" stroke-width="0.2"/><ellipse cx="298.4" cy="256.16" rx="2.88" ry="1.44" fill="#fff"/><path d="M297.76,257.6l-.48-5.12h2.24l-.32,5.28h-1.44Z" fill="#016a16" stroke="#f1b517" stroke-width="0.2"/><path d="M301.6,256.16c-.32.8-1.6,1.44-3.2,1.44a3.61,3.61,0,0,1-3.2-1.44,1.38,1.38,0,0,0,0,.64c0,1.12,1.44,1.92,3.2,1.92,1.92,0,3.36-.8,3.36-1.92a1.38,1.38,0,0,0,0-.64Z" fill="#016a16" stroke="#fff" stroke-linecap="round" stroke-width="0.2"/><g id="d"><path d="M313.6,276.48,302.4,273l-5-8.48-17.44-.8.64,6.4,14.88,2.72,1.28,2.56,17.12,4.8Z" fill="#f1b517" stroke="#000" stroke-width="0.2"/><path d="M301.92,278.88,284,252.48l-.8.8,17.6,26.24Z" fill="#503200" stroke="#000" stroke-width="0.2"/><path d="M285.76,253.6l-1.92-3.2a1.14,1.14,0,0,0-1.76-.32c-.8.32-.64,1.12-.32,1.76l1.6,3Z" fill="#fff" stroke="#000" stroke-width="0.2"/><path d="M304,262.56l-36-3.68-1,5.28,35.84,3.68,1.12-5.28Z" fill="#f1b517" stroke="#000" stroke-width="0.2"/><path d="M267.2,257.6l-.8,7.2H268l1-6.56-1.6-.64Zm6.08,1.12-.32,6.56h1l.8-5.6-1.28-1Zm24.48,2.88-1,6.08h1.76l.8-6.08Zm5.28.16-1.12,7,1.92.32.64-3.68a1.45,1.45,0,0,0,1.6,1.28,1.6,1.6,0,0,0,1.6-1.6,1.51,1.51,0,0,0-1.6-1.6,1.6,1.6,0,0,0-1.6,1l.48-2.56-1.92-.16Zm-12.8,1.12-5.12,5.6.64.64,6.4-4.32-2.08-1.92ZM278.4,276.8l5-5.6-.48-.64-6.4,4.32Zm13-1.44-5.92-4.64-.64.48,4.8,6.08,1.76-1.92Zm-14.88-10.72,6.24,4.48.64-.48-4.8-6.08-2.08,2.08ZM283.2,261l.64,7.36h.8l1.92-7.2L283.2,261Zm1.92,17.6-.48-7.2h-1l-1.12,7.36h2.56Zm8.16-9.6-7.68.64v.8l7.68,1V269ZM275,271.36l7.52-1.12v-.64l-7.68-.8v2.56Z" fill="#f1b517" stroke="#000" stroke-width="0.2"/><ellipse cx="284.32" cy="269.76" rx="2.08" ry="1.92" fill="#f1b517" stroke="#000" stroke-width="0.2"/><path d="M295,269.76a10.72,10.72,0,0,1-21.44,0h0a10.72,10.72,0,0,1,21.44,0Zm-2.08,0a8.48,8.48,0,0,1-8.64,8.32h0a8.49,8.49,0,0,1-8.64-8.32v-.16a8.65,8.65,0,0,1,17.28.16Z" fill="#f1b517" stroke="#000" stroke-linecap="round" stroke-width="0.2" fill-rule="evenodd"/><path d="M277.6,264.48,276,263.2m13.6,0,1.6-1.6m1.6,14.72L291,274.88m-13.44,3,1.6-1.6m34.72-17,1.76,9.6-1.44.64-1.6-10.08h1.28Z" fill="#f1b517" stroke="#000" stroke-width="0.2"/><path d="M313,258.24c-.8-.48-1.92.16-3.84-2.08-3,2.72,0,3.2.32,5.92.8.32,1.44-2.24,3.68-2.4l3.68-.32-.8-1.12h-3Z" fill="#fff" stroke="#000" stroke-width="0.2"/><path d="M314.24,260l-.32-2.72c-.48-1.12-1.6-.16-1.6.32l.32,2.72Z" fill="#fff" stroke="#000" stroke-width="0.2"/><path d="M305.28,267.84v2.56c-1,.32-.8,1-.8,1.92v7.52c-.16.64-1.12.64-1.6,1-.48.48-.32,1.28,1.6,1.6l1.6.16c2.4-.48,2.88-1.28,1.6-1.6-.48-.32-1.44-.64-1.6-1v-1.92h1.6c.32,0,1.12-1,1.12-1.76v-4c0-2.24-1.6-2.56-2.24-2.4v-2.08Zm2.56,4.32c0-.64-1-1.28-1.28-1.28a1.82,1.82,0,0,0-1.12,1.44v1.6c0,.64.48,2.56,1.44,2.72a1.43,1.43,0,0,0,1-1.28v-3.2Z" fill="#f1b517" stroke="#000" stroke-width="0.2" fill-rule="evenodd"/><path d="M294.88,275.68c-1.12-.32-1.12,1.92-1.12,1.92h1.6a1.55,1.55,0,0,1,1,1.92c-.48.32-3.52-.8-3.68,0,.48,3,4.64,4.16,6.08,2.88,1.44-1.44,1.76-4.8-2.88-5.92Zm1,1-.48,1" fill="#fff" stroke="#000" stroke-width="0.2"/><path d="M264,276.8l-1.6-6.4m3.36,6.08-2.4-5m6.4,3.68-5.28-2.88m7.68,2.24-9.92-4.32" fill="#f1b517" stroke="#000" stroke-width="0.2"/><path d="M256.32,265.6l-4.16.16c-.32.16.8,1.44.64,1.76-1,1.76-7,1.6-7.52,1.28-.8-.8,5.6-1.28,5.76-1.6,0-.64-1-1.92-.8-2.72,0-1.12,2.72-1.6,2.72-1.6l3.36,2.72Z" fill="#d20014" stroke="#d20014" stroke-width="0.2"/><path d="M261.12,268.8l-8-6.72s-.48-.32-.8,0a.44.44,0,0,0,0,.64l8.64,7,.16-.8Z" fill="#503200" stroke="#000" stroke-width="0.2"/><path d="M269.12,275.52l-6.72-5.76-.48-1.6-1.28,1a4.2,4.2,0,0,0-1,1.28h1.76l5.76,5.44,1.76-.32Z" fill="#f1b517" stroke="#000" stroke-width="0.2"/><circle cx="292" cy="283.36" r="1.12" fill="#f1b517" stroke="#000" stroke-width="0.2"/><circle cx="288.96" cy="281.12" r="1.12" fill="#f1b517" stroke="#000" stroke-width="0.2"/><circle cx="284.96" cy="282.56" r="1.12" fill="#f1b517" stroke="#000" stroke-width="0.2"/><circle cx="278.72" cy="283.84" r="1.12" fill="#f1b517" stroke="#000" stroke-width="0.2"/><circle cx="276" cy="284.16" r="1.12" fill="#f1b517" stroke="#000" stroke-width="0.2"/><circle cx="273.28" cy="284.16" r="1.12" fill="#f1b517" stroke="#000" stroke-width="0.2"/><circle cx="270.72" cy="284.16" r="1.12" fill="#f1b517" stroke="#000" stroke-width="0.2"/><circle cx="272" cy="282.08" r="1.12" fill="#f1b517" stroke="#000" stroke-width="0.2"/><circle cx="274.56" cy="282.24" r="1.12" fill="#f1b517" stroke="#000" stroke-width="0.2"/><circle cx="276.96" cy="281.92" r="1.12" fill="#f1b517" stroke="#000" stroke-width="0.2"/><circle cx="275.84" cy="280" r="1.12" fill="#f1b517" stroke="#000" stroke-width="0.2"/><circle cx="273.28" cy="279.84" r="1.12" fill="#f1b517" stroke="#000" stroke-width="0.2"/><path d="M298.4,284.8c0-.48-1.28-.32-1.28-1s1.92,0,2.08.48c1.12-1,1.6-.32,2.24,0a2,2,0,0,1,3.2-.32,2,2,0,0,1,2.72.32c1.12-1,2.08-.8,2.72,0a.62.62,0,0,1,1.12,0c.48-1.12,1.92-.8,2.56,0,.48-.64,1.12-.16,1.76.16.48-.32,1.28-.32,1.28,0,0,.64-1,.48-1,1,0,.32.64,0,.64.64,0,.48-1,.64-1.12,0a1.21,1.21,0,0,1-1.92-.32,1.28,1.28,0,0,1-1.81.11l-.11-.11c-.48.32-1.12.32-1.28,0a1.73,1.73,0,0,1-2.72-.32H307a1.6,1.6,0,0,1-2.26.14l-.14-.14c-1.44,1-2.24.64-3,0-.8,1.12-2.24,1.12-2.4,0-.64.48-1.92.64-1.92,0,0-.32,1.12-.16,1.12-.64ZM301,285c0,.32-.32.48-.64.48s-.64-.16-.64-.48.16-.32.64-.32S301,284.8,301,285Zm3-.32c0,.32-.48.48-1,.48s-.8-.16-.8-.48c0-.16.32-.48.8-.48s.8.32.8.48Zm5.6.32c0,.32-.32.48-.8.48s-.64-.16-.64-.48a.71.71,0,0,1,.64-.48C309.12,284.48,309.6,284.64,309.6,285Zm-3,0c0,.32-.32.48-.8.48s-.64-.16-.64-.64a.69.69,0,0,1,.64-.64c.32,0,.8.32.8.64Zm6.4,0a.51.51,0,0,1-.48.48.73.73,0,0,1-.8-.64c0-.32.32-.48.8-.48.32,0,.64.16.64.48ZM311,285c0,.32,0,.48-.32.48a.42.42,0,0,1-.48-.48c0-.32.16-.32.48-.32Zm3.84.16c0,.32,0,.64-.48.64a.71.71,0,0,1-.48-.64.51.51,0,0,1,.48-.48A.42.42,0,0,1,314.88,285.12Z" fill="#f1b517" stroke="#000" stroke-width="0.2" fill-rule="evenodd"/></g><path d="M326.24,276.48l11.2-3.52,5-8.48,17.44-.8-.64,6.4-14.88,2.72L343,275.36l-17.12,4.8Z" fill="#f1b517" stroke="#000" stroke-width="0.2"/><path d="M337.92,278.88l17.92-26.4.8.8L339,279.52Z" fill="#503200" stroke="#000" stroke-width="0.2"/><path d="M354.08,253.6l1.92-3.2a1.14,1.14,0,0,1,1.76-.32c.8.32.64,1.12.32,1.76l-1.6,3Z" fill="#fff" stroke="#000" stroke-width="0.2"/><path d="M335.84,262.56l36-3.68,1,5.28L337,267.84l-1.12-5.28Z" fill="#f1b517" stroke="#000" stroke-width="0.2"/><path d="M372.64,257.6l.8,7.2h-1.6l-1-6.56,1.6-.64Zm-6.08,1.12.32,6.56h-1l-.8-5.6,1.28-1Zm-24.48,2.88,1,6.08h-1.76l-.8-6.08Zm-5.28.16,1.12,7-1.92.32-.64-3.68a1.45,1.45,0,0,1-1.6,1.28,1.6,1.6,0,0,1-1.6-1.6,1.51,1.51,0,0,1,1.6-1.6,1.6,1.6,0,0,1,1.6,1l-.48-2.56,1.92-.16Zm12.8,1.12,5.12,5.6-.64.64-6.4-4.32,2.08-1.92Zm11.84,13.92-5-5.6.48-.64,6.4,4.32Zm-13-1.44,5.92-4.64.64.48-4.8,6.08-1.76-1.92Zm14.88-10.72-6.24,4.48-.64-.48,4.8-6.08,2.08,2.08ZM356.64,261l-.64,7.36h-.8l-1.92-7.2,3.36-.16Zm-1.92,17.6.48-7.2h1l1.12,7.36h-2.56Zm-8.16-9.6,7.68.64v.8l-7.68,1V269Zm18.24,2.4-7.52-1.12v-.64l7.68-.8v2.56Z" fill="#f1b517" stroke="#000" stroke-width="0.2"/><ellipse cx="355.52" cy="269.76" rx="2.08" ry="1.92" fill="#f1b517" stroke="#000" stroke-width="0.2"/><path d="M344.8,269.76a10.72,10.72,0,0,0,21.44,0h0a10.72,10.72,0,0,0-21.44,0Zm2.08,0a8.48,8.48,0,0,0,8.64,8.32h0a8.49,8.49,0,0,0,8.64-8.32v-.16a8.65,8.65,0,0,0-17.28.16Z" fill="#f1b517" stroke="#000" stroke-linecap="round" stroke-width="0.2" fill-rule="evenodd"/><path d="M362.24,264.48l1.6-1.28m-13.6,0-1.6-1.6M347,276.32l1.76-1.44m13.44,3-1.6-1.6m-34.72-17-1.76,9.6,1.44.64,1.6-10.08h-1.28Z" fill="#f1b517" stroke="#000" stroke-width="0.2"/><path d="M326.88,258.24c.8-.48,1.92.16,3.84-2.08,3,2.72,0,3.2-.32,5.92-.8.32-1.44-2.24-3.68-2.4l-3.68-.32.8-1.12h3Z" fill="#fff" stroke="#000" stroke-width="0.2"/><path d="M325.6,260l.32-2.72c.48-1.12,1.6-.16,1.6.32l-.32,2.72Z" fill="#fff" stroke="#000" stroke-width="0.2"/><path d="M334.56,267.84v2.56c1,.32.8,1,.8,1.92v7.52c.16.64,1.12.64,1.6,1,.48.48.32,1.28-1.6,1.6l-1.6.16c-2.4-.48-2.88-1.28-1.6-1.6.48-.32,1.44-.64,1.6-1v-1.92h-1.6c-.32,0-1.12-1-1.12-1.76v-4c0-2.24,1.6-2.56,2.24-2.4v-2.08ZM332,272.16c0-.64,1-1.28,1.28-1.28a1.82,1.82,0,0,1,1.12,1.44v1.6c0,.64-.48,2.56-1.44,2.72a1.43,1.43,0,0,1-1-1.28v-3.2Z" fill="#f1b517" stroke="#000" stroke-width="0.2" fill-rule="evenodd"/><path d="M345,275.68c1.12-.32,1.12,1.92,1.12,1.92h-1.6a1.55,1.55,0,0,0-1,1.92c.48.32,3.52-.8,3.68,0-.48,3-4.64,4.16-6.08,2.88-1.44-1.44-1.76-4.8,2.88-5.92Zm-1,1,.48,1" fill="#fff" stroke="#000" stroke-width="0.2"/><path d="M375.84,276.8l1.6-6.4m-3.36,6.08,2.4-5m-6.4,3.68,5.28-2.88m-7.68,2.24,9.92-4.32" fill="#f1b517" stroke="#000" stroke-width="0.2"/><path d="M383.52,265.6l4.16.16c.32.16-.8,1.44-.64,1.76,1,1.76,7,1.6,7.52,1.28.8-.8-5.6-1.28-5.76-1.6,0-.64,1-1.92.8-2.72,0-1.12-2.72-1.6-2.72-1.6l-3.36,2.72Z" fill="#d20014" stroke="#d20014" stroke-width="0.2"/><path d="M378.72,268.8l8-6.72s.48-.32.8,0a.44.44,0,0,1,0,.64l-8.64,7-.16-.8Z" fill="#503200" stroke="#000" stroke-width="0.2"/><path d="M370.72,275.52l6.72-5.76.48-1.6,1.28,1a4.2,4.2,0,0,1,1,1.28H378.4l-5.76,5.44-1.76-.32Z" fill="#f1b517" stroke="#000" stroke-width="0.2"/><circle cx="347.84" cy="283.36" r="1.12" fill="#f1b517" stroke="#000" stroke-width="0.2"/><circle cx="350.88" cy="281.12" r="1.12" fill="#f1b517" stroke="#000" stroke-width="0.2"/><circle cx="354.88" cy="282.56" r="1.12" fill="#f1b517" stroke="#000" stroke-width="0.2"/><circle cx="361.12" cy="283.84" r="1.12" fill="#f1b517" stroke="#000" stroke-width="0.2"/><circle cx="363.84" cy="284.16" r="1.12" fill="#f1b517" stroke="#000" stroke-width="0.2"/><circle cx="366.56" cy="284.16" r="1.12" fill="#f1b517" stroke="#000" stroke-width="0.2"/><circle cx="369.12" cy="284.16" r="1.12" fill="#f1b517" stroke="#000" stroke-width="0.2"/><circle cx="367.84" cy="282.08" r="1.12" fill="#f1b517" stroke="#000" stroke-width="0.2"/><circle cx="365.28" cy="282.24" r="1.12" fill="#f1b517" stroke="#000" stroke-width="0.2"/><circle cx="362.88" cy="281.92" r="1.12" fill="#f1b517" stroke="#000" stroke-width="0.2"/><circle cx="364" cy="280" r="1.12" fill="#f1b517" stroke="#000" stroke-width="0.2"/><circle cx="366.56" cy="279.84" r="1.12" fill="#f1b517" stroke="#000" stroke-width="0.2"/><path d="M341.44,284.8c0-.48,1.28-.32,1.28-1s-1.92,0-2.08.48c-1.12-1-1.6-.32-2.24,0a2,2,0,0,0-3.2-.32,2,2,0,0,0-2.72.32c-1.12-1-2.08-.8-2.72,0a.62.62,0,0,0-1.12,0c-.48-1.12-1.92-.8-2.56,0-.48-.64-1.12-.16-1.76.16-.48-.32-1.28-.32-1.28,0,0,.64,1,.48,1,1,0,.32-.64,0-.64.64,0,.48,1,.64,1.12,0a1.21,1.21,0,0,0,1.92-.32,1.28,1.28,0,0,0,1.81.11l.11-.11c.48.32,1.12.32,1.28,0a1.73,1.73,0,0,0,2.72-.32h.48a1.6,1.6,0,0,0,2.26.14.93.93,0,0,0,.14-.14c1.44,1,2.24.64,3,0,.8,1.12,2.24,1.12,2.4,0,.64.48,1.92.64,1.92,0,0-.32-1.12-.16-1.12-.64Zm-2.56.16c0,.32.32.48.64.48s.64-.16.64-.48-.16-.32-.64-.32S338.88,284.8,338.88,285Zm-3-.32c0,.32.48.48,1,.48s.8-.16.8-.48c0-.16-.32-.48-.8-.48s-.8.32-.8.48Zm-5.6.32c0,.32.32.48.8.48s.64-.16.64-.48a.71.71,0,0,0-.64-.48C330.72,284.48,330.24,284.64,330.24,285Zm3,0c0,.32.32.48.8.48s.64-.16.64-.64a.69.69,0,0,0-.64-.64c-.32,0-.8.32-.8.64Zm-6.4,0a.51.51,0,0,0,.48.48.73.73,0,0,0,.8-.64c0-.32-.32-.48-.8-.48-.32,0-.64.16-.64.48Zm1.92,0c0,.32,0,.48.32.48a.42.42,0,0,0,.48-.48c0-.32-.16-.32-.48-.32Zm-3.84.16c0,.32,0,.64.48.64a.71.71,0,0,0,.48-.64.51.51,0,0,0-.48-.48A.42.42,0,0,0,325,285.12Z" fill="#f1b517" stroke="#000" stroke-width="0.2" fill-rule="evenodd"/><path d="M319.68,265.12c-4,0-7.2,1.6-7.2,3.36a1.18,1.18,0,0,0,.32,1c.8,1,3.68,1.6,7,1.6,3.2,0,5.76-.48,6.72-1.44a1.45,1.45,0,0,0,.48-1.12c0-1.76-3.2-3.2-7.36-3.2Z" fill="#0a328c" stroke="#0a328c" stroke-width="0.2"/><path d="M327,268.8V280c0,1.44-3.2,2.4-7.2,2.4s-7.36-1-7.36-2.4V268.8c0,1.28,3.2,2.4,7.2,2.4C323.84,271.2,327,270.08,327,268.8Z" fill="#f1b517" stroke="#000" stroke-width="0.2"/><path d="M312.48,268.8v1.6L316,281.6l2.88-8.64,3.2,8.8,2.08-8.32L327,279v-3l-2.56-5.44c-.32.12-.64.23-1,.32l-1.6,6.08-2.4-5.76H318.4L316,277l-2.56-7a1.52,1.52,0,0,1-1-1.12Z" fill="#d20014" stroke="#d20014" stroke-width="0.2"/><path d="M327,277.92V280c0,1.44-3.2,2.4-7.2,2.4s-7.36-1-7.36-2.4v-2.08c0,1.44,3.2,2.4,7.2,2.4C323.84,280.32,327,279.36,327,277.92Z" fill="#0a328c" stroke="#0a328c" stroke-width="0.2"/><path d="M322.72,280l-1.76.32v2.08l1.92-.16v-2.08Zm-7.68-.16v2.08l1.76.32v-2.08A15.11,15.11,0,0,1,315,279.84Zm-2.56-1.92V280c0,.48.32.8.8,1.12V279C312.8,278.72,312.48,278.4,312.48,277.92Zm14.56.32c0,.32-.64.8-1.28,1.12v2.08c.8-.32,1.28-.8,1.28-1.44v-1.76Z" fill="#f1b517" stroke="#000" stroke-width="0.2"/><path d="M327,268.8V280c0,1.44-3.2,2.4-7.2,2.4s-7.36-1-7.36-2.4V268.8" fill="none" stroke="#000" stroke-width="0.2"/><path d="M325.44,268c0,.8-2.56,1.6-5.6,1.6-3.2,0-5.76-.8-5.76-1.6s2.56-1.44,5.6-1.44c3.2,0,5.76.64,5.76,1.6Z" fill="#fff" stroke="#fff" stroke-width="0.2"/><path d="M317.92,269.12l.32,1.92h1.6l.16-1.92Zm6.56-.48-1.6.32.16,1.92,1.6-.32V268.8Zm-8.64-3.2-1.12.48.16,1.6,1-.32v-1.76Zm3.84-.48h-.48l.32,1.92h1l.32-1.92Zm4.32.64-.16,1.6,1.12.48v-1.6a8.59,8.59,0,0,0-1-.48Zm-10.4,4.48.32-2.08-1.6-.8v2.4ZM327,269.6v-2.08l-1.28.48ZM341.92,256c1.28,0,3.2,1.6,3.36,4,0,1.6-2.72,1.6-2.72,1.6,0,.8-1.6,1.44-2.88,1.6-1.28,0,.32-2.4.32-2.4a6,6,0,0,1,.32-4.32l1.6-.48Z" fill="#f1b517" stroke="#000" stroke-width="0.2"/><path d="M340,260.8h1.28s0,.48.32.48.48-.64.48-.64H344" fill="#f1b517" stroke="#000" stroke-width="0.2"/><path d="M342.56,257.44c1.12-.8.16-2.4-.64-2.4h-1.6c-1,0-2.24,1-2.08,1.6a1,1,0,0,0,1.28,1c.32,0,1-1,1.28-1C341.28,256.64,342.4,257.6,342.56,257.44Z" fill="#d20014" stroke="#f1b517" stroke-width="0.2"/><path d="M262.72,279.68c-1,.16-1.12,1.28-.8,2.4-4.16,1.12-8,2.72-11.84,3.84-.16-.8,1.92-2.88,1.92-2.88.48.16,1,1.44,1,1.44,0-2.56,2.56-4.16,2.56-4.16-1.6-.32-5.92,1.6-6.4,2.24,0,0,1.6-.32,1.92,0,0,0-3.52,3.68-3.68,4.8.64,1.12,6.4,2.08,6.4,2.08,0,.32-1.6,1.6-1.6,1.6A10.71,10.71,0,0,0,259,288.8a10.15,10.15,0,0,1-4.8-2.08s.32,1.12,0,1.6c0,0-3.2-1-3.68-1.6,0,0,8-1.92,11.84-3.2.16.8,1,2.08,1.92,1.76.48-.16.32-1.28,0-2.24a1.29,1.29,0,0,0,1,.32,1.12,1.12,0,0,0,0-2.24,1.29,1.29,0,0,0-1.12.8c-.16-.8-.64-2.24-1.28-2.08Zm3.2,2.56c0,.32-.32.48-.64.48a.48.48,0,0,1-.61-.29.63.63,0,0,1,0-.19.69.69,0,0,1,.64-.64c.32,0,.48.32.48.64Z" fill="#f1b517" stroke="#000" stroke-width="0.2" fill-rule="evenodd"/><path d="M388.8,284.64c.32-.64,0-3.52,0-3.52-.8,0-1.6,1.12-1.6,1.12.8-2.56-1.28-6.4-1.28-6.4,1.44.16,6.24,4.8,6.4,5.76a8.66,8.66,0,0,0-2.4-.64c.48,2.4,2.08,3.52,2.72,4.8,0,0-2.72.48-2.56,2.88h-1.76c-.64-.8.16-2.08.16-2.08l-12.32-5.12c-.8-.32-2.56-1.28-2.24-2.24.16-.8,3.2.48,3.84.8l11.2,4.64Z" fill="#f1b517" stroke="#000" stroke-width="0.2"/><path d="M377,282.4l1.6-2.56c.48-.8-.64-1.6-1.44-.64l-1.6,2.4c-.64,1.44.8,1.76,1.6.8Z" fill="#f1b517" stroke="#000" stroke-width="0.2"/><path d="M290.2,288.6l-.1-3-3.5.3-.2,3.1,3.8-.4Z" fill="#fff" stroke="#000" stroke-width="0.3"/><path d="M264.4,292.7l-4.7-2.7c19.4,1.8,23.4-5,28.1-5.3,3-.3,3.3,3.2-2.3,1.5l1.5,3.6s-13.8,7.8-27.4,4.6Zm84.8-4.1.1-3,4.3.2.2,3.1-4.6-.3Z" fill="#fff" stroke="#000" stroke-width="0.3"/><path d="M375.9,292l4.5-2.5c-22.4.7-17.3-3.6-28.4-4.8-3-.4-5,3.4,2.2,1.5l-1.4,3.6h3.5c7.6,5,17.8,5.5,24.6,3.9l-5-1.7Z" fill="#fff" stroke="#000" stroke-width="0.3"/><path d="M285.5,286.3v5s12.3,4.6,34.4,4.6,34.4-4.6,34.4-4.6v-5s-9.3,4.3-34.4,4.3S285.5,286.3,285.5,286.3Z" fill="#fff" stroke="#000" stroke-width="0.3"/><path d="M287.3,291.3l1.1-3.7.5.2-1,3.2,2,.5-.2.5Zm3.6-1.6V289l.2-.7.6.2-.2.6-.3.7-.3-.1Zm5.3-.3.5.2-.4,2.1-.4,1a1.22,1.22,0,0,1-.5.4h-1a2,2,0,0,1-.9-.4,1,1,0,0,1-.4-.6l.1-1,.5-2.2.5.1-.5,2.2a2.15,2.15,0,0,0,0,.8.7.7,0,0,0,.2.4l.5.2h1l.4-1,.4-2.2Zm.6,4,.6-3.7h.6l1.5,3.4.5-3h.5l-.6,3.9-.5-.1-1.6-3.3-.5,3-.5-.1Zm4,.7.6-3.8h.5l-.5,3.8h-.6Zm1.6-1.7a1.75,1.75,0,0,1,.7-1.4,2,2,0,0,1,1.4-.4,1.69,1.69,0,0,1,1,.3l.5.8a1.18,1.18,0,0,1,.1,1,2.2,2.2,0,0,1-.3,1,1.7,1.7,0,0,1-.8.7,2.64,2.64,0,0,1-2-.2,1.68,1.68,0,0,1-.5-.8,2.12,2.12,0,0,1-.1-1Zm.5,0c0,.5,0,1,.3,1.2a1.05,1.05,0,0,0,.9.5,1.21,1.21,0,0,0,1-.3,1.6,1.6,0,0,0,.5-1,1.89,1.89,0,0,0,0-1,1.21,1.21,0,0,0-.5-.5,1.3,1.3,0,0,0-.7-.3,1.31,1.31,0,0,0-1,.3,2.25,2.25,0,0,0-.5,1.2Zm3.7,2.3.3-3.8h.6l1.8,3.2.2-3h.5l-.3,3.9h-.5l-1.9-3.2-.2,3h-.5Zm5.6.4.1-3.8,2.7.1v.5l-2.1-.1-.1,1.1,1.9.1v.5l-2-.1v1.8h-.5Zm3,.1,1.5-3.8h.6l1.5,4h-.6l-.4-1.3h-1.7l-.4,1.2h-.6Zm1-1.5h1.4l-.4-1c-.08-.3-.15-.6-.2-.9l-.2.8-.5,1.1Zm3.1,1.6v-3.8h.6v3.8Zm2.5,0V292h-1.3v-.4h3.1v.4h-1.3v3.4h-.5Zm4,0-.3-4h.6l.1,3.4h2v.4l-2.5.1Zm2.6-.2,1.2-4h.6l2,3.7h-.7l-.5-1h-1.7l-.3,1.3Zm1-1.7h1.4l-.5-1-.4-.9a4.27,4.27,0,0,1-.1.8Zm4.7,1.2-.4-3.8,2.6-.3.1.5-2.1.2v1.2l2-.2v.5l-1.9.2.2,1.7Zm3-2.1a1.68,1.68,0,0,1,1.5-2.3l1,.1a1.24,1.24,0,0,1,.8.6l.4,1-.1,1a1.64,1.64,0,0,1-.6.8,1.94,1.94,0,0,1-1.9.3,1.7,1.7,0,0,1-.8-.6,2,2,0,0,1-.4-1Zm.5-.1a1.23,1.23,0,0,0,.5,1,1.21,1.21,0,0,0,1,.3,1.39,1.39,0,0,0,1-.5,2.17,2.17,0,0,0,.2-1.2,1.9,1.9,0,0,0-.3-.8,1.28,1.28,0,0,0-.6-.5,1.38,1.38,0,0,0-.7,0,1.28,1.28,0,0,0-1,.4,2.52,2.52,0,0,0-.1,1.3Zm4.1,1.3-.6-3.8,1.7-.3h.8c.2,0,.4,0,.5.2l.3.6a.84.84,0,0,1-.2.7,1.28,1.28,0,0,1-.7.5,1.76,1.76,0,0,1,.3.1l.5.5,1,.9h-.7l-.7-.6c-.16-.17-.33-.34-.5-.5a1.21,1.21,0,0,0-.3-.2.76.76,0,0,0-.3,0h-.3l-.6.1.4,1.7h-.6Zm.2-2.2,1-.2a1.85,1.85,0,0,0,.6-.2.61.61,0,0,0,.3-.6.57.57,0,0,0-.2-.4h-.7l-1.3.1.3,1.3Zm6.3-.4h.5a1.49,1.49,0,0,1-.3,1,2.06,2.06,0,0,1-1,.6,2.11,2.11,0,0,1-1,0,1.64,1.64,0,0,1-.8-.6,2.48,2.48,0,0,1-.5-1,2.11,2.11,0,0,1,0-1,1.35,1.35,0,0,1,.5-.9l.9-.4h1a1.56,1.56,0,0,1,.8.8l-.5.2a1.21,1.21,0,0,0-.5-.5,1.05,1.05,0,0,0-.7,0,1,1,0,0,0-.7.3,1.09,1.09,0,0,0-.3.7v.7a2.41,2.41,0,0,0,.4.8.68.68,0,0,0,.6.4h.7a1.11,1.11,0,0,0,.6-.3,1.14,1.14,0,0,0,.3-.8Zm1.4,1-1-3.7,2.7-.7.2.4-2.3.6.3,1.1,2.1-.5.2.4-2.2.6.4,1.2,2.4-.6v.4l-2.8.8Z"/></svg>