<svg id="flag-icons-im" xmlns="http://www.w3.org/2000/svg" xmlns:xlink="http://www.w3.org/1999/xlink" viewBox="0 0 687.52 481.28"><defs><clipPath id="clip-path" transform="translate(23.08)"><rect x="-0.14" width="641.64" height="481.28" fill="none"/></clipPath></defs><title>im</title><g clip-path="url(#clip-path)"><path d="M664.44,481.28H-23.08V0H664.44Z" transform="translate(23.08)" fill="#ba0000" fill-rule="evenodd"/><path d="M336.94,353.44a40.51,40.51,0,0,0,.38-6.39c-.19,0-8.84-10.25-8.65-10.25s11.09,2.45,11.09,2.07,4.42-10.81,4.42-11l5.26,12.69,10.81,4.7-7.52,6.3,1.6,12.22c0,.28-7.52-7.14-7.52-7.14l-8.37.94a28.22,28.22,0,0,0-1.5-4.14Z" transform="translate(23.08)" fill="#ffef00" stroke="#000" stroke-width="2.2" fill-rule="evenodd"/><path d="M278.38,194.49c-7.24,3.76-34.78,35.25-38.54,40.13a72.77,72.77,0,0,1-15.79,22c-6.87,5.17-10.63,12.22-9.69,18.8,0,8.46,4.61,14.1,8.28,19.83a12.1,12.1,0,0,0,8.27,4.7c6.48.76,7.05,2.82,10.34,3.95C253.84,321.2,272.83,334,286.37,344a64.16,64.16,0,0,1,16.92,11.66,30.44,30.44,0,0,1,2.63,18.8l-10.06,38.16c-1.78,10.34,7.33,8.08,7.8,6,4-5.36,10.16-1.6,18.8-32.25l12-16.07s4.6-1.88,4.6-2.35c7-8.46,1.69-13.16-2.35-14.76l-8.65-3.19S318,339.9,317.48,339.9c-4.79-14-28.48-43.8-33.93-47.94a39.65,39.65,0,0,0-9.21-7.89c-5.55-2.63-7.34-3.57-10.72-4.89-2.82-1.13-.85-4.23.94-5.64,18.8-10.25,33.56-21.53,51.51-33l2.82-1.88-6.48-36.85-29.9-10.53A50.7,50.7,0,0,0,278.38,194.49Z" transform="translate(23.08)" fill="#fff" stroke="#000" stroke-width="2.6" fill-rule="evenodd"/><path d="M303.38,388.31c0-.37,18.8-3.76,18.8-3.76l-2.35,7-18.52,5.64,2.07-8.74Z" transform="translate(23.08)" fill="#ffec00" fill-rule="evenodd"/><path d="M254.78,318.19A35.66,35.66,0,0,1,275.09,299" transform="translate(23.08)" fill="none" stroke="#000" stroke-width="2.2"/><path d="M302.72,388.5c1.23-.28,6.58-1.88,8.09-2.16A41.37,41.37,0,0,0,315.7,385c1.88-.37,3-.75,4.88-1a38.59,38.59,0,0,1,4.7-1.32m-25.94,17.39a13.75,13.75,0,0,1,2.35-1.88c1-.37,4.7-1.88,6.11-2.16s3-.81,4.42-1.31l4.32-1.13a34.8,34.8,0,0,1,4.14-1.32" transform="translate(23.08)" fill="none" stroke="#000" stroke-width="2.4"/><path d="M306.86,320.92h-.19c.75,0,.28,0-.84,1.31-.38,1-3.76,3.48-6.4,3.48-1.46.16-2.94.25-4.41.28l-1.23-.28M306.67,376H308c1.41,0,2.82.28,3.95.28,1.41,0,2.72.38,4,.38,1.41.19,3,.09,4.42.37,1.5,0,2.82.29,4.41.29,1.32.09,2.07.28,3.48.28l-3.48-.28c1.32.09,2.07.28,3.48.28m-30.74,31a12.52,12.52,0,0,1,2.17-1.88c.94-.28,4.32-1.88,5.64-2.07,1.33-.41,2.65-.88,3.94-1.41l4.05-.94a18.14,18.14,0,0,1,3.76-1.41m5.45-38.73c-.75,2.16.28,2.73.66,3.67a11.23,11.23,0,0,0,5.35,3.19,20,20,0,0,1,3.2,1.13,5.46,5.46,0,0,1,1.88.47M216.71,281.53H217c-.85,0-.29.09,1-.94.94-1,1.6-1.5,2.44-2.54M234,300.61c.19,0,15.6-7.71,17.2-9.4l3.48-2.72a21.84,21.84,0,0,0,2.44-1.6c.66-.94,1.6-1.6,2.17-2.54.94-.85.47-1.69,1.31-2.73l1.22-3.57m19.56,11.47c.09.56-.19,2.26-.19,3.57,0,1.51-2,6.11-4.33,7.52" transform="translate(23.08)" fill="none" stroke="#000" stroke-width="2.2"/><path d="M253.84,289.33l6.3,2c4.7,1.69,14.48,7.89,15.51,8.74s2.82,1.5,3.39,2.35a20,20,0,0,1,2.72,3,16.09,16.09,0,0,1,2.35,3.19,106,106,0,0,1,12.6,23,16.37,16.37,0,0,1,1.6,2.63,17.08,17.08,0,0,0,1.88,2.92,27.62,27.62,0,0,0,3.19,2.44c1.22,1,2.35,1.41,3.29,2.16,1.22.57,15.32,9.4,16,9.87,1.32,1,5.17,5.08,2.45,8.09-1.13.94-2.26,2.35-3.2,2.82a8.91,8.91,0,0,1-3.67,2.07,26.69,26.69,0,0,1-10.81,1.22h-1.31m-83.47-108c1.88.75,1.12.19,2.72.94,1.13.47,1.88.47,2.82.94,1.22.28,4.42.94,5.92,2.45a16.13,16.13,0,0,0,3.2,2.53,20.45,20.45,0,0,0,4.32,2.26,14.66,14.66,0,0,0,4.7,1.22h7.34" transform="translate(23.08)" fill="none" stroke="#000" stroke-width="2.2"/><path d="M222.26,275.7c4-.28,10.62.94,10.81.94l8.84-.19c4.7-.37,5.64-2.16,6.39-3.47,1.78-2.64,2.91-3.58,4.32-5.64,2.07-1.51,5.08,2.16,5.17,2.16,7.52,7.14,1.51,15.79,1.13,16.07-3.76,3.48-4.61,3.67-6.86,1.51-2.26-2.73-2.92-3.95-4.8-4.89-3.66-1.69-11.09-.38-11.28-.38l-3.85,1.51c-1.88.65-3,2.25-6.11,2.82-3.29.18-4.32-.1-5.92-2.73-2.16-3.29-1.13-7.33,2.16-7.71Z" transform="translate(23.08)" fill="#ffe606" stroke="#000" stroke-width="2.2" fill-rule="evenodd"/><path d="M431.69,113.46a30.77,30.77,0,0,0-5.83,2.82c.1.09-4.51,12.69-4.6,12.59s-3.29-11-3.67-10.81-11.56,1.51-11.65,1.6l8.46-10.81L413.17,97.1l9.22,3.57,9.87-7.52c.18-.09-2.54,10.16-2.54,10.16l4.89,6.76S431.79,112.89,431.69,113.46Z" transform="translate(23.08)" fill="#ffef00" stroke="#000" stroke-width="2.2" fill-rule="evenodd"/><path d="M321.9,242.43c6.67,4.41,47.66,13.06,53.86,13.91a72.2,72.2,0,0,1,26.89,3c7.8,3.38,15.79,3.19,21.15-.94,7.33-4,10-10.72,13.16-16.92a11.34,11.34,0,0,0,0-9.4c-2.45-6-.94-7.52-1.51-10.91,8.84-19.55,10.72-42.3,12.79-59.12-.19-9.87.84-17.39,1.88-20.4a30.09,30.09,0,0,1,15-11.47l38.25-10c10-3.58,3.48-10.34,1.41-9.78-6.58-.94-6.39-8.08-37.31-.66l-19.93-2.54s-3.76-3.1-4.23-2.82c-10.81-2-12.32,5-11.75,9.22l1.5,9.21s-3.85,13.72-3.66,14.1c-9.87,11.09-24.44,46.62-25.38,53.48-.47,6.4-2.82,5.17-2.26,11.47,0,4.89-.56,1.88,1,11.85.47,3-3.29,2.82-5.35,1.88-18.05-11.28-35.16-18.71-54.05-28.67l-2.92-1.51-28.95,23.69L317,240.36a41.14,41.14,0,0,0,4.8,2.07Z" transform="translate(23.08)" fill="#fff" stroke="#000" stroke-width="2.6" fill-rule="evenodd"/><path d="M478.6,125.58q-6.45-7.06-12.5-14.47l7.14-1.41,13.91,13.44Z" transform="translate(23.08)" fill="#ffec00" fill-rule="evenodd"/><path d="M441.28,202.29a35.69,35.69,0,0,1-26.7-8.27" transform="translate(23.08)" fill="none" stroke="#000" stroke-width="2.2"/><path d="M479.07,126.05a71.41,71.41,0,0,1-5.83-6q-1.71-1.86-3.57-3.57c-1.22-1.41-2.16-2.26-3.39-3.76a34.89,34.89,0,0,1-3.38-3.39m27.82,14.1a15.55,15.55,0,0,1-2.82-1.13c-.75-.84-3.94-3.19-4.79-4.32q-1.58-1.66-3.29-3.2c-1.13-1.22-2-1.88-3.1-3.29a27.59,27.59,0,0,1-3.2-2.82" transform="translate(23.08)" fill="none" stroke="#000" stroke-width="2.4"/><path d="M418.06,155.57l.1.28c-.38-.75-.19-.28,1.59,0,1.13-.19,4.89,1.6,6.11,3.86a31.44,31.44,0,0,1,2.45,3.76c.19.28.19.94.37,1.22m37.6-35.91-.18-.19-.57-.94L463.84,124c-.66-1.13-.94-2.54-1.6-3.67-.56-1.32-1.41-2.63-1.88-3.95-.75-1.41-1.13-2.63-1.88-4.13-.66-1.13-.75-1.88-1.5-3.11l1.5,3.11c-.66-1.13-.75-1.88-1.5-3.11m42.11,11.57a11.62,11.62,0,0,1-2.63-.94c-.75-.66-3.76-2.82-4.7-3.76s-2-1.93-3.1-2.82c-.94-1.23-1.79-1.88-2.82-3.11a24.29,24.29,0,0,1-3-2.53m-36.57,14.1c2.35-.38,2.35-1.51,2.92-2.35a10.49,10.49,0,0,0,.18-6.21l-.56-3.29a5.74,5.74,0,0,1-.47-1.88m-20.4,145.51-.09-.18c.37.75.19.28-1.51-.47l-3.29-.94M436.11,229c-.09-.18-14.38-9.77-16.64-10.34-1.31-.65-2.54-.94-4-1.69l-2.63-1.31a25.17,25.17,0,0,0-3.29-.66c-1.13-.38-1.79.37-3,.19l-3.76.65m.47-22.65c.38-.38,2.07-.94,3.2-1.6,1.31-.66,6.29-1.22,8.64.1" transform="translate(23.08)" fill="none" stroke="#000" stroke-width="2.2"/><path d="M416.56,217.33l-1.41-6.58a93.14,93.14,0,0,1,0-17.67c.19-1.23,0-3.2.47-4.23a24.66,24.66,0,0,1,1.22-3.76,33.07,33.07,0,0,1,1.6-3.67c.66-3.76,11.28-18.89,12-19.65.59-.87,1.22-1.71,1.88-2.53a20.84,20.84,0,0,1,1.5-2.82,10.93,10.93,0,0,0,1.7-3c.09-1,.56-2.73.56-3.95.28-1.6,0-2.82.28-3.85-.19-1.41.66-18.05.75-18.8.29-1.7,1.88-7,5.83-6.11a21.32,21.32,0,0,1,4.14,1.41,12.11,12.11,0,0,1,3.48,2.16A28.33,28.33,0,0,1,457,133.1l.66,1.13m-53.4,125.21-.09-.19c.38.66.19.28-.28-1-.1-1.22-.47-2.82-.66-4s-.85-2.54-.66-3.29a5.89,5.89,0,0,1,0-3.38,19.85,19.85,0,0,0,.47-3.95c.19-1.88,0-3,.1-4.7a31.48,31.48,0,0,0-1.23-3.95L400,231.24,398.13,228l1.88,3.2-1.88-3.2" transform="translate(23.08)" fill="none" stroke="#000" stroke-width="2.2"/><path d="M420.13,251.54c-2.16-3.38-4.42-9.77-4.51-9.87L411.2,234c-2.63-3.76-4.7-3.76-6.2-3.76-3.2-.29-4.61-.94-7-1-2.44-1.13-.66-5.54-.75-5.64,2.54-10,13.16-9,13.53-8.83,4.8,1.59,5.36,2.25,4.61,5.26-1.22,3.29-1.88,4.51-1.88,6.58.28,4,5.17,9.87,5.17,10l3.2,2.64c1.5,1.31,3.47,1.5,5.45,4,1.78,2.72,2.07,3.76.56,6.39C426.05,253.14,422.1,254.18,420.13,251.54Z" transform="translate(23.08)" fill="#ffe606" stroke="#000" stroke-width="2.2" fill-rule="evenodd"/><path d="M171.69,158.58c.47.37,5.45,3.48,5.64,3.29s13.16-3.2,13-3-7.33,8.74-7,8.93,7.52,8.84,7.71,8.93l-13.63-1.13-9.21,7.33-2.07-9.58-11.56-4.14c-.19-.09,9.87-3.38,9.87-3.38l3-7.81a40.5,40.5,0,0,0,4.42.57Z" transform="translate(23.08)" fill="#ffef00" stroke="#000" stroke-width="2.2" fill-rule="evenodd"/><path d="M339.76,179.82c0-8.18-15.23-47.19-17.86-52.73a72.62,72.62,0,0,1-12.22-24.16c-1.41-8.46-5.92-15-12.22-17.3C290,81.78,282.89,83.28,276,83.94a11.79,11.79,0,0,0-7.9,5.17c-3.76,5.36-5.73,4.89-8.36,7.24-21.15,3.29-41.18,14.19-56.4,21.62a64.11,64.11,0,0,1-18.15,9.59,30.11,30.11,0,0,1-17.86-6.21l-29.23-26.6c-8.46-6.3-10.53,2.82-8.93,4.23,2.82,6-3.29,9.68,19.93,31.59l8.74,18s-.47,4.89,0,5.08c4.14,10.15,10.9,7.61,14.1,4.79l6.86-6.29s13.63-4.33,13.82-4.7c14.66,2.16,52.45-5,58.66-8,5.64-3.11,5.92-.47,10.81-4.42,4-2.73,1.88-.57,9.4-7.43,2.25-1.88,4,1.22,4.51,3.48.37,21.34,3.57,39.67,5.54,60.91l.38,3.29,35.72,11.28L340.79,185l-.94-5.26Z" transform="translate(23.08)" fill="#fff" stroke="#000" stroke-width="2.6" fill-rule="evenodd"/><path d="M156.18,112.61c.28.28-5.27,18.43-5.27,18.43l-5.07-5.17,3.57-19.09Z" transform="translate(23.08)" fill="#ffec00" fill-rule="evenodd"/><path d="M240.87,101.9c6.77,7.52,8.93,19.92,7.71,26.88" transform="translate(23.08)" fill="none" stroke="#000" stroke-width="2.2"/><path d="M156.46,112c-.28,1.23-1.41,6.77-1.88,8.18q-.66,2.48-1.13,5L152.14,130a27.94,27.94,0,0,1-.94,4.7m-3.48-31a19.88,19.88,0,0,1,.56,2.92,60.65,60.65,0,0,1-.94,6.48c-.35,1.49-.63,3-.84,4.51l-.94,4.33a28.72,28.72,0,0,1-.76,4.32" transform="translate(23.08)" fill="none" stroke="#000" stroke-width="2.4"/><path d="M214.46,146.92l.09-.28c-.37.75,0,.28-.75-1.32-.85-.94-1.32-5-.19-7.33.57-1.37,1.2-2.72,1.88-4,.1-.28.57-.66.75-.94m-50.57-11.75-.09.19-.57.94a39.59,39.59,0,0,1-2.06,3.48c-.57,1.22-1.6,2.16-2.17,3.38L158.53,133c-.85,1.32-1.69,2.35-2.45,3.76l-1.88,3,1.88-3-1.88,3M140.86,98.14a9.16,9.16,0,0,1,.75,2.82c-.19.94-.38,4.7-.75,5.92L140.2,111c-.38,1.51-.47,2.54-.94,4a24.93,24.93,0,0,1-.47,3.94m31.77,22.94c-1.6-1.79-2.54-1.13-3.57-1.22a11.27,11.27,0,0,0-5.36,3.29,20.44,20.44,0,0,1-2.44,2.35,6.49,6.49,0,0,1-1.32,1.41M290.88,85l-.09.28c.37-.75.09-.38.47,1.41.47,1.22.47,2.07.94,3.19M266,91.56c0,.18-.28,17.39.47,19.64.19,1.41.56,2.54.75,4.33a27.25,27.25,0,0,0,.38,2.82c.56,1.12.66,2.25,1.31,3.1.29,1.22,1.23,1.31,1.79,2.35a19.86,19.86,0,0,0,2.63,2.82M254,138.74c-.56-.18-1.88-1.31-3-1.88-1.31-.75-4.6-4.6-4.7-7.33" transform="translate(23.08)" fill="none" stroke="#000" stroke-width="2.2"/><path d="M266.91,114.3l-4.7,4.7a88.72,88.72,0,0,1-14.85,9.69c-1.13.56-2.54,1.88-3.76,2a18.81,18.81,0,0,1-3.76,1,106.07,106.07,0,0,1-27,1.41c-1.07,0-2.13-.08-3.2-.18a30.19,30.19,0,0,1-3.1.18,19.18,19.18,0,0,0-3.48.29c-.94.56-2.53,1-3.66,1.78-1.41.57-2.35,1.41-3.39,1.88-.94.85-15.41,9.21-16.16,9.59-1.51.66-6.87,2.35-8.28-1.5a35,35,0,0,1-1-4.23c-.47-1.32-.19-2.82-.19-4.14a28.09,28.09,0,0,1,3.95-10.15l.66-1.13m133.76-24-.09.28c.28-.66.18-.37-.76.75a28.56,28.56,0,0,0-2.91,2.82c-.94.76-1.69,1.88-2.44,2.26a7.52,7.52,0,0,1-2.82,1.88,19.31,19.31,0,0,0-3.58,1.79,39.84,39.84,0,0,0-3.94,2.44,22.13,22.13,0,0,0-2.64,3.2,34.6,34.6,0,0,0-2.16,3.66l-1.69,3.29,1.69-3.29-1.69,3.29m11,68.72.28-.47c-.47.94-.38.65.09-.85,0-1.69.47-3.85.47-5.45a31.34,31.34,0,0,0,.57-5.17c-.1-1.88-.1-3.76-.38-5.64,0-1.69-.28-3.48-.28-5.27a19.82,19.82,0,0,0-.56-4.7,28.4,28.4,0,0,0-.38-4.51,8.87,8.87,0,0,0-.47-3.19l-1.13-4.8-.94-3.85a30.34,30.34,0,0,0-1.31-4.61,12.42,12.42,0,0,1-1-3.19,11.22,11.22,0,0,1-1.22-3.39l-1.5-3.48-1.32-3.38c-.47-1.32-1-2.44-1.41-3.76a3.86,3.86,0,0,1-.75-1.32" transform="translate(23.08)" fill="none" stroke="#000" stroke-width="2.2"/><path d="M293.61,92.59a55.78,55.78,0,0,1-5.83,9.12l-3.95,7.89c-1.69,4.33-.66,6.11.09,7.34,1.6,2.82,1.88,4.32,3,6.39.47,2.63-4.23,3.57-4.23,3.66-9.77,3.39-14.76-6-14.76-6.48-1.31-4.89-1.12-5.64,1.88-6.68,3.39-.84,4.7-.94,6.4-2.06,3.29-2.45,5.54-9.69,5.64-9.78l.37-4.14c.28-1.88-.56-3.76.38-6.76,1.31-3,2.07-3.76,5.07-4C291.63,86.76,294.73,89.49,293.61,92.59Z" transform="translate(23.08)" fill="#ffe606" stroke="#000" stroke-width="2.2" fill-rule="evenodd"/><path d="M280.82,187.72c-1.5-1.41,27.64,10.53,31.68,10.62,5.45-2,28.11-21.06,28.11-21.06.18,1.88,1,6.68,3.19,7.71-8.74,7-16.64,13.91-25.38,21,.57,11.28-1.41,23.22,4.23,35.72,0,0-6.77.19-6.77,0-6-6-8.17-35-8.17-35l-28.77-12.79c1.41-.94,2.45-3.66,1.88-6.3Z" transform="translate(23.08)" fill="#ffef00" stroke="#000" stroke-width="2.2" fill-rule="evenodd"/><path d="M308.55,217.42c.47-.37-5.26,2.63-6.77,3.39a125.89,125.89,0,0,0-40.89,35.53l-2.06,3.19-2.17,2.82a53.77,53.77,0,0,1-3.38,4.42c-.19.57.38-.28.19.19m73.22-66.36A73.39,73.39,0,0,0,332.8,205a124.62,124.62,0,0,0,50.29,20.21c.94,0,2.35.29,3.76.47,1.13,0,2.45.38,3.58.47,1.31.19,4.13.76,5.45,1.13.56-.19-.47-.28,0-.37" transform="translate(23.08)" fill="none" stroke="#000" stroke-width="2.2"/></g></svg>