<svg id="flag-icons-io" xmlns="http://www.w3.org/2000/svg" xmlns:xlink="http://www.w3.org/1999/xlink" viewBox="0 0 960 480"><defs><clipPath id="clip-path"><rect width="640.03" height="480" fill="none"/></clipPath></defs><title>io</title><g clip-path="url(#clip-path)"><path d="M0,0H960V480H0Z" fill="#fff" fill-rule="evenodd"/><path d="M960,417.38c-10.78,6.56-20,21.56-48.56,21.56-57.19,0-71.44-31.78-114.38-31.78-28.5,0-42.75,31.87-71.34,31.87-57.19,0-71.44-31.87-114.38-31.87-28.5,0-42.75,31.87-71.25,31.87-57.18,0-71.53-31.87-114.37-31.87-28.59,0-42.84,31.87-71.44,31.87-57.19,0-71.44-31.87-114.28-31.87-28.59,0-42.84,31.87-71.44,31.87-57.18,0-71.43-31.87-114.28-31.87-28.59,0-37.12,22.68-54.28,22.68v41c17.16,0,25.69-22.68,54.38-22.68,42.75,0,57.09,31.87,114.18,31.87,28.6,0,42.85-31.87,71.44-31.87,42.84,0,57.19,31.87,114.38,31.87,28.5,0,42.75-31.87,71.34-31.87C468.56,448.13,482.91,480,540,480c28.59,0,42.84-31.87,71.44-31.87,42.84,0,57.19,31.87,114.28,31.87,28.59,0,42.84-31.87,71.44-31.87C840,448.13,854.34,480,911.44,480c28.59,0,37.78-9,48.56-15.47V417.38Zm0-79.6c-10.78,6.56-20,21.56-48.56,21.56-57.19,0-71.44-31.87-114.38-31.87-28.5,0-42.75,31.87-71.34,31.87-57.19,0-71.44-31.87-114.38-31.87-28.5,0-42.75,31.87-71.25,31.87-57.18,0-71.53-31.87-114.37-31.87-28.59,0-42.84,31.87-71.44,31.87-57.19,0-71.44-31.87-114.28-31.87-28.59,0-42.84,31.87-71.44,31.87-57.18,0-71.43-31.87-114.28-31.87-28.59,0-37.12,22.78-54.28,22.78v41c17.16,0,25.69-22.69,54.38-22.69,42.75,0,57.09,31.88,114.18,31.88,28.6,0,42.85-31.88,71.44-31.88,42.84,0,57.19,31.88,114.38,31.88,28.5,0,42.75-31.88,71.34-31.88,42.84,0,57.19,31.88,114.37,31.88,28.5,0,42.75-31.88,71.35-31.88,42.84,0,57.19,31.88,114.28,31.88,28.59,0,42.84-31.88,71.44-31.88,42.84,0,57.18,31.88,114.28,31.88,28.59,0,37.78-9,48.56-15.47V337.78Zm0-79.59c-10.78,6.56-20,21.56-48.56,21.56-57.19,0-71.44-31.87-114.38-31.87-28.5,0-42.75,31.87-71.34,31.87-57.19,0-71.44-31.87-114.38-31.87-28.5,0-42.75,31.87-71.25,31.87-57.18,0-71.53-31.87-114.37-31.87-28.59,0-42.84,31.87-71.44,31.87-57.19,0-71.44-31.87-114.28-31.87-28.59,0-42.84,31.87-71.44,31.87-57.18,0-71.43-31.87-114.28-31.87-28.59,0-37.12,22.78-54.28,22.78v41c17.16,0,25.69-22.69,54.38-22.69,42.75,0,57.09,31.87,114.18,31.87,28.6,0,42.85-31.87,71.44-31.87,42.84,0,57.19,31.87,114.38,31.87,28.5,0,42.75-31.87,71.34-31.87,42.84,0,57.19,31.87,114.37,31.87,28.5,0,42.75-31.87,71.35-31.87,42.84,0,57.19,31.87,114.28,31.87,28.59,0,42.84-31.87,71.44-31.87,42.84,0,57.18,31.87,114.28,31.87,28.59,0,37.78-9.09,48.56-15.56V258.19Zm0-79.6c-10.78,6.47-20,21.57-48.56,21.57-57.19,0-71.44-31.88-114.38-31.88-28.5,0-42.75,31.88-71.34,31.88-57.19,0-71.44-31.88-114.38-31.88-28.5,0-42.75,31.88-71.25,31.88-57.18,0-71.53-31.88-114.37-31.88-28.59,0-42.84,31.88-71.44,31.88-57.19,0-71.44-31.88-114.28-31.88-28.59,0-42.84,31.88-71.44,31.88-57.18,0-71.43-31.88-114.28-31.88-28.59,0-37.12,22.78-54.28,22.78v41c17.16,0,25.69-22.69,54.38-22.69,42.75,0,57.09,31.88,114.18,31.88,28.6,0,42.85-31.88,71.44-31.88,42.84,0,57.19,31.88,114.38,31.88,28.5,0,42.75-31.88,71.34-31.88,42.84,0,57.19,31.88,114.37,31.88,28.5,0,42.75-31.88,71.35-31.88,42.84,0,57.19,31.88,114.28,31.88,28.59,0,42.84-31.88,71.44-31.88,42.84,0,57.18,31.88,114.28,31.88,28.59,0,37.78-9.09,48.56-15.56V178.59Zm0-79.68c-10.78,6.56-20,21.65-48.56,21.65-57.19,0-71.44-31.87-114.38-31.87-28.5,0-42.75,31.87-71.34,31.87-57.19,0-71.44-31.87-114.38-31.87-28.5,0-42.75,31.87-71.25,31.87-57.18,0-71.53-31.87-114.37-31.87-28.59,0-42.84,31.87-71.44,31.87-57.19,0-71.44-31.87-114.28-31.87-28.59,0-42.84,31.87-71.44,31.87-57.18,0-71.43-31.87-114.28-31.87C25.69,88.78,17.16,111.56,0,111.56v41c17.16,0,25.69-22.69,54.28-22.69,42.85,0,57.19,31.88,114.38,31.88,28.5,0,42.75-31.88,71.34-31.88,42.84,0,57.19,31.88,114.38,31.88,28.49,0,42.75-31.88,71.25-31.88,42.93,0,57.18,31.88,114.37,31.88,28.59,0,42.84-31.88,71.44-31.88,42.84,0,57.19,31.88,114.28,31.88,28.59,0,42.84-31.88,71.44-31.88,42.84,0,57.18,31.88,114.28,31.88,28.5,0,37.78-9.09,48.56-15.56V98.91Zm0-79.5C949.22,25.88,940,41,911.44,41,854.25,41,840,9.09,797.06,9.09,768.56,9.09,754.31,41,725.72,41,668.53,41,654.28,9.09,611.34,9.09,582.84,9.09,568.59,41,540.09,41,482.91,41,468.56,9.09,425.72,9.09,397.13,9.09,382.88,41,354.28,41,297.09,41,282.84,9.09,240,9.09,211.41,9.09,197.16,41,168.56,41,111.38,41,97.13,9.09,54.28,9.09,25.69,9.09,17.16,31.88,0,31.88V72.94c17.16,0,25.69-22.69,54.28-22.69,42.85,0,57.19,31.88,114.38,31.88,28.5,0,42.75-31.88,71.34-31.88,42.84,0,57.19,31.88,114.38,31.88,28.49,0,42.75-31.88,71.25-31.88,42.93,0,57.18,31.88,114.37,31.88,28.59,0,42.84-31.88,71.44-31.88,42.84,0,57.19,31.88,114.28,31.88,28.59,0,42.84-31.88,71.44-31.88,42.84,0,57.18,31.88,114.28,31.88,28.5,0,37.78-9.1,48.56-15.57V19.41Z" fill="#000063" fill-rule="evenodd"/><path d="M0,0H245V148.13H0Z" fill="#000063" fill-rule="evenodd"/><path d="M0,0V16.59L217.59,148.13H245v-16.6L27.47.09H0ZM245,0V16.59L27.47,148.13H0v-16.6L217.59.09H245Z" fill="#fff"/><path d="M102.09,0V148.13h40.78V0H102.09ZM0,49.5V98.81H245V49.41H0Z" fill="#fff"/><path d="M0,59.25V88.88H245V59.25ZM110.25,0V148.13h24.47V0ZM0,148.13,81.66,98.72H99.94L18.28,148.13ZM0,0,81.66,49.41H63.37L0,11.06V0ZM145,49.41,226.69.09H245L163.41,49.41ZM245,148.13,163.41,98.72h18.18L245,137.06Z" fill="#c00"/><path d="M356.08,112.27,352.63,438c0,17.14,15.5,17.14,17.15,0l-3.43-325.69Z" fill="#a24300" stroke="#fff" stroke-width="6.9" fill-rule="evenodd"/><path d="M391.59,233.39l-10.8-11.84-2.65,12-4.7-17.31-4.37,8.71-.79-18.44-4.37,8.73-.78-18.44-4.38,8.71-2.5-21.67-4.37,8.73-2.5-21.67L345,179.57l-2.5-21.68-1.25-10.84,2.18-4.35,5.65,2.11,9.07,8.6,18.12,17.2L365,166.38l18.12,17.19-11.25-4.25L390,196.51l-11.24-4.23,16.41,14L383.93,202l16.41,14-11.25-4.24,12.47,15.07-13-7.49,3,14.09Z" fill="#006d00" stroke="#fff" stroke-width="8.3" fill-rule="evenodd"/><path d="M391.59,233.39l-48.12-90.68m32.79,27.88-25.95-14.93L345,179.57" fill="none" stroke="#000"/><path d="M383.15,183.57l-26-14.95-5.31,23.91" fill="none" stroke="#000"/><path d="M390,196.51l-26-14.95-5.31,23.91" fill="none" stroke="#000"/><path d="M395.19,206.24l-24.25-11.71-7,20.67" fill="none" stroke="#000"/><path d="M400.35,216l-24.26-11.74-7,20.68" fill="none" stroke="#000"/><path d="M401.56,226.78l-22-16.06L378.1,233.5" fill="none" stroke="#000"/><path d="M265.18,78.74l17.62,6.7-5.13-13.31,15.4,15.16-1.45-10.87,12.46,18.17-1.47-10.88,12.46,18.17L313.62,91l16.12,20.6-1.47-10.89,16.13,20.61L343,110.45l16.12,20.61,8.07,10.3.73,5.44-6.62.6-13.95-4.3-27.87-8.57,13.2-1.16-27.88-8.57L318,123.66l-27.88-8.57,13.2-1.16-24.21-6.14,13.22-1.15L268.1,100.5l13.2-1.16-21.24-9.15L277,91.47,265.23,78.72Z" fill="#006d00" stroke="#fff" stroke-width="8.3" fill-rule="evenodd"/><path d="M265.18,78.74,367.83,146.8m-48.38-12.25,33.75,2.52L343,110.45" fill="none" stroke="#000"/><path d="M304.75,124.8l33.77,2.54-10.25-26.62" fill="none" stroke="#000"/><path d="M290.1,115.09l33.77,2.54L313.62,91" fill="none" stroke="#000"/><path d="M279.09,107.79l30.1.11-6.58-24.19" fill="none" stroke="#000"/><path d="M268.08,100.48l30.12.13-6.58-24.19" fill="none" stroke="#000"/><path d="M260.06,90.19l30.78,5.56L277.71,72.12" fill="none" stroke="#000"/><path d="M469.92,101.47l-14.66,10.75L471.45,114l-22.58,5.36,12,3.58-24.47,1.78,12.06,3.58L424,130.09l12,3.58-28.59,3.57,12.06,3.57-28.6,3.57L403,148l-28.59,3.56-14.32,1.79-6-1.79,2.24-5.38,10.54-9,21.07-17.87-4.51,10.72,21.07-17.88-4.53,10.74L421,105l-4.51,10.73,16.93-16.09L428.9,110.4l16.93-16.09L441.33,105l18.8-12.48-8.66,12.52,18.45-3.55Z" fill="#006d00" stroke="#fff" stroke-width="8.3" fill-rule="evenodd"/><path d="M469.92,101.47l-115.86,50m33.81-32.16-17.26,25L403,148" fill="none" stroke="#000"/><path d="M404.46,112.17l-17.29,25.06,32.37,3.58" fill="none" stroke="#000"/><path d="M421,105l-17.29,25.06,32.36,3.58" fill="none" stroke="#000"/><path d="M433.42,99.67l-13.15,23.26,28.23,5.38" fill="none" stroke="#000"/><path d="M445.85,94.3l-13.17,23.28L460.91,123" fill="none" stroke="#000"/><path d="M460.13,92.55,441,114l30.48.06" fill="none" stroke="#000"/><path d="M467.58,209.84l-18.27-5.28,6.54,12.85-17-13.88,2.61,10.71-14.36-17.11,2.63,10.73-14.36-17.11L418,201.46l-18.27-19.24L402.39,193l-18.27-19.24,2.62,10.71-18.27-19.24-9.15-9.62L358,150.2l6.53-1.12,14.35,3.17,28.68,6.33-13,2.2,28.67,6.33-13,2.18,28.68,6.33-13,2.2,24.77,4.2-13.05,2.19,24.77,4.2-13,2.19L471.44,198l-16.95.05,13,11.78Z" fill="#006d00" stroke="#fff" stroke-width="8.3" fill-rule="evenodd"/><path d="M467.58,209.84,358.05,150.2m49.5,8.37-33.88.16,13.07,25.69" fill="none" stroke="#000"/><path d="M423.22,167.11l-33.89.14L402.39,193" fill="none" stroke="#000"/><path d="M438.86,175.62l-33.9.15L418,201.46" fill="none" stroke="#000"/><path d="M450.61,182l-30,2.27,9.15,23.57" fill="none" stroke="#000"/><path d="M462.36,188.42l-30,2.26,9.16,23.56" fill="none" stroke="#000"/><path d="M471.44,198l-31.24-3.11,15.61,22.49" fill="none" stroke="#000"/><path d="M277.29,216.12l9.15-12.82-14,2,17.26-9.8-11-.5,19.85-7-11-.48,19.84-7.05-11-.5,22.78-9.55-11-.48,22.77-9.56-11-.5,22.77-9.55,11.4-4.79,5.51.25-.34,5.28-6.23,10.3-12.46,20.59.71-10.54L328.71,192l.72-10.55L317,202l.7-10.54-9.52,18.08.72-10.55-9.52,18.08.71-10.54L288,221.85l3.66-13-14.34,7.28Z" fill="#006d00" stroke="#fff" stroke-width="8.3" fill-rule="evenodd"/><path d="M277.29,216.12l82.2-70.32m-19,36.12,7.26-26.1-27.93,4" fill="none" stroke="#000"/><path d="M328.71,192,336,165.87l-27.93,4" fill="none" stroke="#000"/><path d="M317,202l7.28-26.12-27.94,4" fill="none" stroke="#000"/><path d="M308.16,209.57,312.51,186l-25,1.54" fill="none" stroke="#000"/><path d="M299.34,217.11l4.37-23.62-25,1.53" fill="none" stroke="#000"/><path d="M288,221.85l9.88-23.31-25.37,6.75" fill="none" stroke="#000"/><path d="M443.43,47.39,425.7,59.25l-2.89-12.72L412.36,64.12l-1.91-8.46-8.52,18-1.18-8.32-6.64,18.49L390.33,75l-6.65,22.49-3.77-8.92L373.25,111l-3.78-8.9-6.66,22.48-3.33,11.26,1.89,4.45L368.5,138l12.33-9.13,24.65-18.23-14.21,4.65L415.92,97l-14.23,4.68,24.65-18.24-14.21,4.66,24.63-14.24L420,78l26.54-13.79-16.14,4.2,19.47-15.45L433,61Z" fill="#006d00" stroke="#fff" stroke-width="8.3" fill-rule="evenodd"/><path d="M436.54,53.78l-25.6,22-49.57,64.5" fill="none" stroke="#000"/><path d="M400.08,113.34l-28.27,13.38-2.36-20.61" fill="none" stroke="#000"/><path d="M410.93,99.88l-28.68,13.25-2.37-20.58" fill="none" stroke="#000"/><path d="M421.14,86.24,392.67,99.57,390.52,79" fill="none" stroke="#000"/><path d="M429.62,76.22,403.11,86l-3.06-16.77" fill="none" stroke="#000"/><path d="M439.38,66.49l-28.45,9.33-1.1-16.31" fill="none" stroke="#000"/><path d="M443.18,57.29,416.85,70.77,422,50.34" fill="none" stroke="#000"/><path d="M347.48,25.15l7.92,18.07,10.2-9.55-1.76,19.68L370.6,47,366.91,66.2l6-6.57L367.4,78.38l8.64-5.9-8,22.16,8.64-5.92-8,22.17,8.63-5.9-8,22.16-4,11.1-4.32,2.95L356.4,136l-5-13.32-9.95-26.61,9.29,10.35-9.95-26.61,9.3,10.36-9.95-26.6,9.29,10.34L337.08,50.74l11.88,11L334.69,38.09l11.22,10.82L338.68,27l9.46,14.43Z" fill="#006d00" stroke="#fff" stroke-width="8.3" fill-rule="evenodd"/><path d="M349.48,33.69,358,64l3.12,77.25" fill="none" stroke="#000"/><path d="M344.42,100.84l16,24.09,14.53-16.52" fill="none" stroke="#000"/><path d="M343.33,84.5l16.42,24.17,14.53-16.5" fill="none" stroke="#000"/><path d="M342.9,68.29l16.2,24.13,14.32-16.57" fill="none" stroke="#000"/><path d="M341.75,55.94l16.69,20.22,12.79-12.94" fill="none" stroke="#000"/><path d="M339.34,43.26,358,64l10.84-13.41" fill="none" stroke="#000"/><path d="M341.68,33.71,356,57,364,37.29" fill="none" stroke="#000"/><path d="M241.34,158l23.14-16-11.6-6,20.27,3.46-6.95-9.19,19.69,7.37-7-9.19,19.7,7.35-7-9.16,23.75,8-7-9.17,23.17,11.94-7-9.17,23.75,8,11.6,6,3.47,4.58-4.62,3.22-12.75,1.82-20.54,8.46,3.77-7.34-25.46,3.63,9.24-6.4-26,7.53,9.24-6.41-22,8.24,9.84-10.31-22.56,12.13,9.82-10.32L252.94,164l10.39-14.21-22,8.24Z" fill="#006d00" stroke="#fff" stroke-width="8.3" fill-rule="evenodd"/><path d="M248.66,153.69l23.92-10.34,12.74-1.79,10.63-.2,18.31,1.15,16.52.7,32.69,3.69" fill="none" stroke="#000"/><path d="M328.74,157,347,145.72,328.39,131.1" fill="none" stroke="#000"/><path d="M308.23,155.3l22.53-12.09-18.6-14.61" fill="none" stroke="#000"/><path d="M293.6,154.94l20.66-12.45-18.78-13.56m-29.24,29.32,19.08-16.69-15.38-8.47" fill="none" stroke="#000"/><path d="M257.76,159.39l14.82-16L260.77,139M279,156.43l18.86-15-15.14-10.25" fill="none" stroke="#000"/><path d="M319.09,333.49l-.22-27-7.82-12.61c-2-6.2-1-9.19,2.18-9.41s6.3,1.61,10.85,1.81,3.71-7,10.44-6.8,18.48,3.8,28.47,4.4,15.21-3.2,26.73-3.6,14.56,5,15.22,5,3.92-2.2,7.17-2.6,4.35,1.2,4.35,1.2-.22,6.81-1.74,10.8-7,10.61-7.17,10.61-2,29.41-2,29.61S319.09,334.09,319.09,333.49Z" fill="#c00" stroke="#000" fill-rule="evenodd"/><path d="M408.56,305.81s8.71-6.13,8.94-20.87c.13-8.49-4.4-14.62-15.75-14.62-15.88,0-38.55,6.26-38.55,6.26v2.09a133,133,0,0,1,38.57-6.26c9.06,0,13.61,6.13,13.61,12.4,0,10.44-9.09,21-9.09,21v16.7h2.27Z" fill="#fff100" stroke="#000" fill-rule="evenodd"/><path d="M413.3,301.45a2.28,2.28,0,1,0,2.27-2.09,2.19,2.19,0,0,0-2.27,2.09Z" fill="#fff" stroke="#000" fill-rule="evenodd"/><path d="M415.55,296.67a2.28,2.28,0,1,0,2.27-2.09,2.18,2.18,0,0,0-2.27,2.09Z" fill="#fff" stroke="#000" fill-rule="evenodd"/><path d="M416.77,291.8a2.28,2.28,0,1,0,2.27-2.09,2.19,2.19,0,0,0-2.27,2.09Z" fill="#fff" stroke="#000" fill-rule="evenodd"/><path d="M417.61,286.64a2.28,2.28,0,1,0,2.28-2.09,2.19,2.19,0,0,0-2.28,2.09Z" fill="#fff" stroke="#000" fill-rule="evenodd"/><path d="M417.43,281a2.28,2.28,0,1,0,2.27-2.1,2.18,2.18,0,0,0-2.27,2.1Z" fill="#fff" stroke="#000" fill-rule="evenodd"/><path d="M410,305.67a2.28,2.28,0,1,0,2.27-2.09,2.18,2.18,0,0,0-2.27,2.09Z" fill="#fff" stroke="#000" fill-rule="evenodd"/><path d="M415.46,275.67a2.28,2.28,0,1,0,2.27-2.09,2.18,2.18,0,0,0-2.27,2.09Z" fill="#fff" stroke="#000" fill-rule="evenodd"/><path d="M411.24,271.45a2.28,2.28,0,1,0,2.27-2.09,2.19,2.19,0,0,0-2.27,2.09Z" fill="#fff" stroke="#000" fill-rule="evenodd"/><path d="M405.61,268.64a2.28,2.28,0,1,0,2.28-2.09,2.19,2.19,0,0,0-2.28,2.09Z" fill="#fff" stroke="#000" fill-rule="evenodd"/><path d="M400,268.27a2.28,2.28,0,1,0,2.27-2.1,2.19,2.19,0,0,0-2.27,2.1Z" fill="#fff" stroke="#000" fill-rule="evenodd"/><path d="M393.9,268.45a2.28,2.28,0,1,0,2.27-2.09,2.19,2.19,0,0,0-2.27,2.09Z" fill="#fff" stroke="#000" fill-rule="evenodd"/><path d="M387.8,269.3a2.28,2.28,0,1,0,2.27-2.09,2.19,2.19,0,0,0-2.27,2.09Z" fill="#fff" stroke="#000" fill-rule="evenodd"/><path d="M381.8,270.05a2.28,2.28,0,1,0,2.27-2.09,2.19,2.19,0,0,0-2.27,2.09Z" fill="#fff" stroke="#000" fill-rule="evenodd"/><path d="M375.24,271a2.28,2.28,0,1,0,2.27-2.1,2.19,2.19,0,0,0-2.27,2.1Z" fill="#fff" stroke="#000" fill-rule="evenodd"/><path d="M369.61,272.49a2.28,2.28,0,1,0,2.28-2.1,2.19,2.19,0,0,0-2.28,2.1Z" fill="#fff" stroke="#000" fill-rule="evenodd"/><path d="M313.07,301.45a2.28,2.28,0,1,1-2.27-2.09,2.19,2.19,0,0,1,2.27,2.09Z" fill="#fff" stroke="#000" fill-rule="evenodd"/><path d="M310.73,296.67a2.28,2.28,0,1,1-2.27-2.09,2.18,2.18,0,0,1,2.27,2.09Z" fill="#fff" stroke="#000" fill-rule="evenodd"/><path d="M309.6,291.8a2.28,2.28,0,1,1-2.27-2.09,2.18,2.18,0,0,1,2.27,2.09Z" fill="#fff" stroke="#000" fill-rule="evenodd"/><path d="M308.76,286.64a2.28,2.28,0,1,1-2.27-2.09,2.18,2.18,0,0,1,2.27,2.09Z" fill="#fff" stroke="#000" fill-rule="evenodd"/><path d="M309,281a2.28,2.28,0,1,1-2.27-2.1A2.19,2.19,0,0,1,309,281Z" fill="#fff" stroke="#000" fill-rule="evenodd"/><path d="M310.82,275.67a2.28,2.28,0,1,1-2.27-2.09,2.18,2.18,0,0,1,2.27,2.09Z" fill="#fff" stroke="#000" fill-rule="evenodd"/><path d="M315,271.45a2.28,2.28,0,1,1-2.27-2.09,2.19,2.19,0,0,1,2.27,2.09Z" fill="#fff" stroke="#000" fill-rule="evenodd"/><path d="M320.67,268.64a2.28,2.28,0,1,1-2.28-2.09,2.19,2.19,0,0,1,2.28,2.09Z" fill="#fff" stroke="#000" fill-rule="evenodd"/><path d="M326.29,268.27a2.28,2.28,0,1,1-2.27-2.1,2.19,2.19,0,0,1,2.27,2.1Z" fill="#fff" stroke="#000" fill-rule="evenodd"/><path d="M332.39,268.45a2.28,2.28,0,1,1-2.28-2.09,2.19,2.19,0,0,1,2.28,2.09Z" fill="#fff" stroke="#000" fill-rule="evenodd"/><path d="M338.48,269.3a2.28,2.28,0,1,1-2.27-2.09,2.19,2.19,0,0,1,2.27,2.09Z" fill="#fff" stroke="#000" fill-rule="evenodd"/><path d="M344.57,270.05A2.28,2.28,0,1,1,342.3,268a2.18,2.18,0,0,1,2.27,2.09Z" fill="#fff" stroke="#000" fill-rule="evenodd"/><path d="M351,271a2.28,2.28,0,1,1-2.27-2.1A2.19,2.19,0,0,1,351,271Z" fill="#fff" stroke="#000" fill-rule="evenodd"/><path d="M356.67,272.49a2.28,2.28,0,1,1-2.28-2.1,2.19,2.19,0,0,1,2.28,2.1Z" fill="#fff" stroke="#000" fill-rule="evenodd"/><path d="M316.26,305.67a2.28,2.28,0,1,1-2.27-2.09,2.18,2.18,0,0,1,2.27,2.09Z" fill="#fff" stroke="#000" fill-rule="evenodd"/><path d="M317.81,305.81s-8.71-6.13-8.94-20.87c-.13-8.49,4.41-14.62,15.75-14.62,15.88,0,38.56,6.26,38.56,6.26v2.09a133.12,133.12,0,0,0-38.57-6.26c-9.07,0-13.61,6.13-13.61,12.4,0,10.44,9.09,21,9.09,21v16.7h-2.28Z" fill="#fff100" stroke="#000" fill-rule="evenodd"/><path d="M333.62,313.56a3.1,3.1,0,0,1,3-1.59,3.26,3.26,0,0,1,3,3.17v3.19h1.52v-3.19a3.34,3.34,0,0,1,3-3.17,3.27,3.27,0,0,1,3,1.59s0-4.78-3-4.78a3.24,3.24,0,0,0-3,1.59,18.21,18.21,0,0,0,.75-4.77,6.24,6.24,0,0,0-1.51-4c0,.3-1.51,1.59-1.51,4a18.31,18.31,0,0,0,.75,4.77,3.24,3.24,0,0,0-3-1.59C333.62,308.78,333.62,313.56,333.62,313.56Z" fill="#fff100" stroke="#000" stroke-width="3" fill-rule="evenodd"/><path d="M379,313.56a3.09,3.09,0,0,1,3-1.59,3.26,3.26,0,0,1,3,3.17v3.19h1.51v-3.19a3.34,3.34,0,0,1,3-3.17,3.24,3.24,0,0,1,3,1.59s0-4.78-3-4.78a3.27,3.27,0,0,0-3,1.59,18,18,0,0,0,.76-4.77,6.24,6.24,0,0,0-1.51-4c0,.3-1.52,1.59-1.52,4a18.09,18.09,0,0,0,.76,4.77,3.26,3.26,0,0,0-3-1.59C379,308.78,379,313.56,379,313.56Z" fill="#fff100" stroke="#000" stroke-width="3" fill-rule="evenodd"/><path d="M317.81,335.06v-18.8s4.53,6.27,11.35,6.27c5.57,0,11.34-8.36,11.34-8.36s5.32,6.27,11.35,6.27c5.37,0,11.33-8.08,11.33-8.08s5.53,8.08,11.34,8.08,11.35-6.27,11.35-6.27,5.93,8.36,13.61,8.36c6.8,0,9.08-6.27,9.08-6.27v18.8Z" fill="#fff100" stroke="#000" fill-rule="evenodd"/><path d="M317.81,335.06V320.44s13.62,4.16,13.62,14.62Z" fill="#fff100" stroke="#000" fill-rule="evenodd"/><path d="M408.47,335.06V320.44s-13.61,4.16-13.61,14.62Z" fill="#fff100" stroke="#000" fill-rule="evenodd"/><path d="M326.89,335.06c0-10.46,13.61-17.06,13.61-17.06s13.61,6.6,13.61,17.06Z" fill="#fff100" stroke="#000" fill-rule="evenodd"/><path d="M372.26,335.06c0-10.46,13.62-17.06,13.62-17.06s13.61,6.6,13.61,17.06Z" fill="#fff100" stroke="#000" fill-rule="evenodd"/><path d="M347.3,335.12c0-10.45,15.89-18.79,15.89-18.79s15.88,8.34,15.88,18.79H347.3Z" fill="#fff100" stroke="#000" fill-rule="evenodd"/><path d="M410.78,335.08c-4.48-2.09-21-4.18-47.64-4.18s-44.31,2.09-48.81,4.18-4.48,6.27,0,8.35,22.2,4.18,48.81,4.18,43.16-2.09,47.64-4.18S415.27,337.16,410.78,335.08Z" fill="#fff" stroke="#000" fill-rule="evenodd"/><path d="M408.56,343.41c0,4.21-37.78,4.21-45.37,4.21-8.25,0-45.38,1.13-45.38-4.21,0-4.13,37.41-4.13,45.38-4.13S408.56,340.12,408.56,343.41Z" fill="gray" fill-rule="evenodd"/><path d="M322.31,328.41a2.27,2.27,0,1,1-4.5,0,2.27,2.27,0,0,1,2.25-2.44A2.38,2.38,0,0,1,322.31,328.41Zm86.25,0a2.31,2.31,0,1,1-4.59,0,2.26,2.26,0,1,1,4.5,0Z" fill="#c00" fill-rule="evenodd"/><path d="M367.69,327.19c0,1.31-2.06,2.44-4.5,2.44s-4.6-1.13-4.6-2.54,2.07-2.43,4.6-2.43,4.5,1.12,4.5,2.43Z" fill-rule="evenodd"/><path d="M389.44,327.19c0,1.31-1.5,2.44-3.38,2.44s-3.37-1.13-3.37-2.54,1.5-2.43,3.37-2.43,3.38,1.12,3.38,2.43Zm-46.69,0c0,1.31-1.5,2.44-3.37,2.44s-3.47-1.13-3.47-2.54,1.5-2.43,3.47-2.43,3.37,1.12,3.37,2.43Z" fill="#006300" fill-rule="evenodd"/><path d="M354.07,312.79s2.59-3.57,5.19-3.57h2.59v2.37c0,3.59-3.88,4.79-3.88,4.79h10.37s-3.9-1.2-3.9-4.79v-2.37H367c2.59,0,5.18,3.58,5.18,3.58v-9.56s-2.59,3.58-5.18,3.58h-2.6v-2.39c0-3.57,3.9-4.77,3.9-4.77H358s3.89,1.2,3.89,4.77v2.39h-2.6c-2.59,0-5.18-3.58-5.18-3.58v9.55Z" fill="#fff100" stroke="#000" stroke-width="2.2" fill-rule="evenodd"/><path d="M317.75,320.46h2.6s-2-1-2-4.17V314.2h1.3c1.29,0,2.59,3.14,2.59,3.14V309s-1.3,3.13-2.59,3.13h-1.3V310c0-3.13,2-4.17,2-4.17h-2.6Z" fill="#fff100" stroke="#000" stroke-width="3.3" fill-rule="evenodd"/><path d="M408.53,320.46h-2.6s1.95-1,1.95-4.17V314.2h-1.29c-1.3,0-2.6,3.14-2.6,3.14V309s1.3,3.13,2.6,3.13h1.29V310c0-3.13-1.95-4.17-1.95-4.17h2.6Z" fill="#fff100" stroke="#000" stroke-width="3.3" fill-rule="evenodd"/><path d="M365.45,307.91a2.28,2.28,0,1,1-2.27-2.08A2.19,2.19,0,0,1,365.45,307.91Z" fill="#fff" stroke="#000" fill-rule="evenodd"/><path d="M354.07,268.91s2.59-3.57,5.19-3.57h2.59v2.38c0,3.58-3.88,4.78-3.88,4.78h10.37s-3.9-1.2-3.9-4.78v-2.38H367c2.59,0,5.18,3.58,5.18,3.58v-9.55S369.63,263,367,263h-2.6v-2.39c0-3.58,3.9-4.77,3.9-4.77H358s3.89,1.19,3.89,4.77V263h-2.6c-2.59,0-5.18-3.58-5.18-3.58v9.55Z" fill="#fff100" stroke="#000" stroke-width="2.2" fill-rule="evenodd"/><path d="M365.63,264.41a2.27,2.27,0,1,1-2.26-2.08A2.18,2.18,0,0,1,365.63,264.41Z" fill="#fff" stroke="#000" fill-rule="evenodd"/><path d="M358.65,272.45h9.08v6.27h-9.1Z" fill="#fff100" stroke="#000" fill-rule="evenodd"/><path d="M358.65,275.73h9.08V299.6h-9.1Z" fill="#fff100" stroke="#000" fill-rule="evenodd"/><path d="M365.39,295.36a2.28,2.28,0,1,1-2.28-2.09,2.19,2.19,0,0,1,2.28,2.09Z" fill="#fff" stroke="#000" fill-rule="evenodd"/><path d="M365.39,290a2.28,2.28,0,1,1-2.28-2.1,2.19,2.19,0,0,1,2.28,2.1Z" fill="#fff" stroke="#000" fill-rule="evenodd"/><path d="M365.39,285.05a2.28,2.28,0,1,1-2.28-2.09,2.19,2.19,0,0,1,2.28,2.09Z" fill="#fff" stroke="#000" fill-rule="evenodd"/><path d="M365.39,279.8a2.28,2.28,0,1,1-2.28-2.09,2.19,2.19,0,0,1,2.28,2.09Z" fill="#fff" stroke="#000" fill-rule="evenodd"/><path d="M368,335.16c0,.93-2.06,1.68-4.69,1.68s-4.5-.75-4.5-1.68,2.06-1.69,4.6-1.69S368,334.22,368,335.16Zm41.81,4.12c-.28.66-2.53.75-5.06.1s-4.31-1.51-4.13-2.16,2.54-.75,5.07-.09S410,338.63,409.78,339.28Zm-17.53-2.81c0,.84-2.25,1.31-4.88,1.22s-4.59-1-4.5-1.88,2.35-1.31,4.88-1.12,4.69.93,4.5,1.78Zm-76.69,2.81c.19.66,2.44.75,5,.1s4.41-1.51,4.13-2.16-2.54-.75-5.07-.09S315.28,338.63,315.56,339.28Zm18.28-3.19c.1.85,2.35,1.32,4.88,1.13s4.69-.94,4.5-1.88c0-.75-2.25-1.31-4.88-1.12S333.75,335.16,333.84,336.09Z" fill-rule="evenodd"/></g></svg>