<svg id="flag-icons-je" xmlns="http://www.w3.org/2000/svg" xmlns:xlink="http://www.w3.org/1999/xlink" viewBox="0 0 801.6 480"><defs><clipPath id="clip-path" transform="translate(80)"><rect width="640" height="480" fill="none"/></clipPath></defs><title>je</title><g clip-path="url(#clip-path)"><path d="M0,0H640V480H0Z" transform="translate(80)" fill="#fff"/><path d="M-80,0V32L270.4,240-78.4,448v32h51.2L321.6,272,668.8,480H720V448L372.8,240,721.6,32V0H668.8L320,208-27.2,0H-80Z" transform="translate(80)" fill="#df112d" fill-rule="evenodd"/><path d="M361.9,72.32c10.1,41.7,4.57,93.17-42,121.84-46.26-28.67-52.12-80.14-41.7-121.84C289.26,62.55,338.77,56.36,361.9,72.32Z" transform="translate(80)" fill="#e8112d" stroke="#000" stroke-width="0.1"/><path d="M320.21,63.85a82.16,82.16,0,0,1,42,10.43,91.22,91.22,0,0,1,16-39.42c-8.14,0-11.72,4.23-11.72,8.47-2-5.54-9.78-5.21-12.38-2.28,8.79,5.86,2,16.29-5.87,14.33-3.58-1-5.54-3.58-6.51-7.49a4.23,4.23,0,1,0-1.63,0c-2.28,3.26-6.19,5.21-10.1,4.23A8.2,8.2,0,0,1,323.79,44c0-8.8,8.47-10.1,11.08-8.47,0-5.86-9.45-10.75-12.38-5.86,3.25-6.19,2.6-14-2.61-18.9a15.63,15.63,0,0,0-2.61,18.57c-2.93-4.89-12,0-12,5.86,2.28-1.63,10.75-.32,10.75,8.47,0,3.26-2,7.17-5.86,8.15a9.79,9.79,0,0,1-10.43-4.24c.65,0,1.3-.65,2-1.3a4.23,4.23,0,1,0-6,.18,4.19,4.19,0,0,0,2.4,1.12,8.73,8.73,0,0,1-6.51,7.5,7.82,7.82,0,0,1-5.87-14.34c-2.6-3.26-10.42-3.26-12.38,2.28,0-4.23-3.58-8.47-11.72-8.47A91.23,91.23,0,0,1,277.85,74,84.74,84.74,0,0,1,320.21,63.85Z" transform="translate(80)" fill="#f9dd16" stroke="#000" stroke-width="0.1"/><g id="b"><path d="M355.39,104.9c-1.3,0-1.3,1.63-1.63,1.63,2.61,0,3.91-1,4.56-2.28v2c2-.65,2.61-2.28,2-3.25l2.28.65c-1.31-1-.33-3.26-2.61-4.56a3.94,3.94,0,0,1,2.61,1.62c-.33-2.28-.66-3.58-2.61-4.88h1.63a2.93,2.93,0,0,1-1.3-2.61c0-1.3-.66-1.3-2-1l-5.86.33c-3.26,0-6.52,0-9.12-2,4.23,2,9.77-2,9.77-4.89,0-3.26-4.56-6.52-13-4.56s-18.9,1.3-18.9-1.63,7.5-3.26,11.4-2.61,6.52,1,13.69-1.63c-1.63.66-7.5,1-12.06-.32s-15.63-1.3-15.63,4.56c0,6.19,11.72,5.54,22.15,3.91,5.86-.65,9.12,0,9.12,1.63,0,2-5.54,2.6-9.77,2.28a32.6,32.6,0,0,0-13.36,1c-4.23,1.3-7.17,0-11.73,1-2.28,0-7.82,0-10.42-4.56-1.63,1.3-6.52,3.59-7.49,6.19-1,2,0,4.24,1.3,6.52,1.95,2.6-1,2.28-3.26,2.28-2.61,0-6.51,0-8.47-2.61-1.95-2-4.23-3.58-6.19-2.28-1,1,0,2,.65,1.63l2.61.65a3.26,3.26,0,0,0-3.26.33c-1,.65,0,2,1,1.63a3.75,3.75,0,0,1,3.26,0c-1,0-2.28,0-2.61.65s0,1.3,1,1.3c1.95,0,2.28,1.3,4.23,1a2.93,2.93,0,0,0-2.28,1.3c2-1,3.59,1.3,5.87.65-.66.33-2.28,1.31-2.28,2,1.3-1.63,10.42,1.3,10.42-2.28l-.33,2.6c1-.65,4.57-1,5.87-3.25,0,.65,0,1.62-.65,2,1,0,2.6-.65,4.23-2.93a3.52,3.52,0,0,0,.65-2.28,5.68,5.68,0,0,0,3.91-1.31c1.31-1,2.61,1,4.89-.65,1.95-1.3,3.91,0,5.21-.65,1-.65,2.61,0,3.91-.65s3.26.33,5.21-1.3c3.26,1.3,7.5,3.25,16.94,1.63,5.22-1,7.17,1,7.17,3.25,0,2-1.3,2-2,2-3.26.32-4.24-1-5.54-.65a1.25,1.25,0,0,0,0,2.28c-1,.32-1,1.3-.33,1.63a3.89,3.89,0,0,0,2.61-.33c-1.3.33-2.28,1.3-1.63,2.28.33.65,1.3,1,2.28,0a5.54,5.54,0,0,1,3.91-2.28Zm-60.6-26.06c-2.6-1-3.25-1-2.93,1.3a5.28,5.28,0,0,0,1.63,2.93c0-1,.33-3.25,1.3-3.91Z" transform="translate(80)" fill="#f9dd16" stroke="#000" stroke-width="0.1"/><path d="M303.59,79.16c2.61-1.3,3.58-1.3,2.93,1a5.22,5.22,0,0,1-1.63,2.93C304.89,82.1,304.89,79.82,303.59,79.16Z" transform="translate(80)" fill="#f9dd16" stroke="#000" stroke-width="0.1"/><path d="M299.36,77.53c5.21,0,5.86,2.61,5.53,5.54,0,3.26-1.62,2-2.6,6.52-.33,1.3-1.63,1.63-3.26,1.63a2.57,2.57,0,0,1-2.93-2c-1-4.23-2.61-3.26-2.61-6.51,0-2.61.65-5.22,5.87-5.22Z" transform="translate(80)" fill="#f9dd16" stroke="#000" stroke-width="0.1"/><path d="M286,89.59c-1.3-.65-2.28,0-2.93,0,1.95.32,1.95,2.6,5.86,3.26-1,0-1.3.65-2.28,0,1.63,1.3,3.26,2.93,7.17,2.93,2.28,0,.65,1-.65.32,1.3,1.63,4.23.33,6.19,3.26,0-2.28-3.26-5.54-1.63-7.82-5.54-.32-5.87-3.25-8.8-5.54-2.61-2-2.93-3.9-3.91-7.49a3,3,0,0,0-3.26-2.28c-1,0-1.62,1-.65,1.63.65.65,2,.65,2,2.28-1-1.3-2.61-1.63-3.26-1-.33.66,0,1.63.65,1.63,1.63,0,.65,2,2.28,3.26-1.63-1.63-2.93-2-3.91-1-.32.65,0,1.63,1.31,1.63,1.62,0,3.25,3.91,5.86,4.89Zm42.35,15c-.65,0-.33,1.63-1.63,1.63,2.61,0,4.24-.65,5.21-1.63l-.65,1.63c1.3-1,4.89-1.3,6.52-1s1.95-.33,2.6-1.31c.66-1.3,0-2-1-2.6-1-1-1.31-2.28-1-4.24-4.56-6.51-13-3.26-13-.65,2.93,3.58,3.26,3.26,5.86,3.58,2.28.65,3.91.65,2.28,2-.65.65-3.26,0-4.88.32-4.24,0-6.52-2.93-7.5-1.3-1,1.3,0,2,2,2-1.31,0-3.26,0-2.93,1.3.65,2.28,2.6-.33,3.58.32-.65,0-2,.33-2,1s1.63,1.63,3.26,0a5.29,5.29,0,0,1,3.26-1Z" transform="translate(80)" fill="#f9dd16" stroke="#000" stroke-width="0.1"/><path d="M331.93,95.13a7.14,7.14,0,0,0-4.56-.65m-18.24,0a6,6,0,0,0-.33,5.21m-13-18.25c.65.66,1.31-.65,2.61.66-.33-.33-1,1-2,0m6.52-.33c-1,0-1.63-1-2.93.33.32-.33,1,1,1.95,0m-1.95,0v1c.32,2.28,1,3.26-1,3.26-1.63,0-1-1-.65-3.26v-1" transform="translate(80)" fill="none" stroke="#000" stroke-width="0.1"/><path d="M299.36,90.24c1.3,0,1.95,0,1.95-1.95,0-.66,1-1,.33-2.29.65,1.31-2.28,1.31-2.28.66,0,.65-3.26.65-2.61-.66-.33,1.31.65,1.63.33,2.29,0,1.95.65,1.95,2.28,1.95Z" transform="translate(80)" fill="#ff0016" stroke="#000" stroke-width="0.1"/><path d="M297.73,86.33l-3.26-1m3.26,1h-3.26m3.26.33-2.94,1m5.54-1.3,3.26-1m-3.26,1h3.91m-3.91.33,3.26,1" transform="translate(80)" stroke="#000" stroke-width="0.1"/><path d="M281.76,76.23c-1-1.3-3.25,0-3.25,1.3.65-1,1.95.33,2.93,0A.74.74,0,0,0,281.76,76.23Zm-1,2.93c-1-1.3-3.59,0-3.59,1.31.65-1,2,.32,2.93,0C280.46,80.47,281.11,79.49,280.79,79.16Zm-.66,3.91a1.94,1.94,0,0,0-3.25,1.63c.65-1,1.95,0,2.6,0,.65-.32,1-1.3.33-1.63Zm1,12.06c-1.3-1.31-3.26.32-3.26,2,.66-1.3,2.28,0,3.26-.65,0,0,.65-1,0-1.63Zm0,2.28c-1.63-.33-3.26,2-2.28,3.25,0-1.62,2-1,2.61-1.62l-.33-1.63Zm2,2.28c-1.63-.65-3.26,1.3-2.28,2.6,0-1,1.95-.65,2.28-1.3v-1.3Zm38.11,3.58a2.23,2.23,0,0,0-2.28,3.26c0-1.63,2-1,2.61-1.63l-.33-1.63Zm2,2c-1.63-.33-2.93,2-2,3.25,0-1.63,2-1.3,2.28-2,.33-.33.33-1.3,0-1.3Zm-1.31-4.57c-1.3-.65-3.25,1.31-2.93,2.61.65-1.3,2.28-.32,2.93-1v-1.63Zm27,3.26c-1.3-.32-2.6,2-1.95,3.26,0-1.3,1.95-1,2.61-1.63C349.53,104.9,349.53,103.92,348.87,103.92Zm0-2.28c-1.3-1-3.25,1-2.6,2.28.65-1,2.28-.32,2.93-1v-1.63Zm1.31,4.24c-1.63,0-2.94,2.28-2,3.25,0-1.3,2-1,2.28-1.62a1.43,1.43,0,0,0-.32-1.63ZM299.36,88.94c1,0,1.3.32,1.3,2.28,0,3.26,0,5.21-1.3,5.21-1,0-1-1.63-1-4.24,0-1.3,0-2.28-.33-2C298.05,89.26,298.38,88.94,299.36,88.94Z" transform="translate(80)" fill="#0051ba"/></g><path d="M350.5,139.11c-1,0-1,1.3-1.3,1.3,2.28,0,3.26-.65,3.91-2v1.63c1.95-.32,2.61-2,1.95-2.93l2,.65c-1-.65,0-2.93-2.28-3.91A2.83,2.83,0,0,1,357,135.2a4.42,4.42,0,0,0-2.28-4.24H356a2.61,2.61,0,0,1-1-2.6c0-1-.65-1-1.95-.66H347.9c-2.94,0-5.87,0-8.15-1.62,3.91,2,8.8-1.63,8.8-4.24,0-3.26-4.24-5.86-11.73-4.23-7.49,2-16.94,1.3-16.94-1.31s6.52-3.26,10.1-2.6,5.86,1,12.38-1.31c-1.3.65-6.52,1-10.75-.32s-14-1.31-14,4.23,10.42,4.89,19.55,3.26c5.53-.33,8.47,0,8.47,1.63s-4.89,2.28-8.8,2a29.39,29.39,0,0,0-12.05,1c-3.91,1.3-6.52,0-10.43,1-2.28,0-7.17,0-9.77-4.24-1.3,1.31-5.54,3.26-6.52,5.54-.65,2,0,3.91,1.31,5.87,1.62,2.28-1,1.95-3.26,1.95-2,0-5.54,0-7.49-2.28-1.63-1.63-3.59-3.26-5.54-2-.65,1,0,1.63.65,1.31l2.28.65a2.91,2.91,0,0,0-2.93.33,1,1,0,0,0,1,1.62,3.13,3.13,0,0,1,2.94,0l-2.28.33c-.33.33,0,1.3,1,1.3,1.63,0,2,1.31,3.59,1a2.59,2.59,0,0,0-2,1c1.63-.65,3.26,1.3,5.21.65-.65.32-1.95,1.3-1.95,2,1-1.63,9.45,1,9.45-2.28l-.33,2.28c.65-.32,3.91-.65,5.21-2.93,0,.65,0,1.63-.65,2,1,0,2.28-.66,3.91-2.61a3.52,3.52,0,0,0,.65-2.28c1.31,0,2.28,0,3.26-1,1.3-1,2.61,1,4.56-.65,1.63-1.3,3.26,0,4.56-.65,1-.65,2.61,0,3.59-.65s3.25.32,4.88-1c2.93,1,6.52,2.93,15,1.3,4.89-.65,6.51,1,6.51,3.26,0,1.63-1,1.63-1.62,1.63-3.26,0-3.91-1-5.22-.65a1.19,1.19,0,0,0,0,2,.92.92,0,0,0,0,1.63c.65.33,1.31,0,2.28-.32-1.3,0-2.28,1-1.63,1.95.33.65,1.31,1,2.28,0a5,5,0,0,1,3.26-1.95Zm-54.4-23.46c-2.28-1-3.26-1-2.61,1,0,1,1,2.28,1.3,2.93,0-1,.33-3.26,1.31-3.58Z" transform="translate(80)" fill="#f9dd16" stroke="#000" stroke-width="0.1"/><path d="M304.24,116c2-1.31,3.26-1.31,2.28.65a4.84,4.84,0,0,1-1.3,2.93c0-1,0-3.26-1.3-3.58Z" transform="translate(80)" fill="#f9dd16" stroke="#000" stroke-width="0.1"/><path d="M300.33,114.35c4.56,0,5.22,2.28,4.89,5.21,0,2.93-1.63,1.63-2.28,5.86-.33,1-1.63,1.31-3.26,1.31a2,2,0,0,1-2.28-1.63c-1-3.91-2.61-3.26-2.61-5.87S295.45,114.35,300.33,114.35Z" transform="translate(80)" fill="#f9dd16" stroke="#000" stroke-width="0.1"/><path d="M288,125.42c-1-.65-1.95,0-2.28,0,1.63,0,1.63,2.28,5.22,2.94h-2.28c1.62,1,3.25,2.6,6.51,2.6,2.28,0,.65.65-.65,0,1.3,1.63,3.91.33,5.86,3.26,0-2.28-3.25-5.21-1.63-7.17-4.88-.32-5.21-3.26-7.81-4.88-2.28-2-2.61-3.59-3.59-6.85a2.61,2.61,0,0,0-3.26-1.95c-.65,0-1.3.65,0,1.3,0,.65,1.63.65,1.63,2-1-1-2.6-1.31-3.25-.65,0,.65,0,1.3.65,1.3,1.63,0,.65,2,2.28,3.26-1.63-1.63-2.61-2-3.59-1-.32.33,0,1.3,1,1.3,1.63,0,3.26,3.26,5.54,4.56Zm38.45,13c-.66,0-.33,1.63-1.63,1.63,2.28,0,3.91-.32,4.88-1.3l-.65,1.3c1-.65,4.24-1,5.87-.65s1.62-.32,2.28-1.3,0-1.63-1-2.28a4.77,4.77,0,0,1-.65-3.91c-4.24-5.86-11.73-2.93-11.73-.65,2.61,3.26,2.93,3.26,5.21,3.26,2,.65,3.26.65,2,1.95-.66.65-2.94,0-4.24,0-3.91,0-5.86-2.28-6.84-1s0,1.63,1.63,1.63c-1,0-2.93,0-2.61,1.3.65,2,2.28,0,3.26,0-.65,0-1.63.66-1.63,1.31,0,.32,1.3,1.3,2.93,0a4.59,4.59,0,0,1,2.94-1Z" transform="translate(80)" fill="#f9dd16" stroke="#000" stroke-width="0.1"/><path d="M329.65,130.31a6.47,6.47,0,0,0-4.23-.65m-16.29,0c-1.3,2.28-.65,3.26-.33,4.56m-11.72-16.29c.32.65,1-.65,2.28.65-.33-.32-1,1-2,0m5.87-.32c-.66,0-1.31-1-2.61,0,.32,0,1,1.3,1.95,0m-1.95,0v1.3c.32,2,1,2.93-.65,2.93s-1-1-.65-3.26v-.65" transform="translate(80)" fill="none" stroke="#000" stroke-width="0.1"/><path d="M300.33,125.75c1,0,1.63,0,1.63-1.63,0-.65,1-1,0-2,1,1-1.63,1-1.63.32,0,.65-3.25.65-2.6-.32,0,1,.65,1.3.32,2,0,1.63.65,1.63,2.28,1.63Z" transform="translate(80)" fill="#ff0016" stroke="#000" stroke-width="0.1"/><path d="M298.7,122.49l-2.93-1m2.93,1h-2.93m2.93,0-2.6,1m4.88-1,3.26-1m-3.26,1h3.59m-3.26,0,2.61,1" transform="translate(80)" stroke="#000" stroke-width="0.1"/><path d="M284.37,113.37c-1-1.3-3.26,0-3.26,1,1-.65,2,.32,2.93,0,0,0,1-.65,0-1Zm-1,2.61c-.65-1.31-3.26,0-3.26,1,.66-.65,2,.33,2.61,0C283.07,117,283.72,116.3,283.39,116Zm-.65,3.25c-1-1-3.26,0-2.93,1.63.65-1,1.95,0,2.61,0,.32,0,.65-1.3,0-1.3Zm1,11.08c-1-1.3-2.93,0-2.93,1.63.65-1,1.95,0,3.25-.65v-1Zm0,2c-1.3,0-2.93,1.95-2,3.25,0-1.63,1.63-1.3,2.28-1.63v-1.62Zm1.95,1.95c-1.63-.33-3.25,1.3-2.28,2.61,0-1,2-.66,2.28-1.31v-1.3Zm34.21,3.26c-1.63,0-3.26,1.63-1.95,3.26,0-1.63,1.62-1,2.28-1.63Zm1.63,2c-1.3-.32-2.61,1.63-1.63,2.93,0-1.62,1.63-1.3,1.95-2v-1Zm-1-4.23c-1.3-.65-3.26,1.3-2.61,2.28.33-1,2,0,2.61-.65V135.2Zm24.11,3.25c-1-.65-2.28,1.63-1.63,2.61,0-1,1.63-1,2.28-1.3,0-.65,0-1.63-.65-1.63Zm0-2.28c-1-1-2.93,1-2.28,2,.65-1,1.95,0,2.6-1v-1.3Zm1.3,3.91c-1.63,0-2.6,2-1.63,2.94,0-1.31,1.63-1,2-1.63Zm-45.61-15.31c.65,0,1,0,1,2,0,2.93,0,4.56-1,4.56s-1-1.31-1-3.59c0-1.3,0-2.28-.33-2,0-.65,0-1,1.3-1Z" transform="translate(80)" fill="#0051ba"/><path d="M342.58,168.26c-.87,0-.87,1.22-1.09,1.22a3,3,0,0,0,3.06-1.71v1.47c1.31-.49,1.74-1.71,1.31-2.44l1.52.49c-.87-.74-.21-2.45-1.74-3.42a2.53,2.53,0,0,1,1.74,1.22c-.21-1.71-.43-2.69-1.74-3.67h1.09a2.28,2.28,0,0,1-.87-1.95c0-1-.44-1-1.31-.74l-3.93.25c-2.18,0-4.37,0-6.11-1.47,2.83,1.47,6.55-1.46,6.55-3.66,0-2.45-3.06-4.89-8.74-3.42s-12.66,1-12.66-1.22,5-2.45,7.64-2,4.37.73,9.17-1.22c-1.09.49-5,.73-8.07-.25s-10.48-1-10.48,3.43c0,4.64,7.86,4.15,14.84,2.93,3.93-.49,6.11,0,6.11,1.22,0,1.47-3.71,1.95-6.55,1.71a19.65,19.65,0,0,0-8.94.73c-2.84,1-4.81,0-7.86.74-1.53,0-5.24,0-7-3.43-1.09,1-4.36,2.69-5,4.65-.65,1.46,0,3.17.88,4.88,1.31,2-.66,1.71-2.19,1.71-1.74,0-4.36,0-5.67-1.95-1.31-1.47-2.84-2.69-4.15-1.71-.65.73,0,1.47.44,1.22l1.74.49a2,2,0,0,0-2.18.24.71.71,0,0,0,.66,1.23,2.27,2.27,0,0,1,2.18,0c-.66,0-1.53,0-1.75.48a.65.65,0,0,0,.66,1c1.31,0,1.52,1,2.83.73a1.93,1.93,0,0,0-1.52,1c1.31-.73,2.4,1,3.93.49-.44.24-1.53,1-1.53,1.47.87-1.23,7,1,7-1.71l-.22,2c.66-.49,3.06-.73,3.93-2.44,0,.49,0,1.22-.43,1.46.65,0,1.74-.49,2.83-2.2a2.85,2.85,0,0,0,.44-1.71,3.56,3.56,0,0,0,2.62-1c.87-.74,1.75.73,3.27-.49,1.31-1,2.62,0,3.5-.49.65-.49,1.74,0,2.62-.49s2.18.25,3.49-1c2.18,1,5,2.45,11.35,1.23,3.49-.74,4.8.73,4.8,2.44,0,1.46-.87,1.46-1.31,1.46-2.18.25-2.84-.73-3.71-.48a1,1,0,0,0,0,1.71.67.67,0,0,0-.22,1.22c.44.24,1.09,0,1.75-.25-.88.25-1.53,1-1.09,1.71.21.49.87.74,1.52,0a3.67,3.67,0,0,1,2.62-1.71ZM302,148.72c-1.74-.74-2.18-.74-2,1a4.14,4.14,0,0,0,1.09,2.2c0-.73.22-2.44.87-2.93Z" transform="translate(80)" fill="#f9dd16" stroke="#000" stroke-width="0.1"/><path d="M307.88,149c1.74-1,2.4-1,2,.73a4.07,4.07,0,0,1-1.09,2.2C308.75,151.16,308.75,149.45,307.88,149Z" transform="translate(80)" fill="#f9dd16" stroke="#000" stroke-width="0.1"/><path d="M305,147.74c3.49,0,3.93,1.95,3.71,4.15,0,2.45-1.09,1.47-1.75,4.89-.21,1-1.09,1.22-2.18,1.22a1.72,1.72,0,0,1-2-1.46c-.66-3.18-1.75-2.45-1.75-4.89,0-2,.44-3.91,3.93-3.91Z" transform="translate(80)" fill="#f9dd16" stroke="#000" stroke-width="0.1"/><path d="M296.09,156.78c-.87-.49-1.53,0-2,0,1.31.24,1.31,1.95,3.93,2.44-.66,0-.88.49-1.53,0,1.09,1,2.18,2.2,4.8,2.2,1.53,0,.44.74-.44.25.88,1.22,2.84.24,4.15,2.44,0-1.71-2.18-4.15-1.09-5.86-3.71-.25-3.93-2.45-5.89-4.16-1.75-1.46-2-2.93-2.62-5.62-.22-1.22-1.53-1.95-2.19-1.71-.65,0-1.09.74-.43,1.22.43.49,1.31.49,1.31,1.71-.66-1-1.75-1.22-2.19-.73-.21.49,0,1.22.44,1.22,1.09,0,.44,1.47,1.53,2.45-1.09-1.23-2-1.47-2.62-.74a.85.85,0,0,0,.87,1.22c1.09,0,2.19,2.94,3.93,3.67ZM324.47,168c-.44,0-.22,1.22-1.09,1.22a4.45,4.45,0,0,0,3.49-1.22l-.44,1.22a6.71,6.71,0,0,1,4.37-.73c1.09.24,1.31-.25,1.74-1,.44-1,0-1.47-.65-1.95a3.62,3.62,0,0,1-.66-3.18c-3.05-4.89-8.73-2.44-8.73-.49,2,2.69,2.18,2.44,3.93,2.69,1.53.49,2.62.49,1.53,1.46-.44.49-2.18,0-3.28.25-2.83,0-4.36-2.2-5-1-.65,1,0,1.47,1.31,1.47-.87,0-2.18,0-2,1,.44,1.71,1.75-.24,2.4.25-.44,0-1.31.24-1.31.73s1.09,1.22,2.18,0a3.24,3.24,0,0,1,2.19-.73Z" transform="translate(80)" fill="#f9dd16" stroke="#000" stroke-width="0.1"/><path d="M326.87,160.93a4.38,4.38,0,0,0-3.06-.49m-12.22,0a5,5,0,0,0-.22,3.91m-8.73-13.68c.44.49.87-.49,1.75.49-.22-.24-.66.73-1.31,0m4.36-.24c-.65,0-1.09-.74-2,.24.22-.24.65.73,1.31,0m-1.31,0v.73c.22,1.71.65,2.45-.66,2.45-1.09,0-.65-.74-.43-2.45v-.73" transform="translate(80)" fill="none" stroke="#000" stroke-width="0.1"/><path d="M305,157.27c.87,0,1.31,0,1.31-1.47,0-.49.66-.73.22-1.71.43,1-1.53,1-1.53.49,0,.49-2.18.49-1.75-.49-.21,1,.44,1.22.22,1.71,0,1.47.44,1.47,1.53,1.47Z" transform="translate(80)" fill="#ff0016" stroke="#000" stroke-width="0.1"/><path d="M304,154.34l-2.18-.74m2.18.74h-2.18m2.18.24-2,.73m3.72-1,2.18-.74m-2.18.74h2.61m-2.61.24,2.18.73" transform="translate(80)" stroke="#000" stroke-width="0.1"/><path d="M293.25,146.76c-.65-1-2.18,0-2.18,1,.44-.73,1.31.24,2,0A.58.58,0,0,0,293.25,146.76Zm-.65,2.2c-.66-1-2.4,0-2.4,1,.43-.73,1.31.24,2,0C292.38,149.94,292.82,149.21,292.6,149Zm-.44,2.93a1.31,1.31,0,0,0-2.18,1.22c.44-.73,1.31,0,1.75,0,.43-.24.65-1,.21-1.22Zm.66,9c-.88-1-2.19.25-2.19,1.47.44-1,1.53,0,2.19-.49,0,0,.43-.73,0-1.22Zm0,1.71c-1.09-.24-2.19,1.47-1.53,2.45,0-1.22,1.31-.74,1.75-1.22l-.22-1.23Zm1.31,1.71c-1.09-.48-2.19,1-1.53,2,0-.73,1.31-.49,1.53-1v-1ZM319.66,167a1.64,1.64,0,0,0-1.52,2.44c0-1.22,1.31-.73,1.74-1.22l-.22-1.22Zm1.31,1.47c-1.09-.25-2,1.46-1.31,2.44,0-1.22,1.31-1,1.53-1.47.22-.24.22-1,0-1Zm-.87-3.42c-.87-.49-2.18,1-2,1.95.43-1,1.52-.24,2-.73v-1.22Zm18.12,2.44c-.88-.24-1.75,1.47-1.31,2.44,0-1,1.31-.73,1.74-1.22C338.65,168.26,338.65,167.53,338.22,167.53Zm0-1.71c-.88-.73-2.19.73-1.75,1.71.44-.73,1.53-.24,2-.73v-1.22Zm.87,3.18c-1.09,0-2,1.71-1.31,2.44,0-1,1.31-.73,1.53-1.22a1.15,1.15,0,0,0-.22-1.22Zm-34-12.71c.66,0,.87.25.87,1.71,0,2.44,0,3.91-.87,3.91-.65,0-.65-1.22-.65-3.18,0-1,0-1.71-.22-1.46C304.17,156.54,304.39,156.29,305,156.29Z" transform="translate(80)" fill="#0051ba"/></g></svg>