<svg id="flag-icons-ky" xmlns="http://www.w3.org/2000/svg" viewBox="0 0 640 480"><title>ky</title><path id="path6183" d="M0,0H640V480H0Z" fill="#006"/><path id="path6350" d="M0,0H320V240H0Z" fill="#012169"/><path id="path6352" d="M37.5,0l122,90.5L281,0h39V31L200,120.5l120,89V240H280L160,150.5,40.5,240H0V210l119.5-89L0,32V0Z" fill="#fff"/><path id="path6354" d="M212,140.5,320,220v20L184.5,140.5Zm-92,10,3,17.5L27,240H0ZM320,0V1.5l-124.5,94,1-22L295,0ZM0,0,119.5,88h-30L0,21Z" fill="#c8102e"/><path id="path6356" d="M120.5,0V240h80V0ZM0,80v80H320V80Z" fill="#fff"/><path id="path6358" d="M0,96.5v48H320v-48ZM136.5,0V240h48V0Z" fill="#c8102e"/><g id="border"><g id="use1093"><path id="shield" d="M555.59,181.83v81.38c0,70.58-33.38,94.81-78.08,114-44.7-19.17-78.42-43.4-78.42-114V181.74h156.5Z" fill="#fff" stroke="#fff" stroke-linejoin="round" stroke-width="9.6"/></g><g id="use1095"><g id="motto1"><path id="path1108" d="M350.55,370.56c2.53,6.63,20.48,15.43,41.39,4.19,14.21-8,23.36-19.17,32.16-39.22,2.44-5,3.74-11.32-2.09-15.07-4.62-3.4-12.2-7.14-15.51-10.46-1.66-1.74-3.32-3-4.54-4.18a15.73,15.73,0,0,1,2.44,2.88c8.37,10-.34,24.66-9.58,33.46-6.71,6.27-18.74,21.69-36.34,7.06-3.74-3.32-12.54,10.45-7.84,21.34Z" fill="#fcea83" stroke="#fff" stroke-linejoin="round" stroke-width="9.6"/><path id="path1110" d="M604.47,370.56c-3,6.63-20.91,15.43-41.39,4.19-14.12-8-23.35-19.17-32.5-39.22-2.09-5-3.4-11.32,2.44-15.07,4.62-3.4,12.2-7.14,15.51-10.46a32.58,32.58,0,0,1,4.53-4.18,16.13,16.13,0,0,0-2.44,2.88c-8.37,10,.35,24.66,9.15,33.46,6.71,6.27,19.17,21.69,36.77,7.06,3.75-3.32,12.11,10.45,7.84,21.34Z" fill="#fcea83" stroke="#fff" stroke-linejoin="round" stroke-width="9.6"/><path id="path1112" d="M477.51,406.46c33.37,0,84.78-15.07,112.41-67.7,4.53-8.71,0-13.33-5.49-16.21a63.21,63.21,0,0,1-16.73-12.2c6.71,6.71,5.4,11.33.87,18.82-21.35,35.56-50.54,53.51-91.06,53.51s-69.71-17.95-91.06-53.51c-4.53-7.49-5.83-12.11.44-18.73a57.51,57.51,0,0,1-16.73,12.11c-5.4,2.88-10,7.5-5.4,16.21C392.29,391.39,444.05,406.46,477.51,406.46Z" fill="#fcea83" stroke="#fff" stroke-linejoin="round" stroke-width="9.6"/></g></g><g id="use1097"><g id="motto2"><path id="path1115" d="M400.22,335.88c-.87-4.18-6.19-2.52-7.84,2.53a59.26,59.26,0,0,1-5.93-9.24c-5-7.49-5.83-12.54,1.31-19.6,3.31-3.31,10-7.15,14.55-3C411.9,314.53,406.93,327.52,400.22,335.88Z" fill="#c8102e" stroke="#fff" stroke-linejoin="round" stroke-width="9.6"/><path id="path1117" d="M554.37,335.88c.87-4.18,6.7-2.52,8.36,2.53a66.64,66.64,0,0,0,5.84-9.24c5-7.49,5.84-12.54-1.74-19.6-2.88-3.31-9.59-7.15-14.56-3C543,314.53,547.66,327.52,554.37,335.88Z" fill="#c8102e" stroke="#fff" stroke-linejoin="round" stroke-width="9.6"/><path id="path1119" d="M350.55,370.56c-4.18-6.27-7.49-22.65-8.36-26.75-1.22-3.74-1.66-7.14,3-8.71,4.62-1.74,8.72,4.09,10.81,9.15s5.49,12.46,9.23,21.7c-9.23-5.41-16.73-1.75-14.64,4.61Z" fill="#c8102e" stroke="#fff" stroke-linejoin="round" stroke-width="9.6"/><path id="path1121" d="M604.47,370.56c3.75-6.27,7.06-22.65,8.36-26.75.87-3.74,1.66-7.14-3-8.71-4.62-1.74-8.71,4.09-10.8,9.15s-5.49,12.46-9.24,21.7c9.24-5.41,16.29-1.75,14.64,4.61Z" fill="#c8102e" stroke="#fff" stroke-linejoin="round" stroke-width="9.6"/></g></g><g id="use1099"><g id="rope"><path id="path1179" d="M445.36,181.39c-5.4,1.22-9.15,1.66-14.21-3-3.31-3.31-2.52-9.15.88-11.33,3.74-2.44,7.05-4.09,11.67-2.87s16.73,12.54,13.77,13C454.51,177.21,450,180.08,445.36,181.39Z" fill="#fff" stroke="#fff" stroke-linejoin="round" stroke-width="9.6"/><path id="path1181" d="M458.25,161.35c1.75-1.31,3.84-2.09,9.24-2.61,5.05-.35,8.71-.35,10,3.48,1.74,4.53,3,9.93,6.27,12.46-2.09,1.22-12.54,2.53-16.29.44-5-2.53-6.27-12.2-9.15-13.77Z" fill="#fff" stroke="#fff" stroke-linejoin="round" stroke-width="9.6"/><path id="path1183" d="M494.24,161.79c1.66-1.31,3.75-1.31,9.15-.88s7.49.88,8.71,4.62c1.31,4.18,0,9.59,2.62,13.33-2.62.88-10.89.88-13.86-2.09-4.53-3.31-4.18-13-6.62-15.07Z" fill="#fff" stroke="#fff" stroke-linejoin="round" stroke-width="9.6"/><path id="path1185" d="M519.25,164.23c-3.75-.88-6.27-1.22-7.84,0,2,2.52.35,12.54,4.53,15.85,2.87,2.1,10.45,2.62,12.11-2.09,2.09-4.18,2.09-10.45-8.71-13.76Z" fill="#073163" stroke="#fff" stroke-linejoin="round" stroke-width="9.6"/><path id="path1187" d="M476.29,160c1.22-1.22,3.75-1.65,8.71-1.65,5.49,0,8.72.87,10.46,4.18,1.74,4.18,1.22,9.58,4.18,13-1.22,1.66-12.54,1.66-15.86-.87C479.17,171.72,478.73,162.13,476.29,160Z" fill="#073163" stroke="#fff" stroke-linejoin="round" stroke-width="9.6"/><path id="path1189" d="M440.83,163.79c0-2.09,2.87-2.44,10.45-2.88,7.41-.87,7.85-.43,10.37,5,1.22,3,2.88,7.93,6.28,9.59-9.24,2.17-12.2,3.39-17.17.43a25.39,25.39,0,0,1-8.71-9.15c-.44-1.22-.44-2.52-1.31-3Z" fill="#073163" stroke="#fff" stroke-linejoin="round" stroke-width="9.6"/></g></g><g id="use1101"><g id="turtle"><path id="path1270" d="M441.61,126.67a9,9,0,0,1-7.14-3.31c-2.88-3.84-10.81-5.49-14.21-2.09-1.22.87-2.87.87-4.09,1.22-2.09,0-4.62,2.09-3.84,6.27,1.75-1.31,2.09,0,3.4,0,.87-.43.44.44.44,1.22,0,2.09,4.53,6.27,8.71,5.84,4.62,0,6.71,1.74,7.49,2.61,1.31,1.14.44.79,1.31,2.88,1.22,1.22,1.66,1.65-.43,3.31a8.44,8.44,0,0,0-1.08,11.9,6.89,6.89,0,0,0,1.08,1.08c5.4,4.1,19.17,10.46,34.68-1.74,15-11.68,38.34-5,40.08-.87a36.43,36.43,0,0,1,3.31,8.8c.44,1.74,2.53,3.4,5.49,3a14.19,14.19,0,0,1,7.84,2.53c2.18,1.22,5.06.87,4.27-3-1.74-11.68-8.8-13.34-9.58-18.74,4.09.35,7,.35,8.71-1.3,1.22-1.66,2.88-4.62,4.62-5.41,1.22-.87,1.22-1.74-.44-1.3-2.09.43-3.31,1.3-7.14.87-19.17-2.09-73-16.73-83.48-13.77Z" fill="#059334" stroke="#fff" stroke-linejoin="round" stroke-width="9.6"/><path id="path1272" d="M526.83,140.87a30.44,30.44,0,0,0-8,8.37c-4.09,5.4-16.64,10.8-32.15,10.8-15,0-24.14-2.44-30.85-7.84a52.3,52.3,0,0,0-9.23-5.92c-4.53-2.1-5.4-6.71-4.18-10.46-1.22,2.09-2,4.18-4.54,3.75-1.74,0-5.05,0-4.18,1.74-.43-.87-.43-2.09-.87-2.62l-.87-.78c1.31.87,4.27-1.66,6.36-1.66,1.66.44,3.75-1.65,3.31-4.18l-1.22-5.4c3.31-1.74,47.14,6.27,55.94,7.06,8.72.43,33.81,4.18,30.5,7.14Z" stroke="#fff" stroke-linejoin="round" stroke-width="9.6"/><path id="path1274" d="M447.45,125c4.18-4.18,9.15-6.27,14.2-5.05h1.22c2.62-2.09,8.37-2.53,11.77-.87h1.65c5-1.66,14.55,0,17.95,3.4l1.22.87c11.33-.87,17.95,4.09,25.88,12.11.87.87,2.09,2.44,4.18,2.88,2.53.43,3,1.74.87,3a32.92,32.92,0,0,0-8.71,7.84c-3.83,5-15.95,10.11-31,10.11-14.55,0-23.35-2.62-30.06-7.58a92.67,92.67,0,0,0-8.72-5.84c-2.52-.87-5.83-4.18-4.61-7.49.87-3.32-1.22-7.5-2.88-11.68,1.22-.87,4.53-2.09,6.19-1.22Z" fill="#059334" stroke="#fff" stroke-linejoin="round" stroke-width="9.6"/><g id="g1292"><path id="path1276" d="M521.34,135.47c-7.84-8-14.55-13-25.88-12.2a6.59,6.59,0,0,1-.43,2.62,57.7,57.7,0,0,1,20.47,15.42C517.25,139.57,520.12,137.56,521.34,135.47Z" fill="#00493d" stroke="#fff" stroke-linejoin="round" stroke-width="9.6"/><path id="path1278" d="M494.24,122.49c-3.4-3.31-13-5.06-17.95-3.31,0,1.65,0,4.18-.87,5.83,3,1.22,5.4,4.19,7.93,7.06,1.74-.43,5.84-1.65,7.93-2.09A38.28,38.28,0,0,0,494.24,122.49Z" fill="#00493d" stroke="#fff" stroke-linejoin="round" stroke-width="9.6"/><path id="path1280" d="M474.64,119.09c-3.4-1.66-9.24-1.22-11.77.87a18.57,18.57,0,0,0-1.22,6.71,8.43,8.43,0,0,1,5,2.09c2.61-.87,5.92-2.53,7.14-3.75.44-1.74,1.22-4.18.88-5.83Z" fill="#00493d" stroke="#fff" stroke-linejoin="round" stroke-width="9.6"/><path id="path1282" d="M447.45,125c4.18-4.18,9.15-6.27,14.2-5.05-.87,1.31-1.22,3.75-1.22,6.27-4.62-.43-10.45.88-13,2.53Z" fill="#00493d" stroke="#fff" stroke-linejoin="round" stroke-width="9.6"/><path id="path1284" d="M513.85,142.09a56,56,0,0,0-19.17-14.64c0,.44-.87,2.1-1.31,3.4A152.26,152.26,0,0,1,503,147.58c2.1-.87,7.93-3.4,10.9-5.49Z" fill="#00493d" stroke="#fff" stroke-linejoin="round" stroke-width="9.6"/><path id="path1286" d="M482.13,151.33a156.58,156.58,0,0,0,1.22-17.17c2.09-.43,6.27-1.65,7.93-2.09,2.09,3.4,7.14,12.2,9.24,16.3C495.46,149.59,487.1,151.68,482.13,151.33Z" fill="#00493d" stroke="#fff" stroke-linejoin="round" stroke-width="9.6"/><path id="path1288" d="M467.49,131.29a35.46,35.46,0,0,0,7.06-4.18,36.65,36.65,0,0,1,6.27,5.83c0,3.75-1.22,14.64-1.65,18.3-3.31,0-8.72-.78-11.68-2.44.44-6.27.87-13.33,0-17.51Z" fill="#00493d" stroke="#fff" stroke-linejoin="round" stroke-width="9.6"/><path id="path1290" d="M446.58,136.25a17.53,17.53,0,0,0,.87-5c3.31-2.09,11.68-4.18,17.95-.87a107.29,107.29,0,0,1-.44,17.16,84.41,84.41,0,0,0-18.3-11.33Z" fill="#00493d" stroke="#fff" stroke-linejoin="round" stroke-width="9.6"/></g><g id="g1308"><path id="path1294" d="M425.75,128.67c-.87,0-1.3-2.44-3-2.44-.44,0-1.66.44-2.09,0a2.91,2.91,0,0,0,.87,2.1c.44,1.22,2.53.43,4.18.43Z"/><path id="path1296" d="M425.75,135.82c5,0,5.84-6.27,8.37-6.62" fill="none" stroke="#fff" stroke-linejoin="round" stroke-width="9.6"/><path id="path1298" d="M428.63,136.25c3.74,1.75,6.71-7.05,9.58-6.7" fill="none" stroke="#fff" stroke-linejoin="round" stroke-width="9.6"/><path id="path1300" d="M421.13,125.45c1.22,0,2.1-1.74,4.19.35a4.51,4.51,0,0,0,3,1.31" fill="none" stroke="#fff" stroke-linejoin="round" stroke-width="9.6"/><path id="path1302" d="M427.41,131.64c-1.74,2.61-4.62,4.18-6.28,3.39" fill="none" stroke="#fff" stroke-linejoin="round" stroke-width="9.6"/><path id="path1304" d="M420.26,121.27c-1.22.87-2,2.44-2.87,3.74" fill="none" stroke="#fff" stroke-linejoin="round" stroke-width="9.6"/><path id="path1306" d="M416.17,127.45v2.1" fill="none" stroke="#fff" stroke-linejoin="round" stroke-width="9.6"/></g></g></g><g id="use1103"><g id="pineapple1"><path id="path1192" d="M460.87,121.27c-8.8-6.71-19.26-13-28.84-14.21a244,244,0,0,1,28.4,22.14" stroke="#fff" stroke-linejoin="round" stroke-width="9.6"/><path id="path1194" d="M465.83,115c-10.45-7.14-22.56-15.07-34.24-15.86a108.32,108.32,0,0,1,28.76,24.23" stroke="#fff" stroke-linejoin="round" stroke-width="9.6"/><path id="path1196" d="M479.17,103.32a80.88,80.88,0,0,1,20.47-28.06c-4.18,8.8-8.71,26.75-10.89,33.9" stroke="#fff" stroke-linejoin="round" stroke-width="9.6"/><path id="path1198" d="M488.4,101.23A42.16,42.16,0,0,1,509.66,79a88.15,88.15,0,0,0-15.85,30.49" stroke="#fff" stroke-linejoin="round" stroke-width="9.6"/><path id="path1200" d="M492.15,109.5A73.65,73.65,0,0,1,525.09,82c-10.46,10.46-25.88,29.63-29.63,37.21" stroke="#fff" stroke-linejoin="round" stroke-width="9.6"/><path id="path1202" d="M498,118.74c7.49-4.18,22.57-10.89,33.37-8.71-6.62,2.44-26.66,11.59-35.46,20" stroke="#fff" stroke-linejoin="round" stroke-width="9.6"/><path id="path1204" d="M496.33,115.78c7.06-7.5,20-18.74,33.81-23.35-10,9.58-31.37,31.36-34.24,34.68" stroke="#fff" stroke-linejoin="round" stroke-width="9.6"/><path id="path1206" d="M476.29,111.25c-5.05-15.51-12.55-30.07-23.79-34.68a114,114,0,0,1,18.3,42.61" stroke="#fff" stroke-linejoin="round" stroke-width="9.6"/><path id="path1208" d="M466.62,110.81c-8.28-10-19.61-20-32.5-22.13a78.53,78.53,0,0,1,28.75,33.81" stroke="#fff" stroke-linejoin="round" stroke-width="9.6"/><path id="path1210" d="M471.32,110.38c-10.45-18.83-18.47-22.14-23-25.88,3.75,7,12.9,25.88,18.3,33.8" stroke="#fff" stroke-linejoin="round" stroke-width="9.6"/><path id="path1212" d="M450.41,109.16a50.11,50.11,0,0,1,15,14.55" fill="none" stroke="#fff" stroke-linejoin="round" stroke-width="9.6"/><path id="path1214" d="M450.41,117.87c2.44,2.09,7.06,4.62,11.24,8.36" stroke="#fff" stroke-linejoin="round" stroke-width="9.6"/><path id="path1216" d="M500.08,124.14c4.18-3.31,13.33-8.71,17.95-10.45" stroke="#fff" stroke-linejoin="round" stroke-width="9.6"/><path id="path1218" d="M497.12,121.27c4.18-5.49,12.54-13,15.51-15.51" stroke="#fff" stroke-linejoin="round" stroke-width="9.6"/><path id="path1220" d="M508.79,95.3A251.89,251.89,0,0,0,492.93,115" stroke="#fff" stroke-linejoin="round" stroke-width="9.6"/><path id="path1222" d="M498,91.55a136.74,136.74,0,0,0-10.46,18.39" stroke="#fff" stroke-linejoin="round" stroke-width="9.6"/><path id="path1224" d="M465,92.43c2.53,6.7,7.15,17.95,8.72,22.56" stroke="#fff" stroke-linejoin="round" stroke-width="9.6"/><path id="path1226" d="M461.22,99.48c1.74,2.62,5,8.37,6.27,12.55" stroke="#fff" stroke-linejoin="round" stroke-width="9.6"/></g></g><g id="use1105"><g id="pineapple2"><path id="path1229" d="M475.42,97.39c0-3.74,2.53-7.84,5.05-7.84,2.88,0,5,5,5,7.84,0,3.4-2.53,6.28-5,6.28C477.86,103.67,475.42,101.23,475.42,97.39Z" stroke="#fff" stroke-linejoin="round" stroke-width="9.6"/><path id="path1231" d="M470,100.79c.43-4.18,3.31-7.49,5.84-7.14s3.74,5.48,3.31,8.36c-.44,3.31-3.31,5.84-5.41,5.4C471.67,107.41,469.58,104.54,470,100.79Z" stroke="#fff" stroke-linejoin="round" stroke-width="9.6"/><path id="path1233" d="M481.26,102c-.87-3.75.87-7.84,3.4-8.36,2.44-.35,5,3.74,5.4,7.14.87,3.31-1.31,6.62-3.4,6.62C484.66,107.85,481.69,105.76,481.26,102Z" stroke="#fff" stroke-linejoin="round" stroke-width="9.6"/><path id="path1235" d="M475,105.32c0-4.09,2.53-7.84,5.06-7.84,2.87,0,5,4.53,5,7.84s-2.43,6.28-5,6.28S475,109.16,475,105.32Z" stroke="#fff" stroke-linejoin="round" stroke-width="9.6"/><path id="path1237" d="M467.49,107.41c0-3.74,3-7.84,5.4-7.84,2.62,0,5.06,5,5.06,7.84,0,3.4-3,6.28-5.06,6.28C470.45,113.69,467.49,111.25,467.49,107.41Z" stroke="#fff" stroke-linejoin="round" stroke-width="9.6"/><path id="path1239" d="M482.91,105.76c0-3.75,2.62-7.85,5.06-7.85,2.87,0,5,5,5,7.85,0,3.4-2.44,6.27-5,6.27S482.91,109.5,482.91,105.76Z" stroke="#fff" stroke-linejoin="round" stroke-width="9.6"/><path id="path1241" d="M481.26,109.16c0-4.19,3-7.93,5.4-7.93,2.61,0,5,4.53,5,7.84s-2.52,6.36-5,6.36S481.26,112.82,481.26,109.16Z" stroke="#fff" stroke-linejoin="round" stroke-width="9.6"/><path id="path1243" d="M474.64,112.9c0-4.18,2.44-7.93,5-7.93,3,0,5.06,5,5.06,7.85,0,3.48-2.62,6.36-5.06,6.36s-5.05-2.62-5.05-6.28Z" stroke="#fff" stroke-linejoin="round" stroke-width="9.6"/><path id="path1245" d="M464.18,112.9c0-4.18,2.09-7.93,4.18-7.93s3.75,5,3.75,7.85c0,3.48-2.09,6.36-3.75,6.36C466.27,119.18,464.18,116.56,464.18,112.9Z" stroke="#fff" stroke-linejoin="round" stroke-width="9.6"/><path id="path1247" d="M487.53,112.12c0-3.84,2.09-7.58,4.18-7.58s4.19,4.62,4.19,7.49c0,3.75-2.53,6.27-4.19,6.27-2.09,0-4.18-2.52-4.18-6.27Z" stroke="#fff" stroke-linejoin="round" stroke-width="9.6"/><path id="path1249" d="M490.06,119.09c.87-4.1,3.31-7.49,5-7,1.74.35,2.09,5.31,1.3,8.28-.43,3.74-3,5.83-4.62,5.4s-2.52-3.31-1.74-6.62Z" stroke="#fff" stroke-linejoin="round" stroke-width="9.6"/><path id="path1251" d="M482.13,117.87c.44-3.75,2.87-7.49,5-7.06,2.52,0,3.74,5,3.39,7.84-.43,3.84-2.61,6.36-4.61,5.93-2.1,0-4.19-3-3.75-6.71Z" stroke="#fff" stroke-linejoin="round" stroke-width="9.6"/><path id="path1253" d="M470.45,119.09c-1.3-4.1-3.83-7-5.49-6.62s-2.09,5.4-1.22,8.36c.88,3.31,3.31,5.4,5,5,1.31-.35,2.61-3.31,1.74-6.62Z" stroke="#fff" stroke-linejoin="round" stroke-width="9.6"/><path id="path1255" d="M467.49,118.3c0-3.74,2.09-7.49,4.18-7.49,2.53,0,4.19,4.62,4.19,7.49,0,3.75-2.1,6.28-4.19,6.28C469.93,124.58,467.49,122.05,467.49,118.3Z" stroke="#fff" stroke-linejoin="round" stroke-width="9.6"/><path id="path1257" d="M473.76,120c0-4.18,2.53-7.84,5-7.84,3,0,5,4.53,5,7.84s-2.52,6.27-5,6.27S473.76,123.71,473.76,120Z" stroke="#fff" stroke-linejoin="round" stroke-width="9.6"/><path id="path1259" d="M475.86,74c-.88,3.31-3.75,6.27-1.75,10.89-3.66-1.31-7-1.74-9.93,1.66,3.75-.44,7.06.87,8.71,3.31a5.08,5.08,0,0,0-5.84,3.4c3-.87,5.84-1.75,7.15-1.31-1.31,1.31-3.4,3.31-3.75,5.05,2.44-2.09,5.41-1.74,7.06-3-1.22,3,1.22,5.84,3.31,8.71-.35-4.09,2.09-7,.87-9.14,3.75.87,4.19,4.18,9.59,4.18-2.09-1.22-3.31-5.4-5.84-5.4,1.22-.44,6.27-.88,7.15,0a7.59,7.59,0,0,0-5.49-3.32c1.74-1.74,4.61-5,6.71-5.92-3,.43-7.5.87-9.15,3.4,4.09-3.4,3.31-9.59,7.84-10.46-2.44-.43-6.19,1.22-9.15,4.18,1.31-2.52,1.31-5.83,3-6.71-3.4.88-7.14,5.06-8.36,7.15A15.74,15.74,0,0,0,475.86,74Z" stroke="#fff" stroke-linejoin="round" stroke-width="9.6"/><path id="path1261" d="M478,80.75c0,1.22,0,3.75-.44,4.53" stroke="#fff" stroke-linejoin="round" stroke-width="9.6"/><path id="path1263" d="M483.35,80.31a10.79,10.79,0,0,0-2.53,6.28" stroke="#fff" stroke-linejoin="round" stroke-width="9.6"/><path id="path1265" d="M485.88,85.28a6.65,6.65,0,0,0-3,3.83" fill="none" stroke="#fff" stroke-linejoin="round" stroke-width="9.6"/></g></g></g><g id="motto"><path d="M350.55,370.56c2.53,6.63,20.48,15.43,41.39,4.19,14.21-8,23.36-19.17,32.16-39.22,2.44-5,3.74-11.32-2.09-15.07-4.62-3.4-12.2-7.14-15.51-10.46-1.66-1.74-3.32-3-4.54-4.18a15.73,15.73,0,0,1,2.44,2.88c8.37,10-.34,24.66-9.58,33.46-6.71,6.27-18.74,21.69-36.34,7.06-3.74-3.32-12.54,10.45-7.84,21.34Z" fill="#fcea83" stroke="#000" stroke-width="1.4"/><path d="M604.47,370.56c-3,6.63-20.91,15.43-41.39,4.19-14.12-8-23.35-19.17-32.5-39.22-2.09-5-3.4-11.32,2.44-15.07,4.62-3.4,12.2-7.14,15.51-10.46a32.58,32.58,0,0,1,4.53-4.18,16.13,16.13,0,0,0-2.44,2.88c-8.37,10,.35,24.66,9.15,33.46,6.71,6.27,19.17,21.69,36.77,7.06,3.75-3.32,12.11,10.45,7.84,21.34Z" fill="#fcea83" stroke="#000" stroke-width="1.4"/><path d="M477.51,406.46c33.37,0,84.78-15.07,112.41-67.7,4.53-8.71,0-13.33-5.49-16.21a63.21,63.21,0,0,1-16.73-12.2c6.71,6.71,5.4,11.33.87,18.82-21.35,35.56-50.54,53.51-91.06,53.51s-69.71-17.95-91.06-53.51c-4.53-7.49-5.83-12.11.44-18.73a57.51,57.51,0,0,1-16.73,12.11c-5.4,2.88-10,7.5-5.4,16.21C392.29,391.39,444.05,406.46,477.51,406.46Z" fill="#fcea83" stroke="#000" stroke-width="1.4"/><path d="M400.22,335.88c-.87-4.18-6.19-2.52-7.84,2.53a59.26,59.26,0,0,1-5.93-9.24c-5-7.49-5.83-12.54,1.31-19.6,3.31-3.31,10-7.15,14.55-3C411.9,314.53,406.93,327.52,400.22,335.88Z" fill="#c8102e" stroke="#000" stroke-width="1.4"/><path d="M554.37,335.88c.87-4.18,6.7-2.52,8.36,2.53a66.64,66.64,0,0,0,5.84-9.24c5-7.49,5.84-12.54-1.74-19.6-2.88-3.31-9.59-7.15-14.56-3C543,314.53,547.66,327.52,554.37,335.88Z" fill="#c8102e" stroke="#000" stroke-width="1.4"/><path d="M350.55,370.56c-4.18-6.27-7.49-22.65-8.36-26.75-1.22-3.74-1.66-7.14,3-8.71,4.62-1.74,8.72,4.09,10.81,9.15s5.49,12.46,9.23,21.7c-9.23-5.41-16.73-1.75-14.64,4.61Z" fill="#c8102e" stroke="#000" stroke-width="1.4"/><path d="M604.47,370.56c3.75-6.27,7.06-22.65,8.36-26.75.87-3.74,1.66-7.14-3-8.71-4.62-1.74-8.71,4.09-10.8,9.15s-5.49,12.46-9.24,21.7c9.24-5.41,16.29-1.75,14.64,4.61Z" fill="#c8102e" stroke="#000" stroke-width="1.4"/><g id="g1176"><path id="path1124" d="M374.78,332.92l-3.31,1.74a1.57,1.57,0,0,0-.87,1.66h-.44l-1.66-3.75h.44c0,.35.44.87,1.22.35l7.14-3.75c.88-.43.88-.87.44-1.22l.35-.43,2.09,4.18h-.35c-.43-.43-.87-.87-1.74-.43L375.21,333l1.22,2.44,3.4-1.22c.87-.44.35-1.31.35-1.74h.44l1.74,3.83c-.44-.44-.87-.87-1.74-.44l-7.06,3.75c-.87.44-.87.87-.44,1.22l-.43.44-2.09-3.75.43-.44c.44.44.87.87,1.74.44l3.31-1.74Z" fill="#00493d"/><path id="path1126" d="M381.92,338.41c.87-.44.87-.87.35-1.74h.44l4.18,6.27L384,345v-.35c1.66-1.3,1.66-3,1.22-3.39s-.87-.88-.87-1.22c-.35,0-.35-.44-1.22.43l-3,2.09c.44.35.87,1.66,3,.35h.44l-4.62,3.4v-.44c2.09-1.74,1.22-3,.87-3.31l-3,2.09a1.14,1.14,0,0,0-.87,1.22c.43,0,.43.44.87.88.43.87,1.74,1.65,3.75.87l.43.35-3.31,1.22-4.18-6.63H374c.35.35.87.87,1.66.35Z" fill="#00493d"/><path id="path1128" d="M388.55,354.27l-2.88,2.44a1.31,1.31,0,0,0,0,1.74h-.44l-3-3,.44-.44c.43.44.87.87,1.74,0l5.4-5.4c.87-.43.87-.87.35-1.74l3,3.48a1.16,1.16,0,0,0-1.74,0L389,353.83l2.09,2.09,2.53-2.09c.87-.87.43-1.22,0-1.74l.43-.35,2.88,3.31h-.44a1.52,1.52,0,0,0-1.65.44l-5.4,5.05c-.87.87-.87,1.22-.44,1.66v.43l-2.87-3.39c.34,0,1.22.43,1.65,0l2.88-2.88Z" fill="#00493d"/><path id="path1130" d="M394.82,363.07l1.31,1.22,1.65-3.75a14.08,14.08,0,0,0-3.4,1.66l.44.87-.44.35-.87-.87c-.35.43-.78.43-1.22.87-1.22.87-.87,1.31-.35,1.74v.35l-2.09-2.09h.35l1.74-.44,8.28-4.53.44.35s-.44.44-4.19,8.8c0,.87-.34,1.22,0,2.09l-3.31-2.87.44-.44c.43.87,1.22.87,1.65,0,0-.43.44-1.31.44-1.74l-1.31-1.22.44-.44Z" fill="#00493d"/><path id="path1132" d="M398.13,371.35l.44-.44c.43.44.87.44,1.74,0l5.4-7.06-.43-.43a2.69,2.69,0,0,0-3.32.87v-.44l1.66-2.09,6.27,4.62-2.09,2.44h-.43c1.22-1.22.87-2.87,0-3.31v-.44L402,372.22c-.87.43-.43,1.22,0,1.65h-.43Z" fill="#00493d"/><path id="path1134" d="M409,373l-2.09,3c-.43.87,0,1.22.44,1.74l-.44.35-3.31-2.53v-.44c.87.44,1.22.44,1.66-.34l4.61-6.28a1.4,1.4,0,0,0-.43-1.74l.43-.35,3.31,2.44v.44c-.87-.44-1.22-.44-1.74.43l-2,3,2.52,1.66,2.1-3a1.29,1.29,0,0,0-.44-1.66l.44-.43,3.31,2.52v.44c-.44-.44-1.22-.44-1.75.43l-4.09,6.63c-.87.43-.44.87,0,1.3v.35l-3.75-2.44h.44a1.44,1.44,0,0,0,1.22-.43l2.09-3.31Z" fill="#00493d"/><path id="path1136" d="M417.39,384.77l.43-.44c.44.44,1.22.44,1.66-.43l3.31-7.06c.44-.87,0-1.31-.44-1.75l7.15,3.4-1.74,3.31-.35-.43a2.91,2.91,0,0,0-.44-3.75c-.43,0-.87-.43-1.22-.43s-.43,0-.87.87a22.68,22.68,0,0,0-1.65,2.87c.43.44,1.22,1.31,3-.87h.35l-2.44,5.06-.44-.35c1.22-2.62-.43-3-.87-3l-1.66,3.32c-.43.87,0,1.3.44,1.3v.44Z" fill="#00493d"/><path id="path1138" d="M429.5,390.6c-1.22-.87-1.22-3.39,0-5.83.87-2.62,2.53-4.62,4.18-3.84,1.22.44.87,3,0,5.49-1.31,2.88-3,4.53-4.18,4.18h-.44c3,1.22,5.06-.43,6.28-3.39,1.22-2.44.87-5.41-1.75-6.63-2.44-1.3-5,.35-6.18,3.32s-.87,5.83,1.74,6.7Z" fill="#00493d"/><path id="path1140" d="M442.4,391.39l1.74-5a1.39,1.39,0,0,0-.44-1.74l2.09.44v.43c-.43,0-.87,0-1.3.87l-1.66,5c-.87,2.09-2.09,3.75-4.53,3a3.37,3.37,0,0,1-2.09-4.62l2.09-5.4a1.38,1.38,0,0,0-.44-1.74v-.35l3.75,1.66v.43c-.43-.43-1.22-.43-1.22.44l-2.18,5.31c-.43,1.66-.43,3.31.87,3.75s2.44-.44,3.23-2.53Z" fill="#00493d"/><path id="path1142" d="M446.23,386c0-.44,0-.44-.44-.44l2.88.44,2.61,7.93,1.22-5.06a1.27,1.27,0,0,0-.43-1.65l2.44.43-.35.44c-.44,0-.87,0-1.31.87l-2.09,9.15h-.35l-3.4-10-2.09,6.71c0,1.22.44,1.22.87,1.65v.44l-2.52-.87v-.44c.43.44,1.22,0,1.22-.87l2.09-7.49Z" fill="#00493d"/><path id="path1144" d="M460.43,394.35c-.87,3.75-2.61,4.62-3.4,4.62h-.87a.71.71,0,0,1,0-.87l1.31-8.37c.44-.43.44-.87.87-.43h.87c.79,0,1.57,1.74,1.22,5.05l1.22.44c.87-4.19-.87-5.93-3-6.28-1.66-.43-4.18-.87-4.18-.87v.44c.43.43,1.3.43.87,1.74l-1.22,7.41c-.44.87-.87,1.3-1.31,1.3h-.35l4.1.88c2.09.34,4.18,0,5-4.62Z" fill="#00493d"/><path id="path1146" d="M464.18,391a1.31,1.31,0,0,0-1.31-1.22v-.43l7.58.87-.43,3.31c0-2.09-1.31-2.88-2.09-2.88a1.63,1.63,0,0,0-1.31-.43c-.35,0-.35,0-.35,1.22l-.44,3.4c.44,0,1.66.35,2.53-2.09l-.43,5.4h-.44c0-2.53-1.22-2.53-1.74-2.53l-.35,3.75c0,.87,0,.87.43.87l.88.44c1.22,0,2.44-.44,3.31-3h.43l-.87,3.31-7.93-.87c.87,0,1.22-.35,1.75-1.13Z" fill="#00493d"/><path id="path1148" d="M478,396c0,3.74-1.31,5-2.53,5-.44-.34-.44-.34-.87-.34l-.35-.44.44-8.71c0-.53,0-.53.34-.53h.88c.87,0,2.09,1.31,2.09,5.06h1.65c0-4.19-2.09-5.41-4.18-5.41a21.26,21.26,0,0,0-4.18-.43v.43a1.3,1.3,0,0,1,1.3,1.22l-.43,7.93c0,.88-.44,1.22-.87,1.22v.44H475c2.1,0,4.19-.87,4.62-5.4H478Z" fill="#00493d"/><path id="path1150" d="M490.06,399.32c0,.87.43.87,1.22.87v.44l-4.62.34c.44-.34,1.31-.87,1.31-1.65l-.87-7.84c-.44-.88-.88-.88-1.66-.88v-.43l4.62-.44c-.44.44-1.31.87-.87,1.75Z" fill="#00493d"/><path id="path1152" d="M494.24,400.19v-.44c.44,0,.87-.43.87-1.22l-1.74-8.71h-.44c-.87.35-1.65,1.13-1.22,2.88h-.43l-.44-3,7.58-1.22.35,2.88h-.35c0-1.66-1.3-2.09-2.61-2.09h-.35L497.2,398c0,.87.35,1.31,1.22,1.31v.43Z" fill="#00493d"/><path id="path1154" d="M512.19,391.82l-1.74-5c0-.87-.79-.87-1.22-.87v-.44l2.09-.87v.44c-.44.43-.44.43-.44,1.3l1.75,5.4c.35,1.75.35,4.19-2.09,5.06a3.4,3.4,0,0,1-4.19-3l-1.74-5.41c-.35-.87-.78-.87-1.22-.87l-.44-.43,4.19-1.22v.43c-.35.44-.87.87-.35,1.66l1.22,5.4a3.06,3.06,0,0,0,2.87,2.53c1.31-.44,1.75-2.09,1.31-4.19Z" fill="#00493d"/><path id="path1156" d="M516.81,388.86c2-.87,1.66-2,1.22-3.31s-1.22-2.09-2.09-1.65c-.44,0-.87.43-.44.87l1.31,4.09.35.44.87,3.4a1,1,0,0,0,1.74.34v.44l-3.83,1.74-.44-.43c.87-.44.87-.87.87-1.75l-3-7.05c-.43-1.22-.87-.87-1.65-.87v-.35l4.18-1.75c1.74-.34,3.31,0,4.18,1.75A3.47,3.47,0,0,1,518,389a1.63,1.63,0,0,0-.87.35Z" fill="#00493d"/><path id="path1158" d="M527.18,390.08c-1.22.52-2.88-1.22-4.18-4.09-1.22-2.53-1.22-5.06,0-5.41s3,1.22,4.18,3.75,1.31,5,0,5.84c2.61-.87,3.4-3.75,2.09-6.71-1.22-2.53-3.75-4.18-6.27-3.31a4.88,4.88,0,0,0-2.18,6.55.8.8,0,0,1,.08.16c1.31,2.87,3.84,4.53,6.28,3.31Z" fill="#00493d"/><path id="path1160" d="M527.61,378.49h-.78l2.44-1.74,7.58,4.18-2.61-4.53a1.52,1.52,0,0,0-1.57-.87v-.44l2.09-.87c-.44.53-.87.87,0,1.75l4.18,8.36-.43.44-9.24-5.06,3.4,6.28a1,1,0,0,0,1.65.43v.44l-2.09,1.22v-.44c.44-.43.44-.87,0-1.65l-3.31-6.71-1.31-.87Z" fill="#00493d"/><path id="path1162" d="M546.44,379.71v-.43c0-.44.43-.87,0-1.66l-5.06-7.06H541c-.88.35-1.22,2.09,0,3.31l-.35.44-1.75-3,6.28-4.18,1.74,2.61c-1.31-1.31-2.61-1.31-3.4-.87l-.43.35,5.05,7.14a1.07,1.07,0,0,0,1.74.44v.35Z" fill="#00493d"/><path id="path1164" d="M551.05,369.69l2.44,3a1.59,1.59,0,0,0,1.75,0V373l-3.4,3v-.44c.43-.44.43-.87,0-1.66l-5-6.27c-.43-.87-.87-.43-1.74-.43l3.4-2.88v.44c0,.34-.44.87,0,1.65l2.09,2.44,2.44-1.65-2-2.88c-.43-.87-1.3-.44-1.74-.44l3.4-3v.44c-.44.43-.44.87,0,1.74l5,6.19a.82.82,0,0,0,1.3,0l.35.43-3.31,3-.43-.43c.43-.44.87-.87.43-1.74l-2.53-2.88Z" fill="#00493d"/><path id="path1166" d="M554.8,360.89a1.57,1.57,0,0,0-1.74,0v-.35l5.49-5.05,2.52,2.53h-.43c-1.31-1.75-3-.88-3.75-.44,0,.44-.43.44-.87.87a3.29,3.29,0,0,0,.44,1.22L559,362.2c.35-.44,1.66-1.31,0-3.4h.35l3.4,3.83V363c-2.09-2.09-3-.87-3.4-.35l2.62,2.44c.34.88.78.88.78.88l1.22-1.22c.44-.44.87-1.75,0-4.19h.44l1.65,2.88-5.4,5.4-.44-.35c.44-.43.87-.87,0-1.74Z" fill="#00493d"/><path id="path1168" d="M564.82,349.22a1.1,1.1,0,0,0,.35,1.74c.87.78,1.74.78,3.4,0a3.2,3.2,0,0,1,3.75.35,3.6,3.6,0,0,1,.87,4.61,18.5,18.5,0,0,1-1.75,1.22c-.43,0-.43,0-.43.44V358l-2.88-2.53h.44c1.65.87,3.31,1.22,4.18,0,.87-.87,0-1.74-.43-2.09-.88-.87-1.75-.87-3,0a4.82,4.82,0,0,1-4.18-.44c-1.66-1.65-1.66-2.87-.87-4.18l1.74-1.22c.44,0,.44,0,0-.87l3,2.09h-.43c-2.09-.87-3.4-.35-3.75.44Z" fill="#00493d"/><path id="path1170" d="M568.57,345.9a1.3,1.3,0,0,0-1.74.44h-.35l4.62-6.71,2.87,2.09-.44.44a2.86,2.86,0,0,0-3.74,0c0,.43-.44.87-.44,1.22-.35,0-.35.43.44.87.43.43,3,2.09,3,2.09.44-.44,1.22-1.31-.43-3v-.44l4.18,3.4c-2.53-1.31-3,0-3.31.35l2.87,2.09a3.29,3.29,0,0,0,1.22.44c0-.44.44-.88.87-1.22.44-.88.87-2.1-.87-3.75l.44-.44,2.09,2.53-4.18,6.27h-.44a1.45,1.45,0,0,0-.35-2.09Z" fill="#00493d"/><path id="path1172" d="M579.81,338.41l-1.22,2.09a20.49,20.49,0,0,1-2.53-3l3.75.87h.87c.44,0,1.22.35,1.66.35,1.22.43.87.87.43,1.74h.44l2.09-3.83c-.87.87-1.31.43-2.09.43-8.8-1.65-9.59-2.09-9.59-2.09v.44l6.62,7.49a2.61,2.61,0,0,1,.44,1.74h.44l1.22-2.09-.44-.43c-.44.87-.87,1.22-1.66,0l-.87-.87,1.31-2.88Z" fill="#00493d"/><path id="path1174" d="M577.28,329.17c-.35.44-.35,1.31.87,1.75s1.75,0,3-.87,2.44-1.75,4.09-.88c2.62,1.31,2.09,3.4,1.74,4.19l-1.3,1.74v.78l-3.31-1.74c2.09.44,3.74,0,4.18-1.22.43-.87-.44-1.65-.87-2.09-.87-.35-1.66,0-2.88.87-1.31,1.22-2.61,1.74-4.18.87-1.74-.87-2.53-2.09-1.74-3.4,0-.87.87-1.22,1.3-1.65,0-.44,0-.44-.43-.87v-.35l3.4,1.65h-.44C578.59,327.52,577.28,328.39,577.28,329.17Z" fill="#00493d"/></g></g><g id="crest"><path d="M445.36,181.39c-5.4,1.22-9.15,1.66-14.21-3-3.31-3.31-2.52-9.15.88-11.33,3.74-2.44,7.05-4.09,11.67-2.87s16.73,12.54,13.77,13C454.51,177.21,450,180.08,445.36,181.39Z" fill="#fff" stroke="#000" stroke-width="1.4"/><path d="M458.25,161.35c1.75-1.31,3.84-2.09,9.24-2.61,5.05-.35,8.71-.35,10,3.48,1.74,4.53,3,9.93,6.27,12.46-2.09,1.22-12.54,2.53-16.29.44-5-2.53-6.27-12.2-9.15-13.77Z" fill="#fff" stroke="#000" stroke-width="1.4"/><path d="M494.24,161.79c1.66-1.31,3.75-1.31,9.15-.88s7.49.88,8.71,4.62c1.31,4.18,0,9.59,2.62,13.33-2.62.88-10.89.88-13.86-2.09-4.53-3.31-4.18-13-6.62-15.07Z" fill="#fff" stroke="#000" stroke-width="1.4"/><path d="M519.25,164.23c-3.75-.88-6.27-1.22-7.84,0,2,2.52.35,12.54,4.53,15.85,2.87,2.1,10.45,2.62,12.11-2.09,2.09-4.18,2.09-10.45-8.71-13.76Z" fill="#073163" stroke="#000" stroke-width="1.4"/><path d="M476.29,160c1.22-1.22,3.75-1.65,8.71-1.65,5.49,0,8.72.87,10.46,4.18,1.74,4.18,1.22,9.58,4.18,13-1.22,1.66-12.54,1.66-15.86-.87C479.17,171.72,478.73,162.13,476.29,160Z" fill="#073163" stroke="#000" stroke-width="1.4"/><path d="M440.83,163.79c0-2.09,2.87-2.44,10.45-2.88,7.41-.87,7.85-.43,10.37,5,1.22,3,2.88,7.93,6.28,9.59-9.24,2.17-12.2,3.39-17.17.43a25.39,25.39,0,0,1-8.71-9.15c-.44-1.22-.44-2.52-1.31-3Z" fill="#073163" stroke="#000" stroke-width="1.4"/><g id="g1268"><path d="M460.87,121.27c-8.8-6.71-19.26-13-28.84-14.21a244,244,0,0,1,28.4,22.14" fill="#f9d050" stroke="#000" stroke-width="0.6"/><path d="M465.83,115c-10.45-7.14-22.56-15.07-34.24-15.86a108.32,108.32,0,0,1,28.76,24.23" fill="#f9d050" stroke="#000" stroke-width="0.6"/><path d="M479.17,103.32a80.88,80.88,0,0,1,20.47-28.06c-4.18,8.8-8.71,26.75-10.89,33.9" fill="#f9d050" stroke="#000" stroke-width="0.6"/><path d="M488.4,101.23A42.16,42.16,0,0,1,509.66,79a88.15,88.15,0,0,0-15.85,30.49" fill="#f9d050" stroke="#000" stroke-width="0.6"/><path d="M492.15,109.5A73.65,73.65,0,0,1,525.09,82c-10.46,10.46-25.88,29.63-29.63,37.21" fill="#f9d050" stroke="#000" stroke-width="0.6"/><path d="M498,118.74c7.49-4.18,22.57-10.89,33.37-8.71-6.62,2.44-26.66,11.59-35.46,20" fill="#f9d050" stroke="#000" stroke-width="0.6"/><path d="M496.33,115.78c7.06-7.5,20-18.74,33.81-23.35-10,9.58-31.37,31.36-34.24,34.68" fill="#f9d050" stroke="#000" stroke-width="0.6"/><path d="M476.29,111.25c-5.05-15.51-12.55-30.07-23.79-34.68a114,114,0,0,1,18.3,42.61" fill="#f9d050" stroke="#000" stroke-width="0.6"/><path d="M466.62,110.81c-8.28-10-19.61-20-32.5-22.13a78.53,78.53,0,0,1,28.75,33.81" fill="#f9d050" stroke="#000" stroke-width="0.6"/><path d="M471.32,110.38c-10.45-18.83-18.47-22.14-23-25.88,3.75,7,12.9,25.88,18.3,33.8" fill="#f9d050" stroke="#000" stroke-width="0.6"/><path d="M450.41,109.16a50.11,50.11,0,0,1,15,14.55" fill="none" stroke="#000" stroke-width="0.6"/><path d="M450.41,117.87c2.44,2.09,7.06,4.62,11.24,8.36" fill="#f9d050" stroke="#000" stroke-width="0.6"/><path d="M500.08,124.14c4.18-3.31,13.33-8.71,17.95-10.45" fill="#f9d050" stroke="#000" stroke-width="0.6"/><path d="M497.12,121.27c4.18-5.49,12.54-13,15.51-15.51" fill="#f9d050" stroke="#000" stroke-width="0.6"/><path d="M508.79,95.3A251.89,251.89,0,0,0,492.93,115" fill="#f9d050" stroke="#000" stroke-width="0.6"/><path d="M498,91.55a136.74,136.74,0,0,0-10.46,18.39" fill="#f9d050" stroke="#000" stroke-width="0.6"/><path d="M465,92.43c2.53,6.7,7.15,17.95,8.72,22.56" fill="#f9d050" stroke="#000" stroke-width="0.6"/><path d="M461.22,99.48c1.74,2.62,5,8.37,6.27,12.55" fill="#f9d050" stroke="#000" stroke-width="0.6"/><path d="M475.42,97.39c0-3.74,2.53-7.84,5.05-7.84,2.88,0,5,5,5,7.84,0,3.4-2.53,6.28-5,6.28C477.86,103.67,475.42,101.23,475.42,97.39Z" fill="#f9d050" stroke="#000" stroke-width="0.6"/><path d="M470,100.79c.43-4.18,3.31-7.49,5.84-7.14s3.74,5.48,3.31,8.36c-.44,3.31-3.31,5.84-5.41,5.4C471.67,107.41,469.58,104.54,470,100.79Z" fill="#f9d050" stroke="#000" stroke-width="0.6"/><path d="M481.26,102c-.87-3.75.87-7.84,3.4-8.36,2.44-.35,5,3.74,5.4,7.14.87,3.31-1.31,6.62-3.4,6.62C484.66,107.85,481.69,105.76,481.26,102Z" fill="#f9d050" stroke="#000" stroke-width="0.6"/><path d="M475,105.32c0-4.09,2.53-7.84,5.06-7.84,2.87,0,5,4.53,5,7.84s-2.43,6.28-5,6.28S475,109.16,475,105.32Z" fill="#f9d050" stroke="#000" stroke-width="0.6"/><path d="M467.49,107.41c0-3.74,3-7.84,5.4-7.84,2.62,0,5.06,5,5.06,7.84,0,3.4-3,6.28-5.06,6.28C470.45,113.69,467.49,111.25,467.49,107.41Z" fill="#f9d050" stroke="#000" stroke-width="0.6"/><path d="M482.91,105.76c0-3.75,2.62-7.85,5.06-7.85,2.87,0,5,5,5,7.85,0,3.4-2.44,6.27-5,6.27S482.91,109.5,482.91,105.76Z" fill="#f9d050" stroke="#000" stroke-width="0.6"/><path d="M481.26,109.16c0-4.19,3-7.93,5.4-7.93,2.61,0,5,4.53,5,7.84s-2.52,6.36-5,6.36S481.26,112.82,481.26,109.16Z" fill="#f9d050" stroke="#000" stroke-width="0.6"/><path d="M474.64,112.9c0-4.18,2.44-7.93,5-7.93,3,0,5.06,5,5.06,7.85,0,3.48-2.62,6.36-5.06,6.36s-5.05-2.62-5.05-6.28Z" fill="#f9d050" stroke="#000" stroke-width="0.6"/><path d="M464.18,112.9c0-4.18,2.09-7.93,4.18-7.93s3.75,5,3.75,7.85c0,3.48-2.09,6.36-3.75,6.36C466.27,119.18,464.18,116.56,464.18,112.9Z" fill="#f9d050" stroke="#000" stroke-width="0.6"/><path d="M487.53,112.12c0-3.84,2.09-7.58,4.18-7.58s4.19,4.62,4.19,7.49c0,3.75-2.53,6.27-4.19,6.27-2.09,0-4.18-2.52-4.18-6.27Z" fill="#f9d050" stroke="#000" stroke-width="0.6"/><path d="M490.06,119.09c.87-4.1,3.31-7.49,5-7,1.74.35,2.09,5.31,1.3,8.28-.43,3.74-3,5.83-4.62,5.4s-2.52-3.31-1.74-6.62Z" fill="#f9d050" stroke="#000" stroke-width="0.6"/><path d="M482.13,117.87c.44-3.75,2.87-7.49,5-7.06,2.52,0,3.74,5,3.39,7.84-.43,3.84-2.61,6.36-4.61,5.93-2.1,0-4.19-3-3.75-6.71Z" fill="#f9d050" stroke="#000" stroke-width="0.6"/><path d="M470.45,119.09c-1.3-4.1-3.83-7-5.49-6.62s-2.09,5.4-1.22,8.36c.88,3.31,3.31,5.4,5,5,1.31-.35,2.61-3.31,1.74-6.62Z" fill="#f9d050" stroke="#000" stroke-width="0.6"/><path d="M467.49,118.3c0-3.74,2.09-7.49,4.18-7.49,2.53,0,4.19,4.62,4.19,7.49,0,3.75-2.1,6.28-4.19,6.28C469.93,124.58,467.49,122.05,467.49,118.3Z" fill="#f9d050" stroke="#000" stroke-width="0.6"/><path d="M473.76,120c0-4.18,2.53-7.84,5-7.84,3,0,5,4.53,5,7.84s-2.52,6.27-5,6.27S473.76,123.71,473.76,120Z" fill="#f9d050" stroke="#000" stroke-width="0.6"/><path d="M475.86,74c-.88,3.31-3.75,6.27-1.75,10.89-3.66-1.31-7-1.74-9.93,1.66,3.75-.44,7.06.87,8.71,3.31a5.08,5.08,0,0,0-5.84,3.4c3-.87,5.84-1.75,7.15-1.31-1.31,1.31-3.4,3.31-3.75,5.05,2.44-2.09,5.41-1.74,7.06-3-1.22,3,1.22,5.84,3.31,8.71-.35-4.09,2.09-7,.87-9.14,3.75.87,4.19,4.18,9.59,4.18-2.09-1.22-3.31-5.4-5.84-5.4,1.22-.44,6.27-.88,7.15,0a7.59,7.59,0,0,0-5.49-3.32c1.74-1.74,4.61-5,6.71-5.92-3,.43-7.5.87-9.15,3.4,4.09-3.4,3.31-9.59,7.84-10.46-2.44-.43-6.19,1.22-9.15,4.18,1.31-2.52,1.31-5.83,3-6.71-3.4.88-7.14,5.06-8.36,7.15A15.74,15.74,0,0,0,475.86,74Z" fill="#f9d050" stroke="#000" stroke-width="0.6"/><path d="M478,80.75c0,1.22,0,3.75-.44,4.53" fill="#f9d050" stroke="#000" stroke-width="0.6"/><path d="M483.35,80.31a10.79,10.79,0,0,0-2.53,6.28" fill="#f9d050" stroke="#000" stroke-width="0.6"/><path d="M485.88,85.28a6.65,6.65,0,0,0-3,3.83" fill="none" stroke="#000" stroke-width="0.6"/></g><path d="M441.61,126.67a9,9,0,0,1-7.14-3.31c-2.88-3.84-10.81-5.49-14.21-2.09-1.22.87-2.87.87-4.09,1.22-2.09,0-4.62,2.09-3.84,6.27,1.75-1.31,2.09,0,3.4,0,.87-.43.44.44.44,1.22,0,2.09,4.53,6.27,8.71,5.84,4.62,0,6.71,1.74,7.49,2.61,1.31,1.14.44.79,1.31,2.88,1.22,1.22,1.66,1.65-.43,3.31a8.44,8.44,0,0,0-1.08,11.9,6.89,6.89,0,0,0,1.08,1.08c5.4,4.1,19.17,10.46,34.68-1.74,15-11.68,38.34-5,40.08-.87a36.43,36.43,0,0,1,3.31,8.8c.44,1.74,2.53,3.4,5.49,3a14.19,14.19,0,0,1,7.84,2.53c2.18,1.22,5.06.87,4.27-3-1.74-11.68-8.8-13.34-9.58-18.74,4.09.35,7,.35,8.71-1.3,1.22-1.66,2.88-4.62,4.62-5.41,1.22-.87,1.22-1.74-.44-1.3-2.09.43-3.31,1.3-7.14.87-19.17-2.09-73-16.73-83.48-13.77Z" fill="#059334" stroke="#000" stroke-width="1.4"/><path d="M526.83,140.87a30.44,30.44,0,0,0-8,8.37c-4.09,5.4-16.64,10.8-32.15,10.8-15,0-24.14-2.44-30.85-7.84a52.3,52.3,0,0,0-9.23-5.92c-4.53-2.1-5.4-6.71-4.18-10.46-1.22,2.09-2,4.18-4.54,3.75-1.74,0-5.05,0-4.18,1.74-.43-.87-.43-2.09-.87-2.62l-.87-.78c1.31.87,4.27-1.66,6.36-1.66,1.66.44,3.75-1.65,3.31-4.18l-1.22-5.4c3.31-1.74,47.14,6.27,55.94,7.06,8.72.43,33.81,4.18,30.5,7.14Z" stroke="#000" stroke-width="1.4"/><path d="M447.45,125c4.18-4.18,9.15-6.27,14.2-5.05h1.22c2.62-2.09,8.37-2.53,11.77-.87h1.65c5-1.66,14.55,0,17.95,3.4l1.22.87c11.33-.87,17.95,4.09,25.88,12.11.87.87,2.09,2.44,4.18,2.88,2.53.43,3,1.74.87,3a32.92,32.92,0,0,0-8.71,7.84c-3.83,5-15.95,10.11-31,10.11-14.55,0-23.35-2.62-30.06-7.58a92.67,92.67,0,0,0-8.72-5.84c-2.52-.87-5.83-4.18-4.61-7.49.87-3.32-1.22-7.5-2.88-11.68,1.22-.87,4.53-2.09,6.19-1.22Z" fill="#059334" stroke="#000" stroke-width="1.4"/><path d="M521.34,135.47c-7.84-8-14.55-13-25.88-12.2a6.59,6.59,0,0,1-.43,2.62,57.7,57.7,0,0,1,20.47,15.42C517.25,139.57,520.12,137.56,521.34,135.47Z" fill="#00493d" stroke="#000" stroke-width="1.4"/><path d="M494.24,122.49c-3.4-3.31-13-5.06-17.95-3.31,0,1.65,0,4.18-.87,5.83,3,1.22,5.4,4.19,7.93,7.06,1.74-.43,5.84-1.65,7.93-2.09A38.28,38.28,0,0,0,494.24,122.49Z" fill="#00493d" stroke="#000" stroke-width="1.4"/><path d="M474.64,119.09c-3.4-1.66-9.24-1.22-11.77.87a18.57,18.57,0,0,0-1.22,6.71,8.43,8.43,0,0,1,5,2.09c2.61-.87,5.92-2.53,7.14-3.75.44-1.74,1.22-4.18.88-5.83Z" fill="#00493d" stroke="#000" stroke-width="1.4"/><path d="M447.45,125c4.18-4.18,9.15-6.27,14.2-5.05-.87,1.31-1.22,3.75-1.22,6.27-4.62-.43-10.45.88-13,2.53Z" fill="#00493d" stroke="#000" stroke-width="1.4"/><path d="M513.85,142.09a56,56,0,0,0-19.17-14.64c0,.44-.87,2.1-1.31,3.4A152.26,152.26,0,0,1,503,147.58c2.1-.87,7.93-3.4,10.9-5.49Z" fill="#00493d" stroke="#000" stroke-width="1.4"/><path d="M482.13,151.33a156.58,156.58,0,0,0,1.22-17.17c2.09-.43,6.27-1.65,7.93-2.09,2.09,3.4,7.14,12.2,9.24,16.3C495.46,149.59,487.1,151.68,482.13,151.33Z" fill="#00493d" stroke="#000" stroke-width="1.4"/><path d="M467.49,131.29a35.46,35.46,0,0,0,7.06-4.18,36.65,36.65,0,0,1,6.27,5.83c0,3.75-1.22,14.64-1.65,18.3-3.31,0-8.72-.78-11.68-2.44.44-6.27.87-13.33,0-17.51Z" fill="#00493d" stroke="#000" stroke-width="1.4"/><path d="M446.58,136.25a17.53,17.53,0,0,0,.87-5c3.31-2.09,11.68-4.18,17.95-.87a107.29,107.29,0,0,1-.44,17.16,84.41,84.41,0,0,0-18.3-11.33Z" fill="#00493d" stroke="#000" stroke-width="1.4"/><path d="M425.75,128.67c-.87,0-1.3-2.44-3-2.44-.44,0-1.66.44-2.09,0a2.91,2.91,0,0,0,.87,2.1c.44,1.22,2.53.43,4.18.43Z"/><path d="M425.75,135.82c5,0,5.84-6.27,8.37-6.62" fill="none" stroke="#000" stroke-width="1.4"/><path d="M428.63,136.25c3.74,1.75,6.71-7.05,9.58-6.7" fill="none" stroke="#000" stroke-width="1.4"/><path d="M421.13,125.45c1.22,0,2.1-1.74,4.19.35a4.51,4.51,0,0,0,3,1.31" fill="none" stroke="#000" stroke-width="1.4"/><path d="M427.41,131.64c-1.74,2.61-4.62,4.18-6.28,3.39" fill="none" stroke="#000" stroke-width="1.4"/><path d="M420.26,121.27c-1.22.87-2,2.44-2.87,3.74" fill="none" stroke="#000" stroke-width="1.4"/><path d="M416.17,127.45v2.1" fill="none" stroke="#000" stroke-width="1.4"/></g><g id="g1475"><path d="M555.59,181.83v81.38c0,70.58-33.38,94.81-78.08,114-44.7-19.17-78.42-43.4-78.42-114V181.74h156.5Z" fill="#fff"/><path id="path1313" d="M477.51,250.66c3.75,0,9.59-3.31,14.64-8.36,5.4-5.84,14.64-7.84,24.22,0s15.43,4.62,20.48,0S546,236,555.58,236v-54.2H399v54.28c9.59,0,13.77,1.75,18.82,6.28s10.81,7.93,20.48,0c10-7.85,18.73-5.84,24.57,0,4.62,5.05,10.46,8.36,14.64,8.36Z" fill="#c8102e"/><g id="g1321"><path id="path1315" d="M477.51,292.49c5.06,0,15.08-5.49,17.52-6.71,9.23-5.49,15.85-.44,21.34,2.09,5.84,2.44,16.65,5.4,23.36,0s10.45-5.05,15.07-5.05a142.18,142.18,0,0,0,.87-19.61v-5c-5.92-1.22-8.8.43-15.07,5.92s-13.42,4.19-22.66.87c-8.71-3.83-17.42-10.45-26.23,0a21.12,21.12,0,0,1-14.2,7c-6.27,0-11.68-4.1-14.2-7-9.15-10.45-17.52-3.83-26.32,0-9.15,3.32-16.73,4.54-22.91-.87-5.84-5.49-8.8-7.14-15.08-5.92v5a155.65,155.65,0,0,0,1.22,19.61c4.62,0,8-.44,14.64,5.05s17.95,2.44,23.44,0c5.84-2.53,12.46-7.58,21.7-2.09,2.52,1.22,12.11,6.62,17.51,6.62Z" fill="#0b50a0"/><path id="path1317" d="M477.51,310.44A44.41,44.41,0,0,0,498,304.17c8.36-4.62,14.2-2.62,22.57,1.65,8.71,4.18,15.86,2.88,20.91,0,2.44-1.74,4.53-5.05,9.93-3.75a93.62,93.62,0,0,1-10.8,27.1,28.32,28.32,0,0,1-21.79-1.65c-8.71-4.18-19.6-6.71-25.44-3a31.4,31.4,0,0,1-15.86,5.05c-4.62,0-10.46-1.74-15.86-5.05-5.84-3.75-16.73-1.22-25.44,3a28.33,28.33,0,0,1-21.79,1.74,99.09,99.09,0,0,1-10.8-27.19c5.4-1.3,7.49,2.1,10,3.75a20.82,20.82,0,0,0,20.48,0c8.71-4.18,14.55-6.27,22.91-1.74a44.51,44.51,0,0,0,20.48,6.36Z" fill="#0b50a0"/><path id="path1319" d="M477.51,377.19a167.23,167.23,0,0,0,44.7-25.88c-3.4-1.22-5.4-.44-8.36-2.53s-11.68-2.88-19.17,1.31a34,34,0,0,1-34.25,0c-7.58-4.19-16.29-3.4-19.17-1.31s-5.05,1.31-8.45,2.61A161,161,0,0,0,477.51,377.19Z" fill="#0b50a0"/></g><g id="lion"><path id="path1323" d="M466.62,202.22c.43.87-.35,3,0,3.74.87,1.75.87,2.62,2.09,3.4h3c9.15,0,20-3.75,29.19-3.75,8.8,0,14.21,2.88,19.17,2.88,3,0,5.49-2.09,5.49-4.18S522.21,201,515.07,201c-10,0-15.43,2.52-23.79,2.52-12.55,0-14.64-4.61-14.64-6.71s2.09-5,8.8-5c2.09,0,3.75-.44,4.62-1.31a8.92,8.92,0,0,1,4.18-3.75c2.88-1.74,8.71,0,11.68-2.09,0,1.75-2.53,4.18-4.62,5.06,4.18-1.31,8.71-1.31,9.58,2.09-2.09-1.31-5.4-.44-6.62,0-1.74.35-2.53.87-4.18,1.22,1.66-.44,2.53,2.87,5,2.87-2.44,2.09-6.63,2.09-10.81.44-1.31-.44-4.62-1.66-6.71-1.66-4.18,0-6.71.87-6.71,2.53,0,2.09,2.62,3.31,10,3.31,7.58,0,11.77-2.09,23-2.09-.87-1.22.43-2.53-1.22-3.75,4.18,0,8.71,1.22,10.45,4.19-.43-3,2-5.41,1.22-7.93a6.55,6.55,0,0,1,5,5c0-1.22,1.74-1.22,1.74-2.44a6.45,6.45,0,0,1,3.31,6.63c1.22-2.1,2.53-1.22,3.32-3.75.87,1.74.43,6.71-2.53,8.36a6.5,6.5,0,0,1,8.8,1.22c-2.53-.35-3.75.87-5,1.31a38.63,38.63,0,0,1-19.69,4.18c-6.62-.43-7.49-1.74-11.68-1.74,2.53.44,7.5,5.49,12.2,5.49,2.88,0,5,0,6.19-.44s3.31,0,5,.88c1.3,1.22,3.83,2.44,5.49,2.09a3.75,3.75,0,0,1-2.53,2.87c2.09,1.31.87,2.09,3,3.75-.87,0-1.74.87-3,.43,1.22,1.22,1.22,3,2.53,3.75-.44,0-1.75.44-2.53,0,1.22,1.74,0,3.75,1.22,4.62,1.31,1.74-1.22,3.75-3.31,2.09a1.68,1.68,0,0,1-2.09,2.09c-1.22-.43-2.1-1.74-1.75-2.09,0-.43,0-.43.53-.87a2.73,2.73,0,0,1-3.4.87c-.35-.43-.87-.87-.87-1.22-2.88.87-4.1-1.74-3.66-3s2.87-1.74,3.74-1.22c.87.35,1.66.87,2.53,0a2.28,2.28,0,0,0,1.22-2.09c0-1.31-1.22-5.06-6.71-4.62-6.27.43-16.29-1.22-21.26-3-.44-.35-.87-.35-1.31-.87,0,1.74-1.65,2.61-1.65,4.26a4.33,4.33,0,0,0,3.39,4.54c-1.3,2.09-3.39,1.74-4.18.43,0,1.31-1.74,2.09-1.74,3.75-.35-.87-.87-1.22-1.22-2.09-1.22,3-4.62,4.62-6.27,3.83-2.1,1.66-4.54,1.22-5.41-.43-1.22.87-3,.87-3.74,0,0,1.22-.87.87-1.31,2.52,0,.87-1.66,1.22-2.44.87a2,2,0,0,1-.44-3c-1.22.87-2.52.87-3.31,0,0-.87,0-2.09.87-2.61h.79c-.87-.35-2.09,0-3-.35a1.94,1.94,0,0,1-.44-2.53c.44-.43,1.74-1.22,2.61-.43l.35.43c0-.87.44-1.65.87-1.65.88-.44,2-.44,3.32.87.87,1.22,1.65,1.22,4.18.87,2.09,0,5.4-2.18,7.84-4.27-7-1.22-2.88-5.84-.78-7.49a9,9,0,0,0-5.84.43c-8.72,4.62-17.95,10-23.79,8.37a5.24,5.24,0,0,0,.87,2.44c-1.31,0-3.83,0-4.62-1.22-.43.87-1.22,3-.43,4.61-.87-.87-3.31-1.74-4.62-2.09.87.87,0,2.53.43,3.75-1.22-1.22-3.31-2.09-4.18-1.22a4.11,4.11,0,0,1-3.74.87,6.54,6.54,0,0,1-3.32,2.44c0-.87,0-2.09-.43-2.53a7.17,7.17,0,0,1-3.31,3.75,6.35,6.35,0,0,0-.44-2.87c0,1.65-3.31,2.52-3.75,3.74a9.75,9.75,0,0,0,.44-3.31,6.36,6.36,0,0,1-4.18,2.88c.35-.87.87-1.75.35-2.53-.35,1.74-2.88,2.61-5,2.09,0,.87-1.74,2.09-3.75.87-1.3-.43-2.09-1.74-1.3-2.52-1.66,0-3.32-1.66-2.44-2.88,0-.44.34-.87.34-1.31a2.32,2.32,0,0,1-.34-3.74c.34-.44,1.65-.44,2.44-.44,0-3.31,3-3.31,4.18-.87.87,1.31,3.4,3.4,5.49,3,.87,0,1.22-.43,2.09-.43a37.54,37.54,0,0,0,10.46-5.41,9.65,9.65,0,0,0,.34-2.87c-1.65.87-3.31,1.65-4.18,2.87v-1.22c-1.22,0-3.31-.43-4.18-.43.43-.44.87-2.53,1.74-3a14.8,14.8,0,0,1-5.92-.35c.87-.87.87-2.09,1.3-3.4-.87.43-3-.35-4.61,0,.43-1.22.87-2.88,2.09-3.31a9.6,9.6,0,0,1-5.84-.87c1.74,0,2.53-2.1,3.75-2.1-3.32,0-4.19-1.65-5.84-2.43,1.22.34,2.09-.88,3.31-.88-1.22-.43-3.31-2.52-2.44-3.74a8.34,8.34,0,0,1-1.74,1.74,3.85,3.85,0,0,1-3.75-1.31c-.87-1.74-.44-3.74,1.31-4.18a2,2,0,0,1-1.88-2.13,2.07,2.07,0,0,1,.57-1.27c.43-.87,2.09-2,3-.87l1.22,1.74a10.16,10.16,0,0,1-.43-3.74c.43-1.22,1.3-1.22,2.61-1.75,1.13,0,2,1.31,2,2.62s.44,2,.88,3.74l.34-1.74c0-1.65,2.1-1.22,3.4-.87,1.22.52,1.66,3,0,4.27-.87.87-.43,2.09.44,2.88,2.87,4.61,7.84,8.36,12.11,8.8a6.87,6.87,0,0,1,2.09-4.62,5.89,5.89,0,0,1,.87-2.88c.35-2.52,1.57-3.74,3.23-3-.35-.44-.87-.87-.87-1.22-1.22-1.31-2.44-3.4-1.57-5.05s3.31-1.22,4.18-.35c-.44-2.62,2.44-4.62,2.44-5.93.43,1.31,1.31,3,.87,4.18.44-1.65,3.31-3.74,5.4-4.53-.87,1.22,1.75,3.31,1.31,4.53.87-2.09,4.18-3.31,6.62-3.31-.87.88-.87,2.53-.87,3.31,1.31,0,3.49-.34,4.27-1.65a6,6,0,0,1-1.74,4.18c.43-.43,2.09-.43,3.4-.43-1.31,1.3-.87,2.61-2.09,3.39,1.65-.87,3.74-.87,4.18.88.87,1.22-.44,3.31-1.31,4.53-.87.43-1.66,1.22-2.09,1.22Z" fill="#f9d050" stroke="#000" stroke-width="1.4"/><g id="g1423"><path id="path1325" d="M440.83,207.27c-3,1.22-3.84,4.18-4.27,5.84" fill="none" stroke="#000" stroke-width="1.4"/><path id="path1327" d="M440.39,210.15c-4.18,2.61-5.92,4.61-5.05,9.23" fill="none" stroke="#000" stroke-width="1.4"/><path id="path1329" d="M442.4,222.78c2.61-.87,4.18-1.74,6.27-5.49" fill="none" stroke="#000" stroke-width="1.4"/><path id="path1331" d="M447.45,219c-.87,1.74,0,4.62-1.22,5.83a7.66,7.66,0,0,0,4.18-5.83" fill="none" stroke="#000" stroke-width="1.4"/><path id="path1333" d="M448.32,223.57a14.1,14.1,0,0,0,5.4-6.28c-.43,1.22,0,3.31-.87,4.62,2.09-2.09,3-3.4,3.4-5.49l.35,1.74a4.49,4.49,0,0,0,1.74-3.4" fill="none" stroke="#000" stroke-width="1.4"/><path id="path1335" d="M458.25,216v2.1c1.75-1.22,2.18-2.88,2.18-5" fill="none" stroke="#000" stroke-width="1.4"/><path id="path1337" d="M460,215.64c2.52-1.75,2.87-4.19,2.87-7.93" fill="none" stroke="#000" stroke-width="1.4"/><path id="path1339" d="M462.87,211.89c1.75-1.31,2.09-2.09,2.09-5.93" fill="none" stroke="#000" stroke-width="1.4"/><path id="path1341" d="M459.56,194.72a1.6,1.6,0,0,0-1.74,1.75c0,.78-1.22,2-1.22,3.31-.35,1.65-1.22,2.09-2.44,1.65-1.31-.87-1.31-.87-1.31-2.09,0-1.74,2.09-2.09,2.09-3.75.44-.87.87-2.09,1.31-2.09-2.09,1.22-5.05.35-5.49-2.09" fill="none" stroke="#000" stroke-width="1.4"/><path id="path1343" d="M463.31,195.94c-.87.44-1.74-.87-2.88-.35-.43,0-1.74.35-2.09,0" fill="none" stroke="#000" stroke-width="1.4"/><path id="path1345" d="M457.47,198a4.93,4.93,0,0,0,4.62.44,1.59,1.59,0,0,1-1.31-2.88" fill="none" stroke="#000" stroke-width="1.4"/><path id="path1347" d="M453.72,193.85c-1.74,0-3,1.31-2.52,2.62s2.09,1.22,3.31.34" fill="none" stroke="#000" stroke-width="1.4"/><path id="path1349" d="M450.76,214.76a3,3,0,0,0,.87-1.74,2.91,2.91,0,0,0,2.09-.78A3.61,3.61,0,0,0,457,209.8c.88,0,1.31-2.09,1.75-3,.35.44,1.22,0,1.65-1.74a1.71,1.71,0,0,0,2.44-1.22" fill="none" stroke="#000" stroke-width="1.4"/><path id="path1351" d="M445.79,201c0,.43-.87,1.22-1.74,1.74.44.78,0,2.87-.78,3.22a3.65,3.65,0,0,1-.44,3c0,.43.44,1.74.44,2.09" fill="none" stroke="#000" stroke-width="1.4"/><path id="path1353" d="M447.45,192.63c-.87,2.09-.44,4.62,1.22,5.06" fill="none" stroke="#000" stroke-width="1.4"/><path id="path1355" d="M448.32,199.25c-.44,2.18-.44,5.06-.87,6.36-.44.88-1.22,3.75,2.09,4.54,3.75.87,5.84.43,7.93-5.84" fill="none" stroke="#000" stroke-width="1.4"/><path id="path1357" d="M463.74,220.6a1.37,1.37,0,0,1-1.22,1.31" fill="none" stroke="#000" stroke-width="1.4"/><path id="path1359" d="M466.62,219.82a4.62,4.62,0,0,1-1.22,2.44" fill="none" stroke="#000" stroke-width="1.4"/><path id="path1361" d="M469.58,219c0,.87,0,2.09-.87,2.52" fill="none" stroke="#000" stroke-width="1.4"/><path id="path1363" d="M444.14,193.07c.35,0,.87.87,1.22,1.65-1.22-.87-2.53,1.22-1.74,2.53" fill="none" stroke="#000" stroke-width="1.4"/><path id="path1365" d="M442.83,200.13l-1.65,1.3" fill="none" stroke="#000" stroke-width="1.4"/><path id="path1367" d="M441.61,203.87c-.43,0-.87.44-1.22.44" fill="none" stroke="#000" stroke-width="1.4"/><path id="path1369" d="M421.57,196.38c0-.44,0-.44.44-.87" fill="none" stroke="#000" stroke-width="1.4"/><path id="path1371" d="M417.82,195.16c-.43,0-.43,0-.87-.44" fill="none" stroke="#000" stroke-width="1.4"/><path id="path1373" d="M418.17,201H419" fill="none" stroke="#000" stroke-width="1.4"/><path id="path1375" d="M416.52,198.47a4.34,4.34,0,0,0-2.44-1.22" fill="none" stroke="#000" stroke-width="1.4"/><path id="path1377" d="M439.52,214c-3,2.44-4.18,4.53-4.62,7.49" fill="none" stroke="#000" stroke-width="1.4"/><path id="path1379" d="M442.4,216a9.57,9.57,0,0,1-3.32,3.84" fill="none" stroke="#000" stroke-width="1.4"/><path id="path1381" d="M426.19,228.53a9.6,9.6,0,0,1-8.37-1.22c-.43-.43-.87-.43-1.3-.87" fill="none" stroke="#000" stroke-width="1.4"/><path id="path1383" d="M438.65,222.78c-.35,1.57-.87,3.66-1.66,4.1,3.4-1.75,6.28-4.19,6.71-7.93" fill="none" stroke="#000" stroke-width="1.4"/><path id="path1385" d="M414.42,230.62c1.31-.43,2.62.44,3.4-.43" fill="none" stroke="#000" stroke-width="1.4"/><path id="path1387" d="M487.1,216.86a21.56,21.56,0,0,1,2.52,1.22,6.43,6.43,0,0,1,3.31-2.44" fill="none" stroke="#000" stroke-width="1.4"/><path id="path1389" d="M457.47,225.66c-.44-1.75.44-3.75,3-4.62" fill="none" stroke="#000" stroke-width="1.4"/><path id="path1391" d="M441.18,232.71c.43-.87.43-2.09.87-2.87" fill="none" stroke="#000" stroke-width="1.4"/><path id="path1393" d="M422.79,234c-.44.87-1.22,1.66-1.22,2.44" fill="none" stroke="#000" stroke-width="1.4"/><path id="path1395" d="M416.52,234.81a.43.43,0,0,1,.43-.44,5.45,5.45,0,0,0,2.53-2.09" fill="none" stroke="#000" stroke-width="1.4"/><path id="path1397" d="M473.33,229c-.87.43-1.22,0-1.66-.44" fill="none" stroke="#000" stroke-width="1.4"/><path id="path1399" d="M472.89,231.06a1.24,1.24,0,0,1-.87.43" fill="none" stroke="#000" stroke-width="1.4"/><path id="path1401" d="M475,233.15c-.43.44-.87.87-1.22.87" fill="none" stroke="#000" stroke-width="1.4"/><path id="path1403" d="M487.1,234c.87-.43,1.3-1.31,1.74-3" fill="none" stroke="#000" stroke-width="1.4"/><path id="path1405" d="M481.69,233.59a9.39,9.39,0,0,0,3.31-2.53" fill="none" stroke="#000" stroke-width="1.4"/><path id="path1407" d="M493.37,230.19a4.65,4.65,0,0,1,.44-2.44" fill="none" stroke="#000" stroke-width="1.4"/><path id="path1409" d="M524.3,234a1.78,1.78,0,0,1,.44-3c.87-.44,1.22-.87,2.09-1.22" fill="none" stroke="#000" stroke-width="1.4"/><path id="path1411" d="M498.77,219.3c-6.62-2.88-6.18-6.63-11.67-6.19" fill="none" stroke="#000" stroke-width="1.4"/><path id="path1413" d="M528.49,232.37c.43.34,0,1.65,0,2" fill="none" stroke="#000" stroke-width="1.4"/><path id="path1415" d="M532.23,232.37a6.68,6.68,0,0,0-.43,2.87" fill="none" stroke="#000" stroke-width="1.4"/><path id="path1417" d="M500.08,193.07h-3.49" fill="none" stroke="#000" stroke-width="1.4"/><path id="path1419" d="M465,207.27c0,.87,1.31,2.53,4.62,2.53a1.53,1.53,0,0,1-.87-.44" fill="none" stroke="#000" stroke-width="1.4"/><path id="path1421" d="M466.62,202.22c-.35.43-.87,0-.87,0-.79-.87.52-2.44,1.74-3.31a7.94,7.94,0,0,1-3,.43c-.87,2.53-3.31,3.75-5,2.09-.43,1.66-2.53,3.75-4.18,3.31-1.74-.87-2.09-2.09-1.74-3.31-2,2.44-4.54.87-5.32,0-.44-.87,0-3,.87-5.49" fill="none" stroke="#000" stroke-width="1.4"/></g><path id="path1425" d="M493.37,218.08c-1.22.87-2.53,0-3.75,1.3-.87.87.44,1.22,1.22,1.22-.35,1.31-.35,1.75,1.75,1.75-.88,1.22,1.65,1.65,1.22,3.31a4,4,0,0,0,.87-4.19c-.44-1.3-2.62-2.09-1.31-3.39Z"/><g id="g1461"><path id="path1427" d="M455.38,204.74c-1.74-.87-2.09-2.09-1.74-3.31a2,2,0,0,1-2,1.22c-1.74,3.75-3.75,7.15-6.27,7.15-3,.35-2.53,3.31-.44,3.31C449.54,214,451.63,212.24,455.38,204.74Z" fill="#073163"/><path id="path1429" d="M414.08,194.72a1.71,1.71,0,0,0-.44-2.87,4.7,4.7,0,0,0-5.05,2c1.3-.35,2.61-.35,3,.44s1.22,1.74,2.53.43Z" fill="#073163"/><path id="path1431" d="M416.17,187.23c2.87,0,3.74.43,4.09,1.65A1.54,1.54,0,0,1,419,191c-1.22,0-2.52-.88-2.09-1.22a1.76,1.76,0,0,0-.87-2.62Z" fill="#073163"/><path id="path1433" d="M424.45,193.85c2.09.44,3-.87,1.74-2.44-.44-1.31-1.74-2.09-3.84-1.74C424.45,191,422.35,193.07,424.45,193.85Z" fill="#073163"/><path id="path1435" d="M409,201a3.48,3.48,0,0,0,4.18,1.74,1.91,1.91,0,0,0,1.22-2.61c-.87-1.22-2.09-1.66-2.44,0C411.11,201.87,409.89,201.43,409,201Z" fill="#073163"/><path id="path1437" d="M415.3,226.44c-.88-1.66-3.32-1.66-5.41,0a2.45,2.45,0,0,1,2.88.87,1.74,1.74,0,0,0,1.74.87C414.86,227.75,415.73,227.31,415.3,226.44Z" fill="#073163"/><path id="path1439" d="M418.61,224c0-2.09-2.88-2.61-4.53-1.74.87,0,2.09.87,2.09,1.74a2,2,0,0,0,1.65,1.22c.87-.44,1.22-.87.87-1.22Z" fill="#073163"/><path id="path1441" d="M414.42,231.49c-2.44-.43-3.74,2.53-3.74,4.54a2.52,2.52,0,0,1,3-1.66c1.22,0,1.66-.35,1.66-1.22.43-.87,0-1.22-.88-1.74Z" fill="#073163"/><path id="path1443" d="M414.86,238.55c.87.44,1.74-.43,2.09-1.65,0-.87,1.74-.87,2.09-.44.87.44.87,2.09-.43,3-.87.44-2.88.88-3.75-.87Z" fill="#073163"/><path id="path1445" d="M472.89,226c-.87-.34-2.87-1.22-4.53,0a2,2,0,0,1,2.44,1.31,1,1,0,0,0,1.74.44C472.89,227.31,473.42,226.44,472.89,226Z" fill="#073163"/><path id="path1447" d="M469.15,229c-1.66-.87-3.75,1.22-4.19,3a6.19,6.19,0,0,1,3-1.31c.87.44,1.65,0,1.65-.87.44-.35.44-.78-.43-.78Z" fill="#073163"/><path id="path1449" d="M471.32,232.37a3.55,3.55,0,0,0-3,3.31,1.48,1.48,0,0,1,2.09-.87c.87,0,2.09-.44,2.09-1.22a1.15,1.15,0,0,0-1.3-1.31Z" fill="#073163"/><path id="path1451" d="M475,235.68a1.39,1.39,0,0,0-2.09,1.22c0,1.22,0,2.52-.35,3a10,10,0,0,1,2.44-1.74,1.73,1.73,0,0,0,0-2.44Z" fill="#073163"/><path id="path1453" d="M522.21,231.93a1.59,1.59,0,0,0-2.53.35,5.63,5.63,0,0,0,0,4.62c0-.87.88-2.09,1.75-2.09A1.84,1.84,0,0,0,522.21,231.93Z" fill="#073163"/><path id="path1455" d="M524.74,233.59c-1.74.87-1.74,3.74-.44,5.4a3.12,3.12,0,0,1,1.22-2.53c1.31,0,1.75-1.65,1.31-2.44a2.07,2.07,0,0,0-2.09-.43Z" fill="#073163"/><path id="path1457" d="M529.71,235.24a1.29,1.29,0,0,0-1.75,1.22,3.78,3.78,0,0,0,1.75,3.75,3.06,3.06,0,0,1,.87-2.09C531.8,237.25,531.45,235.68,529.71,235.24Z" fill="#073163"/><path id="path1459" d="M533.45,234.81c-.87,0-1.65,1.22-.87,2.52.44.87,1.31,1.22,3,.87-.43,0-1.22-1.3-.87-1.74C535.11,235.59,534.67,234.81,533.45,234.81Z" fill="#073163"/></g></g><g id="star"><path id="path1464" d="M417.39,312.88l20.91-64.31,20.91,64.31L404.4,273.23h67.8Z" fill="#f9d050"/><path id="path1466" d="M421.57,307,465,275.32H411.55l43,31.72L438.3,256.15Z" fill="#024919"/></g><g id="use1469"><path d="M495.9,312.88l20.91-64.31,20.91,64.31-54.81-39.65h67.8Z" fill="#f9d050"/><path d="M500.08,307l43.39-31.72H490.06L533,307l-16.21-50.89Z" fill="#024919"/></g><g id="use1471"><path d="M456.6,358.36l20.91-64.3,20.91,64.3-54.8-39.64h67.79Z" fill="#f9d050"/><path d="M460.78,352.53l43.39-31.72H450.76l43,31.72-16.21-50.89Z" fill="#024919"/></g><path id="path1473" d="M555.59,181.83v81.38c0,70.58-33.38,94.81-78.08,114-44.7-19.17-78.42-43.4-78.42-114V181.74h156.5Z" fill="none" stroke="#000" stroke-width="1.4"/></g></svg>