<svg id="flag-icons-ms" xmlns="http://www.w3.org/2000/svg" viewBox="0 0 640 480"><title>ms</title><path id="rect950" d="M0,0H640V480H0Z" fill="#012169"/><path id="path962" d="M384.9,111H590.4l-.3,146.3c1.7,58.7-34.9,95.2-102.3,111.7-47.9-12-103-36.5-103.2-110l.3-148Z" fill="#fff"/><path id="path964" d="M389.4,115.4H585.8l-.2,140.2c1.6,56.3-33.4,91.2-97.8,107-45.8-11.4-98.5-35-98.6-105.4Z" fill="#00a2bd" stroke="#000" stroke-width="1.8"/><path id="path966" d="M584.3,272.2c-7.2,53.7-48.6,77.2-96.5,89.7-42.5-11.4-88.2-29.6-97-89.5Z" fill="#a53d08"/><path id="path968" d="M480,141.5l-.3-17.6,14,.1.1,17.5H532l.1,13.7-38.3.2-.3,161.4-13.6.1-.2-161.7-38,.2v-14Z"/><path id="path970" d="M449,278.8l35,36.3c12.1-13.3,3.7-63-12.2-72.1-1.9,5.9-5.1,13-8.6,15.2-7.5,5.2-26.1,11.2-19.9,15,1.4-1.9,5.1-3.7,6.9.6,2,6.9-7.8,7.3-7.8,7.3s-6.2-.8-7.3-7c-1-6.4,9.3-12.2,10.2-12.6s14.3-4,16.6-15.9c2.9-11.8,5.8-10,6.3-10.2,17.7,1.7,29.2,33.3,29.9,55.5s-9,37-10.8,38-42-47.9-42-47.9l3.8-2.2Z" fill="#ff9a08" stroke="#000" stroke-width="0.8" fill-rule="evenodd"/><path id="path972" d="M474.6,245l.2,65.5" fill="#ff9a08" stroke="#000" stroke-width="0.8"/><path id="path974" d="M470.6,246.3l.3,59.4" fill="#ff9a08" stroke="#000" stroke-width="0.8"/><path id="path976" d="M466.4,254.9l.2,47.2" fill="#ff9a08" stroke="#000" stroke-width="0.8"/><path id="path978" d="M462.9,258.2l.2,39.1" fill="#ff9a08" stroke="#000" stroke-width="0.8"/><path id="path980" d="M459.2,260v33" fill="#ff9a08" stroke="#000" stroke-width="0.8"/><path id="path982" d="M455.2,262.6v26.1" fill="#ff9a08" stroke="#000" stroke-width="0.8"/><path id="path984" d="M451.7,264.7v20" fill="#ff9a08" stroke="#000" stroke-width="0.8"/><g id="g994"><path id="path986" d="M448.5,282.92l36.08,41.28" fill="none" stroke="#ffdf00" stroke-linecap="round"/><path id="path988" d="M486.34,256.92s16.32,35.76,1.2,65.12" fill="none" stroke="#ffdf00" stroke-linecap="round" stroke-width="1.8"/><path id="path990" d="M444.26,275.4s1.2-3.12,2.72-1.84" fill="none" stroke="#ffdf00" stroke-linecap="round" stroke-width="1.8"/><path id="path992" d="M441.46,266.28s-6.56,5.76-3,9.52" fill="none" stroke="#ffdf00" stroke-linecap="round" stroke-width="1.8"/></g><path id="path998" d="M494,175.4c2.3-2,3.6-3.3,5.1-3a14.13,14.13,0,0,0,5-.4,31.08,31.08,0,0,1,12-.4,9.92,9.92,0,0,1,4.6,2.5c2.1,1.8,5.2,5,4.2,13.6s-.7,12.3-1.2,17.2c-.8,8.5-2.7,15.5-6,15,4.5,8,5,15,8,20.5s4.8,16.8,3.7,29-4.4,39.7,5.3,58.2c-1.6,1.1-5.5,0-9-3.7s-5-3.6-7.8-1.4c-8.8,6.7-17,14.8-29.1,6.7-2.8-1.8-3.6-4-1.6-9.7,5-14,7.5-33.4,6.7-42.4V175.4Z" fill="#008021" stroke="#000" stroke-width="0.3"/><g id="g1010"><path id="path1000" d="M502.26,166.76a9.6,9.6,0,0,1-.08,6.8,9.21,9.21,0,0,0,.48,8.48c2.72-4,6.64-3.2,9-5.44s2.8-4.48,4.48-5c-1.68-1.52-4.32-3.2-3.76-7.52s6.64-8,1.12-14.64a8,8,0,0,0-13.36,1.2c-.32.8.16,2.4-.72,3.44a8.24,8.24,0,0,1-2.08,2,1,1,0,0,0-.24,1.6c.24.24.64.24,1,.4l-.8,1.44c-.32.32-.16.64.16,1-.48,1.36.4,1.6-.16,2.56s-1.2,2,.64,3a12.62,12.62,0,0,0,4.32.64Z" fill="#ffe1cf" stroke="#000" stroke-width="0.4"/><path id="path1002" d="M479.78,189.8c-3.2.8-8.4-.64-12.32-.16-1.76.16-3.12-.72-2.88-2.4a24.32,24.32,0,0,0,.08-6.88,31.55,31.55,0,0,1,3.84-14.72A33.07,33.07,0,0,0,472.34,154c0-1.84.16-3.84,1.76-4.88a5.26,5.26,0,0,0,1.84-2.16c1-1.44,1.92-1.76,2-.88a2.06,2.06,0,0,1-.56,1.6c1-.8,2.8-1.84,3.2-2.08s2.4-1.76,2.56-.4c.8-.4,1.36-.4,1.6,0a.84.84,0,0,1-.32,1c.56-.08,1.2.88,0,1.84.64-.24,1.28.8.16,1.68s-2.4,1.6-2.72,2.4a13.64,13.64,0,0,1-4.24,3.28c-1.12.48-1.2,1.12-1.2,2.72,0,17.76-2.08,16.32-2.08,20.64,0,1.12-.24,2.16.88,1.84a14.89,14.89,0,0,1,4.56-.88V189.8Z" fill="#ffe1cf" stroke="#000" stroke-width="0.4"/><path id="path1004" d="M480.5,228c5.2-2.64,11.2-3.6,14.32-4.4a62.13,62.13,0,0,0,10.4-4.48c2.48-1.28,4.48-3,5.84-3.44a6.46,6.46,0,0,0,3.84-3.2,50.44,50.44,0,0,0,6.88-21.84c0-4-1-8.56-5-5.36a29.63,29.63,0,0,0-8.8,13.2c-1.6,6.4-3,7.84-3.28,9.12s-1.68,1.28-3.2,1.6a26.76,26.76,0,0,0-13.6,6.4,136.65,136.65,0,0,1-14.24,9.2c-3.68,2.08-4.4,2.24-5.2,4a17.88,17.88,0,0,1-2.24,3.6,3.11,3.11,0,0,0-.8,2.56,42.52,42.52,0,0,1-.24,5.36c0,1.2.24,1.44.72,1.52s1-.16,1.28-1.6c-.24,1.44,1.68,1,1.76-.08,0,1.52,2,.64,2.08-.8,0,1,1.6.32,1.68-.08a27.52,27.52,0,0,1,1.12-3.36c.64-1.36,1.36-3.12,2.72-4,1.52-1.12.8-2.4,3.92-4Z" fill="#ffe1cf" stroke="#000" stroke-width="0.4"/><path id="path1006" d="M517.86,322.52c.32,1.28,1,2.72,1.2,3.6s-.16,1.12-.4,1.6a32.68,32.68,0,0,0-2.72,8.8,9,9,0,0,1-1.36,3.2c-.48.8-.24,1.44.8,2.24a1.86,1.86,0,0,0,2.16-1,1.32,1.32,0,0,0,2.08-.48c.56.48,1.44.16,2-.72.48.32,1.28-.32,1.6-.8.8.4,1.6-.08,1.6-1.6a2.51,2.51,0,0,1,.48-1.28,3.85,3.85,0,0,0,.32-1.76,6.24,6.24,0,0,1,.88-2.8c.56-.88,1.52-2.48,1.12-4-.4-1.36-1-1.28-1.52-3.2-1.28-1.36-3-3.2-4.8-3.36s-2.8,1.12-3.44,1.52Z" fill="#ffe1cf" stroke="#000" stroke-width="0.4"/><path id="path1008" d="M485.06,332.44c1.6,1.6,5.2,1.6,7.76-1a22.63,22.63,0,0,1-3.84-2.08c-1.28,1.28-2.72,2.72-4,3.12Z" fill="#ffe1cf" stroke="#000" stroke-width="0.4"/></g><path id="path1012" d="M501.4,149c.6-4,3.5-4,5.3-3.5a11.43,11.43,0,0,0,4.4-.2c3.4-.9,6,.3,5.6,3.6a4,4,0,0,1,1.7,3.7c-.1,1.4.2,2,1.4,2.1s4,1.8,2.2,4c1.7,1,3,3.7,2.1,5.4a2.91,2.91,0,0,1-4.8.5,4.16,4.16,0,0,1-4.6-.6c-.9,1-3,.9-3.5,0a2.69,2.69,0,0,0-1.9-1.7c-.9-.3-1-2.8.4-3.1a3,3,0,0,1,.3-2c.3-.4,0-1.2-.8-1.8a4.21,4.21,0,0,1-.7-4.4c-1.4.5-4.4-.9-5-1.8S501.9,148.2,501.4,149Z" fill="#870f00" stroke="#000" stroke-width="0.3"/><g id="g1088"><path id="path1014" d="M502.26,166.76c2.24-.24,3-1.6,4.64-1.6" fill="none" stroke="#000" stroke-width="0.4"/><path id="path1016" d="M497.46,160.52l.56.32a4.39,4.39,0,0,0,1.36.4" fill="none" stroke="#000" stroke-width="0.4"/><path id="path1018" d="M498.1,158.12l1,.56" fill="none" stroke="#000" stroke-width="0.4"/><path id="path1020" d="M503.3,149c-1.28-1.28,2.24-3.84,6-.16a4,4,0,0,0,3,.56" fill="none" stroke="#000" stroke-width="0.4"/><path id="path1022" d="M508.5,151c1.76-.4,4.32-.4,5.12,1.6s2.24.64,3.44,3,3.12,4.88,5,3.12" fill="none" stroke="#000" stroke-width="0.4"/><path id="path1024" d="M514.66,164a4,4,0,0,1-.4-3.2c-.64-.8-.4-2.48,0-3.28" fill="none" stroke="#000" stroke-width="0.4"/><path id="path1026" d="M509.7,159.16a3.12,3.12,0,0,0,2.4,2.24" fill="none" stroke="#000" stroke-width="0.4"/><path id="path1028" d="M519.3,164.6a3.51,3.51,0,0,1-.48-3.2" fill="none" stroke="#000" stroke-width="0.4"/><path id="path1030" d="M510.9,153.08a3.28,3.28,0,0,0,1.6,2.88,3.68,3.68,0,0,0,3.76,2" fill="none" stroke="#000" stroke-width="0.4"/><path id="path1032" d="M516.74,148.92a10.9,10.9,0,0,0-5.28-2.48" fill="none" stroke="#000" stroke-width="0.4"/><path id="path1034" d="M502.66,182c-2,2.64-3.2,6.32-2.4,11.52,1,5.2,2.48,12.8-1.28,16.24" fill="none" stroke="#000" stroke-width="0.4"/><path id="path1036" d="M517.62,219.88c-2.64-.64-6.4-.64-8.56.88-2,1.52-5.52,1.6-7.84.48" fill="none" stroke="#000" stroke-width="0.4"/><path id="path1038" d="M512,219.64c-2.32.4-3.36,2.08-3.36,6.32s-1,10.48-.16,16.64" fill="none" stroke="#000" stroke-width="0.4"/><path id="path1040" d="M507.86,221.48c-1.6.4-3.12.4-2.8,4.48" fill="none" stroke="#000" stroke-width="0.4"/><path id="path1042" d="M500,226c.08-2.4,1-4.8,2.56-4.32" fill="none" stroke="#000" stroke-width="0.4"/><path id="path1044" d="M516.66,226.6c.08-5.6-1.12-7.12-2.72-7,2.16,0,3.68.32,4.64,9.28.64,6.72,2.08,9,3.68,14.32,4.16,13.6,2.08,34.56,4.16,42" fill="none" stroke="#000" stroke-width="0.4"/><path id="path1046" d="M513.46,228.2c4.4,12.64,6.72,26.72-.4,49.28,4.8,13.44,9.6,23.12,10.56,28.64" fill="none" stroke="#000" stroke-width="0.4"/><path id="path1048" d="M499.7,258.12c.8-2.88-2.16-3.2.4-13.36,1.12-4.4,1.28-7,.56-8.4" fill="none" stroke="#000" stroke-width="0.4"/><path id="path1050" d="M500.66,242.36c-1,4.48,3.36,12.88,1.2,19" fill="none" stroke="#000" stroke-width="0.4"/><path id="path1052" d="M496.42,262.52c0,4,.88,9,.72,13s1.36,5.68,3.2,9.44c6.72,13.36,11.2,22.88,10.64,35.52-.16,2.32.64,7.2-1.76,8.56" fill="none" stroke="#000" stroke-width="0.4"/><path id="path1054" d="M496.58,332.36c.72,0,1.44-.32,2.32-2.4a64.74,64.74,0,0,0,2.4-23" fill="none" stroke="#000" stroke-width="0.4"/><path id="path1056" d="M502.74,316.6a28.71,28.71,0,0,1-1.36,12.4" fill="none" stroke="#000" stroke-width="0.4"/><path id="path1058" d="M507.14,308.68a37.31,37.31,0,0,1,.08,14.32" fill="none" stroke="#000" stroke-width="0.4"/><path id="path1060" d="M504.82,323c.16,2.24,1.2,8-.56,8.48" fill="none" stroke="#000" stroke-width="0.4"/><path id="path1062" d="M513.46,296.2c4.32,6.72,7.6,23.2,11.2,26.64" fill="none" stroke="#000" stroke-width="0.4"/><path id="path1064" d="M517.14,320.2c-.08-1.84-.16-4.4-1.2-5.6" fill="none" stroke="#000" stroke-width="0.4"/><path id="path1066" d="M471.06,239.4a6.46,6.46,0,0,1,1.28-4.4" fill="none" stroke="#000" stroke-width="0.4"/><path id="path1068" d="M469,240.2c.24-4.4.16-4.8,1.44-6.08" fill="none" stroke="#000" stroke-width="0.4"/><path id="path1070" d="M467.22,240.28c0-3.2-.32-4.24,1-6.24" fill="none" stroke="#000" stroke-width="0.4"/><path id="path1072" d="M483.14,145.16l-4.56,3.44" fill="none" stroke="#000" stroke-width="0.4"/><path id="path1074" d="M484.42,146.2c-.56.08-2.16,1.44-5,3.6" fill="none" stroke="#000" stroke-width="0.4"/><path id="path1076" d="M484.5,148c-1,.4-2.64,2-4.16,3.12" fill="none" stroke="#000" stroke-width="0.4"/><path id="path1078" d="M477.38,147.72l-1.6,1.6" fill="none" stroke="#000" stroke-width="0.4"/><path id="path1080" d="M517.54,341a3,3,0,0,1,.24-2.4" fill="none" stroke="#000" stroke-width="0.4"/><path id="path1082" d="M519.7,340.52c-.4-.32,0-1.76.24-2.64" fill="none" stroke="#000" stroke-width="0.4"/><path id="path1084" d="M521.62,339.8c-.4-.16-.48-1,0-2.08" fill="none" stroke="#000" stroke-width="0.4"/><path id="path1086" d="M523.14,339c-.24-.08-.32-.56.08-1.76" fill="none" stroke="#000" stroke-width="0.4"/></g><g id="g1094"><path id="path1090" d="M500.5,152.68c.8,1,1.68,1,1.84,1.6a1.85,1.85,0,0,0,.4,1c.16.16-.4.16-.64,0h-1.36c-.4,0-.88-.56-.64-.56s.32-.16.24-.4a.83.83,0,0,1,.32-.64l-.08-.32c-.16-.32-.32-1-.08-.8Z"/><path id="path1092" d="M501,151.64a6.38,6.38,0,0,1,3.44,1.6c.64.8.08.56-.24.56a1.8,1.8,0,0,1-1.36-.64A4.66,4.66,0,0,0,500.9,152c-.32-.08-.64-.48.08-.4Z"/></g><path id="path1746" d="M0,0H320V240H0Z" fill="#012169"/><path id="path1748" d="M37.5,0l122,90.5L281,0h39V31L200,120.5l120,89V240H280L160,150.5,40.5,240H0V210l119.5-89L0,32V0Z" fill="#fff"/><path id="path1750" d="M212,140.5,320,220v20L184.5,140.5Zm-92,10,3,17.5L27,240H0ZM320,0V1.5l-124.5,94,1-22L295,0ZM0,0,119.5,88h-30L0,21Z" fill="#c8102e"/><path id="path1752" d="M120.5,0V240h80V0ZM0,80v80H320V80Z" fill="#fff"/><path id="path1754" d="M0,96.5v48H320v-48ZM136.5,0V240h48V0Z" fill="#c8102e"/></svg>