<svg id="flag-icons-mt" xmlns="http://www.w3.org/2000/svg" viewBox="0 0 640 480"><title>mt</title><path d="M320,0H640V480H320Z" fill="#ce0000" fill-rule="evenodd"/><path d="M0,0H320V480H0Z" fill="#fff" fill-rule="evenodd"/><path d="M155.13,141.85c0,1.44-1.44,2.4-3.19,2.4-1.92,0-3.2-1-3.2-2.24s1.28-2.4,3.2-2.4c1.75,0,3.19,1.12,3.19,2.4Z" fill="#f1eeee" fill-rule="evenodd"/><path d="M52.66,130.66v59.47h59.63c0,9.91,9.91,19.82,19.82,19.82v59.47h59.63V210c9.91,0,19.82-9.91,19.82-19.82H271V130.66H211.4c0-9.91-9.91-19.82-19.82-19.82V51.37H132.11v59.47c-10.07,0-20,9.91-20,19.82Z" fill="#c00" fill-rule="evenodd"/><path d="M54.74,132.58v55.63h59.47c0,9.91,9.91,19.82,19.82,19.82V267.5H189.5V208.19c9.91,0,19.83-9.91,19.83-19.82H269V132.74H209.49c0-9.91-9.92-19.83-19.83-19.83V53.29H134v59.46c-9.91,0-19.82,9.92-19.82,19.83Z" fill="#ffe600" fill-rule="evenodd"/><path d="M56.66,134.66v51.47h59.47C116.13,196,126,206,136,206v59.47h51.63V206c9.92,0,19.83-9.91,19.83-19.82h59.47V134.66H207.41c0-9.92-9.91-19.83-19.83-19.83V55.36H136v59.31c-9.91,0-19.82,9.91-19.82,19.83H56.66Z" fill="#707070" fill-rule="evenodd"/><path d="M58.74,136.57v47.64h59.47c0,9.91,9.91,19.82,19.82,19.82v59.31h47.48V203.87c9.91,0,19.82-9.91,19.82-19.82H264.8V136.41H205.33c0-9.91-9.91-19.82-19.82-19.82V57.28H138v59.47c-9.91,0-19.82,9.91-19.82,19.82H58.74Z" fill="#a0a0a0" fill-rule="evenodd"/><path d="M138.51,111.8c3.35,3.51.64,12-6.4,19s-15.34,9.59-18.86,6.39c-3.52-3.67-.64-12.15,6.39-19.18S135,108.44,138.51,111.8Z" fill="#d0d0d0" fill-rule="evenodd"/><path d="M134.19,116c3.52,3.52,2.56,10.07-2.08,14.87s-11.19,5.59-14.7,2.08-2.56-10.07,2.07-14.71,11.19-5.6,14.71-2.24Z" fill="gray" fill-rule="evenodd"/><path d="M116.77,126.5l1.28-1.28,5.59,2.72-2.72-5.59,1.44-1.44L128,132.1l-11.19-5.6Zm8.31-8.31,1.6-1.6,8.31,8.63-1.44,1.28Z" fill="#d0d0d0" fill-rule="evenodd"/><path d="M210.28,137.05c-3.51,3.52-12,.64-18.86-6.39s-9.91-15.35-6.39-18.86,12-.64,19,6.39,9.59,15.35,6.39,18.86Z" fill="#d0d0d0" fill-rule="evenodd"/><path d="M206.13,132.9c-3.52,3.51-10.07,2.55-14.71-2.08s-5.59-11.19-2.24-14.71c3.52-3.52,10.23-2.56,14.87,2.08S209.65,129.38,206.13,132.9Z" fill="gray" fill-rule="evenodd"/><path d="M195.58,115.31l1.44,1.44-2.88,5.6,5.59-2.88,1.6,1.6L190,126.5Zm8.47,8.47,1.28,1.28L197,133.54l-1.44-1.44Z" fill="#d0d0d0" fill-rule="evenodd"/><path d="M185,209c-3.52-3.52-.64-12,6.39-19s15.35-9.75,18.86-6.4c3.52,3.52.64,12-6.39,19S188.54,212.35,185,209Z" fill="#d0d0d0" fill-rule="evenodd"/><path d="M189.34,204.67c-3.51-3.51-2.55-10.07,2.08-14.7s11.19-5.6,14.71-2.08,2.56,10.07-2.08,14.71-11.19,5.59-14.87,2.07Z" fill="gray" fill-rule="evenodd"/><path d="M206.77,194.12l-1.44,1.6-5.6-2.88,2.88,5.6-1.44,1.28-5.59-11.19,11.19,5.59Zm-8.15,8.48L197,204l-8.32-8.47,1.44-1.44Z" fill="#d0d0d0" fill-rule="evenodd"/><path d="M113.25,183.73c3.52-3.51,12-.64,18.86,6.24s9.75,15.5,6.4,18.86c-3.52,3.52-12,.8-19-6.23s-9.59-15.51-6.39-18.87Z" fill="#d0d0d0" fill-rule="evenodd"/><path d="M117.41,187.89c3.51-3.52,10.07-2.56,14.7,2.08s5.6,11.19,2.08,14.7c-3.36,3.52-10.07,2.56-14.71-2.07S113.89,191.41,117.41,187.89Z" fill="gray" fill-rule="evenodd"/><path d="M128,205.47l-1.44-1.6,2.88-5.43-5.6,2.72-1.6-1.44,11.35-5.6L128,205.31ZM119.48,197l-1.27-1.44,8.31-8.31,1.44,1.28Z" fill="#d0d0d0" fill-rule="evenodd"/><path d="M203.53,160.43a41.62,41.62,0,1,1,.06,0Z" fill="none" stroke="#707070"/><path d="M193.42,160.34a31.72,31.72,0,1,1,.05,0Z" fill="none" stroke="#707070"/><path d="M147.94,194.12a2,2,0,1,1-2-2A2,2,0,0,1,147.94,194.12Zm31.65,0a2,2,0,1,1-2-2A2,2,0,0,1,179.59,194.12Zm-19.18,0v2.08h-2.56c-2.72,0-2.72,2.08,0,2.08h2.56v1.92c0,2.24,2.4,2.4,2.56.16v-2.24h2.71c2.72,0,2.72-1.92,0-1.92h-2.55v-2.08a1.37,1.37,0,1,0-2.72,0Z" fill="#d0d0d0" fill-rule="evenodd"/><path d="M151.94,164.71V166s-.64.8-4.64,1.12-4.64,0-4.64,0c.16,1.12,1,3,.64,5.27a15.3,15.3,0,0,1-.64,5.12c0,.16-.48.32-1.27.16.63-.64.63-2.24.63-4.8,0-2.24-2.39-5.91-1.91-6.87S151.94,164.71,151.94,164.71Zm15.66-4.16,10.39-.16s1.6,3.2,1.44,4.8c0,1.6-.64,3.2-1.28,2.4-.8-.8.32-.64.48-2.4a7.2,7.2,0,0,0-1.28-3.68,19.09,19.09,0,0,1-7,1C166.16,162.15,168.08,160.55,167.6,160.55Z" fill="#d0d0d0" stroke="#707070" stroke-width="0.1" fill-rule="evenodd"/><path d="M168.88,163.59a31.22,31.22,0,0,1,6.4.32s1.59,3.2,1.59,4.8c-.16,1.59-.64,3.19-1.43,2.39-.64-.64.32-.48.48-2.39a8,8,0,0,0-1.28-3.68,17.84,17.84,0,0,1-6.88,1c-4.15-.32-2.88-.48-3.35-.64-.48,0-.64,1.28-6.88,1.44-6.39,0-9.59-1.44-9.59-1.44s-.64,1-4.48,1.28h-4.79a17.23,17.23,0,0,1,.8,5.27,19.71,19.71,0,0,1-.8,5.12h-1.12c.64-.48.48-2.24.64-4.64,0-2.4-2.56-5.91-2.08-7,.64-1,3.52,0,4-.48.48-.64-2.56-4.32-1.92-7.67.48-3.36,3.83-2.4,7.83-2.4,4,.16,12.79,1.28,15,0,2.24-1.12,1.28-5.44,3.2-8.16a6.54,6.54,0,0,1,5.27-2.39c1.44,0,3.2,4.79,3.2,5.91l-.48.64h-.64v.48c-1.6.16-1.76-1.28-2.72-2.24-.32,1.6,1.28,7,1.28,10.55,0,2.88-1.12,4.16-1.28,4Z" fill="#d0d0d0" stroke="#707070" stroke-width="0.1" fill-rule="evenodd"/><path d="M156.25,158.47c0,1.12-4.95,3.84-5.43,4.8-.32,1.12,1.28,1.6.8,2.24s-1,.32-1.12.48l-1.92-4s4.79-2.24,4.63-3.2-3.51-1.59-4.15-3.83-.32-6.88-.8-7.84-6.4-1.91-6.4-3.19c0-1.6,6.08-5.44,6.72-6.08s1.28.64.64,1.12c-.64.64-5.28,4.32-5.28,4.8,0,.64,3.84,1.28,5.12,1.28,1.44,0,2.08-.64,2.08-1.28,0-.48-1.44-.48-1.44-1.6a1.89,1.89,0,0,1,2.08-1.92c.64,0,1.91.8,1.91,1.76s-1.11,1.12-1.27,1.76c-.16.8,1.27,1.28,2.55,1.28s5.76,3.35,6.4,4c.8.48,1.44.48.8,1.12s-.32,1.28-1,.64a2.42,2.42,0,0,1-.64-1.12c0-.48-4.8-2.88-5.6-2.4-.64.64,0,7.68,0,8.32C155,156.72,156.41,156.72,156.25,158.47Z" fill="#d0d0d0" stroke="#707070" stroke-width="0.1" fill-rule="evenodd"/><path d="M147.94,144.89h8V153h-8Z" fill="#a7a7a7" fill-rule="evenodd"/><path d="M147.14,134.93l26.23,39.38c.24.36.32.73.16.81h0c-.16.09-.48-.14-.72-.51l-26.24-39.38c-.24-.37-.32-.73-.16-.82h0C146.57,134.33,146.89,134.56,147.14,134.93Z" fill="gray" fill-rule="evenodd"/><path d="M150,138.49a1.32,1.32,0,1,1-1.31-1.18,1.25,1.25,0,0,1,1.31,1.18Z" fill="#d0d0d0" stroke="#707070" fill-rule="evenodd"/><path d="M172.88,149c0,.48-3.2,1.12-6.56,1.12s-6.55-.64-6.55-1.12,3,.8,6.39.8C169.84,149.84,172.88,148.56,172.88,149Z" fill="gray" fill-rule="evenodd"/><path d="M148.58,153h6.55v2.4h-6.39Z" fill="#a7a7a7" fill-rule="evenodd"/><path d="M169.84,147.28c-.64,1.28-1.12,2.08-1.28,1.92a10.82,10.82,0,0,1,1-2.4l1.28-1.91C171,145.05,170.48,146.17,169.84,147.28Zm1.6,3.2-1.28.8a5.18,5.18,0,0,1,1.28-1.44c.8-.64,1.44-1,1.44-.8l-1.28,1.28Z" fill="gray" fill-rule="evenodd"/><path d="M170.8,148.88l.8,1.92-1.28-1.6-.8-1.92Zm-.64,5.12a30.21,30.21,0,0,1-4.48.32,17.91,17.91,0,0,1-4.63-.32l4.63-.32C168.24,153.68,170.16,153.68,170.16,154Zm-15-.64a8.68,8.68,0,0,1-3.19.32c-1.92,0-3.2,0-3.2-.32a14.52,14.52,0,0,1,3.2-.32A8.68,8.68,0,0,1,155.13,153.36Z" fill="gray" fill-rule="evenodd"/><path d="M140.75,173.82s1.11,2.56,5.75,2.56c4.48,0,6.08-.8,4.32-2.08s-5.44-1-4.8.16a1,1,0,0,1-1.76.8c-.48-.8-2.08-3.36.8-3.52,3-.16,9.27-1.12,10.87.64s-1.76,3.2.8,3.68c2.4.32,2.88-.48,7.2-.64,4.31-.32,6.07.8,7.51.64,1.6,0,1.28-2.72,0-3.2-1.12-.8-3.36-1-4-1.6-.48-.8-2.08,0-1.92-1,0-.8,2.24.48,2.24.16l.32-.32h-.48l.16-.32-.32.16.16-.32s-.48.32-.48,0h-.32c.32-.32.16-.32,0-.48h-.48v-.47c-.32,0-.32,0-.48.32v-.8c0-.16.32-.32.8-.32,1.12,0,1.6,1.27,2.08,1.27.32,0,.8-1.27,2.24-.79l2.4,1c.8.48-.48,1,0,1.6s3.35,2.72,2.56,5.12c-.8,2.24-3.2,2.56-3.2,3.52-.32.95,6.87.64,8.63.95a4.85,4.85,0,0,1,3,1.92l-3.2.16s-1.6-.8-5.59-1c-4,0-5.44-1.59-7-1.91l-6.39.32-4.8-.48c-1-.16-6.71,2.55-6.71,3.19h-3.84s.48-1.44,2.72-1.6c2.08-.32,4.31-1.27,4.15-1.91l.64-4.16c0-1,1-1.6.8-1.92-.16-.64-2.71-1.12-5.11-1.12s-5,.16-5.44.64c-.32.64,0,2.4.48,2.08.48,0-.16-1.28.32-1.44a10.89,10.89,0,0,1,3.2-.48c1.28,0,3.36,1.12,3.36,1.6,0,.16.64,1.28-.32,1.76a13.25,13.25,0,0,1-5,.64,12,12,0,0,1-4.8-1.28,3.87,3.87,0,0,1-1.11-1.76Z" fill="#d0d0d0" stroke="gray" stroke-width="0.1" fill-rule="evenodd"/><path d="M169.84,169.82a.48.48,0,0,1-1,0h0a.48.48,0,0,1,.48-.47A.47.47,0,0,1,169.84,169.82Z" fill-rule="evenodd"/><path d="M194.62,162.31l2.56.48,4.31-2.88-.32,1.6L198.93,163l-1.27.64.8,1.28,1.43,2.24-.32,1.6-2.71-4.64-2.56-.48Zm-4.32-18.86,4.8-2.24-1.28-2.88.64-.32,3.2,7-.48.32-1.44-3-4.8,2.4-.64-1.28Zm-7.67-9.27,4.48-4.16.95,1v7l3.52-3.2.8,1-4.48,4.16-1-1v-7l-3.52,3.19-.8-.95Zm-19.82-8,.8-6.07h1.27l-.79,5.59,4.79.48v.8Zm-9.75,1-1.12-6.07,1.27-.32,1,5.43,4.8-1v.8l-5.91,1.12ZM135,135.93l-.48-.48,3.2-2.55,1.6,1.6a9.52,9.52,0,0,1-1.28,1.91,9.15,9.15,0,0,1-1.44,1.6,8.45,8.45,0,0,1-2.24,1.28,3.06,3.06,0,0,1-2.08,0,2.54,2.54,0,0,1-1.6-.8,2.68,2.68,0,0,1-.47-1.6,3.51,3.51,0,0,1,.63-2.08,5.61,5.61,0,0,1,1.6-1.75,8,8,0,0,1,1.76-1.12l1.44-.32a1.52,1.52,0,0,1,1.12.32l-.64.8a2,2,0,0,0-1-.16l-1,.16a4.87,4.87,0,0,0-1.12.8,2.52,2.52,0,0,0-1.12,1.12,3.24,3.24,0,0,0-.64,1v.8a1.82,1.82,0,0,0,.48,1.28l1.12.8,1.6-.16a6.55,6.55,0,0,0,3.36-3.2l-.64-.95L135,135.93Zm-.16,44.29-5.11,3.67-3.84-5.43.64-.48,3.2,4.31,1.43-1.12-2.55-3.67.48-.32,2.71,3.67,2.24-1.59.8,1Zm-7.51-8a2.09,2.09,0,0,0,1.6-1.44v-2.39a4.19,4.19,0,0,0-1.44-2.08,2.1,2.1,0,0,0-1.92-.48,2.21,2.21,0,0,0-1.28.8,3.05,3.05,0,0,0-.48,1.28l.16,1.75a5.16,5.16,0,0,0,1.28,2.24,1.91,1.91,0,0,0,2.08.32Zm.48,1.28a2.7,2.7,0,0,1-2.72-.64,6,6,0,0,1-1.76-2.88,7,7,0,0,1-.32-2.55,2.78,2.78,0,0,1,3.84-2.72,4.06,4.06,0,0,1,1.6,1.28,7.21,7.21,0,0,1,1.28,4.79,3.72,3.72,0,0,1-.64,1.76,2.49,2.49,0,0,1-1.28,1Zm.48-12.47h-6.4v-4.47l.32-1.92.64-1.12a1.25,1.25,0,0,1,1-.32,1.21,1.21,0,0,1,1.12.64,5.68,5.68,0,0,1,.48,2.08,4,4,0,0,1,1.12-1.76l1.76-1.6v1.6L127,155.28l-1,1a2.56,2.56,0,0,0-.48.64,2.29,2.29,0,0,0,0,.64v.63l-.16,1.6h2.88V161Zm-3.52-1.44v-2.71a6.93,6.93,0,0,0,0-1.44,1.61,1.61,0,0,0-.32-.64.76.76,0,0,0-.48-.32.88.88,0,0,0-.8.48l-.32,1.6v3.19h2.08Zm17.1-27v-7.2l1.28-.8,6.56,3.2-1.28.8-1.92-1-3.36,2.08v2.24l-1.28.64ZM143,128.9l2.88-1.6-1.6-1a12.77,12.77,0,0,1-1.44-.8l.16,1.28v2.08ZM172.72,127l6.71-2.72,1.12.8-.48,7.36-1.12-1,.16-2.08-3.19-2.4-2.08.8-1.12-.8Zm3.83-.32,2.72,1.92v-1.92a14.61,14.61,0,0,1,.32-1.6,5.56,5.56,0,0,1-1.12.8ZM193,149.52l6.07-1.44,1,4.32.32,1.92-.32,1.12a1.29,1.29,0,0,1-.8.64,1.71,1.71,0,0,1-1.27-.32,4.45,4.45,0,0,1-1.12-1.92,5.34,5.34,0,0,1,0,.8l-.64,1.28-1.28,1.91-.32-1.59,1-1.6.64-1a2.7,2.7,0,0,0,.32-1.28,7.08,7.08,0,0,0-.16-.8l-.32-1.44-2.72.64-.32-1.28Zm3.68.48.64,2.72a3.05,3.05,0,0,0,.48,1.28c0,.32.32.48.48.64l.63.16a.71.71,0,0,0,.48-.64,3.33,3.33,0,0,0,0-1.6l-.79-3Z" fill="#d0d0d0"/></svg>