<svg id="flag-icons-nu" xmlns="http://www.w3.org/2000/svg" xmlns:xlink="http://www.w3.org/1999/xlink" viewBox="0 0 1280.01 639.94"><defs><clipPath id="clip-path"><rect width="639.94" height="479.95" fill="none"/></clipPath></defs><title>nu</title><g clip-path="url(#clip-path)"><path d="M0,0H644.58V320.1H0Z" fill="#fff" fill-rule="evenodd"/><path d="M0,0V24l153.79,79.22,57.93,1.67Z" fill="#c8102e"/><path d="M65.8,0,252.36,97.41V0Z" fill="#012169"/><path d="M277.26,0V124.38H0v71H277.39V319.71h85.16V195.34H639.94v-71H362.55V0H277.26Z" fill="#c8102e"/><path d="M387.32,0V91.73L569.75.77Z" fill="#012169"/><path d="M393.12,101.8l51.35-.39L643.68.77l-52.9.78L393.25,101.93Z" fill="#c8102e"/><path d="M0,216.11v68.12l128-67.48L0,216.24Z" fill="#012169"/><path d="M492.73,219l-53.42-.39,201,100L639,295.71,492.6,219ZM49.93,320.36l188.5-99.09-49.42.39L0,320.1" fill="#c8102e"/><path d="M642.39,28.13,490.15,103.6l150.18.65V216.62H512.47l126.7,68.77,1.8,34.84-67.61-.78-185.27-91v91.87H252.88v-92L79.09,320l-78.57.26V639.94H1279.88V.52L643.81,0M.77,36.13,0,102.44l134.7,1.68-134-68Z" fill="#012169"/><path d="M639.94,0H1280V639.94H640.07Z" fill="#fedd00" fill-rule="evenodd"/><path d="M0,320H675.42v320H0Z" fill="#fedd00" fill-rule="evenodd"/><path d="M375.32,161.66A55.22,55.22,0,1,1,265,167a52.84,52.84,0,0,1,0-5.34,55.22,55.22,0,0,1,110.31,0Z" fill="#012169" fill-rule="evenodd"/><path d="M309.91,147.47l10.58-31.74,10.58,31.74h34.44l-27.86,19.61,10.7,31.61L320.49,179l-27.87,19.61L303.33,167l-27.87-19.61Zm191.59,5.16,5.29-14.84,5.16,15h17.16l-13.8,9,5.29,14.84-13.81-9-13.8,9,5.29-14.84-13.81-9ZM314.94,263.2l5.16-14.84,5.29,14.84h17l-13.81,9,5.29,15L320.1,278l-13.81,9,5.29-14.71-13.8-9.16Zm0-215.46,5.16-15,5.29,14.84h17l-13.81,9.16,5.29,14.84-13.8-9-13.81,9,5.29-14.84-13.8-9ZM127.6,152.5l5.29-14.84,5.16,14.84h17.16l-13.8,9.16,5.29,14.84-13.81-9-13.8,9,5.29-14.84-13.81-9Z" fill="#fedd00" fill-rule="evenodd"/></g></svg>