<svg id="flag-icons-pf" xmlns="http://www.w3.org/2000/svg" xmlns:xlink="http://www.w3.org/1999/xlink" viewBox="0 0 720 480"><defs><clipPath id="clip-path" transform="translate(40)"><rect width="640" height="480" fill="none"/></clipPath></defs><title>pf</title><g clip-path="url(#clip-path)"><path d="M0,0H640V480H0Z" transform="translate(40)" fill="#fff"/><path d="M80,0H560V480H80Z" transform="translate(40)" fill="#fff"/><path d="M277.3,340.8s10.8-8.8,21.4-8.8,13.4,7.3,20.8,7.9,13.4-7.3,22.5-7.6,20.5,6.4,20.5,6.4l-39.8,12-45.4-10Zm-22.9-13,135.4.7s-11.7-12.7-25.5-13-10,6-20.5,6.8-13.2-6.4-22.9-6.2-15.2,6.2-22.5,6.5-16.7-7.3-22.3-7-25.5,8.7-25.5,8.7l3.8,3.6Zm-17.3-16,167,.5c2.7-3.8-8.2-12.9-18.1-13.7-8.2.3-14,8.5-20.8,8.8s-14.4-8.5-22-8.2-15.5,8.2-23.1,8.2-13.2-8.5-22.9-8.5-14,9.3-21.4,8.8-13.8-9.4-20.8-9.4-18.7,10.5-21,10c-2.4-.7,2.9,4.3,3.1,3.4Z" transform="translate(40)" fill="#083d9c" stroke="#083d9c" stroke-width="2" fill-rule="evenodd"/><path d="M301.3,218.9l38.4,10.2V174.3c-17.6,1-32.2-33.4-1.2-35.7-30.5-4.4-34,3.5-37.5,12l.3,68.3Z" transform="translate(40)" fill="red" stroke="#000" stroke-linejoin="round" stroke-width="2.5" fill-rule="evenodd"/><path d="M277,258.7l86.7.3" transform="translate(40)" fill="#083d9c" stroke="#083d9c" stroke-linecap="round" stroke-width="5" fill-rule="evenodd"/><path d="M281.1,238l10.3,13.7m-10.3,0,11.1-13.5M287,237l-.3,8.5m10.8-7.6,10.3,13.8m-10.3,0,11.1-13.5m-5.2-1.2-.3,8.5m11.1-7.6,10.3,13.8m-10.3,0,11.1-13.5m-5.2-1.2-.3,8.5m11.7-7.6,10.2,13.8m-10.2,0,11.1-13.5m-5.3-1.2-.2,8.5m11-7.6,10.3,13.8m-10.2,0,11.1-13.5M354,237l-.3,8.5" transform="translate(40)" fill="none" stroke="#000" stroke-linecap="round" stroke-width="4"/><path d="M218.7,259.6l36.9.3V236.8l-42.2-2.1,5.3,24.9Zm-1.8-32,39.3,3.9-.3-16.4-38.4-15.3-.6,27.9Zm8-32.7L255,209.5l4.3-4.5s-2.8-1.9-2.6-3.7c0-1.7,2.8-2,2.8-4,0-1.7-3-2-3.1-3.7-.2-2,2.4-4,2.4-4l-27.2-23.7-6.8,29Zm198,65h-39l-.3-22.6,42.8-3.2ZM384.2,232l46.3-5.6-10-26.7-36.6,15.6.3,16.7Zm33.7-39.6L384.5,210c-.5-2-.9-3.8-3.2-5.3a4.22,4.22,0,0,0,2-3.2c0-2-2.6-2.4-2.6-3.5s2.4-2.2,2.6-4.9c-.3-1.8-2.6-4.4-2.2-4.9l26-19.8,10.8,24Zm-72.4,39.1,16.7-.7.3-6.7Zm-51-.5-17.5-.5v-7l17.6,7.5Zm0-2L277,220V208.2s-2,.3-1.8-2c.1-4.9,12.9,8.9,19.4,13.4l-.1,9.4Zm51-1.1v-7.7s15.8-14.2,19.1-16.9a9,9,0,0,1-1.8,5.2v11.2l-17.3,8.2ZM243,163.8l17.8,19.7c.4-1.8,4.5-2.1,8.6-1.8s7.3-.3,7.3,2.6-2,2.5-2,4.6,3,1.9,3,4.5-2.2,2.1-2.2,4.1c0,1.7,2.4,1.8,2.4,1.8l16.6,16.1V198.2l-34.2-53.7L243,163.8Zm27.4-20.4,23.3,47.5s.2-43.8,4.1-46.1l-6.5-12-20.9,10.6Zm101,1.9-26,46.2V172s2.2-3.2-1.2-3a42.62,42.62,0,0,1-7.5-.2l10.4-36.6,24.3,13ZM398,165c-.3.5-17.5,18-17.5,18-.8-2-6-1-11-1s-5.6,1.6-5.3,2.9c.5,3.3,2.2.8,2.2,4s-2.4,2-2.7,4.2c.3,2.7,3.8,2,1.7,4l-19.9,19.2V198.1l37.1-57.6Z" transform="translate(40)" fill="#ef7d08" fill-rule="evenodd"/><path d="M309.8,268.4c-8.3,13.8-30.6,9.7-35.9,0-1.5-.4-.6-59.5-.6-59.5s-2.5-1.1-2.6-3,3.4-2,3.4-4.3-3.6-1.4-3.7-3.8c0-2.2,3.9-2,3.7-4-.2-2.4-4.3-2-4.5-4.2,0-1.7,3-3.2,3.8-4-.93,0-1.87,0-2.8,0l-6.4.1c-4.6,0,0,1,0,3.6,0,1.7-2.3,2.9-2.5,4.3-.1,1.6,3.2,2.6,3.3,4.5,0,1.6-3.3,1.7-3.2,3.3.2,2.5,3,3.1,2.9,4.7s-3.6,2.1-3.7,3.3c.2,2.4.6,60.8.6,60.8,5.7,29.8,38.8,37.3,48.2-1.8Zm21.9,0c8.3,13.8,30.6,9.7,35.8,0,1.6-.4.7-59.5.7-59.5s2.5-1.1,2.6-3-3.2-2-3.2-4.3,3.4-1.4,3.4-3.8c0-2.2-3.5-2-3.3-4.2s3-2,3.1-4.2c.1-1.9-1.7-3-2.6-3.8h2.7l6.4.1c4.5,0,0,1,0,3.6,0,1.7,2.3,2.9,2.5,4.3,0,1.6-3.2,2.6-3.3,4.5,0,1.6,3.3,1.7,3.2,3.3-.2,2.5-3,3.1-3,4.7s3.7,2.1,3.7,3.3l-.5,60.8c-5.7,29.8-38.9,37.3-48.2-1.8Z" transform="translate(40)" fill="red" stroke="#000" stroke-linejoin="round" stroke-width="2.5" fill-rule="evenodd"/><path d="M301.7,295.6H339c.3-.3-8.4-13-18.6-12-11.5.3-19.3,12-18.7,12Zm118.9-1h-51s6.6-3.8,8.4-7.4c3.3,1.8,2.4,3.6,9,3.9s12.9-7.5,19.2-7.2,14.4,11,14.4,10.8Zm-201,0h51s-6.6-3.8-8.4-7.4c-3.3,1.8-2.4,3.6-9,3.9s-13-7.5-19.2-7.2-14.4,11-14.4,10.8Zm3.8-16,36.3.3a33.54,33.54,0,0,1-2.6-11.1c-9.4-3.2-17,7-23.8,7.3s-13.7-7.3-13.7-7.3l3.8,10.8Zm194,0-36.4.3a33.54,33.54,0,0,0,2.6-11.1c9.4-3.2,17,7,23.8,7.3s13.7-7.3,13.7-7.3l-3.8,10.8ZM311,279l18.4-.5s.3-5.6-9.3-5.6S311.3,279.3,311,279Zm-11.2-7.9a17,17,0,0,0,8.2-7.6l-12.6.3s-5.8,3.5-8.7,7.3Zm40.8,0a17,17,0,0,1-8.2-7.6l12.6.3s5.8,3.5,8.7,7.3Z" transform="translate(40)" fill="#083d9c" stroke="#083d9c" stroke-width="2" fill-rule="evenodd"/><path d="M-40,360H680V480H-40ZM-40,0H680V120H-40Z" transform="translate(40)" fill="#de2010" fill-rule="evenodd"/></g></svg>