<svg id="flag-icons-pn" xmlns="http://www.w3.org/2000/svg" viewBox="0 0 640 480"><title>pn</title><path id="path555" d="M0,0H640V480H0Z" fill="#00247d"/><path id="path796" d="M0,0H320V240H0Z" fill="#012169"/><path id="path798" d="M37.5,0l122,90.5L281,0h39V31L200,120.5l120,89V240H280L160,150.5,40.5,240H0V210l119.5-89L0,32V0Z" fill="#fff"/><path id="path800" d="M212,140.5,320,220v20L184.5,140.5Zm-92,10,3,17.5L27,240H0ZM320,0V1.5l-124.5,94,1-22L295,0ZM0,0,119.5,88h-30L0,21Z" fill="#c8102e"/><path id="path802" d="M120.5,0V240h80V0ZM0,80v80H320V80Z" fill="#fff"/><path id="path804" d="M0,96.5v48H320v-48ZM136.5,0V240h48V0Z" fill="#c8102e"/><path id="path1184" d="M410.1,252.3c-8.7,7.4-17,18.1-19,27.8-5.7,27.3-13.3,33.4-25,27.5,0,14.7,12.9,15.8,18.5,7.3,0,13.7,5,25.6,16.2,35.8,4.8,4.3,5.7,1.4,3.4-3.4s-2.2-20-6.7-28.8c7.2,5.1,17.8,2.2,17-12-9.3,5.4-18.5,5.2-19.5-7.7-1.1-15,4.7-37,15.1-46.5Z" fill="#f7e017" stroke="#000" stroke-width="0.41"/><path id="path1186" d="M399.1,143.7c.7-5.5-.5-11-4.5-14.5-7.6-6.7-15.1-4.5-20.7,1-8.3-4.6-12.8,11.4-22.2,8.7,1.5,5.2,4,7.4,8.8,5.6-5,4.5,0,10-5.9,15.4,10.6,3.4,16.2-2.5,15.8-12.7a9.57,9.57,0,0,0,13.7-.7c-5.6-1.8-5.6-6.7-3.4-11.2,3.4-6.8,19.3-6.5,18.4,8.4Z" fill="#f7e017" stroke="#000" stroke-width="0.41"/><path id="path1188" d="M423.6,222.1c-12,6.4-33.8,3.7-35.9-12-2-15.5,13.1-22.5,17.2-24.5,6.3-3.2,11.3,2.5,9.2,9a10.19,10.19,0,0,0,5.2-15.3c9.3.7,17.8-6.3,21.4-16.2-3.2,3-12,1-19.3.5,2.2-2.5,2.2-7.3,1.5-9.8-7.6,7.9-18.7,4.3-33.3,27q5.14-18.47,9.6-37.1c.8-15-15-15.2-18.4-8.4,3.7,4.2,1.7,9,.4,16.5-1.6,8.7-5,29-7.9,35.8-.9-10.6-7.9-11.3-9.2-16.5-2,1.4-3.2,5-2.7,7.5-2.5-2.7-11.1.7-14.3-3.4-3.3,6.7,2,13.5,7.7,16.5-3.3.2-4,4.1-7.7,4.1,4.9,5.7,9.9,8,15.6,8.4s10,2.6,13.5,9.6c5.7,11.3,27.2,18.6,47.4,8.3Z" fill="#337321" stroke="#000" stroke-width="0.41"/><path id="path1190" d="M453.4,208.4c-6.8,18.7-25.3,32-33.6,34-14.2,3.5-43.2,17.6-51,24.8a8.86,8.86,0,0,1-3.2-1.3c-3.8-2.7-7-11.5-.2-19,21.2-19.8,44-11.2,58.2-24.8-12,6.3-33.8,3.6-35.8-12a55,55,0,0,0,54.5-16.2,97.58,97.58,0,0,1,11,14.5Z" fill="#f7e017" stroke="#000" stroke-width="0.41"/><path id="path1192" d="M410.1,252.3c-10.7,9-16.2,31.4-15.1,46.5.3,4.2,1.5,7,3.3,8.8.8-8.6,6.7-30.7,22-40.6,12.8-8.3,32.9-27,40.3-48.5a17.24,17.24,0,0,0-7.9-9.2c-7.4,20.2-27.1,29.9-42.6,43Z" fill="#337321" stroke="#000" stroke-width="0.41"/><path id="path1194" d="M446.5,199.7a50.32,50.32,0,0,1-20.9,16.8,11,11,0,0,0,2.5-6.8,76.92,76.92,0,0,1-40.4.5A55,55,0,0,0,442.3,194a21.19,21.19,0,0,1,4.2,5.7Z" fill="#316d3a" stroke="#000" stroke-width="0.41"/><path id="path1196" d="M365.4,247c-17.2,16-5.8,30.2,1,33.3-1.9,11.3,8.7,10,8.5,19.4,4.3-2.4,5.4-9,4.7-14.2,5.5,5.9,19.2-.7,22.1,10.2,1.9-12-7.4-24-18.9-22.8,4.8-4.3,2-11.3-2.5-13.1-.9,8.8-10.8,8.8-14.6,6-3.9-2.6-7-11.4-.3-18.9Z" fill="#337321" stroke="#000" stroke-width="0.41"/><path id="path1198" d="M402.7,349.6c-1.8,1-1.7,3.5-.5,5,2.3,3.2-1.7,10.4,6,11.9,2.2.5,4-1,4.8-3.5,2.4-7.1-5.2-7.9-5.9-11.3S404.3,348.7,402.7,349.6Z" fill="#f7e017" stroke="#000" stroke-width="0.41"/><path id="path1200" d="M409.2,362.9c-2.5,1.2-4.8,2.8-3.7,11,.4,3.3.2,11.4-2.8,11.5,1.8,1,5.7,2,7.3-.2,1.5,2.6,5,1.8,6.3-1.3,1.8,1.4,4.3-1,4.3-3.2,1.5,1,4.7-.4,3.9-5.3,2,.7,4.4-.7,5.3-1.9-2.8-.6-10-4.4-11.6-7.4s-6-4.6-9-3.2Z" fill="#f7e017" stroke="#000" stroke-width="0.41"/><path id="path1202" d="M370,134.7a34.7,34.7,0,0,1,4-4.6" fill="none" stroke="#000" stroke-width="0.41"/><path id="path1204" d="M413,164.6c2-1.1,5-1.3,8.4-1" fill="none" stroke="#000" stroke-width="0.41"/><path id="path1206" d="M410,385.2c-.8-1.1-1.1-5.8-.6-8.7" fill="none" stroke="#000" stroke-width="0.41"/><path id="path1208" d="M416.3,383.9a13.45,13.45,0,0,1-4-7.1" fill="none" stroke="#000" stroke-width="0.41"/><path id="path1210" d="M420.6,380.7c-1.6-.7-5.5-5.7-6.3-8.9" fill="none" stroke="#000" stroke-width="0.41"/><path id="path1212" d="M424.5,375.4c-1.9-.4-7.6-4.1-10-8" fill="none" stroke="#000" stroke-width="0.41"/><path id="path1216" d="M528.5,247.2c27.7,23.2,29.5,41.7,25.3,52.5-2.3-10.1-13.8-25.9-25.8-30Z" fill="#f7e017" stroke="#000" stroke-width="0.41"/><path id="path1218" d="M478.9,234h51.4v61c0,51.9-28.8,82.5-58.2,98.8A108.31,108.31,0,0,1,414,295V234h36a20,20,0,0,0,4,12.7c8.6-.8,18.2-7.2,24.9-12.6Z" fill="#337321" stroke="#000" stroke-width="0.41"/><path id="path1220" d="M530.3,234v61a118.62,118.62,0,0,1-7,41.3L472,242.6l-51,93.7a116.69,116.69,0,0,1-7.1-41.3V234Z" fill="#006ec7" stroke="#000" stroke-width="0.41"/><path id="path1222" d="M524.8,331.9q-1.66,5.09-3.8,10L472,251l-48.7,91c-1.3-2.8-2.9-7.3-3.8-10l52.7-97.6Z" fill="#f7e017"/><path id="path1224" d="M495.3,365.3l5,2.3c2.7-5.4,3.1-13,2.2-19.8-2.9,7.4-12.8,7.2-15.5,11.7a38.76,38.76,0,0,1,4.5,2.9c-3.4,3.4-11.3,9-15.8,10.4V324.4c0-3.4-1.2-6.2-1.2-9v-10c0-2.3-.4-5.6-2.4-5.6s-2.5,3.3-2.5,5.6v10c0,2.8-1.1,6-1.1,9v48.4c-2.5-7.2-12.2-4.8-16.7-12a14,14,0,0,1,5.4-.2c-3.4-11.5-12.7-12.4-14.4-15.8,0,4.8-2,15.8,1.1,20.6a10.79,10.79,0,0,1,3-2.5c3.9,8.3,21.1,8.3,25.2,22.1,3.3-5,15-11,23.2-19.7Z" fill="#f7e017" stroke="#000" stroke-width="0.41"/><path id="path1226" d="M472.1,325c3.8,0,16-1.2,20.4-1.2,1.2,0,2.1-1.8,2.1-3.9s-.9-3.8-2-3.8c-4.5,0-16.6-1.2-20.5-1.2s-16,1.2-20.4,1.2c-1.2,0-2.1,1.7-2.1,3.8s1,3.9,2,3.9C456.1,323.8,468.3,325,472.1,325Z" fill="#f7e017" stroke="#000" stroke-width="0.41"/><path id="path1228" d="M469.6,305.2a4.36,4.36,0,0,0-3-1c-2.6,0-4.7,1.8-4.7,4.1a4.66,4.66,0,0,0,9.3,0,1.3,1.3,0,1,1,2.6,0,7,7,0,0,1-7.2,6.7c-4,0-7.3-3-7.3-6.7s3.3-6.6,7.3-6.6a8.05,8.05,0,0,1,3.3.8C469.9,303.1,469.6,304.2,469.6,305.2Z" fill="#f7e017" stroke="#000" stroke-width="0.41"/><path id="path1230" d="M451.7,323.8c1.1,0,2-1.8,2-3.9s-.9-3.8-2-3.8" fill="#f7e017" stroke="#000" stroke-width="0.41"/><path id="path1232" d="M453.4,323.8c1.1,0,2-1.8,2-3.9s-.9-3.8-2-3.8" fill="#f7e017" stroke="#000" stroke-width="0.41"/><path id="path1234" d="M464.5,324.5c1.4,0,2.5-2,2.5-4.6s-1-4.6-2.5-4.6" fill="#f7e017" stroke="#000" stroke-width="0.41"/><path id="path1236" d="M467.1,324.7c1.5,0,2.6-2.1,2.6-4.8s-1.1-4.8-2.6-4.8" fill="#f7e017" stroke="#000" stroke-width="0.41"/><path id="path1238" d="M475.8,324.8c1.5,0,2.6-2.2,2.6-4.9s-1.2-4.9-2.6-4.9" fill="#f7e017" stroke="#000" stroke-width="0.41"/><path id="path1240" d="M478.5,324.6c1.4,0,2.6-2,2.6-4.7s-1.2-4.7-2.6-4.7" fill="#f7e017" stroke="#000" stroke-width="0.41"/><path id="path1242" d="M490.6,323.8c1.2,0,2.1-1.7,2.1-3.9s-.9-4-2-4" fill="#f7e017" stroke="#000" stroke-width="0.41"/><path id="path1244" d="M447,362.9a13.89,13.89,0,0,1,4.8-2" fill="#f7e017" stroke="#000" stroke-width="0.41"/><path id="path1246" d="M492.9,363.3l-1.4-1" fill="#f7e017" stroke="#000" stroke-width="0.41"/><path id="path1248" d="M495.3,365.3a32.52,32.52,0,0,0,7.3-11.7" fill="#f7e017" stroke="#000" stroke-width="0.41"/><path id="path1250" d="M461.8,277.2c0-1.2.9-1.6,2-2.4,1.2-1,1.7-1.4,2.9-1.4h14.8c1,0,1.3.3,1.3,1.3v20c0,1-.2,1.4-1.3,1.4H461.8V276.9" fill="#fff" stroke="#000" stroke-width="0.41"/><path id="path1252" d="M477.8,297.8c2,0,1.6,0,3-1.4s1.3-1.3,1.3-2.6V275.4c0-1-.3-1.2-1.3-1.2H467.1c-1,0-1.5.4-2.7,1.3-1,.8-1.8,1.2-1.8,2.2v20.1Z" fill="#e5e5e5" stroke="#000" stroke-width="0.41"/><path id="path1254" d="M479.3,297.4c0,1-.3,1.3-1.4,1.3H463.1c-1.1,0-1.3-.3-1.3-1.3V277.3c0-1,.2-1.3,1.3-1.3h14.8c1.1,0,1.4.3,1.4,1.3Z" fill="#fff" stroke="#000" stroke-width="0.41"/><path id="path1256" d="M508,222.3a11.45,11.45,0,0,1,2.2,11.8H506c1.8-5.5.7-10.6-7-11.3-11.4-1-24.8,21.2-44.9,23.9-5.8-7-5.5-20.3,2-26.6a82.09,82.09,0,0,0-17.7-28.6,54.8,54.8,0,0,0-10.7-.7c3-6.4,11.3-13,18.1-15.7,1.08-1.54,2.22-3,3.4-4.5.7-8.7,42-4.7,50.7.7,0,9.8,3.9,42.2,8.2,51Z" fill="#96877d" stroke="#000" stroke-width="0.41"/><path id="path1258" d="M458,228.2c-1-15-7.1-27.4-15.7-35.8,4.1,1.1,12.4,1.1,18-3,7.5-5,27-13.6,34-9.9a10.37,10.37,0,0,1,.5,5.9c-1.7-4.5-20.4,2.4-25.7,4.6-5,2.3-7.3,5.5-5.5,12.6-3-2.5-2-4.8-5-6.6a50.81,50.81,0,0,1,2.6,12.5c-1.2-3-3.2-9.6-7.6-13.5a74.2,74.2,0,0,1,5.6,34.8c3,0,9.8-3,12.4-5-2.3,3.3-9.2,5.7-13.5,6.6-2,2.3-3.4,8.4-3.3,11.8-.3-4.2,1-14.3,3.1-15Z"/><path id="path1260" d="M508,222.3c-3.8-4.2-10.7-6.4-19.6-4a27.69,27.69,0,0,1,6.8-2.3c-.3-2.3-2.4-12.5-2.8-15l2.5-1c1.3,6.1,2.8,13.1,3.8,16a14.59,14.59,0,0,1,4.2,1.3c-.7-2.4-4.5-19.4-4.4-21.2l3.4-1.8c1.3,9.2,3.5,22.6,6,28Z"/><path id="path1264" d="M506,234c1.7-5.3.6-10.5-7-11.2-6-.5-12.4,5.3-20,11.3Z" fill="#96877d" stroke="#000" stroke-width="0.41"/><path id="path1266" d="M456.1,185.5a45,45,0,0,1-14.8-1.5,17.42,17.42,0,0,1,1.1-3.2,46.82,46.82,0,0,0-8.5,6.8c5.4,1.2,16.6,1.7,22.2-2.1Z" fill="#96877d" stroke="#000" stroke-width="0.41"/><path id="path1268" d="M456,220a38.5,38.5,0,0,1,2.1,10.3" fill="none" stroke="#000" stroke-width="0.41"/><path id="path1270" d="M445.7,175.1c-2,3-3.8,6.2-4.4,9a47.62,47.62,0,0,0,14.8,1.4" fill="none" stroke="#000" stroke-width="0.41"/><path id="path1272" d="M438.4,191.5a39.6,39.6,0,0,1,4,.9c4,1.1,12.3,1.1,18-3s21-16.7,38.3-18" fill="none" stroke="#000" stroke-width="0.41"/><path id="path1274" d="M433.9,187.6c5.4,1.2,16.6,1.7,22.2-2.1a76,76,0,0,1,38.4-14.8" fill="none" stroke="#000" stroke-width="0.41"/><path id="path1276" d="M528.5,247.2c19,13,33,25.7,37,46s11.7,25.7,21.2,20.3c-2.2,11.7-14,13-23.9,4,1,13.6-4.5,29.8-18.5,35.7-.9-8.1,4.5-14.6,3-21.2-.7-3-1-9.7,2.9-12.9-7.5,2.5-19.2-2.2-20.3-13.3,8.6,4,19.6,4.7,23.9-6.1s2.4-29.3-25.3-52.5Z" fill="#337321" stroke="#000" stroke-width="0.41"/><path id="path1278" d="M552.4,141.6c5.9-15.3,21.2-13.7,26.4-7.2,15.1-8.6,17.2,10.8,30,7-.2,3.6-4.5,7-9.2,6.7,5,4.5-2,11.3,8.5,15.4-9,4.5-21.6-.2-25-12.7-3,5.9-13.5,5.9-17.8,1.2,9.2-2.5,8.6-11,3.4-14.5s-14.5-2-16.3,4.1Z" fill="#337321" stroke="#000" stroke-width="0.41"/><path id="path1280" d="M506.7,175.4A82.17,82.17,0,0,0,529,210.2c10.8,10,27.1,7.4,36.3-2,.2,18.8-19.4,20.3-30.2,14.4-4.8-2.6-8.7-1.3-4.1,3,7,6.2,22.3,11,40.4,14.8,31.5,6.8,20.3,31.8,11,31.6,2.7,0,4.9-2.9,1-6.3-27.4-24.7-83-15-82.2-70-5.8,14.5-30,8.8-18.7-8.3,3.6,2.9,10,3.1,11.7-1.4,1.4-3.5.5-9.6-5.8-14.9,1,0,3.3,0,3-2.6.3,1.6,1.7,3.8,5.3,3,1,1.7,2,2.7,3.5,2.1.3,0,1.1-.5.8-2.1.2,3,3.8,4.1,5.7,3.9Z" fill="#337321" stroke="#000" stroke-width="0.41"/><path id="path1282" d="M535,222.6c13.1,8.5,28,8.5,41.5-7.2,4.3-5,11-9.3,15.8-9.7s4.5-5,8.1-6c-2.2-.6-3.1-3.3-6.5-3,8.5-2.9,6-9.7,10.1-13-3.4,1.3-8.6-3.7-13.5,2.7,1.3-3-.5-6.4-1.7-7.8.5,3.4-6.6,4-8,12.6-.7,4.8-3.4,4.6-3.8-2.9-.3-5.4-3-20.5-6-28.2-3.2-7.6-4-18.2.3-19.7a7.74,7.74,0,0,0-2.6-2.8c-5.3-3.4-14.5-2-16.3,4-5.8,15.4,10.6,24.2,9.3,40.9-2.5-12.4-22.6-15.6-22.4-27.8-6.5,3-5.6,8.4-3.1,12.7-4-6.3-13.3,4-21.2-4.5-1,11.3,9,15.5,17.1,16-4,7.2,1.4,13.3,6.8,15.3.2-12.6,26.1-7.5,26.4,14.2.2,18.5-19.7,20-30.3,14.2Z" fill="#f7e017" stroke="#000" stroke-width="0.41"/><path id="path1284" d="M571.4,240.4c31.5,6.8,20.3,31.8,11,31.6-5.9-.2-11.5-5.1-11.8-9.4-6.8,3.6-5,10.7.2,13.5-14.2-1.6-20.2,7.7-20.5,18,2.6-4.8,10.4-5,13.4-4s10.5,1.5,13.5-2c-2.5,2.2,1.6,7.2-2,11,12-.4,17.1-11.5,15-16.3,15.4-14,12.5-36.8-18.8-42.4Z" fill="#f7e017" stroke="#000" stroke-width="0.41"/><path id="path1286" d="M547.3,347.6c2,1.2,1.8,4,.4,5.7-2.8,3.4,1.4,11.5-7.2,13-2.5.3-4.4-1.3-5.2-4.2-2.4-8,6.1-8.6,7-12.3S545.6,346.5,547.3,347.6Z" fill="#f7e017" stroke="#000" stroke-width="0.41"/><path id="path1288" d="M539.6,362.1c2.7,1.4,5.1,3.4,3.7,12.4-.7,3.7-.8,12.8,2.5,13-2,1-6.4,1.9-8-.5-1.9,2.8-5.7,1.8-7-1.8-2.2,1.6-4.8-1.3-4.7-3.7-1.8,1-5.3-.7-4.2-6-2.2.6-4.9-1-5.8-2.4,3.1-.6,11.2-4.5,13.3-7.8S536.4,360.5,539.6,362.1Z" fill="#f7e017" stroke="#000" stroke-width="0.41"/><path id="path1290" d="M537.7,387c1-1.2,1.5-6.5,1-9.7" fill="none" stroke="#000" stroke-width="0.41"/><path id="path1292" d="M530.7,385.2a14.42,14.42,0,0,0,4.8-7.7" fill="none" stroke="#000" stroke-width="0.41"/><path id="path1294" d="M526,381.5a22,22,0,0,0,7.4-9.7" fill="none" stroke="#000" stroke-width="0.41"/><path id="path1296" d="M521.9,375.5c2-.4,8.6-4.3,11.4-8.6" fill="none" stroke="#000" stroke-width="0.41"/><path id="path1298" d="M501.2,195.8c-.4,23,9.2,34.8,22.6,42.4-5-3-2.8-13.1-9.5-16.4,1.6-.1,4,2.1,8,1.2-2-4.2-5-10.8-12.4-11.7,2-.2,6,.5,8.8-.5-3.8-6-14-3.1-17.5-15Z" fill="#f7e017" stroke="#000" stroke-width="0.41"/><path id="path1300" d="M498.8,173.8a4.5,4.5,0,0,1-2.1-2.2c-3.6.8-5-1.5-5.3-3,.3,2.6-2,2.5-3,2.6,6.3,5.2,7.2,11.3,5.8,14.8-1.8,4.5-8,4.3-11.7,1.4-.5,9.6,12,12.7,16.5.7,0,2,2.6,1.8,3.2,4.5C505.4,187.4,503,179.9,498.8,173.8Z" fill="#f7e017" stroke="#000" stroke-width="0.41"/><path id="path1302" d="M479,128a27,27,0,0,1-8-18.9c.2-5,2.2-10.3,9.5-8-2.3,0-.7,4.4-3,4.9,1.8.7,4.4-.9,4.8-2,.4,1.6,3.4,1.2,3.6,3,1.1-.9-.1-5.3-1.8-6.2,1.2-.7,2-4.2,1.4-5.9-1.2.2-2.9,1.8-3.2,4.1.6-1.8-.1-6.3-3.3-7a6.11,6.11,0,0,0,.1,6c-2.9-.7-7.2,1.2-8.2,3.7.2-3,.6-7.3,2.5-10,.6-.8-1-2.4-2.1-.3-2.2-4.3-8-6.5-10.7-4.4s-6-1-8.2,2.4-9.4,3.7-9,7.3c.2,2.2-.3,5.5-1.4,6.7-2.6,2.9,1.3,5,2,7.6-.5-8.5,13.1-25.2,26.8-18.7a30.19,30.19,0,0,0-2.7,11.6c-.6,7.7.6,18.5,8,24.9Z" fill="#337321" stroke="#000" stroke-width="0.41"/><path id="path1304" d="M483,101.1c0-2,3.5-4.7,8.2-4.6,5.7,0,10,5.2,14.6,4.7s2.4,2,1.4,2.8a2.51,2.51,0,0,0-1.2,2.9c.3,1.2-.2,2-2,.9-4.1-2.6-8.2,1-13.6-1C485.9,105.1,483.2,104.1,483,101.1Z" fill="#c8102e" stroke="#000" stroke-width="0.41"/><path id="path1306" d="M459.8,154.4a34.35,34.35,0,0,0-15-16.7l-.2-3.8a50.25,50.25,0,0,0,10.1-7.6c17,8,40-3.4,50.6-15.3l4,2.4-2,2.7-2.1-1.1A130.06,130.06,0,0,1,490,129.2a52.47,52.47,0,0,0,10.8,1.6c9.4-6.8,16.9-12.9,20.5-13.3l3,4-2.7,2-2.1-1.3A108.71,108.71,0,0,0,493.3,161c-6.3-1.4-28.9-.5-33.5-6.6Z" fill="#96877d" stroke="#000" stroke-width="0.41"/><path id="path1308" d="M490,129.2a17.22,17.22,0,0,1-3.5-1.2c-1.9,1.6-6.4,3.1-12.1,3.4" fill="none" stroke="#000" stroke-width="0.41"/><path id="path1310" d="M460.7,151.9c-1.5-8.4,1-17.8,5.2-20.6a33.6,33.6,0,0,0,34.8-.5" fill="none" stroke="#000" stroke-width="0.41"/><path id="path1312" d="M460.7,147.5a264,264,0,0,1,26.7,1.5c3.9.6,10.3,2.2,9.4,4.1" fill="none" stroke="#000" stroke-width="0.41"/><path id="path1314" d="M464,146.3l2.1-2-2-2.1-2.1,2Z" fill="none" stroke="#000" stroke-width="0.41"/><path id="path1316" d="M469,104.3c-2.6-3.6-9.8-4.8-11.3,0-.7,2.2-1.7,4.5-3.4,5.5s-1.3,4.1-.6,5.4c1.8,3.3.2,6.5,3.7,8.6,0-2.6,3.9-5.3,7.1-6s8.3-3.6,9-6.8c.6-3.4,1.8-6-4.5-6.7Z" fill="#337321" stroke="#000" stroke-width="0.41"/><path id="path1318" d="M452.7,136.8h1v6.1l.5.3,5.3-3,.5.7-5.4,3.1v.6l5.4,3-.5.8-5.4-3a.85.85,0,0,1-.5.3v6.2h-.9v-6.2a2.29,2.29,0,0,1-.5-.3l-5.3,3.1-.5-.8,5.3-3V144l-5.3-3,.5-.8,5.3,3,.5-.3Z" fill="#96877d" stroke="#000" stroke-width="0.41"/><path id="path1320" d="M460.7,151.8a10.7,10.7,0,1,1-.1-15.13,9.74,9.74,0,0,1,1,1.13,24.11,24.11,0,0,0-1.2,5.7,7.3,7.3,0,1,0-7.3,8,7.53,7.53,0,0,0,7.2-5.4A26,26,0,0,0,460.7,151.8Z" fill="#96877d" stroke="#000" stroke-width="0.41"/><path id="path1322" d="M448.6,162c-.6-.8-1.9-3-1.7-4.5a5.92,5.92,0,0,1,3.8,1.5c-.1-1.2-.6-3.6-.3-4.8,1.2.5,3.8,2,4.7,3.6-.2-1.1-.7-4-.2-5.8,1.3.8,3.6,2.9,4,4.4a25,25,0,0,1,1.6-7c1,1,2.6,2,3.6,3.4.2-1.9,1.2-4,2.5-4.5a13.1,13.1,0,0,1,3,6.6c1-.3,2.3-2,2.9-3a6.7,6.7,0,0,1,.7,4.5c1.3-1.2,2.8-2.7,3-4.1a8.17,8.17,0,0,1,3.1,4.2c-.2-1.5,0-4.1-.5-5.6a6.8,6.8,0,0,1,3.3,4.2c.5-1.6,1.5-4.4,2.4-5,.9,1.8,1.8,4,1.7,5.7.6-1.1,1.4-3.2,2.3-3.6.8,1.2.7,4,.5,5.4a12.73,12.73,0,0,1,3.2-3,16,16,0,0,1,0,3.1,13.94,13.94,0,0,0,3.2-5.2,7.65,7.65,0,0,1,3.3,4.9,11.55,11.55,0,0,0,4-3.6,17.41,17.41,0,0,1,0,4.6,16.36,16.36,0,0,0,1.7-2.6c.4,1.1,0,3.8-.4,5.3a6,6,0,0,1,3.4-1.5,20.13,20.13,0,0,1-2.5,7.8c-10.8-3-33.5-4.1-56.3-5.4Z" fill="#337321" stroke="#000" stroke-width="0.41"/><path id="path1324" d="M486.4,102.3c0-.9,1.8-2.7,5.1-2.7,4,0,7.7,3,10.9,2.7s1.6.9,1,1.1c-.8.3-1.1.7-1,1.2.3.6,0,.9-1.4.4-2.8-1-5.7.4-9.4-.4C488.4,103.9,486.5,103.6,486.4,102.3Z" fill="#f7e017"/><path id="path1326" d="M452.1,168.8c-3.3,4-6.7,3.4-7.4.8s1.8-3.8.9-6.1,1.5-3.3,2.6-2.3,4.8-2.2,6.3,1.2,2.8,5.7,2,7c-1,1.4-3.7.7-4.4-.6Z" fill="#f7e017" stroke="#000" stroke-width="0.41"/><path id="path1328" d="M466.7,162.7c-.6-1.5,2.9-4.4,4.7-2.3s4.6-2.2,6.2,1,2,4.9,2.9,6.7c.7,1.8-4.3,2.7-5.9,1.2.2,1-4.4,1.9-5.6-1.2l-2.3-5.4Z" fill="#f7e017" stroke="#000" stroke-width="0.41"/><path id="path1330" d="M490.1,164.6c-.8-1.6,3.3-3.9,5.5-1,.5-1.2,4.6-1.4,4.9,2l.5,6.9c.1,1.3-2.5,2.6-4.3-.9-3.4.7-4.9-1.2-5.3-3.1a14.28,14.28,0,0,0-1.3-4Z" fill="#f7e017" stroke="#000" stroke-width="0.41"/><path id="path1332" d="M454.3,162.3c-.5-1.1,3-3.4,5.2-1.7s5.5-1.4,7,1.6c2.7,6.2,2.8,6.6,2,7.8s-4.5.7-5.4-1c-.1,1.2-3.3,1-4.9.1-1.8-1-3.1-4.8-3.9-6.8Z" fill="#337321" stroke="#000" stroke-width="0.41"/><path id="path1334" d="M478,162.6c-.7-1.8,4.6-3.3,7-.2,1.1-1.1,3.7-1.2,5.1,2.2s1.7,5.1.7,6c-.8.6-3.5,1-4.4-.5-1.3.8-5.1.1-6-2a51,51,0,0,0-2.3-5.5Z" fill="#337321" stroke="#000" stroke-width="0.41"/><path id="path1336" d="M500.5,166c0-1.7,2.8-2.4,3.9,0,1,2.2,4.5.1,4.8,4a10.28,10.28,0,0,1-1.5,4.9c-1,1.3-6.3,0-6.7-2.9l-.5-6Z" fill="#337321" stroke="#000" stroke-width="0.41"/><path id="path1338" d="M452.1,168.8c-1.2-1.7-2.9-4.4-5-1.5" fill="none" stroke="#000" stroke-width="0.41"/><path id="path1340" d="M463.2,169a10.23,10.23,0,0,1-2-3.7" fill="none" stroke="#000" stroke-width="0.41"/><path id="path1342" d="M474.6,169.3a9.27,9.27,0,0,1-2.6-2.9" fill="none" stroke="#000" stroke-width="0.41"/><path id="path1344" d="M473.6,163.4c2,.2,3.3,2,3.9,2.9s2,2.4,3,2.5" fill="none" stroke="#000" stroke-width="0.41"/><path id="path1346" d="M486.4,170.1a7.73,7.73,0,0,1-1.5-2.8" fill="none" stroke="#000" stroke-width="0.41"/><path id="path1348" d="M485,162.4a24.34,24.34,0,0,1,1.5,2.6" fill="none" stroke="#000" stroke-width="0.41"/><path id="path1350" d="M496.6,171.6a9.29,9.29,0,0,0-3.5-3.9" fill="none" stroke="#000" stroke-width="0.41"/><path id="path1352" d="M496.2,165.4c.1,3.3,4.5,3.6,4.7,6" fill="none" stroke="#000" stroke-width="0.41"/><path id="path1354" d="M504.4,166a6.12,6.12,0,0,1,.6,3" fill="none" stroke="#000" stroke-width="0.41"/></svg>