<svg id="flag-icons-sh" xmlns="http://www.w3.org/2000/svg" viewBox="0 0 640 480"><title>sh</title><path id="path1430" d="M640,480V0H0V480Z" fill="#006"/><path id="path1438" d="M574.5,199.7c0,63.7-10.2,132.5-93,165.3-82.6-32.8-92.7-101.6-93.1-165.3Z" fill="#8fc5ff" stroke="#fff" stroke-width="4.3"/><path id="path1440" d="M481.4,364.7A134.09,134.09,0,0,0,555,302h-7.8c-2.3-.4-79.4-7.8-88.7-11.7-7.9-2.8-38.4,2.7-52.4,7.8a133,133,0,0,0,75.4,66.5Z" fill="#366cc9" stroke="#000" stroke-width="4.3"/><path id="path1442" d="M423.6,325.6h4.7c1.1,0,1.1,0,1.5-1.2s1.6-.8,2.4-.4a3,3,0,0,0,3-.8c.9-.8.9-.8,1.7,0s1.1.4,2,0a3.69,3.69,0,0,0,2.3-2c.3-1.1,1.5-1.5,2-.7.3.8,1,.8,1.9.8.7,0,.7.3.7,1.5,0,.8,0,1.2,2-.4,1.6,1.6,2,.8,2-.8s0-7.8-.8-8.2-1.2-3.1-1.6-5c0-4,0-4-3.9-6,0-1-.8-1.5-4-1.5.5-.4,0-1.5-.7-2-.8-.3-.8-.7,0-2.3.8,0,2.4,0,2.7-1.2.8-.7,3.2-.7,4.7,0s3.2.8,5.9,0l4.7-2.3c2-1.2,2.3-1.6,2.3-3.1a25.8,25.8,0,0,0-2-9.8c-1-2-1-4-2.7-7.4-1.5-3.2-1.5-4-3-5.9-.9-.8-1.3-1.2-1.3-2.3a5.91,5.91,0,0,0-2-4c-3-2.7-3.8-11.7-5.4-18.3-.8-4,0-13-1.5-14.5-2.8-2-4-1.6-6-2.3-1.5-2-1.9-5.5-3.4-9-2,.4-3.2,2.3-4.3,3-1.2.9-1.6.9-1.6,2.8,0,1.6-1.2,4-2.7,7-1.6,3.2-5.1,2-7.9,6.3-5.4-6.6-5.4-8.6-5.8-10.5,0-2-1.2-2.4-4.3-5.1v-6c-2.8-2-4.3-1.5-5.5,0-1.2,1.2-2,3.1-3.9,4-.8,1.5-4,4.6-6.3,9,2.4,35.1,10.2,70.3,34,98.5Z" fill="#5d3100" stroke="#000" stroke-width="0.4"/><path id="path1444" d="M574.5,199.7c0-24.3-1.2-47.8-.8-68a248.79,248.79,0,0,0-92.3-16.9c-20.7,0-61.4,3.1-92.2,16.8.7,20.3-.8,43.8-.8,68Z" fill="#ff0" stroke="#fff" stroke-width="4.3"/><path id="path1446" d="M393.5,227.4c1,1.6,2.9,4.3,3,6,.8-1.6,1.4-2.2,1.5-3.1s1.3-2.7.8-3.7-.7-1.7.4-1,.9,2,.7,3.8c-.7,5-2.7,6-3,9.3,2.9,7,.7,9.6,4,16.6.5.2,1.8-.3,2.2-.2,1.8-1.2,3-.9,5.5-.3s3.7,2.2,3.7,3.8,0,1.9.6,2.8,1.4,2.3,1.3,3.4a1.84,1.84,0,0,0,.5,2c.3.5-.2,1.8-.4,2.4s-.2,1.7,1,3.2,4,7.9,4,11.6c0,3.9.3,5.6,1.8,6.3s2,1.3,1.8,2.9.7,10,.9,11.4.7,1,1.4,1.7a3.12,3.12,0,0,0,3,1.5,44.35,44.35,0,0,1,5.2,0,21.39,21.39,0,0,1,3.5,8.1c.5,2.2.4,5,1,5,.8,0,1.5,0,1.3-2.5s-.4-3-1.3-4.4-1.5-2-1-2.7a5.24,5.24,0,0,0,.5-3.1c-.2-1-.6-2.6,1.2-.6l2.7,3.3a5.29,5.29,0,0,1,.6,3.3c-.1,1.2,0,1.7.9,1,.7-.6,1.5.5,1,1.8a2.09,2.09,0,0,0,1.5,2.6c1.2.4,1.7.7,2,1.6s1.3,1.3,1.3-.6a27,27,0,0,0-1.2-6.9,21.61,21.61,0,0,1-1-5.4c-.2-1.5-.4-1.9-1.1-2.1a2.6,2.6,0,0,1-1.5-1.6,1.08,1.08,0,0,0-1.1-1,1.41,1.41,0,0,1-1.2-.8c-.2-.6-.5-.6-1-.6s-1.3.2-1.6-.6a7.56,7.56,0,0,0-1.1-2.6c-.5-.6-.9-.9-1-3.2s0-2.6-.8-3.4a27.54,27.54,0,0,1-2.5-3.8c-.4-1-1-1.9-1,0s0,3,1.3,3.7,1.5.7,1,1.8,0,1.7.2,2.4.6,1.4,0,2c-.6.8-1.2.6-1.1-.5a6.49,6.49,0,0,0-.9-3.3c-.4-1-.9-1.6-1.5-1-.6.4-1.1-.2-.7-.6s.3-.7,0-1-.4-.6.1-1.2.5-.9.2-2.3-2.5-8.6-3.5-10.2-.9-2.8.3-1.3,2.5,3,2.7,4.4a3.66,3.66,0,0,0,.7,2.6c.5.5.7.4,1-.8,0-1.1,1-.7-.4-2.8a27.08,27.08,0,0,1-5.2-12.2c-1-6.4-1.4-10.5-2.4-12.2s-1.3-2.2-1.4-3.8,0-3.3-.7-4.5-1.2-1.4-1.3.4,0,6,.6,6.6.2,2.6,0,3.5-1.7,2.1,1.7,4.1a2.47,2.47,0,0,1,1,2.6c-.3.8-.5.7-1.2-.4a9.84,9.84,0,0,0-2.1-2.6c-.7-.5-.9-1-.7-2.5s.3-2.5,0-3-.6-.1-.9.8-.3,3-.9,3.6-.5.2-.8-1.1.1-3.4.8-5.7a15.22,15.22,0,0,0,.6-7.8c-.6-3-.4-4-2.6-6.5-2.4-2.6-5.1-5-6.1-8.1-1.2-3.2-1.4-6-2.7-7.4a17.16,17.16,0,0,0-4-3.7v-4.7c0-1.2-.5-1.8-1.8-1.6s-2.2,1.3-3,2.8-1.4.9-2.6,3.5-2.6,4-2.6,6.8Z" fill="#cf6200"/><path id="path1448" d="M400.8,257.1a2.7,2.7,0,0,0,3,.3c1.1-.6,2.5-2.4,4.3-.6a11,11,0,0,1,2.4,6.7c0,2.3,0,6.5,2.6,8.8a10.53,10.53,0,0,1,4,7.8,53.66,53.66,0,0,0,1.4,9,9.18,9.18,0,0,0,1.9,3.5c.7.8,1.4,3.1,1.5,5.5s-.3,4.1,0,5.4,0,2.2-.8,1.7c-1-.5-1.2-1-1.8-2s-1-.9-.5.7,2,3,3.3,3a2.81,2.81,0,0,1,2.6,1c.8.8.9,1.2,2.3,1.2a7.77,7.77,0,0,1,3,.4,2.64,2.64,0,0,0,2,0c.7-.3,1.4.4,1.9,1.7s1.7,5,1.7,6a4.76,4.76,0,0,0,.7,3c.7,1.1.5,2-.3,1.5s-.8-.5-1.3-.3-1-.2-1.9-.8c-.8-.4-.3-.3-1.1-1.5s-1.3-1.7-1.3-.7-.2,2-.8,1.4-.9-.5-1.4,0-.7,1-1.3,0-1.3-1-2-1.3c-.5-.1-.5-.1-.8-1a1.9,1.9,0,0,0-2-1.2c-.9,0-1.3-.4-1.4-1s-.6-1-1-1.3-.2-1-.3-1.7-.7-.5-1.1-.6-.7-.1-.7-1.2-.5-1.3-.7-2c-.4-.8,0-1.5.2-2.2a2,2,0,0,0-.6-2c-.6-.8,0-1.5-1.7-3-1.7-1.3-2.5-.1-3-3.4a43.64,43.64,0,0,0-2.4-11.4c-1-1-1.5-2-2.5-2.3s-1.4,0-1.5-2-.7-4.4-2-5.6l-2.3-2.2c-.6-.4-.9-1.4,0-3,.9-1.8.5-4.2.4-5.3a15.6,15.6,0,0,1-.2-3.8,9.72,9.72,0,0,0-.2-3.5c-.3-.7-.7-1-.2-1.7Zm24.5-28.8a22,22,0,0,1-4.7,4.6c-1.9,1.4-4.3,2.4-3,4.7s2.5,2.6,2.7,4.3.8,3.3,2,3.7c1.5.4,2,.2,2,3s0,4,1.2,5,1,2.2,1.6,4.7.6,8.2,2.2,12,5.3,11,4.8,12.4-.8,2.6.7,4.4a12.45,12.45,0,0,1,3,5.8c0,1.5.3,2,2,1.5a6,6,0,0,0,2.9-1.7c.5-.7,1.6-.6,3.1.2s3.8,1.6,5.2.9c1.3-.9,2-2.1,3.2-2.1,1.9-1.4,2.6-4.2,3-5s.1-.8-.7-1.6-.4-2.2-.5-3.5a19.39,19.39,0,0,0-2.3-6.5c-1.6-3-2.7-6.6-3.7-7.5a8.62,8.62,0,0,1-1.7-4.4c-.1-1-1.4-2-2.2-2.8s-1.6-2-2.6-6.8a74.63,74.63,0,0,1-1.6-9c0-.8-.2-.8-1-1.2a1.71,1.71,0,0,1-.8-2.2c.1-.7-.4-1.4-.7-2.2a4.73,4.73,0,0,1,.6-3.2c.5-.8.4-3-.1-5-.5-1.8-1.1-3.4-3.3-3.8-2.1-.2-2.6-.8-3.3-2.6a27.25,27.25,0,0,1-2-5.5c-.2-.7-.7-.8-2.3.6s-2.2,1.7-2.2,4.3a5,5,0,0,0,.9,3.1,8.43,8.43,0,0,1,1,3.8c.4,2.5,2.7,6.6-.2,9-3,2.2-2.6,2.8-2.5,4.4s-.8,2.7-1.3.5c-.6-2.4,0-3.7,1.6-4.8s3.1-2.5,2-4-1.5-5-1.7-6.6-.3-2.2-1.3-.9Z" fill="#cf6200"/><path id="path1450" d="M401.2,262.8l.3,3.3c0,1.1.4,3.5-.5,5.2s-.6,2.6,0,3.1h.1a2.31,2.31,0,0,0,1.5-3.2,3.19,3.19,0,0,1,.2-3c.5-1,.5-1.5,0-2.2s-.5-.7,0-2.6c.6-1.7-.7-1.7-1.6-.6Zm17.4,26.3a46.06,46.06,0,0,1-1.5-9c-.1-3-1.5-5.5-4-7.8-2-1.8-2.4-4.7-2.6-7-1.5-.9-2-.5-1.9,1.2s2,2.6,1.7,5.3-.3,2,1,3.3c1.1,1.2,1.7,2.6,1,3a1,1,0,0,0,.2,1.8c1,.4,1,1.4.9,2.4s.9,1.1,1.3,1.7a3.24,3.24,0,0,1,0,3.3c-.4,1-.5,2.5.4,1.7s1.4,0,2.1,1.2c.6,1,1.2.7,2,.5a8.44,8.44,0,0,1-.7-1.6Zm13,23.6c-.4,1.2-1.1.9-1.7.3s-1.3-.6-1-1.8a1.53,1.53,0,0,0-.7-1.9l-.3-.3h-.8c-1.5,0-1.6-.3-2.5-1.2-.16-.14-.33-.27-.5-.4v.8c0,1.1,0,.8-1,1.2s-1-1.1-1.2-2a4.17,4.17,0,0,0-.1-.6,4,4,0,0,1-3-2.9c-.5-1.6,0-1.7.6-.7a5.26,5.26,0,0,0,1.6,2c.8.5,1.2-.5.8-1.7a5.65,5.65,0,0,1,0-1.3,2,2,0,0,0-.8-1c-1.8-.7-1.2-.8-1.2-2.2.2-1.3-.1-1.3-1.2-.6s-1,0-1-2.2c0-2-1.4-2-1.7-.6s-.9.5-1.4-1.5-1.5-2.6-1.5-.6c0,1.7-.6,2-1.6,1.2l.4,3.1c.5,3.3,1.3,2,3,3.5s1.1,2.2,1.7,2.9a2.21,2.21,0,0,1,.6,2,2.93,2.93,0,0,0-.3,2.2c.3.8.8,1,.8,2.1s.2.9.7,1.2h.8l.7-1c1.3-1.2,3,0,3.7,1.7.6,1.5,1.3,1.9,2.3.6s.6-1,1.6.1,1.4,1,1.4,1a2,2,0,0,1,1.8.2c.7.6,1,.5,2.4-1.4s-.6-1.4-1.2-.2Zm3.8-55.8c.4-3,.1-5.9,1.3-7s2.7-3.3,2.7,1.4c-.2,4.6-.4,4.3-1.3,5.4s-1.8,1.4-1,3.1c1.1,1.7,1.2,2,1.1,4.6s-.1,3.9.9,5.2,1.4,1.4,1.7,3a8.38,8.38,0,0,0,2.4,4.5,11.7,11.7,0,0,1,2.7,6.4c.2,2.2,2,2.7,3.8,4.3s-.4,2.5-1.7,1.8-.9,0-1.7,1-1,1.1-1.7-.6-3-2.7-4.1-3.1-2-2.2-3-4a5.19,5.19,0,0,0-3.9-2.6,5.52,5.52,0,0,1,.5,2.4c-.4,1.5-.8,2.6.7,4.4a12.45,12.45,0,0,1,3,5.8c0,1.5.3,2,2,1.5a7.16,7.16,0,0,0,2.9-1.7c.5-.7,1.6-.7,3.1.2s3.8,1.6,5.2.8,2-2,3.2-2c1.9-1.4,2.6-4.3,3-5,.4-1,.1-1-.7-1.7s-.4-2.2-.6-3.5c0-1.4-.6-3.4-2.2-6.4s-2.7-6.6-3.7-7.5a7.82,7.82,0,0,1-1.7-4.4c-.2-1-1.4-2-2.2-2.9s-1.7-2-2.6-6.7c-.7-3.7-1.4-6.6-1.5-8-1,1.5-1.7,2-2,.8-.5-1.2-.9-1.8-1.5-1s-.7-.8-.7-1.5,0-.7-.9-.7,0-1-.3-3.2c-.3-2-.7-2.2-.9.2s-1.7,4-1.1,4.4c.5.6.2,1.7-.3,3.3a5.07,5.07,0,0,0,0,3.6c.4,1-.2,3.2-.4,4.9s1.1,3.5,1.5.6Zm-24.8-24.2c-1,0-1.7,1-1.1,4,.4,2-1,1.6-1.6.6a46.08,46.08,0,0,0-2-4.7c-1.1-1.7-.6,1.1-.7,2.8s.9,1.7,1.8,3,.2,1.9-.8,1.9-.7,2.2-.4,3.6-.3,1.8-1,.6c-1-1.3-.3-3-.2-5.4s.3-1.8-1.2-2.3-1.3-.9-.6-2.2c.5-1.4,1-2,.3-2.7s-.5-1.1.6-1.2.6-1,1.6-1.2,1.4,0,1.5-1.7c.1-1.5.6-2.3,1.7-1.9.7,2.3,1.5,5.8,2.1,6.8Zm13.7,16c0,2.8,0,4,1.2,5s1,2.2,1.6,4.7.6,8.2,2.2,12l1.8,4a7.59,7.59,0,0,0,2-2.6c.3-.8-.9-2.8-1.8-4.3-1-1.8.1-2.3,1-4.4,1-1.9,0-2-1.6-2.6-1.4-.5-1.4-2-2.2-4.1s-.7-3.1-.2-4.4.2-2.1-.9-2.4-.8-1-.4-2.4.7-1.6-1-1.3a5.09,5.09,0,0,0-1.9,1Z" fill="#00b800"/><path id="path1452" d="M439.9,254.3c-.2,1.6-.2,2.5-.6,3s-.1,1.3.3,2.2a4.53,4.53,0,0,1,.3,3.4,2.48,2.48,0,0,0,1,3c.8.4,1.2,0,1,2a5.8,5.8,0,0,0,1.7,4.7,3.53,3.53,0,0,1,1.5,3c0,.8.7,1.5,1.7,2s.8.5.8,1,.4.6,1.4.9a6.34,6.34,0,0,1,3.2,2.4c1.2,1.6,3,2.3,2.7.7s0-2.8-1.6-3.5-2.9-4.7-3.5-7.4c-.8-2.8-2.9-6.4-4-7.1-.3-2,0-2.9-1.2-3.8a4,4,0,0,1-1.7-3.2,3.49,3.49,0,0,0-1.2-2.4,2,2,0,0,1-.8-1.8c0-.8-.8-.7-1,1Z" fill="#5d3100"/><path id="path1454" d="M432.7,327a39.06,39.06,0,0,0,9.7-2.8c1.7,1.1,4.5,2.6,5.7,2.6-2.3.5-3.9.3-4.4-.2.3.7,1,1.9,1.6,2-2.3,0-4.8-.6-5.6-1.4-2,.8-5.2,1-7-.2Zm4.3,3a47.15,47.15,0,0,0,5.8,1c-1.4,1.2-.2,2.4,2.1,2.2-1,.2-2.4.6-1.5.8a24.5,24.5,0,0,0,8.9-1.8C450.3,334.7,440.9,337,437,330Zm4,6.1a9,9,0,0,1,5.3.3c-1.4.6-4.5.6-5.4-.2Z" fill="#00d860"/><path id="path1456" d="M445.3,336.1c2-.3,8,1,10-.2-.7,1.9-4.3,2.2-5.7,1.7a20.13,20.13,0,0,0-3.4-.8c.6-.3-.2-.3-1-.7Z"/><path id="path1458" d="M447.4,339a30.73,30.73,0,0,0,9-1.1c1.7.6,5.4,1.6,6.2,1.5-1.7,1-5,.4-6,0A10.89,10.89,0,0,1,447.4,339Z" fill="#00d860"/><path id="path1460" d="M450,339.9a12,12,0,0,0,6.5-.5,15.17,15.17,0,0,0,3.9.6,12.46,12.46,0,0,0,3.7,1.5,16.73,16.73,0,0,1-7.5-.7,19.11,19.11,0,0,0-8,1.5,3,3,0,0,1,1.5-2.3Z" fill="#00d860"/><path id="path1462" d="M447.4,328.6c1.7.5,8.2.2,11.3-1.3,1.4-.7,2.2.4.7.8-5.2,2-9.5,2.6-12.5,1-1.2-.6-1.4-1.2.5-.6Z"/><path id="path1464" d="M478.6,319.8c-7.9,3.7-13,4.8-23.9,1.4-1-.2-1.7,0-.6.7s7.1,2.4,8.5,2.6.9.7,0,1-1,.8.1.4,7.8-.7,10.5.7c1.1.7,1.4.5,1.3,0s.5-.7,1.4-.8,1.4-.4.7-.6-.8-.5-.3-.7.6-.6-.2-.7-1.3-.4-.6-.7a9,9,0,0,1,2.6-.7c.2-.5-.1-2,.5-2.6Z" fill="#00d860"/><path id="path1466" d="M465.6,320.7a26,26,0,0,0,17-6,16.94,16.94,0,0,0,4.9,2.2c1.1.2,2,1.2.3,1.2a15.9,15.9,0,0,1-5.2-1.2,29.55,29.55,0,0,1-17,4.3c-1.1,0-1.4-.5,0-.4Z"/><path id="path1468" d="M452.3,296.3c1.6,1.1,4.3,2.9,7.8,2.6a17.14,17.14,0,0,0,5.7,3c-2.4.8-5,1.7-5.6,2.4-1-1-2.5-.8-2.8-1.4-1,1-.9,1.3-.2,1.8s5.8,1.2,7,.9,1.7.7.6,1c-2.7,1-8,0-9.8-2.9-2-2.9-3.5-4-8.5-1.3-.5-1.5-.5-1.7-1.5-1.7s-2.8-1.3-1.4-1.3a16.7,16.7,0,0,0,8.7-3Z" fill="#00d860"/><path id="path1470" d="M453.6,303c-1,.1-3.3,1.4-4.1,1.5s-2.4,1.4-.9,1.4c1.7,0,3.7-1.7,4.8-1.7s1.2-1.5.2-1.3Zm5,5a28.32,28.32,0,0,1-4,.8c-.7,0-1.5,0-1.4.6s.3.9-.9.7a2.31,2.31,0,0,0-2.1.6c-.3.3-.5.6.6.7a4.46,4.46,0,0,0,2.9-.4,10,10,0,0,1,3.6-1.4c1.3,0,2.6-1.8,1.2-1.5Z" fill="#00d860"/><path id="path1472" d="M454.9,311.1c1.1.9,6.6,2.6,8.5,2.6s1.7.7.2,1A12.18,12.18,0,0,1,454,312c-1.2-1,0-1.4.8-.9Z"/><path id="path1474" d="M480.8,314a21,21,0,0,1-10.2.3c-1.7-.6-3.3-.6-2,.6,1,1.1,4.8,1.8,7,1.3-7.6,1.7-9.6,1.6-11.4,1.3a38.09,38.09,0,0,0-7-.2,5.93,5.93,0,0,1-3.3-.4c-.7-.5-.9-1.1,1.1-.9s2.3-.2.6-.5-4.1.4-1.8,2c2.4,1.4,7.4-.2,10.7.8a18.61,18.61,0,0,0,16.7-3.8c.3-.2.9-1-.4-.6Zm-20.6-6.3a1.69,1.69,0,0,1,0,1.4c-.2.4-.1.9.5.4s1-1.2,1.8-.8a7.62,7.62,0,0,0,3,.2c.8,0,1-.3,0-.7a7.44,7.44,0,0,0-2.9-.6,3.08,3.08,0,0,1-1.9-.3C460.2,307,460.1,307.3,460.2,307.7Z" fill="#00d860"/><path id="path1476" d="M471,309.7a8.67,8.67,0,0,1-3.1-1c-.8-.3-2-.3-1.2,1s4.6,1.7,6,1.2.8-1.2,2-.4a8.24,8.24,0,0,0,3.7,1.3c1,0,1.3,0,.3-.6s-1.6-.7-1.8-1.2-.2-.9.9-.5,2,.8,2.8.4a8.53,8.53,0,0,1,3.5-1.3l.2-.8a12.34,12.34,0,0,0-3.5.6,4.27,4.27,0,0,1-2.4.2,15.17,15.17,0,0,1-2.5-.5c-.4-.3-.3-.5.5-.6s1-.7,0-.6a16.84,16.84,0,0,1-5.8-.3c-1.5-.5-2.2-.6-2.8-.3s-.6,1,.3,1,3.2.3,4,1c.6.7.6.7-.2.4s-2.5-.2-.9,1Z" fill="#00d860"/><path id="path1478" d="M484.3,307.8l-.3.8c1.9,0,6.4.4,8,1.3,1.4-1.1,1.1-1.5,2-1.2a6.63,6.63,0,0,0,3,.3,2,2,0,0,1,1.5-.2,7,7,0,0,0,2.7-.6,7.9,7.9,0,0,1,3.3-1c.8,0,2-.3.3-.6a12.22,12.22,0,0,0-5,.6,24.12,24.12,0,0,1-5,.5c-1.5,0-3.6.7-5.3.3a24.93,24.93,0,0,0-5.3-.2Z" fill="#00d860"/><path id="path1480" d="M507.9,307c-3,2.2-6.8,2.7-11.1,3-1.3,0-.9.4.2.5,4.6.5,9.8-1.2,11.6-3,.5-.6.4-1.4-.7-.6Z"/><path id="path1482" d="M487.1,312.2a46.86,46.86,0,0,1,7.3,1.7c1.2-.2,1.5-.4,1.3-.9s-.4-.8,1.7-.6h7.5c.8-.3,2.3-1.5,3-1.5-1.8,0-9.5.4-10.4.3a3.31,3.31,0,0,0-2.1.4,1.49,1.49,0,0,1-1.7.1c-1-.3-2.1-.7-3-.1-.6.4-2.3,0-3.6.6Z" fill="#00d860"/><path id="path1484" d="M504.9,312.4c.7-.3,2.3-1.5,3-1.6a10,10,0,0,1,3.5.6c.7.2,1.5,0,1-.6s0-1.6,2-1.3c2.2.2,3.2.6,5.3.4s2.9,1.3,6.7-.2c-.2,1.5.5,1.6,1.2,1.3a2.84,2.84,0,0,1,2.7.7c1.3,1,8.7,1,10.4.7s2.6.6,1.3,1-1.6,1-1.3,1.5.6.9-1,.7a2.85,2.85,0,0,0-2.7.8c-.8.6-1,1-3.3.5a9.87,9.87,0,0,0-3.9,0,4.5,4.5,0,0,1-2.8-.1,9.55,9.55,0,0,0-5.5-.3c-1.6.6-2.7,1-4.2.6s-1.5-.2-.6-1c.8-1,1-1,2.8-1.1s3-.7,1.9-1.4c-1.3-.7-1.6-.6-3.3.1s-2.4,1.4-4.3.4a4.25,4.25,0,0,0-4-.5c-1.2.3-3.2-.5-4.9-1.2Zm6.1,3c-2.4.4-3-1.1-5.4-.9-.8.2-2.2,1.2-.3,1s4,.9,5.8.8,1-1,0-.9Zm-2.6,1.7c1.1-.4,3.6.5,4.8.3s2,.4.8.9-3.7-.7-5-.4c-1.1.4-2.4-.1-.7-.8ZM484,323.8c1.7,0,7.8-.3,10.2-5.3.2-.4.3-.6,1,0s3.6,2.1,8.8,2.6c1.5,0,3,.8.1.7s-7.6-1-9.1-2c-2.7,4.1-7.4,4.6-11,4.5-2.1,0-1.6-.6,0-.5Z" fill="#00d860"/><path id="path1486" d="M497.1,316.8a11.6,11.6,0,0,1-4.8,3.2c-1.3,0-5.2-.2-6.1-.6s-2.1-.3-.8.7a11.09,11.09,0,0,0,6,1.3c1.6-.3,3.1-.8,4.2,0,1,.6,3,1.8,4.2,1.6a10.34,10.34,0,0,1,4.3,0c.8.4,2.1,1.6.1,1s-3.6-.2-4.5-.6c1,1.4,3.3,3.7,5.2,3.7.5,0,.9.9,0,1.3.8.4,3,.9,4.3-.3-.4.5-.2.7.3.9s1.1.6.2.8a8.68,8.68,0,0,1-3.6,0,17.69,17.69,0,0,0,12.3,2.3c1-.1,1.6-.6,0-.5-3.5,0-3.7,0-4.3-.3s-.4-.7.6-1a24.1,24.1,0,0,1,4.3-.7c1,0,2.1-.3,0-.3a23.34,23.34,0,0,1-5.7-.4c-1-.3-1.7-.9-.6-1.6s2.1-.5,2.6-1c-3.3,0-7.4-2-5.2-3.6.5-.3.4-.4-.4-.5a21.54,21.54,0,0,1-4.5-1.4c-1-.5-.4-1.1.5-1.3-2,.3-6-.7-8.6-2.6Zm29.8,0a14.56,14.56,0,0,1-6.8,2c-1.4,0-1.7.4-.5.5a11.59,11.59,0,0,0,3,.2,1.6,1.6,0,0,1,1.6.2,6,6,0,0,0,3.8,0,22.34,22.34,0,0,1,4.7-.6c1,.1,2,.1,0-.4a15.89,15.89,0,0,0-5.8,0c-.7.2-2.8,0-1.7-.2a8.91,8.91,0,0,0,2.6-1.4l-.9-.3Zm-1,4a11.86,11.86,0,0,1-6.1,2.3c2,.8,3.8,3,5.2,2.8a7.24,7.24,0,0,1-2.3,1.2,8,8,0,0,0,5.4-1c3,.8,7,.2,8.3-1a8.88,8.88,0,0,1-5.4-1.6,2.84,2.84,0,0,0,2.3-1.1,11.39,11.39,0,0,1-7.3-1.8Z" fill="#00d860"/><path id="path1488" d="M522.7,327a4.78,4.78,0,0,0,2.3-1,19.18,19.18,0,0,1-11.1-2.6c-2.2-1.9-2.2-.4-.7.9s4.2,3.5,9.6,2.8Zm5.4,4.7a16.24,16.24,0,0,1-6.7.5c-1.5-.3-2-.2-1.8.5s.6,1-.6.8a12,12,0,0,0-4,.5c-1,.2-2,1-.2.7s3.5-.6,5-.3c1.3.3,6.1.4,7,0s.4-.3,0-.3-.7-.3,0-.7A2.5,2.5,0,0,0,528.1,331.7Zm-42.3-5.8a61.92,61.92,0,0,1-9.6,2.5,13.15,13.15,0,0,1-4.6,1.4,7.63,7.63,0,0,0,4.5.9,15.86,15.86,0,0,1-2.5,1.7,14.14,14.14,0,0,1,4.4.3,12.18,12.18,0,0,1-6.7,1.4,3.38,3.38,0,0,0,2.2,1.3,11.26,11.26,0,0,1-5.5.2c.6,1,1,1.6,1.8,1.8-1.7.1-3.7.4-5.4-.6,1.3,1.8,4.2,2.3,8.6,1.8a20.42,20.42,0,0,0,9-3.2,19.35,19.35,0,0,1-5.4,0,32.14,32.14,0,0,0,8.6-3.7,4.94,4.94,0,0,1-2.8-.9,27.28,27.28,0,0,0,8-.8,5.77,5.77,0,0,1-3.5-2.3,34.12,34.12,0,0,0,17,.5c.8-.2.8-1.3-.7-1.1-2.8.2-8.3-.6-9.8-1.3a10.09,10.09,0,0,0,4,1.7c-2.5.8-6.2,1.3-11.6-1.7Z" fill="#00d860"/><path id="path1490" d="M473.6,332.4c.5-.4,2-1,2.5-1.7a6.86,6.86,0,0,1-4.5-1,12.48,12.48,0,0,0,4.6-1.3c-3.6-.1-6-.1-7.5-.9s-3.7-.4-4.7-.2-.6,1.7,3.3,1.3a13.4,13.4,0,0,1-7.6,1c.4,1.4.7,2.7.3,3.5,2.1,1.2,7.7,2.7,10.5,2.5-2.5-.9-3.8-1.9-1.8-2.2a36.85,36.85,0,0,0,5-1Z" fill="#00d860"/><path id="path1492" d="M467.3,339c4.8-.4,11.4-.5,16.6-5,1.3-1,2.2-.6.9.5a28.84,28.84,0,0,1-16,6c-2.7,0-3.9-1.3-1.5-1.6Z"/><path id="path1494" d="M503.7,331a18.94,18.94,0,0,1-5.6.8,6.07,6.07,0,0,0-3.3.2c-.8.5-.9,1,.2,1l3.3.2a5.32,5.32,0,0,0-1.8,1.5,10.56,10.56,0,0,1,5.6.8,2.62,2.62,0,0,1-2-.4c2.7,3,10.9,3,12.2,2.4a3.43,3.43,0,0,1-1.7,1,10.79,10.79,0,0,0,7.5-1l-4.2-.2a4.83,4.83,0,0,1,2-1.2,13.8,13.8,0,0,0-5,.3,3.5,3.5,0,0,1,1.5-1.7c-4,0-8.9,0-10.6-1,2.7.4,5.9-1.3,7.2-1.3-2.2,0-4.6-.5-5.2-1.5Zm-10.1,2a55.36,55.36,0,0,0-5.9,1.8c-.8.5-1.6.7.1.7l.6-.1c-.7,0-1.5,0-.1-.5a35.24,35.24,0,0,1,5.2-1.7Zm-4,4.9c.7,0,3.7,0,5-1,1.2.8,3.7,2.2,5.2,2.2s1.4.4,0,.6a10.49,10.49,0,0,1-5.4-1.7c-1.8.7-3.3.1-5-.1ZM466,351.6a17,17,0,0,0,10.3,1.1c1.8,1.5,5.3,1.6,7.2,1.2a11.78,11.78,0,0,1,5.9,0c2,.8,6.4.9,7.7,1.9l-4.1.1c-.6.2-.3.5.8,1a22,22,0,0,0-11.3,3,6.41,6.41,0,0,1,6-3.8c-1.8-.6-7.7-.7-9.7.5a5.84,5.84,0,0,1-1.2-2c-3.1,1.7-9.2-.9-11.7-3Zm-8-5.8a14,14,0,0,0,7.3-2.8c.7.6,3.5,1.2,6.5.3a1.5,1.5,0,0,0-.5,1.7,22.65,22.65,0,0,0-7,1.8c-1.2.6-5,1.1-6.2.4s-1.2-1.2-.2-1.4Z" fill="#00d860"/><path id="path1496" d="M471.3,345.1a22.65,22.65,0,0,0-7,1.8l.5,1.7a44.43,44.43,0,0,1,15.3-1.6c-1.6.1-4.5,1.8-6.1,1.9a28.27,28.27,0,0,1,8.8.8c1,.2,1.3,1,.5,1.8s-1.1.7.5.9c1.6,0,5-.3,6.5-1.8-.7-.6-2.2-.3-2.7-.9a7,7,0,0,0,2.7-1.6,25.29,25.29,0,0,1-4.6-.3c-.8-.2-1.5-.5-.4-1.1a6.69,6.69,0,0,0,2-1.5c-2,.5-5.1,1-7.8-1a11.06,11.06,0,0,0,4.1-.3,5.27,5.27,0,0,0-2.2-.8c2-1,6-1.9,11.3.1a26.93,26.93,0,0,1,7.1.4c1-.8,2.6-2.8,3.5-3.2-6,.4-16.8-.6-16.5-3.8-2,2.6-6.5,4-8.4,3.6-.2.8.6,2,1.3,2.6-2,.4-5.5.8-7.1.4a6.61,6.61,0,0,0,3.6,1.7c-2,0-3.2.4-4.9.2Z" fill="#00d860"/><path id="path1498" d="M483.7,352.3c1.8,0,5-.2,6.6-1.7-.7-.6-2.2-.3-2.7-.9a7,7,0,0,0,2.7-1.6c4.4-.4,8.1-.2,10-.7s6.5-.3,7.4-.5c-4.1.7-4.9,1-5,1.7s1.2,1.1,2.2,1.1a6.47,6.47,0,0,0-4.4,2.7c-2.4-1.4-3.4.2-3.8.8a7.66,7.66,0,0,0-6.1,1.2,12.29,12.29,0,0,0-6-.7c1.5-.3,1.2-1.3-.8-1.4Zm19.5-12a50.37,50.37,0,0,0,5.5,0,6.62,6.62,0,0,0-1.8,1.3c3.5-.4,8.2-.7,9.6-.4-1.8-.3-3.5.9-4.4,1.4s-.3.9.9,1,2.7,1,.6.8a66.3,66.3,0,0,0-7.4-.2c-1,.2-1.6-.3,0-.6a10,10,0,0,0,3.1-1,10.34,10.34,0,0,1-4.3,0c-.8-.3-1.1-.5-.3-.8s.3-.4-.6-.3a9.38,9.38,0,0,0-4.3,2.1,29.69,29.69,0,0,1,3.4-3.2Z" fill="#00d860"/><path id="path1500" d="M487.8,342.7a8.68,8.68,0,0,0,6.8,3c.6,0,2,.9.3,1-4.3.2-6.4-.9-8.3-3.6C486.2,342.5,486.9,341.7,487.8,342.7Zm25.5-35.6a27.28,27.28,0,0,0,10.2,1.9c.7,0,1.8.6.3.7a18.31,18.31,0,0,1-10.8-2C512.1,307.2,512.4,306.7,513.3,307.1Z"/><path id="path1502" d="M515.5,307.1c3.5,0,6.1,0,7,.9a24.39,24.39,0,0,1,6.4-.7c.8.2,1.8-.3-.1-.7a28.55,28.55,0,0,0-7.6-.3,41.25,41.25,0,0,1-7,.2,1.76,1.76,0,0,1,1.3.6Zm13.4,1.3c1.6-.8,6.3,0,7.7-.6-1,1.2,3.3,1.3,7,.4-1.4.8-4.5,1-5.8,1.6s-2,.1-3-.3a11,11,0,0,0-5.9-1Z" fill="#00d860"/><path id="path1504" d="M543.6,308.2c-3.7.8-8,.8-7-.4-1.4.6-6-.2-7.7.6,1.8-1,3-.1,4.2-2.2.8.1,2.6.2,3.2-.6,1,.3,3,.7,3.5,1.3s1.3-.2.7-1c1.7-.6.6.7,4.5-.3a25.7,25.7,0,0,1,3.5-.6,24.29,24.29,0,0,1-5,3.2Z" fill="#00d860"/><path id="path1506" d="M471.6,291.1l-.7-86.8c0-3.9-2-3-2,0v86Zm28.2-91.4,3.1,91.4-.4.8h-2l-1.9-92.2Zm26.6,77.4-1.6-74.3c0-2.4-2-2-2,.4l1.6,73.9Z" fill="#ff0" stroke="#000" stroke-width="0.4"/><path id="path1508" d="M484.2,214.9l-27.4-.4c-1.2,5.5,5.5,5,7.8,4,3.1,1.9,5.5,1.9,7,0,2.4,1.9,5.5,1.5,6.7,0,3.1,2.7,6.6,0,5.9-4Zm2,13.3H458.7c-5,4.7,1.2,7,6.7,3.9.8,1.6,3.9,2.3,6.2,1.2,2.4,1.5,5.5.4,7-1.2,2.8,1.2,6.3,1.6,7.9-4Zm-.9,17.6H458.7c-.3,4.3,5.1,3.9,7,2.7,2,3.2,6.7,2.4,8.3.4,2.7,2,5,1.6,6.2,0,2.8,2.4,5.5-.8,5.1-3.1ZM487,263l-30.1-.4c-1.6,5,3.1,5.9,5,4.7.9,2.7,4.8,2,6,0a2.89,2.89,0,0,0,4.2-.8c.4,2.7,4,3.1,6.7.8,5.5,3.9,10.5-.8,7.8-4.3Zm26.2-7H488.6c1.1,4.6,3.5,5.8,7.4,3,3.1,3.2,7.8,2,9,.5,5.5,4.3,8.2-.8,8.2-4Zm-2.4-17.2-24.2-.8c.4,6.2,6.3,5.8,9.4,3.5,2,2.7,5.9,2,7.8,0,2.7,3.1,7.8,1.2,7-2.7Zm3.2-19.2H488c0,4.3,5.8,6.6,10.1,2.7,1.2,5.1,5.9,3.5,7.9,1.6,3,3.9,9.7-.8,7.8-4Zm-1.6-13-23.5.5c0,3.9,5.5,5.5,7.5,2.3,1.2,2,5,1.6,6.2,0,1.6,2.8,4,.8,4.7,0,2.8,2,5.5.8,5.1-2.7Zm27,8.7-28.2-.4a3,3,0,0,0,4.7,2.7c0,3.2,4,4,6.7,1.6,1.5,2.7,6.6,3.1,8.6,0,3.9,3.5,8.6.8,7.8-4Zm-.4,23H511.6c0,4,4.3,5.1,7,3.2.5,3.1,4,3.5,6,1.6,2.7,2.7,6.6,3,9,0,3,1.1,5.8-1.6,5.4-4.7Zm-1.6,20.8H515.5c0,3.9,4.7,3.9,6.7,2,2.3,2.7,5.5,2.7,7.4.7C532.3,264.2,537,263.4,537.4,259.1Z" fill="#fff" stroke="#000" stroke-width="0.4"/><path id="path1510" d="M502.5,292c-11.7,0-23.8,0-32-.9-8.2-.7-10.6-2.3-16.4-5.8L432,272c-1.9-.8-3.8.4-1.1,2l21.9,14.4c5.8,4,9.8,7.4,13.3,11.7,4.7,5.1,7.8,5.1,10.1,4.3s5.5-2,9-1.1a33.48,33.48,0,0,0,10.2.7c2,2,7,1.6,9.8.8a12.77,12.77,0,0,1,6.6-.4h6.7c2,0,7-1.1,10.5-.7,4,.7,7.4,0,9.8,0a19.36,19.36,0,0,1,7.8-.4c2.4-1.6,3.1-3.6,4-5.5,2.3-.4,3-.8,3.4-2l2.4-6.2h.8v-2.4l-1.6-2.3.8-4,2-.7-.8-4-34.4.9a7.82,7.82,0,0,0-2.4,4.3l-10.2,1.5c-1.1.4-2.3.4-3.5,2Z" stroke="#000" stroke-width="0.4"/><path id="path1512" d="M543.6,276.7l5-19.2c.8-2-1.1-2.3-1.9,0l-5,19.2Z" stroke="#000" stroke-width="0.4"/><path id="path1514" d="M563.5,255.2c-4.3,2-6.6,3.1-8.6,2.3s-4.3-1.2-5.8-.4a2.67,2.67,0,0,1,0,.4Q547,265,544.8,272.4c3,1.2,8.6,1.2,9.7,0,1.6-1.6,5.1-1.2,7-1.2,1.2-1.6,1.6-3.5,1.2-4.3s0-2.7,0-4c0-1,1.6-5.4.8-7.7Z" fill="#fff" stroke="#000" stroke-width="0.4"/><path id="path1516" d="M465,218.4a208.19,208.19,0,0,1-31.3,54.8m7.8,4.7a213.21,213.21,0,0,0,44.6-49.3m-27.4,16.8c-1.1,10.6-4.3,29.3-5.8,39.1M463,268.9c-3.9,3.9-9,10.1-13.2,13.6m49.6-34.8c-3.1,3.2-6.6,7-10.2,7.9m12.2-7a27.39,27.39,0,0,0,10.5,7.4m-12.5-24.3a33.18,33.18,0,0,1-11.7,6.7M501,232c2.3,2.3,5,5,8.6,6.7m-21.1-19.2a27.41,27.41,0,0,0,10.5-5.9m1.2,0a30,30,0,0,0,10.5,6.3m-21.5-13a15.59,15.59,0,0,0,9.4-5.4m1.2-.8c2.7,2.4,7.8,5.5,10.6,5.9m12.5,3.1c-1.6,2-5.9,5.1-8.6,5.1m10.5-5c1.2,1.9,4.3,5,6.3,5m-18.8,23.5a28.1,28.1,0,0,0,11-7.5m2,.4a21.82,21.82,0,0,0,7.3,7m-16,20.4c1.6,0,5.9-2.4,7-5m2.4-1.3a27.25,27.25,0,0,0,7.8,6.7m-73.1,3.5c5-1.6,14.9-7.8,20-13.7m-9.4,7.4c3.9,2.8,9,6,12.5,6.7m-24.3-17.6a31.33,31.33,0,0,0,9.4-5.9m2-.4c1.1,1.6,9.3,6.7,12.9,6.7m-14.9-23a38.26,38.26,0,0,1-9.8,5.4m11.8-5.5c2.7,2,8.6,5.5,12,5.5M469,207c-2.3,2.3-6.2,6.2-9.4,7.4m11.4-7c1.5,2.7,6.2,6.6,9.3,7m31.3,10.2c7.5,12.9,20.7,29,34,37.5m-55-52c10.9,15.6,32,49.7,52.3,62.2m4-13.3a72,72,0,0,1-19.2,18m17.5-13.7c-6.6-11-10.1-24.6-15.6-43m-54.7,48.5,7.8,23.4m-9.4-23.8,7.4,23.4m-9.3-24.6,7,24.2m-7.8-23.8,5.4,23.8m0-.7h6.7m-.8-2.4h-6.2m5.4-2h-6.2m5.4-1.9H474m5-2.3h-5m-.4-2h5m-5.4-1.6h5m-5.4-2h4.7m-5-1.5h4.2m-4.7-2h4m-4.4-1.5h4m-4.3-1.2h3.9m-4-1.5h3.6m-10.2,0-4.7,19.5m5.9-19.5-4,20.3M467,268l-3.2,21.5m4.7-22-2.3,22.8m2.7-1.6h-7.8m7.8-2h-9m9-2.3h-8.2m7.8-2h-7.4m7.8-2h-7.4m7.4-2.3h-6.6m6.6-2h-6.6m6.2-1.9h-5.8m5.8-2h-5m5-1.9h-4.7m4.7-1.2h-4.3m4,21.6V267.6m25.3-7.8L478,291.5m16.8-32-13.3,32.4m14.1-32.8L485,291.9m11.8-32-8.6,32m.4-1.1h-9.8m10.5-3.2H480m9.7-2.3h-7.8m9.4-2.4h-7.8m8.2-2.3h-7.4m8.2-2.4h-7m7.7-2.7H487m6.6-2h-5.8m6.6-2.3h-5.5m6-1.6h-5.2m5.5-1.5h-5.5m5.1-1.6h-3.9m4-1.2h-3.6m3.9-1.5H492m3.9-1.6h-3.1m3-1.2h-2.7m13.3-.4,6.7,22M507.6,261l8.2,21.2m-7-21.2,9.8,20.8m2.3-2-11-19.2m11,19.6h-7.8m7-3.1h-7.8m6.7-2.4h-7.5m5.9-2.7h-6.7m5.1-2.4H510m4.3-2.7h-5.1m3.9-2.7h-4.7m3.1-2.4h-3.9m12.5.4-7,20.3m9-21-6.3,20.7m2.8-.4,4.7-19.6m1.1.8-3.9,18.4m-6.6-1.2h6.6m-5.8-2.3h6.6m-5.9-2.8h6.3m-5-2.3h5.8m-5.1-2.8h5.5m-4.7-2.3h5m-3.9-2.8H524m-3.9-2.3h4m3.5.4,3,14m-1.9-14.8,4.3,14.5m-2.7-14.5,4.7,14.5M532.2,263l5.1,13.7m-.4-1.2h-6.6m5.9-2h-6.3m5.5-1.9h-5.9m5-2.4h-5.8m4.7-2H528m4.7-1.9h-5m4.3-2h-4.7" fill="none" stroke="#000" stroke-width="0.4"/><path id="path1518" d="M467.6,299.2c3.1-2,8.5-1.7,11.3.4,3.3-1.8,9.2-1.3,11.9,1.2,4.2-3,7.7-3.4,11.7-.6a10.5,10.5,0,0,1,11.9.2c3.7-1.7,7.7-3.1,11.2.6a9.31,9.31,0,0,0-11.3.7c-3.5-3.5-9.7-2.2-11.8.3a7.7,7.7,0,0,0-10.88-.44,6.25,6.25,0,0,0-.62.64c-3.7-3-9.1-3.2-12-1a13,13,0,0,0-11.4-2Z" fill="#00b800"/><path id="path1520" d="M523.1,294.8c-16.1,2.8-51.4,1-59-1.1-2.7-.6-2-1.6.3-1,8.9,2,27.9,2,38.3,1.4l6.2-8.5c1-1.3,1.4-1.4,3.5-1.7l8.7-1.5v1.2a1.58,1.58,0,0,1-.7.7,53.83,53.83,0,0,0,.9,9l1.1-.3C523.1,292.8,523.8,294.7,523.1,294.8Z" fill="#cf6200"/><path id="path1522" d="M549.6,295.6h2.2a2.17,2.17,0,0,0,1.9-1.5l2.2-6.3-1.7-2.5.9-5.3,2-.9a2.53,2.53,0,0,0-.4-2l-31.6,1c-1,0-1.4,0-1.7,1.3a23.52,23.52,0,0,0,8,23.2c.5.4,1.2,0,.3-.7a25.72,25.72,0,0,1-4.3-5.7h5.2a56.41,56.41,0,0,0,2,5.9c.2.7.8.7.4-.3-.6-2-1-4.5-1.3-5.7H539l.4,5.2c0,.7.6.7.6-.1V296l4.8-.2-.4,5.2c-.1.9.3,1.2.5,0l.7-5.2,3.3-.2a24.58,24.58,0,0,1-1.4,5.2c-.3,1,.2,1,.5.1a30.35,30.35,0,0,0,1.6-5.2Z" fill="#cf6200"/><path id="path1524" d="M526.5,294.8c-.5-1.1-2.3-5.1-2.4-8h7a60.75,60.75,0,0,0,1.2,7.9Zm5.8-8.2a73.79,73.79,0,0,0,1.2,8h5.6l-.4-8.1Zm-7.9-7a32.53,32.53,0,0,0-.2,6l6.7-.3-.6-5.9Zm7.3-.2.4,6,6.6-.2-.3-6Zm8-.3.2,6,5.7-.1c0-1.3.3-5.2.2-6.1Zm7.2-.2-.2,6,6.2-.2a41.41,41.41,0,0,0,.9-6Zm6.3,7.2-6.6.2-.6,8,6.3-.2a53.75,53.75,0,0,0,2.3-6A11.51,11.51,0,0,0,553.2,286.1Zm-13.3.4.2,8,4.8-.2.6-8Zm-27-1.6-2.6.4q-3,4.49-6.3,8.8l9.3-.2-.3-9Zm1.2-.3.4,9.2,5.6-.4-1-9.6Z"/><path id="path1526" d="M486.9,263H456.8v-.8l30,.4Zm23.5-24.2h0l-23.5-.4h23.5Zm-25,6.6a.2.2,0,1,1,0,.4H458.7c-.3,0,0-.4,0-.4Zm.7-17.2c.4,0,.4.4,0,.4H458.4c-.4,0-.4-.4,0-.4Zm-2-13.7c.4,0,.4.4,0,.4h-27c-.3,0,0-.8,0-.8l27.4.4Z" stroke="#000" stroke-width="0.4"/><path id="path1528" d="M512.3,206.7l-23.5.4Z" fill="#fff" stroke="#000" stroke-width="0.4"/><path id="path1530" d="M513.5,220Zm25.4,18v.4h.1Zm0-23.1c.8,0,.8.4,0,.4H511c-.4,0-.4-.4,0-.4h27.9ZM513,255.6c.4,0,.4.4,0,.4H488v-.4Zm24.2,3.5Z" stroke="#000" stroke-width="0.4"/><path id="path1532" d="M557.3,263a11.62,11.62,0,0,0,0-5.5,4.26,4.26,0,0,1-2.4,0,10.88,10.88,0,0,0-1.2-.8,25,25,0,0,1-1.5,7.5c-1.2,0-4,0-5.1-.8l-1.2,3.9a13.65,13.65,0,0,0,5.9,0,9.52,9.52,0,0,1-1.6,5.9c2,0,4,0,4.3-1.2,1.2-1.6,1.2-4,1.6-5.1l2-.4,1.9-.8,2.7-.4V263l.8-1.6-6.2,2Z" fill="#ef072d" stroke="#000" stroke-width="0.4"/><path id="path1534" d="M460.3,130.8c-3.1,0-10.2,0-11.7.8-1.2.8-1.6,1.2.8,1.6a48.08,48.08,0,0,1,9,3.1,8.86,8.86,0,0,1,3.9,7.8A23.5,23.5,0,0,0,474,168.8c.4.4.8.7.4,2.3l-1.2,4.3c0,.8-.4,1.6.8,1.2q-1.86,3.19-4,6.2c-6.2-.7-11.6,0-11.6,7,0,.9,0,1.6.7,0a9.45,9.45,0,0,1,5.1-3.8c-1.5,2.7-2.3,5-2,6.6,0,1.2.8,2,1.6,0,.4-1.6,2-3.1,3.2-4.3.7-.4.7-.4.3.8a5.91,5.91,0,0,0,1.2,4.3c.8.8,1.2.4.8-.8,0-1.6,0-4.3,2-5,2.3-1.6,4.6-.9,5.4.7,1.2,2,2,0,.8-1.6s-2.3-3.5-3.9-3.5l4-6.6c0-.8.7-1.2,1.5-.8,0,.4.8.4,1.1-.8l2.8-5.5,2.3-.7,4,5.8V177c0,1.5-1.6,5-2,6.2-4.7,0-7,0-8.6,2.8-.8,1.1.4,1.5,1.5,1.1a7.82,7.82,0,0,1,4-1.1c.7,0,1.1.7,0,1.1-2.8,1.2-4.7,3.2-4.7,5.9,0,.8.7,1.2,1.1,0a9,9,0,0,1,5.1-4c0,2,.4,5.2,2,6,1.1.7,1.1,0,.8-1.2a4.8,4.8,0,0,1,1.1-5.1c2-2.3,6.7.8,7.9,1.6.7.7,1.5,1.1.7-1.2-.4-2.7-4.3-4-7.8-4.7l4.7-16.4c2,1.2,4-2,7-.8a84,84,0,0,1,14.9,8.6c1.6,1.2,2,.8,2.7,0,.8-.4,2,0,3.2,0,.7.4,1.5.8.4-1.6a28.11,28.11,0,0,0-9.4-10.1c3.1,0,7,0,7-.8s-4.7-2.4-6.6-2.4a13,13,0,0,0,6.2-3c.8-.9,0-1.3-3.1-1.3-8.2,0-12.5,0-16.8-2.3-7-4-11.4-8.6-14.9-10.2-1.5-1.1-2.7-3.5-3.9-5.4-2-6-2-9-7-11s-11.8.4-14.5,3.1Z" stroke="#000" stroke-width="0.4"/><path id="path1536" d="M460.7,132.4h-6.6l5.8,1.6c1.2,0,.8,1.1,0,.7s-1.5,0-.8.8c4,2.8,4.7,4,4,14.5l1.9,1.6c.8,0,.4.7,0,.3s-2,0-.8.8,2,.8.8.8-2.3.8,0,.4c2,0,3.1.8,0,1.2-2.3,0-1.6.8,0,.8,2.7,0,2,.7,1.2.7s-1.2.8.8.8h2.7c.4,0,.8,0,0,.4-.8,0-.8.8.4.8s2,0,.8.4c-.4,0-1.2.4,0,.8,2.7,0,3,.7,2.3,1.1s-1.2.4,0,.4,2.4.4,1.2.8c-.8,0-1.2.8,0,.8s2,.8,1.2,1.2-1.2.8,0,.8,1.5.3.7.7c-.7.8-1.1.8-2,0,0-.7-.7-.7-.7,0l-.8-1.1c-.4-1.2-1.2-1.2-1.2,0s-.7.4-1.5,0a12.9,12.9,0,0,0,15.6,3c.4,0,.8,0,1.2,1.3l2.3,4.3c.4.7,1.2,0,1.2-.8l2.4-6.7c0-1.1,1.5-2,1.1,1.2,1.2-.8,5.9-1.2,9.8,0a47.84,47.84,0,0,1,10.6,5.9,2.28,2.28,0,0,0,2,.4c1,0,1.5,0-.5-2s-1.1-2.7,0-2,2,.4.8-.7l-3.9-3.5c-.4,0-.4-.8-2.3-.8h-6c-.7,0-1.5,0,.9.8s6.6,3.9,7.8,4.6,1.6,2.4-.4.8a102,102,0,0,0-14-7.8c-10.6,1.2-19.2,2.4-25.5-4.3-3.1-3.5-3.1-11,2-14-.8-.9-.8-1.6-.4-1.6v-2.4a2.66,2.66,0,0,1-1.6-2c-1.2,0-2-1.9-3.9-1.1s-2.3,0-3.1-.4c-.4-.8-.8-.8-2-.8s-2,0-2-.8.8-.7,2.4,0c2.7,1.2,5,2,7-.7,1.6-2.4-.7-4.3-3.9-5.1-3.5-.8-5.8,2-7.4,3.1Z" fill="#fff" stroke="#000" stroke-width="0.4"/><path id="path1538" d="M477.9,131.2a11.12,11.12,0,0,0-4-2.3c-1,0-1,.8-.7,1.2v2.3c.8.4,1.2,1.2,0,1.2-.8.8,0,3.5,1.2,2.7h.8s0,1.2.7,1.2,0,.8,0,1.2h.8c.8,0,.4,1.5-.4,2,1.2,0,1.6,0,1.6.7.4.8,1.6,1.2,1.6,2.3s0,1.2-1.6.8-1.6,0-2,.8-.7,1.2,0,1.2,1.6.4.4.8-2.3,0-2.7,1.1c0,1.2,0,1.6.8,1.2l2.7-1.6,2,.4c.8.4,0,2-.8,1.2s-1.6,0-2,.4l-2,.8c-.7,0-1.5,0-1,2,0,5.4,4.2,9.3,12,9.3h13c-2.4-1.6-4-2.3-5.2-2.3H492a.77.77,0,0,0-.4-1.2c-.4,0-1.2-.8-2,0l-3.9,2c-.8,0-2,0-.8-.8l3.6-1.6c.7,0,.3-.8.3-.8a.82.82,0,0,1,1.2-.8c2.4,1.6,5.9,3.6,7,3.6s1.6-.8.8-1.2a2.24,2.24,0,0,1-1.1-1.6c0-.4.4-.8,2,0a17.33,17.33,0,0,0,5,2.4c1.2.4,2,.4,0-.8l-9-6.7c-1.2-1.1-1.2,0-.8.8s-1.1,1.2-2,.4c-.7-.8-1.1-1.2,0-1.6s.9-.7-.3-2c-1.6-1-2-1-1.6,0,.4,1.3.4,2-.8,1.7s-2.3-1.2-1.1-1.6c.7-.8,2-1.2,0-2.4s-.8,0-1.2.8a1.13,1.13,0,0,1-2,0c-.4-.8-1.1-1.1-.7-1.5s.3-.8,1.1,0,1.6,0,.4-1.2-1.5-.8-1.2,0-.7,1.6-2.3,0a.83.83,0,0,1,0-1.6c.8,0,.8-.4,0-1.1-2.7-4.7-1.6-8.3-4.7-11.8Z" fill="#fff" stroke="#000" stroke-width="0.4"/><path id="path1540" d="M478,132c-.2.4-.3.3-.8.7s-.7,1.5.3,1.4a2.09,2.09,0,0,0,1.4-.8,9.07,9.07,0,0,0-.8-1.3Zm-3-2.6c-.9.8-1,1.2-.6,1.2s.3,0,0,.6.6.8,1,.3.5-.5.7,0,1,0,1.3-.3a14.37,14.37,0,0,0-2.5-1.8Zm-1.5,4.4c-1,.5-.7,3.2.9,2.4.5-.2.9,0,.9.3v.7A4.74,4.74,0,0,0,477,136c.9-1.2,0-1-1.4-1s-1.7-.3-.4-1.1.3-1.2-1.3-1c.2.3.1.6-.4.9Zm5.9,6c-.8-.9-.3-1.2.5-1.7a1,1,0,0,0,.4-.3l-.7-2.6a5.6,5.6,0,0,0-1,1.5c-.2.7-.4,1.1-1,1-.7-.3-1.3.4-1.4,1.1h.5c.2.1.3.6.2,1a2.29,2.29,0,0,1,2.5,2c.4,1,.7.9,1,.3S480.1,140.6,479.4,139.8Z" fill="#cf6200"/><path id="path1542" d="M479.9,150.4c-.4.8-.4.7-1.5.7a5.6,5.6,0,0,0-3,.9c-.3.3-2.2.5-2.2,1.3s0,1.5.8,1.6,1,.2.7.8-.6,1.5.8,1.7c1.4,0,2.5-.3,2.8.4.4,1,0,2.1.3,2.7s1.2.7,2.7,1.2a29.44,29.44,0,0,0,6,.3c1-.2.6-.8-.5-.8-1.2-.2-2-.4-2.3-1.2s-.5-1.3.2-2,1.2-1.3.8-2.5a4,4,0,0,0-2.3-2.9c-1.3-.4-.9-2.3-2.3-2.4C480.4,150.2,480.1,150.2,479.9,150.4Z" fill="#ff0"/><path id="path1544" d="M473.3,161.4c1.2.2,2.1.5,1.2.8s-1.5.8-.3.9,2.3.6,1.3.8-1,1,.1,1,1.7.4.9,1c-.9.4-1.4.7-2-.1s-.8-1-.9-.5-.5.2-.9-.7-1.2-1.2-1-.5-.6.9-1.5.5a10.92,10.92,0,0,0,2.9,2.4,7.28,7.28,0,0,1,3,0,8.31,8.31,0,0,1,3,.9c.9.4,1.5-.4,1.1-1.3s-.4-.7-.8,0c-.6.4-.6-.3-.6-1.4,0-.8-.6-.7-.7-.1s-.7-.4-.5-.9,0-.8-.4-.6-.5,0-.6-1-.5-1-.6-.5-.6-.2-1.3-1c-.5-.6-1-.2-2.1.1Z" fill="#cf6200"/><path id="path1546" d="M485.6,167.8c-5.5,2.2-9.5,1.2-12.5-.8a10.23,10.23,0,0,1,6,.9c.8.4,1.5-.4,1.1-1.3.7,1,1.3,1.6,2.2,1.5l3.2-.3ZM473.8,142c-.4-1.2-.7-1.4-1.3-1.3a3.43,3.43,0,0,1-1.6-.4c-.6-.3-1.5,0-1.6,1.3s-1,1.8-2,2.6a2.79,2.79,0,0,0-1.5,2.6c0,1.2-.3,1.4-1,2.4l-1.1,1.3,1.2.7c.8.4.5.9-.2.7s-1.5.2-.2.4,1.7,1,.6,1c-1.3-.3-2.6.8-.3.5s3.1.9.5.9-1.7.9-.2.9c2.5,0,1.7.7,1,.7s-.9,1,.8.7l.6-1c.3-.8.5-3.1,1.5-3.8a3.24,3.24,0,0,0,1.4-2.3,12.47,12.47,0,0,1,2.3-4.4,3.15,3.15,0,0,0,1-3.4Z" fill="#ff0"/><path id="path1548" d="M471.8,142.2c-.9-.7-1.9-.2-1.9,1,0,1-.6,1.5-1.4,2a3.51,3.51,0,0,0-1.8,2.3c0,1,.2,1.5-.4,2.3s-.8,1.3-.4,1.8c.6.4.6.4.7,1,.3.6,1.4,0,1.4-.7s.3-.7,1-1.1,2-2.4,1.7-2.9-1-1,0-1.7,1.8-1,1.8-1.6a1.45,1.45,0,0,1,.5-1.3c.3-.3-.6-.7-1.2-1Z" fill="#cf6200"/><path id="path1550" d="M471.8,141.2c-.6-.2-1,1.1-.1,1.3s1-.9,0-1.2Zm-.1,1.7c-.7.1-1.5,1-.4,1,1.2-.2,1.6-1,.3-1Zm-1.4,1.7c-.7.3-.5,1.3.5.6S472,143.7,470.3,144.6Zm-1,1.4c-.7.3-.7,1.3.4.6S471,145.1,469.3,146Z"/><path id="path1552" d="M467.9,146.7c-.7.3-.3,1.2.7.6S469.6,145.8,467.9,146.7Zm.8.9c-.8.3-.3,1.2.7.6s1-1.5-.8-.6Z"/><path id="path1554" d="M467.4,147.9c-.6.4-.2,1.2.9.6S469.2,147,467.4,147.9Zm.9,1c-.8.3-.4,1.2.7.6s1-1.5-.8-.6Z"/><path id="path1556" d="M467,149.5c-.6.3-.2,1.2.9.6s.8-1.5-.8-.6Z"/><path id="path1558" d="M467,150.3c-.5.4-.1,1.4,1,.7S468.8,149.5,467,150.3Z"/><path id="path1560" d="M466.6,158.9c-.7,0-1.2,1.1-.3,1.3s1.1.3,1.1.9.3,1.7,1.2,1.7,1.8-1,1-1.3-1.6-.6-1.7-1.4a1.38,1.38,0,0,0-1.3-1.2Z" fill="#cf6200"/><path id="path1562" d="M491.5,153l.5.6c.7.5,2,0,1.7-.5-.1-.4-.8-2,1-.8l9.2,6.5c1.9,1.4.6,1.6-.2,1.1l-5-2.3c-1.5-.9-1.7-.5-2-.3a1.66,1.66,0,0,0,.6,1.4c-.9.1-2.3,0-2.8-1a17.78,17.78,0,0,0-2.6-3.7q-.45-.6-.3-.9Z" fill="#ff0"/><path id="path1564" d="M542,319.5c-1.3.9-3,2.4-1.9,4.5l.4-.1a123.58,123.58,0,0,0,12.9-19v-.6a17.76,17.76,0,0,1-4.5,2.7c.6,1.7-2.3,3.8-3.7,4.4a1.88,1.88,0,0,1-1,2.9c.3.8-.7.8-2,1.4-1.1.5-1.7.8-2.1,1.5a2.72,2.72,0,0,1,2-.5c.4.2.6.9-.3,1.1a7.2,7.2,0,0,0-1.8,1c1.3-.3,3.2-.2,2,.7Z" fill="#00d860"/><path id="path1566" d="M481.8,151.2c-1.6-1.2-2-.4-1.6,0s0,1.5-1.1,2h-4c-.7,0-1.9,1.5,0,1l6.3-1c.8,0,1.6-.9,0-2Zm2.7,2.3c-1.1-1.2-1.5-.8-1.1,0s-.4,1.2-1.2,1.2l-5.5,1.5c-1.5,0-1.5,1.2.4,1.2s5.9-2,6.3-2,.8-1.1,1.1-.7,1.2,0,0-1.2Zm1.2,3.1-3.9,2c-1.2,0-2,1.2,0,1.2s4-2,4.7-2.4l1.6-.8s1.5-.4,0-1.5-3.2,0-2.4.4,0,1.1,0,1.1Z" stroke="#000" stroke-width="0.4"/><path id="path1568" d="M469.7,131.2a2.2,2.2,0,1,0-2.5,3.6c2.4,1.7,5-2,2.6-3.6Z"/><path id="path1570" d="M466.6,132.7h.7c0,.8.7,2,1.8,1.7C468.2,135.1,466.5,134.2,466.6,132.7Zm9.6,37a20.43,20.43,0,0,0,4.4.5l-1.2,2.2c-.3.7-.4.8-.5-.3s-.6-1.7-1.1-.6l-1,2c-.3.4-.7.5-.6-.6a11.41,11.41,0,0,0,0-3.2Z" fill="#fff"/><path id="path1572" d="M574.5,199.7c0,63.7-10.2,132.5-93,165.3-82.6-32.8-92.7-101.6-93.1-165.3Zm0,0c0-24.3-1.2-47.8-.8-68a248.79,248.79,0,0,0-92.3-16.9c-20.7,0-61.4,3.1-92.2,16.8.7,20.3-.8,43.8-.8,68Z" fill="none" stroke="#000" stroke-width="1.2"/><path id="path2010" d="M0,0H320V240H0Z" fill="#012169"/><path id="path2012" d="M37.5,0l122,90.5L281,0h39V31L200,120.5l120,89V240H280L160,150.5,40.5,240H0V210l119.5-89L0,32V0Z" fill="#fff"/><path id="path2014" d="M212,140.5,320,220v20L184.5,140.5Zm-92,10,3,17.5L27,240H0ZM320,0V1.5l-124.5,94,1-22L295,0ZM0,0,119.5,88h-30L0,21Z" fill="#c8102e"/><path id="path2016" d="M120.5,0V240h80V0ZM0,80v80H320V80Z" fill="#fff"/><path id="path2018" d="M0,96.5v48H320v-48ZM136.5,0V240h48V0Z" fill="#c8102e"/></svg>