<svg id="flag-icons-sx" xmlns="http://www.w3.org/2000/svg" xmlns:xlink="http://www.w3.org/1999/xlink" viewBox="0 0 720 480"><defs><clipPath id="clip-path"><rect width="640.03" height="480" fill="none"/></clipPath></defs><title>sx</title><g clip-path="url(#clip-path)"><path d="M0,0H720V240H320Z" fill="#ed2939" fill-rule="evenodd"/><path d="M0,480H720V240H320Z" fill="#002395" fill-rule="evenodd"/><path d="M0,0,320,240,0,480Z" fill="#fff" fill-rule="evenodd"/><path d="M161.53,181.12l.1-3.75a6.18,6.18,0,0,1,.37-6.56s-5-2.62-3.75-6.75a5.75,5.75,0,0,1-4.22-6s-4.69-.28-5.25-4.4c0,0-4.78.75-6.94-3.19,0,0-4.68.94-6-2.34,0,0-4.59,1.5-7.21-2.35,0,0-4.88,2-6.85-1.69-2,3.66-6.84,1.69-6.84,1.69-2.63,3.85-7.22,2.25-7.22,2.25-1.31,3.28-5.91,2.35-5.91,2.35-2.15,4-6.93,3.18-6.93,3.18-.47,4.13-5.25,4.5-5.25,4.5a5.64,5.64,0,0,1-4.13,6c1.22,4-3.75,6.66-3.75,6.66a6,6,0,0,1,.47,6.56l-.09,3.47,79.4.37" fill="#ff0"/><path d="M161.65,181.1v-3.76a6,6,0,0,1,.43-6.44s-5-2.69-3.77-6.77a5.67,5.67,0,0,1-4.19-6s-4.83-.32-5.37-4.41c0,0-4.73.76-6.77-3.22,0,0-4.73.86-6-2.36,0,0-4.62,1.61-7.31-2.26,0,0-4.84,1.93-6.77-1.72-2,3.65-6.88,1.72-6.88,1.72-2.58,3.76-7.2,2.15-7.2,2.15-1.29,3.33-5.91,2.47-5.91,2.47-2.15,4-7,3.22-7,3.22-.43,4-5.26,4.3-5.26,4.3a5.49,5.49,0,0,1-4,6c1.08,4.08-3.76,6.66-3.76,6.66a6.24,6.24,0,0,1,.32,6.66v3.44l79.43.32Z" fill="none" stroke="#000" stroke-width="0.3"/><path d="M159.66,176.44c-12.47-1.22-26.82-4.22-37.88,2.06-7.5-4.41-17.81-4.12-26.62-3.28-4.79.94-10.41.94-15.47,1.69l-.75.09c-9.1.66-17.35-2.06-25.32-5.62,2.63,14.25,5.35,28.78,6.75,43.68,3,22.13-10.4,40.6-5.06,62.44,3.28,10.5,14.82,16.59,25.32,17.81a200.73,200.73,0,0,1,30.18,4.22,30.25,30.25,0,0,1,5.16,1.78,18.7,18.7,0,0,1,6.19,4.41c5.62-5.91,14.06-7.59,22.22-8.44,14.81-1.78,33.09-.84,42.18-14.25v-.75c5-7.5,4.32-18.75,2.16-27.19a82,82,0,0,0-1.41-8.34c-9-23.91-1.22-50.81,2.63-75a57.25,57.25,0,0,1-15.38,5.16,68.47,68.47,0,0,1-13.12.09l-1.88-.47" fill="red"/><path d="M178.31,245.16c0,1.5.85,2.81,1.13,4.22,1.78,10.5,3.37,24.37-7.32,30.84-12,7.5-27.56,4.31-41.34,8.34a24,24,0,0,0-8.44,5.06,35.73,35.73,0,0,0-4.12-2.81c-11.34-6-26.16-4-38.91-7.31-6.47-2-13.12-7-14.81-13.59-4.13-17.25,5.81-32,4.69-49.13a208.62,208.62,0,0,0-6-37.87c10,4.68,21.56,5.43,32.81,3.18a48.38,48.38,0,0,1,25.88,2.35,47.76,47.76,0,0,1,14.06-3.19c8.72.94,18.18,2.44,27.28,2.44a48.23,48.23,0,0,0,16.87-4.41c-3.09,20.25-9.18,41.44-1.78,61.88" fill="#80cfe1"/><path d="M160.31,249.19V230.06h2.25L133.5,211.31l-.09-9.84h2.81l-14.63-10.31-14.43,10.31H110v9.84L81,230.06h2.34v19h77" fill="#fff"/><path d="M160.36,249.22V230.1h2.25l-29-18.8-.1-9.67h2.79L121.66,191.1l-14.5,10.42H110l.11,9.78L81,230.1H83.4v19h77Z" fill="none" stroke="#000" stroke-width="1.2"/><path d="M169.31,274.22v5.9H75.47v-6h93.75" fill="#fff"/><path d="M169.38,274.26v5.91H75.45v-6h93.93Z" fill="none" stroke="#000" stroke-width="1.2"/><path d="M81.66,273.84V253.69h3.75L85.22,274l.19-20.25L80,253.69v-4.41l83.81.19v4.22h-5.06v20.43l-.1-20.43h3.75l.19,20.25" fill="#fff"/><path d="M81.68,273.83v-20.2h3.77l-.22,20.42.22-20.2-5.38-.22v-4.3l83.83.11v4.3h-5.16l.11,20.41-.21-20.41h3.87l.1,20.2" fill="none" stroke="#000" stroke-width="1.2"/><path d="M99.74,268.89V254.81H88.35v14l11.28.11" fill="none" stroke="#000" stroke-width="1.2"/><path d="M91.57,257.71v8.17h5.16v-8.17H91.46m63.41,11.18-.1-14H143.59v14h11.28" fill="none" stroke="#000" stroke-width="1.2"/><path d="M146.6,257.82V266h5.16v-8.17H146.6M154.77,246V232H143.48v14Z" fill="none" stroke="#000" stroke-width="1.2"/><path d="M146.49,234.93v8.17h5.16v-8.17h-5.16M99.63,246V231.93H88.35v14H99.63Z" fill="none" stroke="#000" stroke-width="1.2"/><path d="M91.46,234.83V243h5.16v-8.16H91.46M120.05,246V231.93H108.77v14h11.28" fill="none" stroke="#000" stroke-width="1.2"/><path d="M111.78,234.83V243h5.16v-8.16h-5.16m24,11.17V232l-11.28-.1v14l11.28.11" fill="none" stroke="#000" stroke-width="1.2"/><path d="M127.47,234.83V243h5.26v-8.16h-5.26" fill="none" stroke="#000" stroke-width="1.2"/><path d="M138.47,241.69l.19,32.43H105.94l-.1-32.43h32.54" fill="#fff"/><path d="M138.54,241.7l.11,32.45H106.08L106,241.7Zm-32.78,9.24h32.89m-28.81,23.21v-23m24.83,23V251.27m15.8-23.43L132.2,214.52H111.45L93.18,227.84h57.29m-37.4-24.5v8.17h17.41v-8.17H113.07" fill="none" stroke="#000" stroke-width="1.2"/><path d="M117.8,205.39v4.08h8v-4.08h-8m3.86-11.5,9.68,6.88H112.1l9.67-6.88" fill="none" stroke="#000" stroke-width="1.2"/><path d="M160.69,189.38c2.72,0,3.37,11.25,3.37,16.87a27,27,0,0,1,9.94,6.94H147.56a25.22,25.22,0,0,1,9.75-6.85c0-5.62.57-17.06,3.38-16.87" fill="#fff"/><path d="M160.68,189.38c2.79,0,3.44,11.28,3.44,17a25.63,25.63,0,0,1,9.89,6.88H147.57a26,26,0,0,1,9.78-6.88c0-5.69.64-17,3.33-17m-53.2,53.18h2.36l-.64,1.29a3,3,0,0,1,0,3.23l.64,1.07h-2.36l.64-1.07s-1.07-1.94,0-3.23l-.64-1.29m4.83,0h2.37l-.65,1.29a3,3,0,0,1,0,3.23l.65,1.07h-2.37l.65-1.07s-1.08-1.94,0-3.23l-.65-1.29m5.38,0H120l-.65,1.29a3,3,0,0,1,0,3.23l.65,1.07h-2.26l.54-1.07s-1.08-1.94,0-3.23l-.65-1.29Zm5.91,0H126l-.75,1.4a2.58,2.58,0,0,1,0,3.12l.65,1.07H123.6l.64-1.07s-1.07-1.94,0-3.23l-.64-1.18Zm5.27,0h2.36l-.75,1.4a2.58,2.58,0,0,1,0,3.12l.64,1.07H129l.54-1.07s-1.07-1.94,0-3.23l-.64-1.18m5.26,0h2.37l-.76,1.29a2.57,2.57,0,0,1,0,3.12l.65,1.07h-2.15l.54-1.07s-1.08-1.94,0-3.23l-.65-1.18" fill="none" stroke="#000" stroke-width="1.2"/><path d="M122.34,315.75c12.19,0,27.19-2.53,34.22-6.09L172,308.25l.38,18.84c-13.13,7.22-43.32,8.82-50,8.72s-37.22-1.5-50.44-8.72l.19-18.93,15.47,1.4a92,92,0,0,0,34.68,6.19" fill="#ff0"/><path d="M122.42,315.73c12.25,0,27.19-2.47,34.28-6.12l15.37-1.29.32,18.8c-13,7.2-43.31,8.81-49.87,8.71S85.23,334.32,72,327l.22-18.81,15.47,1.4c7.1,3.65,22.57,6.12,34.72,6.12" fill="none" stroke="#000" stroke-width="0.3"/><path d="M32.25,235.31l13.59,4.32-4.12,22-12.85,2.06s-2.15-11.63,3.38-28.41" fill="#ff0"/><path d="M32.35,235.36l13.55,4.3-4.09,22-12.9,2s-2.15-11.6,3.44-28.37Z" fill="none" stroke="#000" stroke-width="0.3"/><path d="M41.72,261.47l-12.85,2.25L37,252.09l4.69,9.38" fill="#7e7e7e"/><path d="M41.81,261.47l-12.9,2.15,8.17-11.49,4.73,9.34" fill="none" stroke="#000" stroke-width="0.3"/><path d="M24.09,251.25l13.13.94c.28,11.06,1.69,53.44,52.31,55.78l-1.59,15.47c-61.6.56-66.28-52-63.75-72.19" fill="#ff0"/><path d="M24.19,251.27l13.11.86c.32,11.17,1.61,53.5,52.34,55.87L88,323.47c-61.7.65-66.32-52-63.84-72.2Zm48.14,75.32,15.48-3.33" fill="none" stroke="#000" stroke-width="0.3"/><path d="M211.31,235.5l-13.5,4.31,4.32,21.94,12.93,2.06s2.07-11.53-3.75-28.31" fill="#ff0"/><path d="M211.41,235.47l-13.55,4.3,4.3,22,12.9,2.14S217.21,252.34,211.41,235.47Z" fill="none" stroke="#000" stroke-width="0.3"/><path d="M202.13,261.56,215,263.91l-8.25-11.63L202,261.56" fill="#7e7e7e"/><path d="M202.16,261.58l12.9,2.26-8.27-11.5-4.63,9.24" fill="none" stroke="#000" stroke-width="0.3"/><path d="M219.66,251.34l-13.13.94c-.19,11.06-1.22,53.44-51.84,55.78l1.87,15.38c61.6.75,65.81-51.94,63.19-72.1" fill="#ff0"/><path d="M219.68,251.37l-13.11.86c-.21,11.18-1.07,53.62-51.8,55.88l1.72,15.36c61.69.75,65.88-51.9,63.19-72Zm-47.5,75.22-15.48-3.23" fill="none" stroke="#000" stroke-width="0.3"/><path d="M114.19,325a2.38,2.38,0,0,1-1.41.19l-2.44-.09.19-3.1,2.44.19a1.75,1.75,0,0,1,1.12.28c.47.19.66.66.66,1.31a1.44,1.44,0,0,1-.66,1.22m-4,4.69.19-3.66,2.81.19a2.63,2.63,0,0,0,2.16-.66,2,2,0,0,0,.75-1.68,2.37,2.37,0,0,0-.56-1.88,3,3,0,0,0-1.88-.84l-4.12-.28-.57,8.81h1.22m8.82-7.22h3l1,.19a1.31,1.31,0,0,1,.65,1.31,1.33,1.33,0,0,1-.47,1.22,2.47,2.47,0,0,1-1.31.28h-2.9v-3m0,7.69v-3.75l2.81.09c.47,0,.94,0,1.12.19a1.19,1.19,0,0,1,.66,1.12V330l.19.28h1.5v-.19a.73.73,0,0,1-.38-.46,3.2,3.2,0,0,1-.09-.75v-1.22a1.58,1.58,0,0,0-.38-1.13,1.6,1.6,0,0,0-.75-.56,2.58,2.58,0,0,0,.94-.75,2.7,2.7,0,0,0,.38-1.31,2.16,2.16,0,0,0-1.32-2.07,4.41,4.41,0,0,0-1.68-.37h-4.22v8.81h1.22m9.37-1.87a4.29,4.29,0,0,1-.94-2.44,4.18,4.18,0,0,1,.75-2.81,2.91,2.91,0,0,1,2.25-.94,2.78,2.78,0,0,1,2.25.75,3.42,3.42,0,0,1,1,2.44A4.6,4.6,0,0,1,133,328a2.58,2.58,0,0,1-2.34,1.22,3.21,3.21,0,0,1-2.53-.84m-1.41-5.54A5.71,5.71,0,0,0,126,326a4.53,4.53,0,0,0,1.31,3.19,4.32,4.32,0,0,0,3.38,1.21,4.1,4.1,0,0,0,3.28-1.68,5.7,5.7,0,0,0,.94-3.38,4.68,4.68,0,0,0-1.13-2.9,4.32,4.32,0,0,0-3.65-1.32,3.88,3.88,0,0,0-3.38,1.78M168,310.22a6.08,6.08,0,0,1,2.34.09,3.63,3.63,0,0,1,2.07,2.16l-1.22.19a2.25,2.25,0,0,0-1.13-1.22,3.23,3.23,0,0,0-1.87-.19,2.81,2.81,0,0,0-1.88,1.22,3.77,3.77,0,0,0-.47,2.81,4.25,4.25,0,0,0,1.13,2.44,3.13,3.13,0,0,0,4.31-.38,2.43,2.43,0,0,0,.47-2.34l-2.81.47-.1-.94,3.94-.66.75,4.69h-.84l-.47-.94-.94.94a3.85,3.85,0,0,1-1.87.85,4,4,0,0,1-3-.66,4.66,4.66,0,0,1-1.78-3.19,4.78,4.78,0,0,1,.65-3.75,3.84,3.84,0,0,1,2.81-1.59m8.82-.66,2.81-1a2.16,2.16,0,0,1,1-.19,1.2,1.2,0,0,1,1.13.94,1.89,1.89,0,0,1,0,1.41,3.15,3.15,0,0,1-1.22.75l-2.63.93-1.12-2.81m2.81,7.22-1.31-3.47,2.62-.94a3,3,0,0,1,1-.28,1.6,1.6,0,0,1,1.13.94l.56,1.31.28.66.19.28,1.41-.56v-.19a.52.52,0,0,1-.57-.37,1.16,1.16,0,0,1-.37-.66l-.47-1.13a2.65,2.65,0,0,0-.66-.93,2.12,2.12,0,0,0-.93-.19l.56-1.13a3.38,3.38,0,0,0-.19-1.31,2,2,0,0,0-1.87-1.5,4.37,4.37,0,0,0-1.79.28L175.41,309l3.18,8.25,1.13-.38m10.31-4.4-5-7.31,5.44-3.57.66.94-4.5,2.81,1.5,2.25,4.22-2.62.56.84-4.22,2.63,1.69,2.53,4.68-3,.57.94L190,312.47m4.41-12.94,1.4-1.59A2.52,2.52,0,0,1,198,297a3.82,3.82,0,0,1,2.44,1.22,4.4,4.4,0,0,1,1.31,1.87,2.72,2.72,0,0,1,0,1.5,3.63,3.63,0,0,1-.66.94l-1.4,1.5-5.25-4.5m7.59,3.38a3.27,3.27,0,0,0,.66-3.75,6.23,6.23,0,0,0-1.6-2,4.86,4.86,0,0,0-2.9-1.32,3.36,3.36,0,0,0-2.91,1.22l-2.44,2.63,6.75,5.9L202,303m5.25-6.84-7.78-4.69.66-.94,7.78,4.59-.66.94m3.1-5.25-8.44-3.37,2.44-5.91,1,.38-2,4.87,2.53.94,1.87-4.41.94.38-1.87,4.5,2.81,1.12,2.16-4.87.93.37-2.43,6m3.75-10.31-8.82-1.88.38-1.4,8.15-2.81-7.21-1.6.28-1,8.81,1.88-.28,1.31-8.16,2.81,7.22,1.59-.28,1.13m-.75-11.25.09-1.13a2.91,2.91,0,0,0,1.32-.18,2.64,2.64,0,0,0,1.12-2,3.6,3.6,0,0,0-.09-1.31c-.19-.66-.57-1.13-1.22-1.13s-.94,0-1.13.28a3.2,3.2,0,0,0-.65,1.41l-.47,1.12a3.66,3.66,0,0,1-.75,1.6,1.6,1.6,0,0,1-1.69.65,2.59,2.59,0,0,1-1.87-.93,2.94,2.94,0,0,1-.66-2.44,3.47,3.47,0,0,1,.94-2.25,2.26,2.26,0,0,1,2.25-.75l-.1,1.12c-.47,0-.93,0-1.12.28a2.12,2.12,0,0,0-.94,1.79,1.91,1.91,0,0,0,.38,1.5,1.14,1.14,0,0,0,.93.56c.47,0,.85,0,1-.38l.66-1.59.38-1.22a4,4,0,0,1,.75-1.31,2.53,2.53,0,0,1,1.87-.66,2.25,2.25,0,0,1,2.06,1.31,4.32,4.32,0,0,1,.47,2.54,3.64,3.64,0,0,1-1.12,2.43,3,3,0,0,1-2.44.66m-183.38-.56.29,1.12a2.14,2.14,0,0,0-1.22.56,2.42,2.42,0,0,0-.47,2.25,3.66,3.66,0,0,0,.37,1.13,1.5,1.5,0,0,0,1.6.84,1.16,1.16,0,0,0,.93-.65l.29-1.5v-1.22a5.4,5.4,0,0,1,.28-1.69,2.27,2.27,0,0,1,1.59-1.12,2.34,2.34,0,0,1,2.06.56A2.86,2.86,0,0,1,37,271a3.8,3.8,0,0,1-.28,2.44,2.39,2.39,0,0,1-2,1.31l-.19-1a2.8,2.8,0,0,0,.94-.56,2.27,2.27,0,0,0,.47-2c-.19-.75-.37-1.22-.75-1.41a1.42,1.42,0,0,0-1.12-.28.93.93,0,0,0-.94.66l-.1,1.68L33,273.09a3.23,3.23,0,0,1-.37,1.5,2.08,2.08,0,0,1-1.6,1.13,2.3,2.3,0,0,1-2.34-.75,4.67,4.67,0,0,1-1.13-2.25A3.62,3.62,0,0,1,28,270a2.83,2.83,0,0,1,2.06-1.22m-.56,11.53,8.72-2.62,2,6.09-1,.38-1.69-5-2.62.75,1.59,4.68-1,.29-1.5-4.69-3,.94,1.69,5.06-.94.28-2.16-6.19m3.85,10.6,8-4.22.94,1.5-5.53,5.72,8-1.32.84,1.41-8,4.22-.56-.94,4.69-2.53.84-.38,1.22-.65-8,1.4-.56-1,5.44-5.81-.28.19-.94.47a8.6,8.6,0,0,1-.84.47l-4.69,2.43-.56-.93m14.81,11.71a2.56,2.56,0,0,1-1.13-.75l-1.68-1.68,2.25-2.07,1.68,1.69a2.91,2.91,0,0,1,.66.94,1.28,1.28,0,0,1-.47,1.41,1.62,1.62,0,0,1-1.31.46m-6.38.75,2.82-2.53,1.87,2a3.12,3.12,0,0,0,2.06.94,2.56,2.56,0,0,0,2.63-2.63,2.62,2.62,0,0,0-.85-1.78l-2.81-2.81-6.56,6,.94.94m7.87,7,4.78-7.5,5.63,3.37-.56.94-4.69-2.81-1.41,2.34,4.22,2.53-.47.94L53,307.69l-1.59,2.53L56.06,313l-.56.94-5.72-3.47M63.84,309l2.91.94.94.47a1.12,1.12,0,0,1,.19,1.4c-.19.56-.38.94-.85,1l-1.4-.09-2.72-.94.93-2.81m-2.43,7.41,1.22-3.57,2.62.85c.47.09.94.28,1,.47a1.46,1.46,0,0,1,.28,1.31l-.47,1.4-.09.66v.28l1.41.47v-.19l-.19-.65.19-.66.37-1.12c.1-.57.19-.94,0-1.13,0-.28-.28-.56-.56-.84a1.79,1.79,0,0,0,1.22-.47,2.23,2.23,0,0,0,.65-1.13,1.85,1.85,0,0,0-.56-2.34,4.71,4.71,0,0,0-1.5-.84l-4-1.22L60.19,316l1.22.38" fill="#009fc5"/><path d="M73.59,164.63c.94-2.54,10.6-9.38,42-6.38,0,0,5.35,3.28,8.44,2.81,1.88-.18-.94.19-3.37-1.78s-2.82-5.9,2.53-5.72,25.59,1.22,26,3.1-10.69,2.53-14.72,2.43-3.75,2,.37,1.88c12.85-.56,26.81-5.06,41.53,5.44,1.78,1.22-4.4,1.4-9.18-.57,0,0-13.13.66-18.75-.28a15.22,15.22,0,0,1-9.94,3.19c.75,1.88-2.06,8.62-19.69,3.47-3,.94-13.59,2.72-12.47-.47-2.81,0-7.69.94-8.44-.66s8.63-3.93,10.32-5.62c0,0-19.88.19-23.63-1.22,0,0-11.72,2.63-11,.37" fill="#bc715f"/><path d="M80,192.37c.37-.56.56-1.68,1.5-1.59,1.87.47,3.28,4.13,5.62,1.78.94-.19,1.22.94,1.88,1.13.47,2,2.16-.47,3.28-.28a16.26,16.26,0,0,1,8.81-.94,6.77,6.77,0,0,1-3.37,5.34c0,1.88,1.87,3.19,1.78,5.16-.28.75,0,1.87-1.13,2.15a9.68,9.68,0,0,1-4-1.21c-.18-.1-.28-.38-.56-.29-.19.66.94,1.32,1.31,2-.75,1.22-1.87.1-2.9.1-.28.75,0,1.59-.75,2.06-1.22,0-1.5-1.41-2.25-2.06-.85.84.56,1.31.75,2-.57,2.62-.47,5.15-3,6.84l-1.78.84c-.47-1.31-.19-3.28-.47-4.68a20.07,20.07,0,0,1-3.28,4.59c-1.88-.56-2.82-2.63-3.19-4.41A5.43,5.43,0,0,1,79.41,205c-.47-.94-2.35-.75-2.63-2.25-2.81-1.87-4.22,3.1-6,.56a8.05,8.05,0,0,1,1.88-7.12c-.47-.94-1.78-.75-2.53-1.31-1.69-1.5-4.22-3-4-5.63a13.13,13.13,0,0,1,13.79,3.1" fill="#008737"/><path d="M82.41,192.09c-.1,2.16,1.4.57,2.62,1.88-.94-.38-1.59,1.59-2.53.47l-.56.56c.37.75.94.84.37,1.69-.93.37-1.22-.94-1.68-1.41,0-.19.18-.56-.19-.75a2.25,2.25,0,0,1-1.88.56c-.18-.37-.65-.93-.18-1.31.75-.94,1.87.38,2.43-.28.1-.66-.47-1.41.28-1.87.47.09,1.13-.19,1.32.46m5.81,1.79c.09.37-.19.93.37,1.31a1.37,1.37,0,0,1,1.88.56c0,.37.09.94-.38,1.13L89,196.59c.09-.18-.28-.28-.38-.56-.46-.09-.84.28-1.12.56.28.38.94.66.75,1.13-.66.65-.94-.56-1.69-.19-.56-.19.1-1.22-.65-1.59-.94,0-.29,1.5-1.5.94-.38-.47-.75-1.13-.38-1.6a1.49,1.49,0,0,1,1.78.19c.75-.84.75-3.85,2.53-1.59M81,197c.47.75-.19,1.69.47,2.44.94-1.88,1.87.37,3,.18.37.47.09,1,.19,1.5-1.41.38-3.1.85-4.32-.28l-.37.38c.75.65,1.41,1.5.84,2.62-1,.19-2.72.28-3.18-.84-.29-.94.65-1.5-.38-2.25-.66.94-.66,2.06-2.06,1.22a1.78,1.78,0,0,1-.75-2.35c.94-1.5,2.62,0,3.56-.65.19-1.31-.28-2.44.94-3.1.94-.18,1.4.57,2.06,1.13" fill="#ff0"/><path d="M84.94,197.81c-.47,2.16-2.06-.09-2.82-.18.94-1.88,1.6.56,2.82.18M90,200.16c-1.12.28-.94-1.13-1.5-1.69l.47-.38c.37.47.65,1.41,1,2.07" fill="#fff"/><path d="M88.5,199.69c.28.75-.75,1.4.19,1.87l.75-.65A3.43,3.43,0,0,1,91.69,202c.56,1.59-1,1.59-1.88,2.06h-.93c.18-.56-.47-.75-.57-.93a.93.93,0,0,0-1,.28c.19.94,1.41,1.87.19,2.72-1.13,0-2.81.37-2.72-1.13-.37-.94,1.12-2.16-.47-2.25C83.72,204,83.16,205,81.75,204l.19-1.69c1.31,0,2.9.28,3.47-1.22.37-1-.66-2.06.28-2.81,1.4-.37,2.15.56,2.81,1.41" fill="#ff0"/><path d="M87.56,202.13c.28.84-.56.93-1,1.31a1.68,1.68,0,0,1-1.31-.57c-.28-.93.47-1.12.94-1.5.65-.28.93.47,1.4.75"/><path d="M86.72,202.69c-.09.18-.38.09-.56.18l-.19-.93c.47,0,.94.09.75.75" fill="#fff"/></g></svg>