<svg id="flag-icons-tc" xmlns="http://www.w3.org/2000/svg" viewBox="0 0 640 480"><title>tc</title><path d="M640,480V0H0V480Z" fill="#006"/><path d="M0,0H373.7V232.2H0Z" fill="#006" fill-rule="evenodd"/><path d="M0,0V26L331.9,232.2h41.8v-26L41.7,0ZM373.7,0V26L41.7,232.2H0v-26L331.9,0Z" fill="#fff"/><path d="M155.7,0V232.2H218V0ZM0,77.4v77.4H373.7V77.4Z" fill="#fff"/><path d="M0,92.9v46.4H373.7V92.9ZM168.2,0V232.2h37.3V0H168.2ZM0,232.2l124.6-77.4h27.8L27.8,232.2ZM0,0,124.6,77.4H96.7L0,17.3ZM221.3,77.4,345.8,0h27.9L249,77.4H221.3ZM373.7,232.2,249,154.8h28l96.7,60v17.4Z" fill="#c00"/><path d="M612.5,212.4v80c0,65.6-25.7,125.6-102.2,162.1C434,418,408.1,358,408.1,292.3V212.5H612.6Z" fill="#fff"/><path d="M605.7,220.6V295c0,61.2-24,117.2-95.3,151.3-71.3-34-95.4-90-95.4-151.3V220.5H605.7Z" fill="#fdc300"/><path d="M466.15,253.41a7.78,7.78,0,0,0-5.08-2c.39-5.08-3.12-7-5.86-7.82-2.74-1.17-3.91-2.34-3.91-4.3a5,5,0,0,0-4.3-3.91,12.66,12.66,0,0,1-5.47-4.3c-.78-1.17-1.18-1.17-2,.79s-3.52,5.86-.78,5.86c-2,1.56-3.13,3.13-2,5.47-1.18,1.18-2,2.74-.39,3.13l2.34,1.56c-1.56,0-2,3.13,1.56,3.91-.78,0-1.17,2.35.4,2.35-2,0-3.91,3.13-6.26,3.13-2.74,0-3.91.78-3.91,1.95l-2.34,3.13c1.95,0,3.12,0,3.91-.78a2.94,2.94,0,0,1,3.9,0c1.18.78,3.91,1.17,4.7.78-2.35,2-3.91,3.91-4.3,6.25a6.51,6.51,0,0,1-3.91,5.48c-1.18.78-3.91,2.34-4.3,4.69,1.95,5.47,5.08,6.64,8.21,8.21,5.47,2.34,9,4.3,11.33,7,2.35,2.34,3.13.39,6.65,5.08,3.51,3.91,6.64,12.51,10.16,13.68,3.52,1.56,7.82.78,10.16-3.91,2.74-3.91,3.91-48.48-8.6-55.9Z" fill="#ff9e3d" stroke="#000" stroke-width="0.1"/><path d="M472,234.64c-3.52,3.91-7.82,7-6.65,13.29s1.17,16.42-4.69,19.55c-5.47,3.91-8.21,12.51-1.56,17.59,7,5.09,7.42,11.34,8.21,16.81,1.17,5.87,4.3,10.56,9,6.65,4.69.78,7-1.17,7-5.08s0-5.48,3.91-6.65c3.13-1.17,3.91-2.34,5.87-5.47,1.56-3.13,2.34-4.69,1.56-6.26a14.47,14.47,0,0,1-.78-8.6c.78-2.73-.78-3.91-1.57-5.86a7.47,7.47,0,0,1-.78-5.47,5.83,5.83,0,0,0-2.34-5.09c-1.57-1.17-2.35-2.34-2-3.91,0-1.95-1.17-3.12-3.12-4.69a6.55,6.55,0,0,1-2.74-5.86c0-2.74-5.47-9-9.38-11Z" fill="#ff927f" stroke="#000" stroke-width="0.1"/><path d="M473.19,309.7c7.82-1.95,7-14.46,5.86-19.54-1.17-5.48-3.91-12.91-1.95-19.16,3.13-8.21-3.91-16.42-2-19.55,2-3.52,1.57-5.08,1.18-6.25a1,1,0,1,0-2,.39,5.05,5.05,0,0,1-1.95,4.3c-1.17,1.17-1.17,4.69,0,7.82.78,3.52,3.13,8.6,0,15.24-3.91,6.65-2.35,9.39-1.17,12.51C473.58,290.55,478.27,307.36,473.19,309.7Z" fill="#ff9ee1" stroke="#000" stroke-width="0.1"/><path d="M438.79,237.77c.78,0,2.35,0,2.35.78m-3.91,4.69c.78-.78,2.73,0,4.3-.78m-2.74,5.47a7.49,7.49,0,0,0,5.08-1.56m-3.52,5.47c1.57,0,3.91-.78,4.3-2.73m-3.9,5.08c2.73,0,5.86.78,6.25,0m-5.86,8.21c1.56-1.56,5.47-2.74,6.64-3.91M445.44,237c2.73.78,1.56,2.73,3.12,3.91,2.35,1.56,0,3.91,2.35,4.3,1.95.78,1.95,1.17,1.17,3.52-.39,2.73,2,2.73,1.17,4.69m7.82-2c-1.17,0-4.69,0-5.86,3.13m-18.76,30.1c1.56,0,1.95-.39,2.34-1.17s.78-1.56,2-1.56,3.12-.4,3.51-1.18c0-1.17,1.57,0,2.74-2.73,1.56-2.35,2.35-5.09,5.47-6.26" fill="none" stroke="#000" stroke-width="0.1"/><path d="M527.92,335.11c1.17,1.57,0,3.91,2,4.69,2.74.79.39,3.91,3.52,5.48,2.74,1.17,0,3.91,2.74,5.86,2.73,1.18,0,3.91,3.12,5.87,3.91,1.95-.78,5.86,2,7.42s-.79,5.48,2.34,7c2.74,1.56-1.56,4.3,1.57,6.65,2.73,1.95-.79,5.47,2,7.42s-1.56,4.7,1.17,7.43c2.35,2-.78,3.91.78,7.82,1.18,2-1.17,10.56-7,9.78-2.35,3.9-10.56,7-13.68,5.86-3.13,2.34-12.9,5.08-18,.39-5.09,4.69-14.86,1.95-18,0-3.12.78-11.72-2.74-13.68-6.25-6.25.78-8.21-7.82-7-10.17,1.56-3.13-1.57-5.47.78-7.82,2.73-2.34-2-5.08,1.17-7s-.78-5.47,2-7.81c3.12-2-1.57-5.09,1.56-6.26,3.13-1.56-.39-5.47,2.34-7,2.35-1.56-1.56-5.47,2-7.42,3.52-1.57,0-4.69,3.13-5.87,2.73-1.56,0-4.69,2.73-5.86,3.13-1.17.78-4.69,3.52-5.48,2.35-1.17.78-3.12,2-5.08,6.64,2.74,26.58,4.69,35.18,0Z" fill="#00a728" stroke="#000" stroke-width="0.1"/><path d="M495.47,346.45a5.27,5.27,0,0,1-.78,3.13c-1.95,2.34.78,3.91-1.56,6.64-2,2.74.39,4.7-2,7s.39,4.69-1.95,7c-2.35,2.73.39,4.69-2,7s.39,5.08-1.95,7.42.39,5.48-2,7.82c-2.73,3.13,0,5.48-2,7.82-2,2,0,3.91-1.56,5.47,2.34-1.95,2.34-5.08,4.3-6.25,1.95-1.56-.4-3.91.78-5.08s0-5.48,1.95-7.82,0-6.65,2-7.82.39-6.26,2.73-7.82,0-5.08,1.57-7c1.95-2,0-5.08,1.95-7.82,1.56-2,0-4.3,1.17-6.25.79-.78.79-7-.78-3.91Zm6.26,2.74c-1.57,2.73,1.17,3.52-.79,6.25s1.18,5.08-1.17,7.82,1.17,4.3-.78,7c-1.95,3.13.78,4.69-.78,6.64-2,2.35,1.17,4.3-.78,7-2.35,2.74.78,4.69-1.18,7-1.56,2.34.79,5.08-.78,7s1.17,4.69-1.17,7.42.39,3.91-.78,5.87c2.73-.78,1.56-4.3,2.73-5.09.79-.78-.39-5.86,1.18-7,1.56-1.57-1.18-5.48,0-7,2.73-3.13.78-5.08,1.95-7.43,1.56-2.34-.39-5.08.78-6.64,2-2.74-.78-5.09.39-7,2-2.74,0-4.69,1.18-6.65,1.95-2.73,0-5.47.39-7,1.17-1.18,2.34-7.43,0-8.21Zm8.6,2.34c-1.57,3.91,1.17,5.09,0,8.21-.79,3.13,1.17,5.48,0,8.6-1.18,3.52,1.56,5.87,0,10.17s1.17,5.47,0,9.77c-1.18,4.69,1.95,7.43,0,11-2.35,3.52,2.34,4.69,0,8.21-.79,1.95,0,6.25,1.95.78,2-5.08-1.17-5.86,0-7.82,2-2.34,0-7.82.39-11.34.78-2.73-1.56-7,0-10.16,1.17-3.52-2.34-7-.78-9.77,1.17-2.74-.78-6.26.78-8.61,1.17-2.34-1.17-5.47-.78-6.64.78-1.17-.39-6.26-1.56-2.35Z" fill="#fdc300" stroke="#000" stroke-width="0.1"/><path d="M526.74,337.46c0-24.63-3.91-33.23-16.41-33.23-12.9,0-16.42,8.6-16.42,33.23Z" fill="#ef072d" stroke="#000" stroke-width="0.1"/><path d="M498.6,335.5c-2.35,2.35.39,3.91-2,7-2.34,2.74,0,4.3-1.95,7s.78,3.91-1.56,6.64c-2,2.74.78,4.7-2,7-2.34,2.35.39,4.69-1.95,7-2.35,2.73.39,4.69-2,7s.39,4.69-1.95,7.42c-2.35,2.35.39,5.48-2,7.82-2.73,3.13,0,5.48-2,7.82s0,3.91-1.56,5.47-2,3.91-1.18,4.7m24.63-74.28c-2.35,3.12,1.17,3.91-.78,6.64-2,2.35.78,3.13-.78,6.26s1.17,3.52-.79,6.25,1.18,5.08-1.17,7.82,1.17,4.3-.78,7c-1.95,3.13.78,4.69-.78,6.64-2,2.35,1.17,4.3-1.17,7-2,2.74,1.17,4.69-.79,7-1.56,2.34.79,5.08-.78,7s1.17,4.69-1.17,7.42.39,3.91-.78,5.87-2.35,4.3-1.18,5.08m18-77.41c-1.18,4.69,1.56,8.6,0,12.51s1.17,5.09,0,8.21c-.79,3.13,1.17,5.48,0,8.6-1.18,3.52,1.56,5.87,0,10.17s1.17,5.47,0,9.77c-1.18,4.69,2.34,7.43,0,11s1.95,4.3,0,8.21c-1.57,3.91,1.17,5.47,0,9.38m11.72-81.32c2.35,2.35-.78,3.91,2,7,2.34,2.74,0,4.3,2,7s-.78,3.91,1.17,6.64c2.35,2.74,0,4.7,2,7,2.74,2.35,0,4.69,1.95,7,2.74,2.73,0,4.69,2.35,7s-.78,4.69,2,7.42c2.35,2.35-.39,5.48,2,7.82,2.73,3.13-.39,5.48,2,7.82,2,2,0,3.91,1.57,5.47s1.95,3.91,1.17,4.7m-24.63-74.28c2,3.12-1.17,3.91.78,6.64,2,2.35-.78,3.13.79,6.26,1.56,2.73-1.18,3.52.78,6.25s-1.18,5.08,1.17,7.82-1.17,4.3.78,7c2,3.13-.78,4.69.78,6.64,2,2.35-1.17,4.3.79,7,2.34,2.74-.79,4.69,1.17,7,1.56,2.34-.78,5.08.78,7s-1.17,4.69,1.17,7.42-.39,3.91.78,5.87,2.35,4.3,1.18,5.08" fill="none" stroke="#000" stroke-width="0.1"/><path d="M493.91,337.46c0-24.63,3.91-33.23,16.42-33.23-5.87,0-9.39,4.69-10.56,7.82s-.39,2.73.78,1.56.78,1.57,0,2.74c-1.17,1.56-2.34,5.47-.78,3.91,1.56-.78,2.74.39.78,2.73s-2.73,7.82-1.17,5.87,1.95,1.17.78,2.74c-.78,1.56-.78,2.73,0,2.34,1.17-.78.78,2.35,0,3.91h-6.25Zm30.1-1.17c0-19.55-2.35-25.41-7-27.37-2.74-1.17-2.74-.78-1.56,1.17s1.17,3.91,0,2.35-1.57-2-2.35-1.17l3.13,7.82c1.17,2.34,0,3.9-1.56,1.17s-1.57-.39,0,1.95c2,2.74,1.56,11.34,1.56,14.86l7.82-.78Z" stroke="#000" stroke-width="0.1"/><path d="M510.33,341a41.42,41.42,0,0,0,14.46-2.35c4.3-1.56,4.69-3.13,3.13-5.08-1.18-1.56-3.52-.78-5.87.39a43.83,43.83,0,0,1-23.45,0c-2.35-.78-4.69-1.95-5.86-.39-1.57,1.95-1.57,3.52,3.12,5.08A41.43,41.43,0,0,0,510.33,341Z" fill="#ef072d" stroke="#000" stroke-width="0.1"/><path d="M559.93,308.54l5.82,10c2.46,4.23,4.46,5.19,6.24,3.94s.26-4.7-1.16-6.33-9.28-9.3-9.28-9.3Z" fill="#b95a1e" stroke="#000" stroke-width="6.4" fill-rule="evenodd"/><path d="M559.16,308.91l2.31,11.49c1,4.85,2.56,6.46,4.64,5.9s1.73-4.33.91-6.37-5.8-12-5.8-12Z" fill="#b95a1e" stroke="#000" stroke-width="6.4" fill-rule="evenodd"/><path d="M557.75,309.12v11.75c0,5,1.23,6.88,3.37,6.79s2.55-3.86,2.15-6S560,308.58,560,308.58Z" fill="#b95a1e" stroke="#000" stroke-width="6.4" fill-rule="evenodd"/><path d="M557.77,309c6.15-.09,6.83-2.32,6.83-2.32s1.37-4.65.68-5.81-7.51-1.16-7.51-1.16V309Z" fill="#b95a1e" stroke="#000" stroke-width="8.1" fill-rule="evenodd"/><path d="M557.75,304.42c6.61,0,7.71-2.32,7.71-2.32s2.21-4.65,1.11-5.81-8.82-1.16-8.82-1.16v9.29Z" fill="#b95a1e" stroke="#000" stroke-width="6.4" fill-rule="evenodd"/><path d="M557.75,299.72a16.37,16.37,0,0,0,8.82-2.32s2.2-4.65,1.1-5.81-9.92-1.16-9.92-1.16Z" fill="#b95a1e" stroke="#000" stroke-width="6.4" fill-rule="evenodd"/><path d="M561.43,256.93a78.12,78.12,0,0,1,15-11.61C586,239.51,593,235.05,594.23,236c0,1.16-8.2,7-15,11.61s-15,11.61-15,11.61Z" fill="#b95a1e" stroke="#000" stroke-width="5.7" fill-rule="evenodd"/><path d="M562.13,261.53a144.2,144.2,0,0,1,15.77-8.12c10.2-4.2,24.6-3.49,24.6-2.33-1.37,1.16-13.67,1.16-21.87,4.65a144.59,144.59,0,0,0-15.77,8.12l-2.73-2.32Z" fill="#b95a1e" stroke="#000" stroke-width="5.7" fill-rule="evenodd"/><path d="M562.23,269.53a136.71,136.71,0,0,1,15.77-5.8c10.93-3.49,25.44-1.16,25.44,0-1.36,1.16-13.14.45-21.34,2.32a95.42,95.42,0,0,0-17.13,5.8Z" fill="#b95a1e" stroke="#000" stroke-width="5.7" fill-rule="evenodd"/><path d="M562.63,277.73s5.48-4.65,17.16-5.8,21.31,5.8,21.31,7c-1.36,1.16-12.3-5.11-20.49-4.21a36.57,36.57,0,0,0-15.24,5.37l-2.74-2.32Z" fill="#b95a1e" stroke="#000" stroke-width="5.7" fill-rule="evenodd"/><path d="M557.75,293.92c9.92-.09,9.92-3,9.92-3s2.2-4.64,1.1-5.81-11-.5-11-.5v9.29Z" fill="#b95a1e" stroke="#000" stroke-width="6.4" fill-rule="evenodd"/><path d="M557.75,289.32c9.92-.09,11-2.32,11-2.32s2.2-4.65,1.1-5.81S557.75,280,557.75,280v9.29Z" fill="#b95a1e" stroke="#000" stroke-width="6.4" fill-rule="evenodd"/><path d="M557.75,283.52c9.92-.09,12.12-2.32,12.12-2.32s2.2-4.65,1.1-5.81-13.22-1.16-13.22-1.16v9.29Z" fill="#b95a1e" stroke="#000" stroke-width="6.4" fill-rule="evenodd"/><path d="M557.75,277.72c9.92-.09,13.22-2.32,13.22-2.32s1.1-4.65,0-5.81-13.22-1.16-13.22-1.16v9.29Z" fill="#b95a1e" stroke="#000" stroke-width="6.4" fill-rule="evenodd"/><path d="M559.93,252.13s8.81-5.8,8.81-10.45-3.88-9.29-5-11.61c2.2,0,7.18,7,7.18,11.61,0,5.08-8.27,12.78-8.27,12.78Z" fill="#b95a1e" stroke="#000" stroke-width="5.7" fill-rule="evenodd"/><path d="M559.93,252.13s-1.1-3.48-1.1-10.45a21.34,21.34,0,0,1,6.61-15.1c.46,1.8-4.4,8.13-4.4,15.1a79,79,0,0,0,1.63,12.79l-2.74-2.33Z" fill="#b95a1e" stroke="#000" stroke-width="5.7" fill-rule="evenodd"/><path d="M557.75,271.92c9.92-.09,13.22-2.32,13.22-2.32s0-4.65-1.1-5.81-12.12-1.16-12.12-1.16Z" fill="#b95a1e" stroke="#000" stroke-width="6.4" fill-rule="evenodd"/><path d="M557.75,266c9.92-.09,12.12-2.32,12.12-2.32s0-4.65-1.1-5.81-11-1.16-11-1.16V266Z" fill="#b95a1e" stroke="#000" stroke-width="6.4" fill-rule="evenodd"/><path d="M586.38,335.7c-3.42-8-4.41-22.06-4.41-24.38,0-6.55,2-38.36,2.21-51.11s-7.71-19.74-15.42-19.74c-6.61,0-11,4.65-11,11.62h3.3a7.75,7.75,0,0,1,7.33-8.13,2.29,2.29,0,0,1,.37,0c6.61,0,11.69,5.48,12.13,16.25.46,12.46-1.33,44.77-1.11,53.43a45.54,45.54,0,0,0,6.61,22.05Z" fill="#b95a1e" stroke="#fdc301" stroke-width="16.1" fill-rule="evenodd"/><path d="M555.57,308.54l-5.82,10c-2.46,4.23-4.46,5.19-6.24,3.94s-.26-4.7,1.16-6.33,9.28-9.3,9.28-9.3Z" fill="#b95a1e" stroke="#000" stroke-width="6.4" fill-rule="evenodd"/><path d="M557.75,251.46c7.72,0,11.06,6.71,11,6.57l-2.22,2.18c-1.18,1.17-8.82,1.17-8.72,1.16Z" fill="#b95a1e" stroke="#000" stroke-width="6.4" fill-rule="evenodd"/><path d="M556.34,308.91,554,320.4c-1,4.85-2.56,6.46-4.64,5.9s-1.73-4.33-.91-6.37,5.8-12,5.8-12Z" fill="#b95a1e" stroke="#000" stroke-width="6.4" fill-rule="evenodd"/><path d="M557.75,309.12v11.75c0,5-1.23,6.88-3.37,6.79s-2.55-3.86-2.15-6,3.31-13.05,3.31-13.05Z" fill="#b95a1e" stroke="#000" stroke-width="6.4" fill-rule="evenodd"/><path d="M557.73,309c-6.15-.09-6.83-2.32-6.83-2.32s-1.37-4.65-.68-5.81,7.51-1.16,7.51-1.16V309Z" fill="#b95a1e" stroke="#000" stroke-width="8.1" fill-rule="evenodd"/><path d="M557.75,304.42c-6.61,0-7.71-2.32-7.71-2.32s-2.21-4.65-1.11-5.81,8.82-1.16,8.82-1.16v9.29Z" fill="#b95a1e" stroke="#000" stroke-width="6.4" fill-rule="evenodd"/><path d="M557.75,299.72a16.37,16.37,0,0,1-8.82-2.32s-2.2-4.65-1.1-5.81,9.92-1.16,9.92-1.16Z" fill="#b95a1e" stroke="#000" stroke-width="6.4" fill-rule="evenodd"/><path d="M554.07,256.93a78.12,78.12,0,0,0-15-11.61c-9.56-5.81-16.48-10.27-17.76-9.29,0,1.16,8.2,7,15,11.61s15,11.61,15,11.61Z" fill="#b95a1e" stroke="#000" stroke-width="5.7" fill-rule="evenodd"/><path d="M553.37,261.53a144.2,144.2,0,0,0-15.77-8.12c-10.2-4.2-24.6-3.49-24.6-2.33,1.37,1.16,13.67,1.16,21.87,4.65a144.59,144.59,0,0,1,15.77,8.12l2.73-2.32Z" fill="#b95a1e" stroke="#000" stroke-width="5.7" fill-rule="evenodd"/><path d="M553.37,269.53a136.71,136.71,0,0,0-15.77-5.8c-10.93-3.49-25.44-1.16-25.44,0,1.36,1.16,13.14.45,21.34,2.32a95.42,95.42,0,0,1,17.13,5.8Z" fill="#b95a1e" stroke="#000" stroke-width="5.7" fill-rule="evenodd"/><path d="M552.77,277.73s-5.48-4.65-17.16-5.8-21.31,5.8-21.31,7c1.36,1.16,12.3-5.11,20.49-4.21A36.57,36.57,0,0,1,550,280.05l2.74-2.32Z" fill="#b95a1e" stroke="#000" stroke-width="5.7" fill-rule="evenodd"/><path d="M557.75,293.92c-9.92-.09-9.92-3-9.92-3s-2.2-4.64-1.1-5.81,11-.5,11-.5v9.29Z" fill="#b95a1e" stroke="#000" stroke-width="6.4" fill-rule="evenodd"/><path d="M557.75,289.32c-9.92-.09-11-2.32-11-2.32s-2.2-4.65-1.1-5.81S557.75,280,557.75,280v9.29Z" fill="#b95a1e" stroke="#000" stroke-width="6.4" fill-rule="evenodd"/><path d="M557.75,283.52c-9.92-.09-12.12-2.32-12.12-2.32s-2.2-4.65-1.1-5.81,13.22-1.16,13.22-1.16v9.29Z" fill="#b95a1e" stroke="#000" stroke-width="6.4" fill-rule="evenodd"/><path d="M557.75,277.72c-9.92-.09-13.22-2.32-13.22-2.32s-1.1-4.65,0-5.81,13.22-1.16,13.22-1.16v9.29Z" fill="#b95a1e" stroke="#000" stroke-width="6.4" fill-rule="evenodd"/><path d="M555.57,252.13s-8.81-5.8-8.81-10.45,3.88-9.29,5-11.61c-2.2,0-7.18,7-7.18,11.61,0,5.08,8.27,12.78,8.27,12.78Z" fill="#b95a1e" stroke="#000" stroke-width="5.7" fill-rule="evenodd"/><path d="M555.57,252.13s1.1-3.48,1.1-10.45a21.34,21.34,0,0,0-6.61-15.1c-.46,1.8,4.4,8.13,4.4,15.1a79,79,0,0,1-1.63,12.79l2.74-2.33Z" fill="#b95a1e" stroke="#000" stroke-width="5.7" fill-rule="evenodd"/><path d="M557.75,271.92c-9.92-.09-13.22-2.32-13.22-2.32s0-4.65,1.1-5.81,12.12-1.16,12.12-1.16Z" fill="#b95a1e" stroke="#000" stroke-width="6.4" fill-rule="evenodd"/><path d="M557.75,266c-9.92-.09-12.12-2.32-12.12-2.32s0-4.65,1.1-5.81,11-1.16,11-1.16V266Z" fill="#b95a1e" stroke="#000" stroke-width="6.4" fill-rule="evenodd"/><path d="M529.12,335.7c3.42-8,4.41-22.06,4.41-24.38,0-6.55-2-38.36-2.21-51.11s7.71-19.74,15.42-19.74c6.61,0,11,4.65,11,11.62h-3.3a7.75,7.75,0,0,0-7.33-8.13,2.29,2.29,0,0,0-.37,0c-6.61,0-11.69,5.48-12.13,16.25-.46,12.46,1.33,44.77,1.11,53.43a45.54,45.54,0,0,1-6.61,22.05Z" fill="#b95a1e" stroke="#fdc301" stroke-width="16.1" fill-rule="evenodd"/><path d="M557.75,251.46c-7.72,0-11.06,6.71-11,6.57l2.22,2.18c1.18,1.17,8.82,1.17,8.72,1.16Z" fill="#b95a1e" stroke="#000" stroke-width="6.4" fill-rule="evenodd"/></svg>