<svg id="flag-icons-tf" xmlns="http://www.w3.org/2000/svg" viewBox="0 0 640 480"><title>tf</title><path d="M0,0H640V480H0Z" fill="#002395"/><path d="M0,0H292.8V196.8H0Z" fill="#fff"/><path d="M0,0H96V192H0Z" fill="#002395"/><path d="M192,0h96V192H192Z" fill="#ed2939"/><path d="M426,219.6l15.4,24.6h44V330l-33-51.6L408,349.2h21.6l22.8-40.8,46.8,84,46.8-84,22.8,40.8h21.6L546,278.4,513,330V282.6h19.8l14.7-23.4H513v-15h44l15.4-24.6Zm51.6,105h-48v16.8h48Zm91.2,0h-48v16.8h48Z" fill="#fff"/><path id="a" d="M499.2,409.2,514,454.8,475.2,426.6h48l-38.76,28.2Z" fill="#fff"/><path d="M445.2,368.4,460,414,421.2,385.8h48L430.44,414Z" fill="#fff"/><path d="M553.2,368.4,568,414,529.2,385.8h48L538.44,414Z" fill="#fff"/><path d="M399.6,247.2l14.76,45.6L375.6,264.6h48l-38.76,28.2Z" fill="#fff"/><path d="M598.8,247.2l14.76,45.6L574.8,264.6h48L584,292.8Z" fill="#fff"/></svg>