<svg id="flag-icons-tk" xmlns="http://www.w3.org/2000/svg" viewBox="0 0 640 480"><title>tk</title><path d="M0,0H640V480H0Z" fill="#00247d"/><path d="M108.1,354.6c-6.7-.1,62.8-37,120.9-84.4,76.2-62.1,240.3-161.4,288.6-177.6,5-1.7-10.3,8.6-12.3,11.9-51.5,61-10.4,176,54,233.9,19.4,14.8,18.4,15.6,54.3,17v3.4l-505.5-4.2Zm-4.2,6.7s-4.9,3.5-4.9,6.1c0,2.9,5.5,6.7,5.5,6.7L603,379.6l9.2-6.1-12.8-7.9-495.5-4.3Z" fill="#fed100"/><path d="M106.8,109.1l-4,12.2,10.4-7.5,10.3,7.5-3.9-12.2,10.3-7.5H117.1l-3.9-12.2-4,12.2H96.4Zm78.1,57.4,8.6-6.3H182.8l-3.3-10.1-3.3,10.1H165.6l8.6,6.3-3.3,10.1,8.6-6.3,8.7,6.3Zm-145.2,13-4-12.2-3.9,12.2H19L29.3,187l-3.9,12.2,10.3-7.5,10.4,7.5-4-12.2,10.4-7.5Zm78.1,122.3-4.6-14.2-4.6,14.2h-15l12.1,8.7-4.6,14.3,12.1-8.8,12.1,8.8-4.7-14.3,12.1-8.7Z" fill="#fff"/></svg>