<svg id="flag-icons-vg" xmlns="http://www.w3.org/2000/svg" xmlns:xlink="http://www.w3.org/1999/xlink" viewBox="0 0 640 480"><defs><linearGradient id="Dégradé_sans_nom" x1="99.61" y1="438.84" x2="89.11" y2="442.34" gradientTransform="matrix(0.77, 0, 0, -1.75, 331.12, 889.46)" gradientUnits="userSpaceOnUse"><stop offset="0" stop-color="red"/><stop offset="1" stop-color="#ff0"/></linearGradient><linearGradient id="Dégradé_sans_nom_2" x1="99.61" y1="438.84" x2="89.11" y2="442.34" gradientTransform="matrix(0.77, 0, 0, -1.75, 330.5, 921.47)" xlink:href="#Dégradé_sans_nom"/><linearGradient id="Dégradé_sans_nom_3" x1="99.61" y1="438.84" x2="89.11" y2="442.34" gradientTransform="matrix(0.77, 0, 0, -1.75, 330.26, 953.01)" xlink:href="#Dégradé_sans_nom"/><linearGradient id="Dégradé_sans_nom_4" x1="99.61" y1="438.84" x2="89.11" y2="442.34" gradientTransform="matrix(0.77, 0, 0, -1.75, 350.96, 987.19)" xlink:href="#Dégradé_sans_nom"/><linearGradient id="Dégradé_sans_nom_5" x1="99.61" y1="438.84" x2="89.11" y2="442.34" gradientTransform="matrix(0.77, 0, 0, -1.75, 327.55, 1015.16)" xlink:href="#Dégradé_sans_nom"/><linearGradient id="Dégradé_sans_nom_6" x1="99.61" y1="438.84" x2="89.11" y2="442.34" gradientTransform="matrix(0.77, 0, 0, -1.75, 328.17, 1048.18)" xlink:href="#Dégradé_sans_nom"/><linearGradient id="Dégradé_sans_nom_7" x1="99.61" y1="438.84" x2="89.11" y2="442.34" gradientTransform="matrix(0.77, 0, 0, -1.75, 444.49, 890)" xlink:href="#Dégradé_sans_nom"/><linearGradient id="Dégradé_sans_nom_8" x1="99.61" y1="438.84" x2="89.11" y2="442.34" gradientTransform="matrix(0.77, 0, 0, -1.75, 443.41, 921.39)" xlink:href="#Dégradé_sans_nom"/><linearGradient id="Dégradé_sans_nom_9" x1="99.61" y1="438.84" x2="89.11" y2="442.34" gradientTransform="matrix(0.77, 0, 0, -1.75, 442.01, 953.55)" xlink:href="#Dégradé_sans_nom"/><linearGradient id="Dégradé_sans_nom_10" x1="99.61" y1="438.84" x2="89.11" y2="442.34" gradientTransform="matrix(0.77, 0, 0, -1.75, 443.64, 985.09)" xlink:href="#Dégradé_sans_nom"/><linearGradient id="Dégradé_sans_nom_11" x1="99.61" y1="438.84" x2="89.11" y2="442.34" gradientTransform="matrix(0.77, 0, 0, -1.75, 443.25, 1016.71)" xlink:href="#Dégradé_sans_nom"/><linearGradient id="Dégradé_sans_nom_12" x1="99.61" y1="438.84" x2="89.11" y2="442.34" gradientTransform="matrix(0.77, 0, 0, -1.75, 443.41, 1048.49)" xlink:href="#Dégradé_sans_nom"/></defs><title>vg</title><path id="path1707" d="M0,0H640V480H0Z" fill="#006"/><path id="path2609" d="M0,0H320V240H0Z" fill="#012169"/><path id="path2611" d="M37.5,0l122,90.5L281,0h39V31L200,120.5l120,89V240H280L160,150.5,40.5,240H0V210l119.5-89L0,32V0Z" fill="#fff"/><path id="path2613" d="M212,140.5,320,220v20L184.5,140.5Zm-92,10,3,17.5L27,240H0ZM320,0V1.5l-124.5,94,1-22L295,0ZM0,0,119.5,88h-30L0,21Z" fill="#c8102e"/><path id="path2615" d="M120.5,0V240h80V0ZM0,80v80H320V80Z" fill="#fff"/><path id="path2617" d="M0,96.5v48H320v-48ZM136.5,0V240h48V0Z" fill="#c8102e"/><g id="g1028"><path id="path855" d="M384.11,102.2l194-.7-.39,172.82s6.82,26.35-81.37,66.26c31.7-3.26,66.26-37.05,66.26-37.05s14-18,20.93-8a77.79,77.79,0,0,0,18.29,19.14c5,3.88,9,14.73,1.47,22.63s-19.45,9-22.71-.7c-5,2.56-36,40-99.35,41.78-64.48-1.09-99.74-42.16-99.74-42.16S373,350,360.63,339.18c-11.86-14.1-2.87-23.09-2.87-23.09s10.07-5.74,13-9.69c4.65-5.42,6.12-12.63,14-12.63a16.1,16.1,0,0,1,13,8.29s32.39,34.18,67.34,38.52c-78.81-37.82-81.76-61.23-81.37-67l.39-171.35Z" fill="#fff"/><path id="path857" d="M388.76,106.92l185.06-1.08V272.15c.39,21.7-36,43.63-92.92,71.68-58.66-30.22-92.53-48.59-92.84-72.07l.7-164.84Z" fill="#006129" stroke="#000" stroke-width="1.9"/><g id="lamp"><path id="path859" d="M414,131.49l10.85-16,11.08,16.12" fill="none" stroke="#ffc72c" stroke-width="1.9"/><path id="path861" d="M427,125.44a2.17,2.17,0,1,1-4.34,0v0a2.17,2.17,0,0,1,4.34,0Z" fill="#ffc72c" stroke="#000" stroke-width="0.9"/><path id="path863" d="M416,143.35h17a3.91,3.91,0,0,0-1.78-3.49c8.91-1.24,6.59-9,14-9.46,1.55.24-3.88,3.34-3.88,3.34s-4.41,3.1-2.32,4.72c1.55,1.32,2.32-.77,2.48-2.32s7.21-2.56,6.2-7c-1.63-3.64-11.39,2.48-11.39,2.48l-7-.07c-.46-.78-2.32-3.88-4.34-3.88-2.32,0-4,3.88-4,3.88H405.11s-.54,4.1,7.44,4.88a9.41,9.41,0,0,0,4.81,3.56,3.83,3.83,0,0,0-1.4,3.34Z" fill="#ffc72c" stroke="#000" stroke-width="0.9"/><path id="path865" d="M417.2,139.94h14.1" fill="#ffc72c" stroke="#000" stroke-width="0.9"/><path id="path867" d="M410.77,131.64s1.08,6.59,6.35,8.14" fill="#ffc72c" stroke="#000" stroke-width="0.9"/><path id="path869" d="M409.92,131.49c.46-2.48,1.47-3,2.48-6.2.15-3.1-2.48-2.71-1.71-4.65,1.4-2.25.7-4.34-1.94-6,.55,2.87-3.41,5.58-3.41,7.91s2,1.86,1.79,5.42c.15,2-.55,1.55-.78,3.49Z" stroke="#000" stroke-width="0.9" fill="url(#Dégradé_sans_nom)"/><path id="path871" d="M426.89,115.91a2,2,0,1,1-2-2A2,2,0,0,1,426.89,115.91Z" fill="#ffc72c" stroke="#000" stroke-width="0.9"/></g><g id="use874"><path d="M413.33,163.5l10.85-16.05,11.08,16.12" fill="none" stroke="#ffc72c" stroke-width="1.9"/><path d="M426.42,157.45a2.17,2.17,0,1,1-4.34,0h0a2.17,2.17,0,0,1,4.34,0Z" fill="#ffc72c" stroke="#000" stroke-width="0.9"/><path d="M415.34,175.35h17a3.89,3.89,0,0,0-1.78-3.48c8.91-1.24,6.59-9,14-9.46,1.55.23-3.88,3.33-3.88,3.33s-4.41,3.1-2.32,4.73c1.55,1.32,2.32-.77,2.48-2.32s7.21-2.56,6.2-7c-1.63-3.64-11.39,2.48-11.39,2.48l-7-.08c-.46-.77-2.32-3.87-4.34-3.87-2.32,0-4,3.87-4,3.87H404.49s-.54,4.11,7.44,4.89a9.41,9.41,0,0,0,4.81,3.56,3.81,3.81,0,0,0-1.4,3.33Z" fill="#ffc72c" stroke="#000" stroke-width="0.9"/><path d="M416.58,171.94h14.1" fill="#ffc72c" stroke="#000" stroke-width="0.9"/><path d="M410.15,163.65s1.08,6.59,6.35,8.14" fill="#ffc72c" stroke="#000" stroke-width="0.9"/><path d="M409.3,163.5c.46-2.48,1.47-2.95,2.48-6.2.15-3.1-2.48-2.72-1.71-4.65,1.4-2.25.7-4.34-1.94-6,.55,2.87-3.41,5.58-3.41,7.9s2,1.86,1.79,5.43c.15,2-.55,1.55-.78,3.49Z" stroke="#000" stroke-width="0.9" fill="url(#Dégradé_sans_nom_2)"/><path d="M426.27,147.92a2,2,0,1,1-2-2A2,2,0,0,1,426.27,147.92Z" fill="#ffc72c" stroke="#000" stroke-width="0.9"/></g><g id="use876"><path d="M413.09,195l10.85-16L435,195.11" fill="none" stroke="#ffc72c" stroke-width="1.9"/><path d="M426.19,189a2.17,2.17,0,0,1-4.34,0v0a2.17,2.17,0,0,1,4.34,0Z" fill="#ffc72c" stroke="#000" stroke-width="0.9"/><path d="M415.11,206.89h17a3.89,3.89,0,0,0-1.78-3.48c8.91-1.24,6.58-9,13.95-9.46,1.55.23-3.88,3.33-3.88,3.33s-4.42,3.1-2.32,4.73c1.55,1.32,2.32-.77,2.48-2.32s7.2-2.56,6.2-7c-1.63-3.64-11.4,2.48-11.4,2.48l-7-.08c-.46-.77-2.32-3.87-4.34-3.87-2.32,0-4,3.87-4,3.87H404.26s-.54,4.11,7.44,4.89a9.43,9.43,0,0,0,4.8,3.56,3.83,3.83,0,0,0-1.39,3.33Z" fill="#ffc72c" stroke="#000" stroke-width="0.9"/><path d="M416.35,203.48h14.1" fill="#ffc72c" stroke="#000" stroke-width="0.9"/><path d="M409.92,195.19s1.08,6.59,6.35,8.14" fill="#ffc72c" stroke="#000" stroke-width="0.9"/><path d="M409.06,195c.47-2.48,1.48-2.95,2.48-6.2.16-3.1-2.48-2.72-1.7-4.65,1.39-2.25.7-4.34-1.94-6,.54,2.87-3.41,5.58-3.41,7.9s2,1.86,1.78,5.43c.16,2-.54,1.55-.77,3.49Z" stroke="#000" stroke-width="0.9" fill="url(#Dégradé_sans_nom_3)"/><path d="M426,179.46a2,2,0,1,1-2-2A2,2,0,0,1,426,179.46Z" fill="#ffc72c" stroke="#000" stroke-width="0.9"/></g><g id="use878"><path d="M433.78,229.21l10.85-16,11.09,16.12" fill="none" stroke="#ffc72c" stroke-width="1.9"/><path d="M446.88,223.17a2.17,2.17,0,0,1-4.34,0h0a2.17,2.17,0,1,1,4.34,0Z" fill="#ffc72c" stroke="#000" stroke-width="0.9"/><path d="M435.8,241.07h17a3.91,3.91,0,0,0-1.78-3.49c8.91-1.24,6.59-9,13.95-9.45,1.55.23-3.88,3.33-3.88,3.33s-4.41,3.1-2.32,4.73c1.55,1.32,2.32-.78,2.48-2.33s7.21-2.55,6.2-7c-1.63-3.64-11.39,2.48-11.39,2.48l-7-.08c-.46-.77-2.32-3.87-4.34-3.87-2.32,0-4,3.87-4,3.87H425s-.54,4.11,7.44,4.88a9.4,9.4,0,0,0,4.8,3.57,3.83,3.83,0,0,0-1.39,3.33Z" fill="#ffc72c" stroke="#000" stroke-width="0.9"/><path d="M437,237.66h14.1" fill="#ffc72c" stroke="#000" stroke-width="0.9"/><path d="M430.61,229.37s1.08,6.59,6.35,8.14" fill="#ffc72c" stroke="#000" stroke-width="0.9"/><path d="M429.75,229.21c.47-2.48,1.48-2.94,2.48-6.2.16-3.1-2.48-2.71-1.7-4.65,1.39-2.24.7-4.34-1.94-6,.54,2.86-3.41,5.58-3.41,7.9s2,1.86,1.79,5.43c.15,2-.55,1.55-.78,3.48Z" stroke="#000" stroke-width="0.9" fill="url(#Dégradé_sans_nom_4)"/><path d="M446.73,213.64a2,2,0,1,1-2-2A2,2,0,0,1,446.73,213.64Z" fill="#ffc72c" stroke="#000" stroke-width="0.9"/></g><g id="use880"><path d="M410.38,257.19l10.85-16,11.08,16.12" fill="none" stroke="#ffc72c" stroke-width="1.9"/><path d="M423.48,251.14a2.17,2.17,0,0,1-4.34,0v0a2.17,2.17,0,0,1,4.34,0Z" fill="#ffc72c" stroke="#000" stroke-width="0.9"/><path d="M412.4,269.05h17a3.91,3.91,0,0,0-1.78-3.49c8.91-1.24,6.58-9,13.94-9.46,1.55.24-3.87,3.34-3.87,3.34s-4.42,3.1-2.33,4.72c1.55,1.32,2.33-.77,2.48-2.32s7.21-2.56,6.2-7c-1.62-3.64-11.39,2.48-11.39,2.48l-7-.07c-.47-.78-2.33-3.88-4.34-3.88-2.33,0-4,3.88-4,3.88H401.55s-.55,4.1,7.44,4.88a9.39,9.39,0,0,0,4.8,3.56,3.85,3.85,0,0,0-1.39,3.34Z" fill="#ffc72c" stroke="#000" stroke-width="0.9"/><path d="M413.64,265.64h14.1" fill="#ffc72c" stroke="#000" stroke-width="0.9"/><path d="M407.2,257.34s1.09,6.59,6.36,8.14" fill="#ffc72c" stroke="#000" stroke-width="0.9"/><path d="M406.35,257.19c.47-2.48,1.47-2.95,2.48-6.2.16-3.1-2.48-2.71-1.7-4.65,1.39-2.25.69-4.34-1.94-6,.54,2.87-3.41,5.58-3.41,7.91s2,1.86,1.78,5.42c.16,2-.54,1.55-.77,3.49Z" stroke="#000" stroke-width="0.9" fill="url(#Dégradé_sans_nom_5)"/><path d="M423.32,241.61a2,2,0,1,1-2-2A2,2,0,0,1,423.32,241.61Z" fill="#ffc72c" stroke="#000" stroke-width="0.9"/></g><g id="use882"><path d="M411,290.2l10.85-16,11.08,16.12" fill="none" stroke="#ffc72c" stroke-width="1.9"/><path d="M424.1,284.16a2.17,2.17,0,0,1-4.34,0h0a2.17,2.17,0,0,1,4.34,0Z" fill="#ffc72c" stroke="#000" stroke-width="0.9"/><path d="M413,302.06h17a3.91,3.91,0,0,0-1.78-3.49c8.91-1.24,6.58-9,13.94-9.45,1.55.23-3.87,3.33-3.87,3.33s-4.42,3.1-2.33,4.73c1.55,1.32,2.33-.78,2.48-2.33s7.21-2.55,6.2-7c-1.62-3.64-11.39,2.48-11.39,2.48l-7-.08c-.47-.77-2.33-3.87-4.34-3.87-2.33,0-4,3.87-4,3.87H402.17s-.55,4.11,7.44,4.88a9.36,9.36,0,0,0,4.8,3.57,3.83,3.83,0,0,0-1.39,3.33Z" fill="#ffc72c" stroke="#000" stroke-width="0.9"/><path d="M414.26,298.65h14.1" fill="#ffc72c" stroke="#000" stroke-width="0.9"/><path d="M407.82,290.36s1.09,6.59,6.36,8.14" fill="#ffc72c" stroke="#000" stroke-width="0.9"/><path d="M407,290.2c.47-2.48,1.47-2.94,2.48-6.2.16-3.1-2.48-2.71-1.7-4.65,1.39-2.24.69-4.34-1.94-6,.54,2.86-3.41,5.58-3.41,7.9s2,1.86,1.78,5.43c.16,2-.54,1.55-.77,3.48Z" stroke="#000" stroke-width="0.9" fill="url(#Dégradé_sans_nom_6)"/><path d="M423.94,274.63a2,2,0,1,1-2-2A2,2,0,0,1,423.94,274.63Z" fill="#ffc72c" stroke="#000" stroke-width="0.9"/></g><g id="use884"><path d="M527.32,132l10.85-16,11.09,16.12" fill="none" stroke="#ffc72c" stroke-width="1.9"/><path d="M540.42,126a2.17,2.17,0,0,1-4.34,0h0a2.17,2.17,0,1,1,4.34,0Z" fill="#ffc72c" stroke="#000" stroke-width="0.9"/><path d="M529.34,143.89h17a3.91,3.91,0,0,0-1.78-3.49c8.91-1.24,6.59-9,14-9.45,1.55.23-3.88,3.33-3.88,3.33s-4.41,3.1-2.32,4.73c1.55,1.31,2.32-.78,2.48-2.33s7.2-2.56,6.2-7c-1.63-3.65-11.39,2.48-11.39,2.48l-7-.08c-.46-.78-2.32-3.88-4.34-3.88-2.32,0-4,3.88-4,3.88H518.49s-.54,4.11,7.44,4.88a9.4,9.4,0,0,0,4.8,3.57,3.82,3.82,0,0,0-1.39,3.33Z" fill="#ffc72c" stroke="#000" stroke-width="0.9"/><path d="M530.58,140.48h14.1" fill="#ffc72c" stroke="#000" stroke-width="0.9"/><path d="M524.15,132.19s1.08,6.58,6.35,8.13" fill="#ffc72c" stroke="#000" stroke-width="0.9"/><path d="M523.29,132c.47-2.48,1.48-2.94,2.48-6.2.16-3.1-2.48-2.71-1.7-4.65,1.39-2.24.7-4.34-1.94-6,.54,2.86-3.41,5.57-3.41,7.9s2,1.86,1.78,5.42c.16,2-.54,1.55-.77,3.49Z" stroke="#000" stroke-width="0.9" fill="url(#Dégradé_sans_nom_7)"/><path d="M540.27,116.46a2,2,0,1,1-2-2A2,2,0,0,1,540.27,116.46Z" fill="#ffc72c" stroke="#000" stroke-width="0.9"/></g><g id="use886"><path d="M526.24,163.42l10.85-16,11.08,16.12" fill="none" stroke="#ffc72c" stroke-width="1.9"/><path d="M539.34,157.37a2.17,2.17,0,0,1-4.34,0v0a2.17,2.17,0,0,1,4.34,0Z" fill="#ffc72c" stroke="#000" stroke-width="0.9"/><path d="M528.25,175.28h17a3.91,3.91,0,0,0-1.79-3.49c8.92-1.24,6.59-9,13.95-9.46,1.55.24-3.87,3.34-3.87,3.34s-4.42,3.1-2.33,4.72c1.55,1.32,2.33-.77,2.48-2.32s7.21-2.56,6.2-7c-1.62-3.64-11.39,2.48-11.39,2.48l-7-.07c-.47-.78-2.33-3.88-4.34-3.88-2.33,0-4,3.88-4,3.88H517.4s-.54,4.1,7.44,4.88a9.45,9.45,0,0,0,4.81,3.56,3.83,3.83,0,0,0-1.4,3.34Z" fill="#ffc72c" stroke="#000" stroke-width="0.9"/><path d="M529.49,171.87H543.6" fill="#ffc72c" stroke="#000" stroke-width="0.9"/><path d="M523.06,163.57s1.09,6.59,6.36,8.14" fill="#ffc72c" stroke="#000" stroke-width="0.9"/><path d="M522.21,163.42c.46-2.48,1.47-2.95,2.48-6.2.15-3.1-2.48-2.71-1.71-4.65,1.4-2.25.7-4.34-1.93-6,.54,2.87-3.41,5.58-3.41,7.91s2,1.86,1.78,5.42c.15,2-.54,1.55-.78,3.49Z" stroke="#000" stroke-width="0.9" fill="url(#Dégradé_sans_nom_8)"/><path d="M539.18,147.84a2,2,0,1,1-2-2A2,2,0,0,1,539.18,147.84Z" fill="#ffc72c" stroke="#000" stroke-width="0.9"/></g><g id="use888"><path d="M524.84,195.58l10.85-16,11.09,16.12" fill="none" stroke="#ffc72c" stroke-width="1.9"/><path d="M537.94,189.53a2.17,2.17,0,0,1-4.34,0v0a2.17,2.17,0,0,1,4.34,0Z" fill="#ffc72c" stroke="#000" stroke-width="0.9"/><path d="M526.86,207.44h17a3.91,3.91,0,0,0-1.78-3.49c8.91-1.24,6.59-9,14-9.46,1.55.24-3.88,3.34-3.88,3.34s-4.41,3.1-2.32,4.72c1.55,1.32,2.32-.77,2.48-2.32s7.2-2.56,6.2-7c-1.63-3.64-11.39,2.48-11.39,2.48l-7-.07c-.46-.78-2.32-3.88-4.34-3.88-2.32,0-4,3.88-4,3.88H516s-.54,4.1,7.44,4.88a9.43,9.43,0,0,0,4.8,3.56,3.85,3.85,0,0,0-1.39,3.34Z" fill="#ffc72c" stroke="#000" stroke-width="0.9"/><path d="M528.1,204h14.1" fill="#ffc72c" stroke="#000" stroke-width="0.9"/><path d="M521.67,195.73s1.08,6.59,6.35,8.14" fill="#ffc72c" stroke="#000" stroke-width="0.9"/><path d="M520.81,195.58c.47-2.48,1.48-3,2.48-6.2.16-3.1-2.48-2.71-1.7-4.65,1.39-2.25.7-4.34-1.94-6,.54,2.87-3.41,5.58-3.41,7.91s2,1.86,1.78,5.42c.16,2-.54,1.55-.77,3.49Z" stroke="#000" stroke-width="0.9" fill="url(#Dégradé_sans_nom_9)"/><path d="M537.79,180a2,2,0,1,1-2-2A2,2,0,0,1,537.79,180Z" fill="#ffc72c" stroke="#000" stroke-width="0.9"/></g><g id="use890"><path d="M526.47,227.12l10.85-16L548.4,227.2" fill="none" stroke="#ffc72c" stroke-width="1.9"/><path d="M539.57,221.08a2.17,2.17,0,0,1-4.34,0h0a2.17,2.17,0,0,1,4.34,0Z" fill="#ffc72c" stroke="#000" stroke-width="0.9"/><path d="M528.49,239h17a3.91,3.91,0,0,0-1.78-3.49c8.91-1.24,6.58-9,14-9.45,1.54.23-3.88,3.33-3.88,3.33s-4.42,3.1-2.32,4.73c1.55,1.31,2.32-.78,2.48-2.33s7.2-2.56,6.19-7c-1.62-3.65-11.39,2.48-11.39,2.48l-7-.08c-.47-.78-2.33-3.88-4.34-3.88-2.33,0-4,3.88-4,3.88H517.64s-.55,4.11,7.44,4.88a9.36,9.36,0,0,0,4.8,3.57,3.82,3.82,0,0,0-1.39,3.33Z" fill="#ffc72c" stroke="#000" stroke-width="0.9"/><path d="M529.73,235.57h14.1" fill="#ffc72c" stroke="#000" stroke-width="0.9"/><path d="M523.29,227.28s1.09,6.58,6.36,8.13" fill="#ffc72c" stroke="#000" stroke-width="0.9"/><path d="M522.44,227.12c.47-2.48,1.47-2.94,2.48-6.2.16-3.1-2.48-2.71-1.7-4.65,1.39-2.25.69-4.34-1.94-6,.54,2.87-3.41,5.58-3.41,7.91s2,1.86,1.78,5.42c.16,2-.54,1.55-.77,3.49Z" stroke="#000" stroke-width="0.9" fill="url(#Dégradé_sans_nom_10)"/><path d="M539.41,211.54a2,2,0,1,1-2-2A2,2,0,0,1,539.41,211.54Z" fill="#ffc72c" stroke="#000" stroke-width="0.9"/></g><g id="use892"><path d="M526.08,258.74l10.85-16L548,258.82" fill="none" stroke="#ffc72c" stroke-width="1.9"/><path d="M539.18,252.69a2.17,2.17,0,0,1-4.34,0v0a2.17,2.17,0,0,1,4.34,0Z" fill="#ffc72c" stroke="#000" stroke-width="0.9"/><path d="M528.1,270.6h17a3.91,3.91,0,0,0-1.78-3.49c8.91-1.24,6.59-9,14-9.46,1.55.24-3.88,3.34-3.88,3.34s-4.41,3.1-2.32,4.72c1.55,1.32,2.32-.77,2.48-2.32s7.2-2.56,6.2-7c-1.63-3.64-11.39,2.48-11.39,2.48l-7-.07c-.46-.78-2.32-3.88-4.34-3.88-2.32,0-4,3.88-4,3.88H517.25s-.54,4.1,7.44,4.88a9.43,9.43,0,0,0,4.8,3.56,3.85,3.85,0,0,0-1.39,3.34Z" fill="#ffc72c" stroke="#000" stroke-width="0.9"/><path d="M529.34,267.19h14.1" fill="#ffc72c" stroke="#000" stroke-width="0.9"/><path d="M522.91,258.89s1.08,6.59,6.35,8.14" fill="#ffc72c" stroke="#000" stroke-width="0.9"/><path d="M522.05,258.74c.47-2.48,1.48-3,2.48-6.2.16-3.1-2.48-2.71-1.7-4.65,1.39-2.25.7-4.34-1.94-6,.54,2.87-3.41,5.58-3.41,7.91s2,1.86,1.78,5.42c.16,2-.54,1.55-.77,3.49Z" stroke="#000" stroke-width="0.9" fill="url(#Dégradé_sans_nom_11)"/><path d="M539,243.16a2,2,0,1,1-2-2A2,2,0,0,1,539,243.16Z" fill="#ffc72c" stroke="#000" stroke-width="0.9"/></g><g id="use894"><path d="M526.24,290.51l10.85-16,11.08,16.12" fill="none" stroke="#ffc72c" stroke-width="1.9"/><path d="M539.34,284.47a2.17,2.17,0,0,1-4.34,0h0a2.17,2.17,0,0,1,4.34,0Z" fill="#ffc72c" stroke="#000" stroke-width="0.9"/><path d="M528.25,302.37h17a3.91,3.91,0,0,0-1.79-3.49c8.92-1.24,6.59-9,13.95-9.45,1.55.23-3.87,3.33-3.87,3.33s-4.42,3.1-2.33,4.73c1.55,1.32,2.33-.78,2.48-2.33s7.21-2.55,6.2-7c-1.62-3.64-11.39,2.48-11.39,2.48l-7-.08c-.47-.77-2.33-3.87-4.34-3.87-2.33,0-4,3.87-4,3.87H517.4s-.54,4.11,7.44,4.88a9.42,9.42,0,0,0,4.81,3.57,3.81,3.81,0,0,0-1.4,3.33Z" fill="#ffc72c" stroke="#000" stroke-width="0.9"/><path d="M529.49,299H543.6" fill="#ffc72c" stroke="#000" stroke-width="0.9"/><path d="M523.06,290.67s1.09,6.59,6.36,8.14" fill="#ffc72c" stroke="#000" stroke-width="0.9"/><path d="M522.21,290.51c.46-2.48,1.47-2.94,2.48-6.2.15-3.1-2.48-2.71-1.71-4.65,1.4-2.24.7-4.34-1.93-6,.54,2.86-3.41,5.58-3.41,7.9s2,1.86,1.78,5.43c.15,2-.54,1.55-.78,3.48Z" stroke="#000" stroke-width="0.9" fill="url(#Dégradé_sans_nom_12)"/><path d="M539.18,274.94a2,2,0,1,1-2-2A2,2,0,0,1,539.18,274.94Z" fill="#ffc72c" stroke="#000" stroke-width="0.9"/></g><g id="g996"><path id="path896" d="M492.22,305.47s4.41,10.23,9.45,3.88,3.26-8.92,3.26-8.92l-11.32-6.12-3.33,7,1.94,4.18Z" fill="#ffc72c" stroke="#000" stroke-width="0.9"/><path id="path898" d="M502,304.15s.78.08,1.32-1-1.32-1.55-2.25-2.79l-.93,1.93Z" fill="#ffc6b5" stroke="#000" stroke-width="0.9"/><path id="path900" d="M476.41,301.36l-9.92,5.43s-5,1-5.27,0,.08-1.78,2.71-1.94,9.53-6.51,9.53-6.51l3,3.1Z" fill="#ffc6b5" stroke="#000" stroke-width="0.9"/><path id="path902" d="M476.56,124.75l.31,3.56c.16,1.24-1.93,3.88-2,3.72s-1.16.16-1,.85,1.55,1,1.55,1-.54,2.56,0,2.71-1.55,3.26,0,4.11,4.34,2,5.58,1.78,0,4.73,0,4.73l-3.49,7.36,18.91-1.93-3.87-6.2s-1.86-1.32-1.4-4.89-.23-19.6-.23-19.6l-13.48-1.86-.86,4.65Z" fill="#ffc6b5" stroke="#000" stroke-width="0.9"/><path id="path904" d="M473.08,152.8a11,11,0,0,0-5.89,10.39c-1.55,7.36-2.41,14.72-2.41,14.72s-7.28,8.21-9.45,11.24-5.58,8.91-6.74,10.54-6,6.82-6,8.83-1.09,10.7,3.72,11.63c1.24.54,5.19-10.08,5.19-10.08s.23-4.49-1.16-5.42c-1.32-.78,2.94-3.72,2.94-3.72l10.08-7.52c1.86-1.55,6.9-7.13,6.9-7.13l2.79-33.48Z" fill="#ffc6b5" stroke="#000" stroke-width="0.9"/><path id="path906" d="M480.13,147s1.55,4.34,5.11,3.56,7.75-4,7.75-4,3.33-.15,3.8.39,9,8.68,8.68,11.24-3.88,1.86-5.27,3.56-3.57,6-2.95,9.3,2.48,7.29,2.25,8.92S498,182,498,182.87s1.09,2.32,1.09,3.87-1.55,4-1.24,5.58.31,6.2.31,6.2l-.31,21.7a2.69,2.69,0,0,1,1.31,1.94c.16,1.16,8.37,36.89,8.37,36.89s-.38,1.16-1.24,1,3.34,5.5,3.41,7.13,4.34,14.1,4.19,15.81-.78,5.58-1.09,5.65,2.72,7.91,2.17,9.07-5.42,1.16-5.42,1.16l-1.4-.31s.08,1.63-.85,1.79S499,300,499,300s-2.1,3.18-3.33,3.1-2.87-2.33-3.18-2,1.08,2.48.77,3.1c-.46.62-6.66,1.94-7.9-1s.77-2.17.31-2.79c-.31-.62-3.1-2.25-4-1.79s2.25,1.24,2.09,2.48-2.71,3.1-3.64,3.1-3.33-4.57-6.82-4.1a29.41,29.41,0,0,0-5.58,1.39s-4.11,1.71-5.81,1.32a2.89,2.89,0,0,1-2.48-2.4c0-.78,1.24-4,1.16-5s-1.16-1.94-1.16-3.41,2.86-6.51,2.86-6.51l-.15-22.63s-2.56,0-2.71-1.55,3.95-35.73,4.65-38l2.17-10.07s-1.86.93-2,0c-.08-.78,5.58-20.31,5.58-20.31s.93-9.76.93-12.32a59.39,59.39,0,0,0-.46-6.12s-5-2.17-5.2-5.42c-.46-5.2,4.81-8.06,5.43-9.77l2.48-7s2.71-4.65,7.13-5.35Z" fill="#fff" stroke="#000" stroke-width="0.9"/><path id="path908" d="M478.27,302.91s-11.94,6.2-13.64,6.75-2.79-2.1-1.09-2.56a26.15,26.15,0,0,1,4.42-.78s-4-3.17-3.87-3.33l5.58-2c.15,0,1.7,3.1,2.79,2.94,1.16-.31,4.34-2.71,4.34-2.71l1.47,1.7Z" fill="#ffc72c" stroke="#000" stroke-width="0.9"/><path id="path910" d="M495,306.32c1.16,1.48,1.55,4,4.18,2.48s-1.32-4.18-1.32-4.18Z" fill="#ffc6b5" stroke="#000" stroke-width="0.9"/><path id="path912" d="M499.73,306.09a1.7,1.7,0,0,0,2.33-.15c1.08-1.09-2.17-3.41-2.17-3.41l-1.63,1.86Z" fill="#ffc6b5" stroke="#000" stroke-width="0.9"/><path id="path914" d="M505,158.77A157.58,157.58,0,0,1,509.58,174c.46,3.1,2.09,15.34,1.47,17s-6.9,9.92-7.6,12-5.19,10.07-5.19,10.07-1.08,7.91-1.55,8.22,1.24,2.32,1.09,2.94c-.24.78-3.57,4.19-5,3.88s-3.87-2.09-3.87-3.72c-.24-1.55,0-6.9,1.16-8.22s6.89-14.95,7.2-15.81,5.27-11.62,5.43-13.4-1.55-6.12-3.26-7.67c-3.87-11.4-2.32-18.22,5.58-20.54Z" fill="#ffc6b5" stroke="#000" stroke-width="0.9"/><path id="path916" d="M476.1,124.05s2.79.39,4.26-.47,3.18-1.24,4.42.47,2.09,1.55,2.09,1.55-1.86,4.65,0,5.11,2.71.47,2.79,1.09-1.55,1.94-1.08,2.56,1.31,1.31,1.47,1.86-1.09,2.55-.78,3.1,1.55,2.4,2.25,2.4.23,3.1,2.48,2.32a2.89,2.89,0,0,0,2.09-2.71,3.72,3.72,0,0,0,3-2.4,3.73,3.73,0,0,1,2-2.64s2.95-1.55-.93-4c0-17.2-11.31-15.34-11.31-15.34s-1.32-3.1-3.57-2.71-2.32,2.94-3.87,2.71a3.07,3.07,0,0,1-2.09-1.24,13.46,13.46,0,0,0-1.55,3.18c0,.62-4.27-.78-3.88,2.32.39,3.26,2.48,3.1,2.33,2.87Z" fill="#9c5100" stroke="#000" stroke-width="0.9"/><g id="g994"><path id="path918" d="M496.09,151.79s-10.92,7-10.69,9.46" fill="none" stroke="#000" stroke-width="0.9"/><path id="path920" d="M498.57,153s-2.48,2.72-2.63,2.72" fill="none" stroke="#000" stroke-width="0.9"/><path id="path922" d="M501.83,156s-5.43,4.42-4.58,7.21" fill="none" stroke="#000" stroke-width="0.9"/><path id="path924" d="M476.33,151.17s-1.63,3.34-1.24,4.42,3.1,5.27,3.41,7.83a13.48,13.48,0,0,1,0,4.42" fill="none" stroke="#000" stroke-width="0.9"/><path id="path926" d="M473.46,157.3s.47,3.87,1.24,4.65a17.14,17.14,0,0,1,2.95,5.42" fill="none" stroke="#000" stroke-width="0.9"/><path id="path928" d="M472.46,173.65s3.25,1.55,6.2-4.57" fill="none" stroke="#000" stroke-width="0.9"/><path id="path930" d="M483.38,164.81c-.07,0-2.32,6,1.63,8.22s6.9,1.94,8.52,1.32a18.32,18.32,0,0,0,3.65-1.71" fill="none" stroke="#000" stroke-width="0.9"/><path id="path932" d="M481.68,172.18s.23,8.06,12.16,16" fill="none" stroke="#000" stroke-width="0.9"/><path id="path934" d="M482.22,179.77s-.15,7.13,4.5,10.31" fill="none" stroke="#000" stroke-width="0.9"/><path id="path936" d="M479.74,171.4S476.18,182,473.31,183" fill="none" stroke="#000" stroke-width="0.9"/><path id="path938" d="M478.66,179.15s-.16,7.59-1.17,10.31" fill="none" stroke="#000" stroke-width="0.9"/><path id="path940" d="M476.56,191.32s2.41,3.1,5.12,2.79,3.87-3.41,5.66-3,3.56,2,7.82,1.63" fill="none" stroke="#000" stroke-width="0.9"/><path id="path942" d="M489,196s0,6.27,1.16,6.89.55,6.36.55,6.36" fill="none" stroke="#000" stroke-width="0.9"/><path id="path944" d="M474.08,193s-.15,5.89-.85,8-2.25,5.66-1.94,8.76" fill="none" stroke="#000" stroke-width="0.9"/><path id="path946" d="M466.57,213.17a19.53,19.53,0,0,0,2.71-2.09" fill="none" stroke="#000" stroke-width="0.9"/><path id="path948" d="M470.36,212.4s-5.27,22.63-3.79,36.11" fill="none" stroke="#000" stroke-width="0.9"/><path id="path950" d="M471.6,213.56s-2.71,16.89-1.47,20.15" fill="none" stroke="#000" stroke-width="0.9"/><path id="path952" d="M470.29,213l10.3.77" fill="none" stroke="#000" stroke-width="0.9"/><path id="path954" d="M482.07,212.4a12.93,12.93,0,0,0,6.74,1.24" fill="none" stroke="#000" stroke-width="0.9"/><path id="path956" d="M480.83,220.69s-.47,28.9-1.24,35.34" fill="none" stroke="#000" stroke-width="0.9"/><path id="path958" d="M495.94,227.28s3.17,25.41,5,27.74" fill="none" stroke="#000" stroke-width="0.9"/><path id="path960" d="M489.82,230.45s1.93,22.48,3.1,24.49" fill="none" stroke="#000" stroke-width="0.9"/><path id="path962" d="M461.92,262.77a19.12,19.12,0,0,0,7.28-4.88c3.88,5.27,9.92.23,9.92.23s9.3,6.35,13.49-.78c6.43,4.19,9.6-.62,9.6-.62s2.33,3.57,4,3.18" fill="none" stroke="#000" stroke-width="0.9"/><path id="path964" d="M496.09,262.38s4.73,22.48,11.86,28.83" fill="none" stroke="#000" stroke-width="0.9"/><path id="path966" d="M471.45,260.06s.54,18.75,1.63,32" fill="none" stroke="#000" stroke-width="0.9"/><path id="path968" d="M470.52,281.29s-.62,12.25-1.32,13.18" fill="none" stroke="#000" stroke-width="0.9"/><path id="path970" d="M463.31,295.63s1.32,5.35,8.06.39,6.9,1.86,7.13,2.55,1.32,6.05,3.88,1.63" fill="none" stroke="#000" stroke-width="0.9"/><path id="path972" d="M487.8,293s-1.08,10.85,8.6,2.95,11.32-.16,11.63,2.32" fill="none" stroke="#000" stroke-width="0.9"/><path id="path974" d="M488,119.86s-.86,5.43,4.88,4.89c-.78,3,1.55,3.95,1.55,3.95" fill="none" stroke="#000" stroke-width="0.9"/><path id="path976" d="M498.57,132c.16,0,2.64,1.55,0,3.57" fill="none" stroke="#000" stroke-width="0.9"/><path id="path978" d="M490.28,136.29s1.24,1.55,2.56,1.17,3.56,1.31,3.56,1.31,1.86.62,2.09.24" fill="none" stroke="#000" stroke-width="0.9"/><path id="path980" d="M482.76,140.94s4.19,1.63,7-5" fill="none" stroke="#000" stroke-width="0.9"/><path id="path982" d="M475.09,134l2.4.15" fill="none" stroke="#000" stroke-width="0.9"/><path id="path984" d="M447.81,211.47l.23,5.34" fill="none" stroke="#000" stroke-width="0.9"/><path id="path986" d="M442.77,211s3.49,5.81,3.1,8.84" fill="none" stroke="#000" stroke-width="0.9"/><path id="path988" d="M475.4,136.45h2.25l-1.94.85" fill="none" stroke="#000" stroke-linejoin="round" stroke-width="0.9"/><path id="path990" d="M489,223.09s2.56-.31,2.48,4c1.63-5.42,5-5.5,5-5.5" fill="none" stroke="#000" stroke-linejoin="round" stroke-width="0.9"/><path id="path992" d="M478.5,129.55c.39,0,1.71-.46,1.94-.08S479,130.09,478.5,129.55Z" fill="none" stroke="#000" stroke-linejoin="round" stroke-width="1.7"/></g></g><g id="g1008"><path id="path998" d="M480.21,346a124.28,124.28,0,0,0,84.93-39.29c-.31-.31,6.9-10.38,12.63-9s14,18.37,24.11,22c5,7.9-1.4,15.11-3.57,16.51s-11.93,5.42-13.33-.31-4.34-4.65-4.34-4.65-46.11,45-99.35,43.16c-55,.31-100.44-43.24-100.44-43.24l-4,4.34s-4.34,4.65-6.51,4.34-11.54-6.51-12.24-12.63,5.73-10.08,5.73-10.08,15.89-12.24,17.67-18.67C385.19,294.85,392,301,392,301s41.77,47.89,88.2,44.94Z" fill="#ffc72c" stroke="#000" stroke-width="1.9"/><path id="path1000" d="M362.88,318.1s4.26-1.08,5.81.7,12.4,12.4,12.4,12.4" fill="none" stroke="#000" stroke-width="1.9"/><path id="path1002" d="M372.64,323.14l-4.34,3.18s10.85,2.17,8.37,9.3" fill="none" stroke="#000" stroke-width="1.9"/><path id="path1004" d="M598,317.79s-2.09-1.16-5.42,1.32-11.86,12-11.86,12" fill="none" stroke="#000" stroke-width="1.9"/><path id="path1006" d="M588.39,322.83l4.65,3.56s-9.69.7-7.59,9.85" fill="none" stroke="#000" stroke-width="1.9"/></g><g id="g1026"><path id="path1010" d="M417.74,329.57c-.31.78-1.08,0-1.7.16-1.55,0-3,1.08-4.34,1.86l-14.26,8.29c-.47-.16-.39-.54-.23-.93l3.87-17.83c.16-1,.47-2.32-.54-3.1-.39-.31.23-.85.54-.31l7.29,5.2c-.24.69-.7.15-1.09-.08-1-1-2.25-.08-2.17,1.16l-2.63,11.7c3.25-1.86,6.51-3.72,9.76-5.73,1.09-.47,1.94-2,.78-2.95-.47-.31-1.24-1-.47-1.16l5.19,3.72Z"/><path id="path1012" d="M422.86,354.37c-.16.47-.39.54-.78.23L413.56,350c.08-.54.31-.62.7-.31a1.83,1.83,0,0,0,2.63-.15l3.1-5.66,4.34-7.9a1.83,1.83,0,0,0-1-2.56c-.31-.16-.77-.31-.38-.62.15-.23.62.23.85.31l8.21,4.49c-.08.47-.31.55-.7.24a1.83,1.83,0,0,0-2.63.15l-3.1,5.66-4.34,7.9a1.85,1.85,0,0,0,1,2.56l.62.31Z"/><path id="path1014" d="M455.87,346.62l-2.32,6.51c-1-.08-.31-1.32-.62-1.94a7.37,7.37,0,0,0-5.43-6.35,5.81,5.81,0,0,0-6,2.4,17.69,17.69,0,0,0-3.41,9.46,5.41,5.41,0,0,0,2.48,5,7.74,7.74,0,0,0,4.57,1.16l1.63-4.88c.23-1.09-.93-1.79-1.79-2-.15-.31.16-.77.55-.39l8.52,3.1c0,1-1.24-.15-1.94.31-1,.39-1.08,1.63-1.55,2.56l-1,2.95A20.12,20.12,0,0,1,438.36,362c-3.18-2-5.43-6-4.73-9.85a10.45,10.45,0,0,1,5.58-7.9,10.78,10.78,0,0,1,9.14-.31,13.23,13.23,0,0,1,4.19,2.63,1.63,1.63,0,0,0,2.79-.07l.54.15"/><path id="path1016" d="M469.74,368.94c0,.31,0,.7-.46.47l-9.77-1.48c0-.38,0-.69.47-.46.77.15,2,.15,2.32-.78a23.69,23.69,0,0,0,.78-4l1.7-11.31a1.57,1.57,0,0,0-.85-2,10.94,10.94,0,0,0-1.55-.38c0-.31,0-.62.47-.47l9.76,1.55c0,.31,0,.62-.46.47a1.86,1.86,0,0,0-2.33.77,22.62,22.62,0,0,0-.77,4l-1.71,11.32a1.63,1.63,0,0,0,.93,2.09l1.55.31Z"/><path id="path1018" d="M496.25,362.59l-.39,6.89-17.51.86c-.08-.39,0-.62.46-.55.85,0,2-.38,2.17-1.39l-.23-5.12-.54-10.38a1.62,1.62,0,0,0-1.79-1.71c-.31-.15-1.16.31-1.08-.23-.16-.46.54-.23.77-.31l9.77-.54c0,.46,0,.7-.54.62-.86,0-2,.15-2.33,1.24a40.9,40.9,0,0,0,.16,4.42l.54,10.85a1.55,1.55,0,0,0,1.7,1.55,19.91,19.91,0,0,0,4.27-.39c1.93-.54,2.94-2.48,3.48-4.26.39-.47,0-1.71.78-1.55h.31"/><path id="path1020" d="M509.81,345.69c-.47,0-.23.62-.39.93-.77,5.81-1.47,11.63-2.32,17.36-.16,1.32-.47,2.79-1.71,3.41a.34.34,0,1,0,.39.54l5.81-1.78c-.08-.93-1.24,0-1.86-.23-1.32,0-1.55-1.63-1.32-2.64a16.88,16.88,0,0,1,.24-2.09l6.66-2c.85,1.08,1.78,2.09,2.56,3.25.62,1.09-.78,1.55-1.55,1.78-.47,0-.16.78.23.47l8.76-2.64c0-1-1.24,0-1.78-.77a22.53,22.53,0,0,1-4.19-4.42l-9.53-11.16Zm0,7,4.65,5.65L508.8,360Z"/><path id="path1022" d="M539.72,332.67l2.56,4.65c-.77.78-1.24-.85-1.94-1.08a3.63,3.63,0,0,0-4.26-.39l-1.55.85,7.6,14.18a1.9,1.9,0,0,0,2.86.78c.31-.31.7-.47.78.08-1.24.77-2.71,1.47-4,2.17l-5,2.71c-.39-.39-.15-.62.31-.78a1.85,1.85,0,0,0,1.12-2.38,2,2,0,0,0-.27-.48l-7.51-14c-1.4.77-3.1,1.39-3.49,3.1-.39,1.16.15,2.48.15,3.41-.38.46-.54-.16-.77-.47l-2.09-4,15.57-8.37Z"/><path id="path1024" d="M551.58,325.62l4.81,6.43a3.46,3.46,0,0,0,1.7-3.41c.16-1.08-1.39-2.32-.85-3.1.31-.15.54.62.77.85l5.58,7.37c-.77.77-1.24-.86-2-1.09a3.17,3.17,0,0,0-3.72-.31c-.85.31-.78.78-.23,1.32,1.24,1.63,2.48,3.41,3.87,5,.77.77,1.86,0,2.56-.62,1.86-1.24,3.48-3.26,3.41-5.58.15-1.09-.55-2.17-.55-3.1.47-.55.55.31.78.62l2.63,4.65L556.7,345c-.55-.38,0-.69.38-.93,1.24-.77.86-2.4,0-3.25l-8.83-11.55c-.78-1-2.17-.46-2.87.23-.39.47-.77-.38-.23-.46l12.78-9.69,3.49,4.65c-.77.78-1.55-1-2.4-1.08-1.71-.93-3.72-.24-5.11.93l-2.41,1.78"/></g></g></svg>