<svg id="flag-icons-vi" xmlns="http://www.w3.org/2000/svg" viewBox="0 0 640 480"><title>vi</title><path d="M0,0H640V480H0Z" fill="#fff"/><path d="M204.3,315s-.5-3.6,6.2-6.1,7.2-12.2,5.8-18.6c0,0-3.4,6-7.7,8.1,0,0-6.8,3.6-7.2,10.4a22,22,0,0,1-.5,4.5c-.3,1-3.4-8.6,2.4-15.8,6-7.3,7.6-13.3,2.9-25,0,0-.5,7-5.1,11.1s-5.3,4.4-5.2,14c0,0,0,3.4-1.7,4.5,0,0-3.6-5.3-4.6-8.8s-1.4-5,2.8-9c0,0,13.2-8.7,3.7-27.4,0,0-.3,6.4-5,10.2-4.5,3.9-4.2,6.4-4.4,13s-.6,6.2-1.1,7.2c0,0-8.5-15.6-2-23.8s10.2-10,3-25.4c0,0,.3,8-5.5,11.8-5.7,4-4.4,13-4.4,13a12.9,12.9,0,0,1-.8,6s-8.1-15.9-.4-24.4c6.6-7.3,7-12.4,3.5-22.6,0,0-.4,4.7-4,7.3s-6.6,5.1-5.9,15c0,0,.3,7-.6,9,0,0-3.4-6.4-4.4-10.5s-1.3-6.6,1.2-10.7,12.5-16,.6-33a24.83,24.83,0,0,1-3.4,10.5c-3,5-1.6,10.9-1,15.4a16.79,16.79,0,0,1-1.5,8.9s-5.2-9.5-4-20.4c1-11-3.4-20-13.5-26.4,0,0-7.3,17,2.7,25.7,0,0,8.5,8.4,10.7,18.6,0,0-6.5-.6-12.3-12s-18-9.6-18.8-9.7c0,0,2,17.6,20.6,22.6,0,0,12,2,14.2,10.8,0,0,2,6,2.8,9.2,0,0-3.8-1.5-7.3-6.7-3.5-5-3-5.7-14.8-6.9,0,0-4.7-.5-7.2-3.9,0,0,5,18.6,17.7,18.5,0,0,11.6-1.3,18,14l-2.9-2c-1.7-1.1-6-3.3-14.5-2.3s-10.9-.4-13-1c0,0,8.6,15.7,20.7,11s18,12.4,18.2,12.7a32.64,32.64,0,0,1-3.8-3.3c-2.2-2.1-6.6-4.7-15-2a21.19,21.19,0,0,1-12.3.4s6,11.5,19.8,9.5a15.1,15.1,0,0,1,17.3,10.2,23.36,23.36,0,0,1-3-2c-1.3-1-6-3.7-16-.8s-13.6-.4-13.6-.4,5.5,10,16.2,11.3c0,0,6-.1,8.4-1a11.15,11.15,0,0,1,13.8,4.2,6,6,0,0,1-3.2-.7s-7-2.5-12.5,2c0,0-4.8,4.9-11.6,4,0,0,8.8,8.5,22.8,1.3,0,0,4.7-3.4,8.2-.8s11.5-2.6,11.5-2.6Z" fill="#369443" stroke="#010002" stroke-miterlimit="10" stroke-width="1.5"/><path d="M282.2,103.7s-1.6-14.5,10-16a38,38,0,0,1,18,1.2l5.5,10.6-2,7.2-7.4,3.4s1.3-11-8.8-11.2c-2.6,0-4,1-8.1.3S283.1,103,282.2,103.7Z" fill="#f4c53d" stroke="#010002" stroke-miterlimit="10" stroke-width="1.5"/><path d="M363.8,139.6c-1.8,2.2-8.7,3-8.7,3s7.1,5.5,10.2,13.3-82.4,0-82.4,0a21.6,21.6,0,0,0,6.3-7.6s-3.8,1.4-7.6-2.4c0,0,2.8,1,6.5-4.6,0,0,5.5-7,9.4-9,0,0-1.8,1.2-6.1-1.2,0,0,7.4-1,10-13.5a20.84,20.84,0,0,1,3.3-7c2.8-4,2.2.9,7.4-5.4,0,0,2.4-4.4.3-7-2-2.8-4.3-1.8-8.6-4.4s-6.3-4-4.8-8,5.3-3.4,5.9-3.4.8-3.5,5.5-5.9,17.4-1.3,19.2-.3c2,1,9.5,3.3,14,14.5s-1.2,15.4,10.8,32.4c0,0-4.8,1-7.9,0,0,0,6.3,11.2,17.3,16.5Z" fill="#f4c53d" stroke="#010002" stroke-miterlimit="10" stroke-width="1.5"/><path d="M311,92.2c-10-.5-6.1-9.8-6.1-9.8" fill="none" stroke="#010002" stroke-miterlimit="10" stroke-width="1.5"/><path d="M328,93.5a9.62,9.62,0,0,1-3.2-2.8c-2-2.7-6.7-4-9.1-1.4,0,0-2.5,2.8-4.8,3a11.6,11.6,0,0,1,4.3,2.3c1.7,1.6,3.5,2.8,6.1,2.4s3-1.7,4.2-2.5A7.73,7.73,0,0,1,328,93.5Z" fill="#f4c53d" stroke="#010002" stroke-miterlimit="10" stroke-width="1.5"/><path d="M202.8,336.5s-.2-6.4,7.8-6.8l23.5,32.7s-.9,2.1-11.5,1.9a2.13,2.13,0,0,0-1.8,1.2c-.9,2-18-29-18-29Z" fill="#369443" stroke="#010002" stroke-miterlimit="10" stroke-width="1.5"/><g id="a"><path d="M228.67,298.38s-7.51,12.89-16.59,13.1c0,0-15.61-1.9-20,2.18-3.09,2.85-6.23,5.19-7.53,12.47s2.49,8.83,3.37,9.15c0,0,.7,5.19,5.83,3.84,0,0,.3,5.42,9.36,2.81s12.85-1.77,14.61-10.81,3.43-8.89,5-10c2.17-1.46,6.25-2.83,9.27-4.57,2.71-1.57,13.13-6.87,16.69-7.28s2.77-12.37,2.77-12.37h-9.19l-4.44-6.55-9.18,8Zm28.91-64.65s-9.19,7.49-16.89,0c0,0-3.11,3.74-9.34,2.65s-7.24-4.36-7.83-6.23c0,0-5.39,3.13-9.93.65s-4.52-6.22-4.52-6.22-7.9,1.57-11.95-3.79-1.58-10.65.6-11.28c0,0-8.54,2.24-10.87-5.09a8.43,8.43,0,0,1,2.47-9.45s-18-.09-25.35-5.72c0,0-6.13-3.86-2.47-7.91,0,0-16.19-2.59-20.24-9a5.65,5.65,0,0,1-1.19-4.89,2,2,0,0,1,1.89-1.87s-18.46-2.86-23.79-8.94a6.89,6.89,0,0,1-1.28-6.55,7.08,7.08,0,0,1,.71-1.66s-16.8-3.54-25.09-11c0,0-4.78-4.26-2.31-10,0,0-28.08-7.68-21.58-20.05,0,0-13.13-4.26-9-16.11,0,0-10.85-5.51-6.13-14.24,4.53-8.36,18.46,1.46,34.93,6,0,0,44.62,14,66.59,17.76l62.42,92.94,36.41,14,3.69,26Z" fill="#f4c53d" stroke="#010002" stroke-width="10"/><path d="M258,165.29s-5.85-4.39-16.29.77c0,0-3.5,2.42-6.27-.22a5.61,5.61,0,0,1-.19-7.94,5.17,5.17,0,0,1,.83-.72c7.79-5.77,10.66-23.07-1.17-30.25,0,0-17.16-10.17-80.14-26.19,0,0-5.27-1.48-8.1-.77a7.83,7.83,0,0,0-5.66,5.69s-2.83,8,6.66,12.62a71.91,71.91,0,0,0,8.68,3.22,6.2,6.2,0,0,0-6.92,3.73c-2,4.58.9,9.26,9.78,12.27a49.47,49.47,0,0,0,5.83,1.76s-7.6,2.19-3.94,8.33c0,0,3.25,6.44,14.75,7.59,0,0-8.58.93-2.53,9.09,0,0,2.66,4.47,11,6.13,0,0-6.35.21-3.16,5.91s10.76,8.95,18.2,9.47a31.09,31.09,0,0,0,6.84-.42s-7.08,3.54-2.93,9.46c0,0,3.06,4.21,10.71,4,0,0-2,6.62,3.63,9.12,4.36,2,8-1.17,8-1.17s-1.47,7.09,4.89,9.59c0,0,3.18,1.64,7.92,0,0,0,3.62,8.11,16.5,2.41s3-53.46,3-53.46Zm.76,73.68s-1.88,10.15-16.86,22.92c0,0-11.57,10.19-11.28,21.93.3,12-2.06,13.31-6.61,17.36,0,0,9.38.74,13.91-5.51,0,0-.19,10.39-1.58,11.34,0,0,3,.18,7.21-4.48a19,19,0,0,1,4.94-3.74s-2.77,7.18-.6,13.83c0,0,.69-2.6,4.35-3.75,0,0,6.62-1.35,9.18-10.91,0,0,1.67-6.33,12.05-12,0,0,11.74-4.42,11.44-10.2S258.78,239,258.78,239Z" fill="#f4c53d" stroke="#010002" stroke-width="10"/><path d="M313.21,369.79s-2.7,11.86-12,10.91c0,0-6.61-.63-6.11-11.65,0,0-9.77,5.21-11.35-7.68,0,0-8.88,2.06-8.78-10,0,0-8.28,1.44-7.3-9.26,0,0-9,2.41-9-7.68,0,0-21-3.49,22.79-43.45l39.09,23.28Z" fill="#f4c53d" stroke="#010002" stroke-miterlimit="10" stroke-width="10"/><path d="M317.56,316.51s-6.52,5.78-11.16-2.86c0,0-6.32-.31-7.3-5.09,0,0-5.13-.52-6.13-5.41,0,0-7-.72-6.8-6.64,0,0-12.74-1,0-15.41S320.51,305,320.51,305l-2.95,11.48Zm7.25-3.59c6.33,0,13.48,39.45,11.63,63.22-.68,8.62-5.3,15.67-11.63,15.67s-10.93-7.05-11.59-15.67c-1.87-23.77,5.29-63.22,11.59-63.22" fill="#f4c53d" stroke="#010002" stroke-width="10"/><ellipse cx="324.81" cy="312.62" rx="8.73" ry="12.95" fill="#f4c53d" stroke="#010002" stroke-width="10"/><path d="M295.05,369.05s1-20.88,19.09-50.83M283.7,361.37s-2.82-12.06,22.7-47.72c0,0-3-8.51,6.11-14m-37.59,51.72s-.8-13.05,24.18-42.83c0,0-2.21-7.68,6.83-13.82m-38.31,47.39s.93-13.19,25.35-39c0,0-1.2-7.89,7.53-12.78m-41.85,44.08s1.76-15.07,27.52-37.94c0,0-.89-5.93,7.69-11.95" fill="none" stroke="#010002" stroke-miterlimit="10" stroke-width="10"/><path d="M59.65,91.24S79.87,103,142.89,114.66m-74.27-7.31s54.76,17.85,80.26,20.05m-58.7,0a589.54,589.54,0,0,0,69.75,16.45m-42.33,4.57s36.28,8.71,53.62,10.16m-29.26,7s30.69,6.4,38.46,7.17m-18.92,8.62s22.4,3.4,31.31,3.22M189.32,195s9.06-.42,13.41-1.14m-5,15.7s7.71-2.08,12.24-5m-.88,20.05a17.66,17.66,0,0,0,8.79-8.52m5.67,14.09s4.58-4.11,4.88-8.69m12.29,12.27s-1.72-1.49-.55-7.93m-1.67-9.46a9.39,9.39,0,0,1-.6-4.75M206.1,124.07s10.36,4.16,13.81,9.88,1.19,11.27,0,14.45c-.59,1.61-7.89,15.69.69,25.88m-14.36,11.05s.06,0,3.7-1.2m-25.56-13.76a75.85,75.85,0,0,0,12.24,1.29m-20.78-16.53a138.8,138.8,0,0,0,14.08.63m-24.87-16.53s10.46,2.08,16.08,2.19M156.36,121.5a201.31,201.31,0,0,0,22.5,5m21.31,7.59s-9.27,8.63,1.88,16.63c0,0-4.63,7.28,4.64,14.86m-2.47,3.59S202.84,183,219.82,183c0,0-3.27,12.36,13.13,11.95,0,0,1.86,9.88,13.7,7.89M220.59,311.49s-2.7.6-8.52,0m-16.38,7.27s-8.19-1.25-7.8,16.53m12.73-12.48s-7.4-.93-6.92,16.32m78.39-57.88a12.1,12.1,0,0,0-6,3.53c-2.46,2.8-7.2,2.28-7.2,2.28s2.56-2.08,3.47-7.27,3.74-6.76,3.74-6.76m-8.47-4.91a12.09,12.09,0,0,0-6,3.52c-2.47,2.82-7.22,2.29-7.22,2.29s2.56-2.08,3.47-7.27,3.75-6.76,3.75-6.76m3.56,28.38a10.64,10.64,0,0,0-5.25,3.08c-2.15,2.46-6.29,2-6.29,2s2.26-1.81,3-6.36,3.28-5.9,3.28-5.9" fill="none" stroke="#010002" stroke-width="10"/></g><path d="M418.53,298.38s7.51,12.89,16.59,13.1c0,0,15.61-1.9,20,2.18,3.09,2.85,6.23,5.19,7.53,12.47s-2.49,8.83-3.37,9.15c0,0-.7,5.19-5.83,3.84,0,0-.3,5.42-9.36,2.81s-12.85-1.77-14.61-10.81-3.43-8.89-5-10c-2.17-1.46-6.25-2.83-9.27-4.57-2.71-1.57-13.13-6.87-16.69-7.28s-2.77-12.37-2.77-12.37h9.19l4.44-6.55,9.18,8Zm-28.91-64.65s9.19,7.49,16.89,0c0,0,3.11,3.74,9.34,2.65s7.24-4.36,7.83-6.23c0,0,5.39,3.13,9.93.65s4.52-6.22,4.52-6.22,7.9,1.57,11.95-3.79,1.58-10.65-.6-11.28c0,0,8.54,2.24,10.87-5.09a8.43,8.43,0,0,0-2.47-9.45s18-.09,25.35-5.72c0,0,6.13-3.86,2.47-7.91,0,0,16.19-2.59,20.24-9a5.65,5.65,0,0,0,1.19-4.89,2,2,0,0,0-1.89-1.87s18.46-2.86,23.79-8.94a6.89,6.89,0,0,0,1.28-6.55,7.08,7.08,0,0,0-.71-1.66s16.8-3.54,25.09-11c0,0,4.78-4.26,2.31-10,0,0,28.08-7.68,21.58-20.05,0,0,13.13-4.26,9-16.11,0,0,10.85-5.51,6.13-14.24-4.53-8.36-18.46,1.46-34.93,6,0,0-44.62,14-66.59,17.76l-62.42,92.94-36.41,14-3.69,26Z" fill="#f4c53d" stroke="#010002" stroke-width="10"/><path d="M389.19,165.29s5.85-4.39,16.29.77c0,0,3.5,2.42,6.27-.22a5.61,5.61,0,0,0,.19-7.94,5.17,5.17,0,0,0-.83-.72c-7.79-5.77-10.66-23.07,1.17-30.25,0,0,17.16-10.17,80.14-26.19,0,0,5.27-1.48,8.1-.77a7.83,7.83,0,0,1,5.66,5.69s2.83,8-6.66,12.62a71.91,71.91,0,0,1-8.68,3.22,6.2,6.2,0,0,1,6.92,3.73c2,4.58-.9,9.26-9.78,12.27a49.47,49.47,0,0,1-5.83,1.76s7.6,2.19,3.94,8.33c0,0-3.25,6.44-14.75,7.59,0,0,8.58.93,2.53,9.09,0,0-2.66,4.47-11.05,6.13,0,0,6.35.21,3.16,5.91s-10.76,8.95-18.2,9.47a31.09,31.09,0,0,1-6.84-.42s7.08,3.54,2.93,9.46c0,0-3.06,4.21-10.71,4,0,0,2,6.62-3.63,9.12-4.36,2-8-1.17-8-1.17s1.47,7.09-4.89,9.59c0,0-3.18,1.64-7.92,0,0,0-3.62,8.11-16.5,2.41s-3-53.46-3-53.46ZM388.43,239s1.88,10.15,16.86,22.92c0,0,11.57,10.19,11.28,21.93-.3,12,2.06,13.31,6.61,17.36,0,0-9.38.74-13.91-5.51,0,0,.19,10.39,1.58,11.34,0,0-3,.18-7.21-4.48a19,19,0,0,0-4.94-3.74s2.77,7.18.6,13.83c0,0-.69-2.6-4.35-3.75,0,0-6.62-1.35-9.18-10.91,0,0-1.67-6.33-12-12,0,0-11.74-4.42-11.44-10.2S388.42,239,388.42,239Z" fill="#f4c53d" stroke="#010002" stroke-width="10"/><path d="M334,369.79s2.7,11.86,12.05,10.91c0,0,6.61-.63,6.11-11.65,0,0,9.77,5.21,11.35-7.68,0,0,8.88,2.06,8.78-10,0,0,8.28,1.44,7.3-9.26,0,0,9,2.41,9-7.68,0,0,21-3.49-22.79-43.45l-39.09,23.28Z" fill="#f4c53d" stroke="#010002" stroke-miterlimit="10" stroke-width="10"/><path d="M329.64,316.51s6.52,5.78,11.16-2.86c0,0,6.32-.31,7.3-5.09,0,0,5.13-.52,6.13-5.41,0,0,7-.72,6.8-6.64,0,0,12.74-1,0-15.41S326.69,305,326.69,305l2.95,11.48Zm-7.25-3.59c-6.33,0-13.48,39.45-11.63,63.22.68,8.62,5.3,15.67,11.63,15.67s10.93-7.05,11.59-15.67c1.87-23.77-5.29-63.22-11.59-63.22" fill="#f4c53d" stroke="#010002" stroke-width="10"/><ellipse cx="322.39" cy="312.62" rx="8.73" ry="12.95" fill="#f4c53d" stroke="#010002" stroke-width="10"/><path d="M352.15,369.05s-1-20.88-19.09-50.83m30.44,43.15s2.82-12.06-22.7-47.72c0,0,3-8.51-6.11-14m37.59,51.72s.8-13.05-24.18-42.83c0,0,2.21-7.68-6.83-13.82m38.31,47.39s-.93-13.19-25.35-39c0,0,1.2-7.89-7.53-12.78m41.85,44.08s-1.76-15.07-27.52-37.94c0,0,.89-5.93-7.69-11.95" fill="none" stroke="#010002" stroke-miterlimit="10" stroke-width="10"/><path d="M587.55,91.24S567.33,103,504.31,114.66m74.27-7.31s-54.76,17.85-80.26,20.05m58.7,0a589.54,589.54,0,0,1-69.75,16.45m42.33,4.57s-36.28,8.71-53.62,10.16m29.26,7s-30.69,6.4-38.46,7.17m18.92,8.62s-22.4,3.4-31.31,3.22M457.88,195s-9.06-.42-13.41-1.14m5,15.7s-7.71-2.08-12.24-5m.88,20.05a17.66,17.66,0,0,1-8.79-8.52m-5.67,14.09s-4.58-4.11-4.88-8.69m-12.29,12.27s1.72-1.49.55-7.93m1.67-9.46a9.39,9.39,0,0,0,.6-4.75m31.77-87.52s-10.36,4.16-13.81,9.88-1.19,11.27,0,14.45c.59,1.61,7.89,15.69-.69,25.88M441,185.33s-.06,0-3.7-1.2m25.56-13.76a75.85,75.85,0,0,1-12.24,1.29m20.78-16.53a138.8,138.8,0,0,1-14.08.63m24.87-16.53s-10.46,2.08-16.08,2.19m24.77-19.92a201.31,201.31,0,0,1-22.5,5M447,134.07s9.27,8.63-1.88,16.63c0,0,4.63,7.28-4.64,14.86m2.47,3.59S444.36,183,427.38,183c0,0,3.27,12.36-13.13,11.95,0,0-1.86,9.88-13.7,7.89m26.06,108.62s2.7.6,8.52,0m16.38,7.27s8.19-1.25,7.8,16.53m-12.73-12.48s7.4-.93,6.92,16.32m-78.39-57.88a12.1,12.1,0,0,1,6,3.53c2.46,2.8,7.2,2.28,7.2,2.28s-2.56-2.08-3.47-7.27-3.74-6.76-3.74-6.76m8.47-4.91a12.09,12.09,0,0,1,6,3.52c2.47,2.82,7.22,2.29,7.22,2.29s-2.56-2.08-3.47-7.27-3.75-6.76-3.75-6.76m-3.56,28.38a10.64,10.64,0,0,1,5.25,3.08c2.15,2.46,6.29,2,6.29,2s-2.25-1.81-3-6.36-3.28-5.9-3.28-5.9" fill="none" stroke="#010002" stroke-width="10"/><path d="M466,256l-14.3,61.7-5.9-4.2,14-59.2-9.8.2,23.1-42.3,1.5,48.7Zm37,13-43,50.8-4.6-5.2,42.8-50.2-8.7-4.6,39.2-26-20.3,43.8Z" fill="#0081c6" stroke="#010002" stroke-miterlimit="10" stroke-width="1.5"/><path d="M492.6,242l-38.5,74-5.9-3.5,38.7-73.8-9.4-2.4,32.7-34.6-10.5,47.5Zm-48,96.6-2.9,11.7,8,8-11.2,47-10-13.3-14.6,6.8,11.1-47,10.4-3,2.6-11.7A7.1,7.1,0,0,1,444.6,338.6Z" fill="#0081c6" stroke="#010002" stroke-miterlimit="10" stroke-width="1.5"/><path d="M447.3,330.8l-5.7,10.6,5.7,9.7-22.4,42.5L418.6,378l-15.9,2.6,22.4-42.4h10.7l5.5-10.6s4,0,6,3.2Z" fill="#0081c6" stroke="#010002" stroke-miterlimit="10" stroke-width="1.5"/><path d="M448.2,333.9l-15,19.2,3.4,10.8-30.9,36-2.8-16.6-16-1.2,30.8-36,10.4,2.5,16-20.4S448.5,330.4,448.2,333.9Zm-382.7-45c3.6-1.5,6.2-2.9,6.2-6.7a26,26,0,0,0-1.5-6.1L46,202a58.86,58.86,0,0,0-3-7.9c-1.1-2-3.2-2.9-6.1-4H67.6c-3.3,1.5-6.4,2.7-6.3,6.3a23.81,23.81,0,0,0,1.1,5.7l18.6,58,18.5-58a20.2,20.2,0,0,0,1.1-5.7c0-3.7-3.2-5-6.3-6.4h29.8c-2.7,1.1-5,2-6,4.1a63.6,63.6,0,0,0-3.1,8L90.8,276a37.73,37.73,0,0,0-1.5,6.1s-1.1,4.7,6.2,6.7h-30Zm515.3-7.6V197.6a6.18,6.18,0,0,0-.8-3.3,12.78,12.78,0,0,0-5.5-4.2h27.7a11.51,11.51,0,0,0-5.5,4.2,6.23,6.23,0,0,0-.7,3.3v83.7a6.39,6.39,0,0,0,.7,3.4,14.57,14.57,0,0,0,5.5,4.2H574.5a14.57,14.57,0,0,0,5.5-4.2A6.32,6.32,0,0,0,580.8,281.3Z" fill="#0081c6" stroke="#010002" stroke-miterlimit="10" stroke-width="1.5"/><path d="M324.8,309.8S399,276.9,399.1,201H250.5C250.7,277,324.8,309.8,324.8,309.8Z" fill="#fff" stroke="#010002" stroke-width="1.5"/><path d="M262,201v48.5s5.6,11.3,11.4,18.3V201Zm22.8,0v80s7.2,7,11.4,10.4V201Zm22.9,0v98.9s8.1,5.2,11.4,7v-106H307.7Zm80,0v48.5s-5.7,11.3-11.5,18.3V201Zm-22.9,0v80s-7.1,7-11.4,10.4V201ZM342,201v98.9s-8.2,5.2-11.5,7v-106H342Z" fill="#a60032" stroke="#010002" stroke-width="1.5"/><path d="M399.1,145.8s-36.4,19-74.3-1.6c-37.9,20.6-74.3,1.6-74.3,1.6V201H399.1V145.8Z" fill="#162667" stroke="#010002" stroke-miterlimit="10" stroke-width="1.5"/></svg>